<svg width="238" height="519" viewBox="0 0 238 519" fill="none" xmlns="http://www.w3.org/2000/svg">
<path opacity="0.2" d="M-130.348 -271.307L-165.667 -273.317C-165.74 -274.575 -166.661 -275.64 -167.852 -275.707C-169.13 -275.78 -170.198 -274.732 -170.264 -273.337C-170.303 -272.52 -169.943 -271.728 -169.391 -271.262L-188.67 -238.896C-188.972 -239.058 -189.276 -239.171 -189.584 -239.189C-190.863 -239.262 -191.93 -238.213 -191.997 -236.819C-192.064 -235.424 -191.103 -234.26 -189.824 -234.188C-189.471 -234.168 -189.158 -234.246 -188.886 -234.375L-172.803 -199.996C-173.397 -199.596 -173.83 -198.849 -173.869 -198.032C-173.909 -197.215 -173.548 -196.423 -172.996 -195.957L-192.275 -163.59C-192.577 -163.752 -192.881 -163.866 -193.189 -163.884C-194.468 -163.956 -195.535 -162.908 -195.602 -161.513C-195.669 -160.119 -194.708 -158.955 -193.429 -158.882C-193.076 -158.862 -192.763 -158.941 -192.491 -159.07L-176.408 -124.691C-177.002 -124.291 -177.435 -123.544 -177.474 -122.727C-177.495 -122.294 -177.425 -121.904 -177.267 -121.509C-177.107 -121.163 -176.901 -120.862 -176.645 -120.654L-195.924 -88.2877C-196.226 -88.4495 -196.53 -88.5632 -196.839 -88.5808C-198.029 -88.6485 -199.048 -87.6939 -199.24 -86.4511L-234.558 -88.461C-234.631 -89.7188 -235.553 -90.7838 -236.743 -90.8516C-237.096 -90.8716 -237.409 -90.7931 -237.681 -90.6639L-253.764 -125.043C-253.17 -125.443 -252.737 -126.19 -252.698 -127.007C-252.631 -128.402 -253.592 -129.566 -254.871 -129.638C-256.061 -129.706 -257.08 -128.752 -257.272 -127.509L-292.59 -129.519C-292.663 -130.776 -293.584 -131.841 -294.775 -131.909C-295.128 -131.929 -295.441 -131.851 -295.712 -131.721L-311.796 -166.1C-311.202 -166.501 -310.769 -167.247 -310.729 -168.065C-310.663 -169.459 -311.624 -170.623 -312.903 -170.696C-314.093 -170.764 -315.112 -169.809 -315.304 -168.566L-350.622 -170.576C-350.695 -171.834 -351.617 -172.899 -352.807 -172.967C-354.086 -173.04 -355.153 -171.991 -355.22 -170.597C-355.259 -169.779 -354.899 -168.987 -354.346 -168.522L-373.625 -136.155C-373.927 -136.317 -374.231 -136.431 -374.54 -136.448C-375.818 -136.521 -376.885 -135.473 -376.952 -134.078C-377.019 -132.684 -376.058 -131.52 -374.779 -131.447C-374.426 -131.427 -374.113 -131.506 -373.842 -131.635L-357.758 -97.2559C-358.352 -96.8558 -358.786 -96.1089 -358.825 -95.2914C-358.864 -94.4739 -358.504 -93.682 -357.951 -93.2166L-377.23 -60.8499C-377.23 -60.8499 -377.274 -60.8523 -377.272 -60.9004C-377.53 -61.0597 -377.836 -61.1255 -378.145 -61.143C-379.335 -61.2108 -380.354 -60.2562 -380.546 -59.0134L-415.864 -61.0233C-415.937 -62.2811 -416.859 -63.3461 -418.049 -63.4138C-419.328 -63.4866 -420.395 -62.4383 -420.462 -61.0438C-420.501 -60.2263 -420.141 -59.4343 -419.588 -58.9688L-438.867 -26.6022C-439.169 -26.764 -439.473 -26.8778 -439.782 -26.8953C-440.972 -26.9631 -441.991 -26.0084 -442.183 -24.7657L-477.502 -26.7755C-477.574 -28.0334 -478.496 -29.0984 -479.686 -29.1661C-480.965 -29.2389 -482.032 -28.1906 -482.099 -26.7961C-482.138 -25.9786 -481.778 -25.1866 -481.225 -24.7212L-500.504 7.64548C-500.806 7.48364 -501.11 7.36993 -501.419 7.35236C-502.698 7.2796 -503.765 8.32792 -503.831 9.72247C-503.898 11.117 -502.937 12.2807 -501.658 12.3535C-501.306 12.3735 -500.992 12.295 -500.721 12.1658L-484.637 46.5448C-485.231 46.945 -485.665 47.6918 -485.704 48.5092C-485.771 49.9038 -484.809 51.0675 -483.531 51.1403C-482.34 51.208 -481.322 50.2534 -481.13 49.0106L-445.811 51.0205C-445.785 51.4077 -445.713 51.7494 -445.551 52.0479C-445.188 52.7918 -444.464 53.3634 -443.626 53.4111C-443.273 53.4312 -442.96 53.3526 -442.689 53.2234L-426.605 87.6024C-427.199 88.0026 -427.633 88.7494 -427.672 89.5669C-427.739 90.9614 -426.777 92.1251 -425.499 92.1979C-424.308 92.2656 -423.29 91.311 -423.098 90.0683L-387.779 92.0781C-387.762 92.6577 -387.523 93.2017 -387.191 93.6546C-386.815 94.1099 -386.212 94.4336 -385.594 94.4687C-385.242 94.4888 -384.928 94.4102 -384.657 94.2809L-368.573 128.66C-369.167 129.06 -369.601 129.807 -369.64 130.625C-369.661 131.057 -369.591 131.447 -369.433 131.842C-369.273 132.188 -369.066 132.489 -368.813 132.745L-388.092 165.112C-388.394 164.95 -388.698 164.836 -389.006 164.818C-390.285 164.746 -391.352 165.794 -391.419 167.189C-391.486 168.583 -390.524 169.747 -389.246 169.82C-388.893 169.84 -388.58 169.761 -388.308 169.632L-372.225 204.011C-372.819 204.411 -373.252 205.158 -373.291 205.975C-373.312 206.408 -373.242 206.798 -373.084 207.193C-372.924 207.539 -372.717 207.84 -372.462 208.048L-391.741 240.414C-392.043 240.253 -392.347 240.139 -392.655 240.121C-393.846 240.054 -394.864 241.008 -395.057 242.251L-430.375 240.241C-430.448 238.983 -431.369 237.918 -432.56 237.85C-433.839 237.778 -434.906 238.826 -434.972 240.221C-435.012 241.038 -434.652 241.83 -434.099 242.295L-453.378 274.662C-453.68 274.5 -453.984 274.387 -454.293 274.369C-455.571 274.296 -456.638 275.344 -456.705 276.739C-456.772 278.134 -455.811 279.297 -454.532 279.37C-454.179 279.39 -453.866 279.312 -453.594 279.182L-437.511 313.561C-438.105 313.962 -438.538 314.708 -438.577 315.526C-438.644 316.92 -437.683 318.084 -436.404 318.157C-435.214 318.225 -434.195 317.27 -434.003 316.027L-398.685 318.037C-398.668 318.617 -398.429 319.161 -398.097 319.614C-397.721 320.069 -397.117 320.393 -396.5 320.428C-396.147 320.448 -395.834 320.369 -395.562 320.24L-379.479 354.619C-380.073 355.019 -380.506 355.766 -380.545 356.583C-380.612 357.978 -379.651 359.142 -378.372 359.214C-377.182 359.282 -376.163 358.328 -375.971 357.085L-340.653 359.095C-340.58 360.352 -339.658 361.418 -338.468 361.485C-337.189 361.558 -336.122 360.51 -336.055 359.115C-336.016 358.298 -336.376 357.506 -336.929 357.04L-317.65 324.674C-317.348 324.835 -317.044 324.949 -316.735 324.967C-315.545 325.035 -314.526 324.08 -314.334 322.837L-279.016 324.847C-278.999 325.427 -278.76 325.971 -278.428 326.423C-278.052 326.879 -277.448 327.202 -276.831 327.238C-276.478 327.258 -276.165 327.179 -275.893 327.05L-259.81 361.429C-260.086 361.654 -260.364 361.928 -260.512 362.257C-260.705 362.583 -260.814 363.011 -260.835 363.444C-260.874 364.261 -260.514 365.053 -259.961 365.519L-279.24 397.886C-279.542 397.724 -279.846 397.61 -280.155 397.592C-281.433 397.52 -282.501 398.568 -282.567 399.962C-282.634 401.357 -281.673 402.521 -280.394 402.594C-280.041 402.614 -279.728 402.535 -279.457 402.406L-263.373 436.785C-263.967 437.185 -264.401 437.932 -264.44 438.749C-264.456 439.086 -264.428 439.425 -264.309 439.721C-264.154 440.164 -263.905 440.516 -263.566 440.824L-282.845 473.191C-283.147 473.029 -283.451 472.915 -283.76 472.898C-285.038 472.825 -286.106 473.873 -286.172 475.268C-286.239 476.662 -285.278 477.826 -283.999 477.899C-283.646 477.919 -283.333 477.84 -283.062 477.711L-266.978 512.09C-267.572 512.49 -268.006 513.237 -268.045 514.055C-268.111 515.449 -267.15 516.613 -265.872 516.686C-264.681 516.753 -263.663 515.799 -263.471 514.556L-228.152 516.566C-228.079 517.824 -227.158 518.889 -225.967 518.956C-224.689 519.029 -223.621 517.981 -223.555 516.586C-223.516 515.769 -223.876 514.977 -224.428 514.511L-205.149 482.145C-204.847 482.307 -204.543 482.42 -204.19 482.44C-203 482.508 -201.982 481.554 -201.789 480.311L-166.471 482.321C-166.398 483.578 -165.477 484.644 -164.286 484.711C-163.007 484.784 -161.94 483.736 -161.874 482.341C-161.834 481.524 -162.194 480.732 -162.747 480.266L-143.468 447.9C-143.166 448.061 -142.862 448.175 -142.553 448.193C-141.363 448.26 -140.345 447.306 -140.152 446.063L-104.834 448.073C-104.817 448.653 -104.578 449.197 -104.246 449.649C-103.87 450.105 -103.266 450.428 -102.649 450.464C-102.296 450.484 -101.983 450.405 -101.712 450.276L-85.5696 485.285C-86.1635 485.685 -86.5972 486.432 -86.6363 487.249C-86.703 488.644 -85.7418 489.808 -84.4631 489.881C-83.2726 489.948 -82.2542 488.994 -82.0621 487.751L-46.7434 489.761C-46.671 491.019 -45.7493 492.084 -44.5588 492.151C-43.2801 492.224 -42.213 491.176 -42.1462 489.781C-42.1071 488.964 -42.4671 488.172 -43.0196 487.706L-23.7405 455.34C-23.4388 455.502 -23.1347 455.615 -22.8261 455.633C-21.5474 455.706 -20.4803 454.657 -20.4135 453.263C-20.3468 451.868 -21.3079 450.704 -22.5867 450.632C-22.9394 450.612 -23.2527 450.69 -23.5241 450.819L-39.6079 416.44C-39.014 416.04 -38.5803 415.293 -38.5411 414.476C-38.502 413.658 -38.862 412.866 -39.4145 412.401L-20.1355 380.034C-19.8337 380.196 -19.5297 380.31 -19.221 380.328C-18.2069 380.385 -17.2905 379.714 -16.9312 378.674C-16.8802 378.532 -16.8269 378.342 -16.82 378.198L18.4987 380.208C18.5711 381.466 19.4929 382.531 20.6834 382.598C21.9621 382.671 23.0292 381.623 23.0959 380.228C23.1351 379.411 22.7751 378.619 22.2226 378.153L41.5016 345.787C41.8033 345.949 42.1074 346.062 42.416 346.08C43.6066 346.148 44.625 345.193 44.8171 343.95L80.1358 345.96C80.1522 346.54 80.3915 347.084 80.7235 347.537C81.0996 347.992 81.7031 348.316 82.3204 348.351C82.6732 348.371 82.9864 348.292 83.2579 348.163L99.4367 382.403C98.8428 382.803 98.4091 383.55 98.37 384.367C98.3032 385.762 99.2644 386.925 100.543 386.998C101.734 387.066 102.752 386.111 102.944 384.869L138.263 386.878C138.335 388.136 139.257 389.201 140.448 389.269C141.726 389.342 142.793 388.293 142.86 386.899C142.899 386.081 142.539 385.289 141.987 384.824L161.266 352.457C161.567 352.619 161.872 352.733 162.18 352.751C163.459 352.823 164.526 351.775 164.593 350.38C164.659 348.986 163.698 347.822 162.42 347.749C162.067 347.729 161.754 347.808 161.482 347.937L145.398 313.558C145.992 313.158 146.426 312.411 146.465 311.594C146.504 310.776 146.144 309.984 145.592 309.519L164.871 277.152C165.173 277.314 165.477 277.428 165.785 277.445C167.064 277.518 168.131 276.47 168.198 275.075C168.265 273.681 167.303 272.517 166.025 272.444C165.672 272.424 165.359 272.503 165.087 272.632L149.003 238.253C149.597 237.853 150.031 237.106 150.07 236.288C150.137 234.894 149.176 233.73 147.897 233.657C146.707 233.59 145.688 234.544 145.496 235.787L110.177 233.777C110.105 232.519 109.183 231.454 107.993 231.387C107.64 231.366 107.327 231.445 107.055 231.574L90.9714 197.195C91.5654 196.795 91.999 196.048 92.0382 195.231C92.0773 194.413 91.7173 193.621 91.1648 193.156L110.397 160.835C110.655 160.994 111.003 161.11 111.312 161.128C111.797 161.156 112.245 161.036 112.611 160.768C113.203 160.416 113.588 159.763 113.713 158.998L149.032 161.008C149.104 162.266 150.026 163.331 151.216 163.399C152.495 163.471 153.562 162.423 153.629 161.029C153.668 160.211 153.308 159.419 152.755 158.954L172.035 126.587C172.336 126.749 172.64 126.863 172.949 126.88C174.139 126.948 175.158 125.993 175.35 124.751L210.713 126.763C210.785 128.021 211.707 129.086 212.897 129.154C214.176 129.226 215.243 128.178 215.31 126.783C215.349 125.966 214.989 125.174 214.437 124.709L233.729 92.0534C234.031 92.2152 234.335 92.3289 234.644 92.3465C235.923 92.4193 236.99 91.371 237.056 89.9764C237.123 88.5819 236.162 87.4181 234.883 87.3454C234.531 87.3253 234.217 87.4039 233.946 87.5331L217.862 53.1541C218.456 52.7539 218.89 52.0071 218.929 51.1896C218.996 49.7951 218.034 48.6314 216.756 48.5586C215.565 48.4909 214.547 49.4455 214.355 50.6882L179.036 48.6784C178.964 47.4206 178.042 46.3556 176.851 46.2878C176.499 46.2677 176.185 46.3463 175.914 46.4755L159.83 12.0965C160.424 11.6963 160.858 10.9495 160.897 10.132C160.964 8.73747 160.002 7.57373 158.724 7.50096C157.533 7.43321 156.515 8.38784 156.323 9.63059L121.004 7.62073C120.932 6.36293 120.01 5.29789 118.819 5.23015C118.467 5.21007 118.153 5.28871 117.882 5.4179L101.798 -28.9611C102.392 -29.3613 102.826 -30.1081 102.865 -30.9256C102.904 -31.7431 102.544 -32.5351 101.991 -33.0005L121.271 -65.3671C121.572 -65.2053 121.876 -65.0915 122.185 -65.074C123.464 -65.0012 124.531 -66.0496 124.598 -67.4441C124.664 -68.8386 123.703 -70.0024 122.424 -70.0752C122.072 -70.0952 121.758 -70.0166 121.487 -69.8874L105.403 -104.266C105.997 -104.667 106.431 -105.413 106.47 -106.231C106.537 -107.625 105.575 -108.789 104.297 -108.862C103.106 -108.93 102.088 -107.975 101.896 -106.732L66.577 -108.742C66.5046 -110 65.5829 -111.065 64.3924 -111.133C63.1137 -111.206 62.0466 -110.157 61.9798 -108.763C61.9407 -107.945 62.3007 -107.153 62.8532 -106.688L43.5742 -74.3211C43.2724 -74.4829 42.9684 -74.5967 42.6597 -74.6143C41.4692 -74.682 40.4508 -73.7274 40.2587 -72.4846L4.89589 -74.497C4.86331 -74.74 4.83072 -74.9829 4.75404 -75.2283C4.44503 -76.1621 3.68129 -76.8324 2.71124 -76.8876C2.35849 -76.9077 2.04523 -76.829 1.77377 -76.6998L-14.31 -111.079C-13.7161 -111.479 -13.2824 -112.226 -13.2432 -113.043C-13.1765 -114.438 -14.1377 -115.602 -15.4164 -115.674C-16.6069 -115.742 -17.6253 -114.787 -17.8174 -113.545L-53.1361 -115.555C-53.1667 -116.762 -54.0049 -117.726 -55.1003 -117.933C-55.1885 -117.938 -55.2767 -117.943 -55.3208 -117.945C-55.4089 -117.95 -55.4971 -117.955 -55.5412 -117.958C-55.8081 -117.925 -56.0309 -117.889 -56.2559 -117.806L-72.3396 -152.185C-71.7457 -152.585 -71.3121 -153.332 -71.2729 -154.149C-71.2338 -154.966 -71.5938 -155.759 -72.1463 -156.224L-52.8673 -188.591C-52.5655 -188.429 -52.2615 -188.315 -51.9528 -188.297C-50.6741 -188.225 -49.607 -189.273 -49.5403 -190.668C-49.4735 -192.062 -50.4347 -193.226 -51.7134 -193.299C-52.0661 -193.319 -52.3794 -193.24 -52.6509 -193.111L-68.7346 -227.49C-68.1407 -227.89 -67.707 -228.637 -67.6679 -229.454C-67.6011 -230.849 -68.5623 -232.013 -69.841 -232.085C-71.0315 -232.153 -72.0499 -231.198 -72.2421 -229.956L-107.561 -231.966C-107.633 -233.223 -108.555 -234.288 -109.745 -234.356C-110.098 -234.376 -110.411 -234.298 -110.683 -234.168L-126.767 -268.547C-126.173 -268.948 -125.739 -269.694 -125.7 -270.512C-125.633 -271.906 -126.594 -273.07 -127.873 -273.143C-129.138 -273.504 -130.154 -272.598 -130.348 -271.307ZM-314.836 321.314C-315.212 320.858 -315.816 320.535 -316.433 320.5C-316.786 320.48 -317.099 320.558 -317.37 320.687L-333.454 286.308C-332.86 285.908 -332.427 285.161 -332.387 284.344C-332.348 283.526 -332.708 282.734 -333.261 282.269L-316.241 253.68L-313.982 249.902C-313.68 250.064 -313.376 250.178 -313.067 250.195C-311.877 250.263 -310.858 249.309 -310.666 248.066L-275.348 250.076C-275.32 250.415 -275.248 250.756 -275.129 251.052C-274.769 251.844 -274.045 252.416 -273.163 252.466C-272.81 252.486 -272.497 252.408 -272.226 252.279L-256.142 286.658C-256.736 287.058 -257.169 287.805 -257.208 288.622C-257.248 289.44 -256.888 290.232 -256.335 290.697L-275.614 323.064C-275.916 322.902 -276.22 322.788 -276.529 322.77C-277.719 322.703 -278.737 323.657 -278.93 324.9L-314.248 322.89C-314.265 322.311 -314.46 321.769 -314.836 321.314ZM47.5109 192.552C47.4718 193.37 47.8318 194.162 48.3843 194.627L29.1053 226.994C28.8035 226.832 28.4995 226.718 28.1908 226.701C27.0003 226.633 25.9819 227.588 25.7898 228.83L-9.52894 226.82C-9.55692 226.481 -9.62898 226.14 -9.74744 225.844C-10.1074 225.052 -10.8317 224.48 -11.7136 224.43C-12.0663 224.41 -12.3796 224.488 -12.6511 224.618L-28.6907 190.241C-28.3242 189.973 -28.0435 189.651 -27.8905 189.226C-27.7444 188.945 -27.6842 188.611 -27.6658 188.226C-27.6266 187.408 -27.9866 186.616 -28.5391 186.151L-9.3065 153.83L-9.2624 153.833C-9.00475 153.992 -8.69839 154.057 -8.38974 154.075C-7.41969 154.13 -6.59609 153.55 -6.1996 152.657C-6.0999 152.421 -6.04429 152.183 -5.98869 151.945L29.33 153.955C29.4024 155.213 30.3241 156.278 31.5147 156.346C31.8674 156.366 32.1806 156.287 32.4962 156.161L48.58 190.54C47.9837 190.988 47.5524 191.687 47.5109 192.552ZM-98.7417 370.691C-99.9322 370.623 -100.951 371.578 -101.143 372.821L-136.461 370.811C-136.534 369.553 -137.456 368.488 -138.646 368.42C-138.999 368.4 -139.312 368.479 -139.584 368.608L-155.667 334.229C-155.073 333.829 -154.64 333.082 -154.601 332.265C-154.564 331.495 -154.838 330.756 -155.346 330.293C-155.388 330.243 -155.432 330.24 -155.474 330.19L-136.195 297.823C-135.893 297.985 -135.589 298.099 -135.28 298.116C-134.09 298.184 -133.072 297.229 -132.879 295.986L-97.5607 297.996C-97.4882 299.254 -96.5666 300.319 -95.376 300.387C-95.0233 300.407 -94.71 300.328 -94.4385 300.199L-78.3525 334.53C-78.7655 334.844 -79.0948 335.259 -79.2524 335.781C-79.3521 336.016 -79.3636 336.257 -79.3775 336.545C-79.4166 337.363 -79.0566 338.155 -78.5041 338.62L-97.7831 370.987C-98.0826 370.777 -98.389 370.711 -98.7417 370.691ZM-310.641 247.537C-310.713 246.279 -311.635 245.214 -312.826 245.146C-313.178 245.126 -313.492 245.205 -313.763 245.334L-329.847 210.955C-329.253 210.555 -328.819 209.808 -328.78 208.991C-328.743 208.221 -329.017 207.482 -329.526 207.019C-329.568 206.969 -329.612 206.966 -329.653 206.916L-310.374 174.549C-310.073 174.711 -309.769 174.825 -309.46 174.842C-308.269 174.91 -307.251 173.955 -307.059 172.712L-271.74 174.722C-271.708 174.965 -271.675 175.208 -271.598 175.454C-271.289 176.387 -270.526 177.058 -269.556 177.113C-269.203 177.133 -268.89 177.054 -268.618 176.925L-252.534 211.304C-253.128 211.704 -253.562 212.451 -253.601 213.269C-253.633 213.942 -253.399 214.582 -253.025 215.086C-252.941 215.187 -252.858 215.288 -252.772 215.341L-272.051 247.708C-272.353 247.546 -272.657 247.432 -272.965 247.415C-274.156 247.347 -275.174 248.301 -275.366 249.544L-310.641 247.537ZM-325.17 133.589C-325.15 133.156 -325.217 132.718 -325.377 132.372C-325.538 132.025 -325.744 131.724 -326 131.517L-306.721 99.15C-306.419 99.3118 -306.115 99.4256 -305.806 99.4431C-304.616 99.5109 -303.597 98.5562 -303.405 97.3135L-268.086 99.3234C-268.054 99.5663 -268.021 99.8092 -267.945 100.055C-267.636 100.988 -266.872 101.659 -265.902 101.714C-265.549 101.734 -265.236 101.655 -264.964 101.526L-248.881 135.905C-249.475 136.305 -249.908 137.052 -249.947 137.87C-249.963 138.206 -249.936 138.545 -249.817 138.841C-249.74 139.087 -249.617 139.287 -249.494 139.487C-249.369 139.639 -249.243 139.79 -249.074 139.945L-268.353 172.311C-268.655 172.149 -268.959 172.036 -269.267 172.018C-270.238 171.963 -271.061 172.543 -271.458 173.437C-271.557 173.672 -271.613 173.91 -271.669 174.148L-306.987 172.138C-307.015 171.799 -307.087 171.457 -307.206 171.161C-307.566 170.369 -308.29 169.797 -309.172 169.747C-309.525 169.727 -309.838 169.806 -310.109 169.935L-326.193 135.556C-325.641 135.105 -325.21 134.407 -325.17 133.589ZM-321.561 58.1876C-321.522 57.3701 -321.882 56.5781 -322.434 56.1127L-305.414 27.5232L-303.155 23.746C-302.853 23.9079 -302.549 24.0216 -302.241 24.0391C-301.05 24.1069 -300.032 23.1523 -299.84 21.9095L-264.521 23.9194C-264.493 24.2585 -264.421 24.6001 -264.302 24.8962C-263.942 25.6882 -263.218 26.2598 -262.336 26.31C-261.984 26.33 -261.67 26.2514 -261.399 26.1222L-245.315 60.5012C-245.909 60.9014 -246.343 61.6482 -246.382 62.4657C-246.421 63.2832 -246.061 64.0752 -245.508 64.5406L-264.788 96.9073C-265.089 96.7454 -265.393 96.6317 -265.702 96.6141C-266.892 96.5464 -267.911 97.501 -268.103 98.7438L-303.422 96.7339C-303.454 96.491 -303.487 96.248 -303.563 96.0026C-303.872 95.0688 -304.636 94.3985 -305.606 94.3433C-305.959 94.3233 -306.272 94.4019 -306.544 94.5311L-322.628 60.152C-322.034 59.7519 -321.6 59.005 -321.561 58.1876ZM-24.9505 38.2275C-24.6415 39.1613 -23.8778 39.8315 -22.9077 39.8867C-22.555 39.9068 -22.2417 39.8282 -21.9702 39.699L-5.88648 74.078C-6.48041 74.4782 -6.91409 75.225 -6.95323 76.0425C-6.99236 76.86 -6.63235 77.652 -6.07985 78.1174L-25.3589 110.484L-25.403 110.482C-25.6606 110.322 -25.967 110.257 -26.2756 110.239C-27.4662 110.171 -28.4846 111.126 -28.6767 112.369L-63.9954 110.359C-64.0398 109.44 -64.5739 108.59 -65.3074 108.211C-65.565 108.051 -65.8714 107.986 -66.18 107.968C-66.5328 107.948 -66.846 108.027 -67.1175 108.156L-83.2012 73.7769C-82.6073 73.3768 -82.1736 72.6299 -82.1345 71.8124C-82.0954 70.995 -82.4554 70.203 -83.0079 69.7375L-63.7288 37.3709C-63.5129 37.4796 -63.2971 37.5883 -63.0325 37.6034C-62.9444 37.6084 -62.8562 37.6134 -62.8121 37.6159C-61.6216 37.6837 -60.6032 36.7291 -60.411 35.4863L-25.0924 37.4962C-25.0621 37.7872 -25.0295 38.0302 -24.9505 38.2275ZM-10.5629 151.444C-10.6043 152.31 -10.242 153.053 -9.68951 153.519L-28.9222 185.84C-29.2239 185.678 -29.528 185.564 -29.8366 185.547C-30.8067 185.492 -31.6303 186.072 -32.0268 186.965C-32.1264 187.201 -32.182 187.439 -32.2376 187.676L-67.5563 185.667C-67.5843 185.328 -67.6564 184.986 -67.7748 184.69C-68.1349 183.898 -68.8591 183.326 -69.741 183.276C-70.0937 183.256 -70.407 183.335 -70.6785 183.464L-86.7622 149.085C-86.1683 148.685 -85.7346 147.938 -85.6955 147.12C-85.6655 146.495 -85.8166 145.956 -86.1486 145.503C-86.274 145.351 -86.3993 145.2 -86.5688 145.045L-67.2898 112.679L-67.2457 112.681C-66.9881 112.841 -66.6817 112.906 -66.373 112.924C-65.1825 112.992 -64.1641 112.037 -63.972 110.794L-28.6533 112.804C-28.6368 113.383 -28.3976 113.928 -28.0656 114.38C-27.8566 114.633 -27.6454 114.838 -27.3413 114.952C-27.0837 115.111 -26.7773 115.177 -26.4687 115.195C-26.1159 115.215 -25.8027 115.136 -25.5312 115.007L-9.49153 149.383C-10.0924 149.928 -10.5238 150.627 -10.5629 151.444ZM-263.487 99.2958C-263.471 98.9592 -263.499 98.62 -263.617 98.324C-263.731 97.9318 -263.936 97.5826 -264.233 97.3246C-264.274 97.274 -264.319 97.2715 -264.36 97.2209L-245.081 64.8542C-244.78 65.0161 -244.476 65.1298 -244.167 65.1473C-242.976 65.2151 -241.958 64.2605 -241.766 63.0177L-206.447 65.0276C-206.419 65.3667 -206.347 65.7084 -206.229 66.0044C-205.869 66.7964 -205.144 67.368 -204.262 67.4181C-203.91 67.4382 -203.596 67.3596 -203.325 67.2304L-187.241 101.609C-187.835 102.01 -188.269 102.756 -188.308 103.574C-188.324 103.911 -188.296 104.25 -188.178 104.546C-188.138 104.644 -188.14 104.692 -188.101 104.791C-187.941 105.138 -187.734 105.439 -187.479 105.646L-206.758 138.013C-207.06 137.851 -207.364 137.737 -207.672 137.72C-208.863 137.652 -209.881 138.607 -210.073 139.849L-245.392 137.84C-245.425 137.597 -245.457 137.354 -245.534 137.108C-245.843 136.175 -246.607 135.504 -247.577 135.449C-247.929 135.429 -248.243 135.508 -248.514 135.637L-264.598 101.258C-263.96 100.86 -263.526 100.113 -263.487 99.2958ZM-91.5247 219.936C-92.4065 219.886 -93.1814 220.372 -93.6151 221.119C-93.7612 221.4 -93.8655 221.732 -93.9257 222.066L-129.244 220.056C-129.317 218.798 -130.239 217.733 -131.429 217.665C-131.782 217.645 -132.095 217.724 -132.411 217.851L-148.494 183.472C-147.9 183.072 -147.467 182.325 -147.428 181.507C-147.388 180.69 -147.748 179.898 -148.301 179.432L-134.358 156.02L-129.022 147.066C-128.72 147.227 -128.416 147.341 -128.107 147.359C-126.917 147.427 -125.899 146.472 -125.706 145.229L-90.3878 147.239C-90.3598 147.578 -90.2877 147.92 -90.1693 148.216C-89.8093 149.008 -89.085 149.579 -88.2031 149.63C-87.8504 149.65 -87.5371 149.571 -87.2656 149.442L-71.1355 183.775C-71.7294 184.175 -72.1631 184.922 -72.2023 185.74C-72.2414 186.557 -71.8814 187.349 -71.3289 187.815L-90.6079 220.181C-90.8655 220.022 -91.1719 219.956 -91.5247 219.936ZM-187.537 177.971C-187.897 177.179 -188.621 176.607 -189.503 176.557C-189.856 176.537 -190.169 176.616 -190.44 176.745L-206.524 142.366C-205.93 141.966 -205.496 141.219 -205.457 140.401C-205.441 140.065 -205.513 139.723 -205.588 139.43C-205.743 138.987 -205.992 138.635 -206.287 138.329L-187.008 105.962C-186.706 106.124 -186.402 106.238 -186.093 106.256C-184.903 106.323 -183.884 105.369 -183.692 104.126L-148.373 106.136C-148.345 106.475 -148.273 106.817 -148.155 107.113C-147.795 107.905 -147.071 108.476 -146.189 108.526C-145.836 108.546 -145.523 108.468 -145.251 108.339L-129.167 142.718C-129.761 143.118 -130.195 143.865 -130.234 144.682C-130.273 145.5 -129.913 146.292 -129.361 146.757L-148.64 179.124C-148.942 178.962 -149.246 178.848 -149.554 178.831C-150.745 178.763 -151.763 179.717 -151.955 180.96L-187.274 178.95C-187.302 178.611 -187.374 178.27 -187.537 177.971ZM-85.4197 73.94C-85.1621 74.0993 -84.8557 74.165 -84.5471 74.1825C-84.1943 74.2026 -83.881 74.124 -83.6096 73.9948L-67.5699 108.371C-68.1638 108.771 -68.5975 109.518 -68.6367 110.336C-68.6781 111.201 -68.3158 111.945 -67.7656 112.459L-87.0446 144.825C-87.3464 144.664 -87.6504 144.55 -87.9591 144.532C-89.1496 144.465 -90.168 145.419 -90.3601 146.662L-125.679 144.652C-125.751 143.394 -126.673 142.329 -127.863 142.261C-128.216 142.241 -128.529 142.32 -128.801 142.449L-144.885 108.07C-144.291 107.67 -143.857 106.923 -143.818 106.106C-143.781 105.336 -144.055 104.597 -144.564 104.135C-144.605 104.084 -144.65 104.081 -144.691 104.031L-125.412 71.6642C-125.111 71.826 -124.806 71.9397 -124.498 71.9573C-123.307 72.025 -122.289 71.0704 -122.097 69.8277L-86.7781 71.8375C-86.6895 72.7587 -86.1973 73.5582 -85.4197 73.94ZM-142.841 33.0617C-142.753 33.0668 -142.665 33.0718 -142.621 33.0743C-142.268 33.0944 -141.955 33.0158 -141.683 32.8865L-125.6 67.2656C-126.059 67.6252 -126.437 68.1341 -126.599 68.7517C-126.65 68.8935 -126.659 69.0858 -126.669 69.2782C-126.708 70.0956 -126.348 70.8876 -125.795 71.3531L-145.074 103.72C-145.376 103.558 -145.68 103.444 -145.989 103.427C-147.179 103.359 -148.198 104.313 -148.39 105.556L-183.709 103.546C-183.741 103.303 -183.774 103.06 -183.85 102.815C-184.159 101.881 -184.923 101.211 -185.893 101.156C-186.246 101.136 -186.559 101.214 -186.831 101.344L-202.914 66.9645C-202.32 66.5643 -201.887 65.8175 -201.848 65C-201.832 64.6634 -201.904 64.3217 -201.978 64.0282C-202.134 63.5854 -202.382 63.2337 -202.677 62.9276L-183.398 30.561C-183.14 30.7203 -182.792 30.8365 -182.483 30.8541C-181.293 30.9218 -180.275 29.9672 -180.082 28.7245L-144.764 30.7343C-144.731 31.8934 -143.939 32.9028 -142.841 33.0617ZM-250.054 211.204C-250.353 210.994 -250.745 210.876 -251.142 210.853C-251.495 210.833 -251.808 210.912 -252.08 211.041L-268.163 176.662C-267.704 176.302 -267.326 175.793 -267.164 175.176C-267.113 175.034 -267.104 174.842 -267.094 174.649C-267.085 174.457 -267.078 174.313 -267.113 174.118C-267.216 173.485 -267.499 172.938 -267.965 172.526L-248.686 140.16C-248.385 140.321 -248.081 140.435 -247.772 140.453C-246.581 140.52 -245.563 139.566 -245.371 138.323L-210.052 140.333C-210.02 140.576 -209.987 140.819 -209.91 141.064C-209.871 141.163 -209.873 141.211 -209.834 141.31C-209.474 142.102 -208.749 142.673 -207.868 142.723C-207.515 142.744 -207.202 142.665 -206.93 142.536L-190.846 176.915C-191.44 177.315 -191.874 178.062 -191.913 178.879C-191.952 179.697 -191.592 180.489 -191.04 180.954L-210.319 213.321C-210.62 213.159 -210.925 213.045 -211.233 213.028C-212.424 212.96 -213.442 213.915 -213.634 215.157L-248.953 213.147C-249.004 212.373 -249.411 211.627 -250.054 211.204ZM-209.065 215.755C-209.028 214.985 -209.302 214.247 -209.81 213.784C-209.852 213.733 -209.896 213.731 -209.938 213.68L-190.659 181.313C-190.357 181.475 -190.053 181.589 -189.745 181.606C-188.554 181.674 -187.536 180.72 -187.343 179.477L-152.025 181.487C-151.952 182.744 -151.031 183.81 -149.84 183.877C-149.487 183.897 -149.174 183.819 -148.903 183.69L-132.819 218.069C-133.095 218.294 -133.371 218.519 -133.519 218.848C-133.712 219.175 -133.821 219.603 -133.842 220.036C-133.874 220.709 -133.639 221.349 -133.265 221.852C-133.182 221.954 -133.098 222.055 -133.012 222.108L-144.265 241.044L-152.247 254.477C-152.549 254.315 -152.853 254.202 -153.162 254.184C-154.044 254.134 -154.818 254.62 -155.252 255.367C-155.398 255.648 -155.503 255.979 -155.563 256.314L-190.881 254.304C-190.954 253.046 -191.876 251.981 -193.066 251.913C-193.419 251.893 -193.732 251.972 -194.048 252.098L-210.131 217.719C-209.493 217.322 -209.104 216.572 -209.065 215.755ZM-133.439 293.833C-133.816 293.378 -134.419 293.054 -135.036 293.019C-135.389 292.999 -135.702 293.077 -135.974 293.207L-152.058 258.828C-151.828 258.648 -151.642 258.465 -151.454 258.235C-151.171 257.865 -151.016 257.392 -150.991 256.863C-150.961 256.238 -151.112 255.699 -151.444 255.246C-151.569 255.094 -151.695 254.943 -151.864 254.788L-146.767 246.206L-132.629 222.419C-132.328 222.581 -132.023 222.695 -131.715 222.712C-130.833 222.762 -130.058 222.276 -129.624 221.529C-129.478 221.248 -129.374 220.917 -129.314 220.583L-93.9951 222.592C-93.9786 223.172 -93.7394 223.716 -93.4074 224.169C-93.0313 224.624 -92.4278 224.948 -91.8104 224.983C-91.4577 225.003 -91.1445 224.924 -90.873 224.795L-74.7429 259.129C-75.1094 259.397 -75.3901 259.719 -75.5431 260.144C-75.6892 260.425 -75.7494 260.759 -75.7655 261.096C-75.8046 261.913 -75.4446 262.705 -74.8922 263.171L-94.1271 295.54C-94.4288 295.378 -94.7329 295.264 -95.0415 295.247C-96.0557 295.189 -96.9721 295.86 -97.3314 296.9C-97.3823 297.042 -97.4357 297.232 -97.4426 297.376L-132.761 295.366C-132.868 294.83 -133.107 294.286 -133.439 293.833ZM-33.4486 260.996C-34.4186 260.941 -35.2423 261.521 -35.6387 262.415C-35.7384 262.65 -35.794 262.888 -35.8496 263.126L-71.1683 261.116C-71.2407 259.858 -72.1624 258.793 -73.353 258.726C-73.7057 258.706 -74.0189 258.784 -74.3345 258.911L-90.3741 224.534C-90.0076 224.266 -89.727 223.944 -89.5739 223.519C-89.4278 223.238 -89.3676 222.904 -89.3515 222.567C-89.3124 221.75 -89.6724 220.958 -90.2249 220.492L-70.9458 188.126C-70.6441 188.288 -70.34 188.401 -70.0314 188.419C-68.8409 188.487 -67.8225 187.532 -67.6303 186.289L-32.3117 188.299C-32.2392 189.557 -31.3175 190.622 -30.127 190.69C-29.7743 190.71 -29.461 190.631 -29.1896 190.502L-13.1058 224.881C-13.4724 225.149 -13.753 225.471 -13.906 225.896C-14.0521 226.177 -14.1123 226.511 -14.1285 226.848C-14.1676 227.665 -13.8076 228.457 -13.2551 228.923L-32.49 261.292C-32.7918 261.13 -33.1399 261.014 -33.4486 260.996ZM-64.9852 34.9849C-65.0013 35.3215 -64.9734 35.6607 -64.8549 35.9567C-64.6992 36.3995 -64.4508 36.7512 -64.1119 37.0598L-83.3909 69.4264L-83.435 69.4239C-83.6926 69.2646 -83.999 69.1989 -84.3077 69.1814C-85.4982 69.1136 -86.5165 70.0683 -86.7087 71.311L-122.027 69.3012C-122.079 68.5267 -122.399 67.8335 -122.954 67.4162C-123.293 67.1076 -123.727 66.9382 -124.212 66.9106C-124.565 66.8905 -124.878 66.9691 -125.149 67.0983L-141.233 32.7193C-140.639 32.3191 -140.206 31.5723 -140.167 30.7548C-140.137 30.1297 -140.288 29.5907 -140.62 29.1378C-140.745 28.986 -140.87 28.8343 -141.04 28.68L-121.761 -3.6867C-121.545 -3.57795 -121.329 -3.46927 -121.065 -3.45421C-120.976 -3.44919 -120.888 -3.44417 -120.844 -3.44167C-119.654 -3.37392 -118.635 -4.32861 -118.443 -5.57136L-83.1243 -3.5615C-83.1079 -2.98195 -82.8686 -2.43784 -82.5366 -1.98497C-82.2023 -1.58021 -81.7311 -1.26412 -81.1602 -1.1834C-81.072 -1.17838 -80.9838 -1.17336 -80.9397 -1.17085C-80.587 -1.15078 -80.2737 -1.22942 -80.0022 -1.35861L-63.9626 33.0179C-64.5124 33.4206 -64.9461 34.1674 -64.9852 34.9849ZM-202.837 -10.3739C-202.821 -9.79439 -202.582 -9.25028 -202.25 -8.79741C-201.874 -8.34204 -201.27 -8.01842 -200.653 -7.98329C-200.3 -7.96322 -199.987 -8.04186 -199.715 -8.17105L-183.632 26.208C-183.678 26.2536 -183.722 26.251 -183.769 26.2966C-184.321 26.7474 -184.662 27.4031 -184.698 28.1725C-184.737 28.99 -184.377 29.7819 -183.825 30.2473L-203.06 62.6165C-203.362 62.4547 -203.666 62.3409 -203.974 62.3234C-205.165 62.2556 -206.183 63.2103 -206.375 64.453L-241.694 62.4432C-241.767 61.1854 -242.688 60.1203 -243.879 60.0526C-243.967 60.0475 -244.055 60.0425 -244.099 60.04C-244.366 60.0731 -244.589 60.1086 -244.814 60.1922L-260.898 25.8132C-260.304 25.413 -259.87 24.6662 -259.831 23.8488C-259.801 23.2236 -259.952 22.6846 -260.284 22.2317C-260.409 22.0799 -260.535 21.9281 -260.704 21.7738L-241.425 -10.5928C-241.123 -10.431 -240.819 -10.3173 -240.511 -10.2997C-240.026 -10.2721 -239.578 -10.3912 -239.211 -10.6597C-238.62 -11.0118 -238.235 -11.665 -238.11 -12.4293L-202.835 -10.422L-202.837 -10.3739ZM-212.994 292.295C-212.802 291.969 -212.693 291.541 -212.672 291.108C-212.633 290.291 -212.993 289.499 -213.545 289.033L-194.266 256.667C-193.965 256.829 -193.661 256.942 -193.352 256.96C-192.382 257.015 -191.558 256.435 -191.162 255.541C-191.062 255.306 -191.006 255.068 -190.951 254.83L-155.632 256.84C-155.56 258.098 -154.638 259.163 -153.448 259.231C-153.095 259.251 -152.781 259.172 -152.466 259.045L-136.382 293.424C-136.976 293.825 -137.41 294.571 -137.449 295.389C-137.488 296.206 -137.128 296.998 -136.576 297.464L-155.855 329.83C-156.156 329.669 -156.46 329.555 -156.769 329.537C-157.96 329.47 -158.978 330.424 -159.17 331.667L-194.489 329.657C-194.517 329.318 -194.589 328.976 -194.707 328.68C-195.067 327.888 -195.792 327.317 -196.673 327.267C-197.026 327.246 -197.339 327.325 -197.611 327.454L-213.695 293.075C-213.421 292.898 -213.187 292.622 -212.994 292.295ZM-37.0582 336.398C-38.0724 336.34 -38.9911 337.059 -39.3481 338.052C-39.3991 338.193 -39.4524 338.383 -39.4593 338.528L-74.7779 336.518C-74.8504 335.26 -75.7721 334.195 -76.9626 334.127C-77.3153 334.107 -77.6286 334.186 -77.9001 334.315L-93.9838 299.936C-93.5708 299.622 -93.2415 299.207 -93.0839 298.685C-92.9842 298.45 -92.9727 298.209 -92.9589 297.921C-92.9197 297.103 -93.2798 296.311 -93.8322 295.846L-74.5973 263.477C-74.2956 263.638 -73.9915 263.752 -73.6828 263.77C-72.801 263.82 -72.0261 263.334 -71.5924 262.587C-71.4973 262.448 -71.4463 262.306 -71.393 262.116C-71.342 261.974 -71.2887 261.784 -71.2818 261.64L-35.9631 263.65C-35.8907 264.908 -34.969 265.973 -33.7785 266.041C-33.4257 266.061 -33.1125 265.982 -32.7969 265.855L-16.7573 300.232C-17.3512 300.632 -17.7848 301.379 -17.824 302.196C-17.8631 303.014 -17.5031 303.806 -16.9506 304.271L-36.2297 336.638C-36.4432 336.481 -36.7496 336.415 -37.0582 336.398ZM31.7982 151.347C31.3131 151.32 30.8653 151.439 30.4987 151.707C29.9071 152.059 29.5221 152.712 29.3971 153.477L-5.92158 151.467C-5.99401 150.209 -6.91571 149.144 -8.10623 149.076C-8.45898 149.056 -8.77224 149.135 -9.08781 149.262L-25.1274 114.885C-24.5335 114.485 -24.0998 113.738 -24.0607 112.921C-24.0193 112.055 -24.3816 111.311 -24.9341 110.846L-5.69684 78.4285C-5.39509 78.5903 -5.09104 78.7041 -4.78238 78.7216C-3.59186 78.7894 -2.57347 77.8348 -2.38133 76.592L32.9374 78.6019C33.0098 79.8597 33.9315 80.9247 35.122 80.9924C35.4748 81.0125 35.788 80.9339 36.0595 80.8047L52.1432 115.184C51.5493 115.584 51.1156 116.331 51.0765 117.148C51.0443 117.821 51.2789 118.462 51.6527 118.965C51.7363 119.066 51.8199 119.167 51.9058 119.221L32.6731 151.542C32.4549 151.481 32.1509 151.367 31.7982 151.347ZM54.7279 41.7974C54.6888 42.6148 55.0488 43.4068 55.6013 43.8722L36.3223 76.2389C36.0205 76.077 35.7165 75.9633 35.4078 75.9457C34.2173 75.878 33.1989 76.8327 33.0068 78.0754L-2.31192 76.0655C-2.38435 74.8077 -3.30605 73.7427 -4.49657 73.6749C-4.58476 73.6699 -4.67295 73.6649 -4.71704 73.6624C-4.9839 73.6954 -5.20667 73.731 -5.43174 73.8146L-21.5155 39.4356C-20.9216 39.0354 -20.4879 38.2886 -20.4487 37.4711C-20.4372 37.2307 -20.4675 36.9396 -20.5001 36.6966C-20.4955 36.6005 -20.5373 36.5499 -20.5791 36.4993C-20.6557 36.2539 -20.7788 36.054 -20.9019 35.8541C-21.0273 35.7023 -21.1526 35.5505 -21.3221 35.3962L-2.04308 3.02953C-1.74133 3.19134 -1.43729 3.30511 -1.12863 3.32267C0.0618895 3.39042 1.08028 2.43579 1.27241 1.19304L36.5911 3.2029C36.6191 3.542 36.6912 3.88361 36.8096 4.17969C37.1696 4.97165 37.8939 5.5433 38.7758 5.59349C39.1285 5.61356 39.4418 5.53492 39.7132 5.40573L55.797 39.7848C55.2007 40.233 54.7671 40.9799 54.7279 41.7974ZM-139.013 -42.279C-138.661 -42.259 -138.347 -42.3376 -138.076 -42.4668L-121.992 -8.08777C-122.586 -7.68759 -123.02 -6.94079 -123.059 -6.12331C-123.08 -5.69051 -123.01 -5.30081 -122.852 -4.90608C-122.692 -4.55945 -122.485 -4.25836 -122.23 -4.05096L-141.509 28.3157C-141.725 28.207 -141.94 28.0982 -142.205 28.0832C-142.293 28.0782 -142.381 28.0732 -142.425 28.0706C-143.616 28.0029 -144.634 28.9576 -144.827 30.2003L-180.145 28.1905C-180.178 27.9475 -180.21 27.7046 -180.287 27.4591C-180.596 26.5254 -181.36 25.855 -182.33 25.7998C-182.683 25.7798 -182.996 25.8584 -183.267 25.9876L-199.351 -8.39142C-199.305 -8.43701 -199.261 -8.4345 -199.214 -8.4801C-198.662 -8.93088 -198.321 -9.58655 -198.284 -10.3559C-198.245 -11.1734 -198.605 -11.9654 -199.158 -12.4308L-179.923 -44.8C-179.621 -44.6382 -179.317 -44.5244 -179.008 -44.5068C-177.818 -44.4391 -176.799 -45.3937 -176.607 -46.6365L-141.289 -44.6266C-141.126 -43.4119 -140.204 -42.3468 -139.013 -42.279ZM-258.727 -49.0915C-258.374 -49.0714 -258.061 -49.1501 -257.789 -49.2792L-241.705 -14.9002C-241.752 -14.8546 -241.796 -14.8572 -241.842 -14.8116C-242.394 -14.3608 -242.735 -13.7051 -242.772 -12.9357C-242.811 -12.1183 -242.451 -11.3263 -241.899 -10.8609L-261.178 21.5058C-261.48 21.3439 -261.784 21.2302 -262.092 21.2126C-263.283 21.1449 -264.301 22.0996 -264.493 23.3423L-299.812 21.3325C-299.843 20.1252 -300.681 19.1614 -301.776 18.9544C-301.864 18.9494 -301.953 18.9443 -301.997 18.9418C-302.085 18.9368 -302.173 18.9318 -302.217 18.9293C-302.484 18.9623 -302.707 18.9979 -302.932 19.0815L-319.016 -15.2976C-318.422 -15.6977 -317.988 -16.4445 -317.949 -17.262C-317.912 -18.0314 -318.186 -18.7703 -318.695 -19.2332C-318.736 -19.2838 -318.78 -19.2863 -318.822 -19.3369L-299.543 -51.7035C-299.241 -51.5417 -298.937 -51.428 -298.629 -51.4104C-297.438 -51.3427 -296.42 -52.2973 -296.228 -53.5401L-260.909 -51.5302C-260.839 -50.2243 -259.917 -49.1592 -258.727 -49.0915ZM-363.638 53.2857C-363.726 53.2807 -363.815 53.2757 -363.859 53.2731C-364.126 53.3062 -364.348 53.3417 -364.574 53.4254L-380.657 19.0463C-380.063 18.6462 -379.63 17.8994 -379.59 17.0819C-379.561 16.4567 -379.712 15.9177 -380.044 15.4648C-380.169 15.313 -380.294 15.1613 -380.464 15.007L-361.185 -17.3597C-360.883 -17.1979 -360.579 -17.0841 -360.27 -17.0665C-359.08 -16.9988 -358.061 -17.9535 -357.869 -19.1962L-322.551 -17.1864C-322.523 -16.8473 -322.451 -16.5056 -322.332 -16.2095C-321.972 -15.4176 -321.248 -14.8459 -320.366 -14.7957C-320.013 -14.7757 -319.7 -14.8543 -319.428 -14.9835L-303.345 19.3955C-303.939 19.7957 -304.372 20.5426 -304.412 21.36C-304.451 22.1775 -304.091 22.9695 -303.538 23.4349L-304.501 25.0678L-322.773 55.8041C-323.075 55.6422 -323.379 55.5285 -323.688 55.5109C-324.878 55.4432 -325.896 56.3978 -326.089 57.6406L-361.407 55.6307C-361.524 54.3704 -362.448 53.3534 -363.638 53.2857ZM-253.155 287.069C-253.531 286.613 -254.135 286.29 -254.752 286.254C-255.105 286.234 -255.418 286.313 -255.689 286.442L-271.773 252.063C-271.179 251.663 -270.745 250.916 -270.706 250.099C-270.676 249.474 -270.827 248.935 -271.159 248.482C-271.285 248.33 -271.41 248.178 -271.58 248.024L-252.301 215.657C-251.999 215.819 -251.695 215.933 -251.386 215.95C-250.196 216.018 -249.177 215.063 -248.985 213.821L-213.666 215.831C-213.65 216.41 -213.411 216.954 -213.079 217.407C-212.703 217.862 -212.099 218.186 -211.482 218.221C-211.129 218.241 -210.816 218.163 -210.544 218.033L-194.461 252.412C-194.737 252.638 -195.015 252.911 -195.161 253.192C-195.354 253.519 -195.463 253.947 -195.483 254.379C-195.515 255.053 -195.281 255.693 -194.907 256.196C-194.823 256.297 -194.74 256.399 -194.654 256.452L-213.933 288.818C-214.235 288.657 -214.539 288.543 -214.847 288.525C-215.729 288.475 -216.504 288.961 -216.938 289.708C-217.084 289.989 -217.188 290.321 -217.249 290.655L-252.567 288.645C-252.581 288.017 -252.821 287.473 -253.155 287.069ZM-198.733 403.528C-199.109 403.072 -199.712 402.749 -200.33 402.714C-200.682 402.693 -200.995 402.772 -201.267 402.901L-217.351 368.522C-217.075 368.297 -216.799 368.072 -216.65 367.742C-216.458 367.416 -216.349 366.988 -216.328 366.555C-216.298 365.93 -216.449 365.391 -216.781 364.938C-216.907 364.787 -217.032 364.635 -217.201 364.48L-197.922 332.114C-197.621 332.276 -197.317 332.389 -197.008 332.407C-196.126 332.457 -195.351 331.971 -194.918 331.224C-194.771 330.943 -194.667 330.611 -194.607 330.277L-159.288 332.287C-159.26 332.626 -159.188 332.968 -159.07 333.264C-158.71 334.056 -157.985 334.628 -157.104 334.678C-156.751 334.698 -156.438 334.619 -156.166 334.49L-140.082 368.869C-140.676 369.269 -141.11 370.016 -141.149 370.833C-141.188 371.651 -140.828 372.443 -140.276 372.908L-159.555 405.275C-159.857 405.113 -160.161 404.999 -160.469 404.982C-161.66 404.914 -162.678 405.869 -162.87 407.112L-198.189 405.102C-198.159 404.477 -198.354 403.935 -198.733 403.528ZM-13.7263 300.645C-14.1024 300.19 -14.7059 299.866 -15.3232 299.831C-15.676 299.811 -15.9893 299.89 -16.2607 300.019L-32.3004 265.643C-31.9338 265.374 -31.6531 265.053 -31.5001 264.627C-31.354 264.346 -31.2938 264.012 -31.2754 263.627C-31.2455 263.002 -31.3966 262.463 -31.7286 262.01C-31.854 261.859 -31.9793 261.707 -32.1488 261.553L-12.9139 229.183C-12.6121 229.345 -12.3081 229.459 -11.9994 229.477C-11.0293 229.532 -10.2058 228.952 -9.80927 228.058C-9.70956 227.823 -9.65395 227.585 -9.59835 227.347L25.7203 229.357C25.7483 229.696 25.8204 230.037 25.9389 230.334C26.2989 231.126 27.0231 231.697 27.905 231.747C28.2577 231.767 28.571 231.689 28.8425 231.56L44.9262 265.939C44.3323 266.339 43.8986 267.086 43.8595 267.903C43.8203 268.721 44.1803 269.513 44.7328 269.978L25.4538 302.345C25.152 302.183 24.848 302.069 24.5394 302.051C23.3488 301.984 22.3304 302.938 22.1383 304.181L-13.1363 302.174C-13.1551 301.642 -13.3943 301.098 -13.7263 300.645ZM94.8393 45.2854C95.1993 46.0774 95.9236 46.649 96.8055 46.6992C97.1582 46.7192 97.4715 46.6406 97.7429 46.5114L113.827 80.8905C113.233 81.2907 112.799 82.0375 112.76 82.855C112.721 83.6725 113.081 84.4645 113.633 84.9299L94.4007 117.251C94.143 117.092 93.7949 116.975 93.4862 116.958C93.0894 116.935 92.6879 117.009 92.3678 117.232C91.6879 117.579 91.2125 118.275 91.0852 119.087L55.7665 117.078C55.694 115.82 54.7724 114.755 53.5818 114.687C53.2291 114.667 52.9158 114.746 52.6003 114.872L36.5165 80.4932C37.1105 80.093 37.5441 79.3462 37.5833 78.5287C37.6224 77.7112 37.2624 76.9193 36.7099 76.4538L51.615 51.4086L55.9889 44.0871C56.2907 44.249 56.5947 44.3627 56.9034 44.3803C58.0939 44.448 59.1123 43.4934 59.3044 42.2506L94.6231 44.2605C94.6488 44.6477 94.7208 44.9894 94.8393 45.2854ZM-21.4198 -37.3713C-21.1595 -36.3439 -20.3586 -35.5268 -19.3003 -35.4666C-18.9476 -35.4465 -18.6343 -35.5252 -18.3629 -35.6544L-2.27912 -1.27533C-2.87305 -0.875153 -3.30673 -0.128354 -3.34587 0.689131C-3.36198 1.02572 -3.33399 1.36482 -3.21553 1.6609C-3.05988 2.10373 -2.81142 2.45537 -2.47249 2.76399L-21.7515 35.1307C-22.0533 34.9688 -22.3573 34.8551 -22.666 34.8375C-23.8565 34.7698 -24.8749 35.7245 -25.067 36.9672L-60.3857 34.9574C-60.4301 34.0387 -60.9642 33.1885 -61.6977 32.8093C-61.9553 32.6499 -62.2617 32.5843 -62.5704 32.5667C-62.9231 32.5466 -63.2363 32.6252 -63.5078 32.7545L-79.5916 -1.62457C-78.9977 -2.02475 -78.564 -2.77155 -78.5248 -3.58903C-78.4834 -4.45462 -78.8457 -5.19848 -79.3982 -5.66389L-60.1191 -38.0306C-59.8174 -37.8688 -59.5134 -37.755 -59.2047 -37.7374C-58.0142 -37.6697 -56.9958 -38.6244 -56.8037 -39.8671L-21.485 -37.8573C-21.4478 -37.7105 -21.457 -37.5181 -21.4198 -37.3713ZM-79.2962 -77.9861C-78.9362 -77.1941 -78.2119 -76.6225 -77.33 -76.5724C-76.9773 -76.5523 -76.664 -76.6309 -76.3925 -76.7601L-60.3088 -42.3811C-60.9028 -41.9809 -61.3364 -41.2341 -61.3756 -40.4166C-61.4147 -39.5991 -61.0547 -38.8071 -60.5022 -38.3417L-79.7812 -5.97502C-79.9971 -6.08377 -80.213 -6.19246 -80.4775 -6.20752C-80.5657 -6.21254 -80.6539 -6.21755 -80.698 -6.22006C-81.8885 -6.28781 -82.9069 -5.33318 -83.099 -4.09043L-118.418 -6.10029C-118.448 -7.30748 -119.286 -8.27136 -120.382 -8.47833C-120.47 -8.48335 -120.558 -8.48837 -120.602 -8.49088C-120.955 -8.51095 -121.268 -8.43231 -121.54 -8.30312L-137.624 -42.6822C-137.03 -43.0823 -136.596 -43.8292 -136.557 -44.6467C-136.518 -45.4642 -136.878 -46.2561 -137.43 -46.7215L-123.485 -70.182L-118.195 -79.0907C-117.894 -78.9289 -117.589 -78.8151 -117.281 -78.7976C-116.09 -78.7298 -115.072 -79.6845 -114.88 -80.9272L-79.5611 -78.9173C-79.5308 -78.6263 -79.4146 -78.2822 -79.2962 -77.9861ZM-199.009 -84.7985C-198.649 -84.0066 -197.925 -83.435 -197.043 -83.3848C-196.69 -83.3647 -196.377 -83.4434 -196.106 -83.5725L-180.022 -49.1935C-180.616 -48.7933 -181.05 -48.0465 -181.089 -47.2291C-181.128 -46.4116 -180.768 -45.6195 -180.215 -45.1541L-199.45 -12.785C-199.752 -12.9468 -200.056 -13.0605 -200.365 -13.0781C-200.938 -13.1107 -201.432 -12.946 -201.847 -12.5839C-202.309 -12.1762 -202.645 -11.6167 -202.766 -10.9485L-238.084 -12.9583C-238.115 -14.1655 -238.953 -15.1294 -240.049 -15.3364C-240.137 -15.3414 -240.225 -15.3464 -240.269 -15.3489C-240.357 -15.3539 -240.445 -15.3589 -240.49 -15.3615C-240.756 -15.3284 -240.979 -15.2929 -241.204 -15.2093L-257.288 -49.5883C-257.242 -49.6339 -257.198 -49.6313 -257.151 -49.6769C-256.599 -50.1277 -256.258 -50.7834 -256.221 -51.5527C-256.182 -52.3702 -256.542 -53.1622 -257.095 -53.6276L-237.816 -85.9943C-237.514 -85.8325 -237.21 -85.7187 -236.901 -85.7011C-236.328 -85.6685 -235.834 -85.8333 -235.418 -86.1954C-234.959 -86.555 -234.621 -87.1626 -234.5 -87.8308L-199.181 -85.821C-199.244 -85.4388 -199.128 -85.0946 -199.009 -84.7985ZM-140.659 444.636C-141.035 444.181 -141.638 443.857 -142.256 443.822C-142.608 443.802 -142.922 443.88 -143.193 444.01L-159.277 409.631C-158.683 409.23 -158.249 408.484 -158.21 407.666C-158.171 406.849 -158.531 406.057 -159.084 405.591L-145.139 382.131L-139.849 373.222C-139.547 373.384 -139.243 373.498 -138.934 373.515C-137.744 373.583 -136.725 372.628 -136.533 371.385L-101.214 373.395C-101.186 373.734 -101.114 374.076 -100.996 374.372C-100.636 375.164 -99.9116 375.736 -99.0298 375.786C-98.677 375.806 -98.3638 375.727 -98.0923 375.598L-81.9599 409.884C-82.5538 410.284 -82.9875 411.031 -83.0266 411.848C-83.0658 412.666 -82.7057 413.457 -82.1533 413.923L-101.432 446.29C-101.734 446.128 -102.038 446.014 -102.347 445.996C-103.537 445.929 -104.556 446.883 -104.748 448.126L-140.066 446.116C-140.085 445.585 -140.324 445.041 -140.659 444.636ZM44.3475 341.754C43.9713 341.298 43.412 340.977 42.7506 340.939C42.3978 340.919 42.0845 340.998 41.8131 341.127L25.7293 306.748C26.3233 306.348 26.7569 305.601 26.7961 304.784C26.8352 303.966 26.4752 303.174 25.9227 302.709L40.8278 277.664L45.2017 270.342C45.5035 270.504 45.8075 270.618 46.1162 270.635C47.3067 270.703 48.3251 269.748 48.5172 268.506L83.8359 270.516C83.8639 270.855 83.936 271.196 84.0544 271.492C84.4144 272.284 85.1387 272.856 86.0206 272.906C86.3733 272.926 86.6866 272.848 86.958 272.718L103.042 307.097C102.448 307.498 102.014 308.244 101.975 309.062C101.936 309.879 102.296 310.671 102.848 311.137L83.5694 343.503C83.2676 343.342 82.9636 343.228 82.6549 343.21C81.4644 343.143 80.446 344.097 80.2539 345.34L44.9352 343.33C44.8769 342.7 44.6818 342.158 44.3475 341.754ZM40.417 -71.1737C40.777 -70.3817 41.5013 -69.8101 42.3831 -69.7599C42.7359 -69.7398 43.0491 -69.8185 43.3206 -69.9477L59.4043 -35.5686C58.8104 -35.1685 58.3767 -34.4217 58.3376 -33.6042C58.2985 -32.7867 58.6585 -31.9947 59.211 -31.5293L39.9319 0.837416C39.6302 0.675607 39.3261 0.56184 39.0175 0.544276C37.827 0.476528 36.8086 1.43116 36.6164 2.67391L1.29774 0.664046C1.26516 0.42109 1.23257 0.178194 1.15589 -0.0672717C1.1164 -0.165984 1.11872 -0.214024 1.07924 -0.312736C0.719236 -1.1047 -0.00505094 -1.67635 -0.88691 -1.72654C-1.23966 -1.74661 -1.55292 -1.66797 -1.82438 -1.53878L-17.9081 -35.9178C-17.3142 -36.318 -16.8805 -37.0649 -16.8414 -37.8823C-16.8253 -38.2189 -16.8532 -38.558 -16.9717 -38.8541C-17.1274 -39.2969 -17.3758 -39.6486 -17.7147 -39.9572L1.56428 -72.3239C1.86603 -72.1621 2.17007 -72.0483 2.47873 -72.0307C3.66925 -71.963 4.68764 -72.9176 4.87977 -74.1604L40.1985 -72.1505C40.1824 -71.8139 40.2985 -71.4697 40.417 -71.1737ZM-192.09 -159.144C-191.496 -159.544 -191.062 -160.291 -191.023 -161.108C-190.984 -161.926 -191.344 -162.718 -191.897 -163.183L-172.618 -195.55C-172.316 -195.388 -172.012 -195.274 -171.703 -195.257C-171.306 -195.234 -170.905 -195.308 -170.587 -195.482C-169.907 -195.83 -169.432 -196.526 -169.302 -197.386L-133.983 -195.376C-133.958 -194.989 -133.886 -194.648 -133.723 -194.349C-133.361 -193.605 -132.637 -193.034 -131.799 -192.986C-131.446 -192.966 -131.133 -193.044 -130.861 -193.174L-114.778 -158.795C-115.371 -158.394 -115.805 -157.648 -115.844 -156.83C-115.883 -156.013 -115.523 -155.221 -114.971 -154.755L-134.25 -122.389C-134.552 -122.55 -134.856 -122.664 -135.164 -122.682C-136.355 -122.749 -137.373 -121.795 -137.565 -120.552L-172.884 -122.562C-172.912 -122.901 -172.984 -123.243 -173.103 -123.539C-173.463 -124.331 -174.187 -124.902 -175.069 -124.953C-175.422 -124.973 -175.735 -124.894 -176.006 -124.765L-192.09 -159.144ZM-176.225 -120.196C-175.923 -120.035 -175.619 -119.921 -175.311 -119.903C-174.12 -119.836 -173.102 -120.79 -172.909 -122.033L-137.591 -120.023C-137.563 -119.684 -137.491 -119.342 -137.372 -119.046C-137.012 -118.254 -136.288 -117.683 -135.406 -117.633C-135.053 -117.612 -134.74 -117.691 -134.469 -117.82L-118.385 -83.4412C-118.979 -83.0411 -119.412 -82.2942 -119.452 -81.4767C-119.491 -80.6592 -119.131 -79.8673 -118.578 -79.4018L-137.857 -47.0351C-138.159 -47.1969 -138.463 -47.3107 -138.772 -47.3283C-139.962 -47.396 -140.981 -46.4414 -141.173 -45.1986L-176.491 -47.2085C-176.564 -48.4663 -177.486 -49.5313 -178.676 -49.5991C-178.764 -49.6041 -178.853 -49.6091 -178.897 -49.6116C-179.163 -49.5786 -179.386 -49.5431 -179.611 -49.4594L-195.695 -83.8385C-195.101 -84.2386 -194.667 -84.9855 -194.628 -85.803C-194.598 -86.4281 -194.749 -86.9671 -195.081 -87.4199C-195.207 -87.5717 -195.332 -87.7236 -195.502 -87.8778L-176.225 -120.196ZM-238.096 -90.3017C-238.142 -90.2561 -238.186 -90.2587 -238.233 -90.2131C-238.785 -89.7623 -239.126 -89.1066 -239.162 -88.3372C-239.202 -87.5198 -238.842 -86.7277 -238.289 -86.2623L-257.568 -53.8957C-257.87 -54.0575 -258.174 -54.1712 -258.483 -54.1888C-259.056 -54.2214 -259.552 -54.0086 -259.965 -53.6946C-260.427 -53.2869 -260.763 -52.7274 -260.884 -52.0592L-296.202 -54.069C-296.226 -54.5043 -296.337 -54.9446 -296.542 -55.2938C-296.908 -55.9415 -297.593 -56.4144 -298.387 -56.4596C-298.74 -56.4797 -299.053 -56.401 -299.324 -56.2719L-315.408 -90.6509C-314.814 -91.0511 -314.381 -91.7979 -314.341 -92.6154C-314.312 -93.2405 -314.463 -93.7795 -314.795 -94.2324C-314.92 -94.3842 -315.045 -94.536 -315.215 -94.6903L-295.936 -127.057C-295.634 -126.895 -295.33 -126.781 -295.021 -126.764C-293.831 -126.696 -292.812 -127.651 -292.62 -128.893L-257.302 -126.884C-257.229 -125.626 -256.307 -124.561 -255.117 -124.493C-254.764 -124.473 -254.451 -124.552 -254.18 -124.681L-238.096 -90.3017ZM-373.44 -131.709C-372.846 -132.109 -372.413 -132.856 -372.373 -133.673C-372.334 -134.49 -372.694 -135.283 -373.247 -135.748L-353.968 -168.115C-353.666 -167.953 -353.362 -167.839 -353.053 -167.821C-351.863 -167.754 -350.844 -168.708 -350.652 -169.951L-315.334 -167.941C-315.261 -166.683 -314.339 -165.618 -313.149 -165.551C-312.796 -165.53 -312.483 -165.609 -312.211 -165.738L-296.128 -131.359C-296.722 -130.959 -297.155 -130.212 -297.194 -129.395C-297.234 -128.577 -296.874 -127.785 -296.321 -127.32L-315.6 -94.9533C-315.902 -95.1151 -316.206 -95.2289 -316.515 -95.2464C-317.705 -95.3142 -318.724 -94.3596 -318.916 -93.1168L-354.234 -95.1267C-354.307 -96.3845 -355.228 -97.4495 -356.419 -97.5173C-356.772 -97.5373 -357.085 -97.4587 -357.356 -97.3295L-373.44 -131.709ZM-357.619 -92.7637C-357.317 -92.6019 -357.013 -92.4881 -356.705 -92.4706C-356.308 -92.448 -355.951 -92.524 -355.589 -92.6963C-354.909 -93.0434 -354.433 -93.7396 -354.304 -94.6002L-318.985 -92.5903C-318.959 -92.2031 -318.887 -91.8615 -318.725 -91.5629C-318.362 -90.819 -317.638 -90.2474 -316.8 -90.1997C-316.448 -90.1797 -316.134 -90.2583 -315.863 -90.3875L-299.779 -56.0085C-300.373 -55.6083 -300.807 -54.8615 -300.846 -54.044C-300.885 -53.2265 -300.525 -52.4345 -299.973 -51.9691L-319.252 -19.6024C-319.553 -19.7642 -319.857 -19.878 -320.166 -19.8956C-321.357 -19.9633 -322.375 -19.0087 -322.567 -17.7659L-357.886 -19.7758C-357.914 -20.1149 -357.986 -20.4565 -358.104 -20.7526C-358.346 -21.2485 -358.722 -21.7039 -359.198 -21.9238C-359.455 -22.0831 -359.762 -22.1488 -360.07 -22.1664C-360.423 -22.1864 -360.736 -22.1078 -361.008 -21.9786L-377.092 -56.3576C-376.498 -56.7578 -376.064 -57.5047 -376.025 -58.3222C-375.986 -59.1396 -376.346 -59.9316 -376.898 -60.397L-357.619 -92.7637ZM-415.943 -60.3044L-380.624 -58.2946C-380.58 -57.3759 -380.09 -56.5283 -379.312 -56.1465C-379.055 -55.9872 -378.748 -55.9215 -378.44 -55.9039C-378.087 -55.8838 -377.774 -55.9625 -377.502 -56.0917L-361.419 -21.7126C-362.013 -21.3125 -362.446 -20.5657 -362.485 -19.7482C-362.524 -18.9307 -362.164 -18.1387 -361.612 -17.6733L-380.891 14.6933L-380.935 14.6908C-381.193 14.5315 -381.499 14.4658 -381.808 14.4483C-382.998 14.3805 -384.017 15.3352 -384.209 16.578L-419.527 14.5681C-419.572 13.6494 -420.062 12.8018 -420.839 12.42C-421.097 12.2607 -421.403 12.195 -421.712 12.1775C-422.065 12.1574 -422.378 12.236 -422.65 12.3652L-438.733 -22.0138C-438.139 -22.414 -437.706 -23.1608 -437.667 -23.9783C-437.627 -24.7958 -437.987 -25.5878 -438.54 -26.0532L-419.261 -58.4198C-418.959 -58.258 -418.655 -58.1443 -418.346 -58.1267C-417.154 -58.107 -416.135 -59.0617 -415.943 -60.3044ZM-500.37 12.2339C-499.776 11.8337 -499.343 11.0869 -499.304 10.2694C-499.264 9.45195 -499.624 8.65993 -500.177 8.19452L-480.898 -24.1721C-480.596 -24.0103 -480.292 -23.8965 -479.983 -23.879C-478.793 -23.8112 -477.775 -24.7659 -477.582 -26.0087L-442.264 -23.9988C-442.219 -23.0801 -441.729 -22.2325 -440.952 -21.8507C-440.694 -21.6914 -440.388 -21.6257 -440.079 -21.6082C-439.726 -21.5881 -439.413 -21.6667 -439.142 -21.7959L-423.058 12.5831C-423.652 12.9833 -424.085 13.7301 -424.125 14.5476C-424.164 15.3651 -423.804 16.157 -423.251 16.6225L-442.53 48.9891C-442.832 48.8273 -443.136 48.7136 -443.445 48.696C-444.635 48.6282 -445.654 49.5829 -445.846 50.8256L-481.165 48.8158C-481.237 47.558 -482.159 46.4929 -483.349 46.4252C-483.702 46.4051 -484.015 46.4837 -484.287 46.6129L-500.37 12.2339ZM-442.341 53.3396C-441.747 52.9394 -441.313 52.1926 -441.274 51.3751C-441.235 50.5576 -441.595 49.7656 -442.147 49.3002L-422.868 16.9336L-422.824 16.9361C-422.566 17.0954 -422.26 17.161 -421.951 17.1786C-420.761 17.2463 -419.743 16.2917 -419.55 15.049L-384.232 17.0589C-384.185 17.9295 -383.779 18.6758 -383.136 19.0982C-382.836 19.3081 -382.444 19.4268 -382.047 19.4494C-381.694 19.4695 -381.381 19.3909 -381.11 19.2617L-365.026 53.6407C-365.62 54.0409 -366.053 54.7877 -366.093 55.6052C-366.132 56.4227 -365.772 57.2147 -365.219 57.6801L-384.498 90.0467C-384.8 89.8849 -385.104 89.7712 -385.413 89.7536C-386.603 89.6859 -387.622 90.6405 -387.814 91.8833L-423.133 89.8734C-423.205 88.6156 -424.127 87.5505 -425.317 87.4828C-425.67 87.4627 -425.983 87.5413 -426.255 87.6705L-442.341 53.3396ZM-384.267 94.4478C-383.673 94.0477 -383.239 93.3008 -383.2 92.4833C-383.163 91.7139 -383.437 90.9751 -383.946 90.5122C-383.988 90.4615 -384.032 90.4591 -384.074 90.4085L-364.795 58.0418C-364.493 58.2036 -364.189 58.3173 -363.88 58.3349C-362.69 58.4026 -361.671 57.448 -361.479 56.2053L-326.16 58.2152C-326.088 59.473 -325.166 60.538 -323.976 60.6057C-323.623 60.6258 -323.31 60.5472 -323.038 60.418L-306.954 94.797C-307.548 95.1972 -307.982 95.944 -308.021 96.7615C-308.037 97.0981 -308.009 97.4373 -307.891 97.7333C-307.735 98.1761 -307.487 98.5278 -307.192 98.8339L-326.471 131.201C-326.773 131.039 -327.077 130.925 -327.385 130.907C-328.576 130.84 -329.594 131.794 -329.786 133.037L-365.105 131.027C-365.138 130.784 -365.168 130.493 -365.247 130.296C-365.556 129.362 -366.32 128.692 -367.29 128.637C-367.643 128.617 -367.956 128.695 -368.227 128.824L-384.267 94.4478ZM-387.877 169.849C-387.283 169.449 -386.849 168.702 -386.81 167.885C-386.771 167.067 -387.131 166.275 -387.683 165.81L-368.404 133.443C-368.102 133.605 -367.798 133.719 -367.49 133.736C-366.299 133.804 -365.281 132.85 -365.089 131.607L-329.77 133.617C-329.742 133.956 -329.67 134.297 -329.549 134.545C-329.189 135.337 -328.465 135.909 -327.583 135.959C-327.23 135.979 -326.917 135.901 -326.646 135.771L-310.562 170.15C-311.156 170.551 -311.589 171.297 -311.629 172.115C-311.668 172.932 -311.308 173.724 -310.755 174.19L-330.034 206.556C-330.336 206.395 -330.64 206.281 -330.949 206.263C-332.139 206.196 -333.158 207.15 -333.35 208.393L-368.668 206.383C-368.696 206.044 -368.768 205.702 -368.887 205.406C-369.247 204.614 -369.971 204.043 -370.853 203.992C-371.206 203.972 -371.519 204.051 -371.791 204.18L-387.877 169.849ZM-372.056 208.794C-371.754 208.956 -371.45 209.07 -371.141 209.087C-369.951 209.155 -368.932 208.2 -368.74 206.958L-333.421 208.968C-333.393 209.307 -333.321 209.648 -333.203 209.944C-332.843 210.736 -332.119 211.308 -331.237 211.358C-330.884 211.378 -330.571 211.3 -330.299 211.17L-314.171 245.552C-314.765 245.952 -315.199 246.699 -315.238 247.516C-315.277 248.334 -314.917 249.126 -314.365 249.591L-315.327 251.224L-333.6 281.96C-333.902 281.799 -334.206 281.685 -334.514 281.667C-335.705 281.6 -336.723 282.554 -336.915 283.797L-372.234 281.787C-372.25 281.208 -372.49 280.663 -372.822 280.211C-373.198 279.755 -373.801 279.432 -374.419 279.396C-374.771 279.376 -375.085 279.455 -375.356 279.584L-391.44 245.205C-390.846 244.805 -390.412 244.058 -390.373 243.241C-390.343 242.616 -390.494 242.077 -390.826 241.624C-390.952 241.472 -391.077 241.32 -391.246 241.166L-372.056 208.794ZM-453.167 279.496C-452.573 279.096 -452.14 278.349 -452.101 277.531C-452.061 276.714 -452.421 275.922 -452.974 275.457L-433.695 243.09C-433.393 243.252 -433.089 243.365 -432.78 243.383C-431.59 243.451 -430.572 242.496 -430.379 241.253L-395.061 243.263C-395.033 243.602 -394.961 243.944 -394.842 244.24C-394.482 245.032 -393.758 245.604 -392.876 245.654C-392.523 245.674 -392.21 245.595 -391.939 245.466L-375.855 279.845C-376.449 280.245 -376.882 280.992 -376.922 281.81C-376.961 282.627 -376.601 283.419 -376.048 283.884L-395.327 316.251C-395.629 316.089 -395.933 315.976 -396.242 315.958C-397.432 315.89 -398.451 316.845 -398.643 318.088L-433.961 316.078C-434.034 314.82 -434.956 313.755 -436.146 313.687C-436.499 313.667 -436.812 313.746 -437.084 313.875L-453.167 279.496ZM-337.253 357.359C-337.555 357.198 -337.859 357.084 -338.168 357.066C-339.358 356.999 -340.377 357.953 -340.569 359.196L-375.888 357.186C-375.96 355.928 -376.882 354.863 -378.072 354.795C-378.425 354.775 -378.738 354.854 -379.01 354.983L-395.094 320.604C-394.5 320.204 -394.066 319.457 -394.027 318.64C-393.99 317.87 -394.264 317.131 -394.772 316.668C-394.814 316.618 -394.858 316.615 -394.9 316.565L-375.621 284.198C-375.319 284.36 -375.015 284.474 -374.707 284.491C-373.516 284.559 -372.498 283.604 -372.306 282.362L-336.987 284.371C-336.915 285.629 -335.993 286.694 -334.802 286.762C-334.45 286.782 -334.136 286.704 -333.865 286.574L-317.781 320.953C-318.375 321.354 -318.809 322.1 -318.848 322.918C-318.88 323.591 -318.645 324.231 -318.272 324.735C-318.188 324.836 -318.104 324.937 -318.019 324.99L-337.253 357.359ZM-275.38 327.417C-274.787 327.016 -274.353 326.27 -274.314 325.452C-274.277 324.683 -274.551 323.944 -275.059 323.481C-275.101 323.43 -275.145 323.428 -275.187 323.377L-255.908 291.011C-255.606 291.172 -255.302 291.286 -254.994 291.304C-253.803 291.371 -252.785 290.417 -252.593 289.174L-217.274 291.184C-217.201 292.442 -216.28 293.507 -215.089 293.575C-214.736 293.595 -214.423 293.516 -214.152 293.387L-198.068 327.766C-198.435 328.034 -198.715 328.356 -198.868 328.781C-199.014 329.062 -199.074 329.396 -199.091 329.733C-199.13 330.55 -198.77 331.342 -198.217 331.808L-217.496 364.174C-217.798 364.013 -218.102 363.899 -218.411 363.881C-219.293 363.831 -220.068 364.317 -220.501 365.064C-220.647 365.345 -220.749 365.629 -220.809 365.963L-256.128 363.953C-256.201 362.695 -257.122 361.63 -258.313 361.562C-258.666 361.542 -258.979 361.621 -259.294 361.748L-275.38 327.417ZM-278.988 402.77C-278.394 402.37 -277.96 401.623 -277.921 400.805C-277.882 399.988 -278.242 399.196 -278.794 398.731L-259.515 366.364C-259.214 366.526 -258.91 366.64 -258.601 366.657C-257.719 366.707 -256.944 366.221 -256.51 365.474C-256.364 365.193 -256.262 364.91 -256.202 364.576L-220.883 366.585C-220.811 367.843 -219.889 368.908 -218.699 368.976C-218.346 368.996 -218.033 368.917 -217.717 368.791L-201.634 403.17C-202.227 403.57 -202.661 404.317 -202.7 405.134C-202.739 405.952 -202.379 406.744 -201.827 407.209L-221.106 439.576C-221.408 439.414 -221.712 439.3 -222.064 439.28C-223.255 439.212 -224.273 440.167 -224.466 441.41L-259.784 439.4C-259.817 439.157 -259.849 438.914 -259.926 438.669C-260.235 437.735 -260.999 437.065 -261.969 437.009C-262.322 436.989 -262.635 437.068 -262.906 437.197L-278.988 402.77ZM-224.755 514.879C-225.057 514.717 -225.361 514.603 -225.67 514.585C-226.86 514.518 -227.878 515.472 -228.071 516.715L-263.389 514.705C-263.462 513.447 -264.383 512.382 -265.574 512.315C-265.927 512.295 -266.24 512.373 -266.511 512.502L-282.595 478.123C-282.001 477.723 -281.568 476.976 -281.528 476.159C-281.489 475.341 -281.849 474.549 -282.402 474.084L-263.123 441.717C-262.821 441.879 -262.517 441.993 -262.164 442.013C-260.974 442.081 -259.955 441.126 -259.763 439.883L-224.444 441.893C-224.412 442.136 -224.379 442.379 -224.303 442.625C-224.184 442.921 -224.066 443.217 -223.857 443.47C-223.481 443.925 -222.877 444.249 -222.26 444.284C-221.907 444.304 -221.594 444.225 -221.322 444.096L-205.283 478.473C-205.877 478.873 -206.31 479.62 -206.349 480.437C-206.366 480.774 -206.338 481.113 -206.219 481.409C-206.063 481.852 -205.815 482.203 -205.476 482.512L-224.755 514.879ZM-163.074 480.633C-163.376 480.472 -163.68 480.358 -163.988 480.34C-165.179 480.273 -166.197 481.227 -166.389 482.47L-201.708 480.46C-201.741 480.217 -201.773 479.974 -201.85 479.729C-202.159 478.795 -202.923 478.125 -203.893 478.069C-204.246 478.049 -204.559 478.128 -204.83 478.257L-220.87 443.881C-220.276 443.481 -219.842 442.734 -219.803 441.916C-219.787 441.58 -219.815 441.24 -219.933 440.944C-220.089 440.502 -220.338 440.15 -220.632 439.844L-201.353 407.477C-201.052 407.639 -200.748 407.753 -200.439 407.77C-199.248 407.838 -198.23 406.883 -198.038 405.641L-162.719 407.651C-162.647 408.908 -161.725 409.973 -160.535 410.041C-160.182 410.061 -159.869 409.983 -159.597 409.853L-143.513 444.232C-144.107 444.633 -144.541 445.379 -144.58 446.197C-144.612 446.87 -144.378 447.51 -144.004 448.014C-143.92 448.115 -143.837 448.216 -143.751 448.269L-163.074 480.633ZM-23.8861 450.992C-24.48 451.392 -24.9137 452.139 -24.9528 452.956C-24.992 453.774 -24.632 454.566 -24.0795 455.031L-43.3585 487.398C-43.6602 487.236 -43.9643 487.122 -44.273 487.105C-45.4635 487.037 -46.4818 487.992 -46.674 489.234L-81.9927 487.224C-82.0651 485.967 -82.9868 484.902 -84.1773 484.834C-84.5301 484.814 -84.8433 484.892 -85.1148 485.022L-101.199 450.643C-100.605 450.242 -100.171 449.496 -100.132 448.678C-100.095 447.909 -100.369 447.17 -100.877 446.707C-100.919 446.656 -100.963 446.654 -101.005 446.603L-81.7261 414.237C-81.4244 414.398 -81.1203 414.512 -80.8117 414.53C-79.6212 414.597 -78.6028 413.643 -78.4106 412.4L-43.0919 414.41C-43.0195 415.668 -42.0978 416.733 -40.9073 416.8C-40.5546 416.821 -40.2413 416.742 -39.9698 416.613L-23.8861 450.992ZM-39.7511 412.044C-40.0529 411.883 -40.357 411.769 -40.6656 411.751C-41.8561 411.683 -42.8745 412.638 -43.0666 413.881L-78.3853 411.871C-78.4018 411.291 -78.641 410.747 -78.973 410.295C-79.3492 409.839 -79.9086 409.518 -80.57 409.48C-80.9227 409.46 -81.236 409.539 -81.5074 409.668L-97.5912 375.289C-96.9972 374.889 -96.5636 374.142 -96.5244 373.325C-96.4945 372.7 -96.6456 372.161 -96.9776 371.708C-97.103 371.556 -97.2283 371.404 -97.3978 371.25L-78.1188 338.883C-77.817 339.045 -77.513 339.159 -77.2043 339.176C-76.1902 339.234 -75.2715 338.515 -74.9145 337.522C-74.8635 337.381 -74.8102 337.191 -74.8033 337.047L-39.4846 339.056C-39.4121 340.314 -38.4905 341.379 -37.3 341.447C-36.9472 341.467 -36.6339 341.389 -36.3625 341.259L-20.2787 375.638C-20.6917 375.952 -21.0211 376.368 -21.1787 376.889C-21.2784 377.124 -21.2899 377.365 -21.3037 377.653C-21.3428 378.471 -20.9828 379.263 -20.4303 379.728L-39.7511 412.044ZM21.9323 377.751C21.6306 377.589 21.3265 377.476 21.0179 377.458C19.8274 377.39 18.809 378.345 18.6168 379.588L-16.746 377.575C-16.8184 376.317 -17.7401 375.252 -18.9306 375.185C-19.2834 375.165 -19.5966 375.243 -19.8681 375.372L-35.9518 340.993C-35.5853 340.725 -35.3046 340.403 -35.1075 339.981C-34.9614 339.7 -34.9012 339.366 -34.8851 339.029C-34.8483 338.259 -35.1224 337.521 -35.6308 337.058C-35.6725 337.007 -35.7167 337.005 -35.7584 336.954L-16.4794 304.587C-16.1777 304.749 -15.8736 304.863 -15.565 304.88C-14.3744 304.948 -13.3561 303.994 -13.1639 302.751L22.1548 304.761C22.2272 306.019 23.1489 307.084 24.3394 307.151C24.6922 307.171 25.0054 307.093 25.2769 306.964L41.3606 341.343C40.7667 341.743 40.333 342.49 40.2939 343.307C40.2617 343.98 40.4963 344.62 40.8701 345.124C40.9537 345.225 41.0373 345.326 41.1232 345.379L21.9323 377.751ZM161.074 348.155C160.48 348.555 160.046 349.302 160.007 350.119C159.968 350.937 160.328 351.729 160.88 352.194L141.601 384.561C141.3 384.399 140.996 384.285 140.687 384.268C139.496 384.2 138.478 385.155 138.286 386.398L102.967 384.388C102.895 383.13 101.973 382.065 100.783 381.997C100.43 381.977 100.117 382.056 99.8451 382.185L83.7613 347.806C84.3553 347.406 84.7889 346.659 84.8281 345.841C84.8649 345.072 84.5908 344.333 84.0824 343.87C84.0406 343.82 83.9965 343.817 83.9547 343.766L103.234 311.4C103.535 311.562 103.84 311.675 104.148 311.693C105.339 311.761 106.357 310.806 106.549 309.563L141.868 311.573C141.94 312.831 142.862 313.896 144.053 313.964C144.405 313.984 144.719 313.905 144.99 313.776L161.074 348.155ZM164.683 272.754C164.09 273.154 163.656 273.901 163.617 274.718C163.578 275.536 163.938 276.328 164.49 276.793L145.211 309.16C144.909 308.998 144.605 308.884 144.297 308.866C143.106 308.799 142.088 309.753 141.896 310.996L106.577 308.986C106.56 308.407 106.321 307.863 105.989 307.41C105.613 306.954 105.01 306.631 104.392 306.596C104.039 306.576 103.726 306.654 103.455 306.783L87.371 272.404C87.9649 272.004 88.3986 271.257 88.4377 270.44C88.4677 269.815 88.3166 269.276 87.9846 268.823C87.8592 268.671 87.7338 268.519 87.5644 268.365L106.843 235.998C107.145 236.16 107.449 236.274 107.758 236.291C108.948 236.359 109.967 235.405 110.159 234.162L145.478 236.172C145.55 237.429 146.472 238.495 147.662 238.562C148.015 238.582 148.328 238.504 148.6 238.375L164.683 272.754ZM106.654 231.648C106.06 232.048 105.626 232.795 105.587 233.612C105.548 234.43 105.908 235.222 106.46 235.687L87.1813 268.054C86.8796 267.892 86.5756 267.778 86.2669 267.761C85.0764 267.693 84.058 268.648 83.8658 269.89L48.5471 267.881C48.4747 266.623 47.553 265.558 46.3625 265.49C46.0098 265.47 45.6965 265.548 45.425 265.678L29.3413 231.299C29.9352 230.899 30.3689 230.152 30.408 229.334C30.4449 228.565 30.1707 227.826 29.6624 227.363C29.6206 227.312 29.5764 227.31 29.5347 227.259L48.8137 194.893C49.1155 195.054 49.4195 195.168 49.7282 195.186C50.9187 195.253 51.9371 194.299 52.1292 193.056L87.4479 195.066C87.5203 196.324 88.442 197.389 89.6325 197.457C89.9853 197.477 90.2985 197.398 90.57 197.269L106.654 231.648ZM90.7887 192.7C90.487 192.539 90.1829 192.425 89.8743 192.407C88.6837 192.34 87.6653 193.294 87.4732 194.537L52.1545 192.527C52.138 191.948 51.8988 191.404 51.5668 190.951C51.1907 190.495 50.5872 190.172 49.9699 190.137C49.6171 190.116 49.3039 190.195 49.0324 190.324L32.9486 155.945C33.5426 155.545 33.9763 154.798 34.0154 153.981C34.0453 153.356 33.8943 152.817 33.5622 152.364C33.4369 152.212 33.3115 152.06 33.142 151.906L52.3747 119.585C52.6323 119.744 52.9805 119.86 53.2891 119.878C53.7741 119.906 54.222 119.786 54.5885 119.518C55.1802 119.166 55.5651 118.513 55.6902 117.748L91.0088 119.758C91.0253 120.338 91.2646 120.882 91.5966 121.335C91.9727 121.79 92.5762 122.114 93.1935 122.149C93.5462 122.169 93.8595 122.09 94.131 121.961L110.215 156.34C109.621 156.74 109.187 157.487 109.148 158.305C109.107 159.17 109.469 159.914 110.021 160.379L90.7887 192.7ZM152.426 158.453C152.124 158.291 151.82 158.177 151.511 158.16C150.321 158.092 149.302 159.047 149.11 160.289L113.792 158.279C113.719 157.022 112.797 155.957 111.607 155.889C111.254 155.869 110.941 155.947 110.669 156.077L94.5857 121.698C95.1796 121.297 95.6133 120.551 95.6524 119.733C95.6939 118.868 95.3316 118.124 94.7791 117.658L114.012 85.3371C114.313 85.499 114.618 85.6127 114.926 85.6302C116.117 85.698 117.135 84.7434 117.327 83.5006L152.646 85.5105C152.718 86.7683 153.64 87.8333 154.831 87.9011C155.183 87.9211 155.497 87.8426 155.768 87.7133L171.9 121.999C171.307 122.399 170.873 123.146 170.834 123.963C170.829 124.059 170.825 124.155 170.822 124.204C170.876 124.93 171.199 125.575 171.663 126.036L152.426 158.453ZM233.54 87.7029C232.946 88.1031 232.512 88.8499 232.473 89.6674C232.434 90.4849 232.794 91.2769 233.346 91.7423L214.067 124.109C213.766 123.947 213.462 123.833 213.153 123.816C211.962 123.748 210.944 124.703 210.752 125.945L175.433 123.936C175.361 122.678 174.439 121.613 173.249 121.545C172.896 121.525 172.583 121.604 172.311 121.733L156.227 87.3537C156.777 86.9511 157.16 86.346 157.238 85.6272C157.243 85.531 157.248 85.4348 157.25 85.3867C157.289 84.5693 156.929 83.7773 156.377 83.3118L175.656 50.9451C175.957 51.107 176.261 51.2207 176.57 51.2383C177.761 51.306 178.779 50.3514 178.971 49.1087L214.334 51.1211C214.406 52.3789 215.328 53.4439 216.519 53.5116C216.871 53.5317 217.185 53.4531 217.456 53.3239L233.54 87.7029ZM175.508 46.6453C174.914 47.0455 174.48 47.7923 174.441 48.6098C174.402 49.4273 174.762 50.2192 175.314 50.6847L156.035 83.0513C155.734 82.8895 155.43 82.7757 155.121 82.7582C153.93 82.6904 152.912 83.6451 152.72 84.8878L117.401 82.878C117.385 82.2984 117.146 81.7544 116.813 81.3015C116.437 80.8461 115.834 80.5225 115.217 80.4874C114.864 80.4673 114.551 80.5459 114.279 80.6751L98.1954 46.2961C98.7893 45.8959 99.223 45.1491 99.2621 44.3316C99.292 43.7065 99.141 43.1675 98.809 42.7146C98.6836 42.5628 98.5582 42.411 98.3887 42.2567L117.668 9.89007C117.97 10.0519 118.274 10.1656 118.582 10.1832C119.773 10.251 120.791 9.29627 120.983 8.05352L156.302 10.0634C156.374 11.3212 157.296 12.3863 158.487 12.454C158.839 12.4741 159.153 12.3955 159.424 12.2663L175.508 46.6453ZM117.434 5.53711C116.84 5.93729 116.406 6.68409 116.367 7.50157C116.328 8.31906 116.688 9.11102 117.241 9.57643L97.9616 41.9431C97.6599 41.7813 97.3558 41.6675 97.0472 41.65C95.8567 41.5822 94.8383 42.5369 94.6461 43.7797L59.3275 41.7698C59.255 40.512 58.3333 39.4469 57.1428 39.3791C56.79 39.3591 56.4768 39.4377 56.2053 39.5669L40.1216 5.18787C40.7155 4.78769 41.1492 4.04089 41.1883 3.22341C41.2251 2.45403 40.951 1.71512 40.4426 1.25222C40.4009 1.20161 40.3567 1.19916 40.315 1.14855L59.594 -31.2181C59.8957 -31.0563 60.1998 -30.9425 60.5084 -30.925C61.6989 -30.8572 62.7174 -31.8119 62.9095 -33.0547L98.2282 -31.0448C98.3006 -29.787 99.2223 -28.7219 100.413 -28.6542C100.766 -28.6341 101.079 -28.7127 101.35 -28.8419L117.434 5.53711ZM63.2013 -106.572C63.5031 -106.41 63.8071 -106.296 64.1158 -106.278C65.3063 -106.211 66.3247 -107.165 66.5169 -108.408L101.836 -106.398C101.908 -105.14 102.83 -104.075 104.02 -104.008C104.373 -103.988 104.686 -104.066 104.958 -104.195L121.041 -69.8163C120.447 -69.4162 120.014 -68.6693 119.975 -67.8518C119.936 -67.0343 120.296 -66.2424 120.848 -65.777L101.569 -33.4102C101.267 -33.572 100.963 -33.6858 100.655 -33.7034C99.464 -33.7711 98.4456 -32.8165 98.2535 -31.5737L62.9348 -33.5836C62.9183 -34.1632 62.6791 -34.7072 62.3471 -35.1601C61.971 -35.6154 61.3675 -35.9391 60.7501 -35.9742C60.3974 -35.9943 60.0841 -35.9156 59.8127 -35.7864L43.7289 -70.1655C44.3229 -70.5657 44.7565 -71.3125 44.7957 -72.13C44.8256 -72.7551 44.6746 -73.2941 44.3425 -73.747C44.2172 -73.8987 44.0918 -74.0506 43.9223 -74.2049L63.2013 -106.572ZM1.33054 -76.6768C0.73661 -76.2767 0.302928 -75.5299 0.263793 -74.7124C0.24768 -74.3758 0.275669 -74.0367 0.394134 -73.7406C0.549781 -73.2978 0.798236 -72.9461 1.13717 -72.6374L-18.1419 -40.2708C-18.4436 -40.4326 -18.7477 -40.5464 -19.0563 -40.5639C-20.2468 -40.6317 -21.2652 -39.677 -21.4574 -38.4343L-56.776 -40.4441C-56.8485 -41.702 -57.7702 -42.767 -58.9607 -42.8347C-59.0489 -42.8398 -59.1371 -42.8448 -59.1812 -42.8473C-59.448 -42.8142 -59.6708 -42.7788 -59.8958 -42.6951L-75.9796 -77.0741C-75.3857 -77.4743 -74.952 -78.2211 -74.9129 -79.0386C-74.8829 -79.6638 -75.034 -80.2027 -75.366 -80.6556C-75.4914 -80.8074 -75.6168 -80.9592 -75.7862 -81.1135L-56.5072 -113.48C-56.2054 -113.318 -55.9014 -113.205 -55.5928 -113.187C-54.4022 -113.119 -53.3838 -114.074 -53.1917 -115.317L-17.873 -113.307C-17.8006 -112.049 -16.8789 -110.984 -15.6884 -110.916C-15.3357 -110.896 -15.0224 -110.975 -14.7509 -111.104L1.33054 -76.6768ZM-56.7015 -117.734C-57.2954 -117.334 -57.7291 -116.587 -57.7682 -115.77C-57.8073 -114.952 -57.4473 -114.161 -56.8948 -113.695L-76.1738 -81.3284C-76.4756 -81.4902 -76.7797 -81.604 -77.0883 -81.6216C-78.2788 -81.6893 -79.2972 -80.7347 -79.4894 -79.4919L-114.808 -81.5018C-114.839 -82.709 -115.677 -83.6729 -116.772 -83.8798C-116.86 -83.8848 -116.949 -83.8899 -116.993 -83.8924C-117.081 -83.8974 -117.169 -83.9024 -117.213 -83.9049C-117.48 -83.8719 -117.703 -83.8364 -117.928 -83.7527L-134.012 -118.132C-133.418 -118.532 -132.984 -119.279 -132.945 -120.096C-132.908 -120.866 -133.182 -121.604 -133.691 -122.067C-133.732 -122.118 -133.776 -122.121 -133.818 -122.171L-114.539 -154.538C-114.237 -154.376 -113.933 -154.262 -113.625 -154.245C-112.434 -154.177 -111.416 -155.132 -111.224 -156.374L-75.905 -154.364C-75.8326 -153.107 -74.9109 -152.042 -73.7204 -151.974C-73.3677 -151.954 -73.0543 -152.032 -72.7829 -152.162L-56.7015 -117.734ZM-53.0918 -193.136C-53.6857 -192.736 -54.1194 -191.989 -54.1586 -191.171C-54.1977 -190.354 -53.8377 -189.562 -53.2852 -189.097L-72.5642 -156.73C-72.8659 -156.892 -73.17 -157.006 -73.4787 -157.023C-74.6692 -157.091 -75.6876 -156.136 -75.8797 -154.893L-111.198 -156.903C-111.222 -157.339 -111.333 -157.779 -111.538 -158.128C-111.905 -158.776 -112.589 -159.249 -113.383 -159.294C-113.736 -159.314 -114.049 -159.235 -114.32 -159.106L-130.404 -193.485C-129.81 -193.885 -129.377 -194.632 -129.338 -195.45C-129.308 -196.075 -129.459 -196.614 -129.791 -197.067C-129.916 -197.218 -130.041 -197.37 -130.211 -197.524L-110.932 -229.891C-110.63 -229.729 -110.326 -229.616 -110.017 -229.598C-108.827 -229.53 -107.808 -230.485 -107.616 -231.728L-72.2977 -229.718C-72.2252 -228.46 -71.3035 -227.395 -70.113 -227.327C-69.7603 -227.307 -69.447 -227.386 -69.1755 -227.515L-53.0918 -193.136ZM-111.166 -234.244C-111.759 -233.844 -112.193 -233.097 -112.232 -232.28C-112.271 -231.462 -111.911 -230.67 -111.359 -230.205L-130.638 -197.838C-130.94 -198 -131.244 -198.114 -131.552 -198.131C-132.743 -198.199 -133.761 -197.244 -133.953 -196.002L-169.272 -198.011C-169.345 -199.269 -170.266 -200.334 -171.457 -200.402C-171.81 -200.422 -172.123 -200.343 -172.394 -200.214L-188.478 -234.593C-187.884 -234.994 -187.45 -235.74 -187.411 -236.558C-187.372 -237.375 -187.732 -238.167 -188.285 -238.633L-169.006 -270.999C-168.704 -270.838 -168.4 -270.724 -168.091 -270.706C-166.901 -270.639 -165.882 -271.593 -165.69 -272.836L-130.371 -270.826C-130.299 -269.568 -129.377 -268.503 -128.187 -268.435C-127.834 -268.415 -127.521 -268.494 -127.249 -268.623L-111.166 -234.244Z" fill="#C6F6FE"/>
</svg>
