<svg width="16" height="16" viewBox="0 0 16 16" fill="none" xmlns="http://www.w3.org/2000/svg">
<g id="circle-check">
<path id="Vector 1" d="M9.42857 4.57148L4 6.28577C3.71429 6.66672 3.14286 7.48577 3.14286 7.71434C3.14286 8.00005 3.42857 11.7143 3.42857 12.0001C3.42857 12.2858 6.85714 12.2858 7.71429 12.5715C8.4 12.8001 10.6667 11.5239 11.7143 10.8572L12.8571 6.57148L12.2857 4.28577L9.42857 4.57148Z" fill="white"/>
<path id="circle-check_2" d="M0 8C0 3.59375 3.5625 0 8 0C12.4062 0 16 3.59375 16 8C16 12.4375 12.4062 16 8 16C3.5625 16 0 12.4375 0 8ZM11.5938 6.625C11.9375 6.28125 11.9375 5.75 11.5938 5.40625C11.25 5.0625 10.7188 5.0625 10.375 5.40625L7 8.78125L5.59375 7.40625C5.25 7.0625 4.71875 7.0625 4.375 7.40625C4.03125 7.75 4.03125 8.28125 4.375 8.625L6.375 10.625C6.71875 10.9688 7.25 10.9688 7.59375 10.625L11.5938 6.625Z" fill="#D61F26"/>
</g>
</svg>
