<svg width="17" height="14" viewBox="0 0 17 14" fill="none" xmlns="http://www.w3.org/2000/svg">
<g id="twitter">
<path id="twitter_2" d="M15.2587 3.52994C15.2587 3.69599 15.2587 3.82883 15.2587 3.99487C15.2587 8.61098 11.7718 13.8913 5.36234 13.8913C3.36977 13.8913 1.54326 13.3267 0.015625 12.3304C0.2813 12.3636 0.546975 12.3968 0.84586 12.3968C2.47312 12.3968 3.96754 11.8323 5.16308 10.9024C3.63545 10.8692 2.34028 9.87294 1.90856 8.47814C2.14103 8.51135 2.34028 8.54456 2.57275 8.54456C2.87163 8.54456 3.20373 8.47814 3.4694 8.41172C1.87535 8.07963 0.679813 6.68483 0.679813 4.99116V4.95795C1.14474 5.22362 1.7093 5.35646 2.27386 5.38967C1.31079 4.75869 0.713022 3.69599 0.713022 2.50045C0.713022 1.83626 0.879069 1.23849 1.17795 0.740353C2.90484 2.83255 5.49517 4.22734 8.38439 4.39339C8.31797 4.12771 8.28476 3.86204 8.28476 3.59636C8.28476 1.67022 9.84561 0.109375 11.7718 0.109375C12.768 0.109375 13.6647 0.507888 14.3289 1.20528C15.0927 1.03924 15.8565 0.740353 16.5207 0.341841C16.255 1.17208 15.7237 1.83626 14.9931 2.26799C15.6905 2.20157 16.3879 2.00231 16.9856 1.73664C16.5207 2.43403 15.9229 3.0318 15.2587 3.52994Z" fill="#D61F26"/>
</g>
</svg>
