<svg width="136" height="147" viewBox="0 0 136 147" fill="none" xmlns="http://www.w3.org/2000/svg">
<g filter="url(#filter0_d_454_2738)">
<path d="M65.1976 19.206C67.0441 18.1491 69.3122 18.1491 71.1587 19.206L108.837 40.7717C110.704 41.8406 111.856 43.8275 111.856 45.9791V89.0209C111.856 91.1725 110.704 93.1594 108.837 94.2283L71.1587 115.794C69.3122 116.851 67.0441 116.851 65.1976 115.794L27.5195 94.2283C25.6521 93.1594 24.5 91.1725 24.5 89.0209V45.9791C24.5 43.8275 25.6521 41.8406 27.5195 40.7717L65.1976 19.206Z" fill="black"/>
<path d="M67.1847 22.6775C67.8001 22.3252 68.5562 22.3252 69.1717 22.6775L106.85 44.2433C107.472 44.5996 107.856 45.2619 107.856 45.9791V89.0209C107.856 89.7381 107.472 90.4004 106.85 90.7567L69.1717 112.322C68.5562 112.675 67.8001 112.675 67.1847 112.322L29.5065 90.7567C28.884 90.4004 28.5 89.7381 28.5 89.0209V45.9791C28.5 45.2619 28.884 44.5996 29.5065 44.2433L67.1847 22.6775Z" stroke="#D61F26" stroke-width="8"/>
</g>
<g clip-path="url(#clip0_454_2738)">
<path d="M81.1393 50.5513C81.3273 50.3623 81.6327 50.3623 81.7972 50.5513L82.4551 51.2127C82.8075 51.5907 82.4081 51.945 82.1497 52.2049C82.1497 52.2049 82.6901 52.819 82.737 52.9371L83.113 52.5592C83.6534 52.0159 83.6534 51.0946 83.113 50.5513L82.4551 49.8899C81.9147 49.3466 80.9984 49.3466 80.458 49.8899L80.082 50.2915C80.082 50.2915 80.5989 50.6458 80.8104 50.882L81.1158 50.5749L81.1393 50.5513Z" fill="white"/>
<path d="M81.9846 52.8666L80.152 51.0241C79.7056 50.5753 78.9067 50.5753 78.4838 51.0241C78.1313 51.4021 75.9228 53.5753 75.7348 53.8115L73.5967 55.9611C75.3119 56.3155 76.7451 57.7564 77.0975 59.4808L82.0081 54.5438C82.4546 54.1186 82.4546 53.2918 82.0081 52.8666H81.9846ZM78.3428 56.5281L77.2385 57.6383C77.2385 57.6383 77.0271 57.78 76.9096 57.78C76.5101 57.78 76.2752 57.2603 76.5806 56.9769L77.6849 55.8666C78.1314 55.4178 78.7892 56.1029 78.3428 56.5281ZM80.011 54.8509C79.7995 55.0162 79.3061 55.7013 79.0007 55.654C78.6013 55.654 78.3663 55.1344 78.6718 54.8509L79.3296 54.1895C79.7526 53.7643 80.4339 54.4257 79.9875 54.8509H80.011ZM80.9273 53.906C80.9273 53.906 80.6924 54.0005 80.5749 53.9769C80.4809 53.9769 80.3869 53.906 80.3399 53.8351C79.964 53.4808 80.3869 52.8666 80.8569 53.0556C81.2093 53.1973 81.2563 53.6934 80.9273 53.8824V53.906Z" fill="white"/>
<path d="M76.7222 60.5675C76.7222 60.2368 76.6517 59.9297 76.5577 59.6227C76.1583 58.1817 74.9835 57.0242 73.5503 56.599C73.1744 56.4809 72.7749 56.4101 72.3755 56.4337C71.0363 56.3392 68.7572 57.3786 69.9085 58.9612C69.9085 59.0085 70.8013 59.8825 70.8483 59.9297C69.9085 61.4179 71.7881 63.2841 73.2448 62.3392C73.3153 62.3864 74.1612 63.2841 74.2082 63.2841C74.2787 63.3313 74.3257 63.3786 74.3961 63.4022C75.1715 63.851 76.0173 63.3786 76.3463 62.5754C76.6047 62.0321 76.7457 61.3943 76.7222 60.7801C76.7222 60.7801 76.7222 60.6148 76.7222 60.5439V60.5675ZM72.5165 61.6305C71.9761 61.7486 71.4357 61.2053 71.5532 60.662L72.5165 61.6305ZM75.5944 61.9612C75.4769 62.3392 75.2185 62.9061 74.7486 62.5282L71.7881 59.5518L70.6603 58.4179C70.4959 58.2526 70.5193 57.9691 70.7073 57.8274C72.634 56.599 75.4065 57.9455 75.7589 60.1896C75.7589 60.2132 75.7589 60.2368 75.7589 60.2841C75.7589 60.2841 75.7589 60.3077 75.7589 60.3313C75.8294 60.851 75.8059 61.4179 75.5944 61.9612Z" fill="white"/>
<path d="M87.6243 61.9838L83.348 57.6845C82.8546 57.1885 81.9618 57.1885 81.4684 57.6845L80.881 58.2751L80.0117 57.4011L79.3538 58.0625C79.5182 58.2279 80.0352 58.7475 80.2231 58.9365L79.6357 59.5271C79.1188 60.0468 79.1188 60.8971 79.6357 61.4168C80.4346 62.22 83.0661 64.8657 83.9119 65.716C84.4054 66.2357 85.2982 66.2357 85.7916 65.716L87.6243 63.8735C88.1412 63.3775 88.1412 62.4798 87.6243 61.9838ZM85.3922 61.0861L84.5228 61.9601L83.348 60.779L84.2174 59.905L85.3922 61.0861ZM82.1028 58.346C82.2437 58.2042 82.5257 58.2042 82.6667 58.346L83.5595 59.2436L82.6902 60.1176L81.5154 58.9365L82.1028 58.346ZM80.2701 60.7554C79.8707 60.3302 80.599 59.9286 80.8575 59.5979L82.0323 60.779L81.1629 61.6531L80.2701 60.7554ZM81.8208 62.3145L82.6902 61.4405L83.865 62.6216L82.9956 63.4956L81.8208 62.3145ZM85.1102 65.0546C84.9692 65.1964 84.7108 65.1964 84.5463 65.0546L83.6535 64.157L84.5228 63.283L85.6976 64.4641L85.1102 65.0546ZM86.9429 63.2121L86.3555 63.8027L85.1807 62.6216L86.0501 61.7475L86.9429 62.6452C87.1074 62.7869 87.1074 63.0468 86.9429 63.2121Z" fill="white"/>
<path d="M74.7957 52.1811L75.3831 51.5905C75.9 51.0708 75.9 50.2204 75.3831 49.7007L74.1613 48.4724L71.1068 45.3779C70.6134 44.8818 69.7206 44.8818 69.2272 45.3779L67.3945 47.2204C66.8776 47.7165 66.8776 48.6141 67.3945 49.1102L71.6707 53.4094C72.1641 53.9291 73.057 53.9291 73.5504 53.4094L74.1378 52.8189L75.0071 53.6929L75.665 53.0314L74.7957 52.1574V52.1811ZM73.151 48.8031L72.2816 49.6771L71.1068 48.496L71.9762 47.622L73.151 48.8031ZM70.1435 45.9448C70.3785 45.874 71.0598 46.748 71.3183 46.9606L70.449 47.8346L69.2742 46.6535C69.4386 46.5118 69.8851 45.9212 70.1435 45.9448ZM68.0289 48.4724C68.0289 48.4724 67.9114 48.307 67.9114 48.1889C67.8644 47.9291 68.4753 47.5039 68.6163 47.3149L69.7911 48.496L68.9217 49.37L68.0289 48.4724ZM69.5796 50.0314L70.449 49.1574L71.6237 50.3385L70.7544 51.2126L69.5796 50.0314ZM72.869 52.7716C72.728 52.9133 72.4696 52.9133 72.3051 52.7716L71.4123 51.874L72.2816 51L73.4564 52.1811L72.869 52.7716ZM74.1143 51.5196L72.9395 50.3385L73.8088 49.4645L74.7017 50.3622C74.8427 50.5275 74.8427 50.7637 74.7017 50.9291L74.1143 51.5196Z" fill="white"/>
<path d="M58.0192 79.8442L54.6593 79.3009L54.1189 75.923C54.0719 75.6159 53.8134 75.356 53.508 75.3088C53.2025 75.2615 52.8971 75.4269 52.7326 75.7104L51.1819 78.7576L47.822 78.2143C47.5166 78.1671 47.2111 78.3324 47.0467 78.6159C46.8822 78.8993 46.9527 79.2537 47.1876 79.4663L49.5842 81.8757L48.0335 84.923C47.8925 85.2064 47.9395 85.5608 48.1745 85.7734C48.4094 86.0096 48.7384 86.0568 49.0203 85.9151L52.0513 84.356L54.4478 86.7655C54.6828 87.0017 55.0117 87.0489 55.2937 86.9072C55.5756 86.7655 55.7401 86.4584 55.6931 86.1277L55.1527 82.7497L58.1836 81.1907C58.818 80.9072 58.6535 79.8915 57.9722 79.8206L58.0192 79.8442ZM54.6358 81.9938C54.3538 82.1356 54.1894 82.4426 54.2364 82.7734L54.6828 85.6552L52.6386 83.6001C52.4977 83.4584 52.3097 83.3875 52.1217 83.3875C52.0043 83.2694 49.3727 84.734 49.2083 84.8049L50.524 82.2064C50.665 81.923 50.618 81.5686 50.3831 81.356L48.3389 79.3009L51.2054 79.7497C51.5108 79.797 51.8163 79.6316 51.9808 79.3482L53.2965 76.7497L53.7429 79.6316C53.7899 79.9387 54.0484 80.1986 54.3538 80.2458L57.2203 80.6946L54.6358 82.0175V81.9938Z" fill="white"/>
<path d="M70.8946 64.3952L58.7003 77.9779C57.9954 78.8047 56.6327 78.8283 55.8808 78.0488C55.1055 77.2929 55.129 75.9228 55.9513 75.2141L69.4613 62.9543C69.8608 62.5999 70.4717 62.5999 70.8711 62.9779C71.247 63.3558 71.2705 63.9936 70.8946 64.3952Z" fill="white" fill-opacity="0.3"/>
<path d="M70.7772 78.4964C70.6128 78.2602 70.3073 78.1421 70.0254 78.2366L67.6523 78.9452L66.2425 76.8901C66.0781 76.6539 65.7726 76.5358 65.5142 76.6303C65.2322 76.7248 65.0443 76.961 65.0443 77.2681L64.9973 79.7484L62.6242 80.457C62.3423 80.5515 62.1543 80.7878 62.1543 81.0948C62.1543 81.3783 62.3188 81.6381 62.6007 81.7326L64.9268 82.5594L64.8798 85.0397C64.8798 85.3232 65.0443 85.583 65.3262 85.6775C65.5847 85.772 65.8901 85.6775 66.0781 85.4413L67.5818 83.457L69.9079 84.2838C70.1898 84.3783 70.4718 84.2838 70.6597 84.0476C70.8242 83.8114 70.8477 83.5043 70.6597 83.2681L69.25 81.213L70.7537 79.2287C70.9182 78.9925 70.9417 78.6854 70.7537 78.4492L70.7772 78.4964ZM68.4042 80.8586C68.2397 81.0948 68.2162 81.4019 68.4042 81.6381L69.438 83.15C66.8299 82.2759 67.5348 82.0633 65.8666 84.2366C65.8901 81.4728 66.313 82.087 63.7285 81.1421C66.36 80.3153 65.8901 80.9059 65.9841 78.1421C67.5818 80.3862 66.8769 80.15 69.5085 79.3704L68.4042 80.835V80.8586Z" fill="white"/>
<path d="M73.338 65.7653C72.4687 68.6708 72.0693 70.1826 71.6933 71.6708C71.3644 72.9936 71.012 74.3637 70.3071 76.7259C70.1661 77.1747 69.8607 77.5527 69.4378 77.7653C68.5919 78.2141 67.4876 77.8125 67.1117 76.9385C66.9237 76.5133 66.9237 76.0173 67.1117 75.5684C68.0515 73.3007 68.6624 72.0251 69.2498 70.7732C69.9077 69.4031 70.5655 67.9858 71.7168 65.1511C71.9048 64.7259 72.3747 64.5133 72.8211 64.6551C73.2675 64.8204 73.5025 65.2929 73.3615 65.7417L73.338 65.7653Z" fill="white" fill-opacity="0.3"/>
<path d="M48.9267 69.0237L51.3938 68.9764L52.2161 71.315C52.3101 71.5985 52.5686 71.7638 52.8505 71.7638C53.1325 71.7638 53.3909 71.5749 53.4849 71.2914L54.1898 68.9056L56.6568 68.8583C56.9388 68.8583 57.1972 68.6693 57.2912 68.3859C57.3852 68.1024 57.2912 67.8189 57.0328 67.6536L55.0121 66.2363L55.717 63.8504C55.811 63.567 55.717 63.2835 55.4586 63.1182C55.2236 62.9528 54.9182 62.9528 54.6832 63.1182L52.7096 64.63L50.6889 63.2126C50.454 63.0473 50.125 63.0473 49.9136 63.2126C49.6786 63.378 49.5846 63.6851 49.6786 63.9685L50.501 66.3071L48.5273 67.8189C48.0104 68.1969 48.3159 69.0473 48.9502 69.0237H48.9267ZM51.2058 66.9449C51.4408 66.7796 51.5348 66.4725 51.4408 66.189L50.8299 64.4646C53.0855 66.0237 52.3806 66.0237 54.5657 64.3937C53.7904 67.0394 53.5554 66.3544 55.7875 67.9371C53.0385 68.0315 53.6259 67.5827 52.8035 70.2048C51.8637 67.6063 52.4746 68.0315 49.7256 68.0552L51.1823 66.9449H51.2058Z" fill="white"/>
<path d="M68.7092 62.1741C65.9132 63.3316 64.5035 64.0166 63.1173 64.6544C61.8955 65.245 60.6267 65.8592 58.3711 66.804C57.9482 66.993 57.4548 66.9694 57.0084 66.804C55.5751 66.2135 55.7161 64.0166 57.2198 63.5914C62.3419 62.056 62.7178 62.1741 68.1218 60.5442C69.1792 60.2371 69.7196 61.7725 68.7092 62.1977V62.1741Z" fill="white" fill-opacity="0.3"/>
<path d="M63.2584 75.545L64.4802 74.104C64.6446 73.915 64.6211 73.608 64.4332 73.4426C64.2452 73.2773 63.9398 73.3009 63.7753 73.4899L62.5535 74.9308C62.1541 75.4032 62.8825 76.0174 63.2819 75.545H63.2584Z" fill="white"/>
<path d="M65.3737 72.9928L65.9846 72.2606C66.384 71.7881 65.6556 71.1739 65.2562 71.6464L64.6453 72.3787C64.2459 72.8511 64.9743 73.4653 65.3737 72.9928Z" fill="white"/>
<path d="M66.8768 71.1732C67.1588 70.8661 66.8768 70.3464 66.4774 70.3936C65.6081 70.5826 66.2424 71.7873 66.8768 71.1732Z" fill="white"/>
</g>
<defs>
<filter id="filter0_d_454_2738" x="0.5" y="0.414062" width="135.356" height="146.172" filterUnits="userSpaceOnUse" color-interpolation-filters="sRGB">
<feFlood flood-opacity="0" result="BackgroundImageFix"/>
<feColorMatrix in="SourceAlpha" type="matrix" values="0 0 0 0 0 0 0 0 0 0 0 0 0 0 0 0 0 0 127 0" result="hardAlpha"/>
<feOffset dy="6"/>
<feGaussianBlur stdDeviation="12"/>
<feComposite in2="hardAlpha" operator="out"/>
<feColorMatrix type="matrix" values="0 0 0 0 1 0 0 0 0 0.425 0 0 0 0 0.425 0 0 0 0.45 0"/>
<feBlend mode="normal" in2="BackgroundImageFix" result="effect1_dropShadow_454_2738"/>
<feBlend mode="normal" in="SourceGraphic" in2="effect1_dropShadow_454_2738" result="shape"/>
</filter>
<clipPath id="clip0_454_2738">
<rect width="41" height="42" fill="white" transform="translate(47 45)"/>
</clipPath>
</defs>
</svg>
