<svg width="163" height="50" viewBox="0 0 163 50" fill="none" xmlns="http://www.w3.org/2000/svg">
<g clip-path="url(#clip0_590_326)">
<path fill-rule="evenodd" clip-rule="evenodd" d="M28.0616 25.6583C25.7764 25.6851 23.4965 25.7066 21.2112 25.7334C21.0234 26.4683 20.6479 27.1442 20.1168 27.6914C18.4699 29.3866 15.793 29.3812 14.1569 27.6807C12.5583 26.0231 12.5261 23.314 14.0925 21.6188C15.6911 19.8807 18.368 19.8163 20.0525 21.474C20.5943 22.0104 20.9859 22.6756 21.1897 23.4052C23.475 23.3784 25.7603 23.3569 28.0402 23.3355C28.1797 22.799 28.4103 22.2947 28.7429 21.8495L28.7858 21.7851L28.8449 21.7046C28.936 21.592 29.0326 21.4793 29.1345 21.372C29.4403 21.0609 29.789 20.798 30.1752 20.5888C30.4435 20.4494 30.7278 20.3313 31.0175 20.2509C30.9531 18.0997 30.8673 15.97 30.7653 13.8188C30.0626 13.6204 29.4189 13.2556 28.877 12.7674C27.3535 11.3995 26.9351 9.06055 28.6142 7.64432C30.186 6.3783 32.5893 6.81283 34.0538 8.03593C34.5419 8.46509 34.9443 8.99081 35.1964 9.59163C36.8701 9.80621 38.5814 9.99397 40.239 10.2997C40.5931 10.3641 40.9471 10.4339 41.2958 10.4982C41.2905 10.0369 41.3334 9.84376 41.7357 9.39851C42.1005 8.99617 42.8354 9.08737 43.2968 9.22685C44.0478 9.45215 44.7398 9.94569 45.2387 10.5465C46.038 11.5175 47.0948 13.4541 46.3921 14.7094C45.6786 15.9754 43.3558 14.7523 42.6691 13.953C42.0737 13.2609 41.9288 13.0625 41.6445 12.3114C41.0437 12.2149 40.4482 12.1183 39.8528 12.0271C38.3936 11.8072 36.8969 11.657 35.4271 11.496C35.3091 12.0754 35.0301 12.5957 34.6063 13.0034C34.1557 13.4648 33.5763 13.7598 32.954 13.9047C33.0721 16.0344 33.174 18.1426 33.2545 20.2723C33.7426 20.4172 34.204 20.6478 34.6063 20.9536L34.6278 20.9697C34.7941 21.0985 34.955 21.2379 35.0998 21.3881C35.5129 21.8227 35.8294 22.3377 36.0333 22.8956L36.0708 22.9975C36.6019 24.5264 36.2586 26.2591 35.1642 27.4607C35.132 27.4983 35.0998 27.5305 35.0623 27.5627C33.4744 29.1613 30.8351 29.2042 29.2204 27.611L29.1453 27.5358L29.0648 27.45L28.9897 27.3642C28.5498 26.8706 28.2387 26.2859 28.0616 25.6529V25.6583ZM34.8263 35.8508C36.3337 37.2939 35.7758 39.5416 34.3595 40.8451C32.9272 42.0951 30.5293 42.5564 28.9414 41.3226C27.2409 39.9385 27.6164 37.5996 29.1077 36.1995C30.5776 34.8208 33.2866 34.3809 34.8263 35.8508ZM4.7422 13.8349C2.60177 13.3897 3.89998 10.1174 4.81194 8.99081C5.53078 8.10567 7.37617 6.67871 8.45443 7.81598C9.41467 8.82987 8.79776 10.7933 8.1862 11.8286C7.73559 12.5904 7.05966 13.3253 6.22817 13.674C6.1316 14.5109 6.02968 15.3477 5.94921 16.19C5.79901 17.7886 5.62734 19.3926 5.52005 20.9965C5.54151 21.0019 5.56297 21.0126 5.58443 21.018C6.06723 21.1843 6.4642 21.5223 6.76998 21.9246C7.99308 23.4374 7.99308 25.9694 6.83435 27.5144C5.9814 28.6463 4.66173 28.9199 3.58347 28.0401C3.36353 28.4103 3.15431 28.7858 2.9451 29.1667C3.43863 30.3039 3.6693 31.9991 3.21332 33.1632C2.90755 33.9464 2.28527 33.9196 1.72736 33.3885C0.466704 32.1922 -0.128754 29.8372 0.219938 28.142C0.455975 27.0048 1.32502 27.0209 1.99022 27.6807C2.17798 27.3052 2.36573 26.9404 2.57495 26.5702C2.08678 25.213 2.15652 23.4374 2.88609 22.1767C3.03093 21.9568 3.19723 21.7529 3.38499 21.5705C3.39035 21.5544 3.40108 21.5437 3.41717 21.533C3.58347 21.372 3.77123 21.2326 3.98044 21.1253C4.10383 19.4516 4.27549 17.7725 4.45788 16.1095C4.53835 15.3531 4.64028 14.5913 4.73684 13.8349H4.7422ZM41.9664 22.3859C41.3173 23.8826 41.4729 25.8621 42.4867 27.1603C43.6455 28.6409 45.3836 28.4424 46.3706 26.9028C47.2236 25.4383 47.2021 23.1906 46.3224 21.7476C45.5552 20.6103 44.2517 20.0953 43.109 20.9107C42.7067 20.4064 42.3044 19.9075 41.8967 19.4086C42.5028 17.869 42.0093 16.0183 40.9471 14.8005C39.6436 13.3843 37.4012 12.8318 35.9528 14.3338C34.4186 15.9325 34.8692 18.5396 36.3069 20.0524C37.4441 21.2487 39.252 21.8066 40.7111 20.8839C41.1349 21.3828 41.5533 21.8817 41.9664 22.3859ZM21.474 20.0202C23.2014 21.7046 26.0017 21.6725 27.6968 19.9558C29.3545 18.2767 29.2955 15.5999 27.5627 14.0012C25.8676 12.4348 23.1478 12.4616 21.4901 14.0602C19.7896 15.6964 19.7842 18.3733 21.474 20.0202ZM46.1453 29.6173C44.831 29.8211 43.5596 29.9874 42.24 30.143C42.1327 29.5529 41.8967 28.9789 41.5104 28.5175C40.0995 26.8385 37.766 27.273 36.3927 28.7804C34.9872 30.3254 34.5902 32.9272 36.1513 34.5043C37.6212 35.9903 39.8635 35.3895 41.1349 33.9464C41.5802 33.4421 41.902 32.836 42.0951 32.1922C43.4148 31.9884 44.6486 31.7792 45.9468 31.5109C45.9629 31.9294 46.038 32.3853 46.2312 32.7448C46.8856 34.22 48.0819 32.6375 48.4628 31.8435C48.5433 31.7201 48.6184 31.5807 48.6881 31.4358C48.8919 30.7331 49.0582 30.0464 49.1924 29.3598C49.2299 28.7804 49.2138 28.1849 49.1119 27.6378C49.0368 27.3427 48.9027 27.0477 48.6559 26.876C48.6988 25.1057 48.6827 23.4964 48.6076 21.7261C48.849 21.5491 48.9778 21.2272 49.0422 20.9483C49.1387 20.385 49.1441 19.7842 49.0958 19.2316C48.9456 18.5235 48.7632 17.8422 48.5593 17.1717C48.4735 17 48.3984 16.8605 48.3072 16.7264C47.9371 15.9968 46.714 14.4143 46.0649 15.8842C45.3997 17.1931 45.9576 19.4301 46.7193 20.6317C46.9285 20.9912 47.2236 21.3774 47.583 21.6135C47.6581 23.4481 47.6742 25.1326 47.6367 26.9672C47.2826 27.214 46.9983 27.6109 46.7944 27.9704C46.5048 28.4746 46.2902 29.0325 46.1507 29.6012L46.1453 29.6173ZM0.214573 18.5181C-0.0107353 19.3872 -0.295053 21.7476 0.702742 22.2143C1.45913 22.5683 2.16725 21.6617 2.46766 21.0877C3.20796 19.8646 3.6854 17.6437 3.0202 16.3294C2.56958 15.4389 1.84001 15.7179 1.31966 16.367C0.815396 16.9893 0.413059 17.7457 0.209209 18.5181H0.214573ZM27.7773 3.52439C28.1582 3.29909 28.5337 3.07914 28.9146 2.86456C30.0304 3.32591 31.8221 3.63168 32.9004 3.05232C33.6943 2.69826 33.6139 2.03843 33.0399 1.49662C31.7363 0.268149 29.51 -0.262935 27.7827 0.176953C26.6615 0.461271 26.7205 1.29277 27.3857 1.94187C27.0156 2.14036 26.6508 2.34421 26.2806 2.54806C24.9073 2.08671 23.1263 2.20473 21.8925 2.96112C20.3636 3.98038 20.1758 5.74529 21.7047 6.85574C23.2497 8.03593 25.7817 7.99838 27.3106 6.79673C28.4264 5.92232 28.6732 4.58656 27.7773 3.52439ZM35.6846 7.03277C36.7843 7.99301 39.2788 9.1732 40.5609 7.934C41.7035 6.82892 40.1264 4.95135 39.2627 4.23251C38.2327 3.45466 36.0762 2.38712 34.8048 3.07914C33.1686 4.07157 34.6653 6.19591 35.6846 7.03277ZM15.0742 3.8409C15.3424 3.69069 15.6107 3.53512 15.8842 3.39028C16.1203 3.26153 16.3563 3.13279 16.5924 3.0094C17.8691 3.44393 19.6018 3.18643 20.8088 2.63925C21.5116 2.32275 22.4718 1.4537 21.9568 0.611476C21.8496 0.434448 21.6833 0.311065 21.4955 0.235962C20.1651 -0.262935 18.4163 0.117943 17.1288 0.606112C16.6299 0.793869 15.3478 1.57172 15.557 2.24765C15.4068 2.32275 15.2566 2.40322 15.1064 2.48368C14.7631 2.66071 14.4251 2.84847 14.0818 3.03623C12.907 2.768 11.3459 3.35809 10.3749 3.96965C9.48977 4.57583 7.86433 6.18518 8.83531 7.32245C9.65607 8.27733 11.3405 7.98228 12.3759 7.53703C12.805 7.88572 13.2449 8.22905 13.6687 8.58847C13.8404 8.73331 14.0174 8.87815 14.1944 9.02836C13.5131 10.0422 13.2717 11.3512 13.8511 12.4616C13.3468 12.9713 12.8426 13.4862 12.3437 14.0012C10.8738 13.2824 9.17327 13.9583 8.13792 15.1331C6.92555 16.5869 6.4803 19.017 7.76241 20.562C9.16791 22.2572 11.5122 21.8066 12.8801 20.2938C14.0603 18.9956 14.5378 16.9624 13.6955 15.3638C14.2052 14.8381 14.7148 14.3124 15.2298 13.792C16.8499 14.5913 18.8723 14.0763 20.149 12.864C21.6296 11.4638 22.0105 9.11956 20.3099 7.74088C18.9956 6.73236 17.1073 6.86111 15.7179 7.63359C15.2137 7.24198 14.7094 6.83965 14.2052 6.44268L14.1354 6.38367C14.7953 5.75602 15.4658 4.7314 15.0796 3.8409H15.0742ZM20.7016 37.5192C20.9 37.3368 21.0985 37.1544 21.2916 36.972C21.7369 36.5536 22.1822 36.1405 22.622 35.7221C24.2904 36.5965 26.3986 36.3282 27.7666 35.0139C29.4671 33.3778 29.4779 30.7009 27.788 29.054C26.0607 27.3695 23.2604 27.3964 21.5706 29.1184C20.2188 30.4917 19.9827 32.5785 20.9912 34.2039C20.5996 34.5794 20.2027 34.9496 19.8164 35.3251C19.5696 35.5611 19.3282 35.7972 19.0815 36.0386C17.5472 35.1802 15.5624 35.1481 14.2588 36.4516C12.8211 37.8893 13.3951 40.2014 14.8221 41.4352C16.2437 42.6583 18.7221 43.066 20.2509 41.8108C21.6189 40.6842 21.635 38.9247 20.7069 37.5299L20.7016 37.5192ZM39.9708 40.9042C38.5868 40.4267 36.7682 41.3387 35.7704 42.2453C34.778 43.0875 33.3725 45.185 34.9711 46.1506C36.2532 46.8158 38.3722 45.7161 39.37 44.9329C40.1317 44.2784 41.269 42.9319 40.931 41.8268C41.4031 41.3548 41.8698 40.8773 42.3365 40.3945C43.4363 40.7271 44.7881 39.5308 45.4104 38.7798C46.1882 37.7552 47.2182 35.6416 46.5584 34.3648C45.5552 32.777 43.4738 34.2468 42.6477 35.25C41.7679 36.2585 40.9042 38.0878 41.4031 39.4557C40.931 39.9493 40.4536 40.4321 39.9708 40.9149V40.9042ZM9.63998 41.3279C9.17327 40.8827 8.71729 40.4321 8.26131 39.9761C8.59927 38.9622 8.14329 37.6801 7.59075 36.8003C7.74095 36.6179 7.89652 36.4409 8.04673 36.2585C8.40615 35.8293 8.76557 35.4056 9.11963 34.9764C10.4286 35.8562 12.1667 35.9313 13.3147 34.735C14.8489 33.131 14.3929 30.5292 12.9606 29.0164C11.5551 27.5358 9.21619 27.1496 7.83751 28.8555C6.81826 30.1591 6.95774 32.0581 7.73022 33.4475C7.38153 33.8767 7.01675 34.2951 6.67342 34.7243C6.52858 34.912 6.38374 35.0998 6.23889 35.2875C5.38058 34.6223 3.91607 34.0483 3.2616 35.2339C2.62323 36.3926 3.66394 38.4848 4.43106 39.4128C5.05334 40.1692 6.30327 41.2582 7.3869 40.8988C7.83215 41.344 8.28277 41.7839 8.73875 42.2238C8.41688 43.3289 9.49514 44.5252 10.2837 45.1475C11.2601 45.9146 13.2986 46.9338 14.4895 46.2257C15.9218 45.3781 14.5431 43.2592 13.658 42.5189C12.6495 41.6713 10.9865 40.8344 9.64534 41.3279H9.63998ZM21.9515 47.245C22.327 47.0519 22.6811 46.8534 23.0512 46.6388C24.1831 47.0197 25.535 47.0089 26.6561 46.6012C27.0317 46.8051 27.3911 46.9982 27.7666 47.186C27.4018 47.5508 27.0907 48.0926 27.4394 48.5539C28.4693 49.9111 32.6161 48.6666 33.5012 47.4327C33.9197 46.848 33.984 46.3169 33.2598 45.9629C32.1494 45.4211 30.3791 45.7537 29.2633 46.2365C28.8824 46.0219 28.5069 45.8127 28.1314 45.5927C29.0111 44.5091 28.7376 43.1733 27.5842 42.3311C26.0607 41.1456 23.5394 41.1724 22.0319 42.3901C20.9 43.2484 20.6533 44.5896 21.5545 45.6571C21.1844 45.8824 20.8088 46.1023 20.4333 46.3223C19.3122 45.8663 17.5151 45.5498 16.4261 46.1345C15.6858 46.4618 15.7126 47.0733 16.2222 47.6205C17.3863 48.8651 19.9291 49.4605 21.5491 49.0045C22.6596 48.6934 22.6274 47.8887 21.9461 47.2396L21.9515 47.245ZM30.3684 11.3565C31.0711 11.9896 32.2942 12.2095 33.0345 11.5068C33.7373 10.8416 33.4422 9.80085 32.7824 9.22148C32.1011 8.62602 30.9048 8.40071 30.1752 9.02836C29.4242 9.69356 29.6924 10.745 30.3684 11.3565ZM43.6401 12.8318C43.8976 13.1322 44.8257 13.894 45.1744 13.336C45.5123 12.7835 44.9544 11.7911 44.6004 11.3673C44.3482 11.0669 43.5167 10.3105 43.1144 10.7879C42.6852 11.2975 43.2861 12.4187 43.6401 12.8318ZM33.6192 25.8997C34.3756 25.0896 34.3649 23.7914 33.5924 22.9975C32.8146 22.1982 31.5593 22.2035 30.7868 23.0082C30.4327 23.3784 30.2235 23.8665 30.2021 24.3923V24.4835C30.2128 25.5242 30.9585 26.361 31.8972 26.5059C32.5356 26.6024 33.1847 26.3718 33.6192 25.8997ZM18.4753 26.0713C19.2639 25.2559 19.2478 23.9309 18.4431 23.1316C17.6545 22.343 16.3939 22.3591 15.6321 23.1799C14.8757 23.9899 14.8918 25.2881 15.6643 26.0821C16.4422 26.8814 17.6974 26.8814 18.4753 26.0767V26.0713ZM33.0613 39.6918C33.7158 39.1017 34.0055 38.0556 33.2813 37.3958C32.5303 36.7038 31.2964 36.9559 30.6098 37.605C29.9499 38.2219 29.7032 39.2894 30.4703 39.9278C31.2106 40.5447 32.3908 40.298 33.0613 39.6918ZM1.41085 31.4519C1.50742 31.6343 1.92585 32.3639 2.11897 31.865C2.37646 31.2534 2.09751 30.1698 1.76491 29.6065C1.62543 29.3544 1.21773 28.7375 1.0407 29.3008C0.890499 29.9016 1.14799 30.8994 1.41085 31.4519ZM5.11235 11.8179C5.46641 12.3651 6.38374 11.5872 6.63587 11.2868C6.98992 10.863 7.55319 9.74184 7.11867 9.23221C6.71633 8.75477 5.8902 9.53799 5.6488 9.8384C5.30547 10.2676 4.76366 11.2707 5.11772 11.8179H5.11235ZM3.9268 26.0123C4.37742 26.6614 5.09089 26.7043 5.56297 26.0552C6.08332 25.331 6.07796 24.1401 5.53078 23.4266C5.04798 22.7614 4.3345 22.8312 3.89998 23.5018C3.45472 24.1938 3.48155 25.331 3.9268 26.0123ZM37.4978 15.8895C36.8004 16.6352 37.0579 17.8637 37.7016 18.5503C38.3185 19.2102 39.3861 19.4569 40.0244 18.6898C40.6414 17.9495 40.3946 16.7693 39.7884 16.0988C39.193 15.4443 38.1522 15.16 37.4978 15.8895ZM43.7045 23.0458C43.1788 23.7646 43.1949 24.9609 43.7259 25.669C44.2141 26.3127 44.9222 26.2537 45.3568 25.5993C45.7966 24.8965 45.7966 23.7753 45.3353 23.0833C44.89 22.4128 44.1712 22.3645 43.6991 23.0458H43.7045ZM23.0941 18.3787C23.9095 19.1672 25.2399 19.1511 26.0392 18.3465C26.8278 17.5579 26.8063 16.2972 25.9909 15.5355C25.1809 14.7791 23.872 14.7898 23.078 15.5677C22.2787 16.3455 22.2894 17.6062 23.0941 18.3787ZM47.98 30.9852C48.2321 30.4219 48.4682 29.4188 48.3072 28.8287C48.1195 28.2654 47.7225 28.8877 47.583 29.1452C47.2665 29.7085 47.009 30.8028 47.2826 31.4144C47.4865 31.9079 47.8888 31.173 47.98 30.9906V30.9852ZM48.2214 19.7842C48.3662 19.1887 48.1195 18.1963 47.862 17.6545C47.7654 17.4667 47.347 16.7371 47.1485 17.2468C46.8803 17.8369 47.1753 18.9312 47.4972 19.4784C47.642 19.7412 48.039 20.3528 48.2214 19.7842ZM37.6533 32.9379C38.3239 33.6406 39.3592 33.3402 39.9386 32.6858C40.5287 31.9937 40.7701 30.8135 40.1317 30.0786C39.4773 29.3222 38.4151 29.5904 37.8089 30.261C37.1705 30.9691 36.9452 32.1922 37.6533 32.9379ZM0.944144 20.2562C1.13727 20.8302 1.52351 20.208 1.66835 19.9397C1.97949 19.3926 2.24771 18.2875 1.9634 17.6974C1.75955 17.2038 1.35721 17.9388 1.26601 18.1265C1.01925 18.6791 0.788574 19.6769 0.944144 20.2616V20.2562ZM23.1692 5.57899C22.5148 5.10692 22.5416 4.39344 23.2068 3.94819C23.8934 3.48684 25.0468 3.47611 25.7442 3.92137C26.4201 4.35589 26.463 5.064 25.8139 5.55217C25.1004 6.08862 23.8881 6.09935 23.1639 5.57899H23.1692ZM29.3169 1.6951C29.0487 1.55563 28.4103 1.15865 29.0004 0.970897C29.5691 0.804598 30.5937 1.05136 31.1355 1.29277C31.3232 1.38396 32.0582 1.7863 31.5646 1.99015C30.9531 2.26374 29.8856 2.01161 29.3223 1.68974L29.3169 1.6951ZM36.8326 5.98133C37.2993 6.37294 38.4902 6.99522 39.0642 6.51241C39.5577 6.09398 38.7209 5.17129 38.4151 4.91916C37.9752 4.57047 36.8379 3.97501 36.2854 4.3398C35.6738 4.7475 36.4893 5.69165 36.8272 5.97597L36.8326 5.98133ZM11.5873 16.147C10.9221 15.4336 9.88138 15.7393 9.30202 16.4045C8.70656 17.0858 8.48662 18.266 9.11963 19.0009C9.77409 19.7573 10.8309 19.4891 11.4424 18.8132C12.0755 18.1104 12.3008 16.882 11.5873 16.147ZM16.1686 9.38778C15.5248 9.97787 15.2351 11.0293 15.9647 11.6784C16.7104 12.3758 17.9388 12.1183 18.6255 11.4746C19.2961 10.8469 19.5321 9.79012 18.7596 9.15174C18.0193 8.54019 16.8391 8.78159 16.1739 9.39314L16.1686 9.38778ZM10.3535 6.11544C10.8416 6.60897 11.995 6.1369 12.4617 5.81503C12.7943 5.58436 13.6365 4.77968 13.1108 4.35589C12.6334 3.96965 11.5283 4.42563 11.0991 4.70458C10.7933 4.9138 9.94039 5.69165 10.3535 6.11544ZM17.4507 1.81312C16.9679 1.5449 17.7189 1.24449 17.9442 1.15865C18.5075 0.965533 19.5267 0.804598 20.1007 1.04064C20.6533 1.26594 19.972 1.62536 19.7199 1.72729C19.1298 1.99015 18.0247 2.12963 17.456 1.81849L17.4507 1.81312ZM16.0988 40.2336C15.4336 39.6542 15.1171 38.6189 15.8306 37.943C16.5548 37.2509 17.8101 37.4709 18.5075 38.0985C19.178 38.7047 19.4409 39.7722 18.6899 40.4213C17.9496 41.0597 16.7908 40.8398 16.0988 40.239V40.2336ZM23.2765 33.528C22.4611 32.7662 22.4343 31.5109 23.2229 30.717C24.0222 29.9123 25.3472 29.9016 26.1626 30.6902C26.9619 31.4627 26.9619 32.7233 26.1626 33.5012C25.3687 34.2736 24.0812 34.2844 23.2711 33.528H23.2765ZM36.4195 44.8739C36.9881 45.2118 38.061 44.6325 38.5009 44.2731C38.8067 44.0102 39.6114 43.1036 39.1071 42.6905C38.5546 42.2131 37.3851 42.8568 36.9452 43.2484C36.5965 43.5435 35.8294 44.4769 36.4195 44.8792V44.8739ZM43.1734 38.5545C42.6799 38.0073 43.3022 36.8271 43.683 36.3819C43.9673 36.0332 44.89 35.2339 45.2924 35.8454C45.6518 36.3873 45.0671 37.5084 44.7237 37.9376C44.4716 38.2434 43.5865 39.0427 43.1734 38.5545ZM13.0786 45.0294C12.5422 45.3835 11.5229 44.8363 11.1045 44.493C10.7987 44.2462 10.0262 43.4308 10.4983 43.0178C11.0026 42.5779 12.1345 43.1572 12.5529 43.5006C12.864 43.7581 13.6312 44.6593 13.084 45.0241L13.0786 45.0294ZM11.7804 33.2007C12.4724 32.4444 12.2203 31.2213 11.5712 30.5292C10.9543 29.8694 9.88675 29.6226 9.24837 30.3951C8.62609 31.1461 8.88895 32.321 9.48977 32.9969C10.0852 33.6406 11.1259 33.9196 11.7804 33.2007ZM6.55003 39.1607C6.16916 39.6274 5.32693 38.8978 5.0748 38.6028C4.72611 38.1897 4.15211 37.1758 4.49544 36.6394C4.84949 36.0761 5.75609 36.8164 6.01895 37.1168C6.37837 37.5299 6.99529 38.6403 6.55003 39.1553V39.1607ZM31.5056 47.7653C30.9638 48.0228 29.9714 48.275 29.3759 48.1248C28.8127 47.9477 29.4296 47.54 29.6817 47.4006C30.2289 47.0787 31.3232 46.7836 31.9133 47.0519C32.4498 47.245 31.6934 47.6634 31.5056 47.76V47.7653ZM17.7886 47.2021C18.3841 46.9177 19.4892 47.186 20.0364 47.4971C20.2939 47.6312 20.9215 48.0282 20.3582 48.2213C19.7681 48.3769 18.7703 48.1462 18.2232 47.8994C18.0354 47.8083 17.2736 47.4059 17.7886 47.2074V47.2021ZM26.0929 45.2387C25.4008 45.6893 24.285 45.7 23.5823 45.2601C22.9225 44.8202 22.8688 44.1121 23.5286 43.6293C24.226 43.0875 25.4169 43.0768 26.1197 43.6025C26.7902 44.0692 26.7527 44.7827 26.0982 45.2387H26.0929Z" fill="#D61F26"/>
<path fill-rule="evenodd" clip-rule="evenodd" d="M70.5538 12.7728H62.9201C59.4493 12.7728 58.2637 14.425 58.2637 17.5955C58.2637 20.7659 59.4493 22.4181 62.9201 22.4181H70.5538V20.444H62.9201C60.608 20.444 60.3237 19.4408 60.3237 17.5955C60.3237 15.7501 60.608 14.7308 62.9201 14.7308H70.5538V12.7674V12.7728ZM78.5683 12.6333C73.971 12.6333 71.7983 13.8618 71.7983 17.6008C71.7983 21.3399 73.971 22.5683 78.5683 22.5683C83.1657 22.5683 85.3383 21.3399 85.3383 17.6008C85.3383 13.8618 83.1657 12.6333 78.5683 12.6333ZM78.5683 20.6586C75.4086 20.6586 73.8583 20.2938 73.8583 17.5955C73.8583 14.8971 75.4086 14.5323 78.5683 14.5323C81.728 14.5323 83.2783 14.8971 83.2783 17.5955C83.2783 20.2938 81.728 20.6586 78.5683 20.6586ZM97.0919 17.1609V20.4494H91.4646C89.1632 20.4494 88.8842 19.4462 88.8842 17.5847C88.8842 15.7232 89.1686 14.7362 91.4646 14.7362H98.9963V12.7728H91.4646C88.0098 12.7728 86.8243 14.425 86.8243 17.5847C86.8243 20.7444 88.0098 22.4235 91.4646 22.4235H99.109V17.1609H97.0919ZM103.283 14.8166H103.299C104.27 14.8166 104.345 14.9722 106.812 18.2016C109.452 21.6564 110.171 22.4181 112.552 22.4181H113.979V12.7728H111.962V20.3743H111.946C110.9 20.3743 110.734 20.149 108.432 16.9732C105.992 13.5989 105.289 12.7674 102.692 12.7674H101.265V22.4181H103.283V14.8166ZM116.372 12.7728V22.4235H118.389V12.7728H116.372ZM126.672 22.4235V14.5913H131.468V12.7728H119.859V14.5913H124.655V22.4235H126.672ZM132.932 12.7728V22.4235H134.949V12.7728H132.932ZM147.931 12.7728L144.294 19.9934C144.085 20.4011 143.817 20.6425 143.291 20.6425C142.765 20.6425 142.502 20.4011 142.288 19.9934L138.645 12.7728H136.43L140.265 20.5191C140.855 21.7154 141.633 22.563 143.286 22.563C144.938 22.563 145.71 21.7154 146.306 20.5191L150.141 12.7728H147.926H147.931ZM163 14.6933V12.7728H155.356C151.901 12.7728 150.699 14.425 150.699 17.5955C150.699 20.7659 151.901 22.4181 155.356 22.4181H163V20.4869H155.356C153.467 20.4869 152.899 19.7788 152.759 18.4967H162.834V16.6889H152.759C152.899 15.4067 153.462 14.6879 155.356 14.6879H163V14.6933ZM58.2959 34.7243V36.5321H66.745C69.4701 36.5321 70.5109 35.3734 70.5109 33.7372C70.5109 31.7899 69.0464 31.0711 66.7718 30.8887L62.33 30.5346C60.7475 30.4059 60.3827 30.1269 60.3827 29.5905C60.3827 28.9413 60.9192 28.6892 61.8633 28.6892H69.8886V26.8814H62.0457C60.0555 26.8814 58.3335 27.6002 58.3335 29.6441C58.3335 31.4197 59.6317 32.1976 61.8043 32.3693L66.4714 32.734C67.8554 32.8467 68.4348 33.1739 68.4348 33.823C68.4348 34.3595 68.0539 34.7243 66.8684 34.7243H58.2906H58.2959ZM72.3026 26.8814V36.5321H74.3196V33.3724H80.6658C83.332 33.3724 84.5175 31.865 84.5175 30.1108C84.5175 28.3566 83.332 26.8814 80.6658 26.8814H72.3026ZM74.3196 31.5914V28.657H80.7678C81.9962 28.657 82.42 29.5046 82.42 30.1269C82.42 30.7492 82.0123 31.5914 80.7678 31.5914H74.3196ZM94.238 28.7858L98.2024 36.5321H96.0297L94.8013 34.1503H87.6933L86.4648 36.5321H84.3083L88.2566 28.7858C88.8628 27.5841 89.5977 26.7419 91.2446 26.7419C92.8915 26.7419 93.6157 27.5895 94.238 28.7858ZM93.8732 32.3532L92.2531 29.1935C92.0439 28.7858 91.7757 28.5336 91.25 28.5336C90.7243 28.5336 90.4614 28.7858 90.2468 29.1935L88.6106 32.3532H93.8732ZM111.013 26.8814H103.379C99.9083 26.8814 98.7227 28.5336 98.7227 31.7041C98.7227 34.8745 99.9083 36.5267 103.379 36.5267H111.013V34.5526H103.379C101.067 34.5526 100.783 33.5494 100.783 31.7041C100.783 29.8587 101.067 28.8394 103.379 28.8394H111.013V26.876V26.8814ZM124.655 28.8019V26.8814H117.01C113.556 26.8814 112.354 28.5336 112.354 31.7041C112.354 34.8745 113.556 36.5267 117.01 36.5267H124.655V34.5955H117.01C115.122 34.5955 114.553 33.8874 114.414 32.6053H124.488V30.7975H114.414C114.553 29.5153 115.117 28.7965 117.01 28.7965H124.655V28.8019Z" fill="white"/>
</g>
<defs>
<clipPath id="clip0_590_326">
<rect width="163" height="49.1602" fill="white"/>
</clipPath>
</defs>
</svg>
