<svg width="210" height="405" viewBox="0 0 210 405" fill="none" xmlns="http://www.w3.org/2000/svg">
<path opacity="0.3" d="M229.766 -121.143L201.336 -112.854C200.982 -113.828 200.002 -114.412 199.043 -114.133C198.014 -113.833 197.417 -112.705 197.693 -111.584C197.855 -110.927 198.326 -110.402 198.873 -110.188L191.248 -79.2083C190.971 -79.2518 190.703 -79.2567 190.455 -79.1843C189.426 -78.8842 188.828 -77.757 189.104 -76.6359C189.38 -75.5147 190.416 -74.8635 191.445 -75.1636C191.729 -75.2464 191.958 -75.3962 192.143 -75.5742L212.982 -52.8937C212.607 -52.4112 212.439 -51.6995 212.601 -51.0423C212.763 -50.3851 213.235 -49.8597 213.782 -49.6463L206.156 -18.6664C205.879 -18.71 205.612 -18.7149 205.363 -18.6424C204.334 -18.3423 203.737 -17.2151 204.013 -16.0939C204.289 -14.9728 205.324 -14.3216 206.353 -14.6217C206.637 -14.7045 206.867 -14.8543 207.051 -15.0324L227.891 7.64817C227.515 8.13064 227.348 8.84232 227.51 9.49951C227.595 9.84745 227.743 10.1361 227.961 10.404C228.169 10.6332 228.404 10.8134 228.655 10.906L221.029 41.8858C220.752 41.8422 220.485 41.8374 220.236 41.9098C219.278 42.1892 218.697 43.2288 218.838 44.265L190.408 52.554C190.054 51.5798 189.073 50.9956 188.115 51.275C187.831 51.3578 187.602 51.5076 187.417 51.6856L166.578 29.0052C166.954 28.5227 167.121 27.811 166.959 27.1537C166.683 26.0326 165.647 25.3814 164.618 25.6815C163.66 25.9609 163.079 27.0005 163.22 28.0367L134.79 36.3257C134.436 35.3515 133.455 34.7673 132.497 35.0467C132.213 35.1295 131.984 35.2793 131.799 35.4574L110.96 12.7769C111.335 12.2944 111.502 11.5827 111.341 10.9255C111.065 9.80434 110.029 9.15314 109 9.45324C108.042 9.73265 107.461 10.7722 107.602 11.8084L79.1719 20.0974C78.8179 19.1233 77.8372 18.5391 76.8788 18.8185C75.8495 19.1186 75.2521 20.2458 75.5282 21.367C75.6901 22.0242 76.1618 22.5496 76.7089 22.763L69.0832 53.7429C68.8062 53.6993 68.5387 53.6944 68.2902 53.7668C67.2609 54.0669 66.6636 55.1942 66.9396 56.3153C67.2157 57.4364 68.251 58.0876 69.2803 57.7875C69.5643 57.7048 69.7937 57.555 69.9781 57.3769L90.8177 80.0574C90.442 80.5399 90.2749 81.2516 90.4367 81.9088C90.5986 82.566 91.0703 83.0915 91.6174 83.3048L83.9917 114.285C83.9917 114.285 83.9562 114.295 83.9467 114.256C83.7051 114.203 83.4472 114.236 83.1987 114.309C82.2404 114.588 81.6595 115.628 81.8005 116.664L53.3707 124.953C53.0167 123.979 52.0359 123.395 51.0776 123.674C50.0483 123.974 49.451 125.101 49.7271 126.222C49.8889 126.88 50.3606 127.405 50.9077 127.618L43.282 158.598C43.005 158.555 42.7375 158.55 42.4891 158.622C41.5307 158.902 40.9498 159.941 41.0909 160.977L12.661 169.266C12.307 168.292 11.3262 167.708 10.3679 167.988C9.33863 168.288 8.74124 169.415 9.01732 170.536C9.17916 171.193 9.65094 171.719 10.198 171.932L2.57231 202.912C2.29531 202.868 2.02776 202.863 1.77932 202.936C0.750028 203.236 0.152704 204.363 0.428793 205.484C0.704875 206.606 1.74012 207.257 2.76941 206.957C3.05336 206.874 3.28283 206.724 3.4672 206.546L24.3068 229.226C23.9311 229.709 23.764 230.421 23.9258 231.078C24.2019 232.199 25.2372 232.85 26.2665 232.55C27.2248 232.271 27.8057 231.231 27.6647 230.195L56.0946 221.906C56.2062 222.205 56.3438 222.455 56.5429 222.645C57.0052 223.132 57.7133 223.381 58.3876 223.185C58.6716 223.102 58.901 222.952 59.0854 222.774L79.925 245.455C79.5493 245.937 79.3822 246.649 79.544 247.306C79.8201 248.427 80.8554 249.078 81.8847 248.778C82.843 248.499 83.4239 247.459 83.2829 246.423L111.713 238.134C111.862 238.588 112.18 238.951 112.55 239.216C112.955 239.471 113.509 239.558 114.006 239.413C114.29 239.33 114.519 239.181 114.704 239.002L135.543 261.683C135.167 262.165 135 262.877 135.162 263.534C135.248 263.882 135.395 264.171 135.613 264.439C135.822 264.668 136.056 264.848 136.317 264.979L128.691 295.959C128.414 295.916 128.147 295.911 127.898 295.983C126.869 296.283 126.272 297.411 126.548 298.532C126.824 299.653 127.859 300.304 128.888 300.004C129.172 299.921 129.402 299.771 129.586 299.593L150.426 322.274C150.05 322.756 149.883 323.468 150.045 324.125C150.13 324.473 150.278 324.762 150.496 325.03C150.704 325.259 150.939 325.439 151.19 325.532L143.564 356.512C143.287 356.468 143.02 356.463 142.771 356.536C141.813 356.815 141.232 357.854 141.373 358.891L112.943 367.18C112.589 366.206 111.608 365.621 110.65 365.901C109.621 366.201 109.023 367.328 109.3 368.449C109.461 369.106 109.933 369.632 110.48 369.845L102.855 400.825C102.578 400.782 102.31 400.777 102.062 400.849C101.032 401.149 100.435 402.276 100.711 403.398C100.987 404.519 102.022 405.17 103.052 404.87C103.336 404.787 103.565 404.637 103.749 404.459L124.589 427.14C124.213 427.622 124.046 428.334 124.208 428.991C124.484 430.112 125.519 430.763 126.549 430.463C127.507 430.184 128.088 429.144 127.947 428.108L156.377 419.819C156.526 420.273 156.844 420.636 157.214 420.901C157.619 421.156 158.173 421.243 158.67 421.098C158.954 421.015 159.183 420.865 159.368 420.687L180.207 443.368C179.831 443.85 179.664 444.562 179.826 445.219C180.102 446.34 181.138 446.992 182.167 446.692C183.125 446.412 183.706 445.373 183.565 444.336L211.995 436.047C212.349 437.022 213.33 437.606 214.288 437.326C215.317 437.026 215.915 435.899 215.639 434.778C215.477 434.121 215.005 433.595 214.458 433.382L222.084 402.402C222.361 402.445 222.628 402.45 222.877 402.378C223.835 402.099 224.416 401.059 224.275 400.023L252.705 391.734C252.854 392.187 253.172 392.551 253.542 392.816C253.947 393.071 254.501 393.158 254.998 393.013C255.282 392.93 255.511 392.78 255.695 392.602L276.535 415.283C276.37 415.538 276.214 415.832 276.174 416.134C276.099 416.446 276.113 416.814 276.199 417.162C276.361 417.82 276.833 418.345 277.38 418.558L269.754 449.538C269.477 449.495 269.21 449.49 268.961 449.562C267.932 449.862 267.334 450.99 267.611 452.111C267.887 453.232 268.922 453.883 269.951 453.583C270.235 453.5 270.465 453.35 270.649 453.172L291.489 475.853C291.113 476.335 290.946 477.047 291.108 477.704C291.174 477.975 291.276 478.235 291.44 478.436C291.668 478.743 291.947 478.951 292.288 479.1L284.663 510.08C284.386 510.037 284.118 510.032 283.87 510.104C282.84 510.404 282.243 511.531 282.519 512.653C282.795 513.774 283.83 514.425 284.86 514.125C285.144 514.042 285.373 513.892 285.557 513.714L306.397 536.395C306.021 536.877 305.854 537.589 306.016 538.246C306.292 539.367 307.327 540.018 308.357 539.718C309.315 539.439 309.896 538.399 309.755 537.363L338.185 529.074C338.539 530.048 339.52 530.632 340.478 530.353C341.507 530.053 342.105 528.926 341.828 527.805C341.667 527.147 341.195 526.622 340.648 526.409L348.274 495.429C348.551 495.472 348.818 495.477 349.102 495.394C350.06 495.115 350.641 494.075 350.5 493.039L378.93 484.75C379.284 485.724 380.265 486.308 381.223 486.029C382.252 485.729 382.85 484.602 382.574 483.481C382.412 482.823 381.94 482.298 381.393 482.085L389.019 451.105C389.296 451.148 389.563 451.153 389.812 451.081C390.77 450.801 391.351 449.762 391.21 448.726L419.64 440.437C419.789 440.89 420.107 441.253 420.477 441.518C420.882 441.773 421.436 441.86 421.933 441.715C422.217 441.633 422.446 441.483 422.631 441.305L443.665 464.467C443.289 464.95 443.122 465.661 443.284 466.319C443.56 467.44 444.595 468.091 445.625 467.791C446.583 467.511 447.164 466.472 447.023 465.436L475.453 457.147C475.807 458.121 476.787 458.705 477.746 458.426C478.775 458.126 479.372 456.998 479.096 455.877C478.934 455.22 478.463 454.695 477.916 454.481L485.541 423.501C485.818 423.545 486.086 423.55 486.334 423.477C487.364 423.177 487.961 422.05 487.685 420.929C487.409 419.808 486.373 419.157 485.344 419.457C485.06 419.539 484.831 419.689 484.646 419.867L463.807 397.187C464.183 396.704 464.35 395.993 464.188 395.335C464.026 394.678 463.554 394.153 463.007 393.939L470.633 362.959C470.91 363.003 471.177 363.008 471.426 362.935C472.242 362.697 472.809 361.911 472.848 360.988C472.855 360.861 472.853 360.696 472.824 360.58L501.254 352.291C501.608 353.265 502.589 353.85 503.547 353.57C504.576 353.27 505.174 352.143 504.898 351.022C504.736 350.365 504.264 349.839 503.717 349.626L511.343 318.646C511.62 318.689 511.887 318.694 512.135 318.622C513.094 318.342 513.675 317.303 513.534 316.267L541.964 307.978C542.113 308.431 542.431 308.794 542.801 309.06C543.206 309.314 543.76 309.401 544.257 309.257C544.541 309.174 544.77 309.024 544.954 308.846L565.836 331.39C565.461 331.872 565.294 332.584 565.455 333.241C565.732 334.362 566.767 335.014 567.796 334.713C568.754 334.434 569.335 333.394 569.194 332.358L597.624 324.069C597.978 325.043 598.959 325.628 599.917 325.348C600.947 325.048 601.544 323.921 601.268 322.8C601.106 322.143 600.634 321.617 600.087 321.404L607.713 290.424C607.99 290.467 608.257 290.472 608.506 290.4C609.535 290.1 610.132 288.973 609.856 287.851C609.58 286.73 608.545 286.079 607.516 286.379C607.232 286.462 607.002 286.612 606.818 286.79L585.978 264.109C586.354 263.627 586.521 262.915 586.359 262.258C586.197 261.601 585.726 261.075 585.179 260.862L592.804 229.882C593.081 229.926 593.349 229.93 593.597 229.858C594.627 229.558 595.224 228.431 594.948 227.31C594.672 226.188 593.637 225.537 592.607 225.837C592.323 225.92 592.094 226.07 591.909 226.248L571.07 203.567C571.446 203.085 571.613 202.373 571.451 201.716C571.175 200.595 570.139 199.944 569.11 200.244C568.152 200.523 567.571 201.563 567.712 202.599L539.282 210.888C538.928 209.914 537.947 209.33 536.989 209.609C536.705 209.692 536.476 209.842 536.291 210.02L515.452 187.339C515.827 186.857 515.994 186.145 515.833 185.488C515.671 184.831 515.199 184.305 514.652 184.092L522.252 153.161C522.493 153.215 522.796 153.209 523.045 153.137C523.435 153.023 523.761 152.804 523.988 152.489C524.374 152.045 524.524 151.421 524.443 150.782L552.873 142.493C553.227 143.467 554.207 144.051 555.166 143.772C556.195 143.472 556.792 142.344 556.516 141.223C556.355 140.566 555.883 140.041 555.336 139.827L562.961 108.847C563.238 108.891 563.506 108.896 563.754 108.823C564.713 108.544 565.294 107.504 565.153 106.468L593.618 98.1688C593.972 99.1429 594.953 99.7271 595.911 99.4477C596.94 99.1476 597.538 98.0204 597.262 96.8993C597.1 96.242 596.628 95.7166 596.081 95.5032L603.649 64.2914C603.926 64.3349 604.194 64.3398 604.442 64.2674C605.472 63.9673 606.069 62.8401 605.793 61.7189C605.517 60.5978 604.482 59.9466 603.452 60.2467C603.168 60.3295 602.939 60.4792 602.755 60.6573L581.915 37.9768C582.291 37.4944 582.458 36.7827 582.296 36.1254C582.02 35.0043 580.985 34.3531 579.955 34.6532C578.997 34.9326 578.416 35.9721 578.557 37.0083L550.127 45.2973C549.773 44.3232 548.792 43.7391 547.834 44.0185C547.55 44.1012 547.321 44.251 547.136 44.4291L526.297 21.7486C526.673 21.2661 526.84 20.5544 526.678 19.8971C526.402 18.776 525.366 18.1248 524.337 18.4249C523.379 18.7043 522.798 19.7438 522.939 20.7801L494.509 29.0691C494.155 28.0949 493.174 27.5108 492.216 27.7902C491.932 27.8729 491.703 28.0227 491.518 28.2008L470.679 5.52026C471.054 5.03779 471.221 4.32611 471.06 3.6689C470.898 3.01168 470.426 2.48621 469.879 2.27279L477.505 -28.707C477.782 -28.6635 478.049 -28.6586 478.298 -28.731C479.327 -29.0311 479.924 -30.1583 479.648 -31.2795C479.372 -32.4006 478.337 -33.0518 477.307 -32.7517C477.024 -32.6689 476.794 -32.5191 476.61 -32.3411L455.77 -55.0216C456.146 -55.504 456.313 -56.2157 456.151 -56.873C455.875 -57.9941 454.84 -58.6453 453.81 -58.3452C452.852 -58.0658 452.271 -57.0262 452.412 -55.99L423.982 -47.701C423.628 -48.6751 422.648 -49.2594 421.689 -48.98C420.66 -48.6799 420.063 -47.5526 420.339 -46.4315C420.501 -45.7743 420.972 -45.2489 421.519 -45.0354L413.894 -14.0556C413.617 -14.0991 413.349 -14.104 413.101 -14.0316C412.142 -13.7522 411.561 -12.7127 411.703 -11.6765L383.237 -3.37712C383.154 -3.56006 383.071 -3.74304 382.952 -3.91563C382.488 -4.56737 381.725 -4.88367 380.944 -4.656C380.66 -4.57322 380.431 -4.42347 380.246 -4.2454L359.407 -26.9259C359.782 -27.4084 359.95 -28.12 359.788 -28.7773C359.512 -29.8984 358.476 -30.5497 357.447 -30.2496C356.489 -29.9702 355.908 -28.9306 356.049 -27.8943L327.619 -19.6053C327.31 -20.5512 326.419 -21.0788 325.503 -20.9361C325.432 -20.9154 325.361 -20.8947 325.326 -20.8843C325.255 -20.8636 325.184 -20.8429 325.148 -20.8326C324.945 -20.7318 324.777 -20.6414 324.619 -20.5123L303.779 -43.1929C304.155 -43.6753 304.322 -44.387 304.16 -45.0442C303.998 -45.7015 303.526 -46.2269 302.979 -46.4403L310.605 -77.4202C310.882 -77.3766 311.15 -77.3717 311.398 -77.4441C312.427 -77.7442 313.025 -78.8715 312.749 -79.9926C312.472 -81.1137 311.437 -81.7649 310.408 -81.4648C310.124 -81.382 309.895 -81.2323 309.71 -81.0542L288.871 -103.735C289.246 -104.217 289.413 -104.929 289.252 -105.586C288.975 -106.707 287.94 -107.358 286.911 -107.058C285.953 -106.779 285.372 -105.739 285.513 -104.703L257.083 -96.4142C256.729 -97.3883 255.748 -97.9725 254.79 -97.6931C254.506 -97.6103 254.276 -97.4606 254.092 -97.2825L233.252 -119.963C233.628 -120.445 233.795 -121.157 233.633 -121.814C233.357 -122.936 232.322 -123.587 231.293 -123.287C230.206 -123.218 229.616 -122.218 229.766 -121.143ZM223.518 398.959C223.113 398.704 222.559 398.617 222.062 398.762C221.778 398.845 221.549 398.994 221.364 399.172L200.525 376.492C200.901 376.009 201.068 375.298 200.906 374.641C200.744 373.983 200.272 373.458 199.725 373.244L206.454 345.883L207.351 342.265C207.628 342.308 207.895 342.313 208.144 342.241C209.102 341.961 209.683 340.922 209.542 339.886L237.972 331.597C238.074 331.857 238.212 332.107 238.375 332.308C238.847 332.833 239.555 333.082 240.265 332.875C240.549 332.793 240.778 332.643 240.963 332.465L261.802 355.145C261.427 355.628 261.259 356.339 261.421 356.997C261.583 357.654 262.055 358.179 262.602 358.393L254.976 389.373C254.699 389.329 254.432 389.324 254.183 389.397C253.225 389.676 252.644 390.716 252.785 391.752L224.355 400.041C224.206 399.587 223.923 399.214 223.518 398.959ZM479.956 195.824C480.118 196.481 480.59 197.006 481.137 197.22L473.511 228.199C473.234 228.156 472.967 228.151 472.718 228.224C471.76 228.503 471.179 229.542 471.32 230.579L442.89 238.868C442.788 238.607 442.65 238.357 442.487 238.157C442.015 237.631 441.307 237.382 440.597 237.589C440.313 237.672 440.084 237.821 439.899 237.999L419.095 215.308C419.322 214.994 419.468 214.661 419.489 214.282C419.539 214.019 419.507 213.738 419.431 213.429C419.269 212.772 418.798 212.246 418.25 212.033L425.85 181.102L425.886 181.092C426.127 181.145 426.385 181.112 426.634 181.039C427.415 180.812 427.93 180.123 428.033 179.305C428.056 179.091 428.044 178.888 428.032 178.684L456.462 170.395C456.816 171.369 457.797 171.953 458.755 171.674C459.039 171.591 459.268 171.441 459.488 171.253L480.328 193.934C479.961 194.455 479.785 195.128 479.956 195.824ZM406.21 377.558C405.252 377.837 404.671 378.876 404.812 379.913L376.382 388.202C376.028 387.228 375.047 386.643 374.089 386.923C373.805 387.006 373.575 387.155 373.391 387.333L352.551 364.653C352.927 364.17 353.094 363.459 352.932 362.801C352.78 362.183 352.389 361.675 351.877 361.452C351.832 361.423 351.797 361.434 351.752 361.405L359.377 330.426C359.654 330.469 359.922 330.474 360.17 330.402C361.129 330.122 361.71 329.083 361.569 328.046L389.998 319.757C390.352 320.732 391.333 321.316 392.292 321.036C392.575 320.954 392.805 320.804 392.989 320.626L413.819 343.268C413.567 343.631 413.404 344.052 413.402 344.508C413.379 344.722 413.426 344.915 413.483 345.147C413.645 345.804 414.117 346.33 414.664 346.543L407.038 377.523C406.752 377.441 406.494 377.475 406.21 377.558ZM209.437 339.46C209.083 338.486 208.103 337.902 207.144 338.181C206.86 338.264 206.631 338.414 206.446 338.592L185.607 315.911C185.983 315.429 186.15 314.717 185.988 314.06C185.835 313.442 185.444 312.934 184.933 312.71C184.888 312.682 184.852 312.692 184.807 312.664L192.433 281.684C192.71 281.728 192.977 281.733 193.226 281.66C194.184 281.381 194.765 280.341 194.624 279.305L223.054 271.016C223.137 271.199 223.22 271.382 223.339 271.554C223.803 272.206 224.566 272.523 225.347 272.295C225.631 272.212 225.86 272.062 226.045 271.884L246.884 294.565C246.509 295.047 246.341 295.759 246.503 296.416C246.637 296.957 246.973 297.398 247.388 297.691C247.478 297.748 247.568 297.805 247.648 297.823L240.023 328.802C239.746 328.759 239.478 328.754 239.23 328.826C238.272 329.106 237.691 330.145 237.832 331.182L209.437 339.46ZM171.06 253.441C170.975 253.093 170.818 252.766 170.609 252.536C170.401 252.307 170.166 252.127 169.915 252.034L177.541 221.055C177.818 221.098 178.085 221.103 178.334 221.031C179.292 220.751 179.873 219.712 179.732 218.675L208.162 210.386C208.245 210.569 208.328 210.752 208.447 210.925C208.911 211.577 209.674 211.893 210.455 211.665C210.739 211.583 210.968 211.433 211.153 211.255L231.992 233.935C231.617 234.418 231.449 235.129 231.611 235.787C231.678 236.057 231.78 236.318 231.944 236.518C232.062 236.691 232.207 236.815 232.351 236.938C232.486 237.023 232.621 237.108 232.792 237.183L225.166 268.163C224.889 268.119 224.622 268.114 224.373 268.187C223.592 268.414 223.077 269.103 222.974 269.92C222.951 270.134 222.963 270.338 222.975 270.542L194.545 278.831C194.443 278.57 194.305 278.321 194.142 278.12C193.67 277.594 192.962 277.345 192.252 277.552C191.968 277.635 191.739 277.784 191.554 277.962L170.715 255.282C171.045 254.771 171.222 254.098 171.06 253.441ZM156.133 192.822C155.971 192.164 155.499 191.639 154.952 191.426L161.681 164.064L162.578 160.446C162.855 160.489 163.122 160.494 163.371 160.422C164.329 160.142 164.91 159.103 164.769 158.067L193.199 149.778C193.301 150.038 193.439 150.288 193.602 150.489C194.074 151.014 194.782 151.264 195.492 151.057C195.776 150.974 196.005 150.824 196.19 150.646L217.029 173.326C216.653 173.809 216.486 174.521 216.648 175.178C216.81 175.835 217.282 176.36 217.829 176.574L210.203 207.554C209.926 207.51 209.659 207.505 209.41 207.578C208.452 207.857 207.871 208.897 208.012 209.933L179.582 218.222C179.499 218.039 179.416 217.856 179.297 217.683C178.833 217.032 178.07 216.715 177.289 216.943C177.005 217.026 176.776 217.176 176.591 217.354L155.752 194.673C156.127 194.191 156.295 193.479 156.133 192.822ZM386.201 94.0861C386.666 94.7379 387.428 95.0542 388.209 94.8265C388.493 94.7438 388.722 94.594 388.907 94.4159L409.746 117.096C409.371 117.579 409.204 118.291 409.365 118.948C409.527 119.605 409.999 120.13 410.546 120.344L402.92 151.324L402.885 151.334C402.643 151.28 402.385 151.314 402.137 151.386C401.179 151.666 400.598 152.705 400.739 153.742L372.309 162.031C372.057 161.317 371.434 160.794 370.764 160.699C370.522 160.645 370.264 160.679 370.016 160.752C369.732 160.834 369.503 160.984 369.318 161.162L348.478 138.482C348.854 137.999 349.021 137.288 348.859 136.63C348.698 135.973 348.226 135.448 347.679 135.234L355.305 104.254C355.501 104.28 355.698 104.306 355.91 104.244C355.981 104.223 356.052 104.202 356.088 104.192C357.046 103.912 357.627 102.873 357.486 101.837L385.916 93.5477C386.009 93.7693 386.092 93.9522 386.201 94.0861ZM424.293 179.567C424.464 180.263 424.927 180.75 425.474 180.963L417.874 211.894C417.597 211.85 417.329 211.845 417.081 211.918C416.3 212.146 415.785 212.834 415.682 213.652C415.659 213.866 415.671 214.069 415.683 214.273L387.253 222.562C387.151 222.302 387.013 222.052 386.85 221.851C386.378 221.326 385.67 221.076 384.96 221.283C384.676 221.366 384.447 221.516 384.262 221.694L363.422 199.013C363.798 198.531 363.965 197.819 363.803 197.162C363.68 196.659 363.433 196.275 363.063 196.01C362.928 195.925 362.793 195.84 362.623 195.766L370.249 164.786L370.284 164.776C370.526 164.829 370.783 164.796 371.032 164.723C371.99 164.444 372.571 163.404 372.43 162.368L400.86 154.079C401.01 154.533 401.327 154.896 401.697 155.161C401.922 155.303 402.138 155.405 402.405 155.41C402.647 155.464 402.905 155.43 403.153 155.358C403.437 155.275 403.666 155.126 403.851 154.947L424.655 177.638C424.308 178.237 424.131 178.91 424.293 179.567ZM211.796 209.078C211.729 208.808 211.627 208.547 211.464 208.346C211.281 208.068 211.037 207.849 210.741 207.728C210.696 207.7 210.66 207.711 210.615 207.682L218.241 176.702C218.518 176.746 218.785 176.751 219.034 176.678C219.992 176.399 220.573 175.359 220.432 174.323L248.862 166.034C248.964 166.294 249.102 166.544 249.265 166.745C249.737 167.271 250.445 167.52 251.155 167.313C251.439 167.23 251.668 167.081 251.853 166.902L272.692 189.583C272.317 190.065 272.15 190.777 272.311 191.434C272.378 191.705 272.48 191.965 272.644 192.166C272.698 192.233 272.708 192.272 272.762 192.339C272.971 192.568 273.206 192.748 273.457 192.841L265.831 223.821C265.554 223.777 265.286 223.772 265.038 223.845C264.08 224.124 263.499 225.164 263.64 226.2L235.21 234.489C235.127 234.306 235.044 234.123 234.925 233.95C234.46 233.299 233.698 232.982 232.917 233.21C232.633 233.293 232.403 233.442 232.219 233.621L211.379 210.94C211.791 210.447 211.958 209.736 211.796 209.078ZM376.364 256.358C375.654 256.565 375.156 257.166 374.989 257.878C374.939 258.141 374.935 258.432 374.966 258.713L346.536 267.002C346.182 266.028 345.202 265.444 344.243 265.723C343.959 265.806 343.73 265.956 343.51 266.144L322.67 243.464C323.046 242.981 323.213 242.269 323.051 241.612C322.89 240.955 322.418 240.429 321.871 240.216L327.385 217.808L329.496 209.236C329.773 209.28 330.041 209.285 330.289 209.212C331.248 208.933 331.829 207.893 331.688 206.857L360.117 198.568C360.22 198.828 360.357 199.078 360.521 199.279C360.993 199.805 361.701 200.054 362.41 199.847C362.694 199.764 362.924 199.614 363.108 199.436L383.974 222.068C383.598 222.55 383.431 223.262 383.593 223.919C383.755 224.576 384.226 225.102 384.774 225.315L377.148 256.295C376.906 256.241 376.648 256.275 376.364 256.358ZM290.47 250.034C289.998 249.509 289.29 249.26 288.58 249.466C288.296 249.549 288.067 249.699 287.882 249.877L267.043 227.197C267.418 226.714 267.586 226.002 267.424 225.345C267.357 225.075 267.219 224.825 267.091 224.613C266.864 224.307 266.584 224.098 266.278 223.939L273.904 192.959C274.181 193.002 274.449 193.007 274.697 192.935C275.655 192.656 276.236 191.616 276.095 190.58L304.525 182.291C304.627 182.551 304.765 182.801 304.929 183.002C305.4 183.527 306.108 183.777 306.818 183.57C307.102 183.487 307.332 183.337 307.516 183.159L328.356 205.84C327.98 206.322 327.813 207.034 327.975 207.691C328.136 208.348 328.608 208.874 329.155 209.087L321.53 240.067C321.253 240.023 320.985 240.018 320.737 240.091C319.778 240.37 319.197 241.41 319.338 242.446L290.909 250.735C290.806 250.475 290.669 250.225 290.47 250.034ZM346.761 139.231C347.002 139.285 347.26 139.251 347.509 139.179C347.793 139.096 348.022 138.946 348.207 138.768L369.011 161.459C368.635 161.942 368.468 162.653 368.63 163.31C368.801 164.006 369.263 164.493 369.82 164.745L362.194 195.725C361.917 195.681 361.65 195.677 361.401 195.749C360.443 196.028 359.862 197.068 360.003 198.104L331.573 206.393C331.219 205.419 330.239 204.835 329.28 205.114C328.996 205.197 328.767 205.347 328.582 205.525L307.743 182.844C308.119 182.362 308.286 181.65 308.124 180.993C307.972 180.374 307.58 179.867 307.069 179.643C307.024 179.615 306.988 179.625 306.943 179.597L314.569 148.617C314.846 148.661 315.113 148.665 315.362 148.593C316.32 148.314 316.901 147.274 316.76 146.238L345.19 137.949C345.477 138.652 346.055 139.147 346.761 139.231ZM291.668 122.974C291.739 122.953 291.81 122.933 291.846 122.922C292.13 122.839 292.359 122.69 292.543 122.512L313.383 145.192C313.104 145.605 312.925 146.113 312.942 146.647C312.935 146.773 312.974 146.928 313.012 147.082C313.173 147.739 313.645 148.265 314.192 148.478L306.567 179.458C306.29 179.415 306.022 179.41 305.774 179.482C304.815 179.761 304.234 180.801 304.375 181.837L275.946 190.126C275.862 189.943 275.779 189.76 275.661 189.588C275.196 188.936 274.433 188.62 273.653 188.847C273.369 188.93 273.139 189.08 272.955 189.258L252.115 166.577C252.491 166.095 252.658 165.383 252.496 164.726C252.429 164.455 252.292 164.205 252.164 163.994C251.936 163.688 251.657 163.479 251.351 163.32L258.977 132.34C259.218 132.394 259.521 132.388 259.77 132.316C260.728 132.036 261.309 130.997 261.168 129.961L289.598 121.672C289.897 122.579 290.762 123.155 291.668 122.974ZM248.824 293.792C248.538 293.71 248.199 293.726 247.88 293.819C247.596 293.902 247.366 294.051 247.182 294.229L226.342 271.549C226.621 271.136 226.8 270.628 226.783 270.094C226.79 269.968 226.752 269.813 226.714 269.659C226.676 269.504 226.647 269.388 226.574 269.244C226.343 268.772 225.99 268.42 225.524 268.224L233.149 237.244C233.426 237.288 233.694 237.293 233.942 237.22C234.901 236.941 235.482 235.901 235.341 234.865L263.77 226.576C263.854 226.759 263.937 226.942 264.055 227.115C264.11 227.182 264.119 227.22 264.174 227.287C264.646 227.813 265.354 228.062 266.064 227.855C266.347 227.772 266.577 227.622 266.761 227.444L287.601 250.125C287.225 250.607 287.058 251.319 287.22 251.976C287.382 252.633 287.854 253.159 288.401 253.372L280.775 284.352C280.498 284.309 280.23 284.304 279.982 284.376C279.024 284.656 278.443 285.695 278.584 286.731L250.154 295.02C249.931 294.422 249.433 293.946 248.824 293.792ZM282.342 285.926C282.189 285.307 281.798 284.8 281.286 284.576C281.241 284.548 281.206 284.558 281.161 284.53L288.787 253.55C289.064 253.593 289.331 253.598 289.58 253.526C290.538 253.246 291.119 252.207 290.978 251.171L319.408 242.882C319.762 243.856 320.742 244.44 321.701 244.161C321.985 244.078 322.214 243.928 322.399 243.75L343.238 266.43C343.073 266.686 342.907 266.941 342.868 267.243C342.792 267.555 342.807 267.924 342.893 268.272C343.026 268.813 343.363 269.253 343.777 269.547C343.867 269.603 343.957 269.66 344.038 269.678L339.598 287.795L336.448 300.647C336.171 300.604 335.903 300.599 335.655 300.671C334.945 300.878 334.446 301.48 334.279 302.191C334.23 302.454 334.225 302.746 334.256 303.027L305.827 311.316C305.473 310.341 304.492 309.757 303.534 310.037C303.25 310.119 303.02 310.269 302.8 310.458L281.961 287.777C282.372 287.284 282.504 286.583 282.342 285.926ZM360.617 326.501C360.212 326.246 359.658 326.159 359.161 326.304C358.877 326.386 358.648 326.536 358.464 326.714L337.624 304.034C337.763 303.827 337.867 303.631 337.962 303.397C338.098 303.025 338.11 302.608 338.005 302.182C337.881 301.68 337.634 301.296 337.265 301.031C337.13 300.946 336.995 300.861 336.824 300.786L338.835 292.576L344.414 269.817C344.691 269.86 344.959 269.865 345.207 269.793C345.917 269.586 346.416 268.985 346.583 268.273C346.632 268.01 346.637 267.719 346.606 267.438L375.035 259.149C375.185 259.602 375.503 259.965 375.872 260.23C376.278 260.485 376.832 260.572 377.328 260.427C377.612 260.345 377.842 260.195 378.026 260.017L398.892 282.648C398.665 282.963 398.519 283.296 398.498 283.675C398.449 283.938 398.48 284.219 398.546 284.489C398.708 285.147 399.18 285.672 399.727 285.885L392.137 316.855C391.86 316.811 391.592 316.807 391.344 316.879C390.527 317.117 389.96 317.904 389.921 318.827C389.914 318.953 389.917 319.118 389.946 319.234L361.516 327.523C361.305 327.129 360.987 326.766 360.617 326.501ZM432.018 272.576C431.237 272.803 430.722 273.492 430.619 274.31C430.596 274.524 430.608 274.727 430.62 274.931L402.19 283.22C401.836 282.246 400.855 281.662 399.897 281.941C399.613 282.024 399.384 282.174 399.164 282.362L378.36 259.671C378.586 259.356 378.733 259.024 378.753 258.645C378.803 258.382 378.772 258.101 378.705 257.83C378.543 257.173 378.071 256.647 377.524 256.434L385.15 225.454C385.427 225.498 385.695 225.503 385.943 225.43C386.901 225.151 387.482 224.111 387.341 223.075L415.771 214.786C416.125 215.76 417.106 216.344 418.064 216.065C418.348 215.982 418.578 215.832 418.762 215.654L439.602 238.335C439.375 238.65 439.228 238.982 439.208 239.361C439.158 239.624 439.189 239.905 439.256 240.176C439.418 240.833 439.89 241.358 440.437 241.572L432.846 272.541C432.569 272.498 432.266 272.503 432.018 272.576ZM353.747 102.72C353.814 102.99 353.916 103.25 354.08 103.451C354.307 103.758 354.587 103.966 354.928 104.116L347.302 135.095L347.267 135.106C347.025 135.052 346.767 135.086 346.519 135.158C345.56 135.438 344.98 136.477 345.121 137.513L316.691 145.802C316.467 145.204 316.05 144.746 315.513 144.571C315.172 144.422 314.788 144.41 314.398 144.523C314.114 144.606 313.884 144.756 313.7 144.934L292.86 122.254C293.236 121.771 293.403 121.059 293.241 120.402C293.118 119.9 292.871 119.516 292.501 119.25C292.366 119.166 292.231 119.081 292.061 119.006L299.686 88.0262C299.883 88.0518 300.079 88.0774 300.292 88.0153C300.363 87.9946 300.434 87.9739 300.47 87.9635C301.428 87.6841 302.009 86.6446 301.868 85.6084L330.298 77.3194C330.448 77.7729 330.765 78.1361 331.135 78.4013C331.495 78.6278 331.942 78.7459 332.413 78.65C332.484 78.6293 332.555 78.6086 332.591 78.5983C332.875 78.5155 333.104 78.3658 333.289 78.1877L354.093 100.878C353.753 101.351 353.585 102.062 353.747 102.72ZM233.934 105.415C234.084 105.869 234.402 106.232 234.771 106.497C235.177 106.752 235.731 106.839 236.228 106.694C236.511 106.611 236.741 106.461 236.925 106.283L257.765 128.964C257.739 129.013 257.703 129.023 257.677 129.072C257.347 129.583 257.232 130.197 257.384 130.815C257.546 131.472 258.017 131.998 258.565 132.211L250.974 163.181C250.697 163.137 250.43 163.132 250.181 163.205C249.223 163.484 248.642 164.524 248.783 165.56L220.353 173.849C219.999 172.875 219.019 172.291 218.06 172.57C217.989 172.591 217.918 172.611 217.883 172.622C217.679 172.723 217.511 172.813 217.353 172.942L196.513 150.261C196.889 149.779 197.056 149.067 196.894 148.41C196.771 147.908 196.524 147.524 196.154 147.258C196.019 147.174 195.884 147.089 195.714 147.014L203.339 116.034C203.616 116.078 203.884 116.083 204.132 116.01C204.523 115.896 204.849 115.677 205.076 115.362C205.461 114.918 205.612 114.294 205.531 113.655L233.925 105.376L233.934 105.415ZM297.285 347.535C297.36 347.223 297.345 346.854 297.26 346.506C297.098 345.849 296.626 345.324 296.079 345.11L303.705 314.13C303.982 314.174 304.249 314.179 304.498 314.106C305.279 313.879 305.794 313.19 305.897 312.372C305.92 312.158 305.908 311.955 305.896 311.751L334.326 303.462C334.68 304.436 335.66 305.021 336.619 304.741C336.903 304.658 337.132 304.509 337.352 304.32L358.192 327.001C357.816 327.483 357.649 328.195 357.811 328.852C357.972 329.509 358.444 330.035 358.991 330.248L351.366 361.228C351.089 361.184 350.821 361.18 350.573 361.252C349.614 361.531 349.033 362.571 349.174 363.607L320.745 371.896C320.642 371.636 320.505 371.386 320.341 371.185C319.87 370.66 319.161 370.41 318.452 370.617C318.168 370.7 317.938 370.85 317.754 371.028L296.914 348.347C297.089 348.131 297.209 347.847 297.285 347.535ZM446.946 333.195C446.129 333.433 445.572 334.258 445.523 335.143C445.516 335.269 445.519 335.434 445.547 335.55L417.118 343.839C416.764 342.865 415.783 342.281 414.824 342.56C414.54 342.643 414.311 342.793 414.127 342.971L393.287 320.29C393.54 319.927 393.703 319.506 393.704 319.05C393.728 318.836 393.68 318.643 393.623 318.411C393.461 317.753 392.989 317.228 392.442 317.014L400.033 286.045C400.31 286.089 400.577 286.093 400.826 286.021C401.535 285.814 402.034 285.213 402.201 284.501C402.244 284.364 402.251 284.238 402.248 284.073C402.255 283.947 402.252 283.782 402.224 283.666L430.654 275.377C431.008 276.351 431.988 276.935 432.947 276.656C433.231 276.573 433.46 276.423 433.68 276.235L454.484 298.926C454.108 299.408 453.941 300.12 454.103 300.777C454.265 301.434 454.737 301.96 455.284 302.173L447.658 333.153C447.452 333.089 447.194 333.123 446.946 333.195ZM457.8 167.643C457.41 167.757 457.083 167.976 456.857 168.291C456.471 168.735 456.321 169.359 456.402 169.998L427.972 178.287C427.618 177.313 426.637 176.729 425.679 177.008C425.395 177.091 425.166 177.241 424.946 177.429L404.142 154.738C404.517 154.256 404.685 153.544 404.523 152.887C404.351 152.191 403.889 151.704 403.342 151.491L410.923 120.483C411.2 120.526 411.467 120.531 411.716 120.459C412.674 120.179 413.255 119.14 413.114 118.104L441.544 109.815C441.898 110.789 442.878 111.373 443.837 111.093C444.121 111.011 444.35 110.861 444.535 110.683L465.374 133.363C464.998 133.846 464.831 134.558 464.993 135.215C465.126 135.756 465.463 136.196 465.878 136.49C465.968 136.547 466.058 136.603 466.138 136.621L458.539 167.552C458.352 167.565 458.084 167.56 457.8 167.643ZM450.111 74.6239C450.273 75.2811 450.744 75.8065 451.291 76.0199L443.666 107C443.389 106.956 443.121 106.951 442.873 107.024C441.914 107.303 441.333 108.343 441.475 109.379L413.045 117.668C412.691 116.694 411.71 116.11 410.752 116.389C410.681 116.41 410.61 116.43 410.574 116.441C410.371 116.542 410.203 116.632 410.044 116.761L389.205 94.0805C389.58 93.598 389.747 92.8863 389.586 92.2291C389.538 92.0358 389.445 91.8142 389.362 91.6312C389.343 91.5539 389.298 91.5256 389.253 91.4973C389.135 91.3247 388.99 91.2011 388.846 91.0775C388.711 90.9925 388.575 90.9076 388.405 90.833L396.031 59.8532C396.308 59.8967 396.575 59.9016 396.824 59.8292C397.782 59.5497 398.363 58.5102 398.222 57.474L426.652 49.185C426.754 49.4453 426.891 49.6952 427.055 49.8961C427.527 50.4216 428.235 50.6709 428.945 50.4639C429.229 50.3811 429.458 50.2314 429.643 50.0533L450.482 72.7338C450.116 73.255 449.949 73.9667 450.111 74.6239ZM276.928 62.3417C277.212 62.2589 277.441 62.1092 277.625 61.9311L298.465 84.6116C298.089 85.0941 297.922 85.8057 298.084 86.463C298.17 86.8109 298.317 87.0995 298.535 87.3674C298.744 87.5966 298.978 87.7768 299.229 87.8694L291.604 118.849C291.407 118.824 291.211 118.798 290.998 118.86C290.927 118.881 290.856 118.902 290.82 118.912C289.862 119.191 289.281 120.231 289.422 121.267L260.992 129.556C260.909 129.373 260.826 129.19 260.707 129.018C260.242 128.366 259.48 128.049 258.699 128.277C258.415 128.36 258.186 128.51 258.001 128.688L237.162 106.007C237.188 105.958 237.223 105.948 237.249 105.899C237.58 105.388 237.695 104.774 237.543 104.156C237.381 103.499 236.909 102.973 236.362 102.76L243.952 71.7903C244.229 71.8338 244.497 71.8387 244.745 71.7663C245.703 71.4869 246.284 70.4474 246.143 69.4112L274.573 61.1222C274.989 62.0369 275.969 62.6211 276.928 62.3417ZM180.564 90.4374C180.848 90.3546 181.078 90.2048 181.262 90.0268L202.102 112.707C202.076 112.756 202.04 112.767 202.014 112.816C201.684 113.326 201.568 113.94 201.721 114.559C201.883 115.216 202.354 115.741 202.901 115.955L195.276 146.935C194.999 146.891 194.731 146.886 194.483 146.959C193.524 147.238 192.944 148.277 193.085 149.314L164.655 157.603C164.346 156.657 163.455 156.129 162.539 156.272C162.468 156.293 162.397 156.313 162.362 156.324C162.291 156.344 162.22 156.365 162.184 156.376C161.981 156.476 161.813 156.567 161.654 156.696L140.815 134.015C141.19 133.533 141.358 132.821 141.196 132.164C141.043 131.545 140.652 131.038 140.141 130.814C140.096 130.786 140.06 130.796 140.015 130.768L147.641 99.7879C147.918 99.8315 148.185 99.8364 148.434 99.764C149.392 99.4845 149.973 98.445 149.832 97.4088L178.262 89.1198C178.625 90.1326 179.606 90.7168 180.564 90.4374ZM121.671 200.715C121.6 200.735 121.529 200.756 121.493 200.766C121.29 200.867 121.122 200.958 120.964 201.087L100.124 178.406C100.5 177.924 100.667 177.212 100.505 176.555C100.381 176.052 100.135 175.668 99.7649 175.403C99.6299 175.318 99.4949 175.233 99.3243 175.159L106.95 144.179C107.227 144.222 107.495 144.227 107.743 144.155C108.701 143.875 109.282 142.836 109.141 141.8L137.571 133.511C137.673 133.771 137.811 134.021 137.974 134.222C138.446 134.747 139.154 134.997 139.864 134.79C140.148 134.707 140.378 134.557 140.562 134.379L161.402 157.059C161.026 157.542 160.859 158.254 161.021 158.911C161.182 159.568 161.654 160.094 162.201 160.307L161.825 161.867L154.611 191.276C154.334 191.233 154.066 191.228 153.818 191.3C152.86 191.58 152.279 192.619 152.42 193.656L123.99 201.945C123.601 200.981 122.629 200.435 121.671 200.715ZM264.263 354.635C263.858 354.38 263.304 354.293 262.807 354.438C262.523 354.521 262.294 354.67 262.11 354.849L241.27 332.168C241.646 331.686 241.813 330.974 241.651 330.317C241.527 329.814 241.281 329.43 240.911 329.165C240.776 329.08 240.641 328.995 240.47 328.921L248.096 297.941C248.373 297.984 248.641 297.989 248.889 297.917C249.847 297.637 250.428 296.598 250.287 295.562L278.717 287.273C278.867 287.726 279.184 288.089 279.554 288.354C279.959 288.609 280.513 288.696 281.01 288.552C281.294 288.469 281.523 288.319 281.708 288.141L302.547 310.821C302.382 311.077 302.226 311.371 302.177 311.634C302.102 311.946 302.116 312.314 302.202 312.662C302.335 313.204 302.672 313.644 303.087 313.938C303.177 313.994 303.267 314.051 303.347 314.069L295.721 345.049C295.444 345.005 295.177 345 294.929 345.073C294.219 345.28 293.72 345.881 293.553 346.593C293.504 346.856 293.499 347.147 293.53 347.428L265.1 355.717C264.941 355.225 264.624 354.861 264.263 354.635ZM334.809 431.482C334.404 431.228 333.85 431.14 333.353 431.285C333.069 431.368 332.84 431.518 332.655 431.696L311.816 409.015C311.981 408.76 312.146 408.505 312.186 408.203C312.262 407.891 312.247 407.522 312.161 407.174C312.037 406.672 311.791 406.288 311.421 406.023C311.286 405.938 311.151 405.853 310.981 405.778L318.606 374.799C318.883 374.842 319.151 374.847 319.399 374.774C320.109 374.568 320.608 373.966 320.775 373.255C320.824 372.992 320.829 372.7 320.797 372.419L349.227 364.13C349.329 364.391 349.467 364.641 349.631 364.841C350.102 365.367 350.81 365.616 351.52 365.409C351.804 365.326 352.034 365.177 352.218 364.999L373.058 387.679C372.682 388.162 372.515 388.873 372.677 389.531C372.839 390.188 373.31 390.713 373.857 390.927L366.232 421.906C365.955 421.863 365.687 421.858 365.439 421.93C364.48 422.21 363.9 423.249 364.041 424.286L335.611 432.575C335.487 432.072 335.205 431.699 334.809 431.482ZM456.981 298.405C456.576 298.15 456.022 298.063 455.525 298.208C455.241 298.291 455.011 298.44 454.827 298.619L434.023 275.928C434.25 275.613 434.396 275.28 434.417 274.901C434.466 274.638 434.435 274.357 434.359 274.048C434.235 273.545 433.988 273.162 433.619 272.896C433.484 272.811 433.349 272.727 433.178 272.652L440.768 241.682C441.045 241.726 441.313 241.731 441.561 241.658C442.342 241.431 442.857 240.742 442.96 239.925C442.984 239.711 442.972 239.507 442.959 239.303L471.389 231.014C471.491 231.275 471.629 231.524 471.793 231.725C472.264 232.251 472.972 232.5 473.682 232.293C473.966 232.21 474.196 232.061 474.38 231.883L495.22 254.563C494.844 255.046 494.677 255.757 494.839 256.414C495.001 257.072 495.472 257.597 496.019 257.811L488.394 288.79C488.117 288.747 487.849 288.742 487.601 288.814C486.642 289.094 486.062 290.133 486.203 291.17L457.808 299.448C457.668 299.033 457.35 298.67 456.981 298.405ZM482.683 66.1631C483.155 66.6885 483.863 66.9378 484.572 66.7309C484.856 66.6481 485.086 66.4983 485.27 66.3203L506.11 89.0008C505.734 89.4832 505.567 90.1949 505.729 90.8522C505.891 91.5094 506.362 92.0348 506.91 92.2482L499.31 123.179C499.068 123.125 498.765 123.131 498.517 123.203C498.197 123.296 497.897 123.467 497.696 123.732C497.24 124.197 497.028 124.88 497.119 125.558L468.689 133.847C468.335 132.873 467.354 132.289 466.396 132.568C466.112 132.651 465.882 132.801 465.662 132.989L444.823 110.309C445.199 109.826 445.366 109.115 445.204 108.457C445.042 107.8 444.57 107.275 444.023 107.061L449.914 83.0928L451.649 76.0814C451.926 76.125 452.193 76.1299 452.442 76.0574C453.4 75.778 453.981 74.7385 453.84 73.7023L482.27 65.4133C482.382 65.7122 482.519 65.9622 482.683 66.1631ZM371.164 33.333C371.613 34.0724 372.439 34.4944 373.291 34.246C373.575 34.1632 373.804 34.0135 373.989 33.8354L394.828 56.5159C394.453 56.9984 394.286 57.7101 394.447 58.3673C394.514 58.6379 394.616 58.8982 394.78 59.0991C395.007 59.4056 395.287 59.6142 395.628 59.7633L388.002 90.7432C387.725 90.6997 387.458 90.6948 387.209 90.7672C386.251 91.0466 385.67 92.0862 385.811 93.1224L357.381 101.411C357.13 100.698 356.506 100.175 355.836 100.08C355.595 100.026 355.337 100.06 355.088 100.132C354.804 100.215 354.575 100.365 354.391 100.543L333.551 77.8625C333.927 77.3801 334.094 76.6684 333.932 76.0112C333.761 75.3153 333.298 74.8285 332.751 74.6151L340.377 43.6353C340.654 43.6788 340.921 43.6837 341.17 43.6113C342.128 43.3319 342.709 42.2923 342.568 41.2561L370.998 32.9671C371.062 33.0727 371.1 33.2274 371.164 33.333ZM315.774 17.4113C316.245 17.9367 316.953 18.1861 317.663 17.9791C317.947 17.8963 318.177 17.7466 318.361 17.5685L339.201 40.249C338.825 40.7315 338.658 41.4431 338.82 42.1004C338.982 42.7576 339.453 43.283 340 43.4965L332.375 74.4763C332.178 74.4507 331.982 74.4252 331.769 74.4872C331.698 74.5079 331.627 74.5286 331.591 74.539C330.633 74.8184 330.052 75.8579 330.193 76.8941L301.763 85.1831C301.454 84.2373 300.564 83.7097 299.648 83.8525C299.577 83.8732 299.506 83.8939 299.47 83.9042C299.186 83.987 298.957 84.1368 298.772 84.3148L277.933 61.6343C278.308 61.1518 278.476 60.4401 278.314 59.7829C278.152 59.1256 277.68 58.6002 277.133 58.3869L282.637 35.9397L284.723 27.4173C285 27.4609 285.268 27.4657 285.516 27.3933C286.475 27.1139 287.056 26.0744 286.914 25.0382L315.344 16.7492C315.437 16.9708 315.61 17.2104 315.774 17.4113ZM219.41 45.507C219.882 46.0324 220.59 46.2817 221.3 46.0748C221.584 45.992 221.813 45.8422 221.998 45.6642L242.837 68.3447C242.462 68.8271 242.295 69.5388 242.456 70.196C242.618 70.8533 243.09 71.3787 243.637 71.5921L236.047 102.562C235.77 102.518 235.502 102.513 235.254 102.586C234.792 102.72 234.44 102.989 234.197 103.391C233.928 103.842 233.793 104.379 233.856 104.941L205.426 113.23C205.117 112.284 204.226 111.756 203.31 111.899C203.239 111.92 203.168 111.94 203.133 111.951C203.062 111.972 202.991 111.992 202.955 112.003C202.752 112.103 202.584 112.194 202.426 112.323L181.586 89.6423C181.612 89.5933 181.647 89.5829 181.673 89.5339C182.004 89.0232 182.119 88.4095 181.967 87.7909C181.805 87.1337 181.333 86.6083 180.786 86.3949L188.412 55.415C188.689 55.4585 188.956 55.4634 189.205 55.391C189.666 55.2565 190.019 54.988 190.262 54.5856C190.541 54.1728 190.665 53.5978 190.603 53.0358L219.033 44.7468C219.074 45.0665 219.247 45.3061 219.41 45.507ZM390.472 447.739C390.067 447.484 389.513 447.397 389.016 447.542C388.732 447.625 388.503 447.774 388.319 447.953L367.479 425.272C367.855 424.79 368.022 424.078 367.86 423.421C367.698 422.763 367.226 422.238 366.679 422.025L372.184 399.578L374.269 391.055C374.546 391.099 374.814 391.104 375.062 391.031C376.021 390.752 376.602 389.712 376.461 388.676L404.89 380.387C404.993 380.647 405.13 380.897 405.294 381.098C405.766 381.623 406.474 381.873 407.184 381.666C407.467 381.583 407.697 381.433 407.881 381.255L428.737 403.848C428.362 404.331 428.195 405.042 428.356 405.699C428.518 406.357 428.99 406.882 429.537 407.096L421.911 438.075C421.634 438.032 421.367 438.027 421.118 438.099C420.16 438.379 419.579 439.418 419.72 440.455L391.29 448.744C391.15 448.329 390.832 447.965 390.472 447.739ZM512.644 314.662C512.239 314.407 511.72 314.309 511.188 314.464C510.904 314.547 510.674 314.697 510.49 314.875L489.65 292.195C490.026 291.712 490.193 291 490.031 290.343C489.87 289.686 489.398 289.161 488.851 288.947L494.741 264.979L496.476 257.967C496.753 258.011 497.021 258.016 497.269 257.943C498.228 257.664 498.809 256.624 498.668 255.588L527.097 247.299C527.2 247.559 527.337 247.809 527.501 248.01C527.973 248.536 528.681 248.785 529.391 248.578C529.675 248.495 529.904 248.346 530.088 248.167L550.928 270.848C550.552 271.33 550.385 272.042 550.547 272.699C550.709 273.357 551.181 273.882 551.728 274.095L544.102 305.075C543.825 305.032 543.557 305.027 543.309 305.099C542.351 305.379 541.77 306.418 541.911 307.454L513.481 315.743C513.286 315.262 513.004 314.888 512.644 314.662ZM412.137 -10.6844C412.609 -10.1589 413.317 -9.90961 414.027 -10.1166C414.311 -10.1994 414.54 -10.3491 414.725 -10.5272L435.564 12.1533C435.188 12.6358 435.021 13.3475 435.183 14.0047C435.345 14.6619 435.817 15.1874 436.364 15.4008L428.738 46.3806C428.461 46.3371 428.194 46.3322 427.945 46.4046C426.987 46.684 426.406 47.7236 426.547 48.7598L398.117 57.0488C398.034 56.8658 397.951 56.6829 397.832 56.5103C397.778 56.4433 397.768 56.4046 397.714 56.3377C397.242 55.8122 396.534 55.5629 395.824 55.7698C395.54 55.8526 395.311 56.0024 395.126 56.1804L374.287 33.5C374.662 33.0175 374.829 32.3058 374.668 31.6486C374.601 31.378 374.499 31.1177 374.335 30.9168C374.108 30.6102 373.828 30.4017 373.487 30.2525L381.113 -0.727331C381.39 -0.683786 381.657 -0.678912 381.906 -0.751348C382.864 -1.03075 383.445 -2.07026 383.304 -3.10646L411.734 -11.3955C411.8 -11.1249 411.973 -10.8853 412.137 -10.6844ZM207.352 -15.2028C207.727 -15.6852 207.894 -16.397 207.733 -17.0542C207.571 -17.7114 207.099 -18.2368 206.552 -18.4502L214.178 -49.4301C214.455 -49.3866 214.722 -49.3817 214.971 -49.4541C215.29 -49.5472 215.59 -49.7177 215.801 -49.9448C216.257 -50.4093 216.469 -51.0927 216.369 -51.8092L244.799 -60.0982C244.91 -59.7993 245.048 -59.5494 245.247 -59.3588C245.709 -58.8721 246.417 -58.6227 247.092 -58.8193C247.376 -58.9021 247.605 -59.0519 247.789 -59.23L268.629 -36.5494C268.253 -36.067 268.086 -35.3553 268.248 -34.6981C268.41 -34.0409 268.882 -33.5154 269.429 -33.302L261.803 -2.32216C261.526 -2.3657 261.259 -2.37061 261.01 -2.29817C260.052 -2.01876 259.471 -0.97923 259.612 0.0570003L231.182 8.346C231.08 8.08575 230.942 7.83578 230.779 7.63486C230.307 7.10945 229.599 6.86009 228.889 7.06706C228.605 7.14985 228.376 7.29962 228.191 7.47769L207.352 -15.2028ZM229.096 11.1504C229.373 11.1939 229.64 11.1988 229.889 11.1264C230.847 10.847 231.428 9.80745 231.287 8.77128L259.717 0.482284C259.819 0.742542 259.956 0.992447 260.12 1.19336C260.592 1.71877 261.3 1.96814 262.01 1.76117C262.294 1.67839 262.523 1.52861 262.707 1.35054L283.547 24.0311C283.171 24.5135 283.004 25.2252 283.166 25.8825C283.328 26.5397 283.8 27.0651 284.347 27.2785L276.721 58.2584C276.444 58.2148 276.177 58.21 275.928 58.2824C274.97 58.5618 274.389 59.6013 274.53 60.6375L246.1 68.9265C245.746 67.9524 244.765 67.3682 243.807 67.6476C243.736 67.6683 243.665 67.689 243.63 67.6994C243.426 67.8001 243.258 67.8905 243.1 68.0196L222.26 45.3391C222.636 44.8566 222.803 44.1449 222.641 43.4876C222.517 42.9851 222.271 42.6012 221.901 42.3361C221.766 42.2511 221.631 42.1662 221.46 42.0916L229.096 11.1504ZM187.174 52.0881C187.148 52.1371 187.113 52.1474 187.087 52.1964C186.756 52.7072 186.641 53.3209 186.793 53.9394C186.955 54.5967 187.427 55.1221 187.974 55.3355L180.348 86.3154C180.071 86.2719 179.804 86.267 179.555 86.3394C179.094 86.4739 178.751 86.7811 178.498 87.1448C178.229 87.5962 178.095 88.1326 178.157 88.6945L149.727 96.9835C149.606 96.6459 149.414 96.329 149.17 96.1101C148.727 95.7007 148.073 95.5184 147.434 95.7046C147.15 95.7874 146.921 95.9372 146.736 96.1152L125.897 73.4347C126.272 72.9523 126.44 72.2405 126.278 71.5833C126.154 71.0807 125.907 70.6969 125.538 70.4317C125.403 70.3468 125.268 70.2618 125.097 70.1873L132.723 39.2074C133 39.251 133.267 39.2559 133.516 39.1834C134.474 38.904 135.055 37.8645 134.914 36.8283L163.344 28.5392C163.698 29.5134 164.678 30.0976 165.637 29.8182C165.921 29.7354 166.15 29.5856 166.335 29.4076L187.174 52.0881ZM70.2785 57.2064C70.6542 56.724 70.8213 56.0123 70.6595 55.3551C70.4976 54.6978 70.0259 54.1724 69.4788 53.959L77.1045 22.9791C77.3815 23.0227 77.649 23.0276 77.8975 22.9551C78.8558 22.6757 79.4367 21.6362 79.2957 20.6L107.726 12.311C108.08 13.2851 109.06 13.8693 110.019 13.5899C110.303 13.5071 110.532 13.3574 110.716 13.1793L131.556 35.8598C131.18 36.3422 131.013 37.054 131.175 37.7112C131.337 38.3684 131.809 38.8938 132.356 39.1072L124.73 70.0871C124.453 70.0436 124.185 70.0387 123.937 70.1111C122.979 70.3905 122.398 71.43 122.539 72.4662L94.1089 80.7552C93.755 79.7811 92.7742 79.1969 91.8159 79.4763C91.5319 79.5591 91.3025 79.7089 91.1181 79.887L70.2785 57.2064ZM91.987 83.57C92.264 83.6136 92.5315 83.6184 92.78 83.546C93.0994 83.4529 93.3643 83.2928 93.6102 83.0553C94.0664 82.5908 94.2786 81.9075 94.1782 81.1909L122.608 72.9019C122.72 73.2008 122.857 73.4507 123.056 73.6413C123.519 74.1281 124.227 74.3774 124.901 74.1808C125.185 74.098 125.414 73.9482 125.599 73.7702L146.439 96.4507C146.063 96.9331 145.896 97.6448 146.057 98.302C146.219 98.9593 146.691 99.4847 147.238 99.6981L139.612 130.678C139.335 130.634 139.068 130.63 138.819 130.702C137.861 130.981 137.28 132.021 137.421 133.057L108.991 141.346C108.889 141.086 108.752 140.836 108.588 140.635C108.28 140.311 107.875 140.056 107.446 140.015C107.205 139.961 106.947 139.995 106.698 140.067C106.414 140.15 106.185 140.3 106.001 140.478L85.161 117.797C85.5368 117.315 85.7038 116.603 85.542 115.946C85.3801 115.289 84.9084 114.763 84.3613 114.55L91.987 83.57ZM53.478 125.543L81.9079 117.254C82.1597 117.968 82.7475 118.501 83.453 118.585C83.6945 118.639 83.9525 118.605 84.201 118.533C84.4849 118.45 84.7143 118.301 84.8987 118.122L105.738 140.803C105.363 141.285 105.195 141.997 105.357 142.654C105.519 143.312 105.991 143.837 106.538 144.05L98.9123 175.03L98.8768 175.041C98.6353 174.987 98.3773 175.02 98.1289 175.093C97.1706 175.372 96.5896 176.412 96.7307 177.448L68.3008 185.737C68.0489 185.023 67.4612 184.49 66.7557 184.406C66.5142 184.352 66.2562 184.386 66.0078 184.458C65.7238 184.541 65.4944 184.691 65.31 184.869L44.4704 162.188C44.8461 161.706 45.0132 160.994 44.8514 160.337C44.6895 159.68 44.2178 159.154 43.6707 158.941L51.2964 127.961C51.5734 128.004 51.8409 128.009 52.0894 127.937C53.0381 127.619 53.619 126.579 53.478 125.543ZM3.76067 206.502C4.13637 206.019 4.30352 205.308 4.14168 204.65C3.97984 203.993 3.50804 203.468 2.96098 203.254L10.5867 172.275C10.8637 172.318 11.1312 172.323 11.3797 172.251C12.338 171.971 12.9189 170.932 12.7778 169.895L41.2077 161.606C41.4596 162.32 42.0473 162.853 42.7529 162.938C42.9944 162.992 43.2523 162.958 43.5008 162.885C43.7847 162.803 44.0141 162.653 44.1986 162.475L65.0382 185.155C64.6624 185.638 64.4953 186.349 64.6572 187.007C64.819 187.664 65.2907 188.189 65.8378 188.403L58.2122 219.382C57.9351 219.339 57.6677 219.334 57.4192 219.406C56.4609 219.686 55.8799 220.725 56.021 221.762L27.5911 230.051C27.2371 229.077 26.2563 228.492 25.2981 228.772C25.0141 228.854 24.7847 229.004 24.6003 229.182L3.76067 206.502ZM59.3884 222.769C59.7641 222.286 59.9312 221.575 59.7694 220.917C59.6075 220.26 59.1358 219.735 58.5887 219.521L66.2144 188.541L66.2499 188.531C66.4914 188.585 66.7494 188.551 66.9978 188.479C67.9561 188.199 68.537 187.16 68.396 186.124L96.8259 177.835C97.0682 178.51 97.5659 178.986 98.1745 179.14C98.461 179.223 98.7995 179.207 99.119 179.114C99.4029 179.031 99.6323 178.881 99.8167 178.703L120.656 201.383C120.281 201.866 120.113 202.578 120.275 203.235C120.437 203.892 120.909 204.417 121.456 204.631L113.83 235.611C113.553 235.567 113.286 235.562 113.037 235.635C112.079 235.914 111.498 236.954 111.639 237.99L83.2093 246.279C82.8553 245.305 81.8745 244.721 80.9162 245C80.6323 245.083 80.4029 245.233 80.2185 245.411L59.3884 222.769ZM115.052 239.025C115.427 238.543 115.594 237.831 115.433 237.174C115.28 236.555 114.889 236.048 114.377 235.824C114.332 235.796 114.297 235.806 114.252 235.778L121.878 204.798C122.155 204.842 122.422 204.846 122.671 204.774C123.629 204.495 124.21 203.455 124.069 202.419L152.499 194.13C152.853 195.104 153.833 195.688 154.792 195.409C155.076 195.326 155.305 195.176 155.489 194.998L176.329 217.679C175.953 218.161 175.786 218.873 175.948 219.53C176.015 219.801 176.117 220.061 176.28 220.262C176.508 220.568 176.788 220.777 177.093 220.936L169.468 251.916C169.191 251.873 168.923 251.868 168.675 251.94C167.716 252.22 167.135 253.259 167.276 254.295L138.847 262.584C138.763 262.402 138.671 262.18 138.562 262.046C138.097 261.394 137.334 261.078 136.553 261.306C136.27 261.388 136.04 261.538 135.856 261.716L115.052 239.025ZM129.979 299.645C130.355 299.162 130.522 298.45 130.36 297.793C130.198 297.136 129.726 296.61 129.179 296.397L136.805 265.417C137.082 265.461 137.35 265.466 137.598 265.393C138.556 265.114 139.137 264.074 138.996 263.038L167.426 254.749C167.528 255.009 167.666 255.259 167.82 255.422C168.292 255.947 169 256.196 169.71 255.989C169.994 255.907 170.223 255.757 170.407 255.579L191.247 278.259C190.871 278.742 190.704 279.453 190.866 280.111C191.028 280.768 191.5 281.293 192.047 281.507L184.421 312.486C184.144 312.443 183.877 312.438 183.628 312.511C182.67 312.79 182.089 313.829 182.23 314.866L153.8 323.155C153.698 322.894 153.56 322.644 153.397 322.444C152.925 321.918 152.217 321.669 151.507 321.876C151.223 321.959 150.994 322.108 150.809 322.286L129.979 299.645ZM151.688 326.008C151.965 326.052 152.232 326.057 152.481 325.984C153.439 325.705 154.02 324.665 153.879 323.629L182.309 315.34C182.411 315.6 182.548 315.85 182.712 316.051C183.184 316.576 183.892 316.826 184.602 316.619C184.886 316.536 185.115 316.386 185.299 316.208L206.175 338.878C205.799 339.361 205.632 340.073 205.794 340.73C205.955 341.387 206.427 341.912 206.974 342.126L206.598 343.686L199.384 373.095C199.107 373.052 198.84 373.047 198.591 373.119C197.633 373.399 197.052 374.438 197.193 375.474L168.763 383.763C168.613 383.31 168.296 382.947 167.926 382.682C167.521 382.427 166.967 382.34 166.47 382.485C166.186 382.567 165.957 382.717 165.772 382.895L144.933 360.215C145.308 359.732 145.475 359.021 145.314 358.363C145.19 357.861 144.943 357.477 144.574 357.212C144.438 357.127 144.303 357.042 144.133 356.967L151.688 326.008ZM104.161 404.588C104.537 404.105 104.704 403.393 104.542 402.736C104.381 402.079 103.909 401.554 103.362 401.34L110.988 370.36C111.265 370.404 111.532 370.409 111.78 370.336C112.739 370.057 113.32 369.017 113.179 367.981L141.608 359.692C141.711 359.952 141.848 360.202 142.012 360.403C142.484 360.929 143.192 361.178 143.902 360.971C144.185 360.888 144.415 360.739 144.599 360.56L165.439 383.241C165.063 383.723 164.896 384.435 165.058 385.092C165.22 385.75 165.692 386.275 166.239 386.488L158.613 417.468C158.336 417.425 158.068 417.42 157.82 417.492C156.862 417.772 156.281 418.811 156.422 419.847L127.992 428.136C127.638 427.162 126.657 426.578 125.699 426.858C125.415 426.94 125.185 427.09 125.001 427.268L104.161 404.588ZM214.276 433.725C213.999 433.681 213.732 433.676 213.483 433.749C212.525 434.028 211.944 435.068 212.085 436.104L183.655 444.393C183.301 443.419 182.32 442.835 181.362 443.114C181.078 443.197 180.849 443.347 180.664 443.525L159.825 420.844C160.2 420.362 160.367 419.65 160.206 418.993C160.053 418.374 159.662 417.867 159.15 417.643C159.105 417.615 159.07 417.625 159.025 417.597L166.651 386.617C166.928 386.66 167.195 386.665 167.444 386.593C168.402 386.313 168.983 385.274 168.842 384.238L197.272 375.949C197.626 376.923 198.606 377.507 199.565 377.228C199.849 377.145 200.078 376.995 200.263 376.817L221.102 399.498C220.726 399.98 220.559 400.692 220.721 401.349C220.854 401.89 221.191 402.331 221.606 402.624C221.696 402.681 221.786 402.737 221.866 402.755L214.276 433.725ZM256.188 392.749C256.564 392.266 256.731 391.554 256.569 390.897C256.417 390.279 256.025 389.771 255.514 389.547C255.469 389.519 255.433 389.529 255.388 389.501L263.014 358.521C263.291 358.565 263.559 358.57 263.807 358.497C264.765 358.218 265.346 357.178 265.205 356.142L293.635 347.853C293.989 348.827 294.97 349.411 295.928 349.132C296.212 349.049 296.441 348.899 296.626 348.721L317.466 371.402C317.239 371.717 317.092 372.049 317.072 372.428C317.022 372.691 317.053 372.972 317.12 373.243C317.282 373.9 317.754 374.426 318.301 374.639L310.675 405.619C310.398 405.575 310.13 405.57 309.882 405.643C309.172 405.85 308.673 406.451 308.506 407.163C308.457 407.426 308.443 407.678 308.474 407.959L280.044 416.248C279.69 415.274 278.71 414.69 277.751 414.969C277.467 415.052 277.238 415.202 277.018 415.39L256.188 392.749ZM271.106 453.329C271.482 452.847 271.649 452.135 271.487 451.478C271.325 450.82 270.853 450.295 270.306 450.082L277.932 419.102C278.209 419.145 278.477 419.15 278.725 419.078C279.435 418.871 279.934 418.27 280.101 417.558C280.15 417.295 280.164 417.042 280.133 416.761L308.563 408.472C308.917 409.446 309.897 410.031 310.856 409.751C311.14 409.668 311.369 409.519 311.589 409.33L332.429 432.011C332.053 432.493 331.886 433.205 332.048 433.862C332.209 434.519 332.681 435.045 333.228 435.258L325.603 466.238C325.325 466.194 325.058 466.19 324.774 466.272C323.816 466.552 323.235 467.591 323.376 468.628L294.946 476.917C294.863 476.734 294.78 476.551 294.661 476.378C294.196 475.726 293.434 475.41 292.653 475.638C292.369 475.72 292.14 475.87 291.955 476.048L271.106 453.329ZM340.476 526.79C340.199 526.747 339.931 526.742 339.683 526.814C338.724 527.094 338.143 528.133 338.284 529.169L309.854 537.458C309.501 536.484 308.52 535.9 307.561 536.179C307.277 536.262 307.048 536.412 306.864 536.59L286.024 513.91C286.4 513.427 286.567 512.715 286.405 512.058C286.243 511.401 285.771 510.876 285.224 510.662L292.85 479.682C293.127 479.726 293.395 479.731 293.679 479.648C294.637 479.369 295.218 478.329 295.077 477.293L323.507 469.004C323.59 469.187 323.673 469.37 323.791 469.542C323.955 469.743 324.119 469.944 324.344 470.086C324.749 470.34 325.303 470.428 325.8 470.283C326.084 470.2 326.313 470.05 326.497 469.872L347.302 492.563C346.926 493.045 346.759 493.757 346.921 494.414C346.987 494.685 347.089 494.945 347.253 495.146C347.481 495.453 347.76 495.661 348.101 495.81L340.476 526.79ZM381.221 482.466C380.944 482.423 380.676 482.418 380.428 482.49C379.469 482.77 378.889 483.809 379.03 484.845L350.6 493.134C350.517 492.951 350.434 492.769 350.315 492.596C349.85 491.944 349.087 491.628 348.307 491.856C348.023 491.938 347.793 492.088 347.609 492.266L326.805 469.575C327.18 469.093 327.348 468.381 327.186 467.724C327.119 467.453 327.017 467.193 326.853 466.992C326.626 466.686 326.346 466.477 326.041 466.317L333.666 435.338C333.943 435.381 334.211 435.386 334.459 435.314C335.418 435.034 335.998 433.995 335.857 432.958L364.287 424.669C364.641 425.644 365.622 426.228 366.58 425.948C366.864 425.866 367.094 425.716 367.278 425.538L388.118 448.218C387.742 448.701 387.575 449.412 387.737 450.07C387.87 450.611 388.207 451.051 388.621 451.345C388.711 451.402 388.801 451.458 388.882 451.476L381.221 482.466ZM484.401 420.105C484.025 420.587 483.858 421.299 484.02 421.956C484.181 422.613 484.653 423.139 485.2 423.352L477.575 454.332C477.298 454.288 477.03 454.284 476.782 454.356C475.823 454.635 475.242 455.675 475.383 456.711L446.954 465C446.6 464.026 445.619 463.442 444.66 463.721C444.377 463.804 444.147 463.954 443.963 464.132L423.123 441.451C423.499 440.969 423.666 440.257 423.504 439.6C423.352 438.981 422.961 438.474 422.449 438.25C422.404 438.222 422.368 438.232 422.323 438.204L429.949 407.224C430.226 407.268 430.494 407.272 430.742 407.2C431.7 406.921 432.281 405.881 432.14 404.845L460.57 396.556C460.924 397.53 461.905 398.114 462.863 397.835C463.147 397.752 463.377 397.602 463.561 397.424L484.401 420.105ZM462.657 393.751C462.38 393.708 462.112 393.703 461.864 393.775C460.905 394.055 460.324 395.094 460.465 396.131L432.036 404.42C431.886 403.966 431.568 403.603 431.198 403.338C430.793 403.083 430.275 402.985 429.742 403.141C429.458 403.223 429.229 403.373 429.045 403.551L408.205 380.871C408.581 380.388 408.748 379.677 408.586 379.019C408.462 378.517 408.216 378.133 407.846 377.868C407.711 377.783 407.576 377.698 407.405 377.623L415.031 346.643C415.308 346.687 415.576 346.692 415.824 346.619C416.64 346.381 417.198 345.556 417.246 344.672C417.253 344.545 417.251 344.38 417.222 344.264L445.652 335.975C446.006 336.949 446.987 337.534 447.945 337.254C448.229 337.171 448.459 337.022 448.643 336.844L469.483 359.524C469.23 359.888 469.067 360.308 469.065 360.765C469.042 360.979 469.089 361.172 469.147 361.404C469.308 362.061 469.78 362.586 470.327 362.8L462.657 393.751ZM503.392 349.389C503.115 349.345 502.848 349.34 502.599 349.413C501.641 349.692 501.06 350.732 501.201 351.768L472.736 360.067C472.382 359.093 471.401 358.509 470.443 358.788C470.159 358.871 469.929 359.021 469.745 359.199L448.905 336.519C449.132 336.204 449.278 335.871 449.335 335.482C449.384 335.219 449.353 334.938 449.286 334.667C449.134 334.049 448.743 333.541 448.231 333.317C448.186 333.289 448.151 333.299 448.106 333.271L455.731 302.291C456.008 302.335 456.276 302.34 456.524 302.267C457.483 301.988 458.063 300.948 457.922 299.912L486.352 291.623C486.706 292.597 487.687 293.181 488.645 292.902C488.929 292.819 489.159 292.669 489.343 292.491L510.183 315.172C509.807 315.654 509.64 316.366 509.802 317.023C509.935 317.565 510.272 318.005 510.686 318.298C510.776 318.355 510.866 318.412 510.947 318.43L503.392 349.389ZM606.546 287.076C606.17 287.559 606.003 288.27 606.165 288.928C606.327 289.585 606.799 290.11 607.346 290.324L599.72 321.304C599.443 321.26 599.176 321.255 598.927 321.328C597.969 321.607 597.388 322.646 597.529 323.683L569.099 331.972C568.745 330.998 567.764 330.413 566.806 330.693C566.522 330.776 566.293 330.925 566.108 331.103L545.269 308.423C545.644 307.94 545.811 307.229 545.65 306.571C545.497 305.953 545.106 305.445 544.594 305.222C544.549 305.193 544.514 305.204 544.469 305.175L552.095 274.196C552.372 274.239 552.639 274.244 552.888 274.172C553.846 273.892 554.427 272.853 554.286 271.816L582.716 263.527C583.07 264.502 584.05 265.086 585.009 264.806C585.293 264.724 585.522 264.574 585.706 264.396L606.546 287.076ZM591.619 226.457C591.243 226.94 591.076 227.651 591.238 228.308C591.399 228.966 591.871 229.491 592.418 229.704L584.793 260.684C584.516 260.641 584.248 260.636 584 260.708C583.041 260.988 582.46 262.027 582.601 263.063L554.172 271.352C554.022 270.899 553.704 270.536 553.335 270.271C552.929 270.016 552.375 269.929 551.878 270.074C551.595 270.156 551.365 270.306 551.181 270.484L530.341 247.804C530.717 247.321 530.884 246.61 530.722 245.952C530.598 245.45 530.352 245.066 529.982 244.801C529.847 244.716 529.712 244.631 529.541 244.556L537.167 213.576C537.444 213.62 537.712 213.625 537.96 213.552C538.918 213.273 539.499 212.233 539.358 211.197L567.788 202.908C568.142 203.882 569.123 204.467 570.081 204.187C570.365 204.104 570.595 203.955 570.779 203.777L591.619 226.457ZM535.991 210.19C535.615 210.673 535.448 211.384 535.61 212.042C535.772 212.699 536.243 213.224 536.791 213.438L529.165 244.417C528.888 244.374 528.62 244.369 528.372 244.441C527.414 244.721 526.833 245.76 526.974 246.797L498.544 255.086C498.19 254.111 497.209 253.527 496.251 253.807C495.967 253.889 495.737 254.039 495.553 254.217L474.713 231.537C475.089 231.054 475.256 230.343 475.094 229.685C474.942 229.067 474.551 228.559 474.039 228.336C473.994 228.307 473.959 228.318 473.914 228.289L481.539 197.309C481.816 197.353 482.084 197.358 482.332 197.285C483.291 197.006 483.872 195.967 483.731 194.93L512.16 186.641C512.514 187.615 513.495 188.2 514.454 187.92C514.737 187.837 514.967 187.688 515.151 187.51L535.991 210.19ZM514.247 183.837C513.97 183.793 513.702 183.788 513.454 183.861C512.496 184.14 511.915 185.18 512.056 186.216L483.626 194.505C483.476 194.051 483.158 193.688 482.789 193.423C482.384 193.168 481.83 193.081 481.333 193.226C481.049 193.309 480.819 193.459 480.635 193.637L459.795 170.956C460.171 170.474 460.338 169.762 460.176 169.105C460.053 168.602 459.806 168.218 459.436 167.953C459.301 167.868 459.166 167.783 458.996 167.709L466.595 136.778C466.837 136.832 467.14 136.826 467.388 136.754C467.779 136.64 468.105 136.421 468.332 136.106C468.717 135.662 468.868 135.038 468.787 134.399L497.216 126.11C497.366 126.563 497.684 126.927 498.053 127.192C498.459 127.447 499.013 127.534 499.51 127.389C499.793 127.306 500.023 127.156 500.207 126.978L521.047 149.659C520.671 150.141 520.504 150.853 520.666 151.51C520.837 152.206 521.3 152.693 521.847 152.906L514.247 183.837ZM554.957 139.523C554.68 139.48 554.412 139.475 554.164 139.547C553.205 139.827 552.624 140.866 552.765 141.902L524.336 150.191C523.982 149.217 523.001 148.633 522.042 148.913C521.759 148.995 521.529 149.145 521.345 149.323L500.505 126.643C500.881 126.16 501.048 125.449 500.886 124.791C500.715 124.095 500.252 123.609 499.705 123.395L507.305 92.4644C507.582 92.5079 507.85 92.5128 508.098 92.4403C509.056 92.1609 509.637 91.1214 509.496 90.0852L537.926 81.7962C538.28 82.7703 539.261 83.3545 540.219 83.0751C540.503 82.9923 540.733 82.8426 540.917 82.6645L561.773 105.257C561.397 105.74 561.23 106.452 561.392 107.109C561.411 107.186 561.43 107.263 561.44 107.302C561.653 107.861 562.061 108.281 562.537 108.515L554.957 139.523ZM602.473 60.9051C602.098 61.3876 601.93 62.0993 602.092 62.7565C602.254 63.4137 602.726 63.9391 603.273 64.1526L595.647 95.1324C595.37 95.0889 595.103 95.084 594.854 95.1564C593.896 95.4358 593.315 96.4753 593.456 97.5116L565.026 105.801C564.672 104.826 563.691 104.242 562.733 104.522C562.449 104.604 562.22 104.754 562.035 104.932L541.196 82.2518C541.536 81.7796 541.696 81.1943 541.589 80.604C541.57 80.5267 541.551 80.4494 541.541 80.4107C541.379 79.7535 540.908 79.2281 540.361 79.0146L547.986 48.0348C548.263 48.0783 548.531 48.0832 548.779 48.0108C549.738 47.7314 550.318 46.6919 550.177 45.6557L578.643 37.3563C578.997 38.3304 579.978 38.9146 580.936 38.6352C581.22 38.5524 581.449 38.4027 581.634 38.2246L602.473 60.9051ZM546.855 44.6768C546.479 45.1593 546.312 45.871 546.474 46.5282C546.636 47.1854 547.108 47.7108 547.655 47.9243L540.029 78.9041C539.752 78.8606 539.485 78.8557 539.236 78.9281C538.278 79.2075 537.697 80.2471 537.838 81.2833L509.408 89.5723C509.258 89.1187 508.941 88.7555 508.571 88.4904C508.166 88.2356 507.612 88.1485 507.115 88.2934C506.831 88.3761 506.602 88.5259 506.417 88.704L485.578 66.0235C485.953 65.541 486.12 64.8293 485.959 64.1721C485.835 63.6695 485.588 63.2856 485.218 63.0205C485.083 62.9355 484.948 62.8506 484.778 62.776L492.404 31.7962C492.681 31.8397 492.948 31.8446 493.197 31.7722C494.155 31.4928 494.736 30.4532 494.595 29.417L523.025 21.128C523.379 22.1021 524.359 22.6864 525.318 22.407C525.602 22.3242 525.831 22.1744 526.015 21.9964L546.855 44.6768ZM491.192 28.4203C490.816 28.9027 490.649 29.6144 490.811 30.2716C490.973 30.9289 491.444 31.4542 491.992 31.6677L484.366 62.6475C484.089 62.604 483.821 62.5991 483.573 62.6716C482.615 62.951 482.034 63.9905 482.175 65.0267L453.745 73.3157C453.391 72.3416 452.41 71.7574 451.452 72.0368C451.168 72.1196 450.938 72.2693 450.754 72.4474L429.914 49.7669C430.29 49.2844 430.457 48.5727 430.295 47.9155C430.143 47.297 429.752 46.7895 429.24 46.5657C429.195 46.5374 429.16 46.5478 429.115 46.5195L436.74 15.5396C437.017 15.5832 437.285 15.588 437.533 15.5156C438.492 15.2362 439.073 14.1966 438.932 13.1604L467.361 4.87142C467.715 5.84554 468.696 6.42977 469.654 6.15036C469.938 6.06758 470.168 5.91783 470.352 5.73976L491.192 28.4203ZM421.822 -45.041C422.099 -44.9974 422.367 -44.9925 422.615 -45.0649C423.574 -45.3443 424.155 -46.3839 424.014 -47.4201L452.443 -55.7091C452.797 -54.735 453.778 -54.1508 454.736 -54.4302C455.02 -54.513 455.25 -54.6627 455.434 -54.8408L476.274 -32.1603C475.898 -31.6778 475.731 -30.9661 475.893 -30.3089C476.055 -29.6516 476.526 -29.1262 477.074 -28.9128L469.448 2.06703C469.171 2.02349 468.903 2.01862 468.655 2.09106C467.697 2.37046 467.116 3.40997 467.257 4.44617L438.827 12.7352C438.677 12.2816 438.359 11.9184 437.99 11.6533C437.585 11.3985 437.031 11.3114 436.534 11.4563C436.25 11.5391 436.02 11.6888 435.836 11.8669L414.996 -10.8136C415.372 -11.2961 415.539 -12.0078 415.377 -12.665C415.254 -13.1676 415.007 -13.5515 414.637 -13.8166C414.502 -13.9016 414.367 -13.9865 414.197 -14.0611L421.822 -45.041ZM379.901 -4.10328C379.525 -3.62081 379.358 -2.90912 379.52 -2.25191C379.587 -1.98128 379.689 -1.721 379.852 -1.52008C380.08 -1.21353 380.36 -1.00498 380.701 -0.855811L373.075 30.1241C372.798 30.0805 372.53 30.0756 372.282 30.1481C371.324 30.4275 370.743 31.467 370.884 32.5032L342.454 40.7922C342.1 39.818 341.119 39.2339 340.161 39.5133C340.09 39.534 340.019 39.5547 339.983 39.565C339.78 39.6658 339.612 39.7561 339.454 39.8852L318.614 17.2048C318.99 16.7223 319.157 16.0105 318.995 15.3533C318.871 14.8507 318.624 14.4669 318.255 14.2017C318.12 14.1168 317.985 14.0319 317.814 13.9573L325.44 -17.0226C325.717 -16.979 325.984 -16.9742 326.233 -17.0466C327.191 -17.326 327.772 -18.3655 327.631 -19.4017L356.061 -27.6907C356.415 -26.7166 357.396 -26.1324 358.354 -26.4118C358.638 -26.4946 358.867 -26.6443 359.052 -26.8224L379.901 -4.10328ZM324.283 -20.3316C323.907 -19.8491 323.74 -19.1374 323.902 -18.4801C324.064 -17.8229 324.535 -17.2975 325.082 -17.0841L317.457 13.8958C317.18 13.8522 316.912 13.8473 316.664 13.9198C315.705 14.1992 315.125 15.2387 315.266 16.2749L286.836 24.5639C286.527 23.6181 285.636 23.0905 284.72 23.2333C284.649 23.254 284.578 23.2747 284.543 23.285C284.472 23.3057 284.401 23.3264 284.365 23.3367C284.162 23.4375 283.994 23.5279 283.835 23.657L262.996 0.976455C263.371 0.493984 263.539 -0.217704 263.377 -0.874891C263.224 -1.4935 262.833 -2.00096 262.322 -2.22472C262.277 -2.25302 262.241 -2.24273 262.196 -2.27101L269.822 -33.2509C270.099 -33.2074 270.366 -33.2024 270.615 -33.2749C271.573 -33.5543 272.154 -34.5938 272.013 -35.63L300.443 -43.919C300.797 -42.9449 301.778 -42.3607 302.736 -42.6401C303.02 -42.7229 303.249 -42.8727 303.434 -43.0508L324.283 -20.3316ZM309.355 -80.9507C308.979 -80.4683 308.812 -79.7566 308.974 -79.0993C309.136 -78.4421 309.608 -77.9167 310.155 -77.7033L302.529 -46.7234C302.252 -46.767 301.985 -46.7719 301.736 -46.6994C300.778 -46.42 300.197 -45.3804 300.338 -44.3443L271.908 -36.0553C271.787 -36.3929 271.595 -36.7098 271.351 -36.9286C270.908 -37.3381 270.254 -37.5205 269.615 -37.3342C269.331 -37.2514 269.102 -37.1017 268.917 -36.9236L248.078 -59.604C248.453 -60.0865 248.621 -60.7983 248.459 -61.4555C248.335 -61.9581 248.088 -62.3419 247.719 -62.6071C247.584 -62.692 247.449 -62.7769 247.278 -62.8515L254.904 -93.8314C255.181 -93.7879 255.448 -93.783 255.697 -93.8554C256.655 -94.1348 257.236 -95.1743 257.095 -96.2105L285.525 -104.499C285.879 -103.525 286.86 -102.941 287.818 -103.221C288.102 -103.303 288.331 -103.453 288.516 -103.631L309.355 -80.9507ZM253.692 -97.2073C253.316 -96.7248 253.149 -96.0131 253.311 -95.3559C253.473 -94.6987 253.945 -94.1732 254.492 -93.9598L246.866 -62.98C246.589 -63.0235 246.321 -63.0284 246.073 -62.956C245.115 -62.6765 244.534 -61.6371 244.675 -60.6008L216.245 -52.3118C215.891 -53.286 214.91 -53.8701 213.952 -53.5907C213.668 -53.5079 213.439 -53.3582 213.254 -53.1802L192.415 -75.8606C192.79 -76.3431 192.957 -77.0548 192.796 -77.7121C192.634 -78.3693 192.162 -78.8947 191.615 -79.1081L199.241 -110.088C199.518 -110.044 199.785 -110.04 200.034 -110.112C200.992 -110.391 201.573 -111.431 201.432 -112.467L229.862 -120.756C230.216 -119.782 231.196 -119.198 232.155 -119.477C232.439 -119.56 232.668 -119.71 232.852 -119.888L253.692 -97.2073Z" fill="#C6F6FE"/>
</svg>
