<svg width="184" height="405" viewBox="0 0 184 405" fill="none" xmlns="http://www.w3.org/2000/svg">
<path opacity="0.3" d="M-196.985 -106.143L-225.415 -97.8537C-225.769 -98.8279 -226.75 -99.4121 -227.708 -99.1327C-228.737 -98.8326 -229.335 -97.7053 -229.059 -96.5842C-228.897 -95.927 -228.425 -95.4016 -227.878 -95.1881L-235.504 -64.2083C-235.781 -64.2518 -236.048 -64.2567 -236.297 -64.1843C-237.326 -63.8842 -237.923 -62.757 -237.647 -61.6359C-237.371 -60.5147 -236.336 -59.8635 -235.307 -60.1636C-235.023 -60.2464 -234.793 -60.3962 -234.609 -60.5742L-213.769 -37.8937C-214.145 -37.4112 -214.312 -36.6995 -214.15 -36.0423C-213.988 -35.3851 -213.517 -34.8597 -212.969 -34.6463L-220.595 -3.66642C-220.872 -3.70996 -221.14 -3.71486 -221.388 -3.64242C-222.417 -3.34231 -223.015 -2.2151 -222.739 -1.09393C-222.463 0.0271825 -221.427 0.678384 -220.398 0.378276C-220.114 0.295496 -219.885 0.14571 -219.7 -0.0323629L-198.861 22.6482C-199.236 23.1306 -199.404 23.8423 -199.242 24.4995C-199.156 24.8475 -199.009 25.1361 -198.791 25.404C-198.582 25.6332 -198.348 25.8134 -198.096 25.906L-205.722 56.8858C-205.999 56.8422 -206.267 56.8374 -206.515 56.9098C-207.473 57.1892 -208.054 58.2288 -207.913 59.265L-236.343 67.554C-236.697 66.5798 -237.678 65.9956 -238.636 66.275C-238.92 66.3578 -239.15 66.5076 -239.334 66.6856L-260.174 44.0052C-259.798 43.5227 -259.631 42.811 -259.793 42.1537C-260.069 41.0326 -261.104 40.3814 -262.133 40.6815C-263.092 40.9609 -263.673 42.0005 -263.531 43.0367L-291.961 51.3257C-292.315 50.3515 -293.296 49.7673 -294.254 50.0467C-294.538 50.1295 -294.768 50.2793 -294.952 50.4574L-315.792 27.7769C-315.416 27.2944 -315.249 26.5827 -315.411 25.9255C-315.687 24.8043 -316.722 24.1531 -317.751 24.4532C-318.71 24.7327 -319.291 25.7722 -319.15 26.8084L-347.58 35.0974C-347.934 34.1233 -348.914 33.5391 -349.873 33.8185C-350.902 34.1186 -351.499 35.2458 -351.223 36.367C-351.061 37.0242 -350.59 37.5496 -350.043 37.763L-357.668 68.7429C-357.945 68.6993 -358.213 68.6944 -358.461 68.7668C-359.491 69.0669 -360.088 70.1942 -359.812 71.3153C-359.536 72.4364 -358.5 73.0876 -357.471 72.7875C-357.187 72.7048 -356.958 72.555 -356.773 72.3769L-335.934 95.0574C-336.309 95.5399 -336.477 96.2516 -336.315 96.9088C-336.153 97.566 -335.681 98.0915 -335.134 98.3048L-342.76 129.285C-342.76 129.285 -342.795 129.295 -342.805 129.256C-343.046 129.203 -343.304 129.236 -343.553 129.309C-344.511 129.588 -345.092 130.628 -344.951 131.664L-373.381 139.953C-373.735 138.979 -374.716 138.395 -375.674 138.674C-376.703 138.974 -377.3 140.101 -377.024 141.222C-376.863 141.88 -376.391 142.405 -375.844 142.618L-383.469 173.598C-383.746 173.555 -384.014 173.55 -384.262 173.622C-385.221 173.902 -385.802 174.941 -385.661 175.977L-414.09 184.266C-414.444 183.292 -415.425 182.708 -416.384 182.988C-417.413 183.288 -418.01 184.415 -417.734 185.536C-417.572 186.193 -417.101 186.719 -416.553 186.932L-424.179 217.912C-424.456 217.868 -424.724 217.863 -424.972 217.936C-426.001 218.236 -426.599 219.363 -426.323 220.484C-426.047 221.606 -425.011 222.257 -423.982 221.957C-423.698 221.874 -423.469 221.724 -423.284 221.546L-402.445 244.226C-402.82 244.709 -402.987 245.421 -402.826 246.078C-402.55 247.199 -401.514 247.85 -400.485 247.55C-399.527 247.271 -398.946 246.231 -399.087 245.195L-370.657 236.906C-370.545 237.205 -370.408 237.455 -370.209 237.645C-369.746 238.132 -369.038 238.381 -368.364 238.185C-368.08 238.102 -367.85 237.952 -367.666 237.774L-346.826 260.455C-347.202 260.937 -347.369 261.649 -347.207 262.306C-346.931 263.427 -345.896 264.078 -344.867 263.778C-343.908 263.499 -343.328 262.459 -343.469 261.423L-315.039 253.134C-314.889 253.588 -314.571 253.951 -314.202 254.216C-313.797 254.471 -313.243 254.558 -312.746 254.413C-312.462 254.33 -312.232 254.181 -312.048 254.002L-291.208 276.683C-291.584 277.165 -291.751 277.877 -291.589 278.534C-291.504 278.882 -291.356 279.171 -291.138 279.439C-290.93 279.668 -290.695 279.848 -290.435 279.979L-298.06 310.959C-298.337 310.916 -298.605 310.911 -298.853 310.983C-299.883 311.283 -300.48 312.411 -300.204 313.532C-299.928 314.653 -298.892 315.304 -297.863 315.004C-297.579 314.921 -297.35 314.771 -297.165 314.593L-276.326 337.274C-276.701 337.756 -276.869 338.468 -276.707 339.125C-276.621 339.473 -276.474 339.762 -276.256 340.03C-276.047 340.259 -275.813 340.439 -275.562 340.532L-283.187 371.512C-283.464 371.468 -283.732 371.463 -283.98 371.536C-284.939 371.815 -285.519 372.854 -285.378 373.891L-313.808 382.18C-314.162 381.206 -315.143 380.621 -316.101 380.901C-317.131 381.201 -317.728 382.328 -317.452 383.449C-317.29 384.106 -316.818 384.632 -316.271 384.845L-323.897 415.825C-324.174 415.782 -324.442 415.777 -324.69 415.849C-325.719 416.149 -326.317 417.276 -326.04 418.398C-325.764 419.519 -324.729 420.17 -323.7 419.87C-323.416 419.787 -323.186 419.637 -323.002 419.459L-302.162 442.14C-302.538 442.622 -302.705 443.334 -302.543 443.991C-302.267 445.112 -301.232 445.763 -300.203 445.463C-299.244 445.184 -298.664 444.144 -298.805 443.108L-270.375 434.819C-270.225 435.273 -269.907 435.636 -269.538 435.901C-269.133 436.156 -268.579 436.243 -268.082 436.098C-267.798 436.015 -267.568 435.865 -267.384 435.687L-246.544 458.368C-246.92 458.85 -247.087 459.562 -246.925 460.219C-246.649 461.34 -245.614 461.992 -244.585 461.692C-243.626 461.412 -243.045 460.373 -243.186 459.336L-214.757 451.047C-214.403 452.022 -213.422 452.606 -212.463 452.326C-211.434 452.026 -210.837 450.899 -211.113 449.778C-211.275 449.121 -211.746 448.595 -212.294 448.382L-204.668 417.402C-204.391 417.445 -204.123 417.45 -203.875 417.378C-202.917 417.099 -202.336 416.059 -202.477 415.023L-174.047 406.734C-173.897 407.187 -173.579 407.551 -173.21 407.816C-172.805 408.071 -172.251 408.158 -171.754 408.013C-171.47 407.93 -171.24 407.78 -171.056 407.602L-150.216 430.283C-150.382 430.538 -150.538 430.832 -150.577 431.134C-150.653 431.446 -150.638 431.814 -150.552 432.162C-150.391 432.82 -149.919 433.345 -149.372 433.558L-156.997 464.538C-157.274 464.495 -157.542 464.49 -157.79 464.562C-158.82 464.862 -159.417 465.99 -159.141 467.111C-158.865 468.232 -157.83 468.883 -156.8 468.583C-156.516 468.5 -156.287 468.35 -156.102 468.172L-135.263 490.853C-135.639 491.335 -135.806 492.047 -135.644 492.704C-135.577 492.975 -135.475 493.235 -135.311 493.436C-135.084 493.743 -134.804 493.951 -134.463 494.1L-142.089 525.08C-142.366 525.037 -142.633 525.032 -142.882 525.104C-143.911 525.404 -144.509 526.531 -144.232 527.653C-143.956 528.774 -142.921 529.425 -141.892 529.125C-141.608 529.042 -141.378 528.892 -141.194 528.714L-120.354 551.395C-120.73 551.877 -120.897 552.589 -120.735 553.246C-120.459 554.367 -119.424 555.018 -118.395 554.718C-117.436 554.439 -116.855 553.399 -116.996 552.363L-88.5667 544.074C-88.2126 545.048 -87.2319 545.632 -86.2736 545.353C-85.2443 545.053 -84.6469 543.926 -84.923 542.805C-85.0848 542.147 -85.5566 541.622 -86.1037 541.409L-78.4779 510.429C-78.2009 510.472 -77.9334 510.477 -77.6495 510.394C-76.6912 510.115 -76.1103 509.075 -76.2513 508.039L-47.8215 499.75C-47.4675 500.724 -46.4867 501.308 -45.5284 501.029C-44.4991 500.729 -43.9017 499.602 -44.1778 498.481C-44.3396 497.823 -44.8114 497.298 -45.3585 497.085L-37.7328 466.105C-37.4557 466.148 -37.1883 466.153 -36.9398 466.081C-35.9815 465.801 -35.4006 464.762 -35.5416 463.726L-7.11176 455.437C-6.96201 455.89 -6.64436 456.253 -6.27472 456.518C-5.86961 456.773 -5.3156 456.86 -4.81871 456.715C-4.53476 456.633 -4.30532 456.483 -4.12092 456.305L16.9134 479.467C16.5377 479.95 16.3706 480.661 16.5324 481.319C16.8085 482.44 17.8438 483.091 18.8731 482.791C19.8314 482.511 20.4124 481.472 20.2713 480.436L48.7012 472.147C49.0552 473.121 50.0359 473.705 50.9943 473.426C52.0235 473.126 52.6209 471.998 52.3448 470.877C52.183 470.22 51.7112 469.695 51.1641 469.481L58.7899 438.501C59.0669 438.545 59.3344 438.55 59.5828 438.477C60.6121 438.177 61.2095 437.05 60.9334 435.929C60.6573 434.808 59.622 434.157 58.5927 434.457C58.3088 434.539 58.0794 434.689 57.895 434.867L37.0553 412.187C37.4311 411.704 37.5982 410.993 37.4364 410.335C37.2745 409.678 36.8027 409.153 36.2557 408.939L43.8814 377.959C44.1584 378.003 44.4259 378.008 44.6743 377.935C45.4907 377.697 46.0577 376.911 46.0967 375.988C46.1037 375.861 46.1011 375.696 46.0725 375.58L74.5024 367.291C74.8564 368.265 75.8372 368.85 76.7955 368.57C77.8248 368.27 78.4221 367.143 78.146 366.022C77.9842 365.365 77.5124 364.839 76.9654 364.626L84.5911 333.646C84.8681 333.689 85.1356 333.694 85.384 333.622C86.3423 333.342 86.9233 332.303 86.7822 331.267L115.212 322.978C115.362 323.431 115.679 323.794 116.049 324.06C116.454 324.314 117.008 324.401 117.505 324.257C117.789 324.174 118.019 324.024 118.203 323.846L139.085 346.39C138.709 346.872 138.542 347.584 138.704 348.241C138.98 349.362 140.015 350.014 141.045 349.713C142.003 349.434 142.584 348.394 142.443 347.358L170.873 339.069C171.227 340.043 172.207 340.628 173.166 340.348C174.195 340.048 174.792 338.921 174.516 337.8C174.355 337.143 173.883 336.617 173.336 336.404L180.961 305.424C181.238 305.467 181.506 305.472 181.754 305.4C182.784 305.1 183.381 303.973 183.105 302.851C182.829 301.73 181.794 301.079 180.764 301.379C180.48 301.462 180.251 301.612 180.066 301.79L159.227 279.109C159.603 278.627 159.77 277.915 159.608 277.258C159.446 276.601 158.974 276.075 158.427 275.862L166.053 244.882C166.33 244.926 166.597 244.93 166.846 244.858C167.875 244.558 168.473 243.431 168.196 242.31C167.92 241.188 166.885 240.537 165.856 240.837C165.572 240.92 165.342 241.07 165.158 241.248L144.318 218.567C144.694 218.085 144.861 217.373 144.699 216.716C144.423 215.595 143.388 214.944 142.359 215.244C141.4 215.523 140.819 216.563 140.961 217.599L112.531 225.888C112.177 224.914 111.196 224.33 110.238 224.609C109.954 224.692 109.724 224.842 109.54 225.02L88.7002 202.339C89.0759 201.857 89.243 201.145 89.0812 200.488C88.9193 199.831 88.4476 199.305 87.9005 199.092L95.5003 168.161C95.7418 168.215 96.0448 168.209 96.2932 168.137C96.6836 168.023 97.01 167.804 97.2368 167.489C97.6221 167.045 97.7727 166.421 97.6914 165.782L126.121 157.493C126.475 158.467 127.456 159.051 128.414 158.772C129.444 158.472 130.041 157.344 129.765 156.223C129.603 155.566 129.131 155.041 128.584 154.827L136.21 123.847C136.487 123.891 136.754 123.896 137.003 123.823C137.961 123.544 138.542 122.504 138.401 121.468L166.866 113.169C167.22 114.143 168.201 114.727 169.16 114.448C170.189 114.148 170.786 113.02 170.51 111.899C170.348 111.242 169.877 110.717 169.329 110.503L176.898 79.2914C177.175 79.3349 177.443 79.3398 177.691 79.2674C178.72 78.9673 179.318 77.8401 179.042 76.7189C178.765 75.5978 177.73 74.9466 176.701 75.2467C176.417 75.3295 176.188 75.4792 176.003 75.6573L155.163 52.9768C155.539 52.4944 155.706 51.7827 155.544 51.1254C155.268 50.0043 154.233 49.3531 153.204 49.6532C152.246 49.9326 151.665 50.9721 151.806 52.0083L123.376 60.2973C123.022 59.3232 122.041 58.7391 121.083 59.0185C120.799 59.1012 120.569 59.251 120.385 59.4291L99.5453 36.7486C99.921 36.2661 100.088 35.5544 99.9263 34.8971C99.6502 33.776 98.6149 33.1248 97.5856 33.4249C96.6273 33.7043 96.0464 34.7438 96.1874 35.7801L67.7576 44.0691C67.4036 43.0949 66.4228 42.5108 65.4645 42.7902C65.1806 42.8729 64.9512 43.0227 64.7668 43.2008L43.9271 20.5203C44.3028 20.0378 44.47 19.3261 44.3081 18.6689C44.1463 18.0117 43.6745 17.4862 43.1274 17.2728L50.7532 -13.707C51.0302 -13.6635 51.2976 -13.6586 51.5461 -13.731C52.5754 -14.0311 53.1728 -15.1583 52.8967 -16.2795C52.6206 -17.4006 51.5853 -18.0518 50.556 -17.7517C50.2721 -17.6689 50.0427 -17.5191 49.8583 -17.3411L29.0186 -40.0216C29.3944 -40.504 29.5615 -41.2157 29.3996 -41.873C29.1235 -42.9941 28.0882 -43.6453 27.0589 -43.3452C26.1006 -43.0658 25.5197 -42.0262 25.6608 -40.99L-2.76909 -32.701C-3.1231 -33.6751 -4.10388 -34.2594 -5.06218 -33.98C-6.09148 -33.6799 -6.68884 -32.5526 -6.41276 -31.4315C-6.25092 -30.7743 -5.77917 -30.2489 -5.23208 -30.0354L-12.8578 0.944396C-13.1348 0.900855 -13.4023 0.895981 -13.6508 0.968422C-14.6091 1.24782 -15.19 2.28732 -15.0489 3.32353L-43.5143 11.6229C-43.5974 11.4399 -43.6805 11.257 -43.7991 11.0844C-44.2639 10.4326 -45.0265 10.1163 -45.8074 10.344C-46.0913 10.4268 -46.3207 10.5765 -46.5051 10.7546L-67.3448 -11.9259C-66.969 -12.4084 -66.8019 -13.12 -66.9638 -13.7773C-67.2398 -14.8984 -68.2752 -15.5497 -69.3045 -15.2496C-70.2628 -14.9702 -70.8437 -13.9306 -70.7026 -12.8943L-99.1325 -4.60533C-99.4415 -5.55119 -100.332 -6.0788 -101.248 -5.93608C-101.319 -5.91538 -101.39 -5.89468 -101.426 -5.88434C-101.497 -5.86364 -101.568 -5.84294 -101.603 -5.83259C-101.806 -5.7318 -101.974 -5.64143 -102.133 -5.51234L-122.972 -28.1929C-122.597 -28.6753 -122.43 -29.387 -122.591 -30.0442C-122.753 -30.7015 -123.225 -31.2269 -123.772 -31.4403L-116.146 -62.4202C-115.869 -62.3766 -115.602 -62.3717 -115.353 -62.4441C-114.324 -62.7442 -113.727 -63.8715 -114.003 -64.9926C-114.279 -66.1137 -115.314 -66.7649 -116.344 -66.4648C-116.628 -66.382 -116.857 -66.2323 -117.041 -66.0542L-137.881 -88.7347C-137.505 -89.2172 -137.338 -89.9289 -137.5 -90.5861C-137.776 -91.7072 -138.811 -92.3584 -139.841 -92.0583C-140.799 -91.7789 -141.38 -90.7393 -141.239 -89.7032L-169.669 -81.4142C-170.023 -82.3883 -171.003 -82.9725 -171.962 -82.6931C-172.246 -82.6103 -172.475 -82.4606 -172.66 -82.2825L-193.499 -104.963C-193.123 -105.445 -192.956 -106.157 -193.118 -106.814C-193.394 -107.936 -194.43 -108.587 -195.459 -108.287C-196.545 -108.218 -197.136 -107.218 -196.985 -106.143ZM-203.233 413.959C-203.638 413.704 -204.192 413.617 -204.689 413.762C-204.973 413.845 -205.203 413.994 -205.387 414.172L-226.227 391.492C-225.851 391.009 -225.684 390.298 -225.846 389.641C-226.007 388.983 -226.479 388.458 -227.026 388.244L-220.298 360.883L-219.401 357.265C-219.124 357.308 -218.856 357.313 -218.608 357.241C-217.649 356.961 -217.068 355.922 -217.21 354.886L-188.78 346.597C-188.677 346.857 -188.54 347.107 -188.376 347.308C-187.904 347.833 -187.196 348.082 -186.487 347.875C-186.203 347.793 -185.973 347.643 -185.789 347.465L-164.949 370.145C-165.325 370.628 -165.492 371.339 -165.33 371.997C-165.168 372.654 -164.697 373.179 -164.149 373.393L-171.775 404.373C-172.052 404.329 -172.32 404.324 -172.568 404.397C-173.526 404.676 -174.107 405.716 -173.966 406.752L-202.396 415.041C-202.546 414.587 -202.828 414.214 -203.233 413.959ZM53.2047 210.824C53.3666 211.481 53.8383 212.006 54.3854 212.22L46.7597 243.199C46.4827 243.156 46.2152 243.151 45.9668 243.224C45.0085 243.503 44.4275 244.542 44.5686 245.579L16.1387 253.868C16.0366 253.607 15.899 253.357 15.7354 253.157C15.2636 252.631 14.5555 252.382 13.8456 252.589C13.5617 252.672 13.3323 252.821 13.1479 252.999L-7.65627 230.308C-7.42943 229.994 -7.28312 229.661 -7.26232 229.282C-7.21296 229.019 -7.24412 228.738 -7.32028 228.429C-7.48212 227.772 -7.95389 227.246 -8.50098 227.033L-0.901226 196.102L-0.865717 196.092C-0.624206 196.145 -0.366224 196.112 -0.117779 196.039C0.663063 195.812 1.17816 195.123 1.28123 194.305C1.30462 194.091 1.29252 193.888 1.28041 193.684L29.7103 185.395C30.0643 186.369 31.045 186.953 32.0034 186.674C32.2873 186.591 32.5167 186.441 32.7366 186.253L53.5762 208.934C53.21 209.455 53.0334 210.128 53.2047 210.824ZM-20.5416 392.558C-21.4999 392.837 -22.0808 393.876 -21.9397 394.913L-50.3696 403.202C-50.7236 402.228 -51.7044 401.643 -52.6627 401.923C-52.9466 402.006 -53.176 402.155 -53.3604 402.333L-74.2001 379.653C-73.8244 379.17 -73.6572 378.459 -73.8191 377.801C-73.9714 377.183 -74.3626 376.675 -74.8742 376.452C-74.9192 376.423 -74.9548 376.434 -74.9998 376.405L-67.374 345.426C-67.097 345.469 -66.8295 345.474 -66.5811 345.402C-65.6228 345.122 -65.0418 344.083 -65.1829 343.046L-36.753 334.757C-36.399 335.732 -35.4183 336.316 -34.46 336.036C-34.176 335.954 -33.9466 335.804 -33.7622 335.626L-12.9321 358.268C-13.1849 358.631 -13.3477 359.052 -13.3494 359.508C-13.3728 359.722 -13.3252 359.915 -13.2681 360.147C-13.1062 360.804 -12.6345 361.33 -12.0874 361.543L-19.7131 392.523C-19.9996 392.441 -20.2576 392.475 -20.5416 392.558ZM-217.314 354.46C-217.668 353.486 -218.649 352.902 -219.607 353.181C-219.891 353.264 -220.121 353.414 -220.305 353.592L-241.145 330.911C-240.769 330.429 -240.602 329.717 -240.764 329.06C-240.916 328.442 -241.307 327.934 -241.819 327.71C-241.864 327.682 -241.899 327.692 -241.944 327.664L-234.319 296.684C-234.042 296.728 -233.774 296.733 -233.526 296.66C-232.567 296.381 -231.986 295.341 -232.128 294.305L-203.698 286.016C-203.615 286.199 -203.531 286.382 -203.413 286.554C-202.948 287.206 -202.185 287.523 -201.405 287.295C-201.121 287.212 -200.891 287.062 -200.707 286.884L-179.867 309.565C-180.243 310.047 -180.41 310.759 -180.248 311.416C-180.115 311.957 -179.778 312.398 -179.364 312.691C-179.273 312.748 -179.183 312.805 -179.103 312.823L-186.729 343.802C-187.006 343.759 -187.273 343.754 -187.522 343.826C-188.48 344.106 -189.061 345.145 -188.92 346.182L-217.314 354.46ZM-255.691 268.441C-255.777 268.093 -255.934 267.766 -256.142 267.536C-256.351 267.307 -256.585 267.127 -256.836 267.034L-249.211 236.055C-248.934 236.098 -248.666 236.103 -248.418 236.031C-247.459 235.751 -246.878 234.712 -247.02 233.675L-218.59 225.386C-218.507 225.569 -218.423 225.752 -218.305 225.925C-217.84 226.577 -217.077 226.893 -216.297 226.665C-216.013 226.583 -215.783 226.433 -215.599 226.255L-194.759 248.935C-195.135 249.418 -195.302 250.129 -195.14 250.787C-195.074 251.057 -194.971 251.318 -194.808 251.518C-194.689 251.691 -194.545 251.815 -194.4 251.938C-194.265 252.023 -194.13 252.108 -193.96 252.183L-201.585 283.163C-201.862 283.119 -202.13 283.114 -202.378 283.187C-203.159 283.414 -203.674 284.103 -203.777 284.92C-203.801 285.134 -203.788 285.338 -203.776 285.542L-232.206 293.831C-232.308 293.57 -232.446 293.321 -232.61 293.12C-233.081 292.594 -233.789 292.345 -234.499 292.552C-234.783 292.635 -235.013 292.784 -235.197 292.962L-256.037 270.282C-255.706 269.771 -255.529 269.098 -255.691 268.441ZM-270.619 207.822C-270.781 207.164 -271.252 206.639 -271.799 206.426L-265.071 179.064L-264.174 175.446C-263.897 175.489 -263.629 175.494 -263.381 175.422C-262.422 175.142 -261.842 174.103 -261.983 173.067L-233.553 164.778C-233.451 165.038 -233.313 165.288 -233.149 165.489C-232.678 166.014 -231.969 166.264 -231.26 166.057C-230.976 165.974 -230.746 165.824 -230.562 165.646L-209.722 188.326C-210.098 188.809 -210.265 189.521 -210.103 190.178C-209.941 190.835 -209.47 191.36 -208.923 191.574L-216.548 222.554C-216.825 222.51 -217.093 222.505 -217.341 222.578C-218.3 222.857 -218.88 223.897 -218.739 224.933L-247.169 233.222C-247.252 233.039 -247.335 232.856 -247.454 232.683C-247.919 232.032 -248.682 231.715 -249.462 231.943C-249.746 232.026 -249.976 232.176 -250.16 232.354L-271 209.673C-270.624 209.191 -270.457 208.479 -270.619 207.822ZM-40.5507 109.086C-40.0859 109.738 -39.3232 110.054 -38.5424 109.827C-38.2584 109.744 -38.029 109.594 -37.8446 109.416L-17.005 132.096C-17.3807 132.579 -17.5478 133.291 -17.386 133.948C-17.2242 134.605 -16.7524 135.13 -16.2053 135.344L-23.831 166.324L-23.8665 166.334C-24.108 166.28 -24.366 166.314 -24.6145 166.386C-25.5728 166.666 -26.1537 167.705 -26.0126 168.742L-54.4425 177.031C-54.6944 176.317 -55.3176 175.794 -55.9876 175.699C-56.2292 175.645 -56.4871 175.679 -56.7356 175.752C-57.0195 175.834 -57.2489 175.984 -57.4333 176.162L-78.273 153.482C-77.8973 152.999 -77.7301 152.288 -77.892 151.63C-78.0538 150.973 -78.5256 150.448 -79.0727 150.234L-71.4469 119.254C-71.2504 119.28 -71.0539 119.306 -70.841 119.244C-70.77 119.223 -70.699 119.202 -70.6635 119.192C-69.7052 118.912 -69.1243 117.873 -69.2653 116.837L-40.8355 108.548C-40.7428 108.769 -40.6597 108.952 -40.5507 109.086ZM-2.45847 194.567C-2.28711 195.263 -1.82486 195.75 -1.27776 195.963L-8.87752 226.894C-9.15453 226.85 -9.42204 226.845 -9.67048 226.918C-10.4513 227.146 -10.9664 227.834 -11.0695 228.652C-11.0929 228.866 -11.0808 229.069 -11.0687 229.273L-39.4985 237.562C-39.6007 237.302 -39.7383 237.052 -39.9019 236.851C-40.3736 236.326 -41.0818 236.076 -41.7916 236.283C-42.0756 236.366 -42.305 236.516 -42.4894 236.694L-63.329 214.013C-62.9533 213.531 -62.7861 212.819 -62.948 212.162C-63.0717 211.659 -63.3184 211.275 -63.6881 211.01C-63.8231 210.925 -63.9581 210.84 -64.1287 210.766L-56.503 179.786L-56.4675 179.776C-56.226 179.829 -55.968 179.796 -55.7195 179.723C-54.7612 179.444 -54.1803 178.404 -54.3213 177.368L-25.8915 169.079C-25.7417 169.533 -25.424 169.896 -25.0544 170.161C-24.8294 170.303 -24.6138 170.405 -24.3463 170.41C-24.1048 170.464 -23.8468 170.43 -23.5984 170.358C-23.3145 170.275 -23.085 170.126 -22.9006 169.947L-2.0965 192.638C-2.44366 193.237 -2.62031 193.91 -2.45847 194.567ZM-214.955 224.078C-215.022 223.808 -215.124 223.547 -215.288 223.346C-215.471 223.068 -215.715 222.849 -216.011 222.728C-216.056 222.7 -216.091 222.711 -216.136 222.682L-208.511 191.702C-208.234 191.746 -207.966 191.751 -207.718 191.678C-206.759 191.399 -206.178 190.359 -206.319 189.323L-177.889 181.034C-177.787 181.294 -177.65 181.544 -177.486 181.745C-177.014 182.271 -176.306 182.52 -175.596 182.313C-175.312 182.23 -175.083 182.081 -174.899 181.902L-154.059 204.583C-154.435 205.065 -154.602 205.777 -154.44 206.434C-154.373 206.705 -154.271 206.965 -154.108 207.166C-154.053 207.233 -154.044 207.272 -153.989 207.339C-153.78 207.568 -153.546 207.748 -153.295 207.841L-160.921 238.821C-161.198 238.777 -161.465 238.772 -161.713 238.845C-162.672 239.124 -163.253 240.164 -163.112 241.2L-191.542 249.489C-191.625 249.306 -191.708 249.123 -191.826 248.95C-192.291 248.299 -193.054 247.982 -193.835 248.21C-194.119 248.293 -194.348 248.442 -194.532 248.621L-215.372 225.94C-214.961 225.447 -214.794 224.736 -214.955 224.078ZM-50.3871 271.358C-51.097 271.565 -51.5956 272.166 -51.7627 272.878C-51.8121 273.141 -51.8164 273.432 -51.7853 273.713L-80.2151 282.002C-80.5691 281.028 -81.5499 280.444 -82.5082 280.723C-82.7922 280.806 -83.0216 280.956 -83.2415 281.144L-104.081 258.464C-103.705 257.981 -103.538 257.269 -103.7 256.612C-103.862 255.955 -104.334 255.429 -104.881 255.216L-99.3669 232.808L-97.2551 224.236C-96.9781 224.28 -96.7106 224.285 -96.4621 224.212C-95.5038 223.933 -94.9229 222.893 -95.0639 221.857L-66.6341 213.568C-66.5319 213.828 -66.3943 214.078 -66.2307 214.279C-65.759 214.805 -65.0509 215.054 -64.341 214.847C-64.057 214.764 -63.8276 214.614 -63.6432 214.436L-42.7776 237.068C-43.1534 237.55 -43.3205 238.262 -43.1586 238.919C-42.9968 239.576 -42.525 240.102 -41.978 240.315L-49.6037 271.295C-49.8452 271.241 -50.1032 271.275 -50.3871 271.358ZM-136.282 265.034C-136.753 264.509 -137.462 264.26 -138.171 264.466C-138.455 264.549 -138.685 264.699 -138.869 264.877L-159.709 242.197C-159.333 241.714 -159.166 241.002 -159.328 240.345C-159.394 240.075 -159.532 239.825 -159.66 239.613C-159.888 239.307 -160.167 239.098 -160.473 238.939L-152.847 207.959C-152.57 208.002 -152.303 208.007 -152.054 207.935C-151.096 207.656 -150.515 206.616 -150.656 205.58L-122.226 197.291C-122.124 197.551 -121.987 197.801 -121.823 198.002C-121.351 198.527 -120.643 198.777 -119.933 198.57C-119.649 198.487 -119.42 198.337 -119.235 198.159L-98.3958 220.84C-98.7716 221.322 -98.9387 222.034 -98.7768 222.691C-98.615 223.348 -98.1432 223.874 -97.5962 224.087L-105.222 255.067C-105.499 255.023 -105.766 255.018 -106.015 255.091C-106.973 255.37 -107.554 256.41 -107.413 257.446L-135.843 265.735C-135.945 265.475 -136.083 265.225 -136.282 265.034ZM-79.9905 154.231C-79.749 154.285 -79.491 154.251 -79.2425 154.179C-78.9586 154.096 -78.7292 153.946 -78.5448 153.768L-57.7406 176.459C-58.1164 176.942 -58.2835 177.653 -58.1217 178.31C-57.9503 179.006 -57.488 179.493 -56.9314 179.745L-64.5572 210.725C-64.8342 210.681 -65.1017 210.677 -65.3501 210.749C-66.3084 211.028 -66.8894 212.068 -66.7483 213.104L-95.1782 221.393C-95.5322 220.419 -96.5129 219.835 -97.4712 220.114C-97.7552 220.197 -97.9846 220.347 -98.169 220.525L-119.009 197.844C-118.633 197.362 -118.466 196.65 -118.628 195.993C-118.78 195.374 -119.171 194.867 -119.683 194.643C-119.728 194.615 -119.763 194.625 -119.808 194.597L-112.183 163.617C-111.906 163.661 -111.638 163.665 -111.39 163.593C-110.431 163.314 -109.85 162.274 -109.991 161.238L-81.5616 152.949C-81.2742 153.652 -80.696 154.147 -79.9905 154.231ZM-135.083 137.974C-135.012 137.953 -134.941 137.933 -134.906 137.922C-134.622 137.839 -134.392 137.69 -134.208 137.512L-113.368 160.192C-113.647 160.605 -113.826 161.113 -113.809 161.647C-113.816 161.773 -113.778 161.928 -113.74 162.082C-113.578 162.739 -113.106 163.265 -112.559 163.478L-120.185 194.458C-120.462 194.415 -120.729 194.41 -120.978 194.482C-121.936 194.761 -122.517 195.801 -122.376 196.837L-150.806 205.126C-150.889 204.943 -150.972 204.76 -151.091 204.588C-151.555 203.936 -152.318 203.62 -153.099 203.847C-153.383 203.93 -153.612 204.08 -153.797 204.258L-174.636 181.577C-174.261 181.095 -174.093 180.383 -174.255 179.726C-174.322 179.455 -174.46 179.205 -174.588 178.994C-174.815 178.688 -175.095 178.479 -175.401 178.32L-167.775 147.34C-167.533 147.394 -167.23 147.388 -166.982 147.316C-166.024 147.036 -165.443 145.997 -165.584 144.961L-137.154 136.672C-136.854 137.579 -135.99 138.155 -135.083 137.974ZM-177.927 308.792C-178.214 308.71 -178.552 308.726 -178.872 308.819C-179.156 308.902 -179.385 309.051 -179.569 309.229L-200.409 286.549C-200.13 286.136 -199.951 285.628 -199.968 285.094C-199.961 284.968 -199.999 284.813 -200.037 284.659C-200.076 284.504 -200.104 284.388 -200.178 284.244C-200.408 283.772 -200.761 283.42 -201.228 283.224L-193.602 252.244C-193.325 252.288 -193.057 252.293 -192.809 252.22C-191.851 251.941 -191.27 250.901 -191.411 249.865L-162.981 241.576C-162.898 241.759 -162.815 241.942 -162.696 242.115C-162.642 242.182 -162.632 242.22 -162.578 242.287C-162.106 242.813 -161.398 243.062 -160.688 242.855C-160.404 242.772 -160.175 242.622 -159.99 242.444L-139.151 265.125C-139.526 265.607 -139.693 266.319 -139.532 266.976C-139.37 267.633 -138.898 268.159 -138.351 268.372L-145.977 299.352C-146.254 299.309 -146.521 299.304 -146.77 299.376C-147.728 299.656 -148.309 300.695 -148.168 301.731L-176.598 310.02C-176.821 309.422 -177.319 308.946 -177.927 308.792ZM-144.41 300.926C-144.562 300.307 -144.953 299.8 -145.465 299.576C-145.51 299.548 -145.545 299.558 -145.591 299.53L-137.965 268.55C-137.688 268.593 -137.42 268.598 -137.172 268.526C-136.214 268.246 -135.633 267.207 -135.774 266.171L-107.344 257.882C-106.99 258.856 -106.009 259.44 -105.051 259.161C-104.767 259.078 -104.537 258.928 -104.353 258.75L-83.5133 281.43C-83.6787 281.686 -83.844 281.941 -83.8839 282.243C-83.9592 282.555 -83.9445 282.924 -83.8588 283.272C-83.7255 283.813 -83.3888 284.253 -82.9742 284.547C-82.8842 284.603 -82.7941 284.66 -82.7136 284.678L-87.1538 302.795L-90.3038 315.647C-90.5808 315.604 -90.8484 315.599 -91.0968 315.671C-91.8067 315.878 -92.3053 316.48 -92.4724 317.191C-92.5218 317.454 -92.5261 317.746 -92.495 318.027L-120.925 326.316C-121.279 325.341 -122.26 324.757 -123.218 325.037C-123.502 325.119 -123.731 325.269 -123.951 325.458L-144.791 302.777C-144.38 302.284 -144.248 301.583 -144.41 300.926ZM-66.1342 341.501C-66.5393 341.246 -67.0933 341.159 -67.5902 341.304C-67.8742 341.386 -68.1036 341.536 -68.288 341.714L-89.1276 319.034C-88.9882 318.827 -88.8843 318.631 -88.7899 318.397C-88.6531 318.025 -88.6419 317.608 -88.7466 317.182C-88.8704 316.68 -89.1171 316.296 -89.4867 316.031C-89.6217 315.946 -89.7568 315.861 -89.9273 315.786L-87.9167 307.576L-82.3371 284.817C-82.0601 284.86 -81.7925 284.865 -81.5441 284.793C-80.8342 284.586 -80.3356 283.985 -80.1685 283.273C-80.1191 283.01 -80.1148 282.719 -80.1459 282.438L-51.7161 274.149C-51.5663 274.602 -51.2486 274.965 -50.879 275.23C-50.4739 275.485 -49.9199 275.572 -49.423 275.427C-49.139 275.345 -48.9096 275.195 -48.7252 275.017L-27.8596 297.648C-28.0864 297.963 -28.2328 298.296 -28.2536 298.675C-28.3029 298.938 -28.2718 299.219 -28.2051 299.489C-28.0433 300.147 -27.5716 300.672 -27.0245 300.885L-34.6147 331.855C-34.8917 331.811 -35.1592 331.807 -35.4076 331.879C-36.224 332.117 -36.791 332.904 -36.83 333.827C-36.837 333.953 -36.8344 334.118 -36.8058 334.234L-65.2357 342.523C-65.4469 342.129 -65.7645 341.766 -66.1342 341.501ZM5.26657 287.576C4.48573 287.803 3.97062 288.492 3.86755 289.31C3.84416 289.524 3.85628 289.727 3.86839 289.931L-24.5615 298.22C-24.9155 297.246 -25.8962 296.662 -26.8546 296.941C-27.1385 297.024 -27.3679 297.174 -27.5878 297.362L-48.3919 274.671C-48.1651 274.356 -48.0188 274.024 -47.998 273.645C-47.9486 273.382 -47.9798 273.101 -48.0464 272.83C-48.2083 272.173 -48.68 271.647 -49.2271 271.434L-41.6014 240.454C-41.3244 240.498 -41.0569 240.503 -40.8084 240.43C-39.8501 240.151 -39.2692 239.111 -39.4103 238.075L-10.9804 229.786C-10.6264 230.76 -9.64562 231.344 -8.68731 231.065C-8.40337 230.982 -8.17396 230.832 -7.98957 230.654L12.8501 253.335C12.6232 253.65 12.4769 253.982 12.4561 254.361C12.4068 254.624 12.4379 254.905 12.5045 255.176C12.6664 255.833 13.1382 256.358 13.6852 256.572L6.09501 287.541C5.81801 287.498 5.51502 287.503 5.26657 287.576ZM-73.0042 117.72C-72.9375 117.99 -72.8354 118.25 -72.6718 118.451C-72.4442 118.758 -72.1646 118.966 -71.8235 119.116L-79.4492 150.095L-79.4847 150.106C-79.7262 150.052 -79.9842 150.086 -80.2326 150.158C-81.191 150.438 -81.7719 151.477 -81.6308 152.513L-110.061 160.802C-110.284 160.204 -110.701 159.746 -111.239 159.571C-111.58 159.422 -111.963 159.41 -112.354 159.523C-112.638 159.606 -112.867 159.756 -113.052 159.934L-133.891 137.254C-133.515 136.771 -133.348 136.059 -133.51 135.402C-133.634 134.9 -133.881 134.516 -134.25 134.25C-134.385 134.166 -134.52 134.081 -134.691 134.006L-127.065 103.026C-126.869 103.052 -126.672 103.077 -126.459 103.015C-126.388 102.995 -126.317 102.974 -126.282 102.964C-125.323 102.684 -124.742 101.645 -124.884 100.608L-96.4536 92.3194C-96.3039 92.7729 -95.9862 93.1361 -95.6166 93.4013C-95.2565 93.6278 -94.809 93.7459 -94.338 93.65C-94.267 93.6293 -94.1961 93.6086 -94.1606 93.5983C-93.8766 93.5155 -93.6472 93.3658 -93.4628 93.1877L-72.6587 115.878C-72.9989 116.351 -73.166 117.062 -73.0042 117.72ZM-192.817 120.415C-192.667 120.869 -192.35 121.232 -191.98 121.497C-191.575 121.752 -191.021 121.839 -190.524 121.694C-190.24 121.611 -190.011 121.461 -189.826 121.283L-168.987 143.964C-169.013 144.013 -169.048 144.023 -169.074 144.072C-169.405 144.583 -169.52 145.197 -169.368 145.815C-169.206 146.472 -168.734 146.998 -168.187 147.211L-175.777 178.181C-176.054 178.137 -176.322 178.132 -176.57 178.205C-177.528 178.484 -178.109 179.524 -177.968 180.56L-206.398 188.849C-206.752 187.875 -207.733 187.291 -208.691 187.57C-208.762 187.591 -208.833 187.611 -208.869 187.622C-209.072 187.723 -209.24 187.813 -209.398 187.942L-230.238 165.261C-229.862 164.779 -229.695 164.067 -229.857 163.41C-229.981 162.908 -230.228 162.524 -230.597 162.258C-230.732 162.174 -230.867 162.089 -231.038 162.014L-223.412 131.034C-223.135 131.078 -222.868 131.083 -222.619 131.01C-222.229 130.896 -221.902 130.677 -221.675 130.362C-221.29 129.918 -221.14 129.294 -221.221 128.655L-192.827 120.376L-192.817 120.415ZM-129.467 362.535C-129.391 362.223 -129.406 361.854 -129.492 361.506C-129.654 360.849 -130.125 360.324 -130.673 360.11L-123.047 329.13C-122.77 329.174 -122.502 329.179 -122.254 329.106C-121.473 328.879 -120.958 328.19 -120.855 327.372C-120.831 327.158 -120.844 326.955 -120.856 326.751L-92.4258 318.462C-92.0718 319.436 -91.091 320.021 -90.1327 319.741C-89.8487 319.658 -89.6193 319.509 -89.3994 319.32L-68.5598 342.001C-68.9355 342.483 -69.1027 343.195 -68.9408 343.852C-68.779 344.509 -68.3072 345.035 -67.7601 345.248L-75.3858 376.228C-75.6628 376.184 -75.9303 376.18 -76.1788 376.252C-77.1371 376.531 -77.718 377.571 -77.577 378.607L-106.007 386.896C-106.109 386.636 -106.247 386.386 -106.41 386.185C-106.882 385.66 -107.59 385.41 -108.3 385.617C-108.584 385.7 -108.813 385.85 -108.998 386.028L-129.837 363.347C-129.662 363.131 -129.542 362.847 -129.467 362.535ZM20.1941 348.195C19.3778 348.433 18.8202 349.258 18.7717 350.143C18.7648 350.269 18.7674 350.434 18.7959 350.55L-9.63394 358.839C-9.98795 357.865 -10.9687 357.281 -11.927 357.56C-12.211 357.643 -12.4404 357.793 -12.6248 357.971L-33.4644 335.29C-33.2116 334.927 -33.0488 334.506 -33.0471 334.05C-33.0237 333.836 -33.0713 333.643 -33.1284 333.411C-33.2903 332.753 -33.762 332.228 -34.3091 332.014L-26.7189 301.045C-26.4419 301.089 -26.1744 301.093 -25.9259 301.021C-25.2161 300.814 -24.7174 300.213 -24.5503 299.501C-24.5079 299.364 -24.5009 299.238 -24.5035 299.073C-24.4966 298.947 -24.4992 298.782 -24.5277 298.666L3.90212 290.377C4.25613 291.351 5.23691 291.935 6.19521 291.656C6.47916 291.573 6.70855 291.423 6.92844 291.235L27.7326 313.926C27.3568 314.408 27.1898 315.12 27.3516 315.777C27.5134 316.434 27.9852 316.96 28.5323 317.173L20.9066 348.153C20.7005 348.089 20.4425 348.123 20.1941 348.195ZM31.0487 182.643C30.6583 182.757 30.332 182.976 30.1051 183.291C29.7199 183.735 29.5692 184.359 29.6506 184.998L1.22069 193.287C0.866701 192.313 -0.114079 191.729 -1.07239 192.008C-1.35633 192.091 -1.58575 192.241 -1.80564 192.429L-22.6098 169.738C-22.2341 169.256 -22.0669 168.544 -22.2288 167.887C-22.4001 167.191 -22.8624 166.704 -23.4095 166.491L-15.8288 135.483C-15.5518 135.526 -15.2842 135.531 -15.0358 135.459C-14.0775 135.179 -13.4966 134.14 -13.6376 133.104L14.7923 124.815C15.1463 125.789 16.127 126.373 17.0853 126.093C17.3693 126.011 17.5987 125.861 17.7831 125.683L38.6227 148.363C38.247 148.846 38.0799 149.558 38.2417 150.215C38.375 150.756 38.7117 151.196 39.1264 151.49C39.2164 151.547 39.3064 151.603 39.3869 151.621L31.7872 182.552C31.6002 182.565 31.3327 182.56 31.0487 182.643ZM23.3592 89.6239C23.521 90.2811 23.9928 90.8065 24.5399 91.0199L16.9142 122C16.6372 121.956 16.3697 121.951 16.1212 122.024C15.1629 122.303 14.582 123.343 14.723 124.379L-13.7068 132.668C-14.0608 131.694 -15.0416 131.11 -15.9999 131.389C-16.0709 131.41 -16.1419 131.43 -16.1774 131.441C-16.3808 131.542 -16.5488 131.632 -16.7072 131.761L-37.5468 109.08C-37.1711 108.598 -37.004 107.886 -37.1658 107.229C-37.2134 107.036 -37.306 106.814 -37.3891 106.631C-37.4082 106.554 -37.4532 106.526 -37.4982 106.497C-37.6168 106.325 -37.7614 106.201 -37.9059 106.077C-38.0409 105.993 -38.176 105.908 -38.3465 105.833L-30.7208 74.8532C-30.4438 74.8967 -30.1763 74.9016 -29.9279 74.8292C-28.9695 74.5497 -28.3886 73.5102 -28.5296 72.474L-0.099775 64.185C0.0023553 64.4453 0.139987 64.6952 0.303591 64.8961C0.775341 65.4216 1.48343 65.6709 2.19329 65.4639C2.47724 65.3811 2.70665 65.2314 2.89105 65.0533L23.7307 87.7338C23.3645 88.255 23.1974 88.9667 23.3592 89.6239ZM-149.824 77.3417C-149.54 77.2589 -149.31 77.1092 -149.126 76.9311L-128.286 99.6116C-128.662 100.094 -128.829 100.806 -128.667 101.463C-128.582 101.811 -128.435 102.1 -128.216 102.367C-128.008 102.597 -127.773 102.777 -127.522 102.869L-135.148 133.849C-135.344 133.824 -135.541 133.798 -135.754 133.86C-135.825 133.881 -135.896 133.902 -135.931 133.912C-136.89 134.191 -137.471 135.231 -137.33 136.267L-165.759 144.556C-165.842 144.373 -165.926 144.19 -166.044 144.018C-166.509 143.366 -167.272 143.049 -168.052 143.277C-168.336 143.36 -168.566 143.51 -168.75 143.688L-189.59 121.007C-189.564 120.958 -189.528 120.948 -189.502 120.899C-189.172 120.388 -189.057 119.774 -189.209 119.156C-189.371 118.499 -189.842 117.973 -190.39 117.76L-182.799 86.7903C-182.522 86.8338 -182.255 86.8387 -182.006 86.7663C-181.048 86.4869 -180.467 85.4474 -180.608 84.4112L-152.178 76.1222C-151.763 77.0369 -150.782 77.6211 -149.824 77.3417ZM-246.187 105.437C-245.903 105.355 -245.674 105.205 -245.489 105.027L-224.65 127.707C-224.676 127.756 -224.711 127.767 -224.737 127.816C-225.068 128.326 -225.183 128.94 -225.031 129.559C-224.869 130.216 -224.397 130.741 -223.85 130.955L-231.476 161.935C-231.753 161.891 -232.02 161.886 -232.269 161.959C-233.227 162.238 -233.808 163.277 -233.667 164.314L-262.097 172.603C-262.406 171.657 -263.297 171.129 -264.212 171.272C-264.283 171.293 -264.354 171.313 -264.39 171.324C-264.461 171.344 -264.532 171.365 -264.567 171.376C-264.771 171.476 -264.939 171.567 -265.097 171.696L-285.937 149.015C-285.561 148.533 -285.394 147.821 -285.556 147.164C-285.708 146.545 -286.099 146.038 -286.611 145.814C-286.656 145.786 -286.691 145.796 -286.736 145.768L-279.111 114.788C-278.834 114.831 -278.566 114.836 -278.318 114.764C-277.359 114.485 -276.779 113.445 -276.92 112.409L-248.49 104.12C-248.126 105.133 -247.145 105.717 -246.187 105.437ZM-305.081 215.715C-305.152 215.735 -305.222 215.756 -305.258 215.766C-305.461 215.867 -305.629 215.958 -305.788 216.087L-326.627 193.406C-326.252 192.924 -326.085 192.212 -326.246 191.555C-326.37 191.052 -326.617 190.668 -326.987 190.403C-327.122 190.318 -327.257 190.233 -327.427 190.159L-319.801 159.179C-319.524 159.222 -319.257 159.227 -319.008 159.155C-318.05 158.875 -317.469 157.836 -317.61 156.8L-289.18 148.511C-289.078 148.771 -288.941 149.021 -288.777 149.222C-288.305 149.747 -287.597 149.997 -286.887 149.79C-286.603 149.707 -286.374 149.557 -286.19 149.379L-265.35 172.059C-265.726 172.542 -265.893 173.254 -265.731 173.911C-265.569 174.568 -265.097 175.094 -264.55 175.307L-264.927 176.867L-272.14 206.276C-272.417 206.233 -272.685 206.228 -272.933 206.3C-273.892 206.58 -274.473 207.619 -274.332 208.656L-302.761 216.945C-303.151 215.981 -304.122 215.435 -305.081 215.715ZM-162.488 369.635C-162.893 369.38 -163.447 369.293 -163.944 369.438C-164.228 369.521 -164.457 369.67 -164.642 369.849L-185.481 347.168C-185.106 346.686 -184.939 345.974 -185.1 345.317C-185.224 344.814 -185.471 344.43 -185.841 344.165C-185.976 344.08 -186.111 343.995 -186.281 343.921L-178.655 312.941C-178.378 312.984 -178.111 312.989 -177.862 312.917C-176.904 312.637 -176.323 311.598 -176.464 310.562L-148.034 302.273C-147.885 302.726 -147.567 303.089 -147.197 303.354C-146.792 303.609 -146.238 303.696 -145.741 303.552C-145.457 303.469 -145.228 303.319 -145.044 303.141L-124.204 325.821C-124.369 326.077 -124.525 326.371 -124.575 326.634C-124.65 326.946 -124.635 327.314 -124.549 327.662C-124.416 328.204 -124.079 328.644 -123.665 328.938C-123.575 328.994 -123.485 329.051 -123.404 329.069L-131.03 360.049C-131.307 360.005 -131.575 360 -131.823 360.073C-132.533 360.28 -133.031 360.881 -133.199 361.593C-133.248 361.856 -133.252 362.147 -133.221 362.428L-161.651 370.717C-161.81 370.225 -162.128 369.861 -162.488 369.635ZM-91.9423 446.482C-92.3474 446.228 -92.9015 446.14 -93.3984 446.285C-93.6823 446.368 -93.9117 446.518 -94.0961 446.696L-114.936 424.015C-114.77 423.76 -114.605 423.505 -114.565 423.203C-114.49 422.891 -114.505 422.522 -114.59 422.174C-114.714 421.672 -114.961 421.288 -115.33 421.023C-115.465 420.938 -115.6 420.853 -115.771 420.778L-108.145 389.799C-107.868 389.842 -107.601 389.847 -107.352 389.774C-106.642 389.568 -106.144 388.966 -105.977 388.255C-105.927 387.992 -105.923 387.7 -105.954 387.419L-77.5242 379.13C-77.4221 379.391 -77.2845 379.641 -77.1208 379.841C-76.6491 380.367 -75.941 380.616 -75.2311 380.409C-74.9472 380.326 -74.7178 380.177 -74.5334 379.999L-53.6938 402.679C-54.0695 403.162 -54.2366 403.873 -54.0747 404.531C-53.9129 405.188 -53.4412 405.713 -52.8941 405.927L-60.5198 436.906C-60.7968 436.863 -61.0643 436.858 -61.3127 436.93C-62.271 437.21 -62.8519 438.249 -62.7109 439.286L-91.1408 447.575C-91.2645 447.072 -91.5467 446.699 -91.9423 446.482ZM30.2292 313.405C29.8241 313.15 29.27 313.063 28.7731 313.208C28.4892 313.291 28.2598 313.44 28.0754 313.619L7.27127 290.928C7.4981 290.613 7.64441 290.28 7.66521 289.901C7.71458 289.638 7.68341 289.357 7.60725 289.048C7.48349 288.545 7.23679 288.162 6.86717 287.896C6.73213 287.811 6.59709 287.727 6.42655 287.652L14.0168 256.682C14.2938 256.726 14.5613 256.731 14.8098 256.658C15.5906 256.431 16.1057 255.742 16.2088 254.925C16.2322 254.711 16.22 254.507 16.2079 254.303L44.6378 246.014C44.7399 246.275 44.8776 246.524 45.0412 246.725C45.5129 247.251 46.221 247.5 46.9309 247.293C47.2148 247.21 47.4442 247.061 47.6286 246.883L68.4683 269.563C68.0925 270.046 67.9254 270.757 68.0873 271.414C68.2491 272.072 68.7209 272.597 69.2679 272.811L61.6422 303.79C61.3652 303.747 61.0977 303.742 60.8493 303.814C59.891 304.094 59.31 305.133 59.4511 306.17L31.0567 314.448C30.9165 314.033 30.5988 313.67 30.2292 313.405ZM55.9313 81.1631C56.403 81.6885 57.1111 81.9378 57.821 81.7309C58.1049 81.6481 58.3344 81.4983 58.5188 81.3203L79.3584 104.001C78.9827 104.483 78.8156 105.195 78.9774 105.852C79.1392 106.509 79.611 107.035 80.1581 107.248L72.5583 138.179C72.3168 138.125 72.0138 138.131 71.7654 138.203C71.4459 138.296 71.1455 138.467 70.9447 138.732C70.4885 139.197 70.2763 139.88 70.3672 140.558L41.9373 148.847C41.5833 147.873 40.6026 147.289 39.6443 147.568C39.3603 147.651 39.1309 147.801 38.911 147.989L18.0714 125.309C18.4471 124.826 18.6142 124.115 18.4524 123.457C18.2905 122.8 17.8188 122.275 17.2717 122.061L23.1622 98.0928L24.8974 91.0814C25.1744 91.125 25.4419 91.1299 25.6904 91.0574C26.6487 90.778 27.2296 89.7385 27.0886 88.7023L55.5184 80.4133C55.6301 80.7122 55.7677 80.9622 55.9313 81.1631ZM-55.5873 48.333C-55.1389 49.0724 -54.3122 49.4944 -53.4604 49.246C-53.1764 49.1632 -52.947 49.0135 -52.7626 48.8354L-31.923 71.5159C-32.2987 71.9984 -32.4659 72.7101 -32.304 73.3673C-32.2374 73.6379 -32.1352 73.8982 -31.9716 74.0991C-31.744 74.4056 -31.4644 74.6142 -31.1233 74.7633L-38.7491 105.743C-39.0261 105.7 -39.2935 105.695 -39.542 105.767C-40.5003 106.047 -41.0812 107.086 -40.9402 108.122L-69.37 116.411C-69.6219 115.698 -70.2452 115.175 -70.9152 115.08C-71.1567 115.026 -71.4147 115.06 -71.6631 115.132C-71.9471 115.215 -72.1765 115.365 -72.3609 115.543L-93.2005 92.8625C-92.8248 92.3801 -92.6577 91.6684 -92.8195 91.0112C-92.9909 90.3153 -93.4531 89.8285 -94.0002 89.6151L-86.3745 58.6353C-86.0974 58.6788 -85.83 58.6837 -85.5815 58.6113C-84.6232 58.3319 -84.0423 57.2923 -84.1833 56.2561L-55.7535 47.9671C-55.6894 48.0727 -55.6513 48.2274 -55.5873 48.333ZM-110.978 32.4113C-110.506 32.9367 -109.798 33.1861 -109.088 32.9791C-108.804 32.8963 -108.575 32.7466 -108.39 32.5685L-87.5507 55.249C-87.9264 55.7315 -88.0936 56.4431 -87.9317 57.1004C-87.7699 57.7576 -87.2981 58.283 -86.751 58.4965L-94.3767 89.4763C-94.5733 89.4507 -94.7697 89.4252 -94.9827 89.4872C-95.0537 89.5079 -95.1247 89.5286 -95.1602 89.539C-96.1185 89.8184 -96.6994 90.8579 -96.5584 91.8941L-124.988 100.183C-125.297 99.2373 -126.188 98.7097 -127.104 98.8525C-127.175 98.8732 -127.246 98.8939 -127.281 98.9042C-127.565 98.987 -127.795 99.1368 -127.979 99.3148L-148.819 76.6343C-148.443 76.1518 -148.276 75.4401 -148.438 74.7829C-148.6 74.1256 -149.071 73.6002 -149.618 73.3869L-144.114 50.9397L-142.028 42.4173C-141.751 42.4609 -141.484 42.4657 -141.235 42.3933C-140.277 42.1139 -139.696 41.0744 -139.837 40.0382L-111.407 31.7492C-111.315 31.9708 -111.141 32.2104 -110.978 32.4113ZM-207.341 60.507C-206.869 61.0324 -206.161 61.2817 -205.451 61.0748C-205.168 60.992 -204.938 60.8422 -204.754 60.6642L-183.914 83.3447C-184.29 83.8271 -184.457 84.5388 -184.295 85.196C-184.133 85.8533 -183.661 86.3787 -183.114 86.5921L-190.705 117.562C-190.982 117.518 -191.249 117.513 -191.498 117.586C-191.959 117.72 -192.311 117.989 -192.555 118.391C-192.824 118.842 -192.958 119.379 -192.896 119.941L-221.326 128.23C-221.635 127.284 -222.525 126.756 -223.441 126.899C-223.512 126.92 -223.583 126.94 -223.619 126.951C-223.69 126.972 -223.761 126.992 -223.796 127.003C-224 127.103 -224.168 127.194 -224.326 127.323L-245.166 104.642C-245.14 104.593 -245.104 104.583 -245.078 104.534C-244.747 104.023 -244.632 103.409 -244.785 102.791C-244.946 102.134 -245.418 101.608 -245.965 101.395L-238.34 70.415C-238.063 70.4585 -237.795 70.4634 -237.547 70.391C-237.085 70.2565 -236.733 69.988 -236.49 69.5856C-236.211 69.1728 -236.086 68.5978 -236.148 68.0358L-207.719 59.7468C-207.678 60.0665 -207.505 60.3061 -207.341 60.507ZM-36.2791 462.739C-36.6842 462.484 -37.2383 462.397 -37.7352 462.542C-38.0191 462.625 -38.2485 462.774 -38.4329 462.953L-59.2726 440.272C-58.8968 439.79 -58.7297 439.078 -58.8915 438.421C-59.0534 437.763 -59.5252 437.238 -60.0723 437.025L-54.5679 414.578L-52.482 406.055C-52.205 406.099 -51.9375 406.104 -51.689 406.031C-50.7307 405.752 -50.1498 404.712 -50.2908 403.676L-21.861 395.387C-21.7589 395.647 -21.6213 395.897 -21.4576 396.098C-20.9859 396.623 -20.2778 396.873 -19.5679 396.666C-19.284 396.583 -19.0546 396.433 -18.8702 396.255L1.98591 418.848C1.61018 419.331 1.44307 420.042 1.60491 420.699C1.76676 421.357 2.23851 421.882 2.7856 422.096L-4.8401 453.075C-5.11713 453.032 -5.38462 453.027 -5.63306 453.099C-6.59139 453.379 -7.17231 454.418 -7.03126 455.455L-35.4611 463.744C-35.6013 463.329 -35.919 462.965 -36.2791 462.739ZM85.8924 329.662C85.4873 329.407 84.9688 329.309 84.4364 329.464C84.1524 329.547 83.923 329.697 83.7386 329.875L62.899 307.195C63.2747 306.712 63.4418 306 63.28 305.343C63.1181 304.686 62.6464 304.161 62.0993 303.947L67.9898 279.979L69.725 272.967C70.002 273.011 70.2695 273.016 70.518 272.943C71.4763 272.664 72.0572 271.624 71.9162 270.588L100.346 262.299C100.448 262.559 100.586 262.809 100.749 263.01C101.221 263.536 101.929 263.785 102.639 263.578C102.923 263.495 103.152 263.346 103.337 263.167L124.176 285.848C123.801 286.33 123.634 287.042 123.795 287.699C123.957 288.357 124.429 288.882 124.976 289.095L117.35 320.075C117.073 320.032 116.806 320.027 116.557 320.099C115.599 320.379 115.018 321.418 115.159 322.454L86.7294 330.743C86.5347 330.262 86.2525 329.888 85.8924 329.662ZM-14.6144 4.31564C-14.1427 4.84106 -13.4346 5.09039 -12.7247 4.88343C-12.4408 4.80064 -12.2114 4.65089 -12.027 4.47282L8.81267 27.1533C8.43694 27.6358 8.26983 28.3475 8.43167 29.0047C8.59351 29.6619 9.06527 30.1874 9.61236 30.4008L1.98664 61.3806C1.70962 61.3371 1.44214 61.3322 1.19368 61.4046C0.235379 61.684 -0.34554 62.7236 -0.204494 63.7598L-28.6344 72.0488C-28.7175 71.8658 -28.8006 71.6829 -28.9191 71.5103C-28.9737 71.4433 -28.9832 71.4046 -29.0377 71.3377C-29.5095 70.8122 -30.2176 70.5629 -30.9275 70.7698C-31.2114 70.8526 -31.4408 71.0024 -31.6252 71.1804L-52.4648 48.5C-52.0891 48.0175 -51.922 47.3058 -52.0838 46.6486C-52.1505 46.378 -52.2526 46.1177 -52.4162 45.9168C-52.6439 45.6102 -52.9235 45.4017 -53.2645 45.2525L-45.6388 14.2727C-45.3618 14.3162 -45.0943 14.3211 -44.8459 14.2487C-43.8875 13.9692 -43.3066 12.9297 -43.4477 11.8935L-15.0178 3.60454C-14.9511 3.87514 -14.778 4.11473 -14.6144 4.31564ZM-219.4 -0.202769C-219.024 -0.685241 -218.857 -1.39699 -219.019 -2.05423C-219.181 -2.71142 -219.653 -3.23682 -220.2 -3.45024L-212.574 -34.4301C-212.297 -34.3866 -212.029 -34.3817 -211.781 -34.4541C-211.461 -34.5472 -211.161 -34.7177 -210.951 -34.9448C-210.494 -35.4093 -210.282 -36.0927 -210.383 -36.8092L-181.953 -45.0982C-181.841 -44.7993 -181.704 -44.5494 -181.504 -44.3588C-181.042 -43.8721 -180.334 -43.6227 -179.66 -43.8193C-179.376 -43.9021 -179.146 -44.0519 -178.962 -44.23L-158.122 -21.5494C-158.498 -21.067 -158.665 -20.3553 -158.503 -19.6981C-158.342 -19.0409 -157.87 -18.5154 -157.323 -18.302L-164.948 12.6778C-165.225 12.6343 -165.493 12.6294 -165.741 12.7018C-166.7 12.9812 -167.281 14.0208 -167.14 15.057L-195.569 23.346C-195.672 23.0857 -195.809 22.8358 -195.973 22.6349C-196.445 22.1095 -197.153 21.8601 -197.863 22.0671C-198.146 22.1498 -198.376 22.2996 -198.56 22.4777L-219.4 -0.202769ZM-197.656 26.1504C-197.379 26.1939 -197.111 26.1988 -196.863 26.1264C-195.905 25.847 -195.324 24.8075 -195.465 23.7713L-167.035 15.4823C-166.933 15.7425 -166.795 15.9924 -166.631 16.1934C-166.16 16.7188 -165.452 16.9681 -164.742 16.7612C-164.458 16.6784 -164.228 16.5286 -164.044 16.3505L-143.204 39.0311C-143.58 39.5135 -143.747 40.2252 -143.585 40.8825C-143.424 41.5397 -142.952 42.0651 -142.405 42.2785L-150.03 73.2584C-150.307 73.2148 -150.575 73.21 -150.823 73.2824C-151.782 73.5618 -152.363 74.6013 -152.222 75.6375L-180.651 83.9265C-181.005 82.9524 -181.986 82.3682 -182.944 82.6476C-183.015 82.6683 -183.086 82.689 -183.122 82.6994C-183.325 82.8001 -183.493 82.8905 -183.652 83.0196L-204.491 60.3391C-204.116 59.8566 -203.949 59.1449 -204.11 58.4876C-204.234 57.9851 -204.481 57.6012 -204.85 57.3361C-204.986 57.2511 -205.121 57.1662 -205.291 57.0916L-197.656 26.1504ZM-239.577 67.0881C-239.603 67.1371 -239.639 67.1474 -239.665 67.1964C-239.995 67.7072 -240.111 68.3209 -239.958 68.9394C-239.796 69.5967 -239.325 70.1221 -238.778 70.3355L-246.403 101.315C-246.68 101.272 -246.948 101.267 -247.196 101.339C-247.658 101.474 -248.001 101.781 -248.253 102.145C-248.523 102.596 -248.657 103.133 -248.594 103.695L-277.024 111.984C-277.146 111.646 -277.338 111.329 -277.582 111.11C-278.025 110.701 -278.679 110.518 -279.317 110.705C-279.601 110.787 -279.831 110.937 -280.015 111.115L-300.855 88.4347C-300.479 87.9523 -300.312 87.2405 -300.474 86.5833C-300.598 86.0807 -300.844 85.6969 -301.214 85.4317C-301.349 85.3468 -301.484 85.2618 -301.654 85.1873L-294.029 54.2074C-293.752 54.251 -293.484 54.2559 -293.236 54.1834C-292.277 53.904 -291.697 52.8645 -291.838 51.8283L-263.408 43.5392C-263.054 44.5134 -262.073 45.0976 -261.115 44.8182C-260.831 44.7354 -260.601 44.5856 -260.417 44.4076L-239.577 67.0881ZM-356.473 72.2064C-356.097 71.724 -355.93 71.0123 -356.092 70.3551C-356.254 69.6978 -356.726 69.1724 -357.273 68.959L-349.647 37.9791C-349.37 38.0227 -349.102 38.0276 -348.854 37.9551C-347.896 37.6757 -347.315 36.6362 -347.456 35.6L-319.026 27.311C-318.672 28.2851 -317.691 28.8693 -316.733 28.5899C-316.449 28.5071 -316.22 28.3574 -316.035 28.1793L-295.196 50.8598C-295.571 51.3422 -295.738 52.054 -295.576 52.7112C-295.415 53.3684 -294.943 53.8938 -294.396 54.1072L-302.022 85.0871C-302.299 85.0436 -302.566 85.0387 -302.814 85.1111C-303.773 85.3905 -304.354 86.43 -304.213 87.4662L-332.643 95.7552C-332.997 94.7811 -333.977 94.1969 -334.936 94.4763C-335.22 94.5591 -335.449 94.7089 -335.633 94.887L-356.473 72.2064ZM-334.764 98.57C-334.487 98.6136 -334.22 98.6184 -333.971 98.546C-333.652 98.4529 -333.387 98.2928 -333.141 98.0553C-332.685 97.5908 -332.473 96.9075 -332.573 96.1909L-304.143 87.9019C-304.032 88.2008 -303.894 88.4507 -303.695 88.6413C-303.233 89.1281 -302.525 89.3774 -301.85 89.1808C-301.566 89.098 -301.337 88.9482 -301.153 88.7702L-280.313 111.451C-280.689 111.933 -280.856 112.645 -280.694 113.302C-280.532 113.959 -280.06 114.485 -279.513 114.698L-287.139 145.678C-287.416 145.634 -287.684 145.63 -287.932 145.702C-288.89 145.981 -289.471 147.021 -289.33 148.057L-317.76 156.346C-317.862 156.086 -318 155.836 -318.163 155.635C-318.471 155.311 -318.877 155.056 -319.305 155.015C-319.547 154.961 -319.805 154.995 -320.053 155.067C-320.337 155.15 -320.566 155.3 -320.751 155.478L-341.59 132.797C-341.215 132.315 -341.048 131.603 -341.209 130.946C-341.371 130.289 -341.843 129.763 -342.39 129.55L-334.764 98.57ZM-373.273 140.543L-344.844 132.254C-344.592 132.968 -344.004 133.501 -343.298 133.585C-343.057 133.639 -342.799 133.605 -342.55 133.533C-342.267 133.45 -342.037 133.301 -341.853 133.122L-321.013 155.803C-321.389 156.285 -321.556 156.997 -321.394 157.654C-321.232 158.312 -320.761 158.837 -320.213 159.05L-327.839 190.03L-327.875 190.041C-328.116 189.987 -328.374 190.02 -328.623 190.093C-329.581 190.372 -330.162 191.412 -330.021 192.448L-358.451 200.737C-358.703 200.023 -359.29 199.49 -359.996 199.406C-360.237 199.352 -360.495 199.386 -360.744 199.458C-361.028 199.541 -361.257 199.691 -361.441 199.869L-382.281 177.188C-381.905 176.706 -381.738 175.994 -381.9 175.337C-382.062 174.68 -382.534 174.154 -383.081 173.941L-375.455 142.961C-375.178 143.004 -374.911 143.009 -374.662 142.937C-373.713 142.619 -373.132 141.579 -373.273 140.543ZM-422.991 221.502C-422.615 221.019 -422.448 220.308 -422.61 219.65C-422.772 218.993 -423.243 218.468 -423.79 218.254L-416.165 187.275C-415.888 187.318 -415.62 187.323 -415.372 187.251C-414.414 186.971 -413.833 185.932 -413.974 184.895L-385.544 176.606C-385.292 177.32 -384.704 177.853 -383.999 177.938C-383.757 177.992 -383.499 177.958 -383.251 177.885C-382.967 177.803 -382.737 177.653 -382.553 177.475L-361.713 200.155C-362.089 200.638 -362.256 201.349 -362.094 202.007C-361.932 202.664 -361.461 203.189 -360.914 203.403L-368.539 234.382C-368.816 234.339 -369.084 234.334 -369.332 234.406C-370.291 234.686 -370.872 235.725 -370.73 236.762L-399.16 245.051C-399.514 244.077 -400.495 243.492 -401.453 243.772C-401.737 243.854 -401.967 244.004 -402.151 244.182L-422.991 221.502ZM-367.363 237.769C-366.987 237.286 -366.82 236.575 -366.982 235.917C-367.144 235.26 -367.616 234.735 -368.163 234.521L-360.537 203.541L-360.502 203.531C-360.26 203.585 -360.002 203.551 -359.754 203.479C-358.795 203.199 -358.214 202.16 -358.355 201.124L-329.926 192.835C-329.683 193.51 -329.186 193.986 -328.577 194.14C-328.29 194.223 -327.952 194.207 -327.632 194.114C-327.349 194.031 -327.119 193.881 -326.935 193.703L-306.095 216.383C-306.471 216.866 -306.638 217.578 -306.476 218.235C-306.314 218.892 -305.843 219.417 -305.295 219.631L-312.921 250.611C-313.198 250.567 -313.466 250.562 -313.714 250.635C-314.672 250.914 -315.253 251.954 -315.112 252.99L-343.542 261.279C-343.896 260.305 -344.877 259.721 -345.835 260C-346.119 260.083 -346.349 260.233 -346.533 260.411L-367.363 237.769ZM-311.7 254.025C-311.324 253.543 -311.157 252.831 -311.319 252.174C-311.471 251.555 -311.862 251.048 -312.374 250.824C-312.419 250.796 -312.455 250.806 -312.5 250.778L-304.874 219.798C-304.597 219.842 -304.329 219.846 -304.081 219.774C-303.123 219.495 -302.542 218.455 -302.683 217.419L-274.253 209.13C-273.899 210.104 -272.918 210.688 -271.96 210.409C-271.676 210.326 -271.446 210.176 -271.262 209.998L-250.422 232.679C-250.798 233.161 -250.965 233.873 -250.803 234.53C-250.737 234.801 -250.635 235.061 -250.471 235.262C-250.243 235.568 -249.964 235.777 -249.658 235.936L-257.284 266.916C-257.561 266.873 -257.828 266.868 -258.077 266.94C-259.035 267.22 -259.616 268.259 -259.475 269.295L-287.905 277.584C-287.988 277.402 -288.081 277.18 -288.19 277.046C-288.655 276.394 -289.417 276.078 -290.198 276.306C-290.482 276.388 -290.711 276.538 -290.896 276.716L-311.7 254.025ZM-296.772 314.645C-296.397 314.162 -296.23 313.45 -296.391 312.793C-296.553 312.136 -297.025 311.61 -297.572 311.397L-289.946 280.417C-289.669 280.461 -289.402 280.466 -289.153 280.393C-288.195 280.114 -287.614 279.074 -287.755 278.038L-259.325 269.749C-259.223 270.009 -259.086 270.259 -258.932 270.422C-258.46 270.947 -257.752 271.196 -257.042 270.989C-256.758 270.907 -256.528 270.757 -256.344 270.579L-235.504 293.259C-235.88 293.742 -236.047 294.453 -235.885 295.111C-235.724 295.768 -235.252 296.293 -234.705 296.507L-242.33 327.486C-242.607 327.443 -242.875 327.438 -243.123 327.511C-244.082 327.79 -244.663 328.829 -244.522 329.866L-272.951 338.155C-273.054 337.894 -273.191 337.644 -273.355 337.444C-273.827 336.918 -274.535 336.669 -275.244 336.876C-275.528 336.959 -275.758 337.108 -275.942 337.286L-296.772 314.645ZM-275.064 341.008C-274.787 341.052 -274.519 341.057 -274.271 340.984C-273.313 340.705 -272.732 339.665 -272.873 338.629L-244.443 330.34C-244.341 330.6 -244.203 330.85 -244.039 331.051C-243.568 331.576 -242.86 331.826 -242.15 331.619C-241.866 331.536 -241.636 331.386 -241.452 331.208L-220.577 353.878C-220.953 354.361 -221.12 355.073 -220.958 355.73C-220.796 356.387 -220.324 356.912 -219.777 357.126L-220.154 358.686L-227.367 388.095C-227.644 388.052 -227.912 388.047 -228.16 388.119C-229.119 388.399 -229.7 389.438 -229.559 390.474L-257.988 398.763C-258.138 398.31 -258.456 397.947 -258.825 397.682C-259.231 397.427 -259.785 397.34 -260.281 397.485C-260.565 397.567 -260.795 397.717 -260.979 397.895L-281.819 375.215C-281.443 374.732 -281.276 374.021 -281.438 373.363C-281.562 372.861 -281.808 372.477 -282.178 372.212C-282.313 372.127 -282.448 372.042 -282.619 371.967L-275.064 341.008ZM-322.59 419.588C-322.214 419.105 -322.047 418.393 -322.209 417.736C-322.371 417.079 -322.843 416.554 -323.39 416.34L-315.764 385.36C-315.487 385.404 -315.219 385.409 -314.971 385.336C-314.013 385.057 -313.432 384.017 -313.573 382.981L-285.143 374.692C-285.041 374.952 -284.903 375.202 -284.74 375.403C-284.268 375.929 -283.56 376.178 -282.85 375.971C-282.566 375.888 -282.337 375.739 -282.152 375.56L-261.313 398.241C-261.688 398.723 -261.855 399.435 -261.694 400.092C-261.532 400.75 -261.06 401.275 -260.513 401.488L-268.139 432.468C-268.416 432.425 -268.683 432.42 -268.931 432.492C-269.89 432.772 -270.471 433.811 -270.33 434.847L-298.76 443.136C-299.114 442.162 -300.094 441.578 -301.053 441.858C-301.337 441.94 -301.566 442.09 -301.75 442.268L-322.59 419.588ZM-212.475 448.725C-212.752 448.681 -213.02 448.676 -213.268 448.749C-214.227 449.028 -214.808 450.068 -214.667 451.104L-243.096 459.393C-243.45 458.419 -244.431 457.835 -245.389 458.114C-245.673 458.197 -245.903 458.347 -246.087 458.525L-266.927 435.844C-266.551 435.362 -266.384 434.65 -266.546 433.993C-266.698 433.374 -267.089 432.867 -267.601 432.643C-267.646 432.615 -267.681 432.625 -267.727 432.597L-260.101 401.617C-259.824 401.66 -259.556 401.665 -259.308 401.593C-258.349 401.313 -257.769 400.274 -257.91 399.238L-229.48 390.949C-229.126 391.923 -228.145 392.507 -227.187 392.228C-226.903 392.145 -226.673 391.995 -226.489 391.817L-205.649 414.498C-206.025 414.98 -206.192 415.692 -206.03 416.349C-205.897 416.89 -205.56 417.331 -205.146 417.624C-205.056 417.681 -204.966 417.737 -204.885 417.755L-212.475 448.725ZM-170.563 407.749C-170.188 407.266 -170.021 406.554 -170.182 405.897C-170.335 405.279 -170.726 404.771 -171.238 404.547C-171.283 404.519 -171.318 404.529 -171.363 404.501L-163.737 373.521C-163.46 373.565 -163.193 373.57 -162.944 373.497C-161.986 373.218 -161.405 372.178 -161.546 371.142L-133.116 362.853C-132.762 363.827 -131.782 364.411 -130.823 364.132C-130.539 364.049 -130.31 363.899 -130.126 363.721L-109.286 386.402C-109.513 386.717 -109.659 387.049 -109.68 387.428C-109.729 387.691 -109.698 387.972 -109.631 388.243C-109.47 388.9 -108.998 389.426 -108.451 389.639L-116.076 420.619C-116.353 420.575 -116.621 420.57 -116.869 420.643C-117.579 420.85 -118.078 421.451 -118.245 422.163C-118.294 422.426 -118.308 422.678 -118.277 422.959L-146.707 431.248C-147.061 430.274 -148.042 429.69 -149 429.969C-149.284 430.052 -149.513 430.202 -149.733 430.39L-170.563 407.749ZM-155.645 468.329C-155.27 467.847 -155.103 467.135 -155.264 466.478C-155.426 465.82 -155.898 465.295 -156.445 465.082L-148.819 434.102C-148.542 434.145 -148.275 434.15 -148.026 434.078C-147.317 433.871 -146.818 433.27 -146.651 432.558C-146.601 432.295 -146.588 432.042 -146.619 431.761L-118.189 423.472C-117.835 424.446 -116.854 425.031 -115.896 424.751C-115.612 424.668 -115.382 424.519 -115.163 424.33L-94.323 447.011C-94.6987 447.493 -94.8658 448.205 -94.7039 448.862C-94.5421 449.519 -94.0704 450.045 -93.5233 450.258L-101.149 481.238C-101.426 481.194 -101.693 481.19 -101.977 481.272C-102.936 481.552 -103.517 482.591 -103.376 483.628L-131.805 491.917C-131.889 491.734 -131.972 491.551 -132.09 491.378C-132.555 490.726 -133.318 490.41 -134.099 490.638C-134.382 490.72 -134.612 490.87 -134.796 491.048L-155.645 468.329ZM-86.276 541.79C-86.553 541.747 -86.8205 541.742 -87.0689 541.814C-88.0272 542.094 -88.6082 543.133 -88.4671 544.169L-116.897 552.458C-117.251 551.484 -118.232 550.9 -119.19 551.179C-119.474 551.262 -119.703 551.412 -119.888 551.59L-140.727 528.91C-140.352 528.427 -140.185 527.715 -140.346 527.058C-140.508 526.401 -140.98 525.876 -141.527 525.662L-133.901 494.682C-133.624 494.726 -133.357 494.731 -133.073 494.648C-132.115 494.369 -131.534 493.329 -131.675 492.293L-103.245 484.004C-103.162 484.187 -103.079 484.37 -102.96 484.542C-102.797 484.743 -102.633 484.944 -102.408 485.086C-102.003 485.34 -101.449 485.428 -100.952 485.283C-100.668 485.2 -100.438 485.05 -100.254 484.872L-79.4499 507.563C-79.8257 508.045 -79.9928 508.757 -79.8309 509.414C-79.7643 509.685 -79.6621 509.945 -79.4986 510.146C-79.2709 510.453 -78.9913 510.661 -78.6503 510.81L-86.276 541.79ZM-45.5308 497.466C-45.8078 497.423 -46.0753 497.418 -46.3237 497.49C-47.2821 497.77 -47.8629 498.809 -47.7219 499.845L-76.1518 508.134C-76.2349 507.951 -76.3179 507.769 -76.4365 507.596C-76.9014 506.944 -77.664 506.628 -78.4449 506.856C-78.7288 506.938 -78.9582 507.088 -79.1426 507.266L-99.9467 484.575C-99.571 484.093 -99.4039 483.381 -99.5657 482.724C-99.6324 482.453 -99.7345 482.193 -99.8981 481.992C-100.126 481.686 -100.405 481.477 -100.711 481.317L-93.0852 450.338C-92.8082 450.381 -92.5407 450.386 -92.2923 450.314C-91.334 450.034 -90.753 448.995 -90.8941 447.958L-62.4642 439.669C-62.1102 440.644 -61.1295 441.228 -60.1711 440.948C-59.8872 440.866 -59.6578 440.716 -59.4734 440.538L-38.6338 463.218C-39.0095 463.701 -39.1766 464.412 -39.0148 465.07C-38.8815 465.611 -38.5448 466.051 -38.1301 466.345C-38.0401 466.402 -37.9501 466.458 -37.8696 466.476L-45.5308 497.466ZM57.6491 435.105C57.2734 435.587 57.1063 436.299 57.2681 436.956C57.4299 437.613 57.9017 438.139 58.4488 438.352L50.8231 469.332C50.5461 469.288 50.2786 469.284 50.0301 469.356C49.0718 469.635 48.4909 470.675 48.6319 471.711L20.2021 480C19.8481 479.026 18.8673 478.442 17.909 478.721C17.625 478.804 17.3957 478.954 17.2112 479.132L-3.62838 456.451C-3.25265 455.969 -3.08554 455.257 -3.24738 454.6C-3.3997 453.981 -3.79095 453.474 -4.30256 453.25C-4.34756 453.222 -4.38304 453.232 -4.42807 453.204L3.19765 422.224C3.47467 422.268 3.74214 422.272 3.9906 422.2C4.94891 421.921 5.52983 420.881 5.38879 419.845L33.8186 411.556C34.1727 412.53 35.1534 413.114 36.1117 412.835C36.3957 412.752 36.6251 412.602 36.8095 412.424L57.6491 435.105ZM35.9051 408.751C35.6281 408.708 35.3606 408.703 35.1121 408.775C34.1538 409.055 33.5729 410.094 33.7139 411.131L5.28407 419.42C5.13433 418.966 4.81665 418.603 4.44703 418.338C4.04191 418.083 3.52338 417.985 2.99099 418.141C2.70703 418.223 2.47764 418.373 2.29324 418.551L-18.5464 395.871C-18.1707 395.388 -18.0035 394.677 -18.1654 394.019C-18.2892 393.517 -18.5358 393.133 -18.9055 392.868C-19.0405 392.783 -19.1755 392.698 -19.3461 392.623L-11.7204 361.643C-11.4433 361.687 -11.1759 361.692 -10.9274 361.619C-10.1111 361.381 -9.55355 360.556 -9.50501 359.672C-9.49809 359.545 -9.50066 359.38 -9.52922 359.264L18.9006 350.975C19.2546 351.949 20.2354 352.534 21.1937 352.254C21.4776 352.171 21.7071 352.022 21.8915 351.844L42.7311 374.524C42.4783 374.888 42.3155 375.308 42.3138 375.765C42.2904 375.979 42.338 376.172 42.3951 376.404C42.557 377.061 43.0287 377.586 43.5758 377.8L35.9051 408.751ZM76.6408 364.389C76.3637 364.345 76.0962 364.34 75.8478 364.413C74.8895 364.692 74.3086 365.732 74.4496 366.768L45.9842 375.067C45.6303 374.093 44.6495 373.509 43.6912 373.788C43.4072 373.871 43.1778 374.021 42.9934 374.199L22.1538 351.519C22.3806 351.204 22.5269 350.871 22.5832 350.482C22.6326 350.219 22.6014 349.938 22.5348 349.667C22.3825 349.049 21.9912 348.541 21.4796 348.317C21.4346 348.289 21.3991 348.299 21.3541 348.271L28.9798 317.291C29.2568 317.335 29.5243 317.34 29.7728 317.267C30.7311 316.988 31.312 315.948 31.171 314.912L59.6008 306.623C59.9548 307.597 60.9356 308.181 61.8939 307.902C62.1778 307.819 62.4072 307.669 62.5917 307.491L83.4313 330.172C83.0556 330.654 82.8884 331.366 83.0503 332.023C83.1836 332.565 83.5203 333.005 83.9349 333.298C84.0249 333.355 84.115 333.412 84.1955 333.43L76.6408 364.389ZM179.795 302.076C179.419 302.559 179.252 303.27 179.414 303.928C179.576 304.585 180.047 305.11 180.594 305.324L172.969 336.304C172.692 336.26 172.424 336.255 172.176 336.328C171.217 336.607 170.636 337.646 170.777 338.683L142.348 346.972C141.994 345.998 141.013 345.413 140.055 345.693C139.771 345.776 139.541 345.925 139.357 346.103L118.517 323.423C118.893 322.94 119.06 322.229 118.898 321.571C118.746 320.953 118.355 320.445 117.843 320.222C117.798 320.193 117.763 320.204 117.717 320.175L125.343 289.196C125.62 289.239 125.888 289.244 126.136 289.172C127.094 288.892 127.675 287.853 127.534 286.816L155.964 278.527C156.318 279.502 157.299 280.086 158.257 279.806C158.541 279.724 158.771 279.574 158.955 279.396L179.795 302.076ZM164.867 241.457C164.491 241.94 164.324 242.651 164.486 243.308C164.648 243.966 165.12 244.491 165.667 244.704L158.041 275.684C157.764 275.641 157.497 275.636 157.248 275.708C156.29 275.988 155.709 277.027 155.85 278.063L127.42 286.352C127.27 285.899 126.953 285.536 126.583 285.271C126.178 285.016 125.624 284.929 125.127 285.074C124.843 285.156 124.614 285.306 124.429 285.484L103.59 262.804C103.965 262.321 104.132 261.61 103.971 260.952C103.847 260.45 103.6 260.066 103.231 259.801C103.096 259.716 102.96 259.631 102.79 259.556L110.416 228.576C110.693 228.62 110.96 228.625 111.209 228.552C112.167 228.273 112.748 227.233 112.607 226.197L141.037 217.908C141.391 218.882 142.371 219.467 143.33 219.187C143.614 219.104 143.843 218.955 144.027 218.777L164.867 241.457ZM109.239 225.19C108.864 225.673 108.697 226.384 108.858 227.042C109.02 227.699 109.492 228.224 110.039 228.438L102.413 259.417C102.136 259.374 101.869 259.369 101.62 259.441C100.662 259.721 100.081 260.76 100.222 261.797L71.7924 270.086C71.4384 269.111 70.4576 268.527 69.4993 268.807C69.2154 268.889 68.986 269.039 68.8016 269.217L47.9619 246.537C48.3377 246.054 48.5048 245.343 48.3429 244.685C48.1906 244.067 47.7994 243.559 47.2878 243.336C47.2428 243.307 47.2073 243.318 47.1622 243.289L54.788 212.309C55.065 212.353 55.3325 212.358 55.5809 212.285C56.5392 212.006 57.1201 210.967 56.9791 209.93L85.409 201.641C85.763 202.615 86.7437 203.2 87.702 202.92C87.986 202.837 88.2154 202.688 88.3998 202.51L109.239 225.19ZM87.4954 198.837C87.2184 198.793 86.9509 198.788 86.7024 198.861C85.7441 199.14 85.1632 200.18 85.3042 201.216L56.8744 209.505C56.7246 209.051 56.407 208.688 56.0373 208.423C55.6322 208.168 55.0782 208.081 54.5813 208.226C54.2974 208.309 54.068 208.459 53.8835 208.637L33.0439 185.956C33.4197 185.474 33.5868 184.762 33.4249 184.105C33.3012 183.602 33.0545 183.218 32.6848 182.953C32.5498 182.868 32.4148 182.783 32.2442 182.709L39.844 151.778C40.0855 151.832 40.3885 151.826 40.6369 151.754C41.0274 151.64 41.3537 151.421 41.5805 151.106C41.9658 150.662 42.1165 150.038 42.0351 149.399L70.465 141.11C70.6147 141.563 70.9324 141.927 71.302 142.192C71.7071 142.447 72.2612 142.534 72.7581 142.389C73.042 142.306 73.2714 142.156 73.4558 141.978L94.2954 164.659C93.9197 165.141 93.7526 165.853 93.9144 166.51C94.0858 167.206 94.548 167.693 95.0951 167.906L87.4954 198.837ZM128.205 154.523C127.928 154.48 127.661 154.475 127.412 154.547C126.454 154.827 125.873 155.866 126.014 156.902L97.5841 165.191C97.2301 164.217 96.2493 163.633 95.291 163.913C95.0071 163.995 94.7777 164.145 94.5933 164.323L73.7536 141.643C74.1294 141.16 74.2965 140.449 74.1346 139.791C73.9632 139.095 73.501 138.609 72.9539 138.395L80.5537 107.464C80.8307 107.508 81.0982 107.513 81.3466 107.44C82.3049 107.161 82.8859 106.121 82.7448 105.085L111.175 96.7962C111.529 97.7703 112.509 98.3545 113.468 98.0751C113.752 97.9923 113.981 97.8426 114.166 97.6645L135.022 120.257C134.646 120.74 134.479 121.452 134.641 122.109C134.66 122.186 134.679 122.263 134.688 122.302C134.902 122.861 135.31 123.281 135.786 123.515L128.205 154.523ZM175.722 75.9051C175.346 76.3876 175.179 77.0993 175.341 77.7565C175.503 78.4137 175.974 78.9391 176.521 79.1526L168.896 110.132C168.619 110.089 168.351 110.084 168.103 110.156C167.144 110.436 166.564 111.475 166.705 112.512L138.275 120.801C137.921 119.826 136.94 119.242 135.982 119.522C135.698 119.604 135.468 119.754 135.284 119.932L114.444 97.2518C114.785 96.7796 114.945 96.1943 114.837 95.604C114.818 95.5267 114.799 95.4494 114.79 95.4107C114.628 94.7535 114.156 94.2281 113.609 94.0146L121.235 63.0348C121.512 63.0783 121.779 63.0832 122.028 63.0108C122.986 62.7314 123.567 61.6919 123.426 60.6557L151.891 52.3563C152.245 53.3304 153.226 53.9146 154.184 53.6352C154.468 53.5524 154.698 53.4027 154.882 53.2246L175.722 75.9051ZM120.104 59.6768C119.728 60.1593 119.561 60.871 119.723 61.5282C119.884 62.1854 120.356 62.7108 120.903 62.9243L113.278 93.9041C113.001 93.8606 112.733 93.8557 112.485 93.9281C111.526 94.2075 110.945 95.2471 111.086 96.2833L82.6566 104.572C82.5068 104.119 82.1891 103.756 81.8195 103.49C81.4144 103.236 80.8604 103.148 80.3635 103.293C80.0795 103.376 79.8501 103.526 79.6657 103.704L58.8261 81.0235C59.2018 80.541 59.3689 79.8293 59.2071 79.1721C59.0833 78.6695 58.8366 78.2856 58.467 78.0205C58.332 77.9355 58.1969 77.8506 58.0264 77.776L65.6521 46.7962C65.9291 46.8397 66.1966 46.8446 66.4451 46.7722C67.4034 46.4928 67.9843 45.4532 67.8433 44.417L96.2731 36.128C96.6271 37.1021 97.6079 37.6864 98.5662 37.407C98.8501 37.3242 99.0796 37.1744 99.2639 36.9964L120.104 59.6768ZM64.4404 43.4203C64.0647 43.9027 63.8975 44.6144 64.0594 45.2716C64.2212 45.9289 64.693 46.4542 65.2401 46.6677L57.6144 77.6475C57.3373 77.604 57.0699 77.5991 56.8214 77.6716C55.8631 77.951 55.2822 78.9905 55.4232 80.0267L26.9934 88.3157C26.6394 87.3416 25.6586 86.7574 24.7003 87.0368C24.4163 87.1196 24.1869 87.2693 24.0025 87.4474L3.16288 64.7669C3.53861 64.2844 3.70573 63.5727 3.54388 62.9155C3.39157 62.297 3.00032 61.7895 2.48872 61.5657C2.4437 61.5374 2.40822 61.5478 2.3632 61.5195L9.98892 30.5396C10.2659 30.5832 10.5334 30.588 10.7819 30.5156C11.7402 30.2362 12.3211 29.1966 12.1801 28.1604L40.6099 19.8714C40.9639 20.8455 41.9447 21.4298 42.903 21.1504C43.1869 21.0676 43.4164 20.9178 43.6008 20.7398L64.4404 43.4203ZM-4.92911 -30.041C-4.65209 -29.9974 -4.3846 -29.9925 -4.13614 -30.0649C-3.17784 -30.3443 -2.5969 -31.3839 -2.73794 -32.4201L25.6919 -40.7091C26.0459 -39.735 27.0267 -39.1508 27.985 -39.4302C28.2689 -39.513 28.4983 -39.6627 28.6827 -39.8408L49.5224 -17.1603C49.1466 -16.6778 48.9795 -15.9661 49.1414 -15.3089C49.3032 -14.6516 49.775 -14.1262 50.3221 -13.9128L42.6963 17.067C42.4193 17.0235 42.1518 17.0186 41.9034 17.0911C40.9451 17.3705 40.3641 18.41 40.5052 19.4462L12.0753 27.7352C11.9256 27.2816 11.6079 26.9184 11.2383 26.6533C10.8332 26.3985 10.2792 26.3114 9.78227 26.4563C9.49832 26.5391 9.26891 26.6888 9.0845 26.8669L-11.7551 4.18636C-11.3794 3.70392 -11.2123 2.99224 -11.3741 2.33499C-11.4979 1.83243 -11.7446 1.44854 -12.1142 1.18338C-12.2492 1.09845 -12.3843 1.01351 -12.5548 0.938921L-4.92911 -30.041ZM-46.8505 10.8967C-47.2263 11.3792 -47.3934 12.0909 -47.2315 12.7481C-47.1649 13.0187 -47.0628 13.279 -46.8992 13.4799C-46.6715 13.7865 -46.3919 13.995 -46.0508 14.1442L-53.6766 45.1241C-53.9536 45.0805 -54.2211 45.0756 -54.4695 45.1481C-55.4278 45.4275 -56.0088 46.467 -55.8677 47.5032L-84.2976 55.7922C-84.6516 54.818 -85.6323 54.2339 -86.5907 54.5133C-86.6616 54.534 -86.7326 54.5547 -86.7681 54.565C-86.9716 54.6658 -87.1395 54.7561 -87.2979 54.8852L-108.138 32.2048C-107.762 31.7223 -107.595 31.0105 -107.757 30.3533C-107.88 29.8507 -108.127 29.4669 -108.497 29.2017C-108.632 29.1168 -108.767 29.0319 -108.937 28.9573L-101.312 -2.02257C-101.035 -1.97902 -100.767 -1.97418 -100.519 -2.04661C-99.5603 -2.32602 -98.9793 -3.36549 -99.1204 -4.40172L-70.6905 -12.6907C-70.3365 -11.7166 -69.3558 -11.1324 -68.3974 -11.4118C-68.1135 -11.4946 -67.8841 -11.6443 -67.6997 -11.8224L-46.8505 10.8967ZM-102.469 -5.33158C-102.844 -4.84911 -103.012 -4.13737 -102.85 -3.48012C-102.688 -2.82294 -102.216 -2.29752 -101.669 -2.08411L-109.295 28.8958C-109.572 28.8522 -109.839 28.8473 -110.088 28.9198C-111.046 29.1992 -111.627 30.2387 -111.486 31.2749L-139.916 39.5639C-140.225 38.6181 -141.115 38.0905 -142.031 38.2333C-142.102 38.254 -142.173 38.2747 -142.209 38.285C-142.28 38.3057 -142.351 38.3264 -142.386 38.3367C-142.59 38.4375 -142.758 38.5279 -142.916 38.657L-163.756 15.9765C-163.38 15.494 -163.213 14.7823 -163.375 14.1251C-163.527 13.5065 -163.918 12.999 -164.43 12.7753C-164.475 12.747 -164.51 12.7573 -164.555 12.729L-156.93 -18.2509C-156.653 -18.2074 -156.385 -18.2024 -156.137 -18.2749C-155.178 -18.5543 -154.598 -19.5938 -154.739 -20.63L-126.309 -28.919C-125.955 -27.9449 -124.974 -27.3607 -124.016 -27.6401C-123.732 -27.7229 -123.502 -27.8727 -123.318 -28.0508L-102.469 -5.33158ZM-117.396 -65.9507C-117.772 -65.4683 -117.939 -64.7566 -117.777 -64.0993C-117.615 -63.4421 -117.144 -62.9167 -116.597 -62.7033L-124.222 -31.7234C-124.499 -31.767 -124.767 -31.7719 -125.015 -31.6994C-125.974 -31.42 -126.554 -30.3804 -126.413 -29.3443L-154.843 -21.0553C-154.964 -21.3929 -155.157 -21.7098 -155.401 -21.9286C-155.844 -22.3381 -156.498 -22.5205 -157.136 -22.3342C-157.42 -22.2514 -157.65 -22.1017 -157.834 -21.9236L-178.674 -44.604C-178.298 -45.0865 -178.131 -45.7983 -178.293 -46.4555C-178.417 -46.9581 -178.663 -47.3419 -179.033 -47.6071C-179.168 -47.692 -179.303 -47.7769 -179.473 -47.8515L-171.848 -78.8314C-171.571 -78.7879 -171.303 -78.783 -171.055 -78.8554C-170.096 -79.1348 -169.516 -80.1743 -169.657 -81.2105L-141.227 -89.4995C-140.873 -88.5254 -139.892 -87.9412 -138.934 -88.2206C-138.65 -88.3034 -138.42 -88.4532 -138.236 -88.6313L-117.396 -65.9507ZM-173.059 -82.2073C-173.435 -81.7248 -173.602 -81.0131 -173.44 -80.3559C-173.279 -79.6987 -172.807 -79.1732 -172.26 -78.9598L-179.885 -47.98C-180.162 -48.0235 -180.43 -48.0284 -180.678 -47.956C-181.637 -47.6765 -182.218 -46.6371 -182.077 -45.6008L-210.506 -37.3118C-210.86 -38.286 -211.841 -38.8701 -212.8 -38.5907C-213.084 -38.5079 -213.313 -38.3582 -213.497 -38.1802L-234.337 -60.8606C-233.961 -61.3431 -233.794 -62.0548 -233.956 -62.7121C-234.118 -63.3693 -234.59 -63.8947 -235.137 -64.1081L-227.511 -95.088C-227.234 -95.0444 -226.966 -95.0395 -226.718 -95.112C-225.76 -95.3914 -225.179 -96.4309 -225.32 -97.4671L-196.89 -105.756C-196.536 -104.782 -195.555 -104.198 -194.597 -104.477C-194.313 -104.56 -194.084 -104.71 -193.899 -104.888L-173.059 -82.2073Z" fill="#C6F6FE"/>
</svg>
