<svg width="240" height="479" viewBox="0 0 240 479" fill="none" xmlns="http://www.w3.org/2000/svg">
<path d="M4.17448 476.737H27.2851C27.3716 477.487 28.0064 478.093 28.7854 478.093C29.6221 478.093 30.2857 477.429 30.2857 476.592C30.2857 476.102 30.026 475.64 29.6509 475.38L41.2207 455.351C41.4226 455.438 41.6246 455.495 41.8266 455.495C42.6633 455.495 43.3269 454.832 43.3269 453.995C43.3269 453.158 42.6633 452.494 41.8266 452.494C41.5958 452.494 41.3938 452.552 41.2207 452.638L29.6509 432.609C30.026 432.349 30.2857 431.888 30.2857 431.397C30.2857 430.906 30.026 430.444 29.6509 430.185L41.2207 410.156C41.4226 410.242 41.6246 410.3 41.8266 410.3C42.6633 410.3 43.3269 409.636 43.3269 408.799C43.3269 407.962 42.6633 407.298 41.8266 407.298C41.5958 407.298 41.3938 407.356 41.2207 407.443L29.6509 387.414C30.026 387.154 30.2857 386.692 30.2857 386.201C30.2857 385.942 30.228 385.711 30.1126 385.48C29.9972 385.278 29.8529 385.105 29.6798 384.989L41.2495 364.96C41.4515 365.047 41.6534 365.104 41.8554 365.104C42.6344 365.104 43.2692 364.498 43.3557 363.748H66.4663C66.5529 364.498 67.1876 365.104 67.9666 365.104C68.1974 365.104 68.3994 365.047 68.5725 364.96L80.1422 384.989C79.7672 385.249 79.5075 385.711 79.5075 386.201C79.5075 387.038 80.1711 387.702 81.0078 387.702C81.7868 387.702 82.4216 387.096 82.5081 386.346H105.619C105.705 387.096 106.34 387.702 107.119 387.702C107.35 387.702 107.552 387.644 107.725 387.558L119.295 407.587C118.92 407.847 118.66 408.309 118.66 408.799C118.66 409.636 119.324 410.3 120.16 410.3C120.939 410.3 121.574 409.694 121.661 408.943H144.771C144.858 409.694 145.492 410.3 146.271 410.3C147.108 410.3 147.772 409.636 147.772 408.799C147.772 408.309 147.512 407.847 147.137 407.587L158.707 387.558C158.909 387.644 159.111 387.702 159.313 387.702C160.149 387.702 160.813 387.038 160.813 386.201C160.813 385.364 160.149 384.701 159.313 384.701C159.082 384.701 158.88 384.758 158.707 384.845L147.137 364.816C147.512 364.556 147.772 364.094 147.772 363.604C147.772 363.113 147.512 362.651 147.137 362.392L158.707 342.362C158.707 342.362 158.736 342.362 158.736 342.391C158.909 342.478 159.111 342.507 159.313 342.507C160.092 342.507 160.726 341.901 160.813 341.15H183.924C184.01 341.901 184.645 342.507 185.424 342.507C186.261 342.507 186.924 341.843 186.924 341.006C186.924 340.515 186.664 340.054 186.289 339.794L197.859 319.765C198.061 319.851 198.263 319.909 198.465 319.909C199.244 319.909 199.879 319.303 199.965 318.553H223.076C223.162 319.303 223.797 319.909 224.576 319.909C225.413 319.909 226.077 319.245 226.077 318.408C226.077 317.918 225.817 317.456 225.442 317.196L237.012 297.167C237.214 297.253 237.415 297.311 237.617 297.311C238.454 297.311 239.118 296.647 239.118 295.81C239.118 294.974 238.454 294.31 237.617 294.31C237.387 294.31 237.185 294.367 237.012 294.454L225.442 274.425C225.817 274.165 226.077 273.703 226.077 273.213C226.077 272.376 225.413 271.712 224.576 271.712C223.797 271.712 223.162 272.318 223.076 273.068H199.965C199.936 272.838 199.879 272.635 199.763 272.462C199.504 272.029 199.013 271.712 198.465 271.712C198.234 271.712 198.032 271.77 197.859 271.856L186.289 251.827C186.664 251.567 186.924 251.106 186.924 250.615C186.924 249.778 186.261 249.114 185.424 249.114C184.645 249.114 184.01 249.72 183.924 250.471H160.813C160.784 250.124 160.611 249.807 160.38 249.547C160.12 249.287 159.717 249.114 159.313 249.114C159.082 249.114 158.88 249.172 158.707 249.259L147.137 229.229C147.512 228.97 147.772 228.508 147.772 228.017C147.772 227.758 147.714 227.527 147.599 227.296C147.483 227.094 147.339 226.921 147.166 226.776L158.736 206.747C158.938 206.834 159.139 206.891 159.341 206.891C160.178 206.891 160.842 206.228 160.842 205.391C160.842 204.554 160.178 203.89 159.341 203.89C159.111 203.89 158.909 203.948 158.736 204.034L147.166 184.005C147.541 183.745 147.801 183.284 147.801 182.793C147.801 182.533 147.743 182.302 147.627 182.071C147.512 181.869 147.368 181.696 147.195 181.581L158.764 161.552C158.966 161.638 159.168 161.696 159.37 161.696C160.149 161.696 160.784 161.09 160.871 160.339H183.981C184.068 161.09 184.703 161.696 185.482 161.696C186.318 161.696 186.982 161.032 186.982 160.195C186.982 159.705 186.722 159.243 186.347 158.983L197.917 138.954C198.119 139.04 198.321 139.098 198.523 139.098C199.359 139.098 200.023 138.434 200.023 137.597C200.023 136.76 199.359 136.097 198.523 136.097C198.292 136.097 198.09 136.154 197.917 136.241L186.347 116.212C186.722 115.952 186.982 115.49 186.982 115C186.982 114.163 186.318 113.499 185.482 113.499C184.703 113.499 184.068 114.105 183.981 114.855H160.871C160.842 114.509 160.669 114.192 160.438 113.932C160.178 113.672 159.774 113.499 159.37 113.499C159.14 113.499 158.938 113.557 158.764 113.643L147.195 93.6141C147.57 93.3544 147.829 92.8926 147.829 92.402C147.829 91.565 147.166 90.9012 146.329 90.9012C145.55 90.9012 144.915 91.5073 144.829 92.2577H121.718C121.632 91.5073 120.997 90.9012 120.218 90.9012C119.381 90.9012 118.718 91.565 118.718 92.402C118.718 92.8926 118.977 93.3544 119.352 93.6141L107.783 113.643C107.581 113.557 107.379 113.499 107.177 113.499C106.398 113.499 105.763 114.105 105.676 114.855H82.5658C82.537 114.509 82.3639 114.192 82.1331 113.932C81.8734 113.672 81.4695 113.499 81.0655 113.499C80.8347 113.499 80.6328 113.557 80.4596 113.643L68.8899 93.6141C69.063 93.4698 69.2361 93.2967 69.3227 93.0946C69.4381 92.8926 69.4958 92.6329 69.4958 92.3731C69.4958 91.8825 69.2361 91.4207 68.8611 91.161L80.4308 71.1318C80.6327 71.2184 80.8347 71.2761 81.0367 71.2761C81.8734 71.2761 82.537 70.6123 82.537 69.7754C82.537 68.9384 81.8734 68.2747 81.0367 68.2747C80.8059 68.2747 80.6039 68.3324 80.4308 68.419L68.8611 48.3898C69.2361 48.1301 69.4958 47.6683 69.4958 47.1777C69.4958 46.9756 69.4669 46.7736 69.3804 46.6004C69.265 46.3407 69.0919 46.1387 68.8611 45.9655L80.4308 25.9364C80.6327 26.0229 80.8347 26.0807 81.0367 26.0807C81.8734 26.0807 82.537 25.4169 82.537 24.5799C82.537 23.743 81.8734 23.0792 81.0367 23.0792C80.8059 23.0792 80.6039 23.1369 80.4308 23.2235L68.8611 3.19433C69.2361 2.93458 69.4958 2.47282 69.4958 1.98219C69.4958 1.14524 68.8322 0.481445 67.9955 0.481445C67.2165 0.481445 66.5817 1.08752 66.4952 1.83789H43.3846C43.298 1.08752 42.6633 0.481445 41.8842 0.481445C41.0475 0.481445 40.384 1.14524 40.384 1.98219C40.384 2.47282 40.6436 2.93458 41.0187 3.19433L29.449 23.2235C29.247 23.1369 29.045 23.0792 28.8142 23.0792C28.0352 23.0792 27.4005 23.6852 27.3139 24.4356H4.20332C4.11678 23.6852 3.48203 23.0792 2.70302 23.0792C1.8663 23.0792 1.2027 23.743 1.2027 24.5799C1.2027 25.0706 1.46237 25.5323 1.83745 25.7921L-9.78998 45.446C-9.99194 45.3595 -10.1939 45.3017 -10.3959 45.3017C-11.1749 45.3017 -11.8096 45.9078 -11.8962 46.6582H-35.0068C-35.0356 46.3118 -35.2088 45.9944 -35.4396 45.7346C-35.6992 45.4749 -36.1031 45.3017 -36.5071 45.3017C-36.7379 45.3017 -36.9399 45.3595 -37.113 45.446L-48.6827 25.4169C-48.3076 25.1571 -48.048 24.6954 -48.048 24.2047C-48.048 23.3678 -48.7115 22.704 -49.5483 22.704C-50.3273 22.704 -50.962 23.3101 -51.0486 24.0604H-74.1592C-74.2457 23.3101 -74.8805 22.704 -75.6595 22.704C-76.4962 22.704 -77.1598 23.3678 -77.1598 24.2047C-77.1598 24.6954 -76.9001 25.1571 -76.5251 25.4169L-88.0948 45.446C-88.2968 45.3595 -88.4987 45.3017 -88.7007 45.3017C-89.5374 45.3017 -90.201 45.9655 -90.201 46.8025C-90.201 47.6394 -89.5374 48.3032 -88.7007 48.3032C-88.4698 48.3032 -88.2679 48.2455 -88.0948 48.1589L-76.5251 68.1881C-76.9001 68.4478 -77.1598 68.9096 -77.1598 69.4002C-77.1598 69.8908 -76.9001 70.3526 -76.5251 70.6124L-88.0948 90.6415C-88.2968 90.5549 -88.4987 90.4972 -88.7007 90.4972C-89.3643 90.4972 -89.9413 90.9301 -90.1433 91.565C-90.1721 91.6516 -90.201 91.7671 -90.201 91.8536H-113.312C-113.398 91.1033 -114.033 90.4972 -114.812 90.4972C-115.649 90.4972 -116.312 91.161 -116.312 91.9979C-116.312 92.4886 -116.053 92.9503 -115.677 93.2101L-127.247 113.239C-127.449 113.153 -127.651 113.095 -127.853 113.095C-128.632 113.095 -129.267 113.701 -129.353 114.451H-152.464C-152.493 114.105 -152.666 113.788 -152.897 113.528C-153.156 113.268 -153.56 113.095 -153.964 113.095C-154.195 113.095 -154.397 113.153 -154.57 113.239L-166.14 93.2101C-165.765 92.9503 -165.505 92.4886 -165.505 91.9979C-165.505 91.161 -166.169 90.4972 -167.005 90.4972C-167.784 90.4972 -168.419 91.1033 -168.506 91.8536H-191.616C-191.703 91.1033 -192.338 90.4972 -193.117 90.4972C-193.953 90.4972 -194.617 91.161 -194.617 91.9979C-194.617 92.4886 -194.357 92.9503 -193.982 93.2101L-205.552 113.239C-205.754 113.153 -205.956 113.095 -206.158 113.095C-206.995 113.095 -207.658 113.759 -207.658 114.596C-207.658 115.433 -206.995 116.096 -206.158 116.096C-205.927 116.096 -205.725 116.039 -205.552 115.952L-193.982 135.981C-194.357 136.241 -194.617 136.703 -194.617 137.193C-194.617 137.684 -194.357 138.146 -193.982 138.406L-205.552 158.435C-205.754 158.348 -205.956 158.29 -206.158 158.29C-206.995 158.29 -207.658 158.954 -207.658 159.791C-207.658 160.628 -206.995 161.292 -206.158 161.292C-205.927 161.292 -205.725 161.234 -205.552 161.148L-193.982 181.177C-194.357 181.436 -194.617 181.898 -194.617 182.389C-194.617 183.226 -193.953 183.89 -193.117 183.89C-192.338 183.89 -191.703 183.284 -191.616 182.533H-168.506C-168.419 183.284 -167.784 183.89 -167.005 183.89C-166.775 183.89 -166.573 183.832 -166.4 183.745L-154.83 203.774C-155.205 204.034 -155.465 204.496 -155.465 204.987C-155.465 205.477 -155.205 205.939 -154.83 206.199L-166.371 226.199C-166.544 226.112 -166.775 226.055 -166.977 226.055C-167.294 226.055 -167.583 226.141 -167.813 226.314C-168.188 226.545 -168.419 226.949 -168.477 227.411H-191.588C-191.674 226.661 -192.309 226.055 -193.088 226.055C-193.925 226.055 -194.588 226.719 -194.588 227.555C-194.588 228.046 -194.328 228.508 -193.953 228.768L-205.523 248.797C-205.725 248.71 -205.927 248.652 -206.129 248.652C-206.908 248.652 -207.543 249.259 -207.629 250.009H-230.74C-230.826 249.259 -231.461 248.652 -232.24 248.652C-233.077 248.652 -233.741 249.316 -233.741 250.153C-233.741 250.644 -233.481 251.106 -233.106 251.365L-244.676 271.395C-244.877 271.308 -245.079 271.25 -245.281 271.25C-246.118 271.25 -246.782 271.914 -246.782 272.751C-246.782 273.588 -246.118 274.252 -245.281 274.252C-245.051 274.252 -244.849 274.194 -244.676 274.107L-233.106 294.137C-233.481 294.396 -233.741 294.858 -233.741 295.349C-233.741 296.186 -233.077 296.849 -232.24 296.849C-231.461 296.849 -230.826 296.243 -230.74 295.493H-207.716C-207.629 296.243 -206.995 296.849 -206.216 296.849C-205.985 296.849 -205.783 296.792 -205.61 296.705L-194.04 316.734C-194.415 316.994 -194.675 317.456 -194.675 317.946C-194.675 318.783 -194.011 319.447 -193.174 319.447C-192.395 319.447 -191.761 318.841 -191.674 318.091H-168.563C-168.477 318.841 -167.842 319.447 -167.063 319.447C-166.832 319.447 -166.63 319.389 -166.457 319.303L-154.888 339.332C-155.263 339.592 -155.522 340.054 -155.522 340.544C-155.522 341.035 -155.263 341.497 -154.888 341.756L-166.457 361.785C-166.659 361.699 -166.861 361.641 -167.063 361.641C-167.9 361.641 -168.563 362.305 -168.563 363.142C-168.563 363.979 -167.9 364.643 -167.063 364.643C-166.832 364.643 -166.63 364.585 -166.457 364.498L-154.888 384.527C-155.263 384.787 -155.522 385.249 -155.522 385.74C-155.522 386.577 -154.859 387.24 -154.022 387.24C-153.243 387.24 -152.608 386.634 -152.522 385.884H-129.411C-129.325 386.634 -128.69 387.24 -127.911 387.24C-127.074 387.24 -126.41 386.577 -126.41 385.74C-126.41 385.249 -126.67 384.787 -127.045 384.527L-115.475 364.498C-115.274 364.585 -115.072 364.643 -114.87 364.643C-114.091 364.643 -113.456 364.037 -113.369 363.286H-90.2587C-90.2298 363.431 -90.201 363.575 -90.1433 363.719C-89.9125 364.267 -89.3931 364.643 -88.7584 364.643C-88.5276 364.643 -88.3256 364.585 -88.1525 364.498L-76.5828 384.527C-76.9578 384.787 -77.2175 385.249 -77.2175 385.74C-77.2175 386.577 -76.5539 387.24 -75.7172 387.24C-74.9382 387.24 -74.3034 386.634 -74.2169 385.884H-51.0486C-50.9909 386.605 -50.4138 387.154 -49.6925 387.24C-49.6348 387.24 -49.5771 387.24 -49.5483 387.24C-49.4906 387.24 -49.4329 387.24 -49.404 387.24C-49.2309 387.212 -49.0866 387.183 -48.9424 387.125L-37.3727 407.154C-37.7477 407.414 -38.0074 407.876 -38.0074 408.366C-38.0074 408.857 -37.7477 409.319 -37.3727 409.578L-48.9424 429.608C-49.1443 429.521 -49.3463 429.463 -49.5483 429.463C-50.385 429.463 -51.0486 430.127 -51.0486 430.964C-51.0486 431.801 -50.385 432.465 -49.5483 432.465C-49.3174 432.465 -49.1155 432.407 -48.9424 432.32L-37.3727 452.35C-37.7477 452.609 -38.0074 453.071 -38.0074 453.562C-38.0074 454.399 -37.3438 455.062 -36.5071 455.062C-35.7281 455.062 -35.0933 454.456 -35.0068 453.706H-11.8962C-11.8096 454.456 -11.1749 455.062 -10.3959 455.062C-10.1651 455.062 -9.96309 455.005 -9.78998 454.918L1.77974 474.947C1.40466 475.207 1.145 475.669 1.145 476.159C1.145 476.996 1.80859 477.66 2.64531 477.66C3.45317 478.093 4.08792 477.516 4.17448 476.737ZM106.052 115.75C106.311 116.01 106.715 116.183 107.119 116.183C107.35 116.183 107.552 116.125 107.725 116.039L119.295 136.068C118.92 136.328 118.66 136.789 118.66 137.28C118.66 137.771 118.92 138.232 119.295 138.492L109.081 156.184L107.725 158.521C107.523 158.435 107.321 158.377 107.119 158.377C106.34 158.377 105.705 158.983 105.619 159.733H82.5081C82.4793 159.531 82.4216 159.329 82.335 159.156C82.0753 158.694 81.5848 158.377 81.0078 158.377C80.777 158.377 80.575 158.435 80.4019 158.521L68.8322 138.492C69.2073 138.232 69.4669 137.771 69.4669 137.28C69.4669 136.789 69.2073 136.328 68.8322 136.068L80.4019 116.039C80.6039 116.125 80.8058 116.183 81.0078 116.183C81.7868 116.183 82.4216 115.577 82.5081 114.827H105.619C105.648 115.173 105.821 115.49 106.052 115.75ZM-126.382 205.16C-126.382 204.669 -126.641 204.207 -127.016 203.948L-115.447 183.918C-115.245 184.005 -115.043 184.063 -114.841 184.063C-114.062 184.063 -113.427 183.457 -113.34 182.706H-90.2298C-90.201 182.908 -90.1433 183.11 -90.0567 183.284C-89.7971 183.745 -89.3066 184.063 -88.7295 184.063C-88.4987 184.063 -88.2967 184.005 -88.1236 183.918L-76.5828 203.948C-76.8136 204.121 -76.9867 204.323 -77.0732 204.583C-77.1598 204.756 -77.1886 204.958 -77.1886 205.189C-77.1886 205.679 -76.929 206.141 -76.5539 206.401L-88.0948 226.401H-88.1236C-88.2967 226.314 -88.4987 226.286 -88.7007 226.286C-89.3354 226.286 -89.8548 226.661 -90.0856 227.209C-90.1433 227.353 -90.1721 227.498 -90.201 227.642H-113.312C-113.398 226.892 -114.033 226.286 -114.812 226.286C-115.043 226.286 -115.245 226.343 -115.447 226.43L-127.016 206.401C-126.641 206.112 -126.382 205.679 -126.382 205.16ZM-36.5071 93.5564C-35.7281 93.5564 -35.0933 92.9503 -35.0068 92.2H-11.8962C-11.8096 92.9503 -11.1749 93.5564 -10.3959 93.5564C-10.1651 93.5564 -9.96309 93.4987 -9.78998 93.4121L1.77974 113.441C1.40466 113.701 1.145 114.163 1.145 114.653C1.145 115.115 1.34695 115.548 1.69319 115.808C1.72203 115.837 1.75089 115.837 1.77974 115.866L-9.78998 135.924C-9.99194 135.837 -10.1939 135.779 -10.3959 135.779C-11.1749 135.779 -11.8096 136.385 -11.8962 137.136H-35.0068C-35.0933 136.385 -35.7281 135.779 -36.5071 135.779C-36.7379 135.779 -36.9399 135.837 -37.113 135.924L-48.6827 115.894C-48.423 115.692 -48.2211 115.433 -48.1345 115.115C-48.0768 114.971 -48.0768 114.827 -48.0768 114.653C-48.0768 114.163 -48.3365 113.701 -48.7116 113.441L-37.1418 93.4121C-36.9399 93.5275 -36.7379 93.5564 -36.5071 93.5564ZM105.619 160.08C105.705 160.83 106.34 161.436 107.119 161.436C107.35 161.436 107.552 161.378 107.725 161.292L119.295 181.321C118.92 181.581 118.66 182.043 118.66 182.533C118.66 182.995 118.862 183.428 119.208 183.688C119.237 183.716 119.266 183.716 119.295 183.745L107.725 203.774C107.523 203.688 107.321 203.63 107.119 203.63C106.34 203.63 105.705 204.236 105.619 204.987H82.5081C82.4793 204.842 82.4504 204.698 82.3927 204.554C82.1619 204.005 81.6425 203.63 81.0078 203.63C80.777 203.63 80.575 203.688 80.4019 203.774L68.8322 183.745C69.2073 183.486 69.4669 183.024 69.4669 182.533C69.4669 182.129 69.2938 181.754 69.0341 181.465C68.9764 181.408 68.9187 181.35 68.8611 181.321L80.4308 161.292C80.6327 161.378 80.8347 161.436 81.0367 161.436C81.8157 161.436 82.4504 160.83 82.537 160.08H105.619ZM118.66 227.786C118.66 228.046 118.718 228.306 118.833 228.508C118.948 228.71 119.093 228.883 119.266 228.999L107.696 249.028C107.494 248.941 107.292 248.883 107.09 248.883C106.311 248.883 105.676 249.489 105.59 250.24H82.4793C82.4504 250.095 82.4216 249.951 82.3639 249.807C82.1331 249.259 81.6137 248.883 80.9789 248.883C80.7481 248.883 80.5462 248.941 80.3731 249.028L68.8033 228.999C69.1784 228.739 69.4381 228.277 69.4381 227.786C69.4381 227.584 69.4092 227.382 69.3227 227.209C69.265 227.065 69.1784 226.949 69.0919 226.834C69.0053 226.747 68.9188 226.661 68.8033 226.574L80.3731 206.545C80.575 206.632 80.777 206.689 80.9789 206.689C81.6137 206.689 82.1331 206.314 82.3639 205.766C82.4216 205.622 82.4504 205.477 82.4793 205.333H105.59C105.619 205.535 105.676 205.737 105.763 205.91C106.023 206.372 106.513 206.689 107.09 206.689C107.321 206.689 107.523 206.632 107.696 206.545L119.266 226.574C118.92 226.834 118.66 227.267 118.66 227.786ZM118.66 273.011C118.66 273.501 118.92 273.963 119.295 274.223L109.081 291.914L107.725 294.252C107.523 294.165 107.321 294.108 107.119 294.108C106.34 294.108 105.705 294.714 105.619 295.464H82.5081C82.4793 295.262 82.4216 295.06 82.335 294.887C82.0753 294.425 81.5848 294.108 81.0078 294.108C80.777 294.108 80.575 294.165 80.4019 294.252L68.8322 274.223C69.2073 273.963 69.4669 273.501 69.4669 273.011C69.4669 272.52 69.2073 272.058 68.8322 271.799L80.4019 251.769C80.6039 251.856 80.8058 251.914 81.0078 251.914C81.7868 251.914 82.4216 251.308 82.5081 250.557H105.619C105.648 250.702 105.676 250.846 105.734 250.99C105.965 251.539 106.484 251.914 107.119 251.914C107.35 251.914 107.552 251.856 107.725 251.769L119.295 271.799C118.92 272.087 118.66 272.52 118.66 273.011ZM-74.2746 295.06C-74.5054 294.512 -75.0247 294.137 -75.6595 294.137C-75.8903 294.137 -76.0923 294.194 -76.2654 294.281L-87.8351 274.252C-87.46 273.992 -87.2003 273.53 -87.2003 273.04C-87.2003 272.549 -87.46 272.087 -87.8351 271.827L-76.2654 251.798H-76.2365C-76.0634 251.885 -75.8615 251.914 -75.6595 251.914C-74.8805 251.914 -74.2457 251.308 -74.1592 250.557H-51.0486C-50.9909 251.106 -50.6158 251.596 -50.1253 251.798C-49.9522 251.885 -49.7502 251.914 -49.5483 251.914C-49.3174 251.914 -49.1155 251.856 -48.9424 251.769L-37.3727 271.799C-37.7477 272.058 -38.0074 272.52 -38.0074 273.011C-38.0074 273.501 -37.7477 273.963 -37.3727 274.223L-48.9424 294.252C-49.0866 294.194 -49.2309 294.137 -49.404 294.137C-49.4617 294.137 -49.5194 294.137 -49.5483 294.137C-50.3273 294.137 -50.962 294.743 -51.0486 295.493H-74.1592C-74.188 295.32 -74.2169 295.176 -74.2746 295.06ZM-87.2003 227.786C-87.2003 227.267 -87.46 226.834 -87.8351 226.574L-76.2942 206.574C-76.0923 206.661 -75.8903 206.718 -75.6884 206.718C-75.0536 206.718 -74.5342 206.343 -74.3034 205.795C-74.2457 205.65 -74.2169 205.506 -74.188 205.362H-51.0486C-51.0197 205.564 -50.962 205.766 -50.8755 205.939C-50.6158 206.401 -50.1253 206.718 -49.5483 206.718C-49.3174 206.718 -49.1155 206.661 -48.9424 206.574L-37.3727 226.603C-37.7477 226.863 -38.0074 227.325 -38.0074 227.815C-38.0074 228.19 -37.892 228.508 -37.6612 228.768C-37.5746 228.854 -37.4881 228.941 -37.3727 229.027L-48.9424 249.057H-48.9712C-49.1443 248.97 -49.3463 248.941 -49.5483 248.941C-50.3273 248.941 -50.962 249.547 -51.0486 250.298H-74.1592C-74.188 249.951 -74.3611 249.634 -74.5919 249.374C-74.7362 249.23 -74.8805 249.114 -75.0824 249.057C-75.2556 248.97 -75.4575 248.941 -75.6595 248.941C-75.8903 248.941 -76.0923 248.999 -76.2654 249.085L-87.8063 229.056C-87.46 228.739 -87.2003 228.277 -87.2003 227.786ZM79.5075 250.384C79.5075 250.586 79.5363 250.788 79.6229 250.961C79.7095 251.192 79.8537 251.394 80.0557 251.539C80.0846 251.567 80.1134 251.567 80.1422 251.596L68.5725 271.625C68.3705 271.539 68.1686 271.481 67.9666 271.481C67.1876 271.481 66.5529 272.087 66.4663 272.838H43.3557C43.3269 272.636 43.2692 272.434 43.1826 272.26C42.9229 271.799 42.4325 271.481 41.8554 271.481C41.6246 271.481 41.4226 271.539 41.2495 271.625L29.6798 251.596C30.0549 251.336 30.3145 250.875 30.3145 250.384C30.3145 250.182 30.2857 249.98 30.1991 249.807C30.1703 249.749 30.1703 249.72 30.1414 249.663C30.026 249.461 29.8818 249.287 29.7086 249.172L41.2784 229.143C41.4803 229.229 41.6823 229.287 41.8842 229.287C42.6633 229.287 43.298 228.681 43.3846 227.931H66.4952C66.524 228.075 66.5529 228.219 66.6106 228.364C66.8414 228.912 67.3607 229.287 67.9955 229.287C68.2263 229.287 68.4283 229.229 68.6014 229.143L80.1711 249.172C79.7383 249.461 79.5075 249.893 79.5075 250.384ZM-36.5071 184.034C-35.93 184.034 -35.4396 183.716 -35.1799 183.255C-35.0933 183.082 -35.0356 182.88 -35.0068 182.677H-11.8962C-11.8096 183.428 -11.1749 184.034 -10.3959 184.034C-10.1651 184.034 -9.9631 183.976 -9.76114 183.89L1.80859 203.919C1.43352 204.179 1.17384 204.64 1.17384 205.131C1.17384 205.622 1.43352 206.083 1.80859 206.343L-6.55853 220.831L-9.76114 226.372C-9.9631 226.286 -10.1651 226.228 -10.367 226.228C-11.146 226.228 -11.7808 226.834 -11.8673 227.584H-34.9779C-35.0068 227.382 -35.0645 227.18 -35.151 227.007C-35.4107 226.545 -35.9012 226.228 -36.4782 226.228C-36.7091 226.228 -36.911 226.286 -37.0841 226.372L-48.6539 206.343C-48.2788 206.083 -48.0191 205.622 -48.0191 205.131C-48.0191 204.64 -48.2788 204.179 -48.6539 203.919L-37.0841 183.89C-36.9399 184.005 -36.7379 184.034 -36.5071 184.034ZM27.4582 205.881C27.7178 206.343 28.2083 206.661 28.7854 206.661C29.0162 206.661 29.2182 206.603 29.3913 206.516L40.961 226.545C40.5859 226.805 40.3262 227.267 40.3262 227.758C40.3262 227.96 40.3839 228.162 40.4417 228.335C40.5571 228.594 40.7302 228.796 40.9322 228.97L29.3624 248.999C29.1605 248.912 28.9585 248.854 28.7565 248.854C27.9775 248.854 27.3428 249.461 27.2562 250.211H4.14561C4.11676 250.009 4.05907 249.807 3.97252 249.634C3.71284 249.172 3.22235 248.854 2.64531 248.854C2.41449 248.854 2.21252 248.912 2.03941 248.999L-9.50145 228.999C-9.12637 228.739 -8.8667 228.277 -8.8667 227.786C-8.8667 227.296 -9.12637 226.834 -9.50145 226.574L2.06825 206.545C2.27022 206.632 2.4722 206.689 2.67416 206.689C3.45317 206.689 4.08792 206.083 4.17448 205.333H27.2851C27.2851 205.506 27.3716 205.708 27.4582 205.881ZM-35.93 271.625C-36.1031 271.539 -36.3051 271.51 -36.5071 271.51C-36.7379 271.51 -36.9399 271.568 -37.113 271.654L-48.6539 251.625C-48.2788 251.365 -48.0191 250.904 -48.0191 250.413C-48.0191 249.893 -48.2788 249.461 -48.6539 249.172L-37.0841 229.143C-36.8822 229.229 -36.6802 229.287 -36.4782 229.287C-35.6992 229.287 -35.0645 228.681 -34.9779 227.931H-11.8673C-11.7808 228.681 -11.146 229.287 -10.367 229.287C-10.1362 229.287 -9.93425 229.229 -9.76114 229.143L1.80859 249.172C1.43352 249.432 1.17384 249.893 1.17384 250.384C1.17384 250.846 1.37582 251.279 1.72205 251.539C1.7509 251.567 1.77975 251.567 1.80859 251.596L-9.76114 271.625C-9.9631 271.539 -10.1651 271.481 -10.367 271.481C-11.146 271.481 -11.7808 272.087 -11.8673 272.838H-34.9779C-35.0645 272.318 -35.4107 271.827 -35.93 271.625ZM2.81842 294.137C2.76073 294.137 2.70302 294.137 2.67416 294.137C2.44334 294.137 2.24138 294.194 2.06825 294.281L-9.50145 274.252C-9.21294 274.021 -8.98212 273.703 -8.89557 273.328C-8.86671 273.242 -8.8667 273.126 -8.8667 273.011C-8.8667 272.52 -9.12637 272.058 -9.50145 271.799L2.06825 251.769C2.27022 251.856 2.4722 251.914 2.67416 251.914C3.45317 251.914 4.08792 251.308 4.17448 250.557H27.2851C27.3139 250.702 27.3428 250.846 27.4005 250.99C27.6313 251.539 28.1506 251.914 28.7854 251.914C29.0162 251.914 29.2182 251.856 29.3913 251.769L40.961 271.799C40.5859 272.058 40.3262 272.52 40.3262 273.011C40.3262 273.213 40.3839 273.415 40.4417 273.588C40.5571 273.848 40.7302 274.05 40.9322 274.223L29.3624 294.252C29.1893 294.165 28.9585 294.108 28.7565 294.108C27.9775 294.108 27.3428 294.714 27.2562 295.464H4.14561C4.08792 294.771 3.53973 294.194 2.81842 294.137ZM67.2165 183.861C67.4185 183.976 67.6781 184.034 67.9378 184.034C68.1686 184.034 68.3706 183.976 68.5437 183.89L80.1134 203.919C79.8249 204.15 79.5941 204.467 79.5075 204.842C79.4786 204.929 79.4787 205.044 79.4787 205.16C79.4787 205.275 79.4786 205.362 79.5075 205.477C79.5941 205.852 79.796 206.17 80.1134 206.401L68.5437 226.43C68.3417 226.343 68.1397 226.286 67.9378 226.286C67.1588 226.286 66.524 226.892 66.4374 227.642H43.3269C43.298 227.498 43.2692 227.353 43.2115 227.209C43.1826 227.151 43.1826 227.123 43.1537 227.065C42.8941 226.603 42.4036 226.286 41.8266 226.286C41.5958 226.286 41.3938 226.343 41.2207 226.43L29.6509 206.401C30.026 206.141 30.2857 205.679 30.2857 205.189C30.2857 204.698 30.026 204.236 29.6509 203.976L41.2207 183.947C41.4226 184.034 41.6246 184.092 41.8266 184.092C42.6056 184.092 43.2403 183.486 43.3269 182.735H66.4374C66.4951 183.197 66.8126 183.63 67.2165 183.861ZM40.3262 182.533C40.3262 182.995 40.5282 183.428 40.8744 183.688C40.9033 183.716 40.9322 183.716 40.961 183.745L29.3913 203.774C29.1893 203.688 28.9873 203.63 28.7854 203.63C28.0064 203.63 27.3716 204.236 27.2851 204.987H4.17448C4.08792 204.236 3.45317 203.63 2.67416 203.63C2.44334 203.63 2.24138 203.688 2.06825 203.774L-9.50145 183.745C-9.32834 183.601 -9.15523 183.457 -9.06868 183.255C-8.95326 183.053 -8.89557 182.793 -8.89557 182.533C-8.89557 182.129 -9.06868 181.754 -9.32835 181.465C-9.38605 181.408 -9.44376 181.35 -9.50145 181.321L-2.75005 169.604L2.03941 161.292C2.24138 161.378 2.44334 161.436 2.64531 161.436C3.22235 161.436 3.71284 161.119 3.97252 160.657C4.05907 160.484 4.11676 160.282 4.14561 160.08H27.2562C27.3428 160.83 27.9775 161.436 28.7565 161.436C28.9873 161.436 29.1893 161.378 29.3913 161.292L40.961 181.321C40.5859 181.581 40.3262 182.043 40.3262 182.533ZM-11.4634 138.377C-11.2037 138.636 -10.7998 138.81 -10.3959 138.81C-10.1651 138.81 -9.96309 138.752 -9.78998 138.665L1.77974 158.694C1.63548 158.81 1.52007 158.925 1.40466 159.07C1.23155 159.301 1.145 159.589 1.145 159.907C1.145 160.282 1.26041 160.599 1.49121 160.859C1.57777 160.946 1.66432 161.032 1.77974 161.119L-1.27858 166.429L-9.76114 181.148C-9.9631 181.061 -10.1651 181.004 -10.367 181.004C-10.9441 181.004 -11.4345 181.321 -11.6942 181.783C-11.7808 181.956 -11.8385 182.158 -11.8673 182.36H-34.9779C-35.0068 182.014 -35.1799 181.696 -35.4107 181.436C-35.6704 181.177 -36.0743 181.004 -36.4782 181.004C-36.7091 181.004 -36.911 181.061 -37.0841 181.148L-48.6539 161.119C-48.423 160.946 -48.2499 160.744 -48.1634 160.484C-48.0768 160.311 -48.048 160.109 -48.048 159.907C-48.048 159.416 -48.3076 158.954 -48.6827 158.694L-37.1418 138.665C-36.9399 138.752 -36.7379 138.81 -36.5359 138.81C-35.8723 138.81 -35.2953 138.377 -35.0933 137.742C-35.0645 137.655 -35.0356 137.54 -35.0356 137.453H-11.925C-11.8673 137.799 -11.6942 138.117 -11.4634 138.377ZM-75.6884 161.436C-75.0536 161.436 -74.5342 161.061 -74.3034 160.513C-74.2457 160.368 -74.2169 160.224 -74.188 160.08H-51.0486C-50.962 160.83 -50.3273 161.436 -49.5483 161.436C-49.3174 161.436 -49.1155 161.378 -48.9135 161.292L-37.3727 181.321C-37.6035 181.494 -37.7766 181.696 -37.8631 181.956C-37.9497 182.129 -37.9786 182.331 -37.9786 182.533C-37.9786 183.024 -37.7189 183.486 -37.3438 183.745L-48.9135 203.774C-49.1155 203.688 -49.3175 203.63 -49.5194 203.63C-50.2984 203.63 -50.9332 204.236 -51.0197 204.987H-74.1303C-74.2169 204.236 -74.8516 203.63 -75.6306 203.63C-75.8615 203.63 -76.0634 203.688 -76.2365 203.774L-87.8063 183.745C-87.5754 183.572 -87.4023 183.37 -87.3158 183.11C-87.2292 182.937 -87.2003 182.735 -87.2003 182.533C-87.2003 182.043 -87.46 181.581 -87.8351 181.321L-76.2942 161.292C-76.0923 161.378 -75.8903 161.436 -75.6884 161.436ZM-48.048 295.637C-48.048 295.435 -48.0768 295.233 -48.1634 295.06C-48.2788 294.8 -48.4519 294.598 -48.6827 294.425L-37.113 274.396H-37.0841C-36.911 274.483 -36.709 274.511 -36.5071 274.511C-35.7281 274.511 -35.0933 273.905 -35.0068 273.155H-11.8962C-11.8385 273.617 -11.6077 274.021 -11.2326 274.252C-11.0018 274.425 -10.7132 274.511 -10.3959 274.511C-10.1651 274.511 -9.96309 274.454 -9.78998 274.367L1.77974 294.396C1.40466 294.656 1.145 295.118 1.145 295.608C1.145 295.984 1.26041 296.301 1.49121 296.561C1.57777 296.647 1.66432 296.734 1.77974 296.821L-9.78998 316.85C-9.93423 316.792 -10.0785 316.734 -10.2516 316.734C-10.3093 316.734 -10.367 316.734 -10.3959 316.734C-11.1749 316.734 -11.8096 317.34 -11.8962 318.091H-35.0068C-35.0356 317.744 -35.2088 317.427 -35.4396 317.167C-35.6704 316.936 -35.9877 316.763 -36.3628 316.734C-36.4205 316.734 -36.4782 316.734 -36.5071 316.734C-36.7379 316.734 -36.9399 316.792 -37.113 316.879L-48.6539 296.849C-48.2788 296.59 -48.048 296.157 -48.048 295.637ZM43.3269 318.091C43.298 317.744 43.1249 317.427 42.8941 317.167C42.6344 316.907 42.2305 316.734 41.8266 316.734C41.5958 316.734 41.3938 316.792 41.2207 316.879L29.6509 296.849C29.6798 296.821 29.7086 296.821 29.7375 296.792C30.0837 296.503 30.2857 296.099 30.2857 295.637C30.2857 295.147 30.026 294.685 29.6509 294.425L41.1918 274.396C41.3938 274.483 41.5958 274.54 41.7977 274.54C42.5767 274.54 43.2115 273.934 43.298 273.184H66.4086C66.4952 273.934 67.1299 274.54 67.9089 274.54C67.9666 274.54 68.0244 274.54 68.0532 274.54C68.2263 274.511 68.3706 274.483 68.5148 274.425L80.0845 294.454C79.7095 294.714 79.4498 295.176 79.4498 295.666C79.4498 296.041 79.5652 296.359 79.796 296.619C79.8826 296.705 79.9691 296.792 80.0845 296.878L68.5148 316.907C68.3129 316.821 68.1109 316.763 67.9089 316.763C67.5916 316.763 67.303 316.85 67.0722 317.023C66.6971 317.254 66.4663 317.658 66.4086 318.12H43.3269V318.091ZM40.4994 136.587C40.384 136.789 40.3262 137.049 40.3262 137.309C40.3262 137.799 40.5859 138.261 40.961 138.521L29.3913 158.55C29.1893 158.464 28.9873 158.406 28.7854 158.406C28.1506 158.406 27.6313 158.781 27.4005 159.329C27.3428 159.474 27.3139 159.618 27.2851 159.762H4.17448C4.08792 159.012 3.45317 158.406 2.67416 158.406C2.44334 158.406 2.24138 158.464 2.03941 158.55L-9.50145 138.521C-9.12637 138.261 -8.8667 137.799 -8.8667 137.309C-8.8667 136.818 -9.12637 136.356 -9.50145 136.097L2.06825 116.068C2.27022 116.154 2.4722 116.212 2.67416 116.212C3.45317 116.212 4.08792 115.606 4.17448 114.855H27.2851C27.3139 115.057 27.3716 115.259 27.4582 115.433C27.7178 115.894 28.2083 116.212 28.7854 116.212C29.0162 116.212 29.2182 116.154 29.3913 116.068L40.961 136.097C40.759 136.212 40.6148 136.385 40.4994 136.587ZM-75.6884 116.183C-75.0247 116.183 -74.4477 115.721 -74.2457 115.115C-74.2169 115.029 -74.188 114.913 -74.188 114.827H-51.0486C-50.962 115.577 -50.3273 116.183 -49.5483 116.183C-49.3174 116.183 -49.1155 116.125 -48.9424 116.039L-37.3727 136.068C-37.6323 136.27 -37.8343 136.53 -37.9209 136.847C-37.9785 136.991 -37.9786 137.136 -37.9786 137.309C-37.9786 137.799 -37.7189 138.261 -37.3438 138.521L-48.8847 158.55C-49.0866 158.464 -49.2886 158.406 -49.4906 158.406C-50.0676 158.406 -50.5581 158.723 -50.8178 159.185C-50.8755 159.272 -50.9043 159.358 -50.9332 159.474C-50.962 159.56 -50.9909 159.676 -50.9909 159.762H-74.1015C-74.188 159.012 -74.8228 158.406 -75.6018 158.406C-75.8326 158.406 -76.0346 158.464 -76.2365 158.55L-87.7774 138.521C-87.4023 138.261 -87.1427 137.799 -87.1427 137.309C-87.1427 136.818 -87.4023 136.356 -87.7774 136.097L-76.2077 116.068C-76.0923 116.154 -75.8903 116.183 -75.6884 116.183ZM-114.841 229.287C-114.523 229.287 -114.235 229.201 -114.004 229.027C-113.629 228.796 -113.398 228.392 -113.34 227.931H-90.2298C-90.1433 228.681 -89.5085 229.287 -88.7295 229.287C-88.4987 229.287 -88.2968 229.229 -88.0948 229.143L-76.5539 249.172C-76.929 249.432 -77.1886 249.893 -77.1886 250.384C-77.1886 250.904 -76.929 251.336 -76.5539 251.596L-88.1236 271.625C-88.3256 271.539 -88.5276 271.481 -88.7295 271.481C-89.5085 271.481 -90.1433 272.087 -90.2298 272.838H-113.34C-113.427 272.087 -114.062 271.481 -114.841 271.481C-115.072 271.481 -115.274 271.539 -115.447 271.625L-127.016 251.596C-126.641 251.336 -126.382 250.875 -126.382 250.384C-126.382 249.98 -126.555 249.605 -126.814 249.316C-126.872 249.259 -126.93 249.201 -126.988 249.172L-115.447 229.172C-115.274 229.258 -115.072 229.287 -114.841 229.287ZM-126.382 295.637C-126.382 295.147 -126.641 294.685 -127.016 294.425L-115.447 274.396C-115.245 274.483 -115.043 274.54 -114.841 274.54C-114.062 274.54 -113.427 273.934 -113.34 273.184H-90.2298C-90.1433 273.934 -89.5085 274.54 -88.7295 274.54C-88.6718 274.54 -88.6141 274.54 -88.5853 274.54C-88.4121 274.511 -88.2679 274.483 -88.1236 274.425L-76.5539 294.454C-76.929 294.714 -77.1886 295.176 -77.1886 295.666C-77.1886 295.81 -77.1598 295.984 -77.131 296.128C-77.131 296.186 -77.1021 296.215 -77.0732 296.243C-77.0155 296.388 -76.929 296.503 -76.8424 296.619C-76.7559 296.705 -76.6693 296.792 -76.5539 296.878L-88.1236 316.907C-88.3256 316.821 -88.5276 316.763 -88.7295 316.763C-89.5085 316.763 -90.1433 317.369 -90.2298 318.12H-113.34C-113.369 317.918 -113.427 317.716 -113.514 317.542C-113.773 317.081 -114.264 316.763 -114.841 316.763C-115.072 316.763 -115.274 316.821 -115.447 316.907L-127.016 296.878C-126.641 296.59 -126.382 296.157 -126.382 295.637ZM2.67416 339.361C2.44334 339.361 2.24138 339.419 2.06825 339.505L-9.50145 319.476C-9.12637 319.216 -8.8667 318.755 -8.8667 318.264C-8.8667 318.004 -8.92442 317.773 -9.03983 317.542C-9.15524 317.34 -9.2995 317.167 -9.47261 317.052L2.09712 297.023C2.24138 297.08 2.38564 297.138 2.55875 297.138C2.61646 297.138 2.67416 297.138 2.70302 297.138C3.48203 297.138 4.11678 296.532 4.20332 295.782H27.3139C27.3428 295.926 27.3716 296.07 27.4293 296.215C27.6602 296.763 28.1795 297.138 28.8142 297.138C29.045 297.138 29.247 297.08 29.4201 296.994L40.9898 317.023C40.961 317.052 40.9321 317.052 40.9033 317.081C40.557 317.369 40.3551 317.773 40.3551 318.235C40.3551 318.726 40.6148 319.187 40.9898 319.447L29.449 339.476C29.247 339.39 29.045 339.332 28.8431 339.332C28.0641 339.332 27.4293 339.938 27.3428 340.688H4.23218C4.08791 339.967 3.45317 339.361 2.67416 339.361ZM81.0078 339.361C80.777 339.361 80.575 339.419 80.4019 339.505L68.8322 319.476C68.8611 319.447 68.8899 319.447 68.9188 319.418C69.265 319.13 69.4669 318.726 69.4669 318.264C69.4669 317.773 69.2073 317.311 68.8322 317.052L80.4019 297.023C80.6039 297.109 80.8058 297.167 81.0078 297.167C81.7868 297.167 82.4216 296.561 82.5081 295.81H105.619C105.676 296.532 106.253 297.08 106.975 297.167C107.032 297.167 107.09 297.167 107.119 297.167C107.177 297.167 107.234 297.167 107.263 297.167C107.436 297.138 107.581 297.109 107.725 297.051L119.295 317.081C118.92 317.34 118.66 317.802 118.66 318.293C118.66 318.755 118.862 319.187 119.208 319.447C119.237 319.476 119.266 319.476 119.295 319.505L107.725 339.534C107.523 339.447 107.321 339.39 107.119 339.39C106.34 339.39 105.705 339.996 105.619 340.746H82.5081C82.4216 339.967 81.7868 339.361 81.0078 339.361ZM146.271 274.54C146.329 274.54 146.387 274.54 146.416 274.54C146.589 274.511 146.733 274.483 146.877 274.425L158.447 294.454C158.072 294.714 157.812 295.176 157.812 295.666C157.812 296.041 157.928 296.359 158.159 296.619C158.245 296.705 158.332 296.792 158.447 296.878L146.877 316.907C146.675 316.821 146.473 316.763 146.271 316.763C145.492 316.763 144.858 317.369 144.771 318.12H121.661C121.632 317.918 121.574 317.716 121.487 317.542C121.228 317.081 120.737 316.763 120.16 316.763C119.929 316.763 119.727 316.821 119.554 316.907L107.985 296.878C108.36 296.619 108.619 296.157 108.619 295.666C108.619 295.176 108.36 294.714 107.985 294.454L108.562 293.444L119.525 274.425C119.727 274.511 119.929 274.569 120.131 274.569C120.91 274.569 121.545 273.963 121.632 273.213H144.742C144.858 273.934 145.492 274.54 146.271 274.54ZM66.8702 138.348C67.1299 138.608 67.5338 138.781 67.9378 138.781C68.1686 138.781 68.3706 138.723 68.5437 138.636L80.1134 158.666C79.7383 158.925 79.4787 159.387 79.4787 159.878C79.4787 160.253 79.5941 160.57 79.8249 160.83C79.9114 160.917 79.998 161.003 80.1134 161.09L68.5437 181.119C68.3417 181.032 68.1397 180.975 67.9378 180.975C67.1588 180.975 66.524 181.581 66.4374 182.331H43.3269C43.298 181.985 43.1249 181.667 42.8941 181.408C42.6344 181.148 42.2305 180.975 41.8266 180.975C41.5958 180.975 41.3938 181.032 41.2207 181.119L29.6509 161.09C29.8241 160.946 29.9972 160.772 30.0837 160.599C30.1991 160.397 30.2568 160.137 30.2568 159.878C30.2568 159.474 30.0837 159.098 29.8241 158.81C29.7664 158.752 29.7086 158.694 29.6509 158.666L41.2207 138.636C41.4226 138.723 41.6246 138.781 41.8266 138.781C42.4036 138.781 42.8941 138.463 43.1537 138.001C43.2403 137.828 43.298 137.626 43.3269 137.424H66.4374C66.4663 137.799 66.6394 138.117 66.8702 138.348ZM27.7178 70.4969C27.9775 70.7566 28.3814 70.9298 28.7854 70.9298C29.0162 70.9298 29.2182 70.8721 29.3913 70.7855L40.961 90.8147C40.7879 90.959 40.6148 91.1033 40.5282 91.3053C40.4128 91.5073 40.3551 91.7671 40.3551 92.0268C40.3551 92.402 40.4705 92.7195 40.7013 92.9792C40.7879 93.0658 40.8745 93.1524 40.9898 93.2389L29.4201 113.268C29.2182 113.182 29.0162 113.124 28.8142 113.124C28.2372 113.124 27.7467 113.441 27.487 113.903C27.4005 114.076 27.3428 114.278 27.3139 114.48H4.20332C4.17447 114.278 4.11678 114.076 4.03023 113.903C3.77055 113.441 3.28006 113.124 2.70302 113.124C2.4722 113.124 2.27023 113.182 2.09712 113.268L-9.50145 93.2967C-9.12637 93.0369 -8.8667 92.5752 -8.8667 92.0845C-8.8667 91.5939 -9.12637 91.1321 -9.50145 90.8724L2.06825 70.8432C2.27022 70.9298 2.4722 70.9875 2.67416 70.9875C3.45317 70.9875 4.08792 70.3815 4.17448 69.6311H27.2851C27.3139 69.9486 27.4582 70.266 27.7178 70.4969ZM-89.7971 138.377C-89.5374 138.636 -89.1335 138.81 -88.7295 138.81C-88.4987 138.81 -88.2967 138.752 -88.1236 138.665L-76.5828 158.694C-76.8136 158.868 -76.9867 159.07 -77.0732 159.329C-77.1598 159.503 -77.1886 159.705 -77.1886 159.935C-77.1886 160.311 -77.0733 160.628 -76.8424 160.888C-76.7559 160.974 -76.6693 161.061 -76.5539 161.148L-88.0948 181.177C-88.2968 181.09 -88.4987 181.032 -88.7007 181.032C-89.3354 181.032 -89.8548 181.408 -90.0856 181.956C-90.1433 182.1 -90.1721 182.245 -90.201 182.389H-113.312C-113.34 182.187 -113.398 181.985 -113.485 181.812C-113.744 181.35 -114.235 181.032 -114.812 181.032C-115.043 181.032 -115.245 181.09 -115.418 181.177L-126.988 161.148C-126.612 160.888 -126.353 160.426 -126.353 159.935C-126.353 159.445 -126.612 158.983 -126.988 158.723L-115.418 138.694C-115.216 138.781 -115.014 138.838 -114.812 138.838C-114.033 138.838 -113.398 138.232 -113.312 137.482H-90.201C-90.201 137.828 -90.0279 138.146 -89.7971 138.377ZM-152.666 294.916C-152.926 294.454 -153.416 294.137 -153.993 294.137C-154.224 294.137 -154.426 294.194 -154.599 294.281L-166.169 274.252C-165.794 273.992 -165.534 273.53 -165.534 273.04C-165.534 272.549 -165.794 272.087 -166.169 271.827L-154.628 251.827C-154.455 251.914 -154.224 251.971 -154.022 251.971C-153.762 251.971 -153.503 251.914 -153.301 251.769C-152.868 251.539 -152.579 251.106 -152.522 250.615H-129.411C-129.325 251.365 -128.69 251.971 -127.911 251.971C-127.68 251.971 -127.478 251.914 -127.276 251.827L-115.706 271.856C-116.081 272.116 -116.341 272.578 -116.341 273.068C-116.341 273.559 -116.081 274.021 -115.706 274.281L-124.65 289.779L-127.276 294.31C-127.478 294.223 -127.68 294.165 -127.882 294.165C-128.661 294.165 -129.296 294.771 -129.382 295.522H-152.493C-152.522 295.291 -152.579 295.089 -152.666 294.916ZM-74.2169 340.429C-74.4188 339.823 -74.967 339.361 -75.6595 339.361C-75.8903 339.361 -76.0923 339.419 -76.2654 339.505L-87.8351 319.476C-87.46 319.216 -87.2003 318.755 -87.2003 318.264C-87.2003 318.062 -87.2292 317.86 -87.3158 317.687C-87.4312 317.427 -87.6043 317.225 -87.8351 317.052L-76.2654 297.023C-76.0634 297.109 -75.8615 297.167 -75.6595 297.167C-74.8805 297.167 -74.2457 296.561 -74.1592 295.81H-51.0486C-50.9909 296.359 -50.6158 296.849 -50.1253 297.051C-49.9522 297.138 -49.7502 297.167 -49.5483 297.167C-49.3174 297.167 -49.1155 297.109 -48.9424 297.023L-37.3727 317.052C-37.7477 317.311 -38.0074 317.773 -38.0074 318.264C-38.0074 318.783 -37.7477 319.216 -37.3727 319.476L-48.9424 339.505C-49.1443 339.419 -49.3463 339.361 -49.5483 339.361C-50.3273 339.361 -50.962 339.967 -51.0486 340.717H-74.1592C-74.188 340.631 -74.188 340.515 -74.2169 340.429ZM-35.1799 362.767C-35.4396 362.305 -35.93 361.988 -36.5071 361.988C-36.7379 361.988 -36.9399 362.045 -37.113 362.132L-48.6827 342.103C-48.3076 341.843 -48.048 341.381 -48.048 340.89C-48.048 340.4 -48.3076 339.938 -48.6827 339.678L-37.113 319.649C-36.9687 319.707 -36.8245 319.765 -36.6513 319.765C-36.5936 319.765 -36.5359 319.765 -36.5071 319.765C-35.7281 319.765 -35.0933 319.159 -35.0068 318.408H-11.8962C-11.8385 319.13 -11.2614 319.678 -10.5401 319.765C-10.4824 319.765 -10.4247 319.765 -10.3959 319.765C-10.1651 319.765 -9.96309 319.707 -9.78998 319.62L1.77974 339.65C1.40466 339.909 1.145 340.371 1.145 340.862C1.145 341.352 1.40466 341.814 1.77974 342.074L-6.58739 356.591L-9.76114 362.103C-9.9631 362.016 -10.1651 361.959 -10.367 361.959C-11.146 361.959 -11.7808 362.565 -11.8673 363.315H-34.9779C-35.0068 363.142 -35.0645 362.94 -35.1799 362.767ZM43.1537 362.767C42.8941 362.305 42.4036 361.988 41.8266 361.988C41.5958 361.988 41.3938 362.045 41.2207 362.132L29.6509 342.103C30.026 341.843 30.2857 341.381 30.2857 340.89C30.2857 340.4 30.026 339.938 29.6509 339.678L41.1918 319.649C41.3938 319.736 41.5958 319.793 41.7977 319.793C42.1728 319.793 42.4901 319.678 42.7498 319.447C43.0384 319.187 43.2403 318.841 43.298 318.437H66.4086C66.4663 319.159 67.0434 319.707 67.7647 319.793C67.8224 319.793 67.8801 319.793 67.9089 319.793C67.9666 319.793 68.0244 319.793 68.0532 319.793C68.2263 319.765 68.3706 319.736 68.5148 319.678L80.0845 339.707C80.0557 339.736 80.0268 339.736 79.998 339.765C79.6517 340.054 79.4498 340.458 79.4498 340.919C79.4498 341.41 79.7095 341.872 80.0845 342.132L68.5148 362.161C68.3129 362.074 68.1109 362.016 67.9089 362.016C67.5339 362.016 67.2165 362.132 66.9568 362.363C66.6683 362.594 66.4663 362.969 66.4086 363.373H43.298C43.3269 363.142 43.2692 362.94 43.1537 362.767ZM-11.4634 47.8992C-11.2037 48.1589 -10.7998 48.3321 -10.3959 48.3321C-10.1651 48.3321 -9.96309 48.2744 -9.78998 48.1878L1.77974 68.2169C1.40466 68.4767 1.145 68.9384 1.145 69.4291C1.145 69.9197 1.40466 70.3815 1.77974 70.6412L-6.58739 85.158L-9.76114 90.6704C-9.9631 90.5838 -10.1651 90.5261 -10.367 90.5261C-11.146 90.5261 -11.7808 91.1321 -11.8673 91.8825H-34.9779C-35.0068 91.6805 -35.0645 91.4785 -35.151 91.3053C-35.4107 90.8435 -35.9012 90.5261 -36.4782 90.5261C-36.7091 90.5261 -36.911 90.5838 -37.0841 90.6704L-48.6539 70.6412C-48.2788 70.3815 -48.0191 69.9197 -48.0191 69.4291C-48.0191 68.9384 -48.2788 68.4767 -48.6539 68.2169L-37.0841 48.1878C-36.8822 48.2744 -36.6802 48.3321 -36.4782 48.3321C-35.6992 48.3321 -35.0645 47.726 -34.9779 46.9756H-11.8673C-11.8673 47.322 -11.6942 47.6394 -11.4634 47.8992ZM-128.949 115.75C-128.69 116.01 -128.315 116.183 -127.882 116.183C-127.651 116.183 -127.449 116.125 -127.276 116.039L-115.706 136.068C-116.081 136.328 -116.341 136.789 -116.341 137.28C-116.341 137.771 -116.081 138.232 -115.706 138.492L-124.65 153.99L-127.276 158.521C-127.478 158.435 -127.68 158.377 -127.882 158.377C-128.661 158.377 -129.296 158.983 -129.382 159.733H-152.493C-152.522 159.531 -152.579 159.329 -152.666 159.156C-152.926 158.694 -153.416 158.377 -153.993 158.377C-154.224 158.377 -154.426 158.435 -154.599 158.521L-166.198 138.521C-165.823 138.261 -165.563 137.799 -165.563 137.309C-165.563 136.818 -165.823 136.356 -166.198 136.097L-154.628 116.068C-154.426 116.154 -154.224 116.212 -154.022 116.212C-153.243 116.212 -152.608 115.606 -152.522 114.855H-129.411C-129.353 115.202 -129.209 115.519 -128.949 115.75ZM-113.514 362.767C-113.773 362.305 -114.264 361.988 -114.841 361.988C-115.072 361.988 -115.274 362.045 -115.447 362.132L-127.016 342.103C-126.641 341.843 -126.382 341.381 -126.382 340.89C-126.382 340.4 -126.641 339.938 -127.016 339.678L-115.447 319.649C-115.245 319.736 -115.043 319.793 -114.841 319.793C-114.062 319.793 -113.427 319.187 -113.34 318.437H-90.2298C-90.201 318.581 -90.1721 318.726 -90.1144 318.87C-90.0856 318.928 -90.0856 318.957 -90.0567 319.014C-89.7971 319.476 -89.3066 319.793 -88.7295 319.793C-88.4987 319.793 -88.2967 319.736 -88.1236 319.649L-76.5539 339.678C-76.929 339.938 -77.1886 340.4 -77.1886 340.89C-77.1886 341.092 -77.1598 341.295 -77.0732 341.468C-76.9578 341.727 -76.7847 341.929 -76.5539 342.103L-88.1236 362.132C-88.3256 362.045 -88.5276 361.988 -88.7295 361.988C-89.5085 361.988 -90.1433 362.594 -90.2298 363.344H-113.34C-113.34 363.142 -113.427 362.94 -113.514 362.767ZM40.961 407.529C40.5859 407.789 40.3262 408.251 40.3262 408.741C40.3262 409.232 40.5859 409.694 40.961 409.954L29.3913 429.983C29.1893 429.896 28.9873 429.838 28.7854 429.838C28.5257 429.838 28.2661 429.896 28.0641 430.012C27.6313 430.242 27.3428 430.675 27.2851 431.195H4.17448C4.14563 430.964 4.08792 430.762 3.97252 430.589C3.71284 430.156 3.22235 429.838 2.67416 429.838C2.44334 429.838 2.24138 429.896 2.06825 429.983L-9.50145 409.954C-9.12637 409.694 -8.8667 409.232 -8.8667 408.741C-8.8667 408.251 -9.12637 407.789 -9.50145 407.529L2.06825 387.5C2.27022 387.587 2.4722 387.644 2.67416 387.644C3.45317 387.644 4.08792 387.038 4.17448 386.288H27.2851C27.3139 386.49 27.3716 386.692 27.4582 386.865C27.7178 387.327 28.2083 387.644 28.7854 387.644C29.0162 387.644 29.2182 387.587 29.3913 387.5L40.961 407.529ZM29.3913 384.73C29.1893 384.643 28.9873 384.585 28.7854 384.585C28.0064 384.585 27.3716 385.191 27.2851 385.942H4.17448C4.14563 385.74 4.08792 385.538 4.00136 385.364C3.74168 384.903 3.25121 384.585 2.67416 384.585C2.44334 384.585 2.24138 384.643 2.06825 384.73L-9.50145 364.7C-9.12637 364.441 -8.8667 363.979 -8.8667 363.488C-8.8667 362.998 -9.12637 362.536 -9.50145 362.276L2.06825 342.247C2.27022 342.334 2.4722 342.391 2.67416 342.391C3.45317 342.391 4.08792 341.785 4.17448 341.035H27.2851C27.3716 341.785 28.0064 342.391 28.7854 342.391C28.8431 342.391 28.9008 342.391 28.9297 342.391C29.1028 342.362 29.247 342.334 29.3913 342.276L40.961 362.305C40.5859 362.565 40.3262 363.026 40.3262 363.517C40.3262 363.892 40.4417 364.21 40.6725 364.469C40.759 364.556 40.8456 364.643 40.961 364.729L29.3913 384.73ZM68.8322 364.729C68.8611 364.7 68.8899 364.7 68.9188 364.672C69.265 364.383 69.4669 363.979 69.4669 363.517C69.4669 363.026 69.2073 362.565 68.8322 362.305L80.4019 342.276C80.6039 342.362 80.8058 342.42 81.0078 342.42C81.3829 342.42 81.7003 342.276 81.9599 342.074C82.2484 341.814 82.4504 341.468 82.5081 341.064H105.619C105.648 341.323 105.734 341.583 105.878 341.785C106.138 342.16 106.6 342.42 107.119 342.42C107.35 342.42 107.552 342.362 107.725 342.276L119.295 362.305C118.92 362.565 118.66 363.026 118.66 363.517C118.66 363.892 118.775 364.21 119.006 364.469C119.093 364.556 119.179 364.643 119.295 364.729L107.725 384.758C107.523 384.672 107.321 384.614 107.119 384.614C106.34 384.614 105.705 385.22 105.619 385.971H82.5081C82.4216 385.22 81.7868 384.614 81.0078 384.614C80.777 384.614 80.575 384.672 80.4019 384.758L68.8322 364.729ZM158.447 384.903C158.072 385.162 157.812 385.624 157.812 386.115C157.812 386.605 158.072 387.067 158.447 387.327L146.877 407.356C146.675 407.27 146.473 407.212 146.271 407.212C145.492 407.212 144.858 407.818 144.771 408.568H121.661C121.574 407.818 120.939 407.212 120.16 407.212C119.929 407.212 119.727 407.27 119.554 407.356L107.985 387.327C108.36 387.067 108.619 386.605 108.619 386.115C108.619 385.624 108.36 385.162 107.985 384.903L119.554 364.874C119.756 364.96 119.958 365.018 120.16 365.018C120.939 365.018 121.574 364.412 121.661 363.661H144.771C144.858 364.412 145.492 365.018 146.271 365.018C146.502 365.018 146.704 364.96 146.877 364.874L158.447 384.903ZM146.906 362.132C146.704 362.045 146.502 361.988 146.3 361.988C146.041 361.988 145.81 362.045 145.579 362.161C145.146 362.392 144.858 362.824 144.8 363.344H121.689C121.661 363.113 121.603 362.911 121.487 362.738C121.228 362.305 120.737 361.988 120.189 361.988C119.958 361.988 119.756 362.045 119.583 362.132L108.013 342.103C108.389 341.843 108.648 341.381 108.648 340.89C108.648 340.4 108.389 339.938 108.013 339.678L119.583 319.649C119.785 319.736 119.987 319.793 120.189 319.793C120.968 319.793 121.603 319.187 121.689 318.437H144.8C144.829 318.639 144.887 318.841 144.973 319.014C145.146 319.303 145.406 319.563 145.723 319.678C145.896 319.765 146.098 319.793 146.3 319.793C146.531 319.793 146.733 319.736 146.906 319.649L158.476 339.678C158.101 339.938 157.841 340.4 157.841 340.89C157.841 341.381 158.101 341.843 158.476 342.103L146.906 362.132ZM183.952 340.717H160.842C160.784 340.169 160.438 339.678 159.918 339.476C159.745 339.39 159.543 339.361 159.341 339.361C159.111 339.361 158.909 339.419 158.736 339.505L147.166 319.476C147.541 319.216 147.801 318.755 147.801 318.264C147.801 317.773 147.541 317.311 147.166 317.052L158.736 297.023H158.764C158.938 297.109 159.139 297.138 159.341 297.138C160.12 297.138 160.755 296.532 160.842 295.782H183.952C184.01 296.33 184.356 296.821 184.876 297.023C185.049 297.109 185.251 297.138 185.453 297.138C185.683 297.138 185.885 297.08 186.059 296.994L197.628 317.023C197.253 317.283 196.994 317.744 196.994 318.235C196.994 318.726 197.253 319.187 197.628 319.447L186.059 339.476C185.857 339.39 185.655 339.332 185.453 339.332C184.674 339.39 184.039 339.967 183.952 340.717ZM236.781 294.425C236.406 294.685 236.146 295.147 236.146 295.637C236.146 296.128 236.406 296.59 236.781 296.849L225.211 316.879C225.009 316.792 224.807 316.734 224.605 316.734C223.826 316.734 223.191 317.34 223.105 318.091H199.994C199.936 317.542 199.59 317.052 199.071 316.85C198.898 316.763 198.696 316.734 198.494 316.734C198.263 316.734 198.061 316.792 197.888 316.879L186.318 296.849C186.693 296.59 186.953 296.128 186.953 295.637C186.953 295.147 186.693 294.685 186.318 294.425L197.888 274.396C198.09 274.483 198.292 274.54 198.494 274.54C199.273 274.54 199.908 273.934 199.994 273.184H223.105C223.191 273.934 223.826 274.54 224.605 274.54C224.836 274.54 225.038 274.483 225.211 274.396L236.781 294.425ZM197.628 271.799C197.253 272.058 196.994 272.52 196.994 273.011C196.994 273.501 197.253 273.963 197.628 274.223L186.059 294.252H186.03C185.857 294.165 185.655 294.137 185.453 294.137C184.674 294.137 184.039 294.743 183.952 295.493H160.842C160.784 294.974 160.496 294.541 160.063 294.31C159.861 294.194 159.601 294.137 159.341 294.137C159.111 294.137 158.909 294.194 158.736 294.281L147.166 274.252C147.541 273.992 147.801 273.53 147.801 273.04C147.801 272.549 147.541 272.087 147.166 271.827L158.736 251.798C158.938 251.885 159.139 251.943 159.341 251.943C160.12 251.943 160.755 251.336 160.842 250.586H183.952C184.039 251.336 184.674 251.943 185.453 251.943C185.683 251.943 185.885 251.885 186.059 251.798L197.628 271.799ZM158.447 249.172C158.072 249.432 157.812 249.893 157.812 250.384C157.812 250.846 158.014 251.279 158.361 251.539C158.389 251.567 158.418 251.567 158.447 251.596L146.877 271.625C146.675 271.539 146.473 271.481 146.271 271.481C145.492 271.481 144.858 272.087 144.771 272.838H121.661C121.574 272.087 120.939 271.481 120.16 271.481C119.929 271.481 119.727 271.539 119.554 271.625L107.985 251.596C108.36 251.336 108.619 250.875 108.619 250.384C108.619 250.182 108.59 249.98 108.504 249.807C108.389 249.547 108.215 249.345 108.013 249.172L119.583 229.143C119.785 229.229 119.987 229.287 120.189 229.287C120.968 229.287 121.603 228.681 121.689 227.931H144.8C144.829 228.075 144.858 228.248 144.915 228.364C145.146 228.912 145.666 229.287 146.3 229.287C146.531 229.287 146.733 229.229 146.906 229.143L158.447 249.172ZM158.447 203.948C158.072 204.207 157.812 204.669 157.812 205.16C157.812 205.65 158.072 206.112 158.447 206.372L146.877 226.401C146.675 226.314 146.473 226.257 146.271 226.257C145.492 226.257 144.858 226.863 144.771 227.613H121.661C121.632 227.411 121.574 227.209 121.487 227.065C121.228 226.603 120.737 226.286 120.16 226.286C119.929 226.286 119.727 226.343 119.554 226.43L107.985 206.401C108.36 206.141 108.619 205.679 108.619 205.189C108.619 204.698 108.36 204.236 107.985 203.976L119.554 183.947C119.756 184.034 119.958 184.092 120.16 184.092C120.939 184.092 121.574 183.486 121.661 182.735H144.771C144.8 182.937 144.858 183.139 144.944 183.312C145.204 183.774 145.694 184.092 146.271 184.092C146.502 184.092 146.704 184.034 146.877 183.947L158.447 203.948ZM146.906 181.177C146.704 181.09 146.502 181.032 146.3 181.032C145.521 181.032 144.887 181.639 144.8 182.389H121.689C121.661 182.187 121.603 181.985 121.516 181.812C121.257 181.35 120.766 181.032 120.189 181.032C119.958 181.032 119.756 181.09 119.583 181.177L108.013 161.148C108.389 160.888 108.648 160.426 108.648 159.935C108.648 159.445 108.389 158.983 108.013 158.723L108.591 157.713L119.554 138.694C119.756 138.781 119.958 138.838 120.16 138.838C120.939 138.838 121.574 138.232 121.661 137.482H144.771C144.8 137.828 144.973 138.146 145.204 138.406C145.464 138.665 145.867 138.838 146.271 138.838C146.502 138.838 146.704 138.781 146.877 138.694L158.447 158.723C158.072 158.983 157.812 159.445 157.812 159.935C157.812 160.311 157.928 160.628 158.159 160.888C158.245 160.974 158.332 161.061 158.447 161.148L146.906 181.177ZM197.628 136.068C197.253 136.328 196.994 136.789 196.994 137.28C196.994 137.771 197.253 138.232 197.628 138.492L186.059 158.521C185.857 158.435 185.655 158.377 185.453 158.377C184.674 158.377 184.039 158.983 183.952 159.733H160.842C160.813 159.531 160.755 159.329 160.669 159.156C160.409 158.694 159.918 158.377 159.341 158.377C159.111 158.377 158.909 158.435 158.736 158.521L147.166 138.521C147.541 138.261 147.801 137.799 147.801 137.309C147.801 136.818 147.541 136.356 147.166 136.097L158.736 116.068C158.938 116.154 159.139 116.212 159.341 116.212C160.12 116.212 160.755 115.606 160.842 114.855H183.952C184.039 115.606 184.674 116.212 185.453 116.212C185.683 116.212 185.885 116.154 186.059 116.068L197.628 136.068ZM119.554 93.441C119.756 93.5275 119.958 93.5853 120.16 93.5853C120.939 93.5853 121.574 92.9792 121.661 92.2288H144.771C144.858 92.9792 145.492 93.5853 146.271 93.5853C146.502 93.5853 146.704 93.5275 146.877 93.441L158.447 113.47C158.072 113.73 157.812 114.192 157.812 114.682C157.812 115.144 158.014 115.577 158.361 115.837C158.389 115.866 158.418 115.866 158.447 115.894L146.877 135.924C146.675 135.837 146.473 135.779 146.271 135.779C145.492 135.779 144.858 136.385 144.771 137.136H121.661C121.574 136.385 120.939 135.779 120.16 135.779C119.929 135.779 119.727 135.837 119.554 135.924L107.985 115.894C108.36 115.635 108.619 115.173 108.619 114.682C108.619 114.278 108.446 113.903 108.187 113.614C108.129 113.557 108.071 113.499 108.013 113.47L119.554 93.441ZM80.1134 113.47C79.7383 113.73 79.4787 114.192 79.4787 114.682C79.4787 115.144 79.6806 115.577 80.0269 115.837C80.0557 115.866 80.0845 115.866 80.1134 115.894L68.5437 135.924C68.3417 135.837 68.1397 135.779 67.9378 135.779C67.1588 135.779 66.524 136.385 66.4374 137.136H43.3269C43.2403 136.385 42.6056 135.779 41.8266 135.779C41.5958 135.779 41.3938 135.837 41.2207 135.924L29.6509 115.894C29.8818 115.721 30.0549 115.519 30.1414 115.259C30.228 115.086 30.2568 114.884 30.2568 114.682C30.2568 114.192 29.9972 113.73 29.6221 113.47L41.1918 93.441C41.3938 93.5275 41.5958 93.5853 41.7977 93.5853C42.3748 93.5853 42.8652 93.2678 43.1249 92.806C43.2115 92.6329 43.2692 92.4597 43.298 92.2577H66.4086C66.4952 93.0081 67.1299 93.6141 67.9089 93.6141C68.1398 93.6141 68.3417 93.5564 68.5437 93.4698L80.1134 113.47ZM80.1134 68.2169C79.7383 68.4767 79.4787 68.9384 79.4787 69.4291C79.4787 69.9197 79.7383 70.3815 80.1134 70.6412L68.5437 90.6704C68.3417 90.5838 68.1397 90.5261 67.9378 90.5261C67.3607 90.5261 66.8703 90.8435 66.6106 91.3053C66.524 91.4785 66.4663 91.6516 66.4374 91.8536H43.3269C43.2403 91.1033 42.6056 90.4972 41.8266 90.4972C41.5958 90.4972 41.3938 90.5549 41.1918 90.6415L29.6221 70.6124C29.9972 70.3526 30.2568 69.8908 30.2568 69.4002C30.2568 68.9096 29.9972 68.4478 29.6221 68.1881L41.1918 48.1589C41.3938 48.2455 41.5958 48.3032 41.8266 48.3032C42.6056 48.3032 43.2403 47.6971 43.3269 46.9468H66.4374C66.4663 47.0911 66.4952 47.2354 66.5529 47.3797C66.7837 47.928 67.303 48.3032 67.9378 48.3032C68.1686 48.3032 68.3706 48.2455 68.5437 48.1589L80.1134 68.2169ZM41.2207 2.96345C41.4226 3.05003 41.6246 3.10775 41.8266 3.10775C42.6056 3.10775 43.2403 2.50168 43.3269 1.75131H66.4374C66.524 2.50168 67.1588 3.10775 67.9378 3.10775C68.1686 3.10775 68.3706 3.05003 68.5437 2.96345L80.1134 22.9926C79.7383 23.2523 79.4787 23.7141 79.4787 24.2047C79.4787 24.6954 79.7383 25.1571 80.1134 25.4169L68.5437 45.446C68.3417 45.3595 68.1398 45.3017 67.9089 45.3017C67.1299 45.3017 66.4952 45.9078 66.4086 46.6582H43.298C43.2692 46.5139 43.2403 46.3696 43.1826 46.2253C43.096 46.0521 43.0095 45.8789 42.8652 45.7346C42.6056 45.4749 42.2017 45.3017 41.7977 45.3017C41.5669 45.3017 41.3649 45.3595 41.1918 45.446L29.6509 25.4169C30.026 25.1571 30.2857 24.6954 30.2857 24.2047C30.2857 24.0027 30.2568 23.8007 30.1703 23.6275C30.0549 23.3678 29.8818 23.1658 29.6509 22.9926L41.2207 2.96345ZM2.03941 25.5612C2.24138 25.6478 2.44334 25.7055 2.64531 25.7055C3.42432 25.7055 4.05907 25.0994 4.14561 24.349H27.2562C27.2851 24.4933 27.3139 24.6376 27.3716 24.7819C27.6024 25.3303 28.1218 25.7055 28.7565 25.7055C28.9873 25.7055 29.1893 25.6478 29.3624 25.5612L40.9033 45.5903C40.5282 45.8501 40.2686 46.3118 40.2686 46.8025C40.2686 47.0045 40.2974 47.2065 40.384 47.3797C40.4994 47.6394 40.6725 47.8414 40.8744 48.0146L29.3047 68.0438C29.1028 67.9572 28.9008 67.8995 28.6988 67.8995C27.9198 67.8995 27.2851 68.5055 27.1985 69.2559H4.08791C4.00136 68.5055 3.36662 67.8995 2.58762 67.8995C2.3568 67.8995 2.15482 67.9572 1.9817 68.0438L-9.50145 48.0435C-9.12637 47.7837 -8.8667 47.322 -8.8667 46.8313C-8.8667 46.4273 -9.03981 46.0521 -9.29948 45.7635C-9.35719 45.7058 -9.4149 45.6481 -9.47261 45.6192L2.03941 25.5612ZM-87.8351 48.0435C-87.46 47.7837 -87.2003 47.322 -87.2003 46.8313C-87.2003 46.3407 -87.46 45.8789 -87.8351 45.6192L-76.2654 25.59C-76.0634 25.6766 -75.8615 25.7343 -75.6595 25.7343C-74.8805 25.7343 -74.2457 25.1283 -74.1592 24.3779H-51.0486C-50.962 25.1283 -50.3273 25.7343 -49.5483 25.7343C-49.3174 25.7343 -49.1155 25.6766 -48.9424 25.59L-37.3727 45.6192C-37.7477 45.8789 -38.0074 46.3407 -38.0074 46.8313C-38.0074 47.2931 -37.8055 47.726 -37.4592 47.9858C-37.4304 48.0146 -37.4015 48.0146 -37.3727 48.0435L-48.9424 68.0726C-49.1443 67.986 -49.3463 67.9283 -49.5483 67.9283C-50.3273 67.9283 -50.962 68.5344 -51.0486 69.2848H-74.1592C-74.2457 68.5344 -74.8805 67.9283 -75.6595 67.9283C-75.8903 67.9283 -76.0923 67.986 -76.2654 68.0726L-87.8351 48.0435ZM-76.2942 70.8144C-76.0923 70.9009 -75.8903 70.9587 -75.6884 70.9587C-74.9093 70.9587 -74.2746 70.3526 -74.188 69.6022H-51.0486C-51.0197 69.9486 -50.8466 70.266 -50.6158 70.5258C-50.3561 70.7855 -49.981 70.9587 -49.5483 70.9587C-49.3174 70.9587 -49.1155 70.9009 -48.9424 70.8144L-37.3727 90.8435C-37.7477 91.1033 -38.0074 91.565 -38.0074 92.0557C-38.0074 92.4308 -37.892 92.7483 -37.6612 93.008C-37.5746 93.0946 -37.4881 93.1812 -37.3727 93.2678L-48.9424 113.297C-49.1443 113.21 -49.3463 113.153 -49.5483 113.153C-50.2119 113.153 -50.7889 113.614 -50.9909 114.22C-51.0197 114.307 -51.0486 114.423 -51.0486 114.509H-74.1592C-74.2457 113.759 -74.8805 113.153 -75.6595 113.153C-75.8903 113.153 -76.0923 113.21 -76.2654 113.297L-87.8351 93.2678C-87.5754 93.0658 -87.3735 92.806 -87.2869 92.4886C-87.2292 92.3443 -87.2292 92.2 -87.2292 92.0268C-87.2292 91.5362 -87.4889 91.0744 -87.864 90.8147L-76.2942 70.8144ZM-115.447 93.441C-115.245 93.5275 -115.043 93.5853 -114.841 93.5853C-114.062 93.5853 -113.427 92.9792 -113.34 92.2288H-90.2298C-90.1433 92.9792 -89.5085 93.5853 -88.7295 93.5853C-88.4987 93.5853 -88.2967 93.5275 -88.1236 93.441L-76.5539 113.47C-76.7847 113.643 -76.9578 113.845 -77.0732 114.105C-77.1598 114.278 -77.1886 114.48 -77.1886 114.682C-77.1886 115.144 -76.9867 115.577 -76.6405 115.837C-76.6116 115.866 -76.5828 115.866 -76.5539 115.894L-88.1236 135.924C-88.3256 135.837 -88.5276 135.779 -88.7295 135.779C-89.5085 135.779 -90.1433 136.385 -90.2298 137.136H-113.34C-113.427 136.385 -114.062 135.779 -114.841 135.779C-115.072 135.779 -115.274 135.837 -115.447 135.924L-127.016 115.894C-126.641 115.635 -126.382 115.173 -126.382 114.682C-126.382 114.278 -126.555 113.903 -126.814 113.614C-126.872 113.557 -126.93 113.499 -126.988 113.47L-115.447 93.441ZM-205.35 115.923C-204.975 115.664 -204.715 115.202 -204.715 114.711C-204.715 114.22 -204.975 113.759 -205.35 113.499L-193.78 93.4698C-193.578 93.5564 -193.376 93.6141 -193.174 93.6141C-192.395 93.6141 -191.761 93.0081 -191.674 92.2577H-168.563C-168.477 93.0081 -167.842 93.6141 -167.063 93.6141C-166.832 93.6141 -166.63 93.5564 -166.457 93.4698L-154.888 113.499C-155.263 113.759 -155.522 114.22 -155.522 114.711C-155.522 115.173 -155.32 115.606 -154.974 115.866C-154.945 115.894 -154.916 115.894 -154.888 115.923L-166.457 135.924C-166.659 135.837 -166.861 135.779 -167.063 135.779C-167.842 135.779 -168.477 136.385 -168.563 137.136H-191.674C-191.761 136.385 -192.395 135.779 -193.174 135.779C-193.405 135.779 -193.607 135.837 -193.78 135.924L-205.35 115.923ZM-205.35 161.148C-204.975 160.888 -204.715 160.426 -204.715 159.935C-204.715 159.445 -204.975 158.983 -205.35 158.723L-193.78 138.694C-193.578 138.781 -193.376 138.838 -193.174 138.838C-192.395 138.838 -191.761 138.232 -191.674 137.482H-168.563C-168.535 137.828 -168.362 138.146 -168.131 138.406C-167.871 138.665 -167.467 138.838 -167.063 138.838C-166.832 138.838 -166.63 138.781 -166.457 138.694L-154.888 158.723C-155.263 158.983 -155.522 159.445 -155.522 159.935C-155.522 160.311 -155.407 160.628 -155.176 160.888C-155.09 160.974 -155.003 161.061 -154.888 161.148L-166.457 181.177C-166.659 181.09 -166.861 181.032 -167.063 181.032C-167.842 181.032 -168.477 181.639 -168.563 182.389H-191.674C-191.761 181.639 -192.395 181.032 -193.174 181.032C-193.405 181.032 -193.607 181.09 -193.78 181.177L-205.35 161.148ZM-166.198 183.774C-165.823 183.514 -165.563 183.053 -165.563 182.562C-165.563 182.071 -165.823 181.61 -166.198 181.35L-154.628 161.321C-154.426 161.407 -154.224 161.465 -154.022 161.465C-153.243 161.465 -152.608 160.859 -152.522 160.109H-129.411C-129.325 160.859 -128.69 161.465 -127.911 161.465C-127.68 161.465 -127.478 161.407 -127.305 161.321L-115.735 181.35C-116.11 181.61 -116.37 182.071 -116.37 182.562C-116.37 183.024 -116.168 183.457 -115.822 183.716C-115.793 183.745 -115.764 183.745 -115.735 183.774L-127.305 203.803C-127.507 203.717 -127.709 203.659 -127.911 203.659C-128.69 203.659 -129.325 204.265 -129.411 205.015H-152.522C-152.608 204.265 -153.243 203.659 -154.022 203.659C-154.253 203.659 -154.455 203.717 -154.628 203.803L-166.198 183.774ZM-154.628 206.545C-154.426 206.632 -154.224 206.689 -154.022 206.689C-153.243 206.689 -152.608 206.083 -152.522 205.333H-129.411C-129.382 205.679 -129.209 205.997 -128.978 206.256C-128.719 206.516 -128.315 206.689 -127.911 206.689C-127.68 206.689 -127.478 206.632 -127.305 206.545L-115.735 226.574C-116.11 226.834 -116.37 227.296 -116.37 227.786C-116.37 228.162 -116.255 228.479 -116.024 228.739C-115.937 228.825 -115.851 228.912 -115.735 228.999L-127.276 248.999C-127.449 248.912 -127.68 248.854 -127.882 248.854C-128.199 248.854 -128.488 248.941 -128.719 249.114C-129.094 249.345 -129.325 249.749 -129.382 250.211H-152.493C-152.522 249.865 -152.695 249.547 -152.926 249.287C-153.185 249.028 -153.589 248.854 -153.993 248.854C-154.224 248.854 -154.426 248.912 -154.599 248.999L-166.169 228.999C-165.794 228.739 -165.534 228.277 -165.534 227.786C-165.534 227.267 -165.794 226.834 -166.169 226.574L-154.628 206.545ZM-193.78 229.143C-193.578 229.229 -193.376 229.287 -193.174 229.287C-192.395 229.287 -191.761 228.681 -191.674 227.931H-168.563C-168.477 228.681 -167.842 229.287 -167.063 229.287C-166.832 229.287 -166.63 229.229 -166.457 229.143L-154.888 249.172C-155.263 249.432 -155.522 249.893 -155.522 250.384C-155.522 250.904 -155.263 251.336 -154.888 251.596L-166.428 271.597C-166.63 271.51 -166.832 271.452 -167.034 271.452C-167.813 271.452 -168.448 272.058 -168.535 272.809H-191.645C-191.732 272.058 -192.367 271.452 -193.146 271.452C-193.376 271.452 -193.578 271.51 -193.751 271.597L-205.321 251.567C-204.946 251.308 -204.686 250.846 -204.686 250.355C-204.686 250.298 -204.686 250.24 -204.686 250.211C-204.744 249.778 -204.975 249.403 -205.292 249.143L-193.78 229.143ZM-244.502 274.252C-244.127 273.992 -243.868 273.53 -243.868 273.04C-243.868 272.549 -244.127 272.087 -244.502 271.827L-232.933 251.798C-232.731 251.885 -232.529 251.943 -232.327 251.943C-231.548 251.943 -230.913 251.336 -230.826 250.586H-207.716C-207.629 251.336 -206.995 251.943 -206.216 251.943C-205.985 251.943 -205.783 251.885 -205.61 251.798L-194.04 271.827C-194.386 272.087 -194.617 272.462 -194.646 272.895C-194.646 272.953 -194.646 273.011 -194.646 273.04C-194.646 273.53 -194.386 273.992 -194.011 274.252L-205.581 294.281C-205.783 294.194 -205.985 294.137 -206.187 294.137C-206.966 294.137 -207.6 294.743 -207.687 295.493H-230.798C-230.884 294.743 -231.519 294.137 -232.298 294.137C-232.529 294.137 -232.731 294.194 -232.904 294.281L-244.502 274.252ZM-205.35 296.849C-204.975 296.59 -204.715 296.128 -204.715 295.637C-204.715 295.147 -204.975 294.685 -205.35 294.425L-193.78 274.396C-193.578 274.483 -193.376 274.54 -193.174 274.54C-192.395 274.54 -191.761 273.934 -191.674 273.184H-168.563C-168.535 273.53 -168.362 273.848 -168.131 274.107C-167.871 274.367 -167.467 274.54 -167.063 274.54C-166.832 274.54 -166.63 274.483 -166.457 274.396L-154.888 294.425C-155.263 294.685 -155.522 295.147 -155.522 295.637C-155.522 296.012 -155.407 296.33 -155.176 296.59C-155.09 296.676 -155.003 296.763 -154.888 296.849L-166.457 316.879C-166.659 316.792 -166.861 316.734 -167.063 316.734C-167.842 316.734 -168.477 317.34 -168.563 318.091H-191.674C-191.761 317.34 -192.395 316.734 -193.174 316.734C-193.405 316.734 -193.607 316.792 -193.78 316.879L-205.35 296.849ZM-166.169 319.476C-165.794 319.216 -165.534 318.755 -165.534 318.264C-165.534 317.773 -165.794 317.311 -166.169 317.052L-154.599 297.023C-154.397 297.109 -154.195 297.167 -153.993 297.167C-153.214 297.167 -152.579 296.561 -152.493 295.81H-129.382C-129.296 296.561 -128.661 297.167 -127.882 297.167C-127.651 297.167 -127.449 297.109 -127.276 297.023L-115.706 317.052C-116.081 317.311 -116.341 317.773 -116.341 318.264C-116.341 318.726 -116.139 319.159 -115.793 319.418C-115.764 319.447 -115.735 319.447 -115.706 319.476L-127.276 339.505C-127.478 339.419 -127.68 339.361 -127.882 339.361C-128.661 339.361 -129.296 339.967 -129.382 340.717H-152.493C-152.579 339.967 -153.214 339.361 -153.993 339.361C-154.224 339.361 -154.426 339.419 -154.599 339.505L-166.169 319.476ZM-127.276 384.758C-127.478 384.672 -127.68 384.614 -127.882 384.614C-128.661 384.614 -129.296 385.22 -129.382 385.971H-152.493C-152.579 385.22 -153.214 384.614 -153.993 384.614C-154.224 384.614 -154.426 384.672 -154.599 384.758L-166.169 364.729C-165.794 364.47 -165.534 364.008 -165.534 363.517C-165.534 363.026 -165.794 362.565 -166.169 362.305L-154.599 342.276C-154.397 342.362 -154.195 342.42 -153.993 342.42C-153.214 342.42 -152.579 341.814 -152.493 341.064H-129.382C-129.353 341.41 -129.18 341.727 -128.949 341.987C-128.69 342.247 -128.286 342.42 -127.882 342.42C-127.651 342.42 -127.449 342.362 -127.276 342.276L-115.706 362.305C-116.081 362.565 -116.341 363.026 -116.341 363.517C-116.341 363.892 -116.226 364.21 -115.995 364.469C-115.908 364.556 -115.822 364.643 -115.706 364.729L-127.276 384.758ZM-87.8351 364.729C-87.46 364.47 -87.2003 364.008 -87.2003 363.517C-87.2003 363.315 -87.2292 363.113 -87.3158 362.94C-87.4312 362.68 -87.6043 362.478 -87.8351 362.305L-76.2654 342.276C-76.0634 342.362 -75.8615 342.42 -75.6595 342.42C-74.8805 342.42 -74.2457 341.814 -74.1592 341.064H-51.0486C-50.962 341.814 -50.3273 342.42 -49.5483 342.42C-49.4906 342.42 -49.4329 342.42 -49.404 342.42C-49.2309 342.391 -49.0866 342.362 -48.9424 342.305L-37.3727 362.334C-37.7477 362.594 -38.0074 363.055 -38.0074 363.546C-38.0074 363.921 -37.892 364.239 -37.6612 364.498C-37.5746 364.585 -37.4881 364.672 -37.3727 364.758L-48.9424 384.787C-49.1443 384.701 -49.3463 384.643 -49.5483 384.643C-50.3273 384.643 -50.962 385.249 -51.0486 385.999H-74.1592C-74.2457 385.249 -74.8805 384.643 -75.6595 384.643C-75.8903 384.643 -76.0923 384.701 -76.2654 384.787L-87.8351 364.729ZM-48.6827 387.327C-48.3076 387.067 -48.048 386.605 -48.048 386.115C-48.048 385.624 -48.3076 385.162 -48.6827 384.903L-37.113 364.874C-36.911 364.96 -36.709 365.018 -36.5071 365.018C-35.7281 365.018 -35.0933 364.412 -35.0068 363.661H-11.8962C-11.8385 364.383 -11.2614 364.931 -10.5401 365.018C-10.4824 365.018 -10.4247 365.018 -10.3959 365.018C-10.3382 365.018 -10.2805 365.018 -10.2516 365.018C-10.0785 364.989 -9.93423 364.96 -9.78998 364.902L1.77974 384.932C1.40466 385.191 1.145 385.653 1.145 386.144C1.145 386.605 1.34695 387.038 1.69319 387.298C1.72203 387.327 1.75089 387.327 1.77974 387.356L-9.78998 407.385C-9.99194 407.298 -10.1939 407.241 -10.3959 407.241C-11.1749 407.241 -11.8096 407.847 -11.8962 408.597H-35.0068C-35.0933 407.847 -35.7281 407.241 -36.5071 407.241C-36.7379 407.241 -36.9399 407.298 -37.113 407.385L-48.6827 387.327ZM-48.6827 432.58C-48.3076 432.32 -48.048 431.859 -48.048 431.368C-48.048 430.877 -48.3076 430.416 -48.6827 430.156L-37.113 410.127C-36.911 410.213 -36.709 410.271 -36.5071 410.271C-35.7281 410.271 -35.0933 409.665 -35.0068 408.915H-11.8962C-11.8673 409.174 -11.7808 409.434 -11.6365 409.636C-11.3768 410.011 -10.9152 410.271 -10.3959 410.271C-10.1651 410.271 -9.96309 410.213 -9.78998 410.127L1.77974 430.156C1.40466 430.416 1.145 430.877 1.145 431.368C1.145 431.743 1.26041 432.061 1.49121 432.32C1.57777 432.407 1.66432 432.494 1.77974 432.58L-9.78998 452.609C-9.99194 452.523 -10.1939 452.465 -10.3959 452.465C-11.1749 452.465 -11.8096 453.071 -11.8962 453.821H-35.0068C-35.0933 453.071 -35.7281 452.465 -36.5071 452.465C-36.7379 452.465 -36.9399 452.523 -37.113 452.609L-48.6827 432.58ZM-9.50145 455.207C-9.12637 454.947 -8.8667 454.485 -8.8667 453.995C-8.8667 453.504 -9.12637 453.042 -9.50145 452.782L2.06825 432.753C2.27022 432.84 2.4722 432.898 2.67416 432.898C3.45317 432.898 4.08792 432.292 4.17448 431.541H27.2851C27.3716 432.292 28.0064 432.898 28.7854 432.898C29.0162 432.898 29.2182 432.84 29.3913 432.753L40.961 452.782C40.5859 453.042 40.3262 453.504 40.3262 453.995C40.3262 454.485 40.5859 454.947 40.961 455.207L29.3913 475.236C29.1893 475.149 28.9873 475.092 28.7854 475.092C28.0064 475.092 27.3716 475.698 27.2851 476.448H4.17448C4.08792 475.698 3.45317 475.092 2.67416 475.092C2.44334 475.092 2.24138 475.149 2.06825 475.236L-9.50145 455.207Z" fill="#C6F6FE" fill-opacity="0.3"/>
</svg>
