<svg width="51" height="50" viewBox="0 0 51 50" fill="none" xmlns="http://www.w3.org/2000/svg">
<path fill-rule="evenodd" clip-rule="evenodd" d="M13 21.875C12.4475 21.875 11.9176 22.0945 11.5269 22.4852C11.1362 22.8759 10.9167 23.4058 10.9167 23.9583V26.0417C10.9167 26.5942 11.1362 27.1241 11.5269 27.5148C11.9176 27.9055 12.4475 28.125 13 28.125H15.0833C15.6359 28.125 16.1658 27.9055 16.5565 27.5148C16.9472 27.1241 17.1667 26.5942 17.1667 26.0417V23.9583C17.1667 23.4058 16.9472 22.8759 16.5565 22.4852C16.1658 22.0945 15.6359 21.875 15.0833 21.875H13ZM13 23.9583V26.0417H15.0833V23.9583H13ZM19.25 23.9583C19.25 23.4058 19.4695 22.8759 19.8602 22.4852C20.2509 22.0945 20.7808 21.875 21.3333 21.875H23.4167C23.9692 21.875 24.4991 22.0945 24.8898 22.4852C25.2805 22.8759 25.5 23.4058 25.5 23.9583V26.0417C25.5 26.5942 25.2805 27.1241 24.8898 27.5148C24.4991 27.9055 23.9692 28.125 23.4167 28.125H21.3333C20.7808 28.125 20.2509 27.9055 19.8602 27.5148C19.4695 27.1241 19.25 26.5942 19.25 26.0417V23.9583ZM21.3333 23.9583H23.4167V26.0417H21.3333V23.9583ZM29.6667 21.875C29.1141 21.875 28.5842 22.0945 28.1935 22.4852C27.8028 22.8759 27.5833 23.4058 27.5833 23.9583V26.0417C27.5833 26.5942 27.8028 27.1241 28.1935 27.5148C28.5842 27.9055 29.1141 28.125 29.6667 28.125H31.75C32.3025 28.125 32.8324 27.9055 33.2231 27.5148C33.6138 27.1241 33.8333 26.5942 33.8333 26.0417V23.9583C33.8333 23.4058 33.6138 22.8759 33.2231 22.4852C32.8324 22.0945 32.3025 21.875 31.75 21.875H29.6667ZM29.6667 23.9583V26.0417H31.75V23.9583H29.6667ZM10.9167 32.2917C10.9167 31.7391 11.1362 31.2092 11.5269 30.8185C11.9176 30.4278 12.4475 30.2083 13 30.2083H15.0833C15.6359 30.2083 16.1658 30.4278 16.5565 30.8185C16.9472 31.2092 17.1667 31.7391 17.1667 32.2917V34.375C17.1667 34.9275 16.9472 35.4574 16.5565 35.8481C16.1658 36.2388 15.6359 36.4583 15.0833 36.4583H13C12.4475 36.4583 11.9176 36.2388 11.5269 35.8481C11.1362 35.4574 10.9167 34.9275 10.9167 34.375V32.2917ZM15.0833 32.2917V34.375H13V32.2917H15.0833ZM21.3333 30.2083C20.7808 30.2083 20.2509 30.4278 19.8602 30.8185C19.4695 31.2092 19.25 31.7391 19.25 32.2917V34.375C19.25 34.9275 19.4695 35.4574 19.8602 35.8481C20.2509 36.2388 20.7808 36.4583 21.3333 36.4583H23.4167C23.9692 36.4583 24.4991 36.2388 24.8898 35.8481C25.2805 35.4574 25.5 34.9275 25.5 34.375V32.2917C25.5 31.7391 25.2805 31.2092 24.8898 30.8185C24.4991 30.4278 23.9692 30.2083 23.4167 30.2083H21.3333ZM23.4167 32.2917H21.3333V34.375H23.4167V32.2917Z" fill="white"/>
<path d="M38 33.8542C38 33.5779 37.8903 33.3129 37.6949 33.1176C37.4996 32.9222 37.2346 32.8125 36.9583 32.8125C36.6821 32.8125 36.4171 32.9222 36.2218 33.1176C36.0264 33.3129 35.9167 33.5779 35.9167 33.8542V36.8896L37.2635 38.2365C37.46 38.4262 37.7231 38.5312 37.9963 38.5288C38.2694 38.5265 38.5306 38.4169 38.7238 38.2238C38.9169 38.0306 39.0265 37.7694 39.0288 37.4963C39.0312 37.2231 38.9262 36.96 38.7365 36.7635L38 36.0271V33.8542Z" fill="white"/>
<path fill-rule="evenodd" clip-rule="evenodd" d="M13 7.29167C13 7.0154 13.1097 6.75045 13.3051 6.5551C13.5004 6.35975 13.7654 6.25 14.0417 6.25C14.3179 6.25 14.5829 6.35975 14.7782 6.5551C14.9736 6.75045 15.0833 7.0154 15.0833 7.29167V12.5C15.0833 12.7763 15.1931 13.0412 15.3884 13.2366C15.5838 13.4319 15.8487 13.5417 16.125 13.5417C16.4013 13.5417 16.6662 13.4319 16.8616 13.2366C17.0569 13.0412 17.1667 12.7763 17.1667 12.5V9.375H27.5833V7.29167C27.5833 7.0154 27.6931 6.75045 27.8884 6.5551C28.0838 6.35975 28.3487 6.25 28.625 6.25C28.9013 6.25 29.1662 6.35975 29.3616 6.5551C29.5569 6.75045 29.6667 7.0154 29.6667 7.29167V12.5C29.6667 12.7763 29.7764 13.0412 29.9718 13.2366C30.1671 13.4319 30.4321 13.5417 30.7083 13.5417C30.9846 13.5417 31.2496 13.4319 31.4449 13.2366C31.6403 13.0412 31.75 12.7763 31.75 12.5V9.375H34.875C35.7038 9.375 36.4987 9.70424 37.0847 10.2903C37.6708 10.8763 38 11.6712 38 12.5V29.2396C39.8245 29.5033 41.4815 30.4482 42.6375 31.8842C43.7935 33.3202 44.3628 35.1407 44.2308 36.9795C44.0988 38.8182 43.2753 40.5388 41.926 41.7949C40.5768 43.0511 38.8018 43.7496 36.9583 43.75C35.7827 43.7508 34.6243 43.4669 33.5822 42.9228C32.5401 42.3786 31.6452 41.5902 30.974 40.625H9.875C9.0462 40.625 8.25134 40.2958 7.66529 39.7097C7.07924 39.1237 6.75 38.3288 6.75 37.5V12.5C6.75 11.6712 7.07924 10.8763 7.66529 10.2903C8.25134 9.70424 9.0462 9.375 9.875 9.375H13V7.29167ZM29.6667 36.4583C29.6664 34.7047 30.2981 33.0097 31.446 31.6839C32.5939 30.3581 34.181 29.4903 35.9167 29.2396V18.75H8.83333V37.5C8.83333 37.7763 8.94308 38.0412 9.13843 38.2366C9.33378 38.4319 9.59873 38.5417 9.875 38.5417H29.9688C29.7678 37.8655 29.6661 37.1637 29.6667 36.4583ZM42.1667 36.4583C42.1667 37.8397 41.6179 39.1644 40.6412 40.1412C39.6644 41.1179 38.3397 41.6667 36.9583 41.6667C35.577 41.6667 34.2522 41.1179 33.2755 40.1412C32.2987 39.1644 31.75 37.8397 31.75 36.4583C31.75 35.077 32.2987 33.7522 33.2755 32.7755C34.2522 31.7987 35.577 31.25 36.9583 31.25C38.3397 31.25 39.6644 31.7987 40.6412 32.7755C41.6179 33.7522 42.1667 35.077 42.1667 36.4583Z" fill="white"/>
</svg>
