<svg width="136" height="147" viewBox="0 0 136 147" fill="none" xmlns="http://www.w3.org/2000/svg">
<g filter="url(#filter0_d_565_5404)">
<path d="M65.1976 19.206C67.0441 18.1491 69.3122 18.1491 71.1587 19.206L108.837 40.7717C110.704 41.8406 111.856 43.8275 111.856 45.9791V89.0209C111.856 91.1725 110.704 93.1594 108.837 94.2283L71.1587 115.794C69.3122 116.851 67.0441 116.851 65.1976 115.794L27.5195 94.2283C25.6521 93.1594 24.5 91.1725 24.5 89.0209V45.9791C24.5 43.8275 25.6521 41.8406 27.5195 40.7717L65.1976 19.206Z" fill="black"/>
<path d="M67.1847 22.6775C67.8001 22.3252 68.5562 22.3252 69.1717 22.6775L106.85 44.2433C107.472 44.5996 107.856 45.2619 107.856 45.9791V89.0209C107.856 89.7381 107.472 90.4004 106.85 90.7567L69.1717 112.322C68.5562 112.675 67.8001 112.675 67.1847 112.322L29.5065 90.7567C28.884 90.4004 28.5 89.7381 28.5 89.0209V45.9791C28.5 45.2619 28.884 44.5996 29.5065 44.2433L67.1847 22.6775Z" stroke="#D61F26" stroke-width="8"/>
</g>
<g clip-path="url(#clip0_565_5404)">
<path d="M65.6173 65.9928C65.1235 67.2034 64.5871 68.4046 64.1455 69.6342C64.117 69.7006 64.1076 69.7624 64.1028 69.8241C63.9841 69.976 63.8607 70.1232 63.7277 70.2656C63.2767 70.7404 63.9509 71.3908 64.4351 70.973C64.5918 70.8401 64.7342 70.7024 64.8767 70.5599C64.9479 70.5599 65.0191 70.5599 65.0856 70.541C65.3562 71.1724 66.4054 71.3196 66.5478 70.4982C66.7947 69.074 66.9941 67.6402 67.1412 66.2017C67.2409 65.2522 65.9116 65.2569 65.6125 65.9928H65.6173Z" fill="white" fill-opacity="0.4"/>
<path d="M78.8346 61.7621C78.0703 58.6477 73.7025 60.1622 71.5756 59.9295C70.4362 59.8061 70.4457 61.5864 71.5756 61.7099C73.7975 61.9568 76.5036 60.0103 78.1985 62.1324C78.4501 62.4505 78.9201 62.0992 78.8394 61.7621H78.8346Z" fill="white" fill-opacity="0.4"/>
<path d="M76.5225 58.5199C75.6965 58.2588 74.8277 58.1876 74.0396 57.8885C74.1677 57.8078 74.2532 57.6796 74.239 57.5135C74.2152 57.2571 74.1203 57.0482 74.0206 56.8156C73.8497 56.431 73.1755 56.6162 73.2182 57.0339C73.2372 57.2001 73.2562 57.3568 73.2942 57.5087C72.677 57.1289 72.0361 57.9217 72.3447 58.5057C72.658 59.0944 73.3084 59.2701 73.9351 59.327C74.7422 59.3935 75.6157 59.3508 76.4228 59.2606C76.8359 59.2131 76.9546 58.6529 76.5225 58.5152V58.5199Z" fill="white" fill-opacity="0.4"/>
<path d="M70.5928 56.0473C70.6688 55.7008 70.3649 55.4871 70.0848 55.5156C69.7145 55.2735 69.3062 55.1595 68.8315 55.1975C68.5371 55.2212 68.257 55.3732 68.1051 55.6153C67.5971 55.2735 67.1223 54.8842 66.6286 54.5139C66.2963 54.267 65.8737 54.7417 66.0731 55.0693C65.7123 55.3589 65.5556 55.9286 65.9687 56.3132C66.733 57.0301 67.5591 57.6757 68.4422 58.2454C68.8742 58.5256 69.4392 58.2787 69.6338 57.8467C69.8285 57.728 69.9566 57.5001 69.9899 57.2532C70.1513 57.2342 70.2985 57.1345 70.3554 56.9304L70.3697 56.8734C70.5786 56.655 70.683 56.3417 70.5833 56.0568L70.5928 56.0473Z" fill="white" fill-opacity="0.4"/>
<path d="M63.4567 57.2246C63.395 57.0394 63.2763 56.8827 63.0626 56.8305C62.792 56.7688 62.4217 56.9112 62.3742 57.2246C62.3363 57.4762 62.2461 57.7515 62.2603 58.0032C62.284 58.345 62.5452 58.6726 62.9107 58.6583C63.281 58.6393 63.5421 58.3735 63.5611 58.0032C63.5754 57.7515 63.4899 57.4762 63.4472 57.2246H63.4567Z" fill="white" fill-opacity="0.4"/>
<path d="M72.3061 47.1681C72.2302 46.6221 71.5465 46.4987 71.143 46.6934C70.7394 46.8928 70.3881 47.1159 70.0748 47.3865C69.8089 46.7456 69.581 46.0857 69.2155 45.4875C69.0825 45.2691 68.717 45.3545 68.7217 45.6204C68.7502 46.6506 69.0825 47.6286 69.1585 48.6541C69.2012 49.257 69.9134 49.6131 70.3786 49.1573C70.4926 49.0481 70.6065 48.9437 70.7205 48.844C70.559 49.9359 70.0653 50.9187 69.225 51.759C68.4274 52.5566 69.676 53.81 70.4641 52.9981C72.0118 51.4029 72.6147 49.3472 72.3061 47.1634V47.1681Z" fill="white" fill-opacity="0.4"/>
<path d="M76.5882 83.7156C76.066 83.0319 75.5722 82.3293 75.0453 81.6504C74.7747 81.3038 74.3284 81.5649 74.2477 81.9163C74.2334 81.7311 74.1575 81.5365 73.9866 81.3655C73.2459 80.6344 72.4009 80.4825 71.3849 80.7056C70.6585 80.867 69.7992 81.1614 69.125 81.4795C68.1565 81.9352 68.4319 81.5317 68.0853 80.5822C67.772 79.7276 67.6343 79.3193 66.7418 79.2101C65.384 79.044 63.5419 79.5994 62.2173 79.8701C61.8803 79.9365 61.9515 80.492 62.298 80.473C63.0387 80.4303 63.7745 80.397 64.5152 80.3923C64.9377 80.3923 65.9489 80.2119 66.2955 80.3828C66.9222 80.6961 66.6753 82.2628 67.245 82.9607C68.712 84.7458 71.3801 81.3323 72.7095 82.6426C73.3077 83.2361 74.1432 82.7233 74.2382 82.0872C74.2477 82.1346 74.2572 82.1869 74.2857 82.2343C74.4566 82.5572 74.6322 82.8753 74.8079 83.1934C74.7082 83.2503 74.618 83.331 74.5468 83.4497C73.2127 85.6906 69.3339 86.5974 66.9412 86.8157C64.2968 87.0531 61.7568 86.5072 59.2928 85.5814C58.9178 85.439 58.7089 86.0134 59.027 86.2081C61.7901 87.9029 65.1228 88.373 68.3085 87.9172C70.6823 87.5754 74.0435 86.5974 75.5675 84.5227C76.047 85.0117 77.044 84.3185 76.5835 83.7156H76.5882Z" fill="white" fill-opacity="0.4"/>
<path d="M83.4584 81.8118C82.2335 81.1613 80.4817 81.7833 79.6983 80.5442C78.8248 79.1579 78.839 77.1686 79.0242 75.6019C79.0811 75.1034 78.3358 75.0607 78.1886 75.488C77.5619 77.3253 77.4385 79.5519 78.35 81.3322C78.6776 81.9684 79.1476 82.5239 79.8028 82.8277C80.7618 83.274 81.8205 82.9369 82.808 83.3452C83.691 83.7108 84.2845 82.2533 83.4536 81.8118H83.4584Z" fill="white" fill-opacity="0.4"/>
<path d="M52.0153 78.46C51.6687 78.6642 51.3933 78.9822 51.0753 79.2291C50.7619 79.4712 50.4201 79.6754 50.1067 79.9175C49.7554 80.1929 50.14 80.7721 50.534 80.6486C50.9281 80.5252 51.3079 80.3116 51.664 80.1027C52.0105 79.8938 52.4426 79.6659 52.6989 79.3478C53.0787 78.8778 52.604 78.1182 52.0153 78.4648V78.46Z" fill="white" fill-opacity="0.4"/>
<path d="M85.5428 58.2164C85.4383 58.4823 85.3102 58.7576 85.1677 59.0377C85.1392 59.0377 85.1155 59.033 85.087 59.0377C85.0395 59.0377 84.9968 59.0425 84.9493 59.0472C84.4366 59.0852 84.1517 59.4175 84.1185 59.8638C83.9808 59.9873 83.7055 60.5475 83.5868 60.7041C83.1785 61.2596 82.7465 61.7961 82.286 62.3136C81.4504 63.2488 80.5294 64.1034 79.4564 64.7633C78.863 65.1289 78.2268 65.4185 77.5574 65.6274C76.9307 65.7128 76.2993 65.6843 75.6773 65.5087C75.2643 65.3947 74.9557 65.5894 74.8038 65.879C74.5189 65.841 74.2008 65.7983 73.8828 65.7508C74.0727 65.4992 74.1059 65.1621 73.7878 64.8962C73.5457 64.6968 73.3036 64.4927 73.0614 64.2933C72.5819 63.8993 71.941 64.2506 71.9695 64.787C71.9268 64.8108 71.8888 64.8345 71.8555 64.863C71.8081 64.844 71.7606 64.8298 71.7131 64.825C71.6514 64.6114 71.5944 64.3977 71.5232 64.1841C71.3855 63.7521 70.7826 63.9325 70.8538 64.3693C71.0532 65.5467 71.2906 66.7193 71.414 67.9062C71.452 68.2623 71.6087 69.2023 71.6419 69.8717C71.5659 69.7672 71.509 69.6486 71.4852 69.4919C71.2574 68.7228 69.9565 68.8272 70.0325 69.6865C70.0989 70.4651 70.4218 71.1298 71.1387 71.5001C71.3476 71.6093 71.5849 71.6853 71.8271 71.7138C71.8033 71.8372 71.7986 71.9606 71.8176 72.0793L71.8318 72.1743C71.8318 72.1743 71.8366 72.1885 71.8366 72.198C71.7226 72.122 71.6039 72.0508 71.471 71.9844C69.6907 71.1251 67.032 71.4289 65.1093 71.2437C64.7722 71.2105 64.6915 71.7802 65.0285 71.8419C66.4338 72.0936 67.8533 72.3309 69.2396 72.6585C69.8141 72.7962 70.5262 72.9101 70.963 73.3422C71.4757 73.8597 71.433 74.5148 71.6277 75.1415C72.1926 76.9693 73.2608 77.1687 74.9035 76.8839C75.758 76.7367 75.7438 76.8221 75.7533 77.7194C75.7533 78.2179 75.6156 78.7164 75.6251 79.2197C75.6441 80.2499 75.9147 81.2516 76.4417 82.1394C77.3153 83.6112 78.9816 84.931 80.743 84.9215C81.4789 84.9215 81.9014 83.7726 81.1465 83.4355C79.8789 82.8753 78.7443 82.5145 77.9752 81.2421C77.1111 79.8179 77.4909 78.4458 77.6761 76.9266C77.8137 75.7634 77.3342 74.8851 76.3562 74.7237C76.8452 72.4876 77.0969 70.0711 76.2755 67.892C76.1236 67.4932 75.4922 67.5216 75.4969 67.9964C75.5017 69.8812 75.5397 71.671 75.0934 73.4561C74.6661 73.5368 74.2863 73.9214 74.4525 74.4199C74.5427 74.6477 74.6044 74.8851 74.6424 75.1273C74.5617 75.1652 74.4952 75.189 74.4572 75.189C73.0234 75.2507 73.2513 74.5765 72.957 73.7789C72.8098 73.3801 72.6436 73.0383 72.4253 72.744C72.5724 72.782 72.7244 72.7914 72.8573 72.7535C73.7783 72.4971 73.7831 71.3482 73.7498 70.5553C73.7213 69.8954 73.5789 69.2498 73.4222 68.6088C73.389 68.4807 73.1896 67.7258 73.0709 67.0754C73.1374 67.0991 73.2039 67.1276 73.2656 67.1466C74.9082 67.7353 76.7455 67.6451 78.3929 67.1039C79.7745 66.7573 81.0468 65.9502 82.1673 64.939C82.8082 64.3645 83.4491 63.7426 84.0426 63.0684C84.9019 62.1806 85.9178 61.0032 85.9748 60.1012C86.2074 59.5362 86.3784 58.9523 86.4591 58.3351C86.535 57.7701 85.7232 57.7701 85.5428 58.2117V58.2164Z" fill="white" fill-opacity="0.4"/>
<path d="M67.6159 63.6613C67.3785 63.234 67.1174 62.8162 66.6569 62.6168C66.3626 62.4887 66.0445 62.4887 65.8023 62.726C64.943 63.5806 64.4778 65.1093 63.9413 66.1823C63.3384 67.3834 62.536 68.6415 62.2654 69.9661C62.1989 70.2842 62.5835 70.5548 62.8351 70.2984C63.6612 69.4486 64.1787 68.3092 64.7531 67.279C65.2184 66.4434 65.6742 65.2043 66.2913 64.326L66.3483 64.4067C66.7424 65.2517 68.0907 64.5016 67.6207 63.6661L67.6159 63.6613Z" fill="white" fill-opacity="0.4"/>
<path d="M70.554 62.5125C70.402 62.3178 70.0887 62.1707 69.8371 62.2704C69.6377 62.3511 69.4715 62.427 69.3196 62.5884C69.0537 62.8638 69.0252 63.3481 69.3196 63.6187C69.6282 63.8988 70.0412 63.8845 70.3498 63.6187C70.4543 63.5285 70.5445 63.4003 70.6062 63.2721C70.7249 63.0157 70.7344 62.7499 70.554 62.5172V62.5125Z" fill="white" fill-opacity="0.4"/>
<path d="M76.769 65.7741C75.0694 65.7741 73.4267 65.3516 72.0167 64.554C71.7698 64.4163 71.6844 64.1029 71.822 63.8561C71.9597 63.6092 72.2731 63.5237 72.5199 63.6614C73.778 64.3736 75.245 64.7486 76.7643 64.7486C81.094 64.7486 84.6262 62.0947 85.7894 58.0593C85.1437 58.178 84.4885 58.2397 83.8286 58.2397C80.8851 58.2397 79.5178 57.3282 78.0746 56.3692C76.2895 55.1823 74.2718 53.834 68.4608 53.7485C68.1901 53.7485 67.9718 53.5301 67.9575 53.2642C67.9575 53.2547 67.9575 53.2263 67.9575 53.2168C67.9575 52.9462 68.0097 52.6945 68.1094 52.4714C68.3231 51.9871 68.6934 51.6596 69.0874 51.313C69.923 50.5724 70.8725 49.7368 70.8725 46.8883C70.8725 44.2296 68.3848 44.0207 67.6252 44.0207C66.2009 44.0207 64.6769 44.7139 63.528 45.839C63.8556 45.8438 64.169 45.8485 64.4728 45.8485C64.6675 45.8485 64.8479 45.9625 64.9286 46.1381C65.014 46.3138 64.9903 46.5227 64.8716 46.6746C64.4965 47.1589 64.112 47.8378 64.112 49.2336C64.112 50.9854 65.5742 51.745 66.2009 51.9919C66.3956 52.0679 66.557 52.272 66.557 52.4809C66.557 53.1408 65.9683 54.3942 63.7322 54.3942C63.585 54.3942 63.4378 54.3942 63.2907 54.3894C63.1482 54.3894 63.0106 54.3847 62.8681 54.3847C61.3631 54.3847 59.7395 55.206 59.7395 57.0101C59.7395 58.0593 60.1288 59.8349 61.591 59.8349C61.7382 59.8349 61.8806 59.9013 61.9803 60.0153C62.0753 60.1292 62.118 60.2764 62.099 60.4283C62.0183 60.9506 61.7097 61.3209 61.4391 61.6484C61.235 61.8953 61.0546 62.1137 61.0403 62.3179C61.14 62.3321 61.3347 62.3511 61.7002 62.3511C62.5643 62.3511 62.7304 62.0472 62.7304 61.4918C62.7304 60.8936 62.3364 60.2527 61.9613 59.6307C61.5768 59.0041 61.216 58.4106 61.216 57.7982C61.216 56.635 62.2414 55.6713 63.547 55.6C63.8319 55.5858 64.0693 55.7994 64.0835 56.0843C64.0977 56.3644 63.8841 56.6065 63.5992 56.6208C62.8491 56.6588 62.2367 57.1857 62.2367 57.7982C62.2367 58.121 62.5405 58.6195 62.8349 59.099C63.2669 59.8064 63.7559 60.604 63.7559 61.4918C63.7559 62.1944 63.4901 63.3766 61.705 63.3766C60.9169 63.3766 60.0196 63.3766 60.0196 62.3416C60.0196 61.7576 60.3567 61.3541 60.651 60.998C60.7175 60.9173 60.7839 60.8366 60.8457 60.7607C59.3882 60.3239 58.7188 58.6195 58.7188 57.0196C58.7188 54.9069 60.4659 53.3734 62.8681 53.3734C63.0153 53.3734 63.1625 53.3734 63.3096 53.3782C63.4473 53.3782 63.5898 53.3829 63.7274 53.3829C64.7719 53.3829 65.2372 53.0506 65.4223 52.7752C64.5583 52.3432 63.0818 51.2987 63.0818 49.2431C63.0818 48.1748 63.2859 47.4247 63.5518 46.8693C63.191 46.8645 62.8112 46.8503 62.4124 46.836C62.2225 46.8313 62.0515 46.7173 61.9708 46.5464C61.8901 46.3755 61.9091 46.1714 62.0231 46.0195C63.3809 44.1869 65.579 43 67.6252 43C70.2174 43 71.8933 44.5287 71.8933 46.8883C71.8933 50.1973 70.6636 51.2845 69.7616 52.0774C69.491 52.3195 69.2631 52.5189 69.1207 52.7373C74.737 52.9129 76.807 54.2945 78.6395 55.5146C80.0638 56.4641 81.189 57.2142 83.8239 57.2142C84.6737 57.2142 85.5235 57.1003 86.3449 56.8819C86.5158 56.8344 86.7009 56.8819 86.8291 57.0053C86.9573 57.1288 87.0143 57.3044 86.981 57.4801C85.9888 62.3606 81.7872 65.7693 76.7643 65.7693L76.769 65.7741Z" fill="white"/>
<path d="M61.9372 71.4946C61.1111 71.4946 60.5557 71.0199 60.5557 70.3172C60.5557 70.2602 60.5652 70.208 60.5841 70.1558C60.6079 70.0846 62.9057 63.0962 63.2143 55.9463C63.2285 55.6662 63.4564 55.4478 63.746 55.4573C64.0261 55.4716 64.2493 55.709 64.235 55.9891C63.9454 62.7781 61.8945 69.4152 61.5906 70.3647C61.6381 70.4596 61.8423 70.4739 61.9372 70.4739C62.6304 70.4739 64.1686 68.3422 65.9109 63.6564C66.0106 63.3905 66.305 63.2576 66.5661 63.3573C66.8319 63.457 66.9649 63.7513 66.8652 64.0124C65.0184 68.9784 63.3615 71.4994 61.9325 71.4994L61.9372 71.4946Z" fill="white"/>
<path d="M73.9108 57.3701C73.7778 57.3701 73.6496 57.3179 73.5499 57.2182C72.1636 55.8319 70.2504 55.7512 68.2279 55.6657C67.53 55.6372 66.8084 55.604 66.12 55.5138C65.8399 55.4758 65.6405 55.2195 65.6785 54.9394C65.7164 54.6593 65.9728 54.4646 66.2529 54.4978C66.8938 54.5833 67.5633 54.6118 68.2706 54.6403C70.4023 54.7305 72.6052 54.8207 74.2716 56.4918C74.471 56.6912 74.471 57.014 74.2716 57.2134C74.1719 57.3131 74.0389 57.3654 73.9108 57.3654V57.3701Z" fill="white"/>
<path d="M69.8807 64.1308C69.1876 64.1308 67.374 63.3427 67.374 61.5624C67.374 60.3328 68.2191 59.6159 68.9645 58.9797C69.5864 58.4527 70.1276 57.9922 70.1276 57.3323C70.1276 57.1946 70.0991 57.0522 70.0469 56.9003C69.952 56.6344 70.0896 56.3401 70.3555 56.2451C70.6214 56.1501 70.9157 56.2878 71.0107 56.5537C71.1056 56.8148 71.1531 57.0759 71.1531 57.3323C71.1531 58.467 70.346 59.1506 69.6291 59.7583C68.9692 60.3185 68.3995 60.8028 68.3995 61.5624C68.3995 62.6828 69.6671 63.1101 69.8855 63.1101C69.9567 63.1101 70.5691 63.0958 70.5691 62.6448C70.5691 62.5309 70.5217 62.4644 70.3745 62.303C70.2178 62.1273 69.9757 61.8615 69.9757 61.4484C69.9757 61.2158 70.0659 61.1209 70.4504 60.7031C71.0297 60.0764 72.5631 58.41 72.5631 57.3893C72.5631 57.0332 72.4349 56.7009 72.1643 56.3733C71.9839 56.1549 72.0171 55.8321 72.2355 55.6517C72.4539 55.4712 72.7768 55.5045 72.9572 55.7229C73.3749 56.2356 73.5886 56.7958 73.5886 57.3893C73.5886 58.8088 71.9792 60.5559 71.2053 61.3962C71.1578 61.4437 71.1151 61.4959 71.0676 61.5434C71.0914 61.5671 71.1151 61.5956 71.1341 61.6146C71.3145 61.814 71.5899 62.1226 71.5899 62.6401C71.5899 63.5041 70.873 64.1261 69.8855 64.1261L69.8807 64.1308Z" fill="white"/>
<path d="M69.1678 59.5547C68.9494 59.5547 68.75 59.417 68.6788 59.1986C68.5363 58.7524 68.4746 58.2871 68.4746 57.7316C68.4746 57.3233 68.5126 56.915 68.5458 56.5257C68.5648 56.2836 68.5886 56.0415 68.6028 55.7994C68.617 55.5193 68.8592 55.3009 69.1393 55.3151C69.4194 55.3294 69.6378 55.5715 69.6235 55.8516C69.6093 56.108 69.5855 56.3596 69.5665 56.6159C69.5333 57.0005 69.5001 57.3661 69.5001 57.7316C69.5001 58.1826 69.5523 58.5482 69.6568 58.8948C69.7422 59.1654 69.5903 59.4502 69.3244 59.5357C69.2722 59.5499 69.22 59.5594 69.1725 59.5594L69.1678 59.5547Z" fill="white"/>
<path d="M70.7255 71.5382C68.836 71.5382 67.82 68.609 67.0034 66.2542C66.7043 65.3901 66.3625 64.4121 66.1583 64.2032C65.9589 64.0038 65.9589 63.681 66.1583 63.4816C66.3577 63.2822 66.6806 63.2822 66.88 63.4816C67.236 63.8376 67.5114 64.602 67.9672 65.9171C68.5606 67.6262 69.5481 70.4795 70.7018 70.5127C70.7018 70.4605 70.7018 70.4035 70.7018 70.3561V70.2469C70.7018 68.9223 70.3599 67.6025 69.9991 66.2067C69.8472 65.618 69.6905 65.0103 69.5623 64.4026C69.5054 64.1273 69.681 63.8566 69.9564 63.7949C70.2318 63.7379 70.5024 63.9136 70.5641 64.189C70.6875 64.7729 70.8394 65.3711 70.9914 65.9456C71.3522 67.3414 71.7225 68.7894 71.7225 70.2421V70.3466C71.7225 70.6741 71.7225 71.016 71.4709 71.2723C71.2145 71.5335 70.8442 71.5335 70.7208 71.5335L70.7255 71.5382Z" fill="white"/>
<path d="M70.16 51.0519C70.0603 51.0519 69.9606 51.0234 69.8704 50.9617C69.0444 50.3967 68.9067 49.5279 68.7833 48.7588C68.5981 47.5956 68.4747 46.8313 66.305 46.8313C66.0439 46.8313 65.778 46.8408 65.5169 46.8503C65.1181 46.8645 64.7241 46.8787 64.349 46.8645C64.0689 46.855 63.8458 46.6176 63.86 46.3328C63.8695 46.0527 64.0974 45.8248 64.3917 45.8438C64.7431 45.858 65.1086 45.8438 65.4837 45.8295C65.759 45.82 66.0392 45.8105 66.3098 45.8105C69.353 45.8105 69.6141 47.4247 69.7992 48.6021C69.9037 49.2478 69.9891 49.8033 70.4544 50.1213C70.687 50.2828 70.7487 50.6008 70.5873 50.8335C70.4876 50.9806 70.3262 51.0566 70.1648 51.0566L70.16 51.0519Z" fill="white"/>
<path d="M57.3848 74.4472C57.1854 74.4472 56.9955 74.3286 56.9148 74.1339C56.3546 72.8093 56.0792 71.3661 56.103 69.8516C56.141 67.3971 57.062 65.0423 58.7094 63.224C58.8993 63.0151 59.2221 62.9961 59.431 63.186C59.6399 63.3759 59.6589 63.6987 59.469 63.9076C57.9925 65.5455 57.1617 67.6582 57.1285 69.8658C57.1095 71.2379 57.3563 72.5387 57.8596 73.7351C57.9688 73.9962 57.8501 74.2953 57.589 74.4045C57.5225 74.433 57.456 74.4425 57.3896 74.4425L57.3848 74.4472Z" fill="white"/>
<path d="M74.5282 75.349C74.4428 75.349 74.3573 75.33 74.2766 75.2825C74.0297 75.1449 73.9443 74.8315 74.082 74.5846C74.8558 73.2079 75.2593 71.6317 75.2499 70.0317C75.2404 68.4033 74.7798 66.8176 73.911 65.4456C73.7591 65.2082 73.8303 64.8901 74.0677 64.7382C74.3051 64.5863 74.6232 64.6575 74.7751 64.8949C75.7483 66.4331 76.2658 68.2039 76.2753 70.0222C76.2848 71.8026 75.8386 73.5497 74.9792 75.0831C74.8843 75.2493 74.7134 75.3443 74.533 75.3443L74.5282 75.349Z" fill="white"/>
<path d="M46.5128 86.5679C46.4749 86.5679 46.4369 86.5679 46.3942 86.5537C46.1188 86.4872 45.9479 86.2119 46.0143 85.9365C47.1158 81.2601 48.9531 80.8234 50.7429 80.7711C51.5927 80.7474 51.7019 80.7474 51.7019 79.9308C51.7019 79.7552 51.6877 79.57 51.6734 79.3801C51.6592 79.1665 51.645 78.9481 51.645 78.7344C51.645 78.7249 51.645 78.6965 51.645 78.687C51.6545 78.4496 51.8301 78.2502 52.0627 78.2075C52.9505 78.046 53.8431 78.0271 54.5172 78.0271C54.7451 78.0271 54.9778 78.0271 55.2056 78.0318C59.0797 70.768 60.2001 70.5164 64.169 70.6303C64.6391 70.6446 65.1708 70.6588 65.75 70.6588C71.9123 70.6588 72.5058 70.8345 72.8571 72.7525C72.9615 73.3175 73.085 74.0059 73.6499 74.9459C74.3811 74.7417 75.1217 74.5566 75.8433 74.3762C76.4178 74.2337 76.9875 74.0913 77.5572 73.9394C77.7091 73.8967 77.8753 73.9299 78.0035 74.0296C78.1316 74.1246 78.2029 74.2765 78.2029 74.4379C78.2029 74.8699 78.1886 75.3162 78.1791 75.772C78.1649 76.2705 78.1506 76.7737 78.1506 77.2722C78.1506 81.2222 79.6224 82.6274 81.0039 82.6274C81.3078 82.6274 81.6401 82.5467 81.9914 82.4613C82.3807 82.3663 82.7843 82.2666 83.2068 82.2666C84.8542 82.2666 85.4524 83.7906 85.8464 84.8018C85.9556 85.0819 86.0601 85.3478 86.1645 85.5425C86.3022 85.7893 86.2073 86.1027 85.9604 86.2356C85.7135 86.3733 85.4002 86.2783 85.2672 86.0315C85.1296 85.7798 85.0156 85.4855 84.8922 85.1721C84.4602 84.0707 84.0898 83.2874 83.2068 83.2874C82.9077 83.2874 82.5801 83.3681 82.2335 83.4535C81.8395 83.5485 81.4312 83.6482 81.0039 83.6482C79.1286 83.6482 77.1299 81.9723 77.1299 77.2722C77.1299 76.7642 77.1441 76.2467 77.1584 75.7435C77.1631 75.5251 77.1679 75.3114 77.1726 75.1026C76.8166 75.1928 76.4558 75.283 76.0949 75.3732C75.2594 75.5821 74.3953 75.8004 73.5645 76.0378C73.3508 76.0995 73.123 76.0141 72.9995 75.8289C72.145 74.5518 71.9693 73.5786 71.8554 72.9377C71.7319 72.2635 71.7082 72.1258 71.1812 71.9739C70.3551 71.7365 68.57 71.689 65.7547 71.689C65.1613 71.689 64.6201 71.6748 64.1406 71.6606C60.5561 71.5561 59.8108 71.5371 55.9605 78.7962C55.8703 78.9671 55.6946 79.0668 55.5 79.0668C55.1724 79.062 54.8448 79.0573 54.5125 79.0573C53.995 79.0573 53.3398 79.0715 52.6752 79.157C52.6752 79.2092 52.6847 79.2662 52.6847 79.3184C52.6989 79.532 52.7132 79.7409 52.7132 79.9403C52.7132 81.7491 51.5832 81.7824 50.7572 81.8061C49.5323 81.8393 48.0083 81.8821 46.9923 86.1834C46.9354 86.4208 46.7265 86.5774 46.4939 86.5774L46.5128 86.5679Z" fill="white"/>
<path d="M75.5825 85.7765C75.3973 85.7765 75.2217 85.6768 75.1315 85.5059C74.6187 84.5422 73.8923 83.7018 73.166 82.8995C71.5186 83.6923 69.6053 84.0911 67.3217 84.1101C67.1033 84.0959 66.9134 83.9772 66.8375 83.7778C66.5194 82.9137 66.3959 81.9832 66.3342 81.1382C65.5081 81.1382 64.6678 81.0669 63.8512 81.0052C63.1438 80.9483 62.4127 80.8913 61.7101 80.877C60.3238 82.0165 59.0894 83.4265 57.8978 84.789L57.4135 85.3397C57.2284 85.5534 56.9055 85.5724 56.6919 85.3872C56.4783 85.2021 56.4593 84.8792 56.6444 84.6656L57.1287 84.1149C58.3915 82.6716 59.6971 81.1761 61.2116 79.9655C61.3018 79.8943 61.4157 79.8516 61.5297 79.8516C62.332 79.8563 63.1438 79.9228 63.9319 79.9845C64.8815 80.0605 65.8642 80.1364 66.7995 80.1127C67.0843 80.1127 67.3122 80.3263 67.3265 80.5969C67.3692 81.3755 67.4451 82.2681 67.6873 83.0847C69.8047 83.0229 71.5613 82.6099 73.0473 81.8218C73.2514 81.7126 73.5078 81.7553 73.6645 81.931L73.6929 81.9642C74.538 82.8948 75.4116 83.8538 76.0382 85.0359C76.1712 85.2875 76.0762 85.5961 75.8246 85.7291C75.7486 85.7718 75.6679 85.7908 75.5872 85.7908L75.5825 85.7765Z" fill="white"/>
<path d="M53.9953 78.2172C53.8291 78.2172 53.6677 78.1365 53.568 77.9893C53.3543 77.6665 53.1549 77.3342 52.9698 77.0018C52.8321 76.755 52.9223 76.4416 53.1692 76.3087C53.416 76.171 53.7294 76.2612 53.8623 76.5081C54.0332 76.8167 54.2231 77.13 54.4225 77.4339C54.5792 77.6712 54.5127 77.9846 54.2754 78.1412C54.1899 78.1982 54.0902 78.2267 53.9953 78.2267V78.2172ZM52.2149 74.4429C51.9965 74.4429 51.7924 74.3005 51.7259 74.0821C51.5882 73.6358 51.4695 73.1753 51.3746 72.7148C51.3176 72.4394 51.4933 72.1688 51.7734 72.1118C52.0487 72.0549 52.3194 72.2305 52.3763 72.5106C52.4665 72.9379 52.5757 73.3652 52.7039 73.783C52.7846 74.0536 52.6374 74.3384 52.3668 74.4239C52.3146 74.4381 52.2671 74.4476 52.2149 74.4476V74.4429ZM51.5645 70.0751C51.2796 70.0751 51.0518 69.8472 51.0518 69.5624C51.0518 69.0924 51.0755 68.6176 51.1182 68.1524C51.142 67.8723 51.3936 67.6634 51.6737 67.6919C51.9538 67.7203 52.1627 67.9672 52.1342 68.2473C52.0962 68.6793 52.0725 69.1209 52.0725 69.5624C52.0725 69.8425 51.8446 70.0751 51.5597 70.0751H51.5645ZM52.2292 65.7121C52.1769 65.7121 52.1295 65.7026 52.0772 65.6884C51.8066 65.6029 51.6547 65.3181 51.7402 65.0475C51.8778 64.6012 52.0393 64.1549 52.2197 63.7229C52.3289 63.4618 52.628 63.3383 52.8891 63.4475C53.1502 63.5567 53.2736 63.8558 53.1644 64.1169C52.9935 64.5205 52.8463 64.9383 52.7134 65.3513C52.6469 65.5697 52.4428 65.7121 52.2244 65.7121H52.2292ZM54.1614 61.7431C54.0617 61.7431 53.962 61.7147 53.8718 61.6529C53.6392 61.4915 53.5822 61.1734 53.7389 60.9408C54.0047 60.5563 54.2896 60.1765 54.5887 59.8156C54.7691 59.5972 55.0919 59.5688 55.3103 59.7492C55.5287 59.9296 55.5572 60.2524 55.3768 60.4708C55.0967 60.8079 54.8308 61.1592 54.5792 61.52C54.4795 61.6624 54.3181 61.7431 54.1567 61.7431H54.1614ZM57.1809 58.5196C57.0289 58.5196 56.8818 58.4531 56.7773 58.3249C56.6017 58.1018 56.6396 57.7837 56.8628 57.608C57.2283 57.3184 57.6129 57.0431 58.0069 56.7867C58.2443 56.6348 58.5624 56.7012 58.7143 56.9339C58.8663 57.1712 58.7998 57.4893 58.5672 57.6413C58.2016 57.8786 57.8408 58.1397 57.499 58.4104C57.404 58.4863 57.2948 58.5196 57.1809 58.5196Z" fill="white"/>
<path d="M79.0148 77.629C78.9246 77.629 78.8344 77.6053 78.7537 77.5578C78.5115 77.4154 78.4308 77.1021 78.5733 76.8552C78.7964 76.4801 79.0053 76.0861 79.1905 75.692C79.3139 75.4357 79.6177 75.3265 79.8693 75.4499C80.1257 75.5733 80.2349 75.8772 80.1115 76.1288C79.9121 76.5513 79.6889 76.9691 79.4468 77.3727C79.3519 77.5341 79.181 77.6243 79.0053 77.6243L79.0148 77.629ZM80.6764 73.5366C80.6385 73.5366 80.5957 73.5366 80.5577 73.5224C80.2824 73.4559 80.1115 73.1806 80.1779 72.9052C80.2776 72.4827 80.3631 72.0459 80.4248 71.6139C80.4628 71.3338 80.7192 71.1391 81.004 71.1818C81.2841 71.2198 81.4788 71.4809 81.436 71.7611C81.3696 72.2263 81.2794 72.6916 81.1749 73.1473C81.118 73.38 80.9091 73.5414 80.6764 73.5414V73.5366ZM81.0467 69.1356C80.7809 69.1356 80.553 68.9268 80.5388 68.6561C80.5103 68.2194 80.4628 67.7778 80.3916 67.3458C80.3489 67.0657 80.5388 66.8046 80.8189 66.7619C81.0942 66.7191 81.3601 66.909 81.4028 67.1891C81.474 67.6497 81.5263 68.1197 81.5595 68.5897C81.5785 68.8698 81.3648 69.1167 81.08 69.1309C81.0705 69.1309 81.0562 69.1309 81.0467 69.1309V69.1356Z" fill="white"/>
<path d="M66.3198 88.6236C61.9663 88.6236 57.8692 87.1945 54.4747 84.4884C54.2563 84.3128 54.2183 83.9899 54.394 83.7715C54.5696 83.5531 54.8924 83.5152 55.1108 83.6908C58.3249 86.2498 62.2037 87.6028 66.3198 87.6028C69.966 87.6028 73.4792 86.5204 76.4796 84.4647C76.7123 84.308 77.0304 84.365 77.1918 84.5976C77.3532 84.8302 77.2915 85.1483 77.0588 85.3098C73.8922 87.4794 70.1796 88.6236 66.3246 88.6236H66.3198Z" fill="white"/>
<path d="M79.6554 82.9594C79.5272 82.9594 79.399 82.9119 79.2993 82.817C79.0952 82.6223 79.0904 82.2995 79.2851 82.0953C79.5889 81.7772 79.888 81.4449 80.1681 81.1078C80.3485 80.8894 80.6714 80.861 80.8898 81.0414C81.1082 81.2218 81.1366 81.5446 80.9562 81.763C80.6571 82.1191 80.3438 82.4704 80.021 82.8075C79.9213 82.9119 79.7883 82.9641 79.6507 82.9641L79.6554 82.9594ZM82.3235 79.4367C82.2333 79.4367 82.1479 79.4129 82.0672 79.3655C81.825 79.223 81.7396 78.9097 81.882 78.6676C82.1051 78.2878 82.314 77.8937 82.5087 77.4997C82.6321 77.2481 82.9407 77.1389 83.1923 77.267C83.444 77.3905 83.5532 77.6991 83.425 77.9507C83.2208 78.3685 82.9977 78.7863 82.7651 79.1851C82.6701 79.3465 82.4992 79.4367 82.3235 79.4367ZM84.0801 75.3823C84.0327 75.3823 83.9852 75.3775 83.933 75.3633C83.6623 75.2826 83.5057 74.9977 83.5864 74.7271C83.7098 74.3046 83.8238 73.8725 83.914 73.4453C83.9757 73.1699 84.2463 72.9942 84.5217 73.056C84.797 73.1177 84.9727 73.3883 84.911 73.6636C84.8113 74.1147 84.6973 74.5752 84.5644 75.0214C84.4979 75.2446 84.2938 75.387 84.0754 75.387L84.0801 75.3823ZM84.8208 71.024C84.8208 71.024 84.8065 71.024 84.797 71.024C84.5169 71.0097 84.2985 70.7724 84.3128 70.4875C84.327 70.1932 84.3318 69.8941 84.3365 69.595C84.3365 69.4525 84.3365 69.3054 84.3318 69.1629C84.327 68.8828 84.5501 68.6455 84.8303 68.6407C85.1151 68.6407 85.3477 68.8591 85.3525 69.1392C85.3525 69.2911 85.3572 69.4478 85.3572 69.5997C85.3572 69.9178 85.3477 70.2311 85.3335 70.5397C85.3192 70.8151 85.0961 71.0287 84.8208 71.0287V71.024ZM84.5122 66.6135C84.27 66.6135 84.0564 66.4426 84.0089 66.2005C83.9282 65.7684 83.8285 65.3317 83.7146 64.9091C83.6434 64.6385 83.8048 64.3537 84.0754 64.2824C84.3507 64.2112 84.6309 64.3727 84.7021 64.6433C84.8208 65.0895 84.9299 65.55 85.0154 66.0106C85.0676 66.2859 84.8872 66.5565 84.6071 66.6088C84.5739 66.6135 84.5406 66.6182 84.5122 66.6182V66.6135Z" fill="white"/>
<path d="M51.327 80.9794C51.1704 80.9794 51.0137 80.9081 50.914 80.7705C50.6434 80.3954 50.3775 80.0061 50.1307 79.6073C49.9835 79.3652 50.0547 79.0518 50.2968 78.9047C50.5342 78.7575 50.8523 78.8287 50.9995 79.0708C51.2321 79.4459 51.479 79.8162 51.7401 80.1723C51.9062 80.4002 51.854 80.7182 51.6261 80.8844C51.5359 80.9509 51.4315 80.9841 51.327 80.9841V80.9794ZM49.1717 77.1196C48.9723 77.1196 48.7776 77.0009 48.6969 76.8015C48.5212 76.3695 48.3598 75.9279 48.2126 75.4864C48.1272 75.2158 48.2744 74.931 48.5402 74.8407C48.8108 74.7553 49.0957 74.9025 49.1859 75.1683C49.3236 75.5861 49.4755 76.0039 49.6417 76.4122C49.7509 76.6733 49.6227 76.9724 49.3616 77.0769C49.2998 77.1006 49.2334 77.1148 49.1669 77.1148L49.1717 77.1196ZM47.999 72.8563C47.7521 72.8563 47.5337 72.6759 47.4958 72.4195C47.4293 71.959 47.3771 71.4937 47.3391 71.0285C47.3201 70.7483 47.529 70.5015 47.8091 70.4825C48.0892 70.4635 48.3361 70.6724 48.3551 70.9525C48.3883 71.394 48.4358 71.8355 48.5022 72.2676C48.545 72.5477 48.3503 72.8088 48.0702 72.8468C48.0465 72.8468 48.018 72.8515 47.9943 72.8515L47.999 72.8563ZM47.8708 68.4363C47.8708 68.4363 47.8423 68.4363 47.8233 68.4363C47.5432 68.4125 47.3343 68.1609 47.3581 67.8808C47.4008 67.4203 47.4578 66.9503 47.5337 66.4898C47.5812 66.2097 47.8423 66.0198 48.1224 66.0672C48.4025 66.1147 48.5924 66.3758 48.545 66.6559C48.4738 67.0927 48.4168 67.5342 48.3788 67.971C48.3551 68.2369 48.1319 68.4363 47.8708 68.4363ZM48.7871 64.1112C48.7301 64.1112 48.6779 64.1017 48.6209 64.0828C48.3551 63.9926 48.2126 63.703 48.3028 63.4323C48.4548 62.9908 48.6209 62.554 48.8061 62.1268C48.9153 61.8656 49.2191 61.747 49.4755 61.8562C49.7366 61.9653 49.8553 62.2692 49.7461 62.5256C49.5752 62.9291 49.4138 63.3469 49.2713 63.7599C49.2001 63.9736 49.0007 64.1065 48.7871 64.1065V64.1112ZM50.7051 60.1328C50.6102 60.1328 50.5152 60.109 50.4298 60.0521C50.1924 59.9002 50.1212 59.5821 50.2731 59.3447C50.5247 58.9554 50.7906 58.5661 51.0707 58.1958C51.2416 57.9679 51.5597 57.9252 51.7876 58.0913C52.0154 58.2622 52.0582 58.5803 51.892 58.8082C51.6261 59.1595 51.3745 59.5298 51.1371 59.8954C51.0374 60.0473 50.876 60.1328 50.7051 60.1328ZM53.5157 56.7193C53.3827 56.7193 53.2451 56.6671 53.1454 56.5626C52.9507 56.3585 52.9555 56.0356 53.1596 55.841C53.4967 55.5181 53.848 55.2048 54.2041 54.9105C54.4225 54.7301 54.7453 54.7633 54.9257 54.9769C55.1061 55.1953 55.0729 55.5181 54.8592 55.6986C54.5222 55.9787 54.1851 56.2778 53.867 56.5816C53.7673 56.6766 53.6391 56.724 53.5157 56.724V56.7193ZM57.0479 54.0654C56.8722 54.0654 56.7013 53.9752 56.6063 53.809C56.4639 53.5669 56.5494 53.2536 56.7915 53.1111C57.195 52.8785 57.6128 52.6554 58.0306 52.456C58.287 52.3325 58.5908 52.437 58.7143 52.6933C58.8377 52.9497 58.7333 53.2536 58.4769 53.377C58.0828 53.5669 57.6888 53.7758 57.3042 53.9989C57.2235 54.0464 57.1333 54.0654 57.0479 54.0654ZM61.1118 52.323C60.8886 52.323 60.6845 52.1806 60.6228 51.9575C60.5421 51.6869 60.6987 51.402 60.9694 51.3213C61.4156 51.1884 61.8714 51.0744 62.3272 50.9795C62.6025 50.9225 62.8731 51.0982 62.9349 51.3735C62.9918 51.6489 62.8162 51.9195 62.5408 51.9812C62.1135 52.0714 61.6815 52.1806 61.2542 52.304C61.2067 52.3183 61.1593 52.323 61.1118 52.323Z" fill="white"/>
</g>
<defs>
<filter id="filter0_d_565_5404" x="0.5" y="0.414062" width="135.356" height="146.172" filterUnits="userSpaceOnUse" color-interpolation-filters="sRGB">
<feFlood flood-opacity="0" result="BackgroundImageFix"/>
<feColorMatrix in="SourceAlpha" type="matrix" values="0 0 0 0 0 0 0 0 0 0 0 0 0 0 0 0 0 0 127 0" result="hardAlpha"/>
<feOffset dy="6"/>
<feGaussianBlur stdDeviation="12"/>
<feComposite in2="hardAlpha" operator="out"/>
<feColorMatrix type="matrix" values="0 0 0 0 1 0 0 0 0 0.425 0 0 0 0 0.425 0 0 0 0.45 0"/>
<feBlend mode="normal" in2="BackgroundImageFix" result="effect1_dropShadow_565_5404"/>
<feBlend mode="normal" in="SourceGraphic" in2="effect1_dropShadow_565_5404" result="shape"/>
</filter>
<clipPath id="clip0_565_5404">
<rect width="41" height="45.6241" fill="white" transform="translate(46 43)"/>
</clipPath>
</defs>
</svg>
