<svg width="136" height="147" viewBox="0 0 136 147" fill="none" xmlns="http://www.w3.org/2000/svg">
<g filter="url(#filter0_d_565_5441)">
<path d="M65.1976 19.206C67.0441 18.1491 69.3122 18.1491 71.1587 19.206L108.837 40.7717C110.704 41.8406 111.856 43.8275 111.856 45.9791V89.0209C111.856 91.1725 110.704 93.1594 108.837 94.2283L71.1587 115.794C69.3122 116.851 67.0441 116.851 65.1976 115.794L27.5195 94.2283C25.6521 93.1594 24.5 91.1725 24.5 89.0209V45.9791C24.5 43.8275 25.6521 41.8406 27.5195 40.7717L65.1976 19.206Z" fill="black"/>
<path d="M67.1847 22.6775C67.8001 22.3252 68.5562 22.3252 69.1717 22.6775L106.85 44.2433C107.472 44.5996 107.856 45.2619 107.856 45.9791V89.0209C107.856 89.7381 107.472 90.4004 106.85 90.7567L69.1717 112.322C68.5562 112.675 67.8001 112.675 67.1847 112.322L29.5065 90.7567C28.884 90.4004 28.5 89.7381 28.5 89.0209V45.9791C28.5 45.2619 28.884 44.5996 29.5065 44.2433L67.1847 22.6775Z" stroke="#D61F26" stroke-width="8"/>
</g>
<g clip-path="url(#clip0_565_5441)">
<path d="M79.5667 51.4142C79.5844 51.0297 79.2308 50.875 78.9348 50.959C78.7226 50.6276 78.3117 50.4331 77.8212 50.5083C77.0743 50.6187 76.5485 51.2463 76.0005 51.7147C75.5056 52.1345 74.9841 52.5322 74.5952 53.0536C74.3478 53.3851 74.6925 53.774 75.0239 53.8049C75.7177 53.8623 76.4557 53.6193 77.092 53.363C77.2555 53.2967 77.4234 53.2304 77.5869 53.1597C76.9064 54.1628 76.1419 55.1262 75.8237 56.2796C75.753 56.5314 75.8105 56.7789 75.9431 56.9689C75.837 57.0529 75.7398 57.1501 75.6602 57.2562C75.0813 58.0516 75.3244 59.0282 74.8339 59.8899C74.2682 60.8798 73.4463 61.7503 72.7304 62.6297C72.2134 63.2661 71.4445 64.4681 70.596 64.6802C69.6282 64.9188 68.8637 64.1985 67.896 64.9144C67.7457 65.0249 67.6352 65.1486 67.5469 65.2812C67.158 64.2604 66.23 63.8317 65.4124 63.1821C64.7452 62.6518 64.0425 61.8211 63.2073 61.5868C62.7699 61.4631 62.434 61.8034 62.3898 62.2099C62.2926 63.1556 63.0483 64.172 63.5874 64.8879C64.2768 65.7982 65.112 66.8323 66.3316 66.8897C66.5879 66.903 66.8398 66.8102 67.0519 66.6555C66.9945 66.7881 66.9193 66.9162 66.8133 67.0355C66.0444 67.9105 64.5286 67.3758 63.689 66.9693C62.2351 66.2666 60.6266 64.6448 58.8988 64.9144C58.6911 64.9453 58.501 65.206 58.5187 65.4137C58.5276 65.5154 58.5364 65.6214 58.5452 65.7231C58.5452 65.7628 58.5717 65.7938 58.6115 65.807C59.9328 66.2843 60.9934 67.7691 62.0716 68.6308C63.0527 69.413 64.1619 70.0935 65.4301 70.2438C66.504 70.3719 67.5689 70.0935 68.4528 69.4704C68.8682 69.1788 69.2526 68.7943 69.5178 68.3568C69.6636 68.1138 69.7299 67.8398 69.7962 67.5658C70.0657 67.6277 70.3441 67.6984 70.5739 67.6807C71.1086 67.6454 71.6477 67.4686 72.1206 67.2211C73.2253 66.6378 74.0384 65.6789 74.8162 64.7288C76.4292 62.7623 78.621 60.6323 78.073 57.8704C78.0156 57.5876 77.8433 57.349 77.6179 57.1678C78.4398 56.8098 79.032 56.0012 79.3148 55.1394C79.739 53.8535 79.5048 52.7311 79.5578 51.4274L79.5667 51.4142Z" fill="white" fill-opacity="0.4"/>
<path d="M88.8419 76.6001C88.1835 76.3217 87.5251 75.5616 86.9727 75.1153C86.2745 74.5452 85.5851 73.9663 84.9001 73.3786C84.1003 72.6892 83.2916 71.9026 82.4166 71.2397C83.7202 69.6975 84.9532 67.6205 84.4582 65.6364C84.2682 64.8675 83.2695 64.8365 82.8674 65.4287C82.2443 66.3523 81.8333 67.351 81.1086 68.2127C81.8775 67.1212 82.4785 65.7734 82.5757 64.43C82.7569 64.3195 82.885 64.1339 82.8762 63.9041C82.8453 63.1131 82.5094 62.68 82.125 62.1056C82.0233 61.9155 81.9129 61.7255 81.7803 61.5443C81.0865 60.2805 79.2216 61.3941 79.858 62.6668C80.9981 64.947 77.3391 67.9078 75.7969 69.1805C73.7641 70.8509 71.4132 72.1324 69.0225 73.2106C66.6141 74.2933 64.0687 75.0357 61.6426 76.0654C60.56 76.5249 59.5701 77.2187 59.0884 78.1777C59.0177 78.1158 58.9559 78.0539 58.8807 77.9965C58.6112 77.7844 58.2753 77.9832 58.3239 78.3191C58.4212 78.9687 58.6554 79.5564 58.8719 80.1751C58.9205 80.3209 59.0177 80.4446 59.137 80.5374C58.4521 80.2988 57.7008 80.7805 57.6832 81.5494C57.6699 82.1283 57.966 82.4907 58.1693 83.0033C58.2179 83.127 58.2444 83.2684 58.2621 83.3966C58.2621 83.4142 58.2709 83.4142 58.2797 83.4054C58.2709 83.4231 58.2576 83.4496 58.24 83.4805C57.966 84.0108 57.5948 84.4571 57.4401 85.0493C57.3606 85.3454 57.4401 85.6945 57.6699 85.911C57.7229 85.9596 57.776 86.0038 57.8378 86.0436C58.1207 86.2248 58.4698 86.1982 58.7437 86.0524C58.9028 85.9685 59.0575 85.8624 59.2122 85.7431C58.7393 86.3131 58.3725 86.9097 58.3858 87.6963C58.3902 88.0145 58.7747 88.1647 59.0045 87.9526C60.2727 86.7771 62.1508 85.8447 62.9949 84.2848C63.4235 83.4938 63.5694 82.5967 63.3705 81.7792C65.3105 80.8114 67.2372 79.8613 69.2611 79.0438C71.5369 78.1246 73.8127 77.2099 76.0002 76.083C77.7722 75.1727 79.5045 74.0945 80.9849 72.7422C81.6079 73.9442 82.5183 75.0578 83.4021 76.0477C82.3813 76.5824 81.6212 77.6164 80.7197 78.3279C79.5884 79.225 78.3953 80.0469 77.2861 80.9749C75.7173 82.283 73.4371 84.5499 75.2136 86.5694C75.4434 86.8302 75.9162 86.5562 75.8013 86.2292C74.9528 83.8341 79.4868 81.8632 81.029 80.8733C82.262 80.0823 84.1091 78.9377 84.6306 77.4264C85.8635 78.8007 87.4367 80.3474 89.2264 79.4901C90.6007 78.8317 89.96 77.0729 88.8508 76.6089L88.8419 76.6001ZM60.697 80.3253C60.1004 80.8291 60.2506 81.9957 60.9533 82.3272C61.868 82.7602 60.8826 83.9578 60.1357 84.74C60.2285 84.6074 60.3125 84.4704 60.3832 84.3378C60.9798 83.2021 60.5379 81.4257 59.4552 80.7054C59.8618 80.8291 60.3346 80.6921 60.423 80.1751C60.5953 79.1896 62.0846 78.8715 63.0744 78.6196C62.2392 79.1366 61.4394 79.6934 60.6925 80.3253H60.697Z" fill="white" fill-opacity="0.4"/>
<path d="M58.1744 63.6595C57.8606 63.3723 57.295 63.2176 56.9193 63.496C56.694 63.6639 56.5349 63.8318 56.3758 64.0616C56.3537 64.0926 56.2786 64.1898 56.2918 64.1721C56.23 64.2472 56.1681 64.3224 56.1107 64.3975C55.9869 64.561 55.9958 64.5522 55.8853 64.6847C55.8323 64.7024 55.7881 64.7245 55.7395 64.7554C55.7041 64.7731 55.6776 64.7819 55.6511 64.7952C55.5097 64.8792 55.4169 65.0294 55.3771 65.1841C55.2357 65.7011 55.7571 66.1253 56.23 66.1518C56.5305 66.1651 56.8265 66.0679 57.1049 65.9442C57.3524 66.2314 57.8518 66.0325 57.9755 65.7055C58.0771 65.4315 58.2009 65.1752 58.3379 64.9145C58.5411 64.5212 58.5235 63.9821 58.1744 63.6595Z" fill="white" fill-opacity="0.4"/>
<path d="M81.838 75.1989C80.4681 75.8175 79.3059 76.9621 78.1614 77.9166C76.9019 78.9683 75.5762 80.0245 74.551 81.3148C74.3301 81.5932 74.5996 81.9954 74.9399 81.823C76.3761 81.0939 77.6399 80.0377 78.8949 79.0435C80.1323 78.0624 81.5287 77.1167 82.4611 75.8264C82.7616 75.411 82.2004 75.031 81.8336 75.1989H81.838Z" fill="white" fill-opacity="0.4"/>
<path d="M73.5524 57.037C72.5537 56.0472 71.2279 55.3622 70.1497 54.4475C69.1554 53.6034 68.2981 52.5826 67.2199 51.8402C66.9945 51.6856 66.7691 51.9419 66.8045 52.1584C67.0431 53.6078 67.9755 54.8673 68.8903 55.9809C69.8404 57.1342 71.0556 58.3583 72.4609 58.9107C73.5435 59.3349 74.3036 57.775 73.5524 57.0326V57.037Z" fill="white" fill-opacity="0.4"/>
<path d="M70.472 60.2431C69.4865 59.7835 68.395 59.7305 67.4273 59.1958C67.003 58.9616 65.1824 58.0424 65.4961 57.3531C65.5403 57.2603 65.4475 57.1498 65.3503 57.2072C64.1925 57.8568 64.8951 59.05 65.5845 59.8543C66.5479 60.9767 68.4348 62.2538 69.977 62.0859C70.4145 62.0373 70.8078 61.8119 70.9316 61.3612C70.9537 61.2772 70.9713 61.1844 70.9669 61.1004C70.9581 60.7734 70.7902 60.3934 70.4764 60.2475L70.472 60.2431Z" fill="white" fill-opacity="0.4"/>
<path d="M54.6432 69.0864C54.4665 69.0864 54.2986 68.9848 54.219 68.8125C53.1805 66.5764 52.6768 64.7425 52.6768 63.2135C52.6768 60.4781 54.1837 59.2717 55.6154 58.5647C55.5978 58.3835 55.5933 58.2111 55.5933 58.0344C55.5933 55.1399 57.7631 54.2031 58.8502 53.8495C59.0225 51.4412 61.4132 50.3143 62.4252 50.1906C63.8923 48.012 66.6763 47.4684 68.93 47.0265C69.0184 47.0088 69.1112 47 69.204 47C70.4104 47 71.1042 48.5246 71.2898 48.993C72.3283 51.64 73.8219 53.9468 75.7266 55.8514C76.2259 56.3507 76.4999 56.9738 76.4999 57.6146C76.4999 59.064 75.4835 59.2231 74.8074 59.3292C74.7013 59.3468 74.5997 59.3601 74.4936 59.3822C74.2373 59.4308 73.9943 59.2673 73.9413 59.0154C73.8926 58.7635 74.0562 58.5161 74.308 58.463C74.4229 58.4409 74.5422 58.4188 74.6616 58.4012C75.373 58.2907 75.5586 58.2332 75.5586 57.6146C75.5586 57.2257 75.3819 56.8368 75.0593 56.5186C73.0619 54.5212 71.4975 52.104 70.4104 49.3377C70.1364 48.6439 69.6548 47.9413 69.1996 47.9413C69.1687 47.9413 69.1377 47.9413 69.1068 47.9501C66.4731 48.4627 64.2017 49.0416 63.0836 50.8976C62.9953 51.0479 62.8317 51.1274 62.6594 51.123C62.6373 51.123 62.6152 51.123 62.5931 51.123C62.1159 51.123 59.7738 51.9449 59.7738 54.1324V54.1942C59.7782 54.4063 59.6412 54.5919 59.4379 54.6538C57.4228 55.246 56.5258 56.2889 56.5258 58.0388C56.5258 58.2774 56.5434 58.5205 56.5788 58.7812C56.6053 58.9845 56.4992 59.1878 56.3092 59.2717C54.9084 59.9125 53.6092 60.8361 53.6092 63.2179C53.6092 64.6055 54.0864 66.3113 55.063 68.4236C55.1735 68.6578 55.0675 68.9362 54.8333 69.0467C54.7714 69.0776 54.7007 69.0909 54.6344 69.0909L54.6432 69.0864Z" fill="white"/>
<path d="M72.4512 63.1378C71.7177 63.1378 71.0592 62.9875 70.4406 62.6782C70.2108 62.5633 70.1136 62.2805 70.2329 62.0507C70.3478 61.8165 70.6306 61.7237 70.8604 61.8386C71.3553 62.0861 71.8591 62.201 72.4512 62.201C73.7681 62.201 74.0156 61.9888 74.0156 60.8664C74.0156 60.4377 73.9272 59.3949 73.1141 59.0502C69.4772 57.5123 68.0543 55.1747 67.0158 53.4733C66.216 52.1609 65.7608 51.4759 64.8858 51.4759C64.3158 51.4759 63.7324 52.0592 63.6043 52.7486C63.5601 53.0049 63.3126 53.1728 63.0608 53.1242C62.8044 53.0756 62.6365 52.8326 62.6851 52.5807C62.8928 51.4361 63.8606 50.5391 64.8858 50.5391C66.3264 50.5391 67.0158 51.6748 67.8157 52.9872C68.8409 54.6709 70.118 56.7655 73.4765 58.1884C74.4133 58.5862 74.9524 59.5628 74.9524 60.8664C74.9524 62.7578 73.9935 63.1422 72.4468 63.1422L72.4512 63.1378Z" fill="white"/>
<path d="M69.0447 65.3609C66.7159 65.3609 65.0587 63.8761 63.6004 62.5681C62.4647 61.5473 61.4793 60.6679 60.432 60.6679C59.9945 60.6679 59.4995 60.7563 58.872 60.9419C58.6246 61.017 58.3638 60.8756 58.2887 60.6281C58.2136 60.3807 58.355 60.1199 58.6025 60.0448C59.3184 59.8283 59.9017 59.7311 60.432 59.7311C61.8416 59.7311 62.9994 60.7695 64.2279 61.8743C65.6288 63.1293 67.0738 64.4285 69.0447 64.4285C69.659 64.4285 70.64 64.1369 70.64 63.3503C70.64 62.6918 70.0125 61.8876 69.2657 61.6003C66.9501 60.6988 65.3857 59.3422 64.1263 58.2551C63.1187 57.3801 62.3189 56.6907 61.6207 56.6907C61.2937 56.6907 60.5248 56.7791 60.4099 57.5878C60.3745 57.8441 60.1359 58.0209 59.8796 57.9855C59.6233 57.9502 59.4465 57.7115 59.4819 57.4552C59.6277 56.4212 60.4673 55.7539 61.6207 55.7539C62.6724 55.7539 63.5827 56.5449 64.7405 57.548C65.9425 58.5909 67.4406 59.8857 69.6059 60.7298C70.7107 61.1584 71.5768 62.3118 71.5768 63.3547C71.5768 64.6671 70.2732 65.3742 69.0447 65.3742V65.3609Z" fill="white"/>
<path d="M65.1205 68.2068C63.8566 68.2068 62.8358 67.3672 61.7576 66.4834C60.56 65.5024 59.3227 64.486 57.6434 64.486H57.3739C56.4945 64.486 55.3455 64.3888 54.8771 63.9159C54.6959 63.7348 54.6959 63.4343 54.8771 63.2531C55.0583 63.0719 55.3588 63.0719 55.54 63.2531C55.6814 63.3945 56.3752 63.5492 57.3739 63.5492H57.6434C59.6629 63.5492 61.0903 64.7246 62.3541 65.7587C63.344 66.5718 64.1969 67.27 65.1205 67.27C66.3225 67.27 66.6627 66.3994 66.9544 65.3521L66.9941 65.2151C67.0649 64.9677 67.3256 64.8218 67.573 64.8925C67.8205 64.9632 67.9663 65.224 67.8956 65.4714L67.8603 65.604C67.604 66.5143 67.1311 68.2068 65.1205 68.2068Z" fill="white"/>
<path d="M49.4681 75.4158C49.3664 75.4158 49.2692 75.3848 49.1808 75.3185C48.9776 75.1595 48.9378 74.8678 49.0969 74.6601C55.5399 66.3081 57.8333 64.5935 59.3535 63.9792C59.5965 63.882 59.8661 64.0013 59.9633 64.24C60.0605 64.4786 59.9456 64.7526 59.7026 64.8498C58.3725 65.3845 56.1629 67.0372 49.8393 75.2302C49.7465 75.3495 49.6095 75.4113 49.4681 75.4113V75.4158Z" fill="white"/>
<path d="M58.7037 87.0494C58.5977 87.0494 58.4916 87.0141 58.4032 86.939C58.2044 86.771 58.1779 86.475 58.3458 86.2761C59.0484 85.4365 59.8571 84.672 60.6349 83.9296C60.8823 83.6954 61.1298 83.4567 61.3728 83.2225C59.2826 81.1058 57.5592 79.157 55.7385 77.1021C54.3907 75.5776 52.9943 74 51.43 72.3428C51.2532 72.1528 51.262 71.8567 51.4476 71.68C51.6377 71.5032 51.9337 71.512 52.1105 71.6976C53.6837 73.3636 55.0845 74.9456 56.4412 76.4791C58.3458 78.6311 60.1443 80.6639 62.3671 82.8911C62.5483 83.0723 62.5483 83.3728 62.3671 83.554C62.0136 83.9075 61.6468 84.2566 61.28 84.6057C60.52 85.3304 59.7334 86.0772 59.0617 86.8771C58.9689 86.9876 58.8363 87.045 58.7037 87.045V87.0494Z" fill="white"/>
<path d="M60.295 81.5583C60.1801 81.5583 60.0608 81.5141 59.9724 81.4302C59.7868 81.249 59.778 80.9529 59.9592 80.7673C62.9023 77.6916 64.0335 77.5149 65.7481 77.2409C67.9444 76.8918 71.2631 76.3615 81.6302 68.7254C82.5229 68.0669 83.2432 66.6882 83.2432 65.99C83.2432 65.4023 82.7261 64.598 81.86 64.2798C81.6346 64.1958 81.5065 63.9572 81.5683 63.723C81.6744 63.3076 81.7319 62.932 81.7319 62.605C81.7319 61.3411 80.5741 60.7357 79.6019 60.4529C79.3898 60.391 79.2483 60.1833 79.266 59.9624C79.2837 59.7414 79.2925 59.547 79.2925 59.3614C79.2925 56.6304 76.619 55.8483 75.6115 55.5522C75.3817 55.4859 75.2535 55.4461 75.1519 55.3887C74.9309 55.2561 74.8558 54.9689 74.9928 54.7435C75.1254 54.5225 75.4126 54.4474 75.638 54.5844C75.6645 54.5932 75.7573 54.6198 75.8766 54.6551C76.9549 54.9689 80.2294 55.9322 80.2294 59.3658C80.2294 59.4675 80.2294 59.5691 80.2205 59.6752C81.7981 60.2364 82.6643 61.2704 82.6643 62.6138C82.6643 62.9143 82.6289 63.2325 82.5626 63.5816C83.6144 64.134 84.1756 65.1946 84.1756 65.9988C84.1756 67.0771 83.2432 68.7077 82.1826 69.4899C71.6343 77.263 68.1786 77.8154 65.894 78.1777C64.2589 78.4385 63.3574 78.5799 60.6353 81.4257C60.5425 81.523 60.4187 81.5716 60.295 81.5716V81.5583Z" fill="white"/>
<path d="M75.6993 55.1443C75.5667 55.1443 75.4341 55.131 75.306 55.1045C75.0541 55.0559 74.8862 54.8084 74.9392 54.5521C74.9878 54.3002 75.2353 54.1323 75.4916 54.1853C75.5579 54.1986 75.6286 54.2074 75.7037 54.2074C76.5301 54.2074 78.5452 53.1468 78.5452 51.1848C78.5452 49.6249 77.9353 49.6249 77.489 49.6249C76.8571 49.6381 73.0876 50.2745 72.7739 51.7681C72.7208 52.02 72.4734 52.1835 72.2171 52.1305C71.9652 52.0774 71.8017 51.83 71.8547 51.5737C72.3673 49.1299 77.4404 48.6836 77.489 48.6836C78.8324 48.6836 79.482 49.5011 79.482 51.1848C79.482 53.7478 76.9852 55.1487 75.7037 55.1487L75.6993 55.1443Z" fill="white"/>
<path d="M74.6343 83.7491C74.5106 83.7491 74.3825 83.7005 74.2897 83.5989C73.0435 82.2599 70.5777 79.7057 68.0367 77.6287C67.8378 77.4652 67.8069 77.1692 67.9704 76.9703C68.1339 76.7714 68.43 76.7405 68.6289 76.904C71.214 79.0207 73.7152 81.6103 74.9746 82.9625C75.1514 83.1526 75.1425 83.4486 74.9525 83.6254C74.8641 83.7094 74.7492 83.7491 74.6343 83.7491Z" fill="white"/>
<path d="M87.8434 80.4559C87.7373 80.4559 87.6268 80.4205 87.5429 80.3454C86.3851 79.3644 85.4394 78.6043 84.6086 77.937C81.9351 75.7894 80.7154 74.8083 78.9567 71.6399C78.8329 71.4145 78.9125 71.1273 79.1378 71.0035C79.3632 70.8798 79.6505 70.9593 79.7742 71.1847C81.4446 74.1897 82.5405 75.0735 85.1919 77.2035C86.0271 77.8752 86.9772 78.6397 88.1439 79.6251C88.3427 79.793 88.3648 80.0891 88.1969 80.288C88.1041 80.3984 87.9715 80.4559 87.839 80.4559H87.8434Z" fill="white"/>
<path d="M76.9411 88.7657C76.8174 88.7657 76.6937 88.7171 76.6009 88.6199C75.337 87.2809 74.0732 86.0524 72.8358 84.9742C72.7342 84.8858 72.6768 84.7621 72.6768 84.6295C72.6768 84.4969 72.7298 84.3688 72.8226 84.2804C74.4621 82.7381 76.3136 81.2887 78.2757 79.7553C79.7959 78.5665 81.369 77.338 83.0218 75.9328C83.2206 75.7649 83.5167 75.787 83.6846 75.9858C83.8525 76.1847 83.8305 76.4807 83.6316 76.6487C81.9656 78.0672 80.3836 79.3001 78.859 80.4977C77.0649 81.9029 75.3635 83.2331 73.8478 84.6162C74.9835 85.6282 76.1413 86.7595 77.2903 87.9835C77.467 88.1736 77.4582 88.4696 77.2682 88.6464C77.1798 88.7304 77.0605 88.7746 76.9456 88.7746L76.9411 88.7657Z" fill="white"/>
<path d="M72.9682 81.5932C72.8135 81.5932 72.6588 81.5136 72.5704 81.3722C72.4334 81.1513 72.4997 80.864 72.7163 80.727C74.2453 79.7637 75.6549 78.6015 77.016 77.479C78.2799 76.4361 79.5879 75.3579 80.9843 74.4432C81.2009 74.3017 81.4925 74.3636 81.6339 74.5801C81.7753 74.7967 81.7135 75.0883 81.4969 75.2297C80.1447 76.1136 78.8588 77.1741 77.6126 78.2038C76.225 79.3483 74.7932 80.5282 73.2156 81.5225C73.1361 81.5711 73.0521 81.5932 72.9682 81.5932Z" fill="white"/>
<path d="M76.168 81.5919C76.0266 81.5919 75.8852 81.5256 75.7924 81.4063L74.7981 80.0806C74.6434 79.8729 74.6832 79.5812 74.8909 79.4221C75.0986 79.2675 75.3903 79.3072 75.5494 79.5149L76.5436 80.8407C76.6983 81.0484 76.6585 81.34 76.4508 81.4991C76.3669 81.561 76.2697 81.5919 76.168 81.5919Z" fill="white"/>
<path d="M78.7042 79.4981C78.5627 79.4981 78.4213 79.4319 78.3285 79.3125L77.3342 77.9868C77.1796 77.7791 77.2194 77.4875 77.427 77.3284C77.6347 77.1737 77.9264 77.2135 78.0855 77.4212L79.0798 78.7425C79.2344 78.9502 79.1947 79.2418 78.987 79.4009C78.903 79.4628 78.8058 79.4937 78.7042 79.4937V79.4981Z" fill="white"/>
<path d="M81.2413 78.172C81.1396 78.172 81.0336 78.1367 80.9496 78.0704C80.6977 77.8671 80.4945 77.6373 80.3 77.4119C80.0437 77.1203 79.8051 76.8463 79.4913 76.6872C79.2615 76.5723 79.1643 76.2895 79.2836 76.0597C79.3985 75.8299 79.6814 75.7371 79.9111 75.852C80.3884 76.0906 80.7198 76.4663 81.0071 76.7977C81.1838 77.001 81.3518 77.191 81.5374 77.3412C81.7406 77.5047 81.7716 77.7964 81.6125 77.9997C81.5197 78.1146 81.3827 78.1764 81.2457 78.1764L81.2413 78.172Z" fill="white"/>
</g>
<defs>
<filter id="filter0_d_565_5441" x="0.5" y="0.414062" width="135.356" height="146.172" filterUnits="userSpaceOnUse" color-interpolation-filters="sRGB">
<feFlood flood-opacity="0" result="BackgroundImageFix"/>
<feColorMatrix in="SourceAlpha" type="matrix" values="0 0 0 0 0 0 0 0 0 0 0 0 0 0 0 0 0 0 127 0" result="hardAlpha"/>
<feOffset dy="6"/>
<feGaussianBlur stdDeviation="12"/>
<feComposite in2="hardAlpha" operator="out"/>
<feColorMatrix type="matrix" values="0 0 0 0 1 0 0 0 0 0.425 0 0 0 0 0.425 0 0 0 0.45 0"/>
<feBlend mode="normal" in2="BackgroundImageFix" result="effect1_dropShadow_565_5441"/>
<feBlend mode="normal" in="SourceGraphic" in2="effect1_dropShadow_565_5441" result="shape"/>
</filter>
<clipPath id="clip0_565_5441">
<rect width="41" height="41.7645" fill="white" transform="translate(49 47)"/>
</clipPath>
</defs>
</svg>
