<svg width="357" height="227" viewBox="0 0 357 227" fill="none" xmlns="http://www.w3.org/2000/svg">
<path d="M334.956 64.3324C342.157 74.7639 350.926 150.351 356.037 204.183C357.143 215.828 347.97 225.829 336.273 225.869L5.52713 226.981C2.61127 226.991 0.275726 224.274 1.04291 221.461C1.15045 221.067 1.19693 220.772 1.23074 220.365C1.59747 215.949 3.0379 211.192 7.36011 198.753C7.78885 197.519 8.33463 196.31 9.03979 195.21C17.4035 182.17 24.8297 184.773 27.5841 187.859C28.3626 188.807 30.3425 191.174 33.0025 194.254C34.5136 196.004 36.5097 198.048 38.656 197.189C42.0092 195.847 44.2498 189.746 45.0837 186.052C45.9735 182.841 48.6429 171.239 52.2021 150.524C54.7942 131.667 58.8937 134.334 61.0998 138.901C61.5365 139.805 61.9398 140.726 62.4372 141.598C62.9781 142.546 63.7077 143.817 64.5729 145.309C66.549 148.717 70.3268 151.034 72.1449 147.539C74.5708 142.875 76.1735 134.229 76.8202 128.846C78.8965 114.996 83.7014 84.2848 86.3115 72.2414C89.8708 60.1979 94.7153 66.0189 96.6926 70.4348C99.5598 79.4675 105.828 99.0983 107.964 105.361C110.099 111.624 112.61 111.583 113.599 110.78C114.372 110.083 116.264 107.962 118.302 104.576C118.944 103.509 119.55 102.329 120.646 101.738C122.15 100.927 123.594 101.545 124.528 102.316C124.991 102.699 125.314 103.215 125.61 103.738C126.156 104.706 126.93 106.074 127.757 107.527C128.844 109.439 131.372 111.138 132.442 109.217C132.638 108.864 133.016 108.22 133.188 107.854C134.909 104.195 137.804 86.5382 139.107 77.6609C139.554 74.7587 140.888 67.4638 142.892 59.6863C143.321 58.0239 143.73 56.0594 145.252 55.2648C150.666 52.4376 154.046 83.218 155.123 100.544C156.31 117.806 158.742 154.017 158.979 160.761C159.276 169.191 160.759 177.622 161.945 186.052C162.259 187.327 162.56 188.224 162.853 188.829C164.184 191.577 166.416 186.297 167.31 183.377C169.443 176.416 172.219 171.242 174.105 168.412C174.85 167.294 175.82 166.361 176.844 165.491C180.682 162.226 186.847 156.519 189.529 152.33C191.794 148.794 194.197 148.719 195.824 149.485C196.888 149.987 197.53 151.05 198.329 151.915C199.574 153.262 201.53 154.739 203.766 154.739C208.037 154.739 211.28 142.294 212.368 136.072C214.049 129.247 217.707 114.153 218.893 108.372C220.26 101.712 221.879 96.0755 224.91 89.1049C225.435 87.8982 226.056 86.6992 226.993 85.7758C231.237 81.5962 234.219 87.4889 236.54 92.7502C237.234 94.3243 237.947 96.1306 239.538 96.7853C242.286 97.9159 244.184 93.2111 245.884 87.2957C248.257 81.5148 252.409 53.574 254.189 40.3262C254.98 35.9102 257.452 22.9836 261.011 6.60442C265.994 -9.29297 271.59 7.20659 273.765 17.4435C278.51 40.1254 288.417 86.9344 290.078 92.7152C292.154 99.9413 293.341 100.544 296.9 100.544C300.324 100.978 305.936 89.3609 309.035 81.7766C309.66 80.2483 310.338 78.6686 311.647 77.6624C311.974 77.4112 312.317 77.2024 312.66 77.0727C314.092 76.5313 314.961 78.3988 315.703 79.7379C318.54 84.8566 320.72 82.6513 321.518 80.6718C323.44 76.9189 327.132 70.1574 329.864 66.3818C331.217 64.5119 333.645 62.433 334.956 64.3324Z" fill="url(#paint0_linear_565_5683)" fill-opacity="0.1"/>
<defs>
<linearGradient id="paint0_linear_565_5683" x1="179" y1="0" x2="179" y2="227" gradientUnits="userSpaceOnUse">
<stop stop-color="#94E3FF"/>
<stop offset="1" stop-color="#8FBFDB" stop-opacity="0"/>
</linearGradient>
</defs>
</svg>
