<svg width="136" height="147" viewBox="0 0 136 147" fill="none" xmlns="http://www.w3.org/2000/svg">
<g filter="url(#filter0_d_454_2809)">
<path d="M65.1976 19.206C67.0441 18.1491 69.3122 18.1491 71.1587 19.206L108.837 40.7717C110.704 41.8406 111.856 43.8275 111.856 45.9791V89.0209C111.856 91.1725 110.704 93.1594 108.837 94.2283L71.1587 115.794C69.3122 116.851 67.0441 116.851 65.1976 115.794L27.5195 94.2283C25.6521 93.1594 24.5 91.1725 24.5 89.0209V45.9791C24.5 43.8275 25.6521 41.8406 27.5195 40.7717L65.1976 19.206Z" fill="black"/>
<path d="M67.1847 22.6775C67.8001 22.3252 68.5562 22.3252 69.1717 22.6775L106.85 44.2433C107.472 44.5996 107.856 45.2619 107.856 45.9791V89.0209C107.856 89.7381 107.472 90.4004 106.85 90.7567L69.1717 112.322C68.5562 112.675 67.8001 112.675 67.1847 112.322L29.5065 90.7567C28.884 90.4004 28.5 89.7381 28.5 89.0209V45.9791C28.5 45.2619 28.884 44.5996 29.5065 44.2433L67.1847 22.6775Z" stroke="#D61F26" stroke-width="8"/>
</g>
<g clip-path="url(#clip0_454_2809)">
<path opacity="0.3" d="M63.912 50.9736L64.8179 52.9949L67.2115 55.962L69.8328 57.8855L73.489 60.1026L77.922 61.8962L81.8695 62.4176L82.1927 63.1996L81.9993 64.9603L85.9786 62.0668L88.1788 60.4776L83.0341 56.1248L82.5494 58.3748L80.6397 58.9291L75.3334 57.8526L68.6683 54.5599L63.7822 50.7129L63.912 50.9736Z" fill="white"/>
<path opacity="0.3" d="M54.8196 60.4771L60.223 60.3464L62.5685 58.1778L62.7954 56.8406L62.4396 55.9442L61.3231 55.5857L59.8346 55.8048C59.8346 55.8048 59.4461 55.2271 59.398 55.1787L58.395 54.168H57.0035L56.4535 54.9509L55.8389 55.6195L54.2696 55.5052L53.105 55.978L52.7002 57.0052L53.6628 59.1573L54.8196 60.478V60.4771Z" fill="white"/>
<path opacity="0.3" d="M54.9241 64.2598H60.6507L63.859 67.2424L66.0421 71.2098L67.6407 74.2782L67.3338 79.9084L63.04 83.8394H55.4363L52.0991 83.6143L48.2401 79.9084L47.3574 75.2534L49.5061 69.754L54.9241 64.2598Z" fill="white"/>
<path d="M71.247 59.7061C74.4717 61.6469 77.998 62.7831 81.49 63.0144L81.3654 64.8712C81.3473 65.1397 81.4857 65.3943 81.7195 65.5242C81.9533 65.6541 82.2403 65.6359 82.456 65.4774L88.5015 61.0389C88.6725 60.9133 88.7765 60.7159 88.7842 60.5037C88.792 60.2906 88.7017 60.0863 88.5402 59.9494L83.0989 55.3308C82.9012 55.1628 82.6254 55.1212 82.3873 55.2225C82.1484 55.3247 81.9876 55.5533 81.9696 55.8132L81.839 57.7687C78.1381 57.5193 73.357 56.0427 70.1959 54.14C66.8019 52.0978 64.2776 49.5499 62.4805 46.3516C62.3112 46.0502 61.9468 45.9211 61.6279 46.0493C61.3082 46.1775 61.132 46.5239 61.2154 46.8599C62.4676 51.941 66.1237 56.6238 71.2461 59.7069L71.247 59.7061ZM69.492 55.329C73.0235 57.4543 78.4785 59.0756 82.4621 59.1847C82.8273 59.1934 83.1419 58.9093 83.1668 58.5386L83.2519 57.2699L86.9837 60.4379L82.8368 63.4829L82.909 62.4012C82.9219 62.2133 82.8583 62.0288 82.7328 61.8894C82.6073 61.7499 82.4311 61.6677 82.2446 61.6625C78.7544 61.5551 75.1953 60.4665 71.9526 58.5152C68.9754 56.7234 66.5277 54.366 64.8182 51.7098C66.1659 53.06 67.718 54.2603 69.492 55.329ZM90.3132 80.5796H88.5943V72.2716C88.5943 71.8888 88.2866 71.5788 87.9067 71.5788H82.982C82.6022 71.5788 82.2945 71.8888 82.2945 72.2716V80.5796H79.4497V67.284C79.4497 66.9012 79.142 66.5912 78.7621 66.5912H73.8374C73.4575 66.5912 73.1498 66.9012 73.1498 67.284V80.5796H70.305V62.0756C70.305 61.6928 69.9973 61.3827 69.6175 61.3827H64.6928C64.3129 61.3827 64.0052 61.6928 64.0052 62.0756V65.9884C63.468 65.3415 62.8776 64.6625 62.2313 63.9454C62.863 63.5609 63.2867 62.8628 63.2867 62.066C63.2867 61.0129 62.5458 60.1304 61.5609 59.92L62.8733 58.5975C63.7379 57.7263 63.7379 56.3077 62.8733 55.4364C62.1419 54.6986 60.9773 54.573 60.1058 55.1368C60.0714 55.1593 60.0517 55.1602 60.0139 55.1446C59.976 55.129 59.9631 55.1134 59.9546 55.0736C59.7337 54.0533 58.8226 53.3137 57.787 53.3137C56.7522 53.3137 55.8403 54.0542 55.6194 55.0736C55.6108 55.1134 55.598 55.1298 55.5601 55.1446C55.5223 55.1602 55.5026 55.1584 55.4682 55.1368C54.5967 54.573 53.4321 54.6986 52.7007 55.4364C52.283 55.8573 52.0527 56.4185 52.0527 57.017C52.0527 57.6154 52.283 58.1766 52.7007 58.5975L54.0131 59.92C53.0282 60.1296 52.2873 61.0121 52.2873 62.066C52.2873 62.8628 52.711 63.5609 53.3427 63.9454C50.9964 66.547 49.3935 68.655 48.3372 70.5239C46.5874 73.6183 46.5522 77.0392 48.2401 79.9084C50.094 83.0617 53.665 84.9999 57.5953 84.9999H57.9787C59.7861 84.9999 61.5162 84.5886 63.04 83.8394H90.3124C90.6922 83.8394 90.9999 83.5294 90.9999 83.1466V81.2725C90.9999 80.8897 90.6922 80.5796 90.3124 80.5796H90.3132ZM83.6696 72.9644H87.2192V80.5796H83.6696V72.9644ZM74.5258 67.9768H78.0754V80.5796H74.5258V67.9768ZM65.3812 62.7684H68.9307V80.5796H66.8998C67.0537 80.3622 67.1989 80.1379 67.3347 79.9084C69.0218 77.0392 68.9866 73.6183 67.2376 70.5239C66.7443 69.6518 66.1323 68.7268 65.3812 67.7248V62.7684ZM53.4278 57.017C53.4278 56.7883 53.5146 56.5753 53.6728 56.4159C53.9512 56.1353 54.3939 56.0877 54.7256 56.3025C55.1381 56.5684 55.6341 56.6134 56.0861 56.4246C56.5391 56.2358 56.8588 55.8513 56.9628 55.3689C57.047 54.9809 57.3934 54.6986 57.787 54.6986C58.1806 54.6986 58.527 54.98 58.6112 55.3689C58.7161 55.8513 59.0349 56.2358 59.4879 56.4246C59.9399 56.6134 60.4367 56.5692 60.8493 56.3025C61.181 56.0877 61.6236 56.1353 61.9021 56.4159C62.2304 56.7476 62.2304 57.2863 61.9021 57.618L59.6649 59.8723H55.9117L53.6736 57.618C53.5155 57.4587 53.4287 57.2456 53.4287 57.017H53.4278ZM54.4643 61.258H61.1097C61.5514 61.258 61.9115 61.62 61.9115 62.066C61.9115 62.5121 61.5523 62.8741 61.1097 62.8741H54.4643C54.0226 62.8741 53.6625 62.5112 53.6625 62.066C53.6625 61.6209 54.0217 61.258 54.4643 61.258ZM57.7758 83.6134C54.2598 83.6706 51.0583 81.9835 49.4236 79.2026C47.9746 76.7378 48.0132 73.8989 49.5328 71.2098C50.62 69.2872 52.3363 67.0736 54.9241 64.2598H60.6507C63.2377 67.0736 64.9549 69.2872 66.0421 71.2098C67.5616 73.8989 67.6012 76.7378 66.1513 79.2026C64.5441 81.935 61.4251 83.6151 57.9795 83.6143C57.9202 83.6143 57.7844 83.6134 57.7767 83.6134H57.7758ZM89.6248 82.4546H65.1723C65.358 82.2987 65.5385 82.1359 65.7129 81.9662H89.6248V82.4546ZM61.0125 75.754C61.0942 76.4295 60.9137 77.047 60.4909 77.5389C60.0319 78.0733 59.2919 78.4413 58.4462 78.5704V79.0762C58.4462 79.4589 58.1385 79.769 57.7586 79.769C57.3788 79.769 57.0711 79.4589 57.0711 79.0762V78.56C55.7888 78.3313 54.8012 77.4826 54.5064 76.2892C54.4145 75.9177 54.6388 75.5418 55.0075 75.4491C55.3762 75.3565 55.7492 75.5825 55.8412 75.9532C56.0732 76.8902 56.9954 77.2263 57.7552 77.2349H57.775C57.799 77.2349 57.824 77.2349 57.848 77.2349C58.5218 77.2193 59.1518 76.9829 59.4518 76.633C59.6202 76.4364 59.683 76.2104 59.6486 75.922C59.591 75.4465 59.3125 74.8663 57.6555 74.5917C55.341 74.2089 54.8012 73.0034 54.7557 72.0603C54.6929 70.7551 55.5937 69.6622 56.9963 69.3417C57.0212 69.3357 57.0461 69.3305 57.0719 69.3253V68.7979C57.0719 68.4151 57.3796 68.105 57.7595 68.105C58.1394 68.105 58.4471 68.4151 58.4471 68.7979V69.3192C59.3899 69.5011 60.2992 70.0813 60.7659 71.202C60.9103 71.5545 60.7444 71.9572 60.3963 72.1044C60.0482 72.2517 59.6469 72.088 59.4982 71.7381C59.1733 70.9578 58.4754 70.64 57.799 70.6374C57.6753 70.6365 57.4406 70.6607 57.3005 70.6928C56.7101 70.827 56.093 71.2401 56.13 71.9936C56.142 72.2534 56.1755 72.9428 57.8781 73.2242C58.5923 73.342 60.7659 73.7023 61.0134 75.7548L61.0125 75.754Z" fill="white"/>
</g>
<defs>
<filter id="filter0_d_454_2809" x="0.5" y="0.414062" width="135.356" height="146.172" filterUnits="userSpaceOnUse" color-interpolation-filters="sRGB">
<feFlood flood-opacity="0" result="BackgroundImageFix"/>
<feColorMatrix in="SourceAlpha" type="matrix" values="0 0 0 0 0 0 0 0 0 0 0 0 0 0 0 0 0 0 127 0" result="hardAlpha"/>
<feOffset dy="6"/>
<feGaussianBlur stdDeviation="12"/>
<feComposite in2="hardAlpha" operator="out"/>
<feColorMatrix type="matrix" values="0 0 0 0 1 0 0 0 0 0.425 0 0 0 0 0.425 0 0 0 0.45 0"/>
<feBlend mode="normal" in2="BackgroundImageFix" result="effect1_dropShadow_454_2809"/>
<feBlend mode="normal" in="SourceGraphic" in2="effect1_dropShadow_454_2809" result="shape"/>
</filter>
<clipPath id="clip0_454_2809">
<rect width="44" height="39" fill="white" transform="translate(47 46)"/>
</clipPath>
</defs>
</svg>
