<svg width="136" height="147" viewBox="0 0 136 147" fill="none" xmlns="http://www.w3.org/2000/svg">
<g filter="url(#filter0_d_454_2761)">
<path d="M65.1976 19.206C67.0441 18.1491 69.3122 18.1491 71.1587 19.206L108.837 40.7717C110.704 41.8406 111.856 43.8275 111.856 45.9791V89.0209C111.856 91.1725 110.704 93.1594 108.837 94.2283L71.1587 115.794C69.3122 116.851 67.0441 116.851 65.1976 115.794L27.5195 94.2283C25.6521 93.1594 24.5 91.1725 24.5 89.0209V45.9791C24.5 43.8275 25.6521 41.8406 27.5195 40.7717L65.1976 19.206Z" fill="black"/>
<path d="M67.1847 22.6775C67.8001 22.3252 68.5562 22.3252 69.1717 22.6775L106.85 44.2433C107.472 44.5996 107.856 45.2619 107.856 45.9791V89.0209C107.856 89.7381 107.472 90.4004 106.85 90.7567L69.1717 112.322C68.5562 112.675 67.8001 112.675 67.1847 112.322L29.5065 90.7567C28.884 90.4004 28.5 89.7381 28.5 89.0209V45.9791C28.5 45.2619 28.884 44.5996 29.5065 44.2433L67.1847 22.6775Z" stroke="#D61F26" stroke-width="8"/>
</g>
<g clip-path="url(#clip0_454_2761)">
<path d="M73.6737 57.2891V58.0824H70.839V79.3338H69.4238L68.0085 67.9991C58.6118 67.9991 51 75.6108 51 84.9991H85C85 77.5998 80.2655 71.3226 73.6653 68.9851V64.9986L73.6737 57.2891Z" fill="white" fill-opacity="0.3"/>
<path d="M80.7497 57.879V63.9515C80.7494 64.0091 80.7383 64.066 80.7173 64.1184C80.6962 64.1708 80.6656 64.2174 80.6275 64.2551C79.951 64.9246 79.3042 65.166 78.6875 65.166C77.8524 65.166 77.0724 64.7259 76.3465 64.3163L76.3412 64.3133C75.1658 63.6479 72.7274 63.0715 71.5413 64.1423V64.1469C71.5413 64.6829 70.833 64.6362 70.833 64.1469V57.879C70.8333 57.8213 70.8445 57.7644 70.8656 57.712C70.8868 57.6596 70.9175 57.613 70.9556 57.5753C72.5494 55.9975 75.3964 56.8056 76.6573 57.5187C77.8721 58.2059 78.9253 58.8 80.1635 57.5753C80.2147 57.5246 80.2775 57.4917 80.3446 57.4806C80.4116 57.4695 80.48 57.4805 80.5417 57.5125C80.6034 57.5444 80.6558 57.596 80.6926 57.6609C80.7295 57.7259 80.7493 57.8015 80.7497 57.879Z" fill="white"/>
<path d="M54.2343 53.125L55.25 51L53.125 52.0158L51 51L52.0158 53.125L51 55.25L53.125 54.2343L55.25 55.25L54.2343 53.125Z" fill="white"/>
<path d="M83.9843 68.709L85 66.584L82.875 67.5997L80.75 66.584L81.7657 68.709L80.75 70.834L82.875 69.8182L85 70.834L83.9843 68.709Z" fill="white"/>
<path d="M65.5692 57.375L66.585 55.25L64.46 56.2658L62.335 55.25L63.3507 57.375L62.335 59.5L64.46 58.4843L66.585 59.5L65.5692 57.375Z" fill="white"/>
<path d="M58.4843 64.459L59.5 62.334L57.375 63.3497L55.25 62.334L56.2658 64.459L55.25 66.584L57.375 65.5682L59.5 66.584L58.4843 64.459Z" fill="white"/>
<path d="M66.2275 65.166C66.8143 65.166 67.29 64.6903 67.29 64.1035C67.29 63.5167 66.8143 63.041 66.2275 63.041C65.6407 63.041 65.165 63.5167 65.165 64.1035C65.165 64.6903 65.6407 65.166 66.2275 65.166Z" fill="white" fill-opacity="0.3"/>
<path d="M69.0625 53.125C69.6493 53.125 70.125 52.6493 70.125 52.0625C70.125 51.4757 69.6493 51 69.0625 51C68.4757 51 68 51.4757 68 52.0625C68 52.6493 68.4757 53.125 69.0625 53.125Z" fill="white" fill-opacity="0.3"/>
<path d="M77.5625 55.25C78.1493 55.25 78.625 54.7743 78.625 54.1875C78.625 53.6007 78.1493 53.125 77.5625 53.125C76.9757 53.125 76.5 53.6007 76.5 54.1875C76.5 54.7743 76.9757 55.25 77.5625 55.25Z" fill="white" fill-opacity="0.3"/>
<path d="M58.4375 58.791C59.0243 58.791 59.5 58.3153 59.5 57.7285C59.5 57.1417 59.0243 56.666 58.4375 56.666C57.8507 56.666 57.375 57.1417 57.375 57.7285C57.375 58.3153 57.8507 58.791 58.4375 58.791Z" fill="white" fill-opacity="0.3"/>
<path d="M53.4775 70.834C54.0643 70.834 54.54 70.3583 54.54 69.7715C54.54 69.1847 54.0643 68.709 53.4775 68.709C52.8907 68.709 52.415 69.1847 52.415 69.7715C52.415 70.3583 52.8907 70.834 53.4775 70.834Z" fill="white" fill-opacity="0.3"/>
<path d="M70.833 62.334H73.6663V69.0425C72.5619 68.4811 71.9415 68.497 70.833 69.0425V62.334Z" fill="white"/>
<path d="M51 85L51 84L85 84L85 85L51 85Z" fill="white"/>
</g>
<defs>
<filter id="filter0_d_454_2761" x="0.5" y="0.414062" width="135.356" height="146.172" filterUnits="userSpaceOnUse" color-interpolation-filters="sRGB">
<feFlood flood-opacity="0" result="BackgroundImageFix"/>
<feColorMatrix in="SourceAlpha" type="matrix" values="0 0 0 0 0 0 0 0 0 0 0 0 0 0 0 0 0 0 127 0" result="hardAlpha"/>
<feOffset dy="6"/>
<feGaussianBlur stdDeviation="12"/>
<feComposite in2="hardAlpha" operator="out"/>
<feColorMatrix type="matrix" values="0 0 0 0 1 0 0 0 0 0.425 0 0 0 0 0.425 0 0 0 0.45 0"/>
<feBlend mode="normal" in2="BackgroundImageFix" result="effect1_dropShadow_454_2761"/>
<feBlend mode="normal" in="SourceGraphic" in2="effect1_dropShadow_454_2761" result="shape"/>
</filter>
<clipPath id="clip0_454_2761">
<rect x="51" y="51" width="34" height="34" rx="6" fill="white"/>
</clipPath>
</defs>
</svg>
