<svg width="136" height="147" viewBox="0 0 136 147" fill="none" xmlns="http://www.w3.org/2000/svg">
<g filter="url(#filter0_d_454_2798)">
<path d="M65.1976 19.206C67.0441 18.1491 69.3122 18.1491 71.1587 19.206L108.837 40.7717C110.704 41.8406 111.856 43.8275 111.856 45.9791V89.0209C111.856 91.1725 110.704 93.1594 108.837 94.2283L71.1587 115.794C69.3122 116.851 67.0441 116.851 65.1976 115.794L27.5195 94.2283C25.6521 93.1594 24.5 91.1725 24.5 89.0209V45.9791C24.5 43.8275 25.6521 41.8406 27.5195 40.7717L65.1976 19.206Z" fill="black"/>
<path d="M67.1847 22.6775C67.8001 22.3252 68.5562 22.3252 69.1717 22.6775L106.85 44.2433C107.472 44.5996 107.856 45.2619 107.856 45.9791V89.0209C107.856 89.7381 107.472 90.4004 106.85 90.7567L69.1717 112.322C68.5562 112.675 67.8001 112.675 67.1847 112.322L29.5065 90.7567C28.884 90.4004 28.5 89.7381 28.5 89.0209V45.9791C28.5 45.2619 28.884 44.5996 29.5065 44.2433L67.1847 22.6775Z" stroke="#D61F26" stroke-width="8"/>
</g>
<g clip-path="url(#clip0_454_2798)">
<path opacity="0.3" d="M62.4603 60.8008L54.2803 68.4108L59.3403 68.8808L59.1803 83.5108L60.6703 83.6608H63.7403L64.5003 83.1908L64.8703 68.4908C64.8703 68.4908 69.9903 68.5308 69.8803 68.4208C69.7703 68.3108 62.4603 60.8008 62.4603 60.8008Z" fill="white"/>
<path opacity="0.3" d="M72.3095 63.1211L76.3995 63.2211L76.8695 78.1811H81.2795L83.1095 78.6711L79.1895 82.7811L75.2695 84.7311L68.8895 80.7111L67.3595 78.5211L66.2695 78.2811L70.5495 78.2311L71.3495 77.8411L71.8895 78.1711L72.3095 63.1211Z" fill="white"/>
<path d="M85.8999 61.8907C87.6199 59.8507 86.4699 56.6607 84.0499 55.3607C81.3999 53.9307 76.7299 54.1707 74.5299 56.5207C72.7899 45.5507 53.7599 49.5107 55.3299 60.3007C54.0199 59.4307 51.9199 59.7707 50.8699 60.8607C49.8399 61.9207 49.6299 63.7607 50.3899 65.0307C47.8099 64.4707 46.2199 67.6407 47.3899 69.9707C49.4299 74.0107 55.3399 73.0007 59.0899 72.5407C58.9599 76.0507 59.0699 79.6007 58.8499 83.0907C58.8299 83.3507 58.9899 83.4907 59.1799 83.5307C59.1299 83.6707 59.1799 83.8307 59.3599 83.8707C61.0099 84.1707 62.6999 84.1707 64.3699 84.1307C64.6099 84.1307 64.7499 83.9707 64.7999 83.7807C64.9099 83.7607 65.0099 83.6807 65.0199 83.5507C65.0999 79.8207 65.0699 76.0907 65.0899 72.3607C67.0899 72.4807 69.1299 72.4907 71.1399 72.4407C71.1699 72.4407 71.1999 72.4307 71.2299 72.4207C71.2199 74.2407 71.2499 76.0507 71.3599 77.8507C69.8299 77.7207 68.1899 77.7207 66.6699 77.9107C66.6399 77.9107 66.6099 77.9207 66.5899 77.9407C66.3999 77.8407 66.1399 78.1107 66.2799 78.3007C67.2999 79.6607 68.6499 80.6907 70.0099 81.6907C71.6299 82.8807 73.1899 84.1607 74.8099 85.3407C74.9799 85.4607 75.1399 85.4107 75.2399 85.2907C75.2899 85.2907 75.3499 85.2907 75.3999 85.2707C76.7799 84.6307 77.9999 83.7307 79.1999 82.7907C80.5499 81.7307 82.0599 80.6107 83.1199 79.2507C83.2499 79.0807 83.2199 78.8407 83.1199 78.6807C83.2899 78.3907 83.1599 77.9207 82.7199 77.9107C80.9999 77.8707 79.1499 77.7707 77.4299 78.0707C77.4699 76.1807 77.4399 74.2907 77.3999 72.3907C81.4099 73.0007 88.0299 72.8007 89.9299 68.5407C91.2899 65.4907 88.9999 62.0107 85.8999 61.9007V61.8907ZM64.6499 68.1907C64.5299 68.2307 64.4699 68.3407 64.4799 68.4407C64.3899 68.5107 64.3199 68.6107 64.3099 68.7507C63.8799 73.5107 63.8499 78.4507 64.5099 83.1907C64.4699 83.1807 64.4299 83.1707 64.3799 83.1707C62.8399 83.2307 61.2899 83.2007 59.7599 83.2807C59.7899 83.2207 59.8199 83.1507 59.8299 83.0707C60.2099 78.4507 60.7199 73.3607 59.9399 68.7407C60.1399 68.4807 60.0199 67.9607 59.5799 67.9207C58.0999 67.8007 56.5999 67.7907 55.1199 67.9607C57.6599 66.0307 59.8999 63.6007 62.1799 61.3907C63.1999 62.6807 64.4899 63.7607 65.6799 64.8807C66.7499 65.8907 67.7899 66.9607 68.9099 67.9207C68.3299 67.9207 67.7499 67.9407 67.1699 67.9507C66.3399 67.9707 65.4599 67.9107 64.6699 68.1907H64.6499ZM82.2599 78.8807C81.1099 79.7907 80.0699 80.8507 78.9399 81.7807C77.7299 82.7707 76.4299 83.6707 75.2699 84.7307C74.1299 83.4007 72.5699 82.4107 71.1599 81.4007C69.8699 80.4707 68.6199 79.4907 67.3599 78.5207C68.7099 78.7207 70.1399 78.8007 71.4799 78.7607C71.8399 78.7507 71.9699 78.4407 71.8899 78.1807C71.9099 78.1407 71.9299 78.1007 71.9399 78.0407C72.4199 73.1207 72.3099 68.0707 72.3099 63.1407V63.1207C73.6499 63.0807 75.0599 63.3507 76.3999 63.2207C76.2099 68.1707 76.0899 73.2807 76.8699 78.1907C76.6699 78.2907 76.6599 78.6407 76.9099 78.6907C78.6499 78.9907 80.4899 78.8907 82.2599 78.8907V78.8807ZM86.4699 70.3507C83.7499 71.7507 80.3799 71.6507 77.3899 71.5907C77.3199 68.7007 77.2299 65.8007 77.2899 62.9107C77.2899 62.6307 77.0899 62.5007 76.8799 62.4907C76.8399 62.4607 76.7999 62.4307 76.7499 62.4207C75.3399 62.1007 73.7099 62.4707 72.2899 62.5807C72.1699 62.5807 72.0899 62.6707 72.0499 62.7607C71.8099 62.6907 71.4999 62.8107 71.4899 63.1407C71.3999 65.9207 71.2799 68.7407 71.2399 71.5507C71.2099 71.5507 71.1799 71.5307 71.1399 71.5307C69.1499 71.4107 67.0899 71.4307 65.0999 71.6507C65.0999 70.7007 65.1199 69.7507 65.1399 68.8007C65.7999 68.9207 66.4899 68.9007 67.1499 68.9107C68.0999 68.9307 69.0499 68.9707 69.9899 68.9107C70.5399 68.8707 70.5899 68.1607 70.1299 68.0007C70.1299 67.9907 70.1199 67.9707 70.1099 67.9607C68.9199 66.5507 67.4299 65.3207 66.0899 64.0507C64.9299 62.9407 63.7899 61.7207 62.4599 60.8107C62.3799 60.4907 61.9699 60.2507 61.6599 60.5507C59.1499 62.9407 56.3499 65.2707 54.2199 68.0107C54.1199 68.1407 54.1699 68.3407 54.2799 68.4207C54.3199 68.5107 54.4099 68.5807 54.5099 68.5907C56.1199 68.7107 57.7299 68.7807 59.3399 68.9007C59.2399 69.8607 59.1699 70.8307 59.1299 71.8007C57.2099 71.8407 55.2699 72.0507 53.3499 71.9707C52.0499 71.9207 50.6799 71.7407 49.5699 70.9907C47.3699 69.5007 47.3299 65.2007 50.8499 65.9207C50.9599 65.9407 51.0499 65.9107 51.1299 65.8507C51.3599 65.9307 51.6699 65.7207 51.4899 65.4607C50.6899 64.2807 50.4099 62.6207 51.5099 61.5007C52.6599 60.3307 54.1899 60.7307 55.4099 61.4707C55.6999 61.6507 55.9499 61.4407 55.9899 61.1807C56.0499 61.1307 56.0899 61.0507 56.0799 60.9507C55.1499 50.4907 72.8899 46.3307 73.6699 57.7507C73.7099 58.3707 74.6699 58.3807 74.6499 57.7507C74.6499 57.7007 74.6399 57.6607 74.6399 57.6107C76.0599 55.9307 78.5199 55.5107 80.6299 55.5907C83.5799 55.7007 88.3399 59.2607 84.3999 61.9807C84.2599 62.0807 84.1999 62.2107 84.1999 62.3407C84.1299 62.5707 84.2499 62.8607 84.5499 62.8507C89.3299 62.7707 90.7699 68.1407 86.4699 70.3407V70.3507Z" fill="white"/>
</g>
<defs>
<filter id="filter0_d_454_2798" x="0.5" y="0.414062" width="135.356" height="146.172" filterUnits="userSpaceOnUse" color-interpolation-filters="sRGB">
<feFlood flood-opacity="0" result="BackgroundImageFix"/>
<feColorMatrix in="SourceAlpha" type="matrix" values="0 0 0 0 0 0 0 0 0 0 0 0 0 0 0 0 0 0 127 0" result="hardAlpha"/>
<feOffset dy="6"/>
<feGaussianBlur stdDeviation="12"/>
<feComposite in2="hardAlpha" operator="out"/>
<feColorMatrix type="matrix" values="0 0 0 0 1 0 0 0 0 0.425 0 0 0 0 0.425 0 0 0 0.45 0"/>
<feBlend mode="normal" in2="BackgroundImageFix" result="effect1_dropShadow_454_2798"/>
<feBlend mode="normal" in="SourceGraphic" in2="effect1_dropShadow_454_2798" result="shape"/>
</filter>
<clipPath id="clip0_454_2798">
<rect width="43.33" height="35.39" fill="white" transform="translate(47 50)"/>
</clipPath>
</defs>
</svg>
