<svg width="311" height="612" viewBox="0 0 311 612" fill="none" xmlns="http://www.w3.org/2000/svg">
<path d="M9.21536 610.112H38.9009C39.0121 611.072 39.8274 611.848 40.828 611.848C41.9028 611.848 42.7552 610.998 42.7552 609.927C42.7552 609.299 42.4216 608.708 41.9398 608.376L56.8011 582.743C57.0606 582.854 57.32 582.928 57.5794 582.928C58.6542 582.928 59.5066 582.078 59.5066 581.007C59.5066 579.936 58.6542 579.087 57.5794 579.087C57.2829 579.087 57.0235 579.161 56.8011 579.271L41.9398 553.639C42.4216 553.306 42.7552 552.715 42.7552 552.087C42.7552 551.459 42.4216 550.868 41.9398 550.536L56.8011 524.903C57.0606 525.014 57.32 525.088 57.5794 525.088C58.6542 525.088 59.5066 524.238 59.5066 523.167C59.5066 522.096 58.6542 521.247 57.5794 521.247C57.2829 521.247 57.0235 521.321 56.8011 521.431L41.9398 495.799C42.4216 495.466 42.7552 494.875 42.7552 494.247C42.7552 493.915 42.6811 493.619 42.5328 493.324C42.3846 493.065 42.1992 492.844 41.9769 492.696L56.8382 467.063C57.0976 467.174 57.3571 467.248 57.6165 467.248C58.6171 467.248 59.4324 466.472 59.5436 465.512H89.2292C89.3404 466.472 90.1557 467.248 91.1563 467.248C91.4528 467.248 91.7122 467.174 91.9346 467.063L106.796 492.696C106.314 493.028 105.981 493.619 105.981 494.247C105.981 495.318 106.833 496.168 107.908 496.168C108.908 496.168 109.724 495.392 109.835 494.432H139.52C139.632 495.392 140.447 496.168 141.448 496.168C141.744 496.168 142.003 496.094 142.226 495.983L157.087 521.616C156.605 521.948 156.272 522.539 156.272 523.167C156.272 524.238 157.124 525.088 158.199 525.088C159.2 525.088 160.015 524.312 160.126 523.352H189.812C189.923 524.312 190.738 525.088 191.739 525.088C192.814 525.088 193.666 524.238 193.666 523.167C193.666 522.539 193.332 521.948 192.851 521.616L207.712 495.983C207.971 496.094 208.231 496.168 208.49 496.168C209.565 496.168 210.417 495.318 210.417 494.247C210.417 493.176 209.565 492.327 208.49 492.327C208.194 492.327 207.934 492.401 207.712 492.511L192.851 466.879C193.332 466.546 193.666 465.955 193.666 465.327C193.666 464.699 193.332 464.108 192.851 463.776L207.712 438.143C207.712 438.143 207.749 438.143 207.749 438.18C207.971 438.291 208.231 438.328 208.49 438.328C209.491 438.328 210.306 437.552 210.417 436.592H240.103C240.214 437.552 241.029 438.328 242.03 438.328C243.105 438.328 243.957 437.478 243.957 436.407C243.957 435.779 243.624 435.189 243.142 434.856L258.003 409.223C258.263 409.334 258.522 409.408 258.781 409.408C259.782 409.408 260.597 408.632 260.708 407.672H290.394C290.505 408.632 291.321 409.408 292.321 409.408C293.396 409.408 294.248 408.559 294.248 407.487C294.248 406.86 293.915 406.269 293.433 405.936L308.294 380.303C308.554 380.414 308.813 380.488 309.073 380.488C310.147 380.488 311 379.639 311 378.567C311 377.496 310.147 376.647 309.073 376.647C308.776 376.647 308.517 376.721 308.294 376.831L293.433 351.199C293.915 350.866 294.248 350.275 294.248 349.647C294.248 348.576 293.396 347.727 292.321 347.727C291.321 347.727 290.505 348.502 290.394 349.463H260.708C260.671 349.167 260.597 348.909 260.449 348.687C260.116 348.133 259.486 347.727 258.781 347.727C258.485 347.727 258.225 347.801 258.003 347.911L243.142 322.279C243.624 321.946 243.957 321.355 243.957 320.727C243.957 319.656 243.105 318.807 242.03 318.807C241.029 318.807 240.214 319.582 240.103 320.543H210.417C210.38 320.1 210.158 319.693 209.861 319.361C209.528 319.028 209.009 318.807 208.49 318.807C208.194 318.807 207.934 318.881 207.712 318.992L192.851 293.359C193.332 293.026 193.666 292.435 193.666 291.807C193.666 291.475 193.592 291.18 193.444 290.884C193.295 290.626 193.11 290.404 192.888 290.219L207.749 264.587C208.008 264.697 208.268 264.771 208.527 264.771C209.602 264.771 210.454 263.922 210.454 262.851C210.454 261.779 209.602 260.93 208.527 260.93C208.231 260.93 207.971 261.004 207.749 261.115L192.888 235.482C193.369 235.149 193.703 234.559 193.703 233.931C193.703 233.598 193.629 233.303 193.481 233.007C193.332 232.749 193.147 232.527 192.925 232.379L207.786 206.747C208.045 206.857 208.305 206.931 208.564 206.931C209.565 206.931 210.38 206.156 210.491 205.195H240.177C240.288 206.156 241.103 206.931 242.104 206.931C243.179 206.931 244.031 206.082 244.031 205.011C244.031 204.383 243.698 203.792 243.216 203.459L258.077 177.827C258.337 177.937 258.596 178.011 258.855 178.011C259.93 178.011 260.783 177.162 260.783 176.091C260.783 175.02 259.93 174.17 258.855 174.17C258.559 174.17 258.3 174.244 258.077 174.355L243.216 148.722C243.698 148.39 244.031 147.799 244.031 147.171C244.031 146.1 243.179 145.25 242.104 145.25C241.103 145.25 240.288 146.026 240.177 146.986H210.491C210.454 146.543 210.232 146.137 209.935 145.804C209.602 145.472 209.083 145.25 208.564 145.25C208.268 145.25 208.008 145.324 207.786 145.435L192.925 119.802C193.406 119.47 193.74 118.879 193.74 118.251C193.74 117.18 192.888 116.33 191.813 116.33C190.812 116.33 189.997 117.106 189.886 118.066H160.2C160.089 117.106 159.274 116.33 158.273 116.33C157.198 116.33 156.346 117.18 156.346 118.251C156.346 118.879 156.679 119.47 157.161 119.802L142.3 145.435C142.04 145.324 141.781 145.25 141.522 145.25C140.521 145.25 139.706 146.026 139.594 146.986H109.909C109.872 146.543 109.65 146.137 109.353 145.804C109.02 145.472 108.501 145.25 107.982 145.25C107.685 145.25 107.426 145.324 107.204 145.435L92.3422 119.802C92.5646 119.617 92.787 119.396 92.8981 119.137C93.0464 118.879 93.1205 118.546 93.1205 118.214C93.1205 117.586 92.787 116.995 92.3052 116.663L107.166 91.0297C107.426 91.1406 107.685 91.2144 107.945 91.2144C109.02 91.2144 109.872 90.3649 109.872 89.2938C109.872 88.2227 109.02 87.3732 107.945 87.3732C107.648 87.3732 107.389 87.4471 107.166 87.5579L92.3052 61.9251C92.787 61.5927 93.1205 61.0017 93.1205 60.3738C93.1205 60.1153 93.0835 59.8568 92.9723 59.6351C92.824 59.3027 92.6017 59.0442 92.3052 58.8226L107.166 33.1898C107.426 33.3006 107.685 33.3745 107.945 33.3745C109.02 33.3745 109.872 32.525 109.872 31.4539C109.872 30.3828 109.02 29.5333 107.945 29.5333C107.648 29.5333 107.389 29.6071 107.166 29.7179L92.3052 4.08516C92.787 3.75274 93.1205 3.16179 93.1205 2.53389C93.1205 1.46278 92.2681 0.613281 91.1934 0.613281C90.1927 0.613281 89.3774 1.38891 89.2662 2.34922H59.5807C59.4695 1.38891 58.6541 0.613281 57.6535 0.613281C56.5788 0.613281 55.7264 1.46278 55.7264 2.53389C55.7264 3.16179 56.0599 3.75274 56.5417 4.08516L41.6804 29.7179C41.421 29.6071 41.1616 29.5333 40.8651 29.5333C39.8644 29.5333 39.0491 30.3089 38.9379 31.2692H9.25241C9.1412 30.3089 8.32587 29.5333 7.32526 29.5333C6.25049 29.5333 5.3981 30.3828 5.3981 31.4539C5.3981 32.0818 5.73163 32.6727 6.21344 33.0051L-8.72198 58.1577C-8.98141 58.0469 -9.24081 57.9731 -9.50024 57.9731C-10.5009 57.9731 -11.3162 58.7487 -11.4274 59.709H-41.1129C-41.15 59.2658 -41.3724 58.8595 -41.6689 58.5271C-42.0024 58.1947 -42.5212 57.9731 -43.0401 57.9731C-43.3366 57.9731 -43.596 58.0469 -43.8184 58.1577L-58.6797 32.525C-58.1979 32.1926 -57.8643 31.6016 -57.8643 30.9737C-57.8643 29.9026 -58.7167 29.0531 -59.7915 29.0531C-60.7921 29.0531 -61.6075 29.8287 -61.7186 30.789H-91.4042C-91.5153 29.8287 -92.3307 29.0531 -93.3313 29.0531C-94.4061 29.0531 -95.2585 29.9026 -95.2585 30.9737C-95.2585 31.6016 -94.9249 32.1926 -94.4431 32.525L-109.304 58.1577C-109.564 58.0469 -109.823 57.9731 -110.083 57.9731C-111.157 57.9731 -112.01 58.8226 -112.01 59.8937C-112.01 60.9648 -111.157 61.8143 -110.083 61.8143C-109.786 61.8143 -109.527 61.7404 -109.304 61.6296L-94.4431 87.2624C-94.9249 87.5948 -95.2585 88.1858 -95.2585 88.8137C-95.2585 89.4416 -94.9249 90.0325 -94.4431 90.3649L-109.304 115.998C-109.564 115.887 -109.823 115.813 -110.083 115.813C-110.935 115.813 -111.676 116.367 -111.936 117.18C-111.973 117.29 -112.01 117.438 -112.01 117.549H-141.695C-141.807 116.589 -142.622 115.813 -143.623 115.813C-144.697 115.813 -145.55 116.663 -145.55 117.734C-145.55 118.362 -145.216 118.952 -144.734 119.285L-159.596 144.918C-159.855 144.807 -160.115 144.733 -160.374 144.733C-161.375 144.733 -162.19 145.509 -162.301 146.469H-191.987C-192.024 146.026 -192.246 145.619 -192.543 145.287C-192.876 144.955 -193.395 144.733 -193.914 144.733C-194.21 144.733 -194.47 144.807 -194.692 144.918L-209.553 119.285C-209.072 118.952 -208.738 118.362 -208.738 117.734C-208.738 116.663 -209.59 115.813 -210.665 115.813C-211.666 115.813 -212.481 116.589 -212.592 117.549H-242.278C-242.389 116.589 -243.204 115.813 -244.205 115.813C-245.28 115.813 -246.132 116.663 -246.132 117.734C-246.132 118.362 -245.799 118.952 -245.317 119.285L-260.178 144.918C-260.438 144.807 -260.697 144.733 -260.956 144.733C-262.031 144.733 -262.884 145.583 -262.884 146.654C-262.884 147.725 -262.031 148.574 -260.956 148.574C-260.66 148.574 -260.4 148.5 -260.178 148.39L-245.317 174.022C-245.799 174.355 -246.132 174.946 -246.132 175.574C-246.132 176.201 -245.799 176.792 -245.317 177.125L-260.178 202.758C-260.438 202.647 -260.697 202.573 -260.956 202.573C-262.031 202.573 -262.884 203.422 -262.884 204.494C-262.884 205.565 -262.031 206.414 -260.956 206.414C-260.66 206.414 -260.4 206.34 -260.178 206.229L-245.317 231.862C-245.799 232.195 -246.132 232.786 -246.132 233.414C-246.132 234.485 -245.28 235.334 -244.205 235.334C-243.204 235.334 -242.389 234.559 -242.278 233.598H-212.592C-212.481 234.559 -211.666 235.334 -210.665 235.334C-210.369 235.334 -210.109 235.26 -209.887 235.149L-195.026 260.782C-195.507 261.115 -195.841 261.706 -195.841 262.333C-195.841 262.961 -195.507 263.552 -195.026 263.885L-209.85 289.481C-210.072 289.37 -210.369 289.296 -210.628 289.296C-211.036 289.296 -211.406 289.407 -211.703 289.628C-212.185 289.924 -212.481 290.441 -212.555 291.032H-242.241C-242.352 290.072 -243.167 289.296 -244.168 289.296C-245.243 289.296 -246.095 290.145 -246.095 291.217C-246.095 291.844 -245.762 292.435 -245.28 292.768L-260.141 318.401C-260.4 318.29 -260.66 318.216 -260.919 318.216C-261.92 318.216 -262.735 318.992 -262.846 319.952H-292.532C-292.643 318.992 -293.459 318.216 -294.459 318.216C-295.534 318.216 -296.386 319.065 -296.386 320.137C-296.386 320.764 -296.053 321.355 -295.571 321.688L-310.432 347.321C-310.692 347.21 -310.951 347.136 -311.211 347.136C-312.285 347.136 -313.138 347.985 -313.138 349.056C-313.138 350.128 -312.285 350.977 -311.211 350.977C-310.914 350.977 -310.655 350.903 -310.432 350.792L-295.571 376.425C-296.053 376.758 -296.386 377.349 -296.386 377.976C-296.386 379.048 -295.534 379.897 -294.459 379.897C-293.459 379.897 -292.643 379.121 -292.532 378.161H-262.958C-262.846 379.121 -262.031 379.897 -261.031 379.897C-260.734 379.897 -260.475 379.823 -260.252 379.712L-245.391 405.345C-245.873 405.678 -246.206 406.269 -246.206 406.896C-246.206 407.968 -245.354 408.817 -244.279 408.817C-243.278 408.817 -242.463 408.041 -242.352 407.081H-212.666C-212.555 408.041 -211.74 408.817 -210.739 408.817C-210.443 408.817 -210.183 408.743 -209.961 408.632L-195.1 434.265C-195.581 434.598 -195.915 435.189 -195.915 435.816C-195.915 436.444 -195.581 437.035 -195.1 437.368L-209.961 463C-210.22 462.89 -210.48 462.816 -210.739 462.816C-211.814 462.816 -212.666 463.665 -212.666 464.736C-212.666 465.808 -211.814 466.657 -210.739 466.657C-210.443 466.657 -210.183 466.583 -209.961 466.472L-195.1 492.105C-195.581 492.438 -195.915 493.028 -195.915 493.656C-195.915 494.727 -195.063 495.577 -193.988 495.577C-192.987 495.577 -192.172 494.801 -192.061 493.841H-162.375C-162.264 494.801 -161.449 495.577 -160.448 495.577C-159.373 495.577 -158.521 494.727 -158.521 493.656C-158.521 493.028 -158.854 492.438 -159.336 492.105L-144.475 466.472C-144.216 466.583 -143.956 466.657 -143.697 466.657C-142.696 466.657 -141.881 465.881 -141.77 464.921H-112.084C-112.047 465.106 -112.01 465.29 -111.936 465.475C-111.639 466.177 -110.972 466.657 -110.157 466.657C-109.86 466.657 -109.601 466.583 -109.379 466.472L-94.5173 492.105C-94.999 492.438 -95.3326 493.028 -95.3326 493.656C-95.3326 494.727 -94.4802 495.577 -93.4054 495.577C-92.4048 495.577 -91.5895 494.801 -91.4783 493.841H-61.7186C-61.6445 494.764 -60.9033 495.466 -59.9768 495.577C-59.9027 495.577 -59.8285 495.577 -59.7915 495.577C-59.7174 495.577 -59.6432 495.577 -59.6062 495.577C-59.3838 495.54 -59.1985 495.503 -59.0132 495.429L-44.1519 521.062C-44.6337 521.394 -44.9673 521.985 -44.9673 522.613C-44.9673 523.241 -44.6337 523.832 -44.1519 524.165L-59.0132 549.797C-59.2726 549.687 -59.5321 549.613 -59.7915 549.613C-60.8662 549.613 -61.7186 550.462 -61.7186 551.533C-61.7186 552.604 -60.8662 553.454 -59.7915 553.454C-59.495 553.454 -59.2356 553.38 -59.0132 553.269L-44.1519 578.902C-44.6337 579.234 -44.9673 579.825 -44.9673 580.453C-44.9673 581.524 -44.1148 582.374 -43.0401 582.374C-42.0395 582.374 -41.2241 581.598 -41.1129 580.638H-11.4274C-11.3162 581.598 -10.5009 582.374 -9.50024 582.374C-9.20377 582.374 -8.94434 582.3 -8.72198 582.189L6.13931 607.822C5.6575 608.154 5.32397 608.745 5.32397 609.373C5.32397 610.444 6.17636 611.294 7.25113 611.294C8.28882 611.848 9.10416 611.109 9.21536 610.112ZM140.076 148.131C140.41 148.463 140.929 148.685 141.448 148.685C141.744 148.685 142.003 148.611 142.226 148.5L157.087 174.133C156.605 174.466 156.272 175.056 156.272 175.684C156.272 176.312 156.605 176.903 157.087 177.236L143.968 199.877L142.226 202.868C141.966 202.758 141.707 202.684 141.448 202.684C140.447 202.684 139.632 203.459 139.52 204.42H109.835C109.798 204.161 109.724 203.903 109.612 203.681C109.279 203.09 108.649 202.684 107.908 202.684C107.611 202.684 107.352 202.758 107.129 202.868L92.2681 177.236C92.7499 176.903 93.0834 176.312 93.0834 175.684C93.0834 175.056 92.7499 174.466 92.2681 174.133L107.129 148.5C107.389 148.611 107.648 148.685 107.908 148.685C108.908 148.685 109.724 147.909 109.835 146.949H139.52C139.557 147.392 139.78 147.799 140.076 148.131ZM-158.484 262.555C-158.484 261.927 -158.817 261.336 -159.299 261.004L-144.438 235.371C-144.178 235.482 -143.919 235.556 -143.66 235.556C-142.659 235.556 -141.844 234.78 -141.732 233.82H-112.047C-112.01 234.078 -111.936 234.337 -111.825 234.558C-111.491 235.149 -110.861 235.556 -110.12 235.556C-109.823 235.556 -109.564 235.482 -109.341 235.371L-94.5173 261.004C-94.8137 261.225 -95.0361 261.484 -95.1473 261.816C-95.2585 262.038 -95.2955 262.297 -95.2955 262.592C-95.2955 263.22 -94.962 263.811 -94.4802 264.143L-109.304 289.739H-109.341C-109.564 289.628 -109.823 289.591 -110.083 289.591C-110.898 289.591 -111.565 290.072 -111.862 290.773C-111.936 290.958 -111.973 291.143 -112.01 291.327H-141.695C-141.807 290.367 -142.622 289.591 -143.623 289.591C-143.919 289.591 -144.178 289.665 -144.438 289.776L-159.299 264.143C-158.817 263.774 -158.484 263.22 -158.484 262.555ZM-43.0401 119.728C-42.0395 119.728 -41.2241 118.952 -41.1129 117.992H-11.4274C-11.3162 118.952 -10.5009 119.728 -9.50024 119.728C-9.20377 119.728 -8.94434 119.654 -8.72198 119.543L6.13931 145.176C5.6575 145.509 5.32397 146.1 5.32397 146.727C5.32397 147.318 5.5834 147.872 6.02814 148.205C6.06519 148.242 6.10223 148.242 6.13931 148.279L-8.72198 173.948C-8.98141 173.838 -9.24081 173.764 -9.50024 173.764C-10.5009 173.764 -11.3162 174.539 -11.4274 175.5H-41.1129C-41.2241 174.539 -42.0395 173.764 -43.0401 173.764C-43.3366 173.764 -43.596 173.838 -43.8184 173.948L-58.6797 148.316C-58.3461 148.057 -58.0867 147.725 -57.9755 147.318C-57.9014 147.134 -57.9014 146.949 -57.9014 146.727C-57.9014 146.1 -58.2349 145.509 -58.7167 145.176L-43.8554 119.543C-43.596 119.691 -43.3366 119.728 -43.0401 119.728ZM139.52 204.863C139.632 205.823 140.447 206.599 141.448 206.599C141.744 206.599 142.003 206.525 142.226 206.414L157.087 232.047C156.605 232.379 156.272 232.97 156.272 233.598C156.272 234.189 156.531 234.743 156.976 235.076C157.013 235.113 157.05 235.113 157.087 235.149L142.226 260.782C141.966 260.671 141.707 260.598 141.448 260.598C140.447 260.598 139.632 261.373 139.52 262.333H109.835C109.798 262.149 109.761 261.964 109.687 261.779C109.39 261.078 108.723 260.598 107.908 260.598C107.611 260.598 107.352 260.671 107.129 260.782L92.2681 235.149C92.7499 234.817 93.0834 234.226 93.0834 233.598C93.0834 233.081 92.8611 232.601 92.5275 232.232C92.4534 232.158 92.3793 232.084 92.3052 232.047L107.166 206.414C107.426 206.525 107.685 206.599 107.945 206.599C108.945 206.599 109.761 205.823 109.872 204.863H139.52ZM156.272 291.512C156.272 291.844 156.346 292.177 156.494 292.435C156.642 292.694 156.828 292.916 157.05 293.063L142.189 318.696C141.929 318.585 141.67 318.511 141.41 318.511C140.41 318.511 139.595 319.287 139.483 320.247H109.798C109.761 320.063 109.724 319.878 109.65 319.693C109.353 318.992 108.686 318.511 107.871 318.511C107.574 318.511 107.315 318.585 107.092 318.696L92.2311 293.063C92.7129 292.731 93.0464 292.14 93.0464 291.512C93.0464 291.253 93.0093 290.995 92.8981 290.773C92.824 290.589 92.7129 290.441 92.6017 290.293C92.4905 290.182 92.3793 290.072 92.2311 289.961L107.092 264.328C107.352 264.439 107.611 264.513 107.871 264.513C108.686 264.513 109.353 264.033 109.65 263.331C109.724 263.146 109.761 262.961 109.798 262.777H139.483C139.52 263.035 139.595 263.294 139.706 263.515C140.039 264.106 140.669 264.513 141.41 264.513C141.707 264.513 141.966 264.439 142.189 264.328L157.05 289.961C156.605 290.293 156.272 290.847 156.272 291.512ZM156.272 349.389C156.272 350.017 156.605 350.608 157.087 350.94L143.968 373.581L142.226 376.573C141.966 376.462 141.707 376.388 141.448 376.388C140.447 376.388 139.632 377.164 139.52 378.124H109.835C109.798 377.866 109.724 377.607 109.612 377.386C109.279 376.795 108.649 376.388 107.908 376.388C107.611 376.388 107.352 376.462 107.129 376.573L92.2681 350.94C92.7499 350.608 93.0834 350.017 93.0834 349.389C93.0834 348.761 92.7499 348.17 92.2681 347.838L107.129 322.205C107.389 322.316 107.648 322.39 107.908 322.39C108.908 322.39 109.724 321.614 109.835 320.654H139.52C139.557 320.838 139.595 321.023 139.669 321.208C139.965 321.909 140.632 322.39 141.448 322.39C141.744 322.39 142.003 322.316 142.226 322.205L157.087 347.838C156.605 348.207 156.272 348.761 156.272 349.389ZM-91.5524 377.607C-91.8489 376.905 -92.516 376.425 -93.3313 376.425C-93.6278 376.425 -93.8872 376.499 -94.1096 376.61L-108.971 350.977C-108.489 350.645 -108.156 350.054 -108.156 349.426C-108.156 348.798 -108.489 348.207 -108.971 347.875L-94.1096 322.242H-94.0725C-93.8502 322.353 -93.5907 322.39 -93.3313 322.39C-92.3307 322.39 -91.5153 321.614 -91.4042 320.654H-61.7186C-61.6445 321.355 -61.1627 321.983 -60.5327 322.242C-60.3103 322.353 -60.0509 322.39 -59.7915 322.39C-59.495 322.39 -59.2356 322.316 -59.0132 322.205L-44.1519 347.838C-44.6337 348.17 -44.9673 348.761 -44.9673 349.389C-44.9673 350.017 -44.6337 350.608 -44.1519 350.94L-59.0132 376.573C-59.1985 376.499 -59.3838 376.425 -59.6062 376.425C-59.6803 376.425 -59.7544 376.425 -59.7915 376.425C-60.7921 376.425 -61.6075 377.201 -61.7186 378.161H-91.4042C-91.4412 377.94 -91.4783 377.755 -91.5524 377.607ZM-108.156 291.512C-108.156 290.847 -108.489 290.293 -108.971 289.961L-94.1467 264.365C-93.8872 264.476 -93.6278 264.55 -93.3684 264.55C-92.5531 264.55 -91.8859 264.069 -91.5895 263.368C-91.5153 263.183 -91.4783 262.998 -91.4412 262.814H-61.7186C-61.6816 263.072 -61.6075 263.331 -61.4963 263.552C-61.1627 264.143 -60.5327 264.55 -59.7915 264.55C-59.495 264.55 -59.2356 264.476 -59.0132 264.365L-44.1519 289.998C-44.6337 290.33 -44.9673 290.921 -44.9673 291.549C-44.9673 292.029 -44.819 292.435 -44.5225 292.768C-44.4113 292.879 -44.3001 292.989 -44.1519 293.1L-59.0132 318.733H-59.0503C-59.2726 318.622 -59.5321 318.585 -59.7915 318.585C-60.7921 318.585 -61.6075 319.361 -61.7186 320.321H-91.4042C-91.4412 319.878 -91.6636 319.472 -91.9601 319.139C-92.1454 318.955 -92.3307 318.807 -92.5901 318.733C-92.8125 318.622 -93.0719 318.585 -93.3313 318.585C-93.6278 318.585 -93.8872 318.659 -94.1096 318.77L-108.934 293.137C-108.489 292.731 -108.156 292.14 -108.156 291.512ZM105.981 320.432C105.981 320.691 106.018 320.949 106.129 321.171C106.24 321.466 106.425 321.725 106.685 321.909C106.722 321.946 106.759 321.946 106.796 321.983L91.9346 347.616C91.6751 347.505 91.4157 347.431 91.1563 347.431C90.1557 347.431 89.3404 348.207 89.2292 349.167H59.5436C59.5065 348.909 59.4324 348.65 59.3213 348.429C58.9877 347.838 58.3577 347.431 57.6165 347.431C57.32 347.431 57.0606 347.505 56.8382 347.616L41.9769 321.983C42.4587 321.651 42.7922 321.06 42.7922 320.432C42.7922 320.173 42.7552 319.915 42.644 319.693C42.6069 319.619 42.6069 319.582 42.5699 319.509C42.4216 319.25 42.2363 319.028 42.014 318.881L56.8753 293.248C57.1347 293.359 57.3941 293.433 57.6535 293.433C58.6541 293.433 59.4695 292.657 59.5807 291.697H89.2662C89.3033 291.881 89.3404 292.066 89.4145 292.251C89.711 292.952 90.378 293.433 91.1934 293.433C91.4898 293.433 91.7493 293.359 91.9716 293.248L106.833 318.881C106.277 319.25 105.981 319.804 105.981 320.432ZM-43.0401 235.519C-42.2989 235.519 -41.6689 235.113 -41.3353 234.522C-41.2241 234.3 -41.15 234.041 -41.1129 233.783H-11.4274C-11.3162 234.743 -10.5009 235.519 -9.50024 235.519C-9.20377 235.519 -8.94437 235.445 -8.68494 235.334L6.17636 260.967C5.69458 261.299 5.36102 261.89 5.36102 262.518C5.36102 263.146 5.69458 263.737 6.17636 264.069L-4.5712 282.611L-8.68494 289.702C-8.94437 289.591 -9.20377 289.518 -9.4632 289.518C-10.4638 289.518 -11.2792 290.293 -11.3904 291.253H-41.0759C-41.1129 290.995 -41.1871 290.736 -41.2982 290.515C-41.6318 289.924 -42.2618 289.518 -43.003 289.518C-43.2995 289.518 -43.5589 289.591 -43.7813 289.702L-58.6426 264.069C-58.1608 263.737 -57.8273 263.146 -57.8273 262.518C-57.8273 261.89 -58.1608 261.299 -58.6426 260.967L-43.7813 235.334C-43.596 235.482 -43.3366 235.519 -43.0401 235.519ZM39.1232 263.478C39.4568 264.069 40.0868 264.476 40.828 264.476C41.1245 264.476 41.3839 264.402 41.6063 264.291L56.4676 289.924C55.9858 290.256 55.6523 290.847 55.6523 291.475C55.6523 291.734 55.7264 291.992 55.8005 292.214C55.9487 292.546 56.1711 292.805 56.4305 293.026L41.5692 318.659C41.3098 318.548 41.0504 318.474 40.791 318.474C39.7903 318.474 38.975 319.25 38.8638 320.21H9.17828C9.1412 319.952 9.06711 319.693 8.95593 319.472C8.62238 318.881 7.99234 318.474 7.25113 318.474C6.95462 318.474 6.69522 318.548 6.47287 318.659L-8.35138 293.063C-7.8696 292.731 -7.53604 292.14 -7.53604 291.512C-7.53604 290.884 -7.8696 290.293 -8.35138 289.961L6.50992 264.328C6.76932 264.439 7.02878 264.513 7.28821 264.513C8.28882 264.513 9.10416 263.737 9.21536 262.777H38.9009C38.9009 262.998 39.0121 263.257 39.1232 263.478ZM-42.2989 347.616C-42.5212 347.505 -42.7807 347.468 -43.0401 347.468C-43.3366 347.468 -43.596 347.542 -43.8184 347.653L-58.6426 322.02C-58.1608 321.688 -57.8273 321.097 -57.8273 320.469C-57.8273 319.804 -58.1608 319.25 -58.6426 318.881L-43.7813 293.248C-43.5219 293.359 -43.2625 293.433 -43.003 293.433C-42.0024 293.433 -41.1871 292.657 -41.0759 291.697H-11.3904C-11.2792 292.657 -10.4638 293.433 -9.4632 293.433C-9.16672 293.433 -8.90729 293.359 -8.68494 293.248L6.17636 318.881C5.69458 319.213 5.36102 319.804 5.36102 320.432C5.36102 321.023 5.62048 321.577 6.06519 321.909C6.10226 321.946 6.13931 321.946 6.17636 321.983L-8.68494 347.616C-8.94437 347.505 -9.20377 347.431 -9.4632 347.431C-10.4638 347.431 -11.2792 348.207 -11.3904 349.167H-41.0759C-41.1871 348.502 -41.6318 347.875 -42.2989 347.616ZM7.47351 376.425C7.39938 376.425 7.32526 376.425 7.28821 376.425C6.9917 376.425 6.73227 376.499 6.50992 376.61L-8.35138 350.977C-7.98077 350.682 -7.6843 350.275 -7.57312 349.795C-7.53607 349.684 -7.53604 349.537 -7.53604 349.389C-7.53604 348.761 -7.8696 348.17 -8.35138 347.838L6.50992 322.205C6.76932 322.316 7.02878 322.39 7.28821 322.39C8.28882 322.39 9.10416 321.614 9.21536 320.654H38.9009C38.9379 320.838 38.975 321.023 39.0491 321.208C39.3456 321.909 40.0127 322.39 40.828 322.39C41.1245 322.39 41.3839 322.316 41.6063 322.205L56.4676 347.838C55.9858 348.17 55.6523 348.761 55.6523 349.389C55.6523 349.647 55.7264 349.906 55.8005 350.128C55.9487 350.46 56.1711 350.719 56.4305 350.94L41.5692 376.573C41.3469 376.462 41.0504 376.388 40.791 376.388C39.7903 376.388 38.975 377.164 38.8638 378.124H9.17828C9.10416 377.238 8.40002 376.499 7.47351 376.425ZM90.1927 235.297C90.4522 235.445 90.7857 235.519 91.1193 235.519C91.4157 235.519 91.6751 235.445 91.8975 235.334L106.759 260.967C106.388 261.262 106.092 261.669 105.981 262.149C105.943 262.26 105.943 262.407 105.943 262.555C105.943 262.703 105.943 262.814 105.981 262.961C106.092 263.442 106.351 263.848 106.759 264.143L91.8975 289.776C91.6381 289.665 91.3787 289.591 91.1193 289.591C90.1186 289.591 89.3033 290.367 89.1921 291.327H59.5066C59.4695 291.143 59.4324 290.958 59.3583 290.773C59.3212 290.699 59.3213 290.663 59.2842 290.589C58.9507 289.998 58.3206 289.591 57.5794 289.591C57.2829 289.591 57.0235 289.665 56.8011 289.776L41.9398 264.143C42.4216 263.811 42.7552 263.22 42.7552 262.592C42.7552 261.964 42.4216 261.373 41.9398 261.041L56.8011 235.408C57.0606 235.519 57.32 235.593 57.5794 235.593C58.58 235.593 59.3954 234.817 59.5066 233.857H89.1921C89.2662 234.448 89.6739 235.002 90.1927 235.297ZM55.6523 233.598C55.6523 234.189 55.9117 234.743 56.3564 235.076C56.3935 235.113 56.4305 235.113 56.4676 235.149L41.6063 260.782C41.3469 260.671 41.0875 260.598 40.828 260.598C39.8274 260.598 39.0121 261.373 38.9009 262.333H9.21536C9.10416 261.373 8.28882 260.598 7.28821 260.598C6.9917 260.598 6.73227 260.671 6.50992 260.782L-8.35138 235.149C-8.12903 234.965 -7.90665 234.78 -7.79547 234.522C-7.64722 234.263 -7.57312 233.931 -7.57312 233.598C-7.57312 233.081 -7.79547 232.601 -8.12903 232.232C-8.20316 232.158 -8.27725 232.084 -8.35138 232.047L0.320801 217.051L6.47287 206.414C6.73227 206.525 6.9917 206.599 7.25113 206.599C7.99234 206.599 8.62238 206.193 8.95593 205.602C9.06711 205.38 9.1412 205.121 9.17828 204.863H38.8638C38.975 205.823 39.7903 206.599 40.791 206.599C41.0874 206.599 41.3469 206.525 41.6063 206.414L56.4676 232.047C55.9858 232.379 55.6523 232.97 55.6523 233.598ZM-10.8715 177.088C-10.538 177.42 -10.0191 177.642 -9.50024 177.642C-9.20377 177.642 -8.94434 177.568 -8.72198 177.457L6.13931 203.09C5.95401 203.238 5.80576 203.386 5.65753 203.57C5.43515 203.866 5.32397 204.235 5.32397 204.641C5.32397 205.121 5.4722 205.528 5.76871 205.86C5.87988 205.971 5.99106 206.082 6.13931 206.193L2.21088 212.989L-8.68494 231.825C-8.94437 231.715 -9.20377 231.641 -9.4632 231.641C-10.2044 231.641 -10.8344 232.047 -11.168 232.638C-11.2791 232.86 -11.3533 233.118 -11.3904 233.377H-41.0759C-41.1129 232.933 -41.3353 232.527 -41.6318 232.195C-41.9653 231.862 -42.4842 231.641 -43.003 231.641C-43.2995 231.641 -43.5589 231.715 -43.7813 231.825L-58.6426 206.193C-58.3461 205.971 -58.1237 205.712 -58.0126 205.38C-57.9014 205.158 -57.8643 204.9 -57.8643 204.641C-57.8643 204.013 -58.1979 203.422 -58.6797 203.09L-43.8554 177.457C-43.596 177.568 -43.3366 177.642 -43.0771 177.642C-42.2248 177.642 -41.4836 177.088 -41.2241 176.275C-41.1871 176.165 -41.15 176.017 -41.15 175.906H-11.4645C-11.3904 176.349 -11.168 176.755 -10.8715 177.088ZM-93.3684 206.599C-92.5531 206.599 -91.8859 206.119 -91.5895 205.417C-91.5153 205.232 -91.4783 205.048 -91.4412 204.863H-61.7186C-61.6075 205.823 -60.7921 206.599 -59.7915 206.599C-59.495 206.599 -59.2356 206.525 -58.9761 206.414L-44.1519 232.047C-44.4484 232.269 -44.6707 232.527 -44.782 232.859C-44.8931 233.081 -44.9302 233.34 -44.9302 233.598C-44.9302 234.226 -44.5966 234.817 -44.1148 235.149L-58.9761 260.782C-59.2356 260.671 -59.495 260.598 -59.7544 260.598C-60.7551 260.598 -61.5704 261.373 -61.6816 262.333H-91.3671C-91.4783 261.373 -92.2936 260.598 -93.2943 260.598C-93.5907 260.598 -93.8502 260.671 -94.0725 260.782L-108.934 235.149C-108.637 234.928 -108.415 234.669 -108.304 234.337C-108.193 234.115 -108.156 233.857 -108.156 233.598C-108.156 232.97 -108.489 232.379 -108.971 232.047L-94.1467 206.414C-93.8872 206.525 -93.6278 206.599 -93.3684 206.599ZM-57.8643 378.346C-57.8643 378.087 -57.9014 377.829 -58.0126 377.607C-58.1608 377.275 -58.3832 377.016 -58.6797 376.795L-43.8184 351.162H-43.7813C-43.5589 351.273 -43.2995 351.309 -43.0401 351.309C-42.0395 351.309 -41.2241 350.534 -41.1129 349.574H-11.4274C-11.3533 350.165 -11.0568 350.682 -10.575 350.977C-10.2785 351.199 -9.90793 351.309 -9.50024 351.309C-9.20377 351.309 -8.94434 351.236 -8.72198 351.125L6.13931 376.758C5.6575 377.09 5.32397 377.681 5.32397 378.309C5.32397 378.789 5.4722 379.195 5.76871 379.528C5.87988 379.639 5.99106 379.749 6.13931 379.86L-8.72198 405.493C-8.90729 405.419 -9.09259 405.345 -9.31494 405.345C-9.38907 405.345 -9.4632 405.345 -9.50024 405.345C-10.5009 405.345 -11.3162 406.121 -11.4274 407.081H-41.1129C-41.15 406.638 -41.3724 406.232 -41.6689 405.899C-41.9653 405.604 -42.373 405.382 -42.8548 405.345C-42.9289 405.345 -43.003 405.345 -43.0401 405.345C-43.3366 405.345 -43.596 405.419 -43.8184 405.53L-58.6426 379.897C-58.1608 379.565 -57.8643 379.011 -57.8643 378.346ZM59.5066 407.081C59.4695 406.638 59.2471 406.232 58.9507 405.899C58.6171 405.567 58.0983 405.345 57.5794 405.345C57.2829 405.345 57.0235 405.419 56.8011 405.53L41.9398 379.897C41.9769 379.86 42.014 379.86 42.051 379.823C42.4958 379.454 42.7552 378.937 42.7552 378.346C42.7552 377.718 42.4216 377.127 41.9398 376.795L56.7641 351.162C57.0235 351.273 57.283 351.346 57.5424 351.346C58.543 351.346 59.3583 350.571 59.4695 349.611H89.155C89.2662 350.571 90.0816 351.346 91.0822 351.346C91.1563 351.346 91.2304 351.346 91.2675 351.346C91.4899 351.31 91.6752 351.273 91.8605 351.199L106.722 376.831C106.24 377.164 105.906 377.755 105.906 378.383C105.906 378.863 106.055 379.269 106.351 379.602C106.462 379.712 106.574 379.823 106.722 379.934L91.8605 405.567C91.601 405.456 91.3416 405.382 91.0822 405.382C90.6745 405.382 90.3039 405.493 90.0074 405.715C89.5257 406.01 89.2292 406.527 89.155 407.118H59.5066V407.081ZM55.8746 174.798C55.7264 175.056 55.6523 175.389 55.6523 175.721C55.6523 176.349 55.9858 176.94 56.4676 177.273L41.6063 202.905C41.3469 202.795 41.0875 202.721 40.828 202.721C40.0127 202.721 39.3456 203.201 39.0491 203.903C38.975 204.087 38.9379 204.272 38.9009 204.457H9.21536C9.10416 203.496 8.28882 202.721 7.28821 202.721C6.9917 202.721 6.73227 202.795 6.47287 202.905L-8.35138 177.273C-7.8696 176.94 -7.53604 176.349 -7.53604 175.721C-7.53604 175.093 -7.8696 174.502 -8.35138 174.17L6.50992 148.537C6.76932 148.648 7.02878 148.722 7.28821 148.722C8.28882 148.722 9.10416 147.946 9.21536 146.986H38.9009C38.9379 147.245 39.0121 147.503 39.1232 147.725C39.4568 148.316 40.0868 148.722 40.828 148.722C41.1245 148.722 41.3839 148.648 41.6063 148.537L56.4676 174.17C56.2082 174.318 56.0229 174.539 55.8746 174.798ZM-93.3684 148.685C-92.516 148.685 -91.7748 148.094 -91.5154 147.318C-91.4783 147.208 -91.4412 147.06 -91.4412 146.949H-61.7186C-61.6075 147.909 -60.7921 148.685 -59.7915 148.685C-59.495 148.685 -59.2356 148.611 -59.0132 148.5L-44.1519 174.133C-44.4854 174.392 -44.7449 174.724 -44.856 175.13C-44.9302 175.315 -44.9302 175.5 -44.9302 175.721C-44.9302 176.349 -44.5966 176.94 -44.1148 177.273L-58.9391 202.905C-59.1985 202.795 -59.4579 202.721 -59.7173 202.721C-60.4586 202.721 -61.0886 203.127 -61.4221 203.718C-61.4963 203.829 -61.5333 203.94 -61.5704 204.087C-61.6074 204.198 -61.6445 204.346 -61.6445 204.457H-91.33C-91.4412 203.496 -92.2565 202.721 -93.2572 202.721C-93.5537 202.721 -93.8131 202.795 -94.0725 202.905L-108.897 177.273C-108.415 176.94 -108.081 176.349 -108.081 175.721C-108.081 175.093 -108.415 174.502 -108.897 174.17L-94.0355 148.537C-93.8872 148.648 -93.6278 148.685 -93.3684 148.685ZM-143.66 293.433C-143.252 293.433 -142.881 293.322 -142.585 293.1C-142.103 292.805 -141.807 292.288 -141.732 291.697H-112.047C-111.936 292.657 -111.12 293.433 -110.12 293.433C-109.823 293.433 -109.564 293.359 -109.304 293.248L-94.4802 318.881C-94.962 319.213 -95.2955 319.804 -95.2955 320.432C-95.2955 321.097 -94.962 321.651 -94.4802 321.983L-109.341 347.616C-109.601 347.505 -109.86 347.431 -110.12 347.431C-111.12 347.431 -111.936 348.207 -112.047 349.167H-141.732C-141.844 348.207 -142.659 347.431 -143.66 347.431C-143.956 347.431 -144.216 347.505 -144.438 347.616L-159.299 321.983C-158.817 321.651 -158.484 321.06 -158.484 320.432C-158.484 319.915 -158.706 319.435 -159.04 319.065C-159.114 318.992 -159.188 318.918 -159.262 318.881L-144.438 293.285C-144.216 293.396 -143.956 293.433 -143.66 293.433ZM-158.484 378.346C-158.484 377.718 -158.817 377.127 -159.299 376.795L-144.438 351.162C-144.178 351.273 -143.919 351.346 -143.66 351.346C-142.659 351.346 -141.844 350.571 -141.732 349.611H-112.047C-111.936 350.571 -111.12 351.346 -110.12 351.346C-110.046 351.346 -109.972 351.346 -109.934 351.346C-109.712 351.31 -109.527 351.273 -109.341 351.199L-94.4802 376.831C-94.962 377.164 -95.2955 377.755 -95.2955 378.383C-95.2955 378.567 -95.2585 378.789 -95.2214 378.974C-95.2214 379.048 -95.1844 379.085 -95.1473 379.121C-95.0732 379.306 -94.962 379.454 -94.8508 379.602C-94.7396 379.712 -94.6284 379.823 -94.4802 379.934L-109.341 405.567C-109.601 405.456 -109.86 405.382 -110.12 405.382C-111.12 405.382 -111.936 406.158 -112.047 407.118H-141.732C-141.77 406.86 -141.844 406.601 -141.955 406.379C-142.288 405.788 -142.918 405.382 -143.66 405.382C-143.956 405.382 -144.216 405.456 -144.438 405.567L-159.299 379.934C-158.817 379.565 -158.484 379.011 -158.484 378.346ZM7.28821 434.302C6.9917 434.302 6.73227 434.376 6.50992 434.487L-8.35138 408.854C-7.8696 408.522 -7.53604 407.931 -7.53604 407.303C-7.53604 406.97 -7.61017 406.675 -7.75842 406.379C-7.90668 406.121 -8.09198 405.899 -8.31433 405.751L6.54697 380.119C6.73227 380.193 6.91757 380.266 7.13995 380.266C7.21405 380.266 7.28818 380.266 7.32526 380.266C8.32587 380.266 9.1412 379.491 9.25241 378.53H38.9379C38.975 378.715 39.0121 378.9 39.0862 379.085C39.3827 379.786 40.0497 380.266 40.8651 380.266C41.1616 380.266 41.421 380.193 41.6434 380.082L56.5047 405.715C56.4676 405.751 56.4305 405.751 56.3935 405.788C55.9487 406.158 55.6893 406.675 55.6893 407.266C55.6893 407.894 56.0229 408.485 56.5047 408.817L41.6804 434.45C41.421 434.339 41.1616 434.265 40.9022 434.265C39.9015 434.265 39.0862 435.041 38.975 436.001H9.28946C9.10416 435.078 8.28882 434.302 7.28821 434.302ZM107.908 434.302C107.611 434.302 107.352 434.376 107.129 434.487L92.2681 408.854C92.3052 408.817 92.3423 408.817 92.3793 408.78C92.8241 408.411 93.0834 407.894 93.0834 407.303C93.0834 406.675 92.7499 406.084 92.2681 405.751L107.129 380.119C107.389 380.229 107.648 380.303 107.908 380.303C108.908 380.303 109.724 379.528 109.835 378.567H139.52C139.595 379.491 140.336 380.193 141.262 380.303C141.336 380.303 141.41 380.303 141.448 380.303C141.522 380.303 141.596 380.303 141.633 380.303C141.855 380.266 142.041 380.23 142.226 380.156L157.087 405.788C156.605 406.121 156.272 406.712 156.272 407.34C156.272 407.931 156.531 408.485 156.976 408.817C157.013 408.854 157.05 408.854 157.087 408.891L142.226 434.524C141.966 434.413 141.707 434.339 141.448 434.339C140.447 434.339 139.632 435.115 139.52 436.075H109.835C109.724 435.078 108.908 434.302 107.908 434.302ZM191.739 351.346C191.813 351.346 191.887 351.346 191.924 351.346C192.146 351.31 192.332 351.273 192.517 351.199L207.378 376.831C206.897 377.164 206.563 377.755 206.563 378.383C206.563 378.863 206.711 379.269 207.008 379.602C207.119 379.712 207.23 379.823 207.378 379.934L192.517 405.567C192.258 405.456 191.998 405.382 191.739 405.382C190.738 405.382 189.923 406.158 189.812 407.118H160.126C160.089 406.86 160.015 406.601 159.904 406.379C159.57 405.788 158.94 405.382 158.199 405.382C157.902 405.382 157.643 405.456 157.421 405.567L142.559 379.934C143.041 379.602 143.375 379.011 143.375 378.383C143.375 377.755 143.041 377.164 142.559 376.831L143.301 375.539L157.384 351.199C157.643 351.31 157.902 351.383 158.162 351.383C159.163 351.383 159.978 350.608 160.089 349.647H189.775C189.923 350.571 190.738 351.346 191.739 351.346ZM89.748 177.051C90.0815 177.383 90.6004 177.605 91.1193 177.605C91.4157 177.605 91.6751 177.531 91.8975 177.42L106.759 203.053C106.277 203.385 105.943 203.976 105.943 204.604C105.943 205.085 106.092 205.491 106.388 205.823C106.499 205.934 106.611 206.045 106.759 206.156L91.8975 231.788C91.6381 231.678 91.3787 231.604 91.1193 231.604C90.1186 231.604 89.3033 232.379 89.1921 233.34H59.5066C59.4695 232.896 59.2471 232.49 58.9507 232.158C58.6171 231.825 58.0983 231.604 57.5794 231.604C57.2829 231.604 57.0235 231.678 56.8011 231.788L41.9398 206.156C42.1622 205.971 42.3846 205.749 42.4958 205.528C42.644 205.269 42.7181 204.937 42.7181 204.604C42.7181 204.087 42.4958 203.607 42.1622 203.238C42.0881 203.164 42.014 203.09 41.9398 203.053L56.8011 177.42C57.0606 177.531 57.32 177.605 57.5794 177.605C58.3206 177.605 58.9507 177.199 59.2842 176.608C59.3954 176.386 59.4695 176.128 59.5066 175.869H89.1921C89.2291 176.349 89.4515 176.755 89.748 177.051ZM39.4568 90.2172C39.7903 90.5496 40.3092 90.7712 40.828 90.7712C41.1245 90.7712 41.3839 90.6973 41.6063 90.5865L56.4676 116.219C56.2452 116.404 56.0229 116.589 55.9117 116.847C55.7635 117.106 55.6893 117.438 55.6893 117.771C55.6893 118.251 55.8376 118.657 56.134 118.989C56.2452 119.1 56.3564 119.211 56.5047 119.322L41.6434 144.955C41.3839 144.844 41.1245 144.77 40.8651 144.77C40.1239 144.77 39.4938 145.176 39.1603 145.767C39.0491 145.989 38.975 146.247 38.9379 146.506H9.25241C9.21533 146.247 9.14124 145.989 9.03006 145.767C8.6965 145.176 8.06647 144.77 7.32526 144.77C7.02875 144.77 6.76935 144.844 6.54697 144.955L-8.35138 119.396C-7.8696 119.063 -7.53604 118.472 -7.53604 117.844C-7.53604 117.217 -7.8696 116.626 -8.35138 116.293L6.50992 90.6604C6.76932 90.7712 7.02878 90.8451 7.28821 90.8451C8.28882 90.8451 9.10416 90.0694 9.21536 89.1091H38.9009C38.9379 89.5154 39.1232 89.9217 39.4568 90.2172ZM-111.491 177.088C-111.157 177.42 -110.639 177.642 -110.12 177.642C-109.823 177.642 -109.564 177.568 -109.341 177.457L-94.5173 203.09C-94.8137 203.312 -95.0361 203.57 -95.1473 203.903C-95.2585 204.124 -95.2955 204.383 -95.2955 204.678C-95.2955 205.158 -95.1473 205.565 -94.8508 205.897C-94.7396 206.008 -94.6284 206.119 -94.4802 206.229L-109.304 231.862C-109.564 231.751 -109.823 231.678 -110.083 231.678C-110.898 231.678 -111.565 232.158 -111.862 232.859C-111.936 233.044 -111.973 233.229 -112.01 233.414H-141.695C-141.732 233.155 -141.807 232.896 -141.918 232.675C-142.251 232.084 -142.881 231.678 -143.623 231.678C-143.919 231.678 -144.178 231.751 -144.401 231.862L-159.262 206.229C-158.78 205.897 -158.447 205.306 -158.447 204.678C-158.447 204.05 -158.78 203.459 -159.262 203.127L-144.401 177.494C-144.141 177.605 -143.882 177.679 -143.623 177.679C-142.622 177.679 -141.807 176.903 -141.695 175.943H-112.01C-112.01 176.386 -111.787 176.792 -111.491 177.088ZM-192.246 377.422C-192.58 376.831 -193.21 376.425 -193.951 376.425C-194.247 376.425 -194.507 376.499 -194.729 376.61L-209.59 350.977C-209.109 350.645 -208.775 350.054 -208.775 349.426C-208.775 348.798 -209.109 348.207 -209.59 347.875L-194.766 322.279C-194.544 322.39 -194.247 322.463 -193.988 322.463C-193.654 322.463 -193.321 322.39 -193.061 322.205C-192.505 321.909 -192.135 321.355 -192.061 320.727H-162.375C-162.264 321.688 -161.449 322.463 -160.448 322.463C-160.152 322.463 -159.892 322.39 -159.633 322.279L-144.771 347.911C-145.253 348.244 -145.587 348.835 -145.587 349.463C-145.587 350.091 -145.253 350.682 -144.771 351.014L-156.26 370.848L-159.633 376.647C-159.892 376.536 -160.152 376.462 -160.411 376.462C-161.412 376.462 -162.227 377.238 -162.338 378.198H-192.024C-192.061 377.903 -192.135 377.644 -192.246 377.422ZM-91.4783 435.669C-91.7377 434.893 -92.4419 434.302 -93.3313 434.302C-93.6278 434.302 -93.8872 434.376 -94.1096 434.487L-108.971 408.854C-108.489 408.522 -108.156 407.931 -108.156 407.303C-108.156 407.044 -108.193 406.786 -108.304 406.564C-108.452 406.232 -108.674 405.973 -108.971 405.751L-94.1096 380.119C-93.8502 380.229 -93.5907 380.303 -93.3313 380.303C-92.3307 380.303 -91.5153 379.528 -91.4042 378.567H-61.7186C-61.6445 379.269 -61.1627 379.897 -60.5327 380.156C-60.3103 380.266 -60.0509 380.303 -59.7915 380.303C-59.495 380.303 -59.2356 380.229 -59.0132 380.119L-44.1519 405.751C-44.6337 406.084 -44.9673 406.675 -44.9673 407.303C-44.9673 407.968 -44.6337 408.522 -44.1519 408.854L-59.0132 434.487C-59.2726 434.376 -59.5321 434.302 -59.7915 434.302C-60.7921 434.302 -61.6075 435.078 -61.7186 436.038H-91.4042C-91.4412 435.927 -91.4412 435.779 -91.4783 435.669ZM-41.3353 464.256C-41.6689 463.665 -42.2989 463.259 -43.0401 463.259C-43.3366 463.259 -43.596 463.333 -43.8184 463.444L-58.6797 437.811C-58.1979 437.478 -57.8643 436.888 -57.8643 436.26C-57.8643 435.632 -58.1979 435.041 -58.6797 434.708L-43.8184 409.076C-43.6331 409.149 -43.4478 409.223 -43.2254 409.223C-43.1513 409.223 -43.0771 409.223 -43.0401 409.223C-42.0395 409.223 -41.2241 408.448 -41.1129 407.487H-11.4274C-11.3533 408.411 -10.6121 409.113 -9.68555 409.223C-9.61142 409.223 -9.53732 409.223 -9.50024 409.223C-9.20377 409.223 -8.94434 409.149 -8.72198 409.039L6.13931 434.671C5.6575 435.004 5.32397 435.595 5.32397 436.223C5.32397 436.851 5.6575 437.442 6.13931 437.774L-4.60828 456.352L-8.68494 463.407C-8.94437 463.296 -9.20377 463.222 -9.4632 463.222C-10.4638 463.222 -11.2792 463.998 -11.3904 464.958H-41.0759C-41.1129 464.736 -41.1871 464.478 -41.3353 464.256ZM59.2842 464.256C58.9507 463.665 58.3206 463.259 57.5794 463.259C57.2829 463.259 57.0235 463.333 56.8011 463.444L41.9398 437.811C42.4216 437.478 42.7552 436.888 42.7552 436.26C42.7552 435.632 42.4216 435.041 41.9398 434.708L56.7641 409.076C57.0235 409.186 57.283 409.26 57.5424 409.26C58.0242 409.26 58.4318 409.113 58.7654 408.817C59.136 408.485 59.3954 408.041 59.4695 407.524H89.155C89.2292 408.448 89.9704 409.149 90.8969 409.26C90.971 409.26 91.0451 409.26 91.0822 409.26C91.1563 409.26 91.2304 409.26 91.2675 409.26C91.4899 409.223 91.6752 409.186 91.8605 409.113L106.722 434.745C106.685 434.782 106.648 434.782 106.611 434.819C106.166 435.189 105.906 435.706 105.906 436.297C105.906 436.924 106.24 437.515 106.722 437.848L91.8605 463.481C91.601 463.37 91.3416 463.296 91.0822 463.296C90.6004 463.296 90.1927 463.444 89.8592 463.739C89.4886 464.035 89.2292 464.515 89.155 465.032H59.4695C59.5066 464.736 59.4324 464.478 59.2842 464.256ZM-10.8715 61.2972C-10.538 61.6296 -10.0191 61.8512 -9.50024 61.8512C-9.20377 61.8512 -8.94434 61.7774 -8.72198 61.6666L6.13931 87.2993C5.6575 87.6317 5.32397 88.2227 5.32397 88.8506C5.32397 89.4785 5.6575 90.0694 6.13931 90.4019L-4.60828 108.98L-8.68494 116.035C-8.94437 115.924 -9.20377 115.85 -9.4632 115.85C-10.4638 115.85 -11.2792 116.626 -11.3904 117.586H-41.0759C-41.1129 117.327 -41.1871 117.069 -41.2982 116.847C-41.6318 116.256 -42.2618 115.85 -43.003 115.85C-43.2995 115.85 -43.5589 115.924 -43.7813 116.035L-58.6426 90.4019C-58.1608 90.0694 -57.8273 89.4785 -57.8273 88.8506C-57.8273 88.2227 -58.1608 87.6317 -58.6426 87.2993L-43.7813 61.6666C-43.5219 61.7774 -43.2625 61.8512 -43.003 61.8512C-42.0024 61.8512 -41.1871 61.0756 -41.0759 60.1153H-11.3904C-11.3904 60.5585 -11.168 60.9648 -10.8715 61.2972ZM-161.782 148.131C-161.449 148.463 -160.967 148.685 -160.411 148.685C-160.115 148.685 -159.855 148.611 -159.633 148.5L-144.771 174.133C-145.253 174.466 -145.587 175.056 -145.587 175.684C-145.587 176.312 -145.253 176.903 -144.771 177.236L-156.26 197.07L-159.633 202.868C-159.892 202.758 -160.152 202.684 -160.411 202.684C-161.412 202.684 -162.227 203.459 -162.338 204.42H-192.024C-192.061 204.161 -192.135 203.903 -192.246 203.681C-192.58 203.09 -193.21 202.684 -193.951 202.684C-194.247 202.684 -194.507 202.758 -194.729 202.868L-209.627 177.273C-209.146 176.94 -208.812 176.349 -208.812 175.721C-208.812 175.093 -209.146 174.502 -209.627 174.17L-194.766 148.537C-194.507 148.648 -194.247 148.722 -193.988 148.722C-192.987 148.722 -192.172 147.946 -192.061 146.986H-162.375C-162.301 147.429 -162.116 147.836 -161.782 148.131ZM-141.955 464.256C-142.288 463.665 -142.918 463.259 -143.66 463.259C-143.956 463.259 -144.216 463.333 -144.438 463.444L-159.299 437.811C-158.817 437.478 -158.484 436.888 -158.484 436.26C-158.484 435.632 -158.817 435.041 -159.299 434.708L-144.438 409.076C-144.178 409.186 -143.919 409.26 -143.66 409.26C-142.659 409.26 -141.844 408.485 -141.732 407.524H-112.047C-112.01 407.709 -111.973 407.894 -111.899 408.078C-111.862 408.152 -111.862 408.189 -111.825 408.263C-111.491 408.854 -110.861 409.26 -110.12 409.26C-109.823 409.26 -109.564 409.186 -109.341 409.076L-94.4802 434.708C-94.962 435.041 -95.2955 435.632 -95.2955 436.26C-95.2955 436.518 -95.2585 436.777 -95.1473 436.998C-94.9991 437.331 -94.7767 437.589 -94.4802 437.811L-109.341 463.444C-109.601 463.333 -109.86 463.259 -110.12 463.259C-111.12 463.259 -111.936 464.035 -112.047 464.995H-141.732C-141.732 464.736 -141.844 464.478 -141.955 464.256ZM56.4676 521.542C55.9858 521.875 55.6523 522.466 55.6523 523.093C55.6523 523.721 55.9858 524.312 56.4676 524.645L41.6063 550.277C41.3469 550.167 41.0875 550.093 40.828 550.093C40.4945 550.093 40.1609 550.167 39.9015 550.314C39.3456 550.61 38.975 551.164 38.9009 551.829H9.21536C9.17828 551.533 9.10416 551.275 8.95593 551.053C8.62238 550.499 7.99234 550.093 7.28821 550.093C6.9917 550.093 6.73227 550.167 6.50992 550.277L-8.35138 524.645C-7.8696 524.312 -7.53604 523.721 -7.53604 523.093C-7.53604 522.466 -7.8696 521.875 -8.35138 521.542L6.50992 495.909C6.76932 496.02 7.02878 496.094 7.28821 496.094C8.28882 496.094 9.10416 495.318 9.21536 494.358H38.9009C38.9379 494.617 39.0121 494.875 39.1232 495.097C39.4568 495.688 40.0868 496.094 40.828 496.094C41.1245 496.094 41.3839 496.02 41.6063 495.909L56.4676 521.542ZM41.6063 492.364C41.3469 492.253 41.0875 492.179 40.828 492.179C39.8274 492.179 39.0121 492.955 38.9009 493.915H9.21536C9.17828 493.656 9.10416 493.398 8.99298 493.176C8.65942 492.585 8.02942 492.179 7.28821 492.179C6.9917 492.179 6.73227 492.253 6.50992 492.364L-8.35138 466.731C-7.8696 466.398 -7.53604 465.807 -7.53604 465.18C-7.53604 464.552 -7.8696 463.961 -8.35138 463.628L6.50992 437.996C6.76932 438.106 7.02878 438.18 7.28821 438.18C8.28882 438.18 9.10416 437.405 9.21536 436.444H38.9009C39.0121 437.405 39.8274 438.18 40.828 438.18C40.9022 438.18 40.9763 438.18 41.0133 438.18C41.2357 438.143 41.421 438.106 41.6063 438.033L56.4676 463.665C55.9858 463.998 55.6523 464.589 55.6523 465.217C55.6523 465.697 55.8005 466.103 56.097 466.435C56.2082 466.546 56.3194 466.657 56.4676 466.768L41.6063 492.364ZM92.2681 466.768C92.3052 466.731 92.3423 466.731 92.3793 466.694C92.8241 466.325 93.0834 465.807 93.0834 465.217C93.0834 464.589 92.7499 463.998 92.2681 463.665L107.129 438.033C107.389 438.143 107.648 438.217 107.908 438.217C108.389 438.217 108.797 438.033 109.131 437.774C109.501 437.442 109.761 436.998 109.835 436.481H139.52C139.557 436.814 139.669 437.146 139.854 437.405C140.187 437.885 140.78 438.217 141.448 438.217C141.744 438.217 142.003 438.143 142.226 438.033L157.087 463.665C156.605 463.998 156.272 464.589 156.272 465.217C156.272 465.697 156.42 466.103 156.716 466.435C156.828 466.546 156.939 466.657 157.087 466.768L142.226 492.401C141.966 492.29 141.707 492.216 141.448 492.216C140.447 492.216 139.632 492.992 139.52 493.952H109.835C109.724 492.992 108.908 492.216 107.908 492.216C107.611 492.216 107.352 492.29 107.129 492.401L92.2681 466.768ZM207.378 492.585C206.897 492.918 206.563 493.509 206.563 494.137C206.563 494.764 206.897 495.355 207.378 495.688L192.517 521.321C192.258 521.21 191.998 521.136 191.739 521.136C190.738 521.136 189.923 521.911 189.812 522.872H160.126C160.015 521.911 159.2 521.136 158.199 521.136C157.902 521.136 157.643 521.21 157.421 521.321L142.559 495.688C143.041 495.355 143.375 494.764 143.375 494.137C143.375 493.509 143.041 492.918 142.559 492.585L157.421 466.953C157.68 467.063 157.94 467.137 158.199 467.137C159.2 467.137 160.015 466.362 160.126 465.401H189.812C189.923 466.362 190.738 467.137 191.739 467.137C192.035 467.137 192.295 467.063 192.517 466.953L207.378 492.585ZM192.554 463.444C192.295 463.333 192.035 463.259 191.776 463.259C191.442 463.259 191.146 463.333 190.849 463.481C190.293 463.776 189.923 464.33 189.849 464.995H160.163C160.126 464.699 160.052 464.441 159.904 464.219C159.57 463.665 158.94 463.259 158.236 463.259C157.939 463.259 157.68 463.333 157.458 463.444L142.596 437.811C143.078 437.478 143.412 436.888 143.412 436.26C143.412 435.632 143.078 435.041 142.596 434.708L157.458 409.076C157.717 409.186 157.977 409.26 158.236 409.26C159.237 409.26 160.052 408.485 160.163 407.524H189.849C189.886 407.783 189.96 408.041 190.071 408.263C190.293 408.632 190.627 408.965 191.035 409.113C191.257 409.223 191.516 409.26 191.776 409.26C192.072 409.26 192.332 409.186 192.554 409.076L207.415 434.708C206.934 435.041 206.6 435.632 206.6 436.26C206.6 436.888 206.934 437.478 207.415 437.811L192.554 463.444ZM240.14 436.038H210.454C210.38 435.336 209.935 434.708 209.268 434.45C209.046 434.339 208.787 434.302 208.527 434.302C208.231 434.302 207.971 434.376 207.749 434.487L192.888 408.854C193.369 408.522 193.703 407.931 193.703 407.303C193.703 406.675 193.369 406.084 192.888 405.751L207.749 380.119H207.786C208.008 380.229 208.268 380.266 208.527 380.266C209.528 380.266 210.343 379.491 210.454 378.53H240.14C240.214 379.232 240.659 379.86 241.326 380.119C241.548 380.229 241.808 380.266 242.067 380.266C242.364 380.266 242.623 380.193 242.845 380.082L257.707 405.715C257.225 406.047 256.891 406.638 256.891 407.266C256.891 407.894 257.225 408.485 257.707 408.817L242.845 434.45C242.586 434.339 242.326 434.265 242.067 434.265C241.066 434.339 240.251 435.078 240.14 436.038ZM307.998 376.795C307.516 377.127 307.182 377.718 307.182 378.346C307.182 378.974 307.516 379.565 307.998 379.897L293.137 405.53C292.877 405.419 292.618 405.345 292.358 405.345C291.358 405.345 290.542 406.121 290.431 407.081H260.746C260.671 406.379 260.227 405.751 259.56 405.493C259.337 405.382 259.078 405.345 258.818 405.345C258.522 405.345 258.263 405.419 258.04 405.53L243.179 379.897C243.661 379.565 243.994 378.974 243.994 378.346C243.994 377.718 243.661 377.127 243.179 376.795L258.04 351.162C258.3 351.273 258.559 351.346 258.818 351.346C259.819 351.346 260.634 350.571 260.746 349.611H290.431C290.542 350.571 291.358 351.346 292.358 351.346C292.655 351.346 292.914 351.273 293.137 351.162L307.998 376.795ZM257.707 347.838C257.225 348.17 256.891 348.761 256.891 349.389C256.891 350.017 257.225 350.608 257.707 350.94L242.845 376.573H242.808C242.586 376.462 242.326 376.425 242.067 376.425C241.066 376.425 240.251 377.201 240.14 378.161H210.454C210.38 377.496 210.01 376.942 209.454 376.647C209.194 376.499 208.861 376.425 208.527 376.425C208.231 376.425 207.971 376.499 207.749 376.61L192.888 350.977C193.369 350.645 193.703 350.054 193.703 349.426C193.703 348.798 193.369 348.207 192.888 347.875L207.749 322.242C208.008 322.353 208.268 322.426 208.527 322.426C209.528 322.426 210.343 321.651 210.454 320.691H240.14C240.251 321.651 241.066 322.426 242.067 322.426C242.364 322.426 242.623 322.353 242.845 322.242L257.707 347.838ZM207.378 318.881C206.897 319.213 206.563 319.804 206.563 320.432C206.563 321.023 206.822 321.577 207.267 321.909C207.304 321.946 207.341 321.946 207.378 321.983L192.517 347.616C192.258 347.505 191.998 347.431 191.739 347.431C190.738 347.431 189.923 348.207 189.812 349.167H160.126C160.015 348.207 159.2 347.431 158.199 347.431C157.902 347.431 157.643 347.505 157.421 347.616L142.559 321.983C143.041 321.651 143.375 321.06 143.375 320.432C143.375 320.173 143.338 319.915 143.226 319.693C143.078 319.361 142.856 319.102 142.596 318.881L157.458 293.248C157.717 293.359 157.977 293.433 158.236 293.433C159.237 293.433 160.052 292.657 160.163 291.697H189.849C189.886 291.881 189.923 292.103 189.997 292.251C190.293 292.952 190.96 293.433 191.776 293.433C192.072 293.433 192.332 293.359 192.554 293.248L207.378 318.881ZM207.378 261.004C206.897 261.336 206.563 261.927 206.563 262.555C206.563 263.183 206.897 263.774 207.378 264.106L192.517 289.739C192.258 289.628 191.998 289.554 191.739 289.554C190.738 289.554 189.923 290.33 189.812 291.29H160.126C160.089 291.032 160.015 290.773 159.904 290.589C159.57 289.998 158.94 289.591 158.199 289.591C157.902 289.591 157.643 289.665 157.421 289.776L142.559 264.143C143.041 263.811 143.375 263.22 143.375 262.592C143.375 261.964 143.041 261.373 142.559 261.041L157.421 235.408C157.68 235.519 157.94 235.593 158.199 235.593C159.2 235.593 160.015 234.817 160.126 233.857H189.812C189.849 234.115 189.923 234.374 190.034 234.595C190.368 235.186 190.998 235.593 191.739 235.593C192.035 235.593 192.295 235.519 192.517 235.408L207.378 261.004ZM192.554 231.862C192.295 231.751 192.035 231.678 191.776 231.678C190.775 231.678 189.96 232.453 189.849 233.414H160.163C160.126 233.155 160.052 232.896 159.941 232.675C159.607 232.084 158.977 231.678 158.236 231.678C157.939 231.678 157.68 231.751 157.458 231.862L142.596 206.229C143.078 205.897 143.412 205.306 143.412 204.678C143.412 204.05 143.078 203.459 142.596 203.127L143.338 201.834L157.421 177.494C157.68 177.605 157.94 177.679 158.199 177.679C159.2 177.679 160.015 176.903 160.126 175.943H189.812C189.849 176.386 190.071 176.792 190.367 177.125C190.701 177.457 191.22 177.679 191.739 177.679C192.035 177.679 192.295 177.605 192.517 177.494L207.378 203.127C206.897 203.459 206.563 204.05 206.563 204.678C206.563 205.158 206.711 205.565 207.008 205.897C207.119 206.008 207.23 206.119 207.378 206.229L192.554 231.862ZM257.707 174.133C257.225 174.466 256.891 175.056 256.891 175.684C256.891 176.312 257.225 176.903 257.707 177.236L242.845 202.868C242.586 202.758 242.326 202.684 242.067 202.684C241.066 202.684 240.251 203.459 240.14 204.42H210.454C210.417 204.161 210.343 203.903 210.232 203.681C209.898 203.09 209.268 202.684 208.527 202.684C208.231 202.684 207.971 202.758 207.749 202.868L192.888 177.273C193.369 176.94 193.703 176.349 193.703 175.721C193.703 175.093 193.369 174.502 192.888 174.17L207.749 148.537C208.008 148.648 208.268 148.722 208.527 148.722C209.528 148.722 210.343 147.946 210.454 146.986H240.14C240.251 147.946 241.066 148.722 242.067 148.722C242.364 148.722 242.623 148.648 242.845 148.537L257.707 174.133ZM157.421 119.58C157.68 119.691 157.94 119.765 158.199 119.765C159.2 119.765 160.015 118.989 160.126 118.029H189.812C189.923 118.989 190.738 119.765 191.739 119.765C192.035 119.765 192.295 119.691 192.517 119.58L207.378 145.213C206.897 145.546 206.563 146.137 206.563 146.764C206.563 147.355 206.822 147.909 207.267 148.242C207.304 148.279 207.341 148.279 207.378 148.316L192.517 173.948C192.258 173.838 191.998 173.764 191.739 173.764C190.738 173.764 189.923 174.539 189.812 175.5H160.126C160.015 174.539 159.2 173.764 158.199 173.764C157.902 173.764 157.643 173.838 157.421 173.948L142.559 148.316C143.041 147.983 143.375 147.392 143.375 146.764C143.375 146.247 143.152 145.767 142.819 145.398C142.745 145.324 142.671 145.25 142.596 145.213L157.421 119.58ZM106.759 145.213C106.277 145.546 105.943 146.137 105.943 146.764C105.943 147.355 106.203 147.909 106.648 148.242C106.685 148.279 106.722 148.279 106.759 148.316L91.8975 173.948C91.6381 173.838 91.3787 173.764 91.1193 173.764C90.1186 173.764 89.3033 174.539 89.1921 175.5H59.5066C59.3954 174.539 58.58 173.764 57.5794 173.764C57.2829 173.764 57.0235 173.838 56.8011 173.948L41.9398 148.316C42.2363 148.094 42.4587 147.836 42.5699 147.503C42.6811 147.282 42.7181 147.023 42.7181 146.764C42.7181 146.137 42.3846 145.546 41.9028 145.213L56.7641 119.58C57.0235 119.691 57.283 119.765 57.5424 119.765C58.2836 119.765 58.9136 119.359 59.2472 118.768C59.3583 118.546 59.4324 118.325 59.4695 118.066H89.155C89.2662 119.026 90.0816 119.802 91.0822 119.802C91.3787 119.802 91.6381 119.728 91.8975 119.617L106.759 145.213ZM106.759 87.2993C106.277 87.6317 105.943 88.2227 105.943 88.8506C105.943 89.4785 106.277 90.0694 106.759 90.4019L91.8975 116.035C91.6381 115.924 91.3787 115.85 91.1193 115.85C90.3781 115.85 89.748 116.256 89.4145 116.847C89.3033 117.069 89.2291 117.29 89.1921 117.549H59.5066C59.3954 116.589 58.58 115.813 57.5794 115.813C57.2829 115.813 57.0235 115.887 56.7641 115.998L41.9028 90.3649C42.3846 90.0325 42.7181 89.4416 42.7181 88.8137C42.7181 88.1858 42.3846 87.5948 41.9028 87.2624L56.7641 61.6296C57.0235 61.7404 57.2829 61.8143 57.5794 61.8143C58.58 61.8143 59.3954 61.0387 59.5066 60.0784H89.1921C89.2291 60.263 89.2662 60.4477 89.3403 60.6324C89.6368 61.3341 90.3039 61.8143 91.1193 61.8143C91.4157 61.8143 91.6751 61.7404 91.8975 61.6296L106.759 87.2993ZM56.8011 3.78968C57.0606 3.90048 57.32 3.97435 57.5794 3.97435C58.58 3.97435 59.3954 3.19872 59.5066 2.23841H89.1921C89.3033 3.19872 90.1186 3.97435 91.1193 3.97435C91.4157 3.97435 91.6751 3.90048 91.8975 3.78968L106.759 29.4224C106.277 29.7549 105.943 30.3458 105.943 30.9737C105.943 31.6016 106.277 32.1926 106.759 32.525L91.8975 58.1577C91.6381 58.0469 91.3787 57.9731 91.0822 57.9731C90.0816 57.9731 89.2662 58.7487 89.155 59.709H59.4695C59.4324 59.5243 59.3954 59.3397 59.3213 59.155C59.2101 58.9334 59.0989 58.7118 58.9136 58.5271C58.58 58.1947 58.0612 57.9731 57.5424 57.9731C57.2459 57.9731 56.9864 58.0469 56.7641 58.1577L41.9398 32.525C42.4216 32.1926 42.7552 31.6016 42.7552 30.9737C42.7552 30.7152 42.7181 30.4566 42.6069 30.235C42.4587 29.9026 42.2363 29.6441 41.9398 29.4224L56.8011 3.78968ZM6.47287 32.7097C6.73227 32.8205 6.9917 32.8943 7.25113 32.8943C8.25177 32.8943 9.06708 32.1187 9.17828 31.1584H38.8638C38.9009 31.3431 38.9379 31.5277 39.0121 31.7124C39.3085 32.4142 39.9756 32.8943 40.791 32.8943C41.0874 32.8943 41.3469 32.8205 41.5692 32.7097L56.3935 58.3424C55.9117 58.6748 55.5781 59.2658 55.5781 59.8937C55.5781 60.1522 55.6152 60.4108 55.7264 60.6324C55.8746 60.9648 56.097 61.2233 56.3564 61.4449L41.4951 87.0777C41.2357 86.9669 40.9763 86.893 40.7169 86.893C39.7162 86.893 38.9009 87.6687 38.7897 88.629H9.10416C8.99298 87.6687 8.17764 86.893 7.177 86.893C6.88052 86.893 6.62109 86.9669 6.39874 87.0777L-8.35138 61.4819C-7.8696 61.1495 -7.53604 60.5585 -7.53604 59.9306C-7.53604 59.4135 -7.75839 58.9334 -8.09195 58.564C-8.16608 58.4902 -8.2402 58.4163 -8.31433 58.3794L6.47287 32.7097ZM-108.971 61.4819C-108.489 61.1495 -108.156 60.5585 -108.156 59.9306C-108.156 59.3027 -108.489 58.7118 -108.971 58.3794L-94.1096 32.7466C-93.8502 32.8574 -93.5907 32.9313 -93.3313 32.9313C-92.3307 32.9313 -91.5153 32.1556 -91.4042 31.1953H-61.7186C-61.6075 32.1556 -60.7921 32.9313 -59.7915 32.9313C-59.495 32.9313 -59.2356 32.8574 -59.0132 32.7466L-44.1519 58.3794C-44.6337 58.7118 -44.9673 59.3027 -44.9673 59.9306C-44.9673 60.5216 -44.7078 61.0756 -44.2631 61.408C-44.226 61.445 -44.189 61.445 -44.1519 61.4819L-59.0132 87.1147C-59.2726 87.0039 -59.5321 86.93 -59.7915 86.93C-60.7921 86.93 -61.6075 87.7056 -61.7186 88.6659H-91.4042C-91.5153 87.7056 -92.3307 86.93 -93.3313 86.93C-93.6278 86.93 -93.8872 87.0039 -94.1096 87.1147L-108.971 61.4819ZM-94.1467 90.6235C-93.8872 90.7343 -93.6278 90.8081 -93.3684 90.8081C-92.3678 90.8081 -91.5524 90.0325 -91.4412 89.0722H-61.7186C-61.6816 89.5154 -61.4592 89.9217 -61.1627 90.2541C-60.8292 90.5865 -60.3474 90.8081 -59.7915 90.8081C-59.495 90.8081 -59.2356 90.7343 -59.0132 90.6235L-44.1519 116.256C-44.6337 116.589 -44.9673 117.18 -44.9673 117.807C-44.9673 118.288 -44.819 118.694 -44.5225 119.026C-44.4113 119.137 -44.3001 119.248 -44.1519 119.359L-59.0132 144.992C-59.2726 144.881 -59.5321 144.807 -59.7915 144.807C-60.6439 144.807 -61.3851 145.398 -61.6445 146.173C-61.6816 146.284 -61.7186 146.432 -61.7186 146.543H-91.4042C-91.5153 145.582 -92.3307 144.807 -93.3313 144.807C-93.6278 144.807 -93.8872 144.881 -94.1096 144.992L-108.971 119.359C-108.637 119.1 -108.378 118.768 -108.267 118.362C-108.193 118.177 -108.193 117.992 -108.193 117.771C-108.193 117.143 -108.526 116.552 -109.008 116.219L-94.1467 90.6235ZM-144.438 119.58C-144.178 119.691 -143.919 119.765 -143.66 119.765C-142.659 119.765 -141.844 118.989 -141.732 118.029H-112.047C-111.936 118.989 -111.12 119.765 -110.12 119.765C-109.823 119.765 -109.564 119.691 -109.341 119.58L-94.4802 145.213C-94.7767 145.435 -94.9991 145.693 -95.1473 146.026C-95.2585 146.247 -95.2955 146.506 -95.2955 146.764C-95.2955 147.355 -95.0361 147.909 -94.5914 148.242C-94.5543 148.279 -94.5173 148.279 -94.4802 148.316L-109.341 173.948C-109.601 173.838 -109.86 173.764 -110.12 173.764C-111.12 173.764 -111.936 174.539 -112.047 175.5H-141.732C-141.844 174.539 -142.659 173.764 -143.66 173.764C-143.956 173.764 -144.216 173.838 -144.438 173.948L-159.299 148.316C-158.817 147.983 -158.484 147.392 -158.484 146.764C-158.484 146.247 -158.706 145.767 -159.04 145.398C-159.114 145.324 -159.188 145.25 -159.262 145.213L-144.438 119.58ZM-259.919 148.353C-259.437 148.02 -259.103 147.429 -259.103 146.801C-259.103 146.173 -259.437 145.582 -259.919 145.25L-245.057 119.617C-244.798 119.728 -244.539 119.802 -244.279 119.802C-243.278 119.802 -242.463 119.026 -242.352 118.066H-212.666C-212.555 119.026 -211.74 119.802 -210.739 119.802C-210.443 119.802 -210.183 119.728 -209.961 119.617L-195.1 145.25C-195.581 145.582 -195.915 146.173 -195.915 146.801C-195.915 147.392 -195.656 147.946 -195.211 148.279C-195.174 148.316 -195.137 148.316 -195.1 148.353L-209.961 173.948C-210.22 173.838 -210.48 173.764 -210.739 173.764C-211.74 173.764 -212.555 174.539 -212.666 175.5H-242.352C-242.463 174.539 -243.278 173.764 -244.279 173.764C-244.576 173.764 -244.835 173.838 -245.057 173.948L-259.919 148.353ZM-259.919 206.229C-259.437 205.897 -259.103 205.306 -259.103 204.678C-259.103 204.05 -259.437 203.459 -259.919 203.127L-245.057 177.494C-244.798 177.605 -244.539 177.679 -244.279 177.679C-243.278 177.679 -242.463 176.903 -242.352 175.943H-212.666C-212.629 176.386 -212.407 176.792 -212.111 177.125C-211.777 177.457 -211.258 177.679 -210.739 177.679C-210.443 177.679 -210.183 177.605 -209.961 177.494L-195.1 203.127C-195.581 203.459 -195.915 204.05 -195.915 204.678C-195.915 205.158 -195.767 205.565 -195.47 205.897C-195.359 206.008 -195.248 206.119 -195.1 206.229L-209.961 231.862C-210.22 231.751 -210.48 231.678 -210.739 231.678C-211.74 231.678 -212.555 232.453 -212.666 233.414H-242.352C-242.463 232.453 -243.278 231.678 -244.279 231.678C-244.576 231.678 -244.835 231.751 -245.057 231.862L-259.919 206.229ZM-209.627 235.186C-209.146 234.854 -208.812 234.263 -208.812 233.635C-208.812 233.007 -209.146 232.416 -209.627 232.084L-194.766 206.451C-194.507 206.562 -194.247 206.636 -193.988 206.636C-192.987 206.636 -192.172 205.86 -192.061 204.9H-162.375C-162.264 205.86 -161.449 206.636 -160.448 206.636C-160.152 206.636 -159.892 206.562 -159.67 206.451L-144.809 232.084C-145.29 232.416 -145.624 233.007 -145.624 233.635C-145.624 234.226 -145.364 234.78 -144.92 235.113C-144.883 235.149 -144.846 235.149 -144.809 235.186L-159.67 260.819C-159.929 260.708 -160.189 260.634 -160.448 260.634C-161.449 260.634 -162.264 261.41 -162.375 262.37H-192.061C-192.172 261.41 -192.987 260.634 -193.988 260.634C-194.284 260.634 -194.544 260.708 -194.766 260.819L-209.627 235.186ZM-194.766 264.328C-194.507 264.439 -194.247 264.513 -193.988 264.513C-192.987 264.513 -192.172 263.737 -192.061 262.777H-162.375C-162.338 263.22 -162.116 263.626 -161.819 263.959C-161.486 264.291 -160.967 264.513 -160.448 264.513C-160.152 264.513 -159.892 264.439 -159.67 264.328L-144.809 289.961C-145.29 290.293 -145.624 290.884 -145.624 291.512C-145.624 291.992 -145.476 292.398 -145.179 292.731C-145.068 292.842 -144.957 292.952 -144.809 293.063L-159.633 318.659C-159.855 318.548 -160.152 318.474 -160.411 318.474C-160.819 318.474 -161.189 318.585 -161.486 318.807C-161.968 319.102 -162.264 319.619 -162.338 320.21H-192.024C-192.061 319.767 -192.283 319.361 -192.58 319.028C-192.913 318.696 -193.432 318.474 -193.951 318.474C-194.247 318.474 -194.507 318.548 -194.729 318.659L-209.59 293.063C-209.109 292.731 -208.775 292.14 -208.775 291.512C-208.775 290.847 -209.109 290.293 -209.59 289.961L-194.766 264.328ZM-245.057 293.248C-244.798 293.359 -244.539 293.433 -244.279 293.433C-243.278 293.433 -242.463 292.657 -242.352 291.697H-212.666C-212.555 292.657 -211.74 293.433 -210.739 293.433C-210.443 293.433 -210.183 293.359 -209.961 293.248L-195.1 318.881C-195.581 319.213 -195.915 319.804 -195.915 320.432C-195.915 321.097 -195.581 321.651 -195.1 321.983L-209.924 347.579C-210.183 347.468 -210.443 347.394 -210.702 347.394C-211.703 347.394 -212.518 348.17 -212.629 349.13H-242.315C-242.426 348.17 -243.241 347.394 -244.242 347.394C-244.539 347.394 -244.798 347.468 -245.02 347.579L-259.882 321.946C-259.4 321.614 -259.066 321.023 -259.066 320.395C-259.066 320.321 -259.066 320.247 -259.066 320.21C-259.14 319.656 -259.437 319.176 -259.845 318.844L-245.057 293.248ZM-310.21 350.977C-309.728 350.645 -309.395 350.054 -309.395 349.426C-309.395 348.798 -309.728 348.207 -310.21 347.875L-295.349 322.242C-295.089 322.353 -294.83 322.426 -294.57 322.426C-293.57 322.426 -292.754 321.651 -292.643 320.691H-262.958C-262.846 321.651 -262.031 322.426 -261.031 322.426C-260.734 322.426 -260.475 322.353 -260.252 322.242L-245.391 347.875C-245.836 348.207 -246.132 348.687 -246.169 349.241C-246.169 349.315 -246.169 349.389 -246.169 349.426C-246.169 350.054 -245.836 350.645 -245.354 350.977L-260.215 376.61C-260.475 376.499 -260.734 376.425 -260.993 376.425C-261.994 376.425 -262.809 377.201 -262.921 378.161H-292.606C-292.717 377.201 -293.533 376.425 -294.533 376.425C-294.83 376.425 -295.089 376.499 -295.312 376.61L-310.21 350.977ZM-259.919 379.897C-259.437 379.565 -259.103 378.974 -259.103 378.346C-259.103 377.718 -259.437 377.127 -259.919 376.795L-245.057 351.162C-244.798 351.273 -244.539 351.346 -244.279 351.346C-243.278 351.346 -242.463 350.571 -242.352 349.611H-212.666C-212.629 350.054 -212.407 350.46 -212.111 350.792C-211.777 351.125 -211.258 351.346 -210.739 351.346C-210.443 351.346 -210.183 351.273 -209.961 351.162L-195.1 376.795C-195.581 377.127 -195.915 377.718 -195.915 378.346C-195.915 378.826 -195.767 379.232 -195.47 379.565C-195.359 379.675 -195.248 379.786 -195.1 379.897L-209.961 405.53C-210.22 405.419 -210.48 405.345 -210.739 405.345C-211.74 405.345 -212.555 406.121 -212.666 407.081H-242.352C-242.463 406.121 -243.278 405.345 -244.279 405.345C-244.576 405.345 -244.835 405.419 -245.057 405.53L-259.919 379.897ZM-209.59 408.854C-209.109 408.522 -208.775 407.931 -208.775 407.303C-208.775 406.675 -209.109 406.084 -209.59 405.751L-194.729 380.119C-194.47 380.229 -194.21 380.303 -193.951 380.303C-192.95 380.303 -192.135 379.528 -192.024 378.567H-162.338C-162.227 379.528 -161.412 380.303 -160.411 380.303C-160.115 380.303 -159.855 380.229 -159.633 380.119L-144.771 405.751C-145.253 406.084 -145.587 406.675 -145.587 407.303C-145.587 407.894 -145.327 408.448 -144.883 408.78C-144.846 408.817 -144.808 408.817 -144.771 408.854L-159.633 434.487C-159.892 434.376 -160.152 434.302 -160.411 434.302C-161.412 434.302 -162.227 435.078 -162.338 436.038H-192.024C-192.135 435.078 -192.95 434.302 -193.951 434.302C-194.247 434.302 -194.507 434.376 -194.729 434.487L-209.59 408.854ZM-159.633 492.401C-159.892 492.29 -160.152 492.216 -160.411 492.216C-161.412 492.216 -162.227 492.992 -162.338 493.952H-192.024C-192.135 492.992 -192.95 492.216 -193.951 492.216C-194.247 492.216 -194.507 492.29 -194.729 492.401L-209.59 466.768C-209.109 466.435 -208.775 465.844 -208.775 465.217C-208.775 464.589 -209.109 463.998 -209.59 463.665L-194.729 438.033C-194.47 438.143 -194.21 438.217 -193.951 438.217C-192.95 438.217 -192.135 437.442 -192.024 436.481H-162.338C-162.301 436.924 -162.079 437.331 -161.782 437.663C-161.449 437.996 -160.93 438.217 -160.411 438.217C-160.115 438.217 -159.855 438.143 -159.633 438.033L-144.771 463.665C-145.253 463.998 -145.587 464.589 -145.587 465.217C-145.587 465.697 -145.439 466.103 -145.142 466.435C-145.031 466.546 -144.92 466.657 -144.771 466.768L-159.633 492.401ZM-108.971 466.768C-108.489 466.435 -108.156 465.844 -108.156 465.217C-108.156 464.958 -108.193 464.699 -108.304 464.478C-108.452 464.145 -108.674 463.887 -108.971 463.665L-94.1096 438.033C-93.8502 438.143 -93.5907 438.217 -93.3313 438.217C-92.3307 438.217 -91.5153 437.442 -91.4042 436.481H-61.7186C-61.6075 437.442 -60.7921 438.217 -59.7915 438.217C-59.7174 438.217 -59.6432 438.217 -59.6062 438.217C-59.3838 438.18 -59.1985 438.143 -59.0132 438.069L-44.1519 463.702C-44.6337 464.035 -44.9673 464.626 -44.9673 465.253C-44.9673 465.734 -44.819 466.14 -44.5225 466.472C-44.4113 466.583 -44.3001 466.694 -44.1519 466.805L-59.0132 492.438C-59.2726 492.327 -59.5321 492.253 -59.7915 492.253C-60.7921 492.253 -61.6075 493.028 -61.7186 493.989H-91.4042C-91.5153 493.028 -92.3307 492.253 -93.3313 492.253C-93.6278 492.253 -93.8872 492.327 -94.1096 492.438L-108.971 466.768ZM-58.6797 495.688C-58.1979 495.355 -57.8643 494.764 -57.8643 494.137C-57.8643 493.509 -58.1979 492.918 -58.6797 492.585L-43.8184 466.953C-43.559 467.063 -43.2995 467.137 -43.0401 467.137C-42.0395 467.137 -41.2241 466.362 -41.1129 465.401H-11.4274C-11.3533 466.325 -10.6121 467.026 -9.68555 467.137C-9.61142 467.137 -9.53732 467.137 -9.50024 467.137C-9.42612 467.137 -9.35202 467.137 -9.31494 467.137C-9.09259 467.1 -8.90729 467.063 -8.72198 466.989L6.13931 492.622C5.6575 492.955 5.32397 493.546 5.32397 494.173C5.32397 494.764 5.5834 495.318 6.02814 495.651C6.06519 495.688 6.10223 495.688 6.13931 495.725L-8.72198 521.357C-8.98141 521.247 -9.24081 521.173 -9.50024 521.173C-10.5009 521.173 -11.3162 521.948 -11.4274 522.909H-41.1129C-41.2241 521.948 -42.0395 521.173 -43.0401 521.173C-43.3366 521.173 -43.596 521.247 -43.8184 521.357L-58.6797 495.688ZM-58.6797 553.602C-58.1979 553.269 -57.8643 552.678 -57.8643 552.05C-57.8643 551.422 -58.1979 550.831 -58.6797 550.499L-43.8184 524.866C-43.559 524.977 -43.2995 525.051 -43.0401 525.051C-42.0395 525.051 -41.2241 524.275 -41.1129 523.315H-11.4274C-11.3904 523.647 -11.2792 523.98 -11.0939 524.238C-10.7603 524.719 -10.1673 525.051 -9.50024 525.051C-9.20377 525.051 -8.94434 524.977 -8.72198 524.866L6.13931 550.499C5.6575 550.831 5.32397 551.422 5.32397 552.05C5.32397 552.53 5.4722 552.937 5.76871 553.269C5.87988 553.38 5.99106 553.491 6.13931 553.602L-8.72198 579.234C-8.98141 579.124 -9.24081 579.05 -9.50024 579.05C-10.5009 579.05 -11.3162 579.825 -11.4274 580.786H-41.1129C-41.2241 579.825 -42.0395 579.05 -43.0401 579.05C-43.3366 579.05 -43.596 579.124 -43.8184 579.234L-58.6797 553.602ZM-8.35138 582.559C-7.8696 582.226 -7.53604 581.635 -7.53604 581.007C-7.53604 580.379 -7.8696 579.788 -8.35138 579.456L6.50992 553.823C6.76932 553.934 7.02878 554.008 7.28821 554.008C8.28882 554.008 9.10416 553.232 9.21536 552.272H38.9009C39.0121 553.232 39.8274 554.008 40.828 554.008C41.1245 554.008 41.3839 553.934 41.6063 553.823L56.4676 579.456C55.9858 579.788 55.6523 580.379 55.6523 581.007C55.6523 581.635 55.9858 582.226 56.4676 582.559L41.6063 608.191C41.3469 608.08 41.0875 608.007 40.828 608.007C39.8274 608.007 39.0121 608.782 38.9009 609.743H9.21536C9.10416 608.782 8.28882 608.007 7.28821 608.007C6.9917 608.007 6.73227 608.08 6.50992 608.191L-8.35138 582.559Z" fill="#C6F6FE" fill-opacity="0.3"/>
</svg>
