<svg width="17" height="13" viewBox="0 0 17 13" fill="none" xmlns="http://www.w3.org/2000/svg">
<g id="Frame 2609099" clip-path="url(#clip0_743_39)">
<path id="Vector" d="M17 3.62695V11.7036C16.9899 11.7305 16.9818 11.7553 16.9716 11.7822C16.7034 12.598 16.1628 12.9976 15.3216 12.9976C10.7617 12.9976 6.20181 12.9934 1.64396 12.9996C0.660453 13.0017 -0.00605463 12.1942 4.14719e-05 11.3267C0.0203618 8.84434 0.00816961 6.35987 0.00816961 3.87747C0.00816961 3.83192 0.00816961 3.78637 0.00816961 3.7429C0.00816961 3.66215 0.0447462 3.64145 0.111803 3.68699C0.14838 3.71184 0.184957 3.73668 0.223565 3.76153C2.471 5.28948 4.72046 6.81536 6.96789 8.34331C8.00626 9.04931 9.01008 9.05138 10.0464 8.34745C11.735 7.20252 13.4216 6.05552 15.1082 4.90853C15.7381 4.47995 16.3701 4.05552 17 3.62902V3.62695Z" fill="white"/>
<path id="Vector_2" d="M17.0006 1.90476C16.8868 2.39337 16.5962 2.73292 16.1898 3.00828C13.9648 4.50932 11.7458 6.0207 9.5268 7.53002C8.8034 8.0207 8.2202 8.0207 7.49883 7.53002C5.23717 5.99379 2.97349 4.45756 0.713867 2.92132C0.161154 2.54451 -0.0786265 2.01035 0.0290713 1.35197C0.136769 0.679089 0.543176 0.246377 1.18733 0.0559006C1.32551 0.0144928 1.46978 0 1.61406 0C6.21255 0 10.809 0 15.4075 0C16.1431 0 16.7243 0.436853 16.9519 1.15114C16.9681 1.19876 16.9844 1.24638 17.0006 1.294V1.90269V1.90476Z" fill="white"/>
</g>
<defs>
<clipPath id="clip0_743_39">
<rect width="17.0006" height="12.9996" fill="white"/>
</clipPath>
</defs>
</svg>
