<svg width="151" height="163" viewBox="0 0 151 163" fill="none" xmlns="http://www.w3.org/2000/svg">
<g id="Polygon 3" filter="url(#filter0_d_515_10822)">
<path d="M72.1257 27.7149C73.9756 26.6529 76.2502 26.6529 78.1001 27.7149L115.213 49.0204C117.077 50.0903 118.226 52.0751 118.226 54.224V96.776C118.226 98.9249 117.077 100.91 115.213 101.98L78.1001 123.285C76.2502 124.347 73.9756 124.347 72.1257 123.285L35.0128 101.98C33.1492 100.91 32 98.9249 32 96.776V54.2239C32 52.0751 33.1492 50.0903 35.0128 49.0204L72.1257 27.7149Z" fill="black"/>
<path d="M80.0916 24.2459C77.0084 22.4759 73.2174 22.4759 70.1342 24.2459L33.0213 45.5514C29.9153 47.3345 28 50.6425 28 54.2239V96.776C28 100.357 29.9153 103.665 33.0213 105.449L70.1342 126.754C73.2174 128.524 77.0084 128.524 80.0916 126.754L117.204 105.449C120.311 103.665 122.226 100.357 122.226 96.776V54.224C122.226 50.6425 120.311 47.3345 117.204 45.5514L80.0916 24.2459Z" stroke="#D61F26" stroke-width="8"/>
</g>
<defs>
<filter id="filter0_d_515_10822" x="0" y="0.917969" width="150.226" height="161.164" filterUnits="userSpaceOnUse" color-interpolation-filters="sRGB">
<feFlood flood-opacity="0" result="BackgroundImageFix"/>
<feColorMatrix in="SourceAlpha" type="matrix" values="0 0 0 0 0 0 0 0 0 0 0 0 0 0 0 0 0 0 127 0" result="hardAlpha"/>
<feOffset dy="6"/>
<feGaussianBlur stdDeviation="12"/>
<feComposite in2="hardAlpha" operator="out"/>
<feColorMatrix type="matrix" values="0 0 0 0 1 0 0 0 0 0.425 0 0 0 0 0.425 0 0 0 0.45 0"/>
<feBlend mode="normal" in2="BackgroundImageFix" result="effect1_dropShadow_515_10822"/>
<feBlend mode="normal" in="SourceGraphic" in2="effect1_dropShadow_515_10822" result="shape"/>
</filter>
</defs>
</svg>
