<svg width="231" height="633" viewBox="0 0 231 633" fill="none" xmlns="http://www.w3.org/2000/svg">
<path d="M418.716 792.197H457.275C457.42 793.445 458.479 794.452 459.779 794.452C461.175 794.452 462.282 793.349 462.282 791.958C462.282 791.142 461.849 790.374 461.223 789.943L480.527 756.647C480.864 756.791 481.201 756.887 481.538 756.887C482.934 756.887 484.041 755.784 484.041 754.392C484.041 753.001 482.934 751.898 481.538 751.898C481.153 751.898 480.816 751.994 480.527 752.138L461.223 718.842C461.849 718.41 462.282 717.643 462.282 716.827C462.282 716.012 461.849 715.244 461.223 714.812L480.527 681.517C480.864 681.661 481.201 681.757 481.538 681.757C482.934 681.757 484.041 680.653 484.041 679.262C484.041 677.871 482.934 676.767 481.538 676.767C481.153 676.767 480.816 676.863 480.527 677.007L461.223 643.712C461.849 643.28 462.282 642.512 462.282 641.697C462.282 641.265 462.186 640.881 461.993 640.497C461.801 640.162 461.56 639.874 461.271 639.682L480.575 606.387C480.912 606.53 481.249 606.626 481.586 606.626C482.886 606.626 483.945 605.619 484.089 604.372H522.649C522.793 605.619 523.852 606.626 525.152 606.626C525.537 606.626 525.874 606.53 526.163 606.387L545.467 639.682C544.841 640.114 544.408 640.881 544.408 641.697C544.408 643.088 545.515 644.192 546.911 644.192C548.211 644.192 549.27 643.184 549.414 641.937H587.974C588.118 643.184 589.177 644.192 590.477 644.192C590.862 644.192 591.199 644.096 591.488 643.952L610.792 677.247C610.166 677.679 609.733 678.446 609.733 679.262C609.733 680.653 610.84 681.757 612.236 681.757C613.536 681.757 614.595 680.749 614.739 679.502H653.299C653.443 680.749 654.502 681.757 655.802 681.757C657.198 681.757 658.305 680.653 658.305 679.262C658.305 678.446 657.872 677.679 657.246 677.247L676.55 643.952C676.887 644.096 677.224 644.192 677.561 644.192C678.957 644.192 680.064 643.088 680.064 641.697C680.064 640.306 678.957 639.202 677.561 639.202C677.176 639.202 676.839 639.298 676.55 639.442L657.246 606.147C657.872 605.715 658.305 604.947 658.305 604.132C658.305 603.316 657.872 602.548 657.246 602.117L676.55 568.821C676.55 568.821 676.598 568.821 676.598 568.869C676.887 569.013 677.224 569.061 677.561 569.061C678.861 569.061 679.92 568.054 680.064 566.806H718.624C718.768 568.054 719.827 569.061 721.127 569.061C722.523 569.061 723.63 567.958 723.63 566.566C723.63 565.751 723.197 564.983 722.571 564.552L741.875 531.256C742.212 531.4 742.549 531.496 742.886 531.496C744.186 531.496 745.245 530.489 745.389 529.241H783.949C784.093 530.489 785.152 531.496 786.452 531.496C787.848 531.496 788.955 530.393 788.955 529.001C788.955 528.186 788.522 527.418 787.896 526.986L807.2 493.691C807.537 493.835 807.874 493.931 808.211 493.931C809.607 493.931 810.714 492.827 810.714 491.436C810.714 490.045 809.607 488.941 808.211 488.941C807.826 488.941 807.489 489.037 807.2 489.181L787.896 455.886C788.522 455.454 788.955 454.686 788.955 453.871C788.955 452.48 787.848 451.376 786.452 451.376C785.152 451.376 784.093 452.384 783.949 453.631H745.389C745.341 453.247 745.245 452.911 745.052 452.624C744.619 451.904 743.801 451.376 742.886 451.376C742.501 451.376 742.164 451.472 741.875 451.616L722.571 418.321C723.197 417.889 723.63 417.121 723.63 416.306C723.63 414.914 722.523 413.811 721.127 413.811C719.827 413.811 718.768 414.819 718.624 416.066H680.064C680.016 415.49 679.727 414.962 679.342 414.531C678.909 414.099 678.235 413.811 677.561 413.811C677.176 413.811 676.839 413.907 676.55 414.051L657.246 380.756C657.872 380.324 658.305 379.556 658.305 378.741C658.305 378.309 658.209 377.925 658.016 377.541C657.824 377.205 657.583 376.917 657.294 376.678L676.598 343.382C676.935 343.526 677.272 343.622 677.609 343.622C679.005 343.622 680.112 342.519 680.112 341.127C680.112 339.736 679.005 338.633 677.609 338.633C677.224 338.633 676.887 338.729 676.598 338.873L657.294 305.577C657.92 305.145 658.353 304.378 658.353 303.562C658.353 303.13 658.257 302.747 658.065 302.363C657.872 302.027 657.631 301.739 657.342 301.547L676.646 268.252C676.983 268.396 677.32 268.492 677.657 268.492C678.957 268.492 680.016 267.484 680.16 266.237H718.72C718.864 267.484 719.924 268.492 721.223 268.492C722.619 268.492 723.727 267.388 723.727 265.997C723.727 265.181 723.293 264.414 722.667 263.982L741.971 230.687C742.308 230.831 742.645 230.927 742.982 230.927C744.378 230.927 745.485 229.823 745.485 228.432C745.485 227.041 744.378 225.937 742.982 225.937C742.597 225.937 742.26 226.033 741.971 226.177L722.667 192.882C723.293 192.45 723.727 191.682 723.727 190.867C723.727 189.475 722.619 188.372 721.223 188.372C719.924 188.372 718.864 189.379 718.72 190.627H680.16C680.112 190.051 679.823 189.523 679.438 189.092C679.005 188.66 678.331 188.372 677.657 188.372C677.272 188.372 676.935 188.468 676.646 188.612L657.342 155.316C657.968 154.885 658.401 154.117 658.401 153.301C658.401 151.91 657.294 150.807 655.898 150.807C654.598 150.807 653.539 151.814 653.395 153.062H614.835C614.691 151.814 613.632 150.807 612.332 150.807C610.936 150.807 609.829 151.91 609.829 153.301C609.829 154.117 610.262 154.885 610.888 155.316L591.584 188.612C591.247 188.468 590.91 188.372 590.573 188.372C589.273 188.372 588.214 189.379 588.07 190.627H549.51C549.462 190.051 549.173 189.523 548.788 189.092C548.355 188.66 547.681 188.372 547.007 188.372C546.622 188.372 546.285 188.468 545.996 188.612L526.692 155.316C526.981 155.077 527.27 154.789 527.414 154.453C527.607 154.117 527.703 153.685 527.703 153.254C527.703 152.438 527.27 151.67 526.644 151.239L545.948 117.943C546.285 118.087 546.622 118.183 546.959 118.183C548.355 118.183 549.462 117.08 549.462 115.688C549.462 114.297 548.355 113.194 546.959 113.194C546.574 113.194 546.237 113.29 545.948 113.433L526.644 80.1382C527.27 79.7064 527.703 78.9388 527.703 78.1232C527.703 77.7873 527.655 77.4515 527.511 77.1636C527.318 76.7319 527.029 76.396 526.644 76.1082L545.948 42.8128C546.285 42.9568 546.622 43.0527 546.959 43.0527C548.355 43.0527 549.462 41.9493 549.462 40.558C549.462 39.1667 548.355 38.0632 546.959 38.0632C546.574 38.0632 546.237 38.1592 545.948 38.3031L526.644 5.00779C527.27 4.576 527.703 3.80839 527.703 2.9928C527.703 1.6015 526.596 0.498047 525.2 0.498047C523.9 0.498047 522.841 1.50554 522.697 2.75292H484.137C483.993 1.50554 482.934 0.498047 481.634 0.498047C480.238 0.498047 479.131 1.6015 479.131 2.9928C479.131 3.80839 479.564 4.576 480.19 5.00779L460.886 38.3031C460.549 38.1592 460.212 38.0632 459.827 38.0632C458.527 38.0632 457.468 39.0707 457.324 40.3181H418.764C418.62 39.0707 417.56 38.0632 416.261 38.0632C414.865 38.0632 413.757 39.1667 413.757 40.558C413.757 41.3736 414.191 42.1412 414.817 42.573L395.416 75.2446C395.079 75.1007 394.742 75.0047 394.405 75.0047C393.106 75.0047 392.047 76.0122 391.902 77.2596H353.343C353.294 76.6839 353.006 76.1562 352.621 75.7244C352.187 75.2926 351.513 75.0047 350.839 75.0047C350.454 75.0047 350.117 75.1007 349.828 75.2446L330.525 41.9493C331.15 41.5175 331.584 40.7499 331.584 39.9343C331.584 38.543 330.476 37.4395 329.08 37.4395C327.781 37.4395 326.722 38.447 326.577 39.6944H288.018C287.873 38.447 286.814 37.4395 285.514 37.4395C284.118 37.4395 283.011 38.543 283.011 39.9343C283.011 40.7499 283.444 41.5175 284.07 41.9493L264.766 75.2446C264.429 75.1007 264.092 75.0047 263.755 75.0047C262.359 75.0047 261.252 76.1082 261.252 77.4995C261.252 78.8908 262.359 79.9942 263.755 79.9942C264.14 79.9942 264.477 79.8983 264.766 79.7543L284.07 113.05C283.444 113.481 283.011 114.249 283.011 115.065C283.011 115.88 283.444 116.648 284.07 117.08L264.766 150.375C264.429 150.231 264.092 150.135 263.755 150.135C262.648 150.135 261.685 150.855 261.348 151.91C261.3 152.054 261.252 152.246 261.252 152.39H222.692C222.548 151.143 221.489 150.135 220.189 150.135C218.793 150.135 217.686 151.239 217.686 152.63C217.686 153.445 218.119 154.213 218.745 154.645L199.441 187.94C199.104 187.796 198.767 187.7 198.43 187.7C197.131 187.7 196.071 188.708 195.927 189.955H157.367C157.319 189.379 157.03 188.852 156.645 188.42C156.212 187.988 155.538 187.7 154.864 187.7C154.479 187.7 154.142 187.796 153.853 187.94L134.549 154.645C135.175 154.213 135.608 153.445 135.608 152.63C135.608 151.239 134.501 150.135 133.105 150.135C131.805 150.135 130.746 151.143 130.602 152.39H92.0424C91.898 151.143 90.8389 150.135 89.5391 150.135C88.1431 150.135 87.0359 151.239 87.0359 152.63C87.0359 153.445 87.4691 154.213 88.095 154.645L68.7911 187.94C68.4541 187.796 68.1171 187.7 67.7802 187.7C66.3841 187.7 65.2769 188.804 65.2769 190.195C65.2769 191.586 66.3841 192.69 67.7802 192.69C68.1653 192.69 68.5023 192.594 68.7911 192.45L88.095 225.745C87.4691 226.177 87.0359 226.945 87.0359 227.76C87.0359 228.576 87.4691 229.343 88.095 229.775L68.7911 263.07C68.4541 262.927 68.1171 262.831 67.7802 262.831C66.3841 262.831 65.2769 263.934 65.2769 265.325C65.2769 266.717 66.3841 267.82 67.7802 267.82C68.1653 267.82 68.5023 267.724 68.7911 267.58L88.095 300.876C87.4691 301.307 87.0359 302.075 87.0359 302.891C87.0359 304.282 88.1431 305.385 89.5391 305.385C90.8389 305.385 91.898 304.378 92.0424 303.13H130.602C130.746 304.378 131.805 305.385 133.105 305.385C133.49 305.385 133.827 305.289 134.116 305.145L153.42 338.441C152.794 338.873 152.361 339.64 152.361 340.456C152.361 341.271 152.794 342.039 153.42 342.471L134.164 375.718C133.875 375.574 133.49 375.478 133.153 375.478C132.624 375.478 132.142 375.622 131.757 375.91C131.132 376.294 130.746 376.965 130.65 377.733H92.0905C91.9461 376.486 90.887 375.478 89.5873 375.478C88.1912 375.478 87.084 376.582 87.084 377.973C87.084 378.789 87.5173 379.556 88.1431 379.988L68.8392 413.283C68.5023 413.139 68.1653 413.043 67.8283 413.043C66.5285 413.043 65.4695 414.051 65.3251 415.298H26.7655C26.621 414.051 25.562 413.043 24.2622 413.043C22.8662 413.043 21.759 414.147 21.759 415.538C21.759 416.354 22.1922 417.121 22.818 417.553L3.51417 450.848C3.1772 450.705 2.84022 450.609 2.50324 450.609C1.1072 450.609 0 451.712 0 453.103C0 454.495 1.1072 455.598 2.50324 455.598C2.88836 455.598 3.22534 455.502 3.51417 455.358L22.818 488.653C22.1922 489.085 21.759 489.853 21.759 490.668C21.759 492.06 22.8662 493.163 24.2622 493.163C25.562 493.163 26.621 492.156 26.7655 490.908H65.1806C65.3251 492.156 66.3841 493.163 67.6839 493.163C68.069 493.163 68.406 493.067 68.6948 492.923L87.9987 526.219C87.3729 526.651 86.9396 527.418 86.9396 528.234C86.9396 529.625 88.0468 530.728 89.4428 530.728C90.7426 530.728 91.8017 529.721 91.9461 528.474H130.506C130.65 529.721 131.709 530.728 133.009 530.728C133.394 530.728 133.731 530.633 134.02 530.489L153.324 563.784C152.698 564.216 152.265 564.983 152.265 565.799C152.265 566.615 152.698 567.382 153.324 567.814L134.02 601.109C133.683 600.965 133.346 600.869 133.009 600.869C131.613 600.869 130.506 601.973 130.506 603.364C130.506 604.755 131.613 605.859 133.009 605.859C133.394 605.859 133.731 605.763 134.02 605.619L153.324 638.914C152.698 639.346 152.265 640.114 152.265 640.929C152.265 642.321 153.372 643.424 154.768 643.424C156.068 643.424 157.127 642.417 157.271 641.169H195.831C195.975 642.417 197.034 643.424 198.334 643.424C199.73 643.424 200.837 642.321 200.837 640.929C200.837 640.114 200.404 639.346 199.778 638.914L219.082 605.619C219.419 605.763 219.756 605.859 220.093 605.859C221.393 605.859 222.452 604.851 222.596 603.604H261.156C261.204 603.844 261.252 604.084 261.348 604.324C261.733 605.235 262.6 605.859 263.659 605.859C264.044 605.859 264.381 605.763 264.67 605.619L283.974 638.914C283.348 639.346 282.915 640.114 282.915 640.929C282.915 642.321 284.022 643.424 285.418 643.424C286.718 643.424 287.777 642.417 287.921 641.169H326.577C326.673 642.369 327.636 643.28 328.84 643.424C328.936 643.424 329.032 643.424 329.08 643.424C329.177 643.424 329.273 643.424 329.321 643.424C329.61 643.376 329.851 643.328 330.091 643.232L349.395 676.527C348.769 676.959 348.336 677.727 348.336 678.542C348.336 679.358 348.769 680.126 349.395 680.557L330.091 713.853C329.754 713.709 329.417 713.613 329.08 713.613C327.684 713.613 326.577 714.716 326.577 716.108C326.577 717.499 327.684 718.602 329.08 718.602C329.466 718.602 329.802 718.506 330.091 718.362L349.395 751.658C348.769 752.09 348.336 752.857 348.336 753.673C348.336 755.064 349.443 756.168 350.839 756.168C352.139 756.168 353.198 755.16 353.343 753.913H391.902C392.047 755.16 393.106 756.168 394.405 756.168C394.791 756.168 395.128 756.072 395.416 755.928L414.72 789.223C414.094 789.655 413.661 790.422 413.661 791.238C413.661 792.629 414.768 793.733 416.164 793.733C417.512 794.452 418.571 793.493 418.716 792.197ZM588.696 192.114C589.129 192.546 589.803 192.834 590.477 192.834C590.862 192.834 591.199 192.738 591.488 192.594L610.792 225.889C610.166 226.321 609.733 227.089 609.733 227.904C609.733 228.72 610.166 229.487 610.792 229.919L593.75 259.328L591.488 263.214C591.151 263.07 590.814 262.975 590.477 262.975C589.177 262.975 588.118 263.982 587.974 265.229H549.414C549.366 264.894 549.27 264.558 549.125 264.27C548.692 263.502 547.874 262.975 546.911 262.975C546.526 262.975 546.189 263.07 545.9 263.214L526.596 229.919C527.222 229.487 527.655 228.72 527.655 227.904C527.655 227.089 527.222 226.321 526.596 225.889L545.9 192.594C546.237 192.738 546.574 192.834 546.911 192.834C548.211 192.834 549.27 191.826 549.414 190.579H587.974C588.022 191.155 588.311 191.682 588.696 192.114ZM200.885 340.744C200.885 339.928 200.452 339.16 199.826 338.729L219.13 305.433C219.467 305.577 219.804 305.673 220.141 305.673C221.441 305.673 222.5 304.666 222.644 303.418H261.204C261.252 303.754 261.348 304.09 261.493 304.378C261.926 305.145 262.744 305.673 263.707 305.673C264.092 305.673 264.429 305.577 264.718 305.433L283.974 338.729C283.589 339.016 283.3 339.352 283.155 339.784C283.011 340.072 282.963 340.408 282.963 340.792C282.963 341.607 283.396 342.375 284.022 342.807L264.766 376.054H264.718C264.429 375.91 264.092 375.862 263.755 375.862C262.696 375.862 261.83 376.486 261.445 377.397C261.348 377.637 261.3 377.877 261.252 378.117H222.692C222.548 376.869 221.489 375.862 220.189 375.862C219.804 375.862 219.467 375.958 219.13 376.102L199.826 342.807C200.452 342.327 200.885 341.607 200.885 340.744ZM350.839 155.221C352.139 155.221 353.198 154.213 353.343 152.966H391.902C392.047 154.213 393.106 155.221 394.405 155.221C394.791 155.221 395.128 155.125 395.416 154.981L414.72 188.276C414.094 188.708 413.661 189.475 413.661 190.291C413.661 191.059 413.998 191.778 414.576 192.21C414.624 192.258 414.672 192.258 414.72 192.306L395.416 225.649C395.079 225.505 394.742 225.409 394.405 225.409C393.106 225.409 392.047 226.417 391.902 227.664H353.343C353.198 226.417 352.139 225.409 350.839 225.409C350.454 225.409 350.117 225.505 349.828 225.649L330.525 192.354C330.958 192.018 331.295 191.586 331.439 191.059C331.535 190.819 331.535 190.579 331.535 190.291C331.535 189.475 331.102 188.708 330.476 188.276L349.78 154.981C350.117 155.173 350.454 155.221 350.839 155.221ZM587.974 265.805C588.118 267.053 589.177 268.06 590.477 268.06C590.862 268.06 591.199 267.964 591.488 267.82L610.792 301.115C610.166 301.547 609.733 302.315 609.733 303.13C609.733 303.898 610.07 304.618 610.647 305.049C610.695 305.097 610.744 305.097 610.792 305.145L591.488 338.441C591.151 338.297 590.814 338.201 590.477 338.201C589.177 338.201 588.118 339.208 587.974 340.456H549.414C549.366 340.216 549.318 339.976 549.221 339.736C548.836 338.825 547.97 338.201 546.911 338.201C546.526 338.201 546.189 338.297 545.9 338.441L526.596 305.145C527.222 304.714 527.655 303.946 527.655 303.13C527.655 302.459 527.366 301.835 526.933 301.355C526.837 301.259 526.74 301.163 526.644 301.115L545.948 267.82C546.285 267.964 546.622 268.06 546.959 268.06C548.259 268.06 549.318 267.053 549.462 265.805H587.974ZM609.733 378.357C609.733 378.789 609.829 379.22 610.021 379.556C610.214 379.892 610.455 380.18 610.744 380.372L591.44 413.667C591.103 413.523 590.766 413.427 590.429 413.427C589.129 413.427 588.07 414.435 587.926 415.682H549.366C549.318 415.442 549.27 415.202 549.173 414.962C548.788 414.051 547.922 413.427 546.863 413.427C546.478 413.427 546.141 413.523 545.852 413.667L526.548 380.372C527.174 379.94 527.607 379.172 527.607 378.357C527.607 378.021 527.559 377.685 527.414 377.397C527.318 377.157 527.174 376.965 527.029 376.774C526.885 376.63 526.74 376.486 526.548 376.342L545.852 343.046C546.189 343.19 546.526 343.286 546.863 343.286C547.922 343.286 548.788 342.663 549.173 341.751C549.27 341.511 549.318 341.271 549.366 341.031H587.926C587.974 341.367 588.07 341.703 588.214 341.991C588.648 342.759 589.466 343.286 590.429 343.286C590.814 343.286 591.151 343.19 591.44 343.046L610.744 376.342C610.166 376.774 609.733 377.493 609.733 378.357ZM609.733 453.535C609.733 454.351 610.166 455.118 610.792 455.55L593.75 484.959L591.488 488.845C591.151 488.701 590.814 488.605 590.477 488.605C589.177 488.605 588.118 489.613 587.974 490.86H549.414C549.366 490.525 549.27 490.189 549.125 489.901C548.692 489.133 547.874 488.605 546.911 488.605C546.526 488.605 546.189 488.701 545.9 488.845L526.596 455.55C527.222 455.118 527.655 454.351 527.655 453.535C527.655 452.72 527.222 451.952 526.596 451.52L545.9 418.225C546.237 418.369 546.574 418.465 546.911 418.465C548.211 418.465 549.27 417.457 549.414 416.21H587.974C588.022 416.45 588.07 416.69 588.166 416.929C588.551 417.841 589.418 418.465 590.477 418.465C590.862 418.465 591.199 418.369 591.488 418.225L610.792 451.52C610.166 452 609.733 452.72 609.733 453.535ZM287.825 490.189C287.44 489.277 286.573 488.653 285.514 488.653C285.129 488.653 284.792 488.749 284.503 488.893L265.2 455.598C265.825 455.166 266.259 454.399 266.259 453.583C266.259 452.767 265.825 452 265.2 451.568L284.503 418.273H284.552C284.84 418.417 285.177 418.465 285.514 418.465C286.814 418.465 287.873 417.457 288.018 416.21H326.577C326.673 417.121 327.299 417.937 328.118 418.273C328.406 418.417 328.743 418.465 329.08 418.465C329.466 418.465 329.802 418.369 330.091 418.225L349.395 451.52C348.769 451.952 348.336 452.72 348.336 453.535C348.336 454.351 348.769 455.118 349.395 455.55L330.091 488.845C329.851 488.749 329.61 488.653 329.321 488.653C329.225 488.653 329.129 488.653 329.08 488.653C327.781 488.653 326.722 489.661 326.577 490.908H288.018C287.969 490.621 287.921 490.381 287.825 490.189ZM266.259 378.357C266.259 377.493 265.825 376.774 265.2 376.342L284.455 343.094C284.792 343.238 285.129 343.334 285.466 343.334C286.525 343.334 287.392 342.711 287.777 341.799C287.873 341.559 287.921 341.319 287.969 341.079H326.577C326.625 341.415 326.722 341.751 326.866 342.039C327.299 342.807 328.118 343.334 329.08 343.334C329.466 343.334 329.802 343.238 330.091 343.094L349.395 376.39C348.769 376.822 348.336 377.589 348.336 378.405C348.336 379.028 348.529 379.556 348.914 379.988C349.058 380.132 349.203 380.276 349.395 380.42L330.091 413.715H330.043C329.754 413.571 329.417 413.523 329.08 413.523C327.781 413.523 326.722 414.531 326.577 415.778H288.018C287.969 415.202 287.681 414.675 287.295 414.243C287.055 414.003 286.814 413.811 286.477 413.715C286.188 413.571 285.851 413.523 285.514 413.523C285.129 413.523 284.792 413.619 284.503 413.763L265.248 380.468C265.825 379.94 266.259 379.172 266.259 378.357ZM544.408 415.922C544.408 416.258 544.456 416.594 544.6 416.881C544.745 417.265 544.985 417.601 545.322 417.841C545.37 417.889 545.418 417.889 545.467 417.937L526.163 451.232C525.826 451.088 525.489 450.992 525.152 450.992C523.852 450.992 522.793 452 522.649 453.247H484.089C484.041 452.911 483.945 452.576 483.8 452.288C483.367 451.52 482.549 450.992 481.586 450.992C481.201 450.992 480.864 451.088 480.575 451.232L461.271 417.937C461.897 417.505 462.33 416.738 462.33 415.922C462.33 415.586 462.282 415.25 462.137 414.962C462.089 414.866 462.089 414.818 462.041 414.723C461.849 414.387 461.608 414.099 461.319 413.907L480.623 380.612C480.96 380.756 481.297 380.852 481.634 380.852C482.934 380.852 483.993 379.844 484.137 378.597H522.697C522.745 378.837 522.793 379.076 522.889 379.316C523.274 380.228 524.141 380.852 525.2 380.852C525.585 380.852 525.922 380.756 526.211 380.612L545.515 413.907C544.793 414.387 544.408 415.106 544.408 415.922ZM350.839 305.625C351.802 305.625 352.621 305.097 353.054 304.33C353.198 304.042 353.294 303.706 353.343 303.37H391.902C392.047 304.618 393.106 305.625 394.405 305.625C394.791 305.625 395.128 305.529 395.465 305.385L414.768 338.681C414.143 339.112 413.709 339.88 413.709 340.696C413.709 341.511 414.143 342.279 414.768 342.711L400.808 366.795L395.465 376.006C395.128 375.862 394.791 375.766 394.454 375.766C393.154 375.766 392.095 376.774 391.95 378.021H353.391C353.343 377.685 353.246 377.349 353.102 377.061C352.669 376.294 351.85 375.766 350.888 375.766C350.502 375.766 350.165 375.862 349.877 376.006L330.573 342.711C331.199 342.279 331.632 341.511 331.632 340.696C331.632 339.88 331.199 339.112 330.573 338.681L349.877 305.385C350.117 305.577 350.454 305.625 350.839 305.625ZM457.564 341.943C457.997 342.711 458.816 343.238 459.779 343.238C460.164 343.238 460.501 343.142 460.79 342.998L480.093 376.294C479.468 376.726 479.034 377.493 479.034 378.309C479.034 378.645 479.131 378.98 479.227 379.268C479.419 379.7 479.708 380.036 480.045 380.324L460.741 413.619C460.404 413.475 460.067 413.379 459.73 413.379C458.431 413.379 457.372 414.387 457.227 415.634H418.668C418.62 415.298 418.523 414.962 418.379 414.675C417.946 413.907 417.127 413.379 416.164 413.379C415.779 413.379 415.442 413.475 415.154 413.619L395.898 380.372C396.524 379.94 396.957 379.172 396.957 378.357C396.957 377.541 396.524 376.774 395.898 376.342L415.202 343.046C415.539 343.19 415.876 343.286 416.213 343.286C417.512 343.286 418.571 342.279 418.716 341.031H457.275C457.275 341.319 457.42 341.655 457.564 341.943ZM351.802 451.232C351.513 451.088 351.176 451.04 350.839 451.04C350.454 451.04 350.117 451.136 349.828 451.28L330.573 417.985C331.199 417.553 331.632 416.785 331.632 415.97C331.632 415.106 331.199 414.387 330.573 413.907L349.877 380.612C350.214 380.756 350.551 380.852 350.888 380.852C352.187 380.852 353.246 379.844 353.391 378.597H391.95C392.095 379.844 393.154 380.852 394.454 380.852C394.839 380.852 395.176 380.756 395.465 380.612L414.768 413.907C414.143 414.339 413.709 415.106 413.709 415.922C413.709 416.69 414.046 417.409 414.624 417.841C414.672 417.889 414.72 417.889 414.768 417.937L395.465 451.232C395.128 451.088 394.791 450.992 394.454 450.992C393.154 450.992 392.095 452 391.95 453.247H353.391C353.246 452.384 352.669 451.568 351.802 451.232ZM416.453 488.653C416.357 488.653 416.261 488.653 416.213 488.653C415.827 488.653 415.49 488.749 415.202 488.893L395.898 455.598C396.379 455.214 396.764 454.686 396.909 454.063C396.957 453.919 396.957 453.727 396.957 453.535C396.957 452.72 396.524 451.952 395.898 451.52L415.202 418.225C415.539 418.369 415.876 418.465 416.213 418.465C417.512 418.465 418.571 417.457 418.716 416.21H457.275C457.324 416.45 457.372 416.69 457.468 416.929C457.853 417.841 458.72 418.465 459.779 418.465C460.164 418.465 460.501 418.369 460.79 418.225L480.093 451.52C479.468 451.952 479.034 452.72 479.034 453.535C479.034 453.871 479.131 454.207 479.227 454.495C479.419 454.926 479.708 455.262 480.045 455.55L460.741 488.845C460.453 488.701 460.067 488.605 459.73 488.605C458.431 488.605 457.372 489.613 457.227 490.86H418.668C418.571 489.709 417.657 488.749 416.453 488.653ZM523.9 305.337C524.237 305.529 524.67 305.625 525.104 305.625C525.489 305.625 525.826 305.529 526.115 305.385L545.418 338.681C544.937 339.064 544.552 339.592 544.408 340.216C544.359 340.36 544.359 340.552 544.359 340.744C544.359 340.936 544.359 341.079 544.408 341.271C544.552 341.895 544.889 342.423 545.418 342.807L526.115 376.102C525.778 375.958 525.441 375.862 525.104 375.862C523.804 375.862 522.745 376.869 522.6 378.117H484.041C483.993 377.877 483.945 377.637 483.848 377.397C483.8 377.301 483.8 377.253 483.752 377.157C483.319 376.39 482.5 375.862 481.538 375.862C481.153 375.862 480.816 375.958 480.527 376.102L461.223 342.807C461.849 342.375 462.282 341.607 462.282 340.792C462.282 339.976 461.849 339.208 461.223 338.777L480.527 305.481C480.864 305.625 481.201 305.721 481.538 305.721C482.837 305.721 483.896 304.714 484.041 303.466H522.6C522.697 304.234 523.226 304.954 523.9 305.337ZM479.034 303.13C479.034 303.898 479.371 304.618 479.949 305.049C479.997 305.097 480.045 305.097 480.093 305.145L460.79 338.441C460.453 338.297 460.116 338.201 459.779 338.201C458.479 338.201 457.42 339.208 457.275 340.456H418.716C418.571 339.208 417.512 338.201 416.213 338.201C415.827 338.201 415.49 338.297 415.202 338.441L395.898 305.145C396.187 304.906 396.475 304.666 396.62 304.33C396.812 303.994 396.909 303.562 396.909 303.13C396.909 302.459 396.62 301.835 396.187 301.355C396.09 301.259 395.994 301.163 395.898 301.115L407.162 281.637L415.154 267.82C415.49 267.964 415.827 268.06 416.164 268.06C417.127 268.06 417.946 267.532 418.379 266.765C418.523 266.477 418.62 266.141 418.668 265.805H457.227C457.372 267.053 458.431 268.06 459.73 268.06C460.116 268.06 460.453 267.964 460.79 267.82L480.093 301.115C479.468 301.547 479.034 302.315 479.034 303.13ZM392.624 229.727C393.058 230.159 393.732 230.447 394.405 230.447C394.791 230.447 395.128 230.351 395.416 230.207L414.72 263.502C414.48 263.694 414.287 263.886 414.094 264.126C413.806 264.51 413.661 264.99 413.661 265.517C413.661 266.141 413.854 266.669 414.239 267.1C414.383 267.244 414.528 267.388 414.72 267.532L409.617 276.36L395.465 300.828C395.128 300.684 394.791 300.588 394.454 300.588C393.491 300.588 392.672 301.115 392.239 301.883C392.095 302.171 391.998 302.507 391.95 302.843H353.391C353.343 302.267 353.054 301.739 352.669 301.307C352.235 300.876 351.561 300.588 350.888 300.588C350.502 300.588 350.165 300.684 349.877 300.828L330.573 267.532C330.958 267.244 331.247 266.909 331.391 266.477C331.535 266.189 331.584 265.853 331.584 265.517C331.584 264.702 331.15 263.934 330.525 263.502L349.78 230.207C350.117 230.351 350.454 230.447 350.791 230.447C351.898 230.447 352.861 229.727 353.198 228.672C353.246 228.528 353.294 228.336 353.294 228.192H391.854C391.95 228.768 392.239 229.295 392.624 229.727ZM285.466 268.06C286.525 268.06 287.392 267.436 287.777 266.525C287.873 266.285 287.921 266.045 287.969 265.805H326.577C326.722 267.053 327.781 268.06 329.08 268.06C329.466 268.06 329.802 267.964 330.139 267.82L349.395 301.115C349.01 301.403 348.721 301.739 348.577 302.171C348.432 302.459 348.384 302.795 348.384 303.13C348.384 303.946 348.818 304.714 349.443 305.145L330.139 338.441C329.802 338.297 329.466 338.201 329.129 338.201C327.829 338.201 326.77 339.208 326.625 340.456H288.066C287.921 339.208 286.862 338.201 285.562 338.201C285.177 338.201 284.84 338.297 284.552 338.441L265.248 305.145C265.633 304.858 265.922 304.522 266.066 304.09C266.21 303.802 266.259 303.466 266.259 303.13C266.259 302.315 265.825 301.547 265.2 301.115L284.455 267.82C284.792 267.964 285.129 268.06 285.466 268.06ZM331.584 491.148C331.584 490.812 331.535 490.477 331.391 490.189C331.199 489.757 330.91 489.421 330.525 489.133L349.828 455.838H349.877C350.165 455.982 350.502 456.03 350.839 456.03C352.139 456.03 353.198 455.022 353.343 453.775H391.902C391.999 454.543 392.384 455.214 393.009 455.598C393.395 455.886 393.876 456.03 394.405 456.03C394.791 456.03 395.128 455.934 395.416 455.79L414.72 489.085C414.094 489.517 413.661 490.285 413.661 491.1C413.661 491.724 413.854 492.252 414.239 492.684C414.383 492.827 414.528 492.971 414.72 493.115L395.416 526.411C395.176 526.315 394.935 526.219 394.646 526.219C394.55 526.219 394.454 526.219 394.405 526.219C393.106 526.219 392.047 527.226 391.902 528.474H353.343C353.294 527.898 353.006 527.37 352.621 526.938C352.235 526.555 351.706 526.267 351.08 526.219C350.984 526.219 350.888 526.219 350.839 526.219C350.454 526.219 350.117 526.315 349.828 526.459L330.573 493.163C331.199 492.731 331.584 492.012 331.584 491.148ZM484.041 528.474C483.993 527.898 483.704 527.37 483.319 526.938C482.885 526.507 482.212 526.219 481.538 526.219C481.153 526.219 480.816 526.315 480.527 526.459L461.223 493.163C461.271 493.115 461.319 493.115 461.367 493.067C461.945 492.588 462.282 491.916 462.282 491.148C462.282 490.333 461.849 489.565 461.223 489.133L480.479 455.838C480.815 455.982 481.153 456.078 481.49 456.078C482.789 456.078 483.848 455.07 483.993 453.823H522.552C522.697 455.07 523.756 456.078 525.056 456.078C525.152 456.078 525.248 456.078 525.296 456.078C525.585 456.03 525.826 455.982 526.067 455.886L545.37 489.181C544.745 489.613 544.311 490.381 544.311 491.196C544.311 491.82 544.504 492.348 544.889 492.779C545.033 492.923 545.178 493.067 545.37 493.211L526.067 526.507C525.73 526.363 525.393 526.267 525.056 526.267C524.526 526.267 524.045 526.411 523.66 526.698C523.034 527.082 522.649 527.754 522.552 528.522H484.041V528.474ZM479.323 226.753C479.131 227.089 479.034 227.52 479.034 227.952C479.034 228.768 479.468 229.535 480.093 229.967L460.79 263.262C460.453 263.118 460.116 263.023 459.779 263.023C458.72 263.023 457.853 263.646 457.468 264.558C457.372 264.798 457.324 265.038 457.275 265.277H418.716C418.571 264.03 417.512 263.023 416.213 263.023C415.827 263.023 415.49 263.118 415.154 263.262L395.898 229.967C396.524 229.535 396.957 228.768 396.957 227.952C396.957 227.137 396.524 226.369 395.898 225.937L415.202 192.642C415.539 192.786 415.876 192.882 416.213 192.882C417.512 192.882 418.571 191.874 418.716 190.627H457.275C457.324 190.963 457.42 191.298 457.564 191.586C457.997 192.354 458.816 192.882 459.779 192.882C460.164 192.882 460.501 192.786 460.79 192.642L480.093 225.937C479.756 226.129 479.516 226.417 479.323 226.753ZM285.466 192.834C286.573 192.834 287.536 192.066 287.873 191.059C287.921 190.915 287.969 190.723 287.969 190.579H326.577C326.722 191.826 327.781 192.834 329.08 192.834C329.466 192.834 329.802 192.738 330.091 192.594L349.395 225.889C348.962 226.225 348.625 226.657 348.481 227.184C348.384 227.424 348.384 227.664 348.384 227.952C348.384 228.768 348.818 229.535 349.443 229.967L330.188 263.262C329.851 263.118 329.514 263.023 329.177 263.023C328.214 263.023 327.396 263.55 326.962 264.318C326.866 264.462 326.818 264.606 326.77 264.798C326.722 264.942 326.673 265.133 326.673 265.277H288.114C287.969 264.03 286.91 263.023 285.611 263.023C285.225 263.023 284.889 263.118 284.552 263.262L265.296 229.967C265.922 229.535 266.355 228.768 266.355 227.952C266.355 227.137 265.922 226.369 265.296 225.937L284.6 192.642C284.792 192.786 285.129 192.834 285.466 192.834ZM220.141 380.852C220.671 380.852 221.152 380.708 221.537 380.42C222.163 380.036 222.548 379.364 222.644 378.597H261.204C261.348 379.844 262.407 380.852 263.707 380.852C264.092 380.852 264.429 380.756 264.766 380.612L284.022 413.907C283.396 414.339 282.963 415.106 282.963 415.922C282.963 416.785 283.396 417.505 284.022 417.937L264.718 451.232C264.381 451.088 264.044 450.992 263.707 450.992C262.407 450.992 261.348 452 261.204 453.247H222.644C222.5 452 221.441 450.992 220.141 450.992C219.756 450.992 219.419 451.088 219.13 451.232L199.826 417.937C200.452 417.505 200.885 416.738 200.885 415.922C200.885 415.25 200.597 414.627 200.163 414.147C200.067 414.051 199.971 413.955 199.874 413.907L219.13 380.66C219.419 380.804 219.756 380.852 220.141 380.852ZM200.885 491.148C200.885 490.333 200.452 489.565 199.826 489.133L219.13 455.838C219.467 455.982 219.804 456.078 220.141 456.078C221.441 456.078 222.5 455.07 222.644 453.823H261.204C261.348 455.07 262.407 456.078 263.707 456.078C263.803 456.078 263.9 456.078 263.948 456.078C264.237 456.03 264.477 455.982 264.718 455.886L284.022 489.181C283.396 489.613 282.963 490.381 282.963 491.196C282.963 491.436 283.011 491.724 283.059 491.964C283.059 492.06 283.107 492.108 283.155 492.156C283.252 492.396 283.396 492.588 283.541 492.779C283.685 492.923 283.829 493.067 284.022 493.211L264.718 526.507C264.381 526.363 264.044 526.267 263.707 526.267C262.407 526.267 261.348 527.274 261.204 528.522H222.644C222.596 528.186 222.5 527.85 222.356 527.562C221.922 526.794 221.104 526.267 220.141 526.267C219.756 526.267 219.419 526.363 219.13 526.507L199.826 493.211C200.452 492.731 200.885 492.012 200.885 491.148ZM416.213 563.832C415.827 563.832 415.49 563.928 415.202 564.072L395.898 530.776C396.524 530.345 396.957 529.577 396.957 528.761C396.957 528.33 396.861 527.946 396.668 527.562C396.475 527.226 396.235 526.938 395.946 526.746L415.25 493.451C415.49 493.547 415.731 493.643 416.02 493.643C416.116 493.643 416.213 493.643 416.261 493.643C417.56 493.643 418.62 492.636 418.764 491.388H457.324C457.372 491.628 457.42 491.868 457.516 492.108C457.901 493.019 458.768 493.643 459.827 493.643C460.212 493.643 460.549 493.547 460.838 493.403L480.142 526.698C480.093 526.746 480.045 526.746 479.997 526.794C479.419 527.274 479.083 527.946 479.083 528.713C479.083 529.529 479.516 530.297 480.142 530.728L460.886 564.024C460.549 563.88 460.212 563.784 459.875 563.784C458.575 563.784 457.516 564.791 457.372 566.039H418.812C418.571 564.839 417.512 563.832 416.213 563.832ZM546.911 563.832C546.526 563.832 546.189 563.928 545.9 564.072L526.596 530.776C526.644 530.728 526.692 530.728 526.74 530.68C527.318 530.201 527.655 529.529 527.655 528.761C527.655 527.946 527.222 527.178 526.596 526.746L545.9 493.451C546.237 493.595 546.574 493.691 546.911 493.691C548.211 493.691 549.27 492.683 549.414 491.436H587.974C588.07 492.635 589.033 493.547 590.236 493.691C590.332 493.691 590.429 493.691 590.477 493.691C590.573 493.691 590.669 493.691 590.718 493.691C591.006 493.643 591.247 493.595 591.488 493.499L610.792 526.794C610.166 527.226 609.733 527.994 609.733 528.809C609.733 529.577 610.07 530.297 610.647 530.728C610.695 530.776 610.744 530.776 610.792 530.824L591.488 564.12C591.151 563.976 590.814 563.88 590.477 563.88C589.177 563.88 588.118 564.887 587.974 566.135H549.414C549.27 564.839 548.211 563.832 546.911 563.832ZM655.802 456.078C655.898 456.078 655.995 456.078 656.043 456.078C656.331 456.03 656.572 455.982 656.813 455.886L676.117 489.181C675.491 489.613 675.058 490.381 675.058 491.196C675.058 491.82 675.25 492.348 675.635 492.779C675.78 492.923 675.924 493.067 676.117 493.211L656.813 526.507C656.476 526.363 656.139 526.267 655.802 526.267C654.502 526.267 653.443 527.274 653.299 528.522H614.739C614.691 528.186 614.595 527.85 614.45 527.562C614.017 526.794 613.199 526.267 612.236 526.267C611.851 526.267 611.514 526.363 611.225 526.507L591.921 493.211C592.547 492.779 592.98 492.012 592.98 491.196C592.98 490.381 592.547 489.613 591.921 489.181L592.884 487.502L611.177 455.886C611.514 456.03 611.851 456.126 612.188 456.126C613.487 456.126 614.547 455.118 614.691 453.871H653.251C653.443 455.07 654.502 456.078 655.802 456.078ZM523.323 229.679C523.756 230.111 524.43 230.399 525.104 230.399C525.489 230.399 525.826 230.303 526.115 230.159L545.418 263.454C544.793 263.886 544.359 264.654 544.359 265.469C544.359 266.093 544.552 266.621 544.937 267.052C545.081 267.196 545.226 267.34 545.418 267.484L526.115 300.78C525.778 300.636 525.441 300.54 525.104 300.54C523.804 300.54 522.745 301.547 522.6 302.795H484.041C483.993 302.219 483.704 301.691 483.319 301.259C482.885 300.828 482.212 300.54 481.538 300.54C481.153 300.54 480.816 300.636 480.527 300.78L461.223 267.484C461.512 267.244 461.801 266.957 461.945 266.669C462.137 266.333 462.234 265.901 462.234 265.469C462.234 264.798 461.945 264.174 461.512 263.694C461.415 263.598 461.319 263.502 461.223 263.454L480.527 230.159C480.864 230.303 481.201 230.399 481.538 230.399C482.5 230.399 483.319 229.871 483.752 229.104C483.896 228.816 483.993 228.48 484.041 228.144H522.6C522.649 228.768 522.937 229.295 523.323 229.679ZM457.997 116.888C458.431 117.32 459.105 117.607 459.779 117.607C460.164 117.607 460.501 117.511 460.79 117.367L480.093 150.663C479.805 150.903 479.516 151.143 479.371 151.478C479.179 151.814 479.083 152.246 479.083 152.678C479.083 153.301 479.275 153.829 479.66 154.261C479.805 154.405 479.949 154.549 480.142 154.693L460.838 187.988C460.501 187.844 460.164 187.748 459.827 187.748C458.864 187.748 458.046 188.276 457.612 189.044C457.468 189.331 457.372 189.667 457.324 190.003H418.764C418.716 189.667 418.62 189.331 418.475 189.044C418.042 188.276 417.223 187.748 416.261 187.748C415.876 187.748 415.539 187.844 415.25 187.988L395.898 154.789C396.524 154.357 396.957 153.589 396.957 152.774C396.957 151.958 396.524 151.191 395.898 150.759L415.202 117.463C415.539 117.607 415.876 117.703 416.213 117.703C417.512 117.703 418.571 116.696 418.716 115.448H457.275C457.324 115.976 457.564 116.504 457.997 116.888ZM261.926 229.727C262.359 230.159 263.033 230.447 263.707 230.447C264.092 230.447 264.429 230.351 264.718 230.207L283.974 263.502C283.589 263.79 283.3 264.126 283.155 264.558C283.011 264.846 282.963 265.181 282.963 265.565C282.963 266.189 283.155 266.717 283.541 267.148C283.685 267.292 283.829 267.436 284.022 267.58L264.766 300.876C264.429 300.732 264.092 300.636 263.755 300.636C262.696 300.636 261.83 301.259 261.445 302.171C261.348 302.411 261.3 302.651 261.252 302.891H222.692C222.644 302.555 222.548 302.219 222.404 301.931C221.97 301.163 221.152 300.636 220.189 300.636C219.804 300.636 219.467 300.732 219.178 300.876L199.874 267.58C200.5 267.148 200.934 266.381 200.934 265.565C200.934 264.75 200.5 263.982 199.874 263.55L219.178 230.255C219.515 230.399 219.852 230.495 220.189 230.495C221.489 230.495 222.548 229.487 222.692 228.24H261.252C261.252 228.816 261.541 229.343 261.926 229.727ZM157.03 489.949C156.597 489.181 155.779 488.653 154.816 488.653C154.431 488.653 154.094 488.749 153.805 488.893L134.501 455.598C135.127 455.166 135.56 454.399 135.56 453.583C135.56 452.767 135.127 452 134.501 451.568L153.757 418.321C154.046 418.465 154.431 418.561 154.768 418.561C155.201 418.561 155.634 418.465 155.971 418.225C156.693 417.841 157.175 417.121 157.271 416.306H195.831C195.975 417.553 197.034 418.561 198.334 418.561C198.719 418.561 199.056 418.465 199.393 418.321L218.697 451.616C218.071 452.048 217.638 452.815 217.638 453.631C217.638 454.447 218.071 455.214 218.697 455.646L203.774 481.409L199.393 488.941C199.056 488.797 198.719 488.702 198.382 488.702C197.082 488.702 196.023 489.709 195.879 490.956H157.319C157.271 490.573 157.175 490.237 157.03 489.949ZM287.921 565.607C287.584 564.599 286.67 563.832 285.514 563.832C285.129 563.832 284.792 563.928 284.503 564.072L265.2 530.776C265.825 530.345 266.259 529.577 266.259 528.761C266.259 528.426 266.21 528.09 266.066 527.802C265.873 527.37 265.585 527.034 265.2 526.746L284.503 493.451C284.84 493.595 285.177 493.691 285.514 493.691C286.814 493.691 287.873 492.683 288.018 491.436H326.577C326.673 492.348 327.299 493.163 328.118 493.499C328.406 493.643 328.743 493.691 329.08 493.691C329.466 493.691 329.802 493.595 330.091 493.451L349.395 526.746C348.769 527.178 348.336 527.946 348.336 528.761C348.336 529.625 348.769 530.345 349.395 530.776L330.091 564.072C329.754 563.928 329.417 563.832 329.08 563.832C327.781 563.832 326.722 564.839 326.577 566.087H288.018C287.969 565.943 287.969 565.751 287.921 565.607ZM353.054 602.74C352.621 601.973 351.802 601.445 350.839 601.445C350.454 601.445 350.117 601.541 349.828 601.685L330.525 568.39C331.15 567.958 331.584 567.19 331.584 566.375C331.584 565.559 331.15 564.791 330.525 564.36L349.828 531.064C350.069 531.16 350.31 531.256 350.599 531.256C350.695 531.256 350.791 531.256 350.839 531.256C352.139 531.256 353.198 530.249 353.343 529.001H391.902C391.999 530.201 392.961 531.112 394.165 531.256C394.261 531.256 394.357 531.256 394.405 531.256C394.791 531.256 395.128 531.16 395.416 531.016L414.72 564.312C414.094 564.743 413.661 565.511 413.661 566.327C413.661 567.142 414.094 567.91 414.72 568.342L400.76 592.474L395.465 601.637C395.128 601.493 394.791 601.397 394.454 601.397C393.154 601.397 392.095 602.405 391.95 603.652H353.391C353.343 603.364 353.246 603.028 353.054 602.74ZM483.752 602.74C483.319 601.973 482.5 601.445 481.538 601.445C481.153 601.445 480.816 601.541 480.527 601.685L461.223 568.39C461.849 567.958 462.282 567.19 462.282 566.375C462.282 565.559 461.849 564.791 461.223 564.36L480.479 531.064C480.815 531.208 481.153 531.304 481.49 531.304C482.115 531.304 482.645 531.112 483.078 530.728C483.559 530.297 483.896 529.721 483.993 529.049H522.552C522.649 530.249 523.611 531.16 524.815 531.304C524.911 531.304 525.007 531.304 525.056 531.304C525.152 531.304 525.248 531.304 525.296 531.304C525.585 531.256 525.826 531.208 526.067 531.112L545.37 564.408C545.322 564.456 545.274 564.456 545.226 564.504C544.648 564.983 544.311 565.655 544.311 566.423C544.311 567.238 544.745 568.006 545.37 568.438L526.067 601.733C525.73 601.589 525.393 601.493 525.056 601.493C524.43 601.493 523.9 601.685 523.467 602.069C522.986 602.453 522.649 603.076 522.552 603.748H483.993C484.041 603.364 483.945 603.028 483.752 602.74ZM392.624 79.3226C393.058 79.7543 393.732 80.0422 394.405 80.0422C394.791 80.0422 395.128 79.9463 395.416 79.8023L414.72 113.098C414.094 113.529 413.661 114.297 413.661 115.113C413.661 115.928 414.094 116.696 414.72 117.128L400.76 141.26L395.465 150.423C395.128 150.279 394.791 150.183 394.454 150.183C393.154 150.183 392.095 151.191 391.95 152.438H353.391C353.343 152.102 353.246 151.766 353.102 151.478C352.669 150.711 351.85 150.183 350.888 150.183C350.502 150.183 350.165 150.279 349.877 150.423L330.573 117.128C331.199 116.696 331.632 115.928 331.632 115.113C331.632 114.297 331.199 113.529 330.573 113.098L349.877 79.8023C350.214 79.9463 350.551 80.0422 350.888 80.0422C352.187 80.0422 353.246 79.0347 353.391 77.7873H391.95C391.95 78.363 392.239 78.8908 392.624 79.3226ZM196.601 192.114C197.034 192.546 197.66 192.834 198.382 192.834C198.767 192.834 199.104 192.738 199.393 192.594L218.697 225.889C218.071 226.321 217.638 227.089 217.638 227.904C217.638 228.72 218.071 229.487 218.697 229.919L203.774 255.682L199.393 263.214C199.056 263.07 198.719 262.975 198.382 262.975C197.082 262.975 196.023 263.982 195.879 265.229H157.319C157.271 264.894 157.175 264.558 157.03 264.27C156.597 263.502 155.779 262.975 154.816 262.975C154.431 262.975 154.094 263.07 153.805 263.214L134.453 229.967C135.079 229.535 135.512 228.768 135.512 227.952C135.512 227.137 135.079 226.369 134.453 225.937L153.757 192.642C154.094 192.786 154.431 192.882 154.768 192.882C156.068 192.882 157.127 191.874 157.271 190.627H195.831C195.927 191.203 196.168 191.73 196.601 192.114ZM222.356 602.74C221.922 601.973 221.104 601.445 220.141 601.445C219.756 601.445 219.419 601.541 219.13 601.685L199.826 568.39C200.452 567.958 200.885 567.19 200.885 566.375C200.885 565.559 200.452 564.791 199.826 564.36L219.13 531.064C219.467 531.208 219.804 531.304 220.141 531.304C221.441 531.304 222.5 530.297 222.644 529.049H261.204C261.252 529.289 261.3 529.529 261.397 529.769C261.445 529.865 261.445 529.913 261.493 530.009C261.926 530.776 262.744 531.304 263.707 531.304C264.092 531.304 264.429 531.208 264.718 531.064L284.022 564.36C283.396 564.791 282.963 565.559 282.963 566.375C282.963 566.71 283.011 567.046 283.155 567.334C283.348 567.766 283.637 568.102 284.022 568.39L264.718 601.685C264.381 601.541 264.044 601.445 263.707 601.445C262.407 601.445 261.348 602.453 261.204 603.7H222.644C222.644 603.364 222.5 603.028 222.356 602.74ZM480.093 677.151C479.468 677.583 479.034 678.351 479.034 679.166C479.034 679.982 479.468 680.749 480.093 681.181L460.79 714.476C460.453 714.332 460.116 714.237 459.779 714.237C459.345 714.237 458.912 714.332 458.575 714.524C457.853 714.908 457.372 715.628 457.275 716.491H418.716C418.668 716.108 418.571 715.772 418.379 715.484C417.946 714.764 417.127 714.237 416.213 714.237C415.827 714.237 415.49 714.332 415.202 714.476L395.898 681.181C396.524 680.749 396.957 679.982 396.957 679.166C396.957 678.351 396.524 677.583 395.898 677.151L415.202 643.856C415.539 644 415.876 644.096 416.213 644.096C417.512 644.096 418.571 643.088 418.716 641.841H457.275C457.324 642.177 457.42 642.512 457.564 642.8C457.997 643.568 458.816 644.096 459.779 644.096C460.164 644.096 460.501 644 460.79 643.856L480.093 677.151ZM460.79 639.25C460.453 639.106 460.116 639.01 459.779 639.01C458.479 639.01 457.42 640.018 457.275 641.265H418.716C418.668 640.929 418.571 640.593 418.427 640.306C417.994 639.538 417.175 639.01 416.213 639.01C415.827 639.01 415.49 639.106 415.202 639.25L395.898 605.955C396.524 605.523 396.957 604.755 396.957 603.94C396.957 603.124 396.524 602.357 395.898 601.925L415.202 568.629C415.539 568.773 415.876 568.869 416.213 568.869C417.512 568.869 418.571 567.862 418.716 566.614H457.275C457.42 567.862 458.479 568.869 459.779 568.869C459.875 568.869 459.971 568.869 460.019 568.869C460.308 568.821 460.549 568.773 460.79 568.677L480.093 601.973C479.468 602.405 479.034 603.172 479.034 603.988C479.034 604.611 479.227 605.139 479.612 605.571C479.756 605.715 479.901 605.859 480.093 606.003L460.79 639.25ZM526.596 606.003C526.644 605.955 526.692 605.955 526.74 605.907C527.318 605.427 527.655 604.755 527.655 603.988C527.655 603.172 527.222 602.405 526.596 601.973L545.9 568.677C546.237 568.821 546.574 568.917 546.911 568.917C547.537 568.917 548.066 568.677 548.499 568.342C548.981 567.91 549.318 567.334 549.414 566.662H587.974C588.022 567.094 588.166 567.526 588.407 567.862C588.84 568.486 589.61 568.917 590.477 568.917C590.862 568.917 591.199 568.821 591.488 568.677L610.792 601.973C610.166 602.405 609.733 603.172 609.733 603.988C609.733 604.611 609.925 605.139 610.31 605.571C610.455 605.715 610.599 605.859 610.792 606.003L591.488 639.298C591.151 639.154 590.814 639.058 590.477 639.058C589.177 639.058 588.118 640.066 587.974 641.313H549.414C549.27 640.066 548.211 639.058 546.911 639.058C546.526 639.058 546.189 639.154 545.9 639.298L526.596 606.003ZM676.117 639.538C675.491 639.97 675.058 640.737 675.058 641.553C675.058 642.369 675.491 643.136 676.117 643.568L656.813 676.863C656.476 676.719 656.139 676.623 655.802 676.623C654.502 676.623 653.443 677.631 653.299 678.878H614.739C614.595 677.631 613.536 676.623 612.236 676.623C611.851 676.623 611.514 676.719 611.225 676.863L591.921 643.568C592.547 643.136 592.98 642.369 592.98 641.553C592.98 640.737 592.547 639.97 591.921 639.538L611.225 606.243C611.562 606.387 611.899 606.483 612.236 606.483C613.536 606.483 614.595 605.475 614.739 604.228H653.299C653.443 605.475 654.502 606.483 655.802 606.483C656.187 606.483 656.524 606.387 656.813 606.243L676.117 639.538ZM656.861 601.685C656.524 601.541 656.187 601.445 655.85 601.445C655.417 601.445 655.032 601.541 654.647 601.733C653.924 602.117 653.443 602.836 653.347 603.7H614.787C614.739 603.316 614.643 602.98 614.45 602.692C614.017 601.973 613.199 601.445 612.284 601.445C611.899 601.445 611.562 601.541 611.273 601.685L591.969 568.39C592.595 567.958 593.028 567.19 593.028 566.375C593.028 565.559 592.595 564.791 591.969 564.36L611.273 531.064C611.61 531.208 611.947 531.304 612.284 531.304C613.584 531.304 614.643 530.297 614.787 529.049H653.347C653.395 529.385 653.491 529.721 653.636 530.009C653.925 530.489 654.358 530.92 654.887 531.112C655.176 531.256 655.513 531.304 655.85 531.304C656.235 531.304 656.572 531.208 656.861 531.064L676.165 564.36C675.539 564.791 675.106 565.559 675.106 566.375C675.106 567.19 675.539 567.958 676.165 568.39L656.861 601.685ZM718.672 566.087H680.112C680.016 565.175 679.438 564.36 678.572 564.024C678.283 563.88 677.946 563.832 677.609 563.832C677.224 563.832 676.887 563.928 676.598 564.072L657.294 530.776C657.92 530.345 658.353 529.577 658.353 528.761C658.353 527.946 657.92 527.178 657.294 526.746L676.598 493.451H676.646C676.935 493.595 677.272 493.643 677.609 493.643C678.909 493.643 679.968 492.636 680.112 491.388H718.672C718.768 492.3 719.346 493.115 720.212 493.451C720.501 493.595 720.838 493.643 721.175 493.643C721.56 493.643 721.897 493.547 722.186 493.403L741.49 526.698C740.864 527.13 740.431 527.898 740.431 528.713C740.431 529.529 740.864 530.297 741.49 530.728L722.186 564.024C721.849 563.88 721.512 563.784 721.175 563.784C719.875 563.88 718.816 564.839 718.672 566.087ZM806.815 489.133C806.189 489.565 805.756 490.333 805.756 491.148C805.756 491.964 806.189 492.731 806.815 493.163L787.511 526.459C787.174 526.315 786.837 526.219 786.5 526.219C785.2 526.219 784.141 527.226 783.997 528.474H745.437C745.341 527.562 744.763 526.746 743.897 526.411C743.608 526.267 743.271 526.219 742.934 526.219C742.549 526.219 742.212 526.315 741.923 526.459L722.619 493.163C723.245 492.731 723.678 491.964 723.678 491.148C723.678 490.333 723.245 489.565 722.619 489.133L741.923 455.838C742.26 455.982 742.597 456.078 742.934 456.078C744.234 456.078 745.293 455.07 745.437 453.823H783.997C784.141 455.07 785.2 456.078 786.5 456.078C786.885 456.078 787.222 455.982 787.511 455.838L806.815 489.133ZM741.49 451.52C740.864 451.952 740.431 452.72 740.431 453.535C740.431 454.351 740.864 455.118 741.49 455.55L722.186 488.845H722.138C721.849 488.701 721.512 488.653 721.175 488.653C719.875 488.653 718.816 489.661 718.672 490.908H680.112C680.016 490.045 679.535 489.325 678.812 488.941C678.476 488.749 678.042 488.653 677.609 488.653C677.224 488.653 676.887 488.749 676.598 488.893L657.294 455.598C657.92 455.166 658.353 454.399 658.353 453.583C658.353 452.767 657.92 452 657.294 451.568L676.598 418.273C676.935 418.417 677.272 418.513 677.609 418.513C678.909 418.513 679.968 417.505 680.112 416.258H718.672C718.816 417.505 719.875 418.513 721.175 418.513C721.56 418.513 721.897 418.417 722.186 418.273L741.49 451.52ZM676.117 413.907C675.491 414.339 675.058 415.106 675.058 415.922C675.058 416.69 675.395 417.409 675.972 417.841C676.021 417.889 676.069 417.889 676.117 417.937L656.813 451.232C656.476 451.088 656.139 450.992 655.802 450.992C654.502 450.992 653.443 452 653.299 453.247H614.739C614.595 452 613.536 450.992 612.236 450.992C611.851 450.992 611.514 451.088 611.225 451.232L591.921 417.937C592.547 417.505 592.98 416.738 592.98 415.922C592.98 415.586 592.932 415.25 592.788 414.962C592.595 414.531 592.306 414.195 591.969 413.907L611.273 380.612C611.61 380.756 611.947 380.852 612.284 380.852C613.584 380.852 614.643 379.844 614.787 378.597H653.347C653.395 378.837 653.443 379.124 653.539 379.316C653.924 380.228 654.791 380.852 655.85 380.852C656.235 380.852 656.572 380.756 656.861 380.612L676.117 413.907ZM676.117 338.729C675.491 339.16 675.058 339.928 675.058 340.744C675.058 341.559 675.491 342.327 676.117 342.759L656.813 376.054C656.476 375.91 656.139 375.814 655.802 375.814C654.502 375.814 653.443 376.822 653.299 378.069H614.739C614.691 377.733 614.595 377.397 614.45 377.157C614.017 376.39 613.199 375.862 612.236 375.862C611.851 375.862 611.514 375.958 611.225 376.102L591.921 342.807C592.547 342.375 592.98 341.607 592.98 340.792C592.98 339.976 592.547 339.208 591.921 338.777L611.225 305.481C611.562 305.625 611.899 305.721 612.236 305.721C613.536 305.721 614.595 304.714 614.739 303.466H653.299C653.347 303.802 653.443 304.138 653.588 304.426C654.021 305.193 654.839 305.721 655.802 305.721C656.187 305.721 656.524 305.625 656.813 305.481L676.117 338.729ZM656.861 300.876C656.524 300.732 656.187 300.636 655.85 300.636C654.55 300.636 653.491 301.643 653.347 302.891H614.787C614.739 302.555 614.643 302.219 614.498 301.931C614.065 301.163 613.247 300.636 612.284 300.636C611.899 300.636 611.562 300.732 611.273 300.876L591.969 267.58C592.595 267.148 593.028 266.381 593.028 265.565C593.028 264.75 592.595 263.982 591.969 263.55L592.932 261.871L611.225 230.255C611.562 230.399 611.899 230.495 612.236 230.495C613.536 230.495 614.595 229.487 614.739 228.24H653.299C653.347 228.816 653.636 229.343 654.021 229.775C654.454 230.207 655.128 230.495 655.802 230.495C656.187 230.495 656.524 230.399 656.813 230.255L676.117 263.55C675.491 263.982 675.058 264.75 675.058 265.565C675.058 266.189 675.25 266.717 675.635 267.148C675.78 267.292 675.924 267.436 676.117 267.58L656.861 300.876ZM741.49 225.889C740.864 226.321 740.431 227.089 740.431 227.904C740.431 228.72 740.864 229.487 741.49 229.919L722.186 263.214C721.849 263.07 721.512 262.975 721.175 262.975C719.875 262.975 718.816 263.982 718.672 265.229H680.112C680.064 264.894 679.968 264.558 679.823 264.27C679.39 263.502 678.572 262.975 677.609 262.975C677.224 262.975 676.887 263.07 676.598 263.214L657.294 229.967C657.92 229.535 658.353 228.768 658.353 227.952C658.353 227.137 657.92 226.369 657.294 225.937L676.598 192.642C676.935 192.786 677.272 192.882 677.609 192.882C678.909 192.882 679.968 191.874 680.112 190.627H718.672C718.816 191.874 719.875 192.882 721.175 192.882C721.56 192.882 721.897 192.786 722.186 192.642L741.49 225.889ZM611.225 155.029C611.562 155.173 611.899 155.269 612.236 155.269C613.536 155.269 614.595 154.261 614.739 153.014H653.299C653.443 154.261 654.502 155.269 655.802 155.269C656.187 155.269 656.524 155.173 656.813 155.029L676.117 188.324C675.491 188.756 675.058 189.523 675.058 190.339C675.058 191.107 675.395 191.826 675.972 192.258C676.021 192.306 676.069 192.306 676.117 192.354L656.813 225.649C656.476 225.505 656.139 225.409 655.802 225.409C654.502 225.409 653.443 226.417 653.299 227.664H614.739C614.595 226.417 613.536 225.409 612.236 225.409C611.851 225.409 611.514 225.505 611.225 225.649L591.921 192.354C592.547 191.922 592.98 191.155 592.98 190.339C592.98 189.667 592.691 189.044 592.258 188.564C592.162 188.468 592.065 188.372 591.969 188.324L611.225 155.029ZM545.418 188.324C544.793 188.756 544.359 189.523 544.359 190.339C544.359 191.107 544.696 191.826 545.274 192.258C545.322 192.306 545.37 192.306 545.418 192.354L526.115 225.649C525.778 225.505 525.441 225.409 525.104 225.409C523.804 225.409 522.745 226.417 522.6 227.664H484.041C483.896 226.417 482.837 225.409 481.538 225.409C481.153 225.409 480.816 225.505 480.527 225.649L461.223 192.354C461.608 192.066 461.897 191.73 462.041 191.298C462.186 191.011 462.234 190.675 462.234 190.339C462.234 189.523 461.8 188.756 461.175 188.324L480.479 155.029C480.815 155.173 481.153 155.269 481.49 155.269C482.452 155.269 483.271 154.741 483.704 153.973C483.848 153.685 483.945 153.397 483.993 153.062H522.552C522.697 154.309 523.756 155.316 525.056 155.316C525.441 155.316 525.778 155.221 526.115 155.077L545.418 188.324ZM545.418 113.098C544.793 113.529 544.359 114.297 544.359 115.113C544.359 115.928 544.793 116.696 545.418 117.128L526.115 150.423C525.778 150.279 525.441 150.183 525.104 150.183C524.141 150.183 523.323 150.711 522.889 151.478C522.745 151.766 522.649 152.054 522.6 152.39H484.041C483.896 151.143 482.837 150.135 481.538 150.135C481.153 150.135 480.815 150.231 480.479 150.375L461.175 117.08C461.8 116.648 462.234 115.88 462.234 115.065C462.234 114.249 461.8 113.481 461.175 113.05L480.479 79.7543C480.815 79.8983 481.153 79.9942 481.538 79.9942C482.837 79.9942 483.896 78.9867 484.041 77.7393H522.6C522.649 77.9792 522.697 78.2191 522.793 78.459C523.178 79.3705 524.045 79.9942 525.104 79.9942C525.489 79.9942 525.826 79.8983 526.115 79.7543L545.418 113.098ZM480.527 4.62398C480.864 4.76791 481.201 4.86386 481.538 4.86386C482.837 4.86386 483.896 3.85637 484.041 2.60899H522.6C522.745 3.85637 523.804 4.86386 525.104 4.86386C525.489 4.86386 525.826 4.76791 526.115 4.62398L545.418 37.9193C544.793 38.3511 544.359 39.1187 544.359 39.9343C544.359 40.7499 544.793 41.5175 545.418 41.9493L526.115 75.2446C525.778 75.1007 525.441 75.0047 525.056 75.0047C523.756 75.0047 522.697 76.0122 522.552 77.2596H483.993C483.945 77.0197 483.896 76.7798 483.8 76.54C483.656 76.2521 483.511 75.9642 483.271 75.7244C482.837 75.2926 482.163 75.0047 481.49 75.0047C481.104 75.0047 480.767 75.1007 480.479 75.2446L461.223 41.9493C461.849 41.5175 462.282 40.7499 462.282 39.9343C462.282 39.5985 462.234 39.2626 462.089 38.9748C461.897 38.543 461.608 38.2072 461.223 37.9193L480.527 4.62398ZM415.154 42.1892C415.49 42.3331 415.827 42.429 416.164 42.429C417.464 42.429 418.523 41.4215 418.668 40.1742H457.227C457.275 40.4141 457.324 40.6539 457.42 40.8938C457.805 41.8054 458.671 42.429 459.73 42.429C460.116 42.429 460.453 42.3331 460.741 42.1892L479.997 75.4845C479.371 75.9163 478.938 76.6839 478.938 77.4995C478.938 77.8353 478.986 78.1711 479.131 78.459C479.323 78.8908 479.612 79.2266 479.949 79.5145L460.645 112.81C460.308 112.666 459.971 112.57 459.634 112.57C458.334 112.57 457.275 113.577 457.131 114.825H418.571C418.427 113.577 417.368 112.57 416.068 112.57C415.683 112.57 415.346 112.666 415.057 112.81L395.898 79.5624C396.524 79.1307 396.957 78.363 396.957 77.5475C396.957 76.8758 396.668 76.2521 396.235 75.7723C396.138 75.6764 396.042 75.5804 395.946 75.5325L415.154 42.1892ZM265.2 79.5624C265.825 79.1307 266.259 78.363 266.259 77.5475C266.259 76.7319 265.825 75.9642 265.2 75.5325L284.503 42.2371C284.84 42.3811 285.177 42.477 285.514 42.477C286.814 42.477 287.873 41.4695 288.018 40.2221H326.577C326.722 41.4695 327.781 42.477 329.08 42.477C329.466 42.477 329.802 42.3811 330.091 42.2371L349.395 75.5325C348.769 75.9642 348.336 76.7319 348.336 77.5475C348.336 78.3151 348.673 79.0347 349.251 79.4665C349.299 79.5145 349.347 79.5145 349.395 79.5624L330.091 112.858C329.754 112.714 329.417 112.618 329.08 112.618C327.781 112.618 326.722 113.625 326.577 114.873H288.018C287.873 113.625 286.814 112.618 285.514 112.618C285.129 112.618 284.792 112.714 284.503 112.858L265.2 79.5624ZM284.455 117.415C284.792 117.559 285.129 117.655 285.466 117.655C286.766 117.655 287.825 116.648 287.969 115.4H326.577C326.625 115.976 326.914 116.504 327.299 116.936C327.732 117.368 328.358 117.655 329.08 117.655C329.466 117.655 329.802 117.559 330.091 117.415L349.395 150.711C348.769 151.143 348.336 151.91 348.336 152.726C348.336 153.349 348.529 153.877 348.914 154.309C349.058 154.453 349.203 154.597 349.395 154.741L330.091 188.036C329.754 187.892 329.417 187.796 329.08 187.796C327.973 187.796 327.01 188.564 326.673 189.571C326.625 189.715 326.577 189.907 326.577 190.051H288.018C287.873 188.804 286.814 187.796 285.514 187.796C285.129 187.796 284.792 187.892 284.503 188.036L265.2 154.741C265.633 154.405 265.97 153.973 266.114 153.445C266.21 153.206 266.21 152.966 266.21 152.678C266.21 151.862 265.777 151.095 265.151 150.663L284.455 117.415ZM219.13 155.029C219.467 155.173 219.804 155.269 220.141 155.269C221.441 155.269 222.5 154.261 222.644 153.014H261.204C261.348 154.261 262.407 155.269 263.707 155.269C264.092 155.269 264.429 155.173 264.718 155.029L284.022 188.324C283.637 188.612 283.348 188.948 283.155 189.379C283.011 189.667 282.963 190.003 282.963 190.339C282.963 191.107 283.3 191.826 283.878 192.258C283.926 192.306 283.974 192.306 284.022 192.354L264.718 225.649C264.381 225.505 264.044 225.409 263.707 225.409C262.407 225.409 261.348 226.417 261.204 227.664H222.644C222.5 226.417 221.441 225.409 220.141 225.409C219.756 225.409 219.419 225.505 219.13 225.649L199.826 192.354C200.452 191.922 200.885 191.155 200.885 190.339C200.885 189.667 200.597 189.044 200.163 188.564C200.067 188.468 199.971 188.372 199.874 188.324L219.13 155.029ZM69.1281 192.402C69.7539 191.97 70.1871 191.203 70.1871 190.387C70.1871 189.571 69.7539 188.804 69.1281 188.372L88.4319 155.077C88.7689 155.221 89.1059 155.316 89.4428 155.316C90.7426 155.316 91.8017 154.309 91.9461 153.062H130.506C130.65 154.309 131.709 155.316 133.009 155.316C133.394 155.316 133.731 155.221 134.02 155.077L153.324 188.372C152.698 188.804 152.265 189.571 152.265 190.387C152.265 191.155 152.602 191.874 153.179 192.306C153.227 192.354 153.276 192.354 153.324 192.402L134.02 225.649C133.683 225.505 133.346 225.409 133.009 225.409C131.709 225.409 130.65 226.417 130.506 227.664H91.9461C91.8017 226.417 90.7426 225.409 89.4428 225.409C89.0577 225.409 88.7208 225.505 88.4319 225.649L69.1281 192.402ZM69.1281 267.58C69.7539 267.148 70.1871 266.381 70.1871 265.565C70.1871 264.75 69.7539 263.982 69.1281 263.55L88.4319 230.255C88.7689 230.399 89.1059 230.495 89.4428 230.495C90.7426 230.495 91.8017 229.487 91.9461 228.24H130.506C130.554 228.816 130.843 229.343 131.228 229.775C131.661 230.207 132.335 230.495 133.009 230.495C133.394 230.495 133.731 230.399 134.02 230.255L153.324 263.55C152.698 263.982 152.265 264.75 152.265 265.565C152.265 266.189 152.457 266.717 152.842 267.148C152.987 267.292 153.131 267.436 153.324 267.58L134.02 300.876C133.683 300.732 133.346 300.636 133.009 300.636C131.709 300.636 130.65 301.643 130.506 302.891H91.9461C91.8017 301.643 90.7426 300.636 89.4428 300.636C89.0577 300.636 88.7208 300.732 88.4319 300.876L69.1281 267.58ZM134.453 305.193C135.079 304.762 135.512 303.994 135.512 303.178C135.512 302.363 135.079 301.595 134.453 301.163L153.757 267.868C154.094 268.012 154.431 268.108 154.768 268.108C156.068 268.108 157.127 267.1 157.271 265.853H195.831C195.975 267.1 197.034 268.108 198.334 268.108C198.719 268.108 199.056 268.012 199.345 267.868L218.649 301.163C218.023 301.595 217.59 302.363 217.59 303.178C217.59 303.946 217.927 304.666 218.504 305.097C218.553 305.145 218.601 305.145 218.649 305.193L199.345 338.489C199.008 338.345 198.671 338.249 198.334 338.249C197.034 338.249 195.975 339.256 195.831 340.504H157.271C157.127 339.256 156.068 338.249 154.768 338.249C154.383 338.249 154.046 338.345 153.757 338.489L134.453 305.193ZM153.757 343.046C154.094 343.19 154.431 343.286 154.768 343.286C156.068 343.286 157.127 342.279 157.271 341.031H195.831C195.879 341.607 196.168 342.135 196.553 342.567C196.986 342.998 197.66 343.286 198.334 343.286C198.719 343.286 199.056 343.19 199.345 343.046L218.649 376.342C218.023 376.774 217.59 377.541 217.59 378.357C217.59 378.98 217.782 379.508 218.167 379.94C218.312 380.084 218.456 380.228 218.649 380.372L199.393 413.619C199.104 413.475 198.719 413.379 198.382 413.379C197.853 413.379 197.371 413.523 196.986 413.811C196.36 414.195 195.975 414.866 195.879 415.634H157.319C157.271 415.058 156.982 414.531 156.597 414.099C156.164 413.667 155.49 413.379 154.816 413.379C154.431 413.379 154.094 413.475 153.805 413.619L134.501 380.372C135.127 379.94 135.56 379.172 135.56 378.357C135.56 377.493 135.127 376.774 134.501 376.342L153.757 343.046ZM88.4319 380.612C88.7689 380.756 89.1059 380.852 89.4428 380.852C90.7426 380.852 91.8017 379.844 91.9461 378.597H130.506C130.65 379.844 131.709 380.852 133.009 380.852C133.394 380.852 133.731 380.756 134.02 380.612L153.324 413.907C152.698 414.339 152.265 415.106 152.265 415.922C152.265 416.785 152.698 417.505 153.324 417.937L134.068 451.184C133.731 451.04 133.394 450.944 133.057 450.944C131.757 450.944 130.698 451.952 130.554 453.199H91.9942C91.8498 451.952 90.7907 450.944 89.491 450.944C89.1059 450.944 88.7689 451.04 88.4801 451.184L69.1762 417.889C69.802 417.457 70.2353 416.69 70.2353 415.874C70.2353 415.778 70.2353 415.682 70.2353 415.634C70.139 414.914 69.7539 414.291 69.2243 413.859L88.4319 380.612ZM3.80301 455.598C4.42882 455.166 4.86207 454.399 4.86207 453.583C4.86207 452.767 4.42882 452 3.80301 451.568L23.1069 418.273C23.4438 418.417 23.7808 418.513 24.1178 418.513C25.4176 418.513 26.4766 417.505 26.621 416.258H65.1806C65.3251 417.505 66.3841 418.513 67.6839 418.513C68.069 418.513 68.406 418.417 68.6948 418.273L87.9987 451.568C87.421 452 87.0359 452.624 86.9878 453.343C86.9878 453.439 86.9878 453.535 86.9878 453.583C86.9878 454.399 87.421 455.166 88.0468 455.598L68.7429 488.893C68.406 488.749 68.069 488.653 67.732 488.653C66.4323 488.653 65.3732 489.661 65.2288 490.908H26.6692C26.5248 489.661 25.4657 488.653 24.1659 488.653C23.7808 488.653 23.4438 488.749 23.155 488.893L3.80301 455.598ZM69.1281 493.163C69.7539 492.731 70.1871 491.964 70.1871 491.148C70.1871 490.333 69.7539 489.565 69.1281 489.133L88.4319 455.838C88.7689 455.982 89.1059 456.078 89.4428 456.078C90.7426 456.078 91.8017 455.07 91.9461 453.823H130.506C130.554 454.399 130.843 454.926 131.228 455.358C131.661 455.79 132.335 456.078 133.009 456.078C133.394 456.078 133.731 455.982 134.02 455.838L153.324 489.133C152.698 489.565 152.265 490.333 152.265 491.148C152.265 491.772 152.457 492.3 152.842 492.731C152.987 492.875 153.131 493.019 153.324 493.163L134.02 526.459C133.683 526.315 133.346 526.219 133.009 526.219C131.709 526.219 130.65 527.226 130.506 528.474H91.9461C91.8017 527.226 90.7426 526.219 89.4428 526.219C89.0577 526.219 88.7208 526.315 88.4319 526.459L69.1281 493.163ZM134.501 530.776C135.127 530.345 135.56 529.577 135.56 528.761C135.56 527.946 135.127 527.178 134.501 526.746L153.805 493.451C154.142 493.595 154.479 493.691 154.816 493.691C156.116 493.691 157.175 492.683 157.319 491.436H195.879C196.023 492.683 197.082 493.691 198.382 493.691C198.767 493.691 199.104 493.595 199.393 493.451L218.697 526.746C218.071 527.178 217.638 527.946 217.638 528.761C217.638 529.529 217.975 530.249 218.553 530.68C218.601 530.728 218.649 530.728 218.697 530.776L199.393 564.072C199.056 563.928 198.719 563.832 198.382 563.832C197.082 563.832 196.023 564.839 195.879 566.087H157.319C157.175 564.839 156.116 563.832 154.816 563.832C154.431 563.832 154.094 563.928 153.805 564.072L134.501 530.776ZM199.393 639.298C199.056 639.154 198.719 639.058 198.382 639.058C197.082 639.058 196.023 640.066 195.879 641.313H157.319C157.175 640.066 156.116 639.058 154.816 639.058C154.431 639.058 154.094 639.154 153.805 639.298L134.501 606.003C135.127 605.571 135.56 604.803 135.56 603.988C135.56 603.172 135.127 602.405 134.501 601.973L153.805 568.677C154.142 568.821 154.479 568.917 154.816 568.917C156.116 568.917 157.175 567.91 157.319 566.662H195.879C195.927 567.238 196.216 567.766 196.601 568.198C197.034 568.629 197.708 568.917 198.382 568.917C198.767 568.917 199.104 568.821 199.393 568.677L218.697 601.973C218.071 602.405 217.638 603.172 217.638 603.988C217.638 604.611 217.83 605.139 218.216 605.571C218.36 605.715 218.504 605.859 218.697 606.003L199.393 639.298ZM265.2 606.003C265.825 605.571 266.259 604.803 266.259 603.988C266.259 603.652 266.21 603.316 266.066 603.028C265.873 602.596 265.585 602.261 265.2 601.973L284.503 568.677C284.84 568.821 285.177 568.917 285.514 568.917C286.814 568.917 287.873 567.91 288.018 566.662H326.577C326.722 567.91 327.781 568.917 329.08 568.917C329.177 568.917 329.273 568.917 329.321 568.917C329.61 568.869 329.851 568.821 330.091 568.725L349.395 602.021C348.769 602.453 348.336 603.22 348.336 604.036C348.336 604.659 348.529 605.187 348.914 605.619C349.058 605.763 349.203 605.907 349.395 606.051L330.091 639.346C329.754 639.202 329.417 639.106 329.08 639.106C327.781 639.106 326.722 640.114 326.577 641.361H288.018C287.873 640.114 286.814 639.106 285.514 639.106C285.129 639.106 284.792 639.202 284.503 639.346L265.2 606.003ZM330.525 643.568C331.15 643.136 331.584 642.369 331.584 641.553C331.584 640.737 331.15 639.97 330.525 639.538L349.828 606.243C350.165 606.387 350.502 606.483 350.839 606.483C352.139 606.483 353.198 605.475 353.343 604.228H391.902C391.999 605.427 392.961 606.339 394.165 606.483C394.261 606.483 394.357 606.483 394.405 606.483C394.502 606.483 394.598 606.483 394.646 606.483C394.935 606.435 395.176 606.387 395.416 606.291L414.72 639.586C414.094 640.018 413.661 640.785 413.661 641.601C413.661 642.369 413.998 643.088 414.576 643.52C414.624 643.568 414.672 643.568 414.72 643.616L395.416 676.911C395.079 676.767 394.742 676.671 394.405 676.671C393.106 676.671 392.047 677.679 391.902 678.926H353.343C353.198 677.679 352.139 676.671 350.839 676.671C350.454 676.671 350.117 676.767 349.828 676.911L330.525 643.568ZM330.525 718.794C331.15 718.362 331.584 717.595 331.584 716.779C331.584 715.964 331.15 715.196 330.525 714.764L349.828 681.469C350.165 681.613 350.502 681.709 350.839 681.709C352.139 681.709 353.198 680.701 353.343 679.454H391.902C391.95 679.886 392.095 680.318 392.335 680.653C392.769 681.277 393.539 681.709 394.405 681.709C394.791 681.709 395.128 681.613 395.416 681.469L414.72 714.764C414.094 715.196 413.661 715.964 413.661 716.779C413.661 717.403 413.854 717.931 414.239 718.362C414.383 718.506 414.528 718.65 414.72 718.794L395.416 752.09C395.079 751.946 394.742 751.85 394.405 751.85C393.106 751.85 392.047 752.857 391.902 754.105H353.343C353.198 752.857 352.139 751.85 350.839 751.85C350.454 751.85 350.117 751.946 349.828 752.09L330.525 718.794ZM395.898 756.407C396.524 755.976 396.957 755.208 396.957 754.392C396.957 753.577 396.524 752.809 395.898 752.377L415.202 719.082C415.539 719.226 415.876 719.322 416.213 719.322C417.512 719.322 418.571 718.315 418.716 717.067H457.275C457.42 718.315 458.479 719.322 459.779 719.322C460.164 719.322 460.501 719.226 460.79 719.082L480.093 752.377C479.468 752.809 479.034 753.577 479.034 754.392C479.034 755.208 479.468 755.976 480.093 756.407L460.79 789.703C460.453 789.559 460.116 789.463 459.779 789.463C458.479 789.463 457.42 790.47 457.275 791.718H418.716C418.571 790.47 417.512 789.463 416.213 789.463C415.827 789.463 415.49 789.559 415.202 789.703L395.898 756.407Z" fill="#C6F6FE" fill-opacity="0.4"/>
</svg>
