<svg width="136" height="147" viewBox="0 0 136 147" fill="none" xmlns="http://www.w3.org/2000/svg">
<g filter="url(#filter0_d_565_5471)">
<path d="M65.1976 19.206C67.0441 18.1491 69.3122 18.1491 71.1587 19.206L108.837 40.7717C110.704 41.8406 111.856 43.8275 111.856 45.9791V89.0209C111.856 91.1725 110.704 93.1594 108.837 94.2283L71.1587 115.794C69.3122 116.851 67.0441 116.851 65.1976 115.794L27.5195 94.2283C25.6521 93.1594 24.5 91.1725 24.5 89.0209V45.9791C24.5 43.8275 25.6521 41.8406 27.5195 40.7717L65.1976 19.206Z" fill="black"/>
<path d="M67.1847 22.6775C67.8001 22.3252 68.5562 22.3252 69.1717 22.6775L106.85 44.2433C107.472 44.5996 107.856 45.2619 107.856 45.9791V89.0209C107.856 89.7381 107.472 90.4004 106.85 90.7567L69.1717 112.322C68.5562 112.675 67.8001 112.675 67.1847 112.322L29.5065 90.7567C28.884 90.4004 28.5 89.7381 28.5 89.0209V45.9791C28.5 45.2619 28.884 44.5996 29.5065 44.2433L67.1847 22.6775Z" stroke="#D61F26" stroke-width="8"/>
</g>
<g clip-path="url(#clip0_565_5471)">
<path d="M60.8168 53.2574C58.8031 53.0364 56.731 55.2753 55.6261 56.7303C54.884 57.7101 53.0454 60.2617 54.0251 61.4707C54.0793 61.5374 54.1794 61.5499 54.2586 61.5333C54.9424 61.3665 55.08 60.8203 55.4218 60.2325C55.9471 59.3236 56.535 58.4897 57.2396 57.7101C57.8858 56.9972 58.5863 56.3551 59.3826 55.8089C60.1289 55.2961 60.8293 54.9334 61.3379 54.1579C61.6131 53.741 61.2379 53.3032 60.821 53.2574H60.8168Z" fill="white" fill-opacity="0.4"/>
<path d="M78.5524 57.3695C78.4565 57.2403 78.2439 57.3111 78.2814 57.4821C78.5232 58.5744 78.7942 59.6709 79.0444 60.7716C78.4607 59.475 77.7311 58.245 76.9306 57.1235C76.7972 56.9359 76.4762 57.0401 76.5429 57.2861C77.6269 61.3594 78.7359 66.0915 76.3136 69.948C75.2838 71.5865 73.7078 72.8039 72.5571 74.3507C72.1694 74.8719 71.7608 75.4764 71.4523 76.1143C69.2092 76.402 66.3992 76.552 64.5647 77.8403C64.127 78.1489 64.2771 78.8284 64.8399 78.8534C66.9829 78.9452 69.0883 79.0411 71.2271 79.0286C71.3147 79.2037 71.4189 79.3704 71.5565 79.5372C71.6274 79.6206 71.7233 79.6873 71.8275 79.7457C71.5106 79.7873 71.1896 79.8416 70.8811 79.8707C69.7554 79.975 68.638 80.1209 67.5165 80.271C66.9037 80.3544 66.8995 81.1465 67.5165 81.2299C68.638 81.38 69.7554 81.5217 70.8811 81.6301C71.3856 81.676 71.915 81.7927 72.4195 81.8052C72.382 81.8761 72.3403 81.947 72.3069 82.0179C71.248 81.9428 69.9305 82.3014 68.9966 82.4473C67.4498 82.6891 65.753 83.031 64.423 83.8982C64.0936 84.1108 64.2562 84.5402 64.6106 84.5861C65.9656 84.757 67.3664 84.5736 68.7256 84.5569C69.6762 84.5444 70.6309 84.6361 71.5815 84.6695C70.3099 85.1406 69.1425 85.9161 67.9084 86.4414C67.6583 86.5498 67.5749 86.9459 67.7208 87.1585C68.1878 87.8506 68.8715 87.7881 69.6303 87.688C70.7852 87.5337 72.0776 87.3962 73.1658 86.9709C74.3207 86.5165 74.3165 85.1198 73.5494 84.5778C73.5952 84.5486 73.6369 84.5152 73.6786 84.4777C74.5 83.7064 74.8085 82.4932 75.5506 81.6135C76.3261 80.6921 77.2266 79.8832 78.0354 78.991C79.7406 77.1149 80.9914 74.8635 81.6793 72.4245C83.1469 67.213 81.7711 61.6388 78.5524 57.3695ZM79.0569 72.9498C78.1063 75.3221 76.4887 77.0815 74.7501 78.9035C74.4291 79.2412 74.0622 79.6206 73.6995 80.0292C73.4993 79.8874 73.2867 79.7999 73.0616 79.754C73.0699 79.7498 73.0824 79.7457 73.0908 79.7373C74.0747 79.0035 74.0163 78.2197 74.525 77.1858C75.0378 76.1435 75.8633 75.2971 76.6388 74.4508C78.0104 72.9498 79.2987 71.4197 79.9199 69.4477C79.9241 69.4352 79.9283 69.4185 79.9324 69.406C79.8032 70.5901 79.5322 71.7741 79.0569 72.9498Z" fill="white" fill-opacity="0.4"/>
<path d="M86.5612 61.2946C85.94 61.6115 85.569 62.1994 85.2354 62.7914C85.2021 62.7497 85.1687 62.708 85.1312 62.6663C84.8852 62.3786 84.3057 62.4412 84.1473 62.7914C83.8971 63.3376 83.8054 63.867 84.0097 64.4549C84.2515 65.1553 84.9561 65.689 85.7065 65.7015C86.532 65.7098 86.999 65.1845 87.4576 64.5925C87.9829 63.9087 88.4415 63.3 88.4999 62.4078C88.5708 61.3739 87.3701 60.8861 86.5654 61.2988L86.5612 61.2946Z" fill="white" fill-opacity="0.4"/>
<path d="M74.1701 49.9969C73.7699 50.0594 73.3529 50.3763 73.0569 50.6431C73.0277 50.6681 73.0111 50.6889 72.9986 50.7015L72.861 50.6097C72.861 50.6097 72.8276 50.5972 72.7859 50.5764C72.5691 50.4721 72.3857 50.3554 72.1272 50.443C70.6846 50.9266 71.3684 52.7819 72.4024 53.2989C73.774 53.9785 75.9545 53.0112 75.8836 51.3143C75.842 50.3596 75.054 49.8676 74.1659 50.0052L74.1701 49.9969Z" fill="white" fill-opacity="0.4"/>
<path d="M72.8609 50.605C72.7317 50.5174 72.9193 50.6258 72.8609 50.605V50.605Z" fill="white" fill-opacity="0.4"/>
<path d="M81.8999 53.1074C81.1453 53.1449 80.6867 53.5494 80.1947 54.0663C80.1863 54.0747 80.1363 54.1205 80.0905 54.1622C80.0029 54.1456 79.9529 54.1414 80.0738 54.1789C79.7152 54.108 79.4025 54.2915 79.1982 54.575C78.4561 55.5881 79.6569 56.7513 80.6658 56.7513C81.7706 56.7513 82.8713 55.8883 83.2382 54.871C83.5384 54.0413 82.7546 53.0699 81.8957 53.1116L81.8999 53.1074Z" fill="white" fill-opacity="0.4"/>
<path d="M61.3375 60.9446C60.5036 61.2448 60.1909 61.9327 59.5155 62.4205C59.1278 62.6998 58.665 62.6415 58.2231 62.7207C57.9604 62.7665 57.6852 63.1043 57.7186 63.3794C57.8645 64.5676 59.207 65.0388 60.2701 64.8303C61.5626 64.576 62.7967 63.4753 62.8884 62.1245C62.9384 61.3657 62.0587 60.6819 61.3333 60.9404L61.3375 60.9446Z" fill="white" fill-opacity="0.4"/>
<path d="M69.1173 69.1263C69.1548 69.118 69.1882 69.1138 69.2299 69.1055C69.0714 69.1263 69.0714 69.1305 69.1173 69.1263Z" fill="white" fill-opacity="0.4"/>
<path d="M71.106 68.3418C70.9059 68.396 70.7141 68.4794 70.539 68.5878C70.4723 68.6295 69.9136 69.0048 70.2305 68.8005C70.1429 68.8547 70.0596 68.913 69.972 68.9672C69.9553 68.9756 69.947 68.9797 69.9386 68.9839C69.9095 68.9922 69.8803 69.0048 69.8511 69.0131C69.776 69.0339 69.6968 69.0631 69.6176 69.0798C69.5384 69.084 69.2549 69.1132 69.2215 69.1173C69.1799 69.1215 69.1423 69.1257 69.1131 69.1298C68.9631 69.159 68.838 69.209 68.7129 69.3216C67.7873 70.1596 69.0298 71.2936 69.8511 71.5188C71.0477 71.8482 72.4777 71.3687 72.8696 70.1096C73.199 69.0464 72.1317 68.0667 71.1019 68.3418H71.106Z" fill="white" fill-opacity="0.4"/>
<path d="M69.2554 69.113C69.2262 69.113 69.222 69.113 69.2304 69.113C69.3179 69.1046 69.393 69.0921 69.2554 69.113Z" fill="white" fill-opacity="0.4"/>
<path d="M73.0902 62.0802C71.8228 61.1046 69.4546 61.9885 68.0079 62.2595C66.7488 62.493 65.5523 62.6097 64.7851 63.7104C64.5266 64.0815 65.0103 64.4067 65.3396 64.2649C66.4361 63.7938 68.2873 64.1857 69.4421 64.1648C70.7596 64.1398 72.3106 64.4525 73.257 63.3852C73.6447 62.9474 73.528 62.4179 73.0902 62.0802Z" fill="white" fill-opacity="0.4"/>
<path d="M67.9415 87.8081C62.8759 87.8081 62.7425 85.1189 62.6216 82.7466C62.5757 81.8669 62.5298 80.9622 62.263 80.1576C61.6585 78.3523 60.2618 76.8931 58.7775 75.3546C57.0473 73.5577 55.2587 71.6941 54.6208 69.1133C54.3999 68.2169 54.2706 67.2747 54.2373 66.32C54.1247 62.8762 55.2379 59.3907 57.2933 56.7516C59.4821 53.9416 62.5715 52.2614 65.9903 52.0237C66.1279 52.0154 66.2696 52.0071 66.4114 51.9987C70.1053 51.8194 73.9701 53.3287 76.7385 56.0345C79.4735 58.707 80.9244 62.2883 80.8285 66.1198C80.7868 67.825 80.4282 69.4552 79.7653 70.9645C78.7689 73.2283 77.5932 75.1712 75.9422 77.2683C73.941 79.8157 73.745 81.9503 73.5907 83.6639C73.3489 86.3155 72.9695 87.8164 67.9415 87.8164V87.8081ZM67.0034 52.8659C66.8199 52.8659 66.6365 52.8701 66.4489 52.8784C66.3113 52.8826 66.1779 52.8909 66.0486 52.8993C60.4744 53.287 54.8627 58.4026 55.1211 66.2824C55.1503 67.1788 55.2712 68.0585 55.4797 68.8924C56.0592 71.2438 57.7686 73.0157 59.4154 74.7334C60.8997 76.276 62.4339 77.8728 63.101 79.8699C63.4095 80.7871 63.4554 81.7585 63.5054 82.6966C63.6305 85.1481 63.7181 86.92 67.9415 86.92C72.4067 86.92 72.5026 85.8694 72.711 83.5721C72.8695 81.8378 73.0821 79.4655 75.2459 76.7096C76.8469 74.6751 77.9893 72.7864 78.9523 70.5976C79.5694 69.1925 79.9029 67.675 79.9404 66.0865C80.028 62.5051 78.673 59.1531 76.1173 56.6557C73.6574 54.2543 70.2887 52.8576 66.9992 52.8576L67.0034 52.8659Z" fill="white"/>
<path d="M62.6216 80.2799C62.3798 80.2799 62.1797 80.084 62.1797 79.838C62.1797 79.592 62.3756 79.396 62.6216 79.3919C66.6991 79.3752 70.7266 79.2168 74.1286 79.0625C74.137 79.0625 74.1411 79.0625 74.1495 79.0625C74.383 79.0625 74.5789 79.2459 74.5914 79.4836C74.6039 79.7296 74.4121 79.9339 74.1703 79.9464C70.7599 80.1006 66.72 80.2591 62.6258 80.2757L62.6216 80.2799Z" fill="white"/>
<path d="M68.5295 82.3426C67.1495 82.3426 65.8029 82.2926 64.5229 82.1925C64.2811 82.1758 64.0977 81.9632 64.1143 81.7172C64.131 81.4712 64.3478 81.2878 64.5896 81.3086C65.8487 81.4045 67.1704 81.4546 68.5295 81.4546C70.093 81.4546 71.7106 81.392 73.4825 81.2628C73.7244 81.2461 73.937 81.4295 73.9578 81.6714C73.9745 81.9132 73.7911 82.1258 73.5493 82.1466C71.7565 82.2759 70.118 82.3384 68.5337 82.3384L68.5295 82.3426Z" fill="white"/>
<path d="M65.0646 85.0318C64.8353 85.0318 64.6436 84.8567 64.6227 84.6232C64.6019 84.3814 64.7853 84.1646 65.0271 84.1479C66.6906 84.0145 68.3792 83.9395 70.0135 83.8644C70.9516 83.8227 71.8896 83.781 72.8277 83.7268C73.0695 83.7185 73.2822 83.9019 73.2947 84.1438C73.3072 84.3897 73.1196 84.5982 72.8777 84.6107C71.9355 84.6649 70.9933 84.7066 70.0552 84.7483C68.4292 84.8233 66.749 84.8984 65.098 85.0276C65.0855 85.0276 65.073 85.0276 65.0605 85.0276L65.0646 85.0318Z" fill="white"/>
<path d="M52.8824 62.156C49.3595 62.156 47.5 60.4508 47.5 57.2196C47.5 55.8605 48.5506 54.7431 50.0265 54.3971C50.4726 51.7371 52.9992 49.9902 53.8872 49.9902C53.979 49.9902 54.0748 49.9986 54.1624 50.0027C54.2291 50.0069 54.2916 50.0111 54.3542 50.0111H54.4167C54.4793 50.0069 54.5585 50.0027 54.6335 50.0027C55.6383 50.0027 56.6973 50.5364 57.3185 51.4703C57.4311 51.4578 57.5436 51.4536 57.6645 51.4536C60.3578 51.4536 60.7748 52.8295 60.9749 53.4882C60.9957 53.5632 61.0291 53.6633 61.0458 53.705C61.2 53.8801 61.1917 54.1428 61.0249 54.3095C60.8581 54.4763 60.5705 54.4805 60.3995 54.3095C60.2494 54.1594 60.1911 53.9593 60.1244 53.7467C59.9451 53.1588 59.7033 52.3542 57.7187 52.3375C57.8105 52.646 57.8605 52.9754 57.8605 53.3339C57.8605 54.4721 57.0933 54.9849 56.5514 54.9849C56.0094 54.9849 55.2589 54.2345 55.2589 53.4382C55.2589 52.7836 55.6466 52.104 56.3846 51.7371C55.9718 51.2368 55.3631 50.8908 54.6293 50.8908C54.5668 50.8908 54.5043 50.8908 54.4542 50.895C54.4084 50.895 54.3709 50.895 54.3458 50.895C54.2666 50.895 54.1791 50.8908 54.0915 50.8824C54.0206 50.8783 53.9498 50.8699 53.8789 50.8699C53.4578 50.8824 51.4191 52.1332 50.9354 54.2804C52.2821 54.2512 53.3327 55.3018 53.3327 56.7068C53.3327 57.4698 53.0325 58.2411 52.3696 58.2411C52.3363 58.2411 52.3071 58.2411 52.2821 58.2369C52.1987 58.287 52.0695 58.3662 51.8902 58.3662C51.3107 58.3662 50.0099 57.2238 49.9515 55.3352C49.0259 55.652 48.3755 56.3733 48.3755 57.2155C48.3755 59.9797 49.8056 61.2679 52.8741 61.2679C53.537 61.2679 54.2666 61.1929 55.0963 61.0428C55.3381 60.9969 55.5674 61.1595 55.6091 61.3972C55.6508 61.639 55.4924 61.8683 55.2547 61.91C54.3709 62.0726 53.5912 62.1476 52.8741 62.1476L52.8824 62.156ZM50.8437 55.1726C50.8437 55.1726 50.8437 55.1976 50.8437 55.2101C50.8437 56.515 51.5817 57.2822 51.8818 57.4573C51.9652 57.4114 52.0945 57.3489 52.2612 57.3489C52.2863 57.3489 52.3071 57.3489 52.3279 57.3489C52.3905 57.2488 52.4572 56.9903 52.4572 56.7068C52.4572 55.9397 51.9569 55.1642 51.0063 55.1642C50.9521 55.1642 50.8979 55.1642 50.8437 55.1642V55.1726ZM56.8349 52.5043C56.3888 52.7127 56.1511 53.0796 56.1511 53.434C56.1511 53.7592 56.4596 54.0427 56.5805 54.0927C56.7056 54.0719 56.9808 53.8801 56.9808 53.3298C56.9808 53.0546 56.9266 52.7711 56.8307 52.5001L56.8349 52.5043Z" fill="white"/>
<path d="M60.3245 64.1363C60.1786 64.1363 60.041 64.0612 59.9576 63.9403C59.7992 63.7027 59.6408 63.4609 59.4823 63.2191C58.8945 62.3268 58.2858 61.4054 57.5895 60.5341C57.4728 60.3882 57.4603 60.188 57.5562 60.0296C57.6521 59.8712 57.8355 59.7878 58.019 59.8253C59.2655 60.063 60.583 60.088 61.863 60.113H62.1173C62.2757 60.1213 62.4216 60.2089 62.4967 60.3465C62.5717 60.4841 62.5717 60.655 62.4883 60.7884C61.8463 61.8516 61.2334 62.9606 60.7206 63.9111C60.6456 64.0487 60.508 64.1363 60.3537 64.1405C60.3454 64.1405 60.3412 64.1405 60.3329 64.1405L60.3245 64.1363ZM58.9404 60.8551C59.3948 61.4805 59.8117 62.1142 60.2203 62.7354L60.2912 62.8397C60.6164 62.2476 60.9708 61.6181 61.3376 60.9844C60.5455 60.9677 59.7408 60.9385 58.9404 60.8551Z" fill="white"/>
<path d="M70.7142 70.4513C70.5683 70.4513 70.4307 70.3763 70.3473 70.2554C70.1889 70.0135 70.0263 69.7717 69.8678 69.5299C69.28 68.6377 68.6713 67.7163 67.9792 66.8491C67.8624 66.7032 67.8499 66.5031 67.9458 66.3446C68.0417 66.1862 68.2252 66.1028 68.4086 66.1362C69.6552 66.3738 70.9727 66.3988 72.2484 66.4197H72.5069C72.6654 66.428 72.8071 66.5156 72.8863 66.6532C72.9614 66.7907 72.9614 66.9617 72.878 67.0951C72.2318 68.1666 71.6189 69.2756 71.1061 70.2178C71.031 70.3554 70.8935 70.443 70.7392 70.4471C70.7309 70.4471 70.7267 70.4471 70.7183 70.4471L70.7142 70.4513ZM69.33 67.1701C69.7803 67.7955 70.1972 68.4292 70.6058 69.0463C70.6308 69.0838 70.6516 69.1172 70.6767 69.1547C71.0019 68.5668 71.3562 67.9331 71.7231 67.2994C70.931 67.2827 70.1263 67.2535 69.3258 67.166L69.33 67.1701Z" fill="white"/>
<path d="M73.8704 52.3199C73.7245 52.3199 73.5869 52.2448 73.5035 52.1239C73.3451 51.8863 73.1867 51.6486 73.0282 51.4068C72.4404 50.5146 71.8317 49.589 71.1354 48.7177C71.0187 48.5718 71.0062 48.3716 71.1021 48.2132C71.198 48.0548 71.3772 47.9714 71.5649 48.0089C72.8114 48.2466 74.1331 48.2716 75.4089 48.2966H75.6632C75.8216 48.3049 75.9675 48.3925 76.0426 48.5301C76.1176 48.6676 76.1176 48.8386 76.0342 48.972C75.3922 50.0393 74.7793 51.1483 74.2623 52.0947C74.1873 52.2323 74.0497 52.3199 73.8954 52.324C73.8871 52.324 73.8829 52.324 73.8746 52.324L73.8704 52.3199ZM72.4862 49.0387C72.9407 49.6641 73.3576 50.302 73.7662 50.9232C73.787 50.9565 73.8121 50.9899 73.8329 51.0274C74.1581 50.4354 74.5125 49.8058 74.8794 49.1721C74.0872 49.1554 73.2826 49.1263 72.4821 49.0429L72.4862 49.0387Z" fill="white"/>
<path d="M85.9399 63.9442C85.7981 63.9442 85.6647 63.8775 85.5813 63.7608C85.402 63.5106 85.2269 63.2604 85.0476 63.0145C84.4598 62.189 83.8553 61.3343 83.209 60.5296C83.1048 60.4004 83.0839 60.2211 83.1507 60.071C83.2215 59.9209 83.3675 59.8208 83.5342 59.8125C84.8308 59.7583 86.1483 59.6207 87.4199 59.4873L87.5158 59.479C87.6742 59.4623 87.8285 59.5332 87.9202 59.6582C88.012 59.7875 88.0286 59.9543 87.9661 60.1002C87.7868 60.4963 87.6034 60.8882 87.4158 61.2842C87.0489 62.0639 86.6695 62.8727 86.3443 63.6732C86.2817 63.8233 86.1483 63.9275 85.9857 63.9442C85.969 63.9442 85.9524 63.9442 85.9315 63.9442H85.9399ZM84.4223 60.6464C84.8892 61.2634 85.3353 61.8888 85.7689 62.5017C85.7939 62.535 85.8148 62.5684 85.8398 62.6017C86.0899 62.0264 86.3568 61.4593 86.6194 60.9048C86.6945 60.7464 86.7654 60.5922 86.8404 60.4337C86.0441 60.5171 85.2353 60.5922 84.4223 60.6464Z" fill="white"/>
<path d="M81.2836 54.9841C81.1668 54.9841 81.0543 54.9382 80.9709 54.8549C80.4581 54.3379 79.9911 53.7917 79.5367 53.2664L79.2615 52.9495C79.1573 52.8328 79.1281 52.666 79.1781 52.5201C79.2282 52.37 79.3532 52.2616 79.5075 52.2283L79.6909 52.1907C80.579 52.0073 81.4962 51.8155 82.3717 51.5779C82.5427 51.532 82.7261 51.5904 82.8345 51.7321C82.9429 51.8697 82.9596 52.0615 82.8762 52.2158C82.4843 52.9329 82.1132 53.7292 81.6963 54.7173C81.638 54.8549 81.5171 54.9549 81.3711 54.9799C81.3419 54.9841 81.3128 54.9883 81.2877 54.9883L81.2836 54.9841ZM80.4206 52.937C80.654 53.208 80.8958 53.4832 81.1418 53.75C81.3128 53.3623 81.4754 53.0037 81.6421 52.666C81.2335 52.7619 80.825 52.8495 80.4206 52.9329V52.937Z" fill="white"/>
<path d="M49.8887 69.2602C49.7428 69.2602 49.5969 69.1852 49.5135 69.0517C49.3842 68.8433 49.4468 68.5723 49.6552 68.443C51.3813 67.3632 53.0323 66.1166 54.6291 64.9117C56.0383 63.8444 57.5017 62.7437 59.0318 61.739C59.2361 61.6055 59.5112 61.6597 59.6447 61.864C59.7781 62.0683 59.7239 62.3435 59.5196 62.4769C58.0145 63.465 56.5678 64.5573 55.1669 65.6163C53.5534 66.8337 51.8858 68.0928 50.1264 69.1935C50.0555 69.2394 49.9721 69.2602 49.8929 69.2602H49.8887Z" fill="white"/>
<path d="M62.1212 70.7687H62.092C61.1915 70.7521 60.4827 70.0391 60.4785 69.1428C60.4785 68.5549 60.7829 68.0337 61.304 67.7419C61.6501 67.5501 62.0253 67.4667 62.3922 67.4959C63.1551 67.5626 63.7305 68.1338 63.7972 68.8926C63.8389 69.3679 63.6555 69.8682 63.3136 70.2393C62.9925 70.5853 62.5673 70.7729 62.1212 70.7729V70.7687ZM62.2421 68.3756C62.0712 68.3756 61.9044 68.4215 61.7376 68.5174C61.5 68.6508 61.3666 68.8759 61.3666 69.1386C61.3666 69.5513 61.6959 69.8765 62.1087 69.8849C62.3922 69.8849 62.5798 69.7264 62.6674 69.6306C62.8425 69.4471 62.9342 69.1886 62.9175 68.9677C62.8883 68.6383 62.6548 68.409 62.3213 68.3798C62.2963 68.3798 62.2713 68.3798 62.2421 68.3798V68.3756Z" fill="white"/>
<path d="M63.4926 75.4716C62.7922 75.4716 62.0084 74.9922 61.9417 74.1041C61.925 73.904 61.9417 73.6122 62.1001 73.3495C62.121 73.3162 62.1376 73.2578 62.1585 73.1994C62.2085 73.0493 62.2752 72.845 62.4587 72.6783C62.7005 72.4573 63.009 72.3281 63.3509 72.3072C63.7761 72.2822 64.2431 72.4448 64.5641 72.7325C64.856 72.9951 65.0227 73.3412 65.0436 73.7372C65.0686 74.2125 64.906 74.6753 64.5975 75.0005C64.314 75.3007 63.922 75.4675 63.4968 75.4675L63.4926 75.4716ZM62.8547 73.8081C62.8339 73.8456 62.813 73.9249 62.8214 74.0416C62.8506 74.4418 63.2383 74.5878 63.4884 74.5878C63.6719 74.5878 63.8303 74.5211 63.9471 74.396C64.0888 74.2459 64.1639 74.0208 64.1555 73.7873C64.1472 73.6288 64.0846 73.4996 63.9721 73.3954C63.8011 73.2453 63.5593 73.1869 63.4009 73.1952C63.2633 73.2036 63.1507 73.2494 63.0549 73.337C63.0382 73.3537 63.0132 73.4329 62.9923 73.4871C62.9631 73.5788 62.9214 73.6956 62.8547 73.8123V73.8081Z" fill="white"/>
<path d="M75.2417 70.9279C75.2417 70.9279 75.2 70.9279 75.1833 70.9279C74.2286 70.8987 73.6615 69.9398 73.6365 69.2936C73.6157 68.7307 74.0118 67.7718 74.6622 67.6134L74.7497 67.5925C75.0124 67.5258 75.3126 67.4508 75.6169 67.4925C76.3423 67.5842 76.9219 68.318 76.9344 69.1643C76.9427 69.673 76.7593 70.1358 76.4216 70.4651C76.113 70.7653 75.6961 70.9321 75.2417 70.9321V70.9279ZM74.8706 68.4722C74.7372 68.5223 74.5079 68.9892 74.5162 69.2561C74.5246 69.5187 74.8039 70.0315 75.2083 70.044C75.4501 70.0524 75.6503 69.9773 75.8003 69.8314C75.9629 69.673 76.0505 69.4395 76.0463 69.1727C76.0422 68.689 75.7295 68.3972 75.5043 68.368C75.3626 68.3513 75.1583 68.4014 74.9582 68.4514L74.8664 68.4722H74.8706Z" fill="white"/>
<path d="M73.0282 60.5204C73.0032 60.5204 72.974 60.5204 72.949 60.5204C72.0193 60.4703 71.4856 59.624 71.5064 58.8318C71.5273 57.9897 72.1068 57.3393 72.8823 57.2851C72.9281 57.2851 72.9782 57.2809 73.0324 57.2851C73.27 57.2892 73.8621 57.3434 74.2414 57.7353C74.4958 57.998 74.6459 58.3399 74.675 58.7151C74.7084 59.1987 74.5333 59.6782 74.1831 60.0326C73.8746 60.3494 73.4535 60.5287 73.0282 60.5287V60.5204ZM72.9949 58.1606C72.9949 58.1606 72.9657 58.1606 72.949 58.1606C72.5738 58.1856 72.3987 58.5358 72.3903 58.8485C72.382 59.1612 72.5654 59.6115 72.9949 59.6323C73.1991 59.6407 73.3993 59.5614 73.5535 59.403C73.7203 59.2321 73.8079 58.9944 73.7912 58.7693C73.7787 58.6025 73.7161 58.4524 73.6036 58.3399C73.5035 58.2356 73.2659 58.1648 73.0115 58.1564H72.9907L72.9949 58.1606Z" fill="white"/>
<path d="M65.7861 57.5447C65.39 57.5447 64.9606 57.3655 64.6437 57.0611C64.3185 56.7484 64.1434 56.3315 64.1559 55.8896C64.1767 55.1183 64.7896 54.5054 65.3483 54.4178C65.4358 54.4012 65.5151 54.4095 65.5818 54.4178C65.8486 54.4387 66.1905 54.4845 66.4823 54.6471C66.9159 54.889 67.1869 55.2809 67.2244 55.7228V55.7853C67.2411 55.8937 67.2536 56.0021 67.2411 56.1314C67.1994 56.7776 66.7033 57.4947 65.8694 57.5489C65.8403 57.5489 65.8152 57.5489 65.7861 57.5489V57.5447ZM65.4734 55.2934C65.3566 55.3142 65.0523 55.5727 65.0439 55.9146C65.0398 56.1105 65.1106 56.2815 65.2607 56.4232C65.44 56.5983 65.6693 56.6692 65.8111 56.6567C66.1946 56.6317 66.3447 56.2439 66.3572 56.0647C66.3572 56.0105 66.3572 55.9479 66.3447 55.8645L66.3364 55.7937C66.3197 55.6019 66.1696 55.481 66.0487 55.4143C65.9028 55.3351 65.6693 55.3059 65.5026 55.2934C65.49 55.2934 65.4775 55.2934 65.4692 55.2934H65.4734Z" fill="white"/>
<path d="M63.7395 64.3685C63.5936 64.3685 63.4518 64.2977 63.3643 64.1642C63.235 63.9599 63.2934 63.6848 63.5019 63.5514C64.1648 63.1303 64.861 62.6091 65.5156 62.0504C65.6907 61.9045 65.9492 61.9087 66.1118 62.0671C66.4787 62.4215 66.8748 62.755 67.2583 63.0719C67.6211 62.7509 67.9963 62.4424 68.359 62.1422L68.6759 61.8795C68.8426 61.7419 69.0886 61.7419 69.2512 61.8879C69.7182 62.3006 70.1142 62.6717 70.4561 63.0802C71.0273 62.7175 71.5735 62.3715 72.128 61.942C72.3198 61.792 72.5991 61.8253 72.7492 62.0213C72.8993 62.213 72.8659 62.4924 72.67 62.6425C72.0404 63.1303 71.4109 63.5263 70.8022 63.9099L70.5937 64.0433C70.3977 64.1684 70.1434 64.1184 70.0017 63.9349C69.7057 63.543 69.3596 63.1886 68.9427 62.8092L68.9218 62.8259C68.4716 63.2012 68.0046 63.5847 67.5669 63.985C67.4043 64.1351 67.1541 64.1392 66.9832 63.9975L66.7372 63.7932C66.4203 63.5305 66.0993 63.2637 65.7824 62.976C65.1862 63.4638 64.5692 63.9183 63.973 64.2935C63.898 64.3393 63.8187 64.3644 63.7354 64.3644L63.7395 64.3685Z" fill="white"/>
<path d="M52.9326 76.1932C52.7825 76.1932 52.6325 76.114 52.5491 75.9764C52.424 75.7638 52.4949 75.4928 52.7075 75.3719C54.5044 74.3171 55.8136 73.3332 57.2019 72.2908C58.436 71.3611 59.7159 70.4022 61.3795 69.3766C61.5879 69.2473 61.8589 69.314 61.9882 69.5225C62.1174 69.731 62.0507 70.002 61.8422 70.1312C60.2162 71.136 58.953 72.0824 57.7314 72.9996C56.3847 74.0086 54.9964 75.055 53.1536 76.1349C53.0827 76.1766 53.0077 76.1974 52.9285 76.1974L52.9326 76.1932Z" fill="white"/>
<path d="M63.927 73.7812C63.8103 73.7812 63.6977 73.727 63.5977 73.5936C63.3308 73.2267 63.531 73.0599 64.4857 72.2594C64.9485 71.8717 65.5864 71.3422 66.3827 70.696C67.7669 69.5703 69.2594 68.3737 69.5013 68.1945C69.8014 67.9693 70.0558 68.1319 70.1475 68.2528C70.3434 68.4988 70.2601 68.6823 70.0433 68.8907C70.0433 68.8991 70.0307 68.9032 70.0224 68.9074C69.9432 68.9825 69.8431 69.0617 69.7389 69.1492C69.7056 69.1784 69.668 69.1993 69.6305 69.2159C68.5757 70.0539 65.849 72.2511 64.7567 73.1892C64.7359 73.3018 64.6733 73.406 64.5733 73.4769C64.3523 73.6311 64.1271 73.7854 63.9229 73.7854L63.927 73.7812Z" fill="white"/>
<path d="M75.4549 69.4633C75.3215 69.4633 75.1923 69.4049 75.1047 69.2882C74.9546 69.0922 74.9921 68.817 75.1881 68.6669C76.4013 67.7372 77.5687 66.7241 78.7027 65.7443C80.4205 64.2559 82.1965 62.7175 84.1769 61.4167C84.3812 61.2833 84.6564 61.3375 84.7898 61.5418C84.9232 61.7461 84.869 62.0212 84.6647 62.1546C82.7344 63.4221 80.9791 64.9397 79.2823 66.4114C78.1399 67.3995 76.96 68.4251 75.7259 69.3674C75.6467 69.4299 75.5508 69.4591 75.4549 69.4591V69.4633Z" fill="white"/>
<path d="M73.9288 58.8693C73.7912 58.8693 73.6578 58.8068 73.5702 58.6859C73.4285 58.4899 73.4702 58.2106 73.6661 58.0688C74.0539 57.7853 74.4458 57.506 74.8377 57.2225C76.6888 55.8842 78.6067 54.5042 80.3619 52.9991C80.5495 52.8406 80.8288 52.8615 80.9873 53.0449C81.1457 53.2284 81.1249 53.5119 80.9414 53.6703C79.157 55.2004 77.2266 56.5929 75.3588 57.9396C74.9669 58.2231 74.575 58.5024 74.1873 58.7859C74.1081 58.8443 74.0164 58.8693 73.9288 58.8693Z" fill="white"/>
<path d="M66.2867 55.9139C66.22 55.9139 66.1574 55.9014 66.0949 55.8722C65.9406 55.7972 65.8447 55.6429 65.8447 55.472V55.3719C65.8447 55.1385 66.024 54.9467 66.2533 54.93C66.9287 54.3713 67.5958 53.7793 68.242 53.1998C69.5637 52.0199 70.9312 50.8025 72.4613 49.806C72.6656 49.6726 72.9407 49.731 73.0741 49.9353C73.2075 50.1396 73.1492 50.4147 72.9449 50.5482C71.469 51.5113 70.1265 52.7078 68.8299 53.8627C68.0961 54.5173 67.3373 55.1927 66.566 55.818C66.4868 55.8848 66.3867 55.9181 66.2867 55.9181V55.9139Z" fill="white"/>
</g>
<defs>
<filter id="filter0_d_565_5471" x="0.5" y="0.414062" width="135.356" height="146.172" filterUnits="userSpaceOnUse" color-interpolation-filters="sRGB">
<feFlood flood-opacity="0" result="BackgroundImageFix"/>
<feColorMatrix in="SourceAlpha" type="matrix" values="0 0 0 0 0 0 0 0 0 0 0 0 0 0 0 0 0 0 127 0" result="hardAlpha"/>
<feOffset dy="6"/>
<feGaussianBlur stdDeviation="12"/>
<feComposite in2="hardAlpha" operator="out"/>
<feColorMatrix type="matrix" values="0 0 0 0 1 0 0 0 0 0.425 0 0 0 0 0.425 0 0 0 0.45 0"/>
<feBlend mode="normal" in2="BackgroundImageFix" result="effect1_dropShadow_565_5471"/>
<feBlend mode="normal" in="SourceGraphic" in2="effect1_dropShadow_565_5471" result="shape"/>
</filter>
<clipPath id="clip0_565_5471">
<rect width="41" height="39.8076" fill="white" transform="translate(47.5 48)"/>
</clipPath>
</defs>
</svg>
