<svg width="136" height="147" viewBox="0 0 136 147" fill="none" xmlns="http://www.w3.org/2000/svg">
<g filter="url(#filter0_d_565_5370)">
<path d="M65.1976 19.206C67.0441 18.1491 69.3122 18.1491 71.1587 19.206L108.837 40.7717C110.704 41.8406 111.856 43.8275 111.856 45.9791V89.0209C111.856 91.1725 110.704 93.1594 108.837 94.2283L71.1587 115.794C69.3122 116.851 67.0441 116.851 65.1976 115.794L27.5195 94.2283C25.6521 93.1594 24.5 91.1725 24.5 89.0209V45.9791C24.5 43.8275 25.6521 41.8406 27.5195 40.7717L65.1976 19.206Z" fill="black"/>
<path d="M67.1847 22.6775C67.8001 22.3252 68.5562 22.3252 69.1717 22.6775L106.85 44.2433C107.472 44.5996 107.856 45.2619 107.856 45.9791V89.0209C107.856 89.7381 107.472 90.4004 106.85 90.7567L69.1717 112.322C68.5562 112.675 67.8001 112.675 67.1847 112.322L29.5065 90.7567C28.884 90.4004 28.5 89.7381 28.5 89.0209V45.9791C28.5 45.2619 28.884 44.5996 29.5065 44.2433L67.1847 22.6775Z" stroke="#D61F26" stroke-width="8"/>
</g>
<path d="M77.9036 60.0712C75.5721 58.7555 72.7939 62.0294 74.9479 63.9019C77.5303 66.1416 79.0051 68.6444 78.9072 72.1692C78.8154 75.4615 77.0652 78.3927 74.7215 80.614C72.1636 83.0434 68.7612 84.7874 65.3099 85.4912C61.2466 86.3173 57.3057 85.2403 53.6524 83.4289C53.1628 83.1842 52.3673 83.6064 52.6121 84.2244C54.4663 88.8813 59.6494 90.6009 64.3981 90.1786C69.471 89.7258 74.4033 87.48 78.1361 84.0347C81.5997 80.8404 83.9434 76.3243 83.8884 71.5512C83.8394 67.188 81.8261 62.2925 77.8913 60.0712H77.9036Z" fill="white" fill-opacity="0.4"/>
<path d="M72.4758 73.9678C72.4085 73.1662 71.821 72.3768 70.9276 72.4196C68.7613 72.5175 68.3085 74.3472 66.797 75.5344C64.9428 76.9908 63.1131 75.9322 61.467 74.7817C60.9285 74.4084 60.0167 74.898 60.0901 75.5711C60.4206 78.5084 63.364 80.3014 66.185 80.0566C68.8776 79.8241 72.7328 76.9541 72.4697 73.9678H72.4758Z" fill="white" fill-opacity="0.4"/>
<path d="M71.2513 78.9375C67.4818 80.9508 64.1957 81.7402 59.9488 80.8957C59.1288 80.7305 58.3455 81.7585 59.0737 82.4011C62.9473 85.8524 69.9112 85.6566 73.3503 81.6545C74.6109 80.1859 73.0443 77.9767 71.2513 78.9375Z" fill="white" fill-opacity="0.4"/>
<path d="M67.4885 71.7713C67.4395 71.4102 67.2926 71.0431 67.0479 70.7555C66.6073 69.6662 65.2304 69.0604 64.1289 69.7335C63.1192 70.3455 62.5685 71.5816 62.9234 72.7382C63.0764 73.2522 63.4435 73.7907 63.927 74.0477C64.0922 74.1334 64.2758 74.2068 64.4655 74.268C64.4961 74.2741 64.5205 74.2925 64.5511 74.2986C64.5695 74.2986 64.5879 74.2986 64.6123 74.3047C64.9489 74.3843 65.3038 74.3965 65.6159 74.268C66.032 74.1028 66.4298 73.962 66.7541 73.6255C66.8276 73.552 66.8888 73.4602 66.9561 73.3746C67.1947 73.1359 67.36 72.8544 67.4456 72.5301C67.5252 72.2731 67.5374 72.0222 67.4823 71.7652L67.4885 71.7713Z" fill="white" fill-opacity="0.4"/>
<path d="M82.6337 49.1356C81.4037 50.5982 80.6448 51.9873 78.8886 52.9174C77.1813 53.8292 76.141 54.3494 75.0517 56.0322C72.5795 59.8507 69.275 64.0242 68.2102 68.5036C68.1307 68.8462 68.5407 69.2685 68.8711 69.0115C72.7447 66.0436 74.6662 61.2888 77.6219 57.5315C78.7234 56.1301 80.8835 56.277 82.3766 55.1816C83.8025 54.1352 85.2466 52.6237 85.5465 50.8246C85.7974 49.3009 83.882 47.6486 82.6337 49.1295V49.1356Z" fill="white" fill-opacity="0.4"/>
<path d="M65.0714 83.3016C62.0545 83.3016 59.0682 82.0226 56.8775 79.789C54.7112 77.5799 53.5485 74.6304 53.6097 71.4789C53.7199 65.6593 58.4869 60.7515 64.2391 60.5374C64.4166 60.5313 64.594 60.5312 64.7715 60.5312C65.3712 60.5374 65.9342 60.5496 66.589 60.6659C73.0633 61.7918 76.2699 66.7118 76.5085 70.8057C76.7105 74.2326 75.56 77.5371 73.3693 79.8624C71.2764 82.0838 68.3269 83.3077 65.0714 83.3077V83.3016ZM64.6369 61.8224C64.5206 61.8224 64.4043 61.8224 64.2881 61.8286C59.209 62.0183 55.0049 66.3569 54.907 71.4972C54.8397 75.0893 56.443 77.4881 57.8015 78.8772C59.723 80.8354 62.44 82.0042 65.0714 82.0042C68.0087 82.0042 70.5482 80.9517 72.4269 78.969C74.379 76.9007 75.3948 73.9511 75.2173 70.8792C75.0644 68.2968 73.0266 63.1014 66.3687 61.9448C65.8118 61.8469 65.3223 61.8408 64.7532 61.8347C64.7164 61.8347 64.6736 61.8347 64.6369 61.8347V61.8224Z" fill="white"/>
<path d="M65.071 88.269C60.7385 88.269 56.4488 86.4271 53.2973 83.2144C50.1887 80.0445 48.5181 75.8038 48.6037 71.2754C48.7567 62.9225 55.6043 55.8729 63.8655 55.5669C64.1164 55.5547 64.3734 55.5547 64.6243 55.5547C65.4872 55.5669 66.301 55.5792 67.2373 55.7444C71.6922 56.5216 75.4128 58.5899 77.9952 61.723C80.0513 64.2198 81.3303 67.3468 81.5016 70.2963C81.7892 75.2286 80.1431 79.9772 76.9855 83.3184C73.9748 86.5066 69.7463 88.2629 65.0649 88.2629L65.071 88.269ZM64.4224 56.852C64.251 56.852 64.0858 56.852 63.9145 56.8642C56.3325 57.1519 50.0479 63.6262 49.901 71.2999C49.8215 75.4795 51.3575 79.3898 54.2213 82.3087C57.1281 85.2705 61.0812 86.9717 65.071 86.9717C69.4525 86.9717 73.2466 85.4051 76.0431 82.4372C78.956 79.353 80.4736 74.9593 80.2043 70.382C79.9779 66.5207 76.9366 58.7551 67.017 57.0295C66.1848 56.8826 65.4504 56.8765 64.606 56.8581C64.5448 56.8581 64.4836 56.8581 64.4224 56.8581V56.852Z" fill="white"/>
<path d="M65.0715 78.3385C63.3703 78.3385 61.6875 77.6164 60.4514 76.3558C59.2275 75.1136 58.5788 73.4491 58.6094 71.6745C58.6706 68.3884 61.3632 65.6224 64.6126 65.5C64.7105 65.5 64.8145 65.5 64.9124 65.5C65.249 65.5 65.5611 65.5122 65.9405 65.5734C69.5815 66.2099 71.3867 68.9881 71.5214 71.3012C71.6315 73.2288 70.989 75.083 69.7529 76.3925C68.5718 77.647 66.9073 78.3385 65.0715 78.3385ZM64.8267 66.7912C64.7717 66.7912 64.7166 66.7912 64.6615 66.7912C62.0914 66.8891 59.9557 69.086 59.9067 71.6928C59.87 73.5164 60.69 74.7403 61.3754 75.444C62.3545 76.4415 63.7314 77.0351 65.0715 77.0351C66.5647 77.0351 67.8558 76.5027 68.8044 75.4991C69.7957 74.4466 70.3158 72.9412 70.2241 71.3746C70.1506 70.0651 69.1103 67.4399 65.7141 66.8463C65.4387 66.7973 65.1878 66.7973 64.8941 66.7912C64.8696 66.7912 64.8512 66.7912 64.8267 66.7912Z" fill="white"/>
<path d="M65.4934 72.378C65.3772 72.378 65.2548 72.3474 65.1507 72.2801C64.8448 72.0904 64.753 71.6865 64.9488 71.3867L79.3845 48.4144C79.5742 48.1084 79.9781 48.0167 80.2779 48.2125C80.5839 48.4022 80.6757 48.8061 80.4798 49.1059L66.0442 72.0781C65.9218 72.274 65.7076 72.3841 65.4934 72.3841V72.378Z" fill="white"/>
<path d="M75.8351 55.4022C75.5598 55.4022 75.3089 55.2248 75.2171 54.9555C74.5133 52.8199 73.9809 51.1615 73.4914 49.5949C73.4302 49.4052 73.4669 49.1972 73.5771 49.0319C75.0029 46.9881 76.4777 44.987 77.7321 43.3042C77.879 43.1022 78.1299 43.0105 78.3747 43.0533C78.6195 43.1022 78.8153 43.2858 78.8826 43.5245C79.262 44.9381 79.6842 46.4373 80.2533 47.8876C81.4405 47.6734 82.6215 47.3858 83.772 47.1043C84.1636 47.0064 84.5614 46.9146 84.953 46.8167C85.21 46.7555 85.4732 46.8534 85.6262 47.0676C85.7792 47.2818 85.7914 47.5633 85.6506 47.7897C85.2896 48.3833 84.9163 48.9708 84.5492 49.5582C83.5639 51.1309 82.5481 52.7587 81.618 54.4109C81.5139 54.6006 81.3181 54.723 81.1039 54.7414C79.3721 54.8821 77.6281 55.1024 75.933 55.3961C75.8963 55.4022 75.8596 55.4084 75.8229 55.4084L75.8351 55.4022ZM74.8315 49.5154C75.2477 50.8555 75.7066 52.2752 76.2818 54.0193C77.726 53.7867 79.2008 53.597 80.6695 53.4746C81.5629 51.9019 82.5236 50.366 83.4599 48.8728C83.5456 48.7321 83.6374 48.5914 83.723 48.4567C82.4992 48.7566 81.2324 49.0503 79.9535 49.2584C79.6598 49.3073 79.366 49.1421 79.2497 48.8667C78.7357 47.6367 78.3318 46.3761 77.983 45.1522C76.9856 46.5046 75.8963 47.9978 74.8315 49.5215V49.5154Z" fill="white"/>
<defs>
<filter id="filter0_d_565_5370" x="0.5" y="0.414062" width="135.356" height="146.172" filterUnits="userSpaceOnUse" color-interpolation-filters="sRGB">
<feFlood flood-opacity="0" result="BackgroundImageFix"/>
<feColorMatrix in="SourceAlpha" type="matrix" values="0 0 0 0 0 0 0 0 0 0 0 0 0 0 0 0 0 0 127 0" result="hardAlpha"/>
<feOffset dy="6"/>
<feGaussianBlur stdDeviation="12"/>
<feComposite in2="hardAlpha" operator="out"/>
<feColorMatrix type="matrix" values="0 0 0 0 1 0 0 0 0 0.425 0 0 0 0 0.425 0 0 0 0.45 0"/>
<feBlend mode="normal" in2="BackgroundImageFix" result="effect1_dropShadow_565_5370"/>
<feBlend mode="normal" in="SourceGraphic" in2="effect1_dropShadow_565_5370" result="shape"/>
</filter>
</defs>
</svg>
