<svg width="36" height="40" viewBox="0 0 36 40" fill="none" xmlns="http://www.w3.org/2000/svg">
<g id="Icon2" clip-path="url(#clip0_515_10829)">
<path id="Vector" d="M26.748 15.123C26.7007 16.6564 26.2783 17.1522 24.7424 17.4385C24.7843 18.0476 24.6564 18.6139 24.1824 19.0574C23.717 19.4944 23.157 19.6088 22.5046 19.5179C22.4305 20.3439 22.0919 20.9872 21.246 21.2319C20.4453 21.4638 19.781 21.0887 19.0889 20.6805C18.6772 21.3569 18.0946 21.7736 17.2853 21.7437C16.4706 21.7138 15.9138 21.2703 15.5699 20.5544C14.2984 21.2169 13.2257 20.8696 12.5819 19.6408C11.7919 20.0565 11.0051 20.0757 10.3022 19.4784C9.64334 18.9185 9.50039 18.1876 9.77017 17.337C9.00168 17.3092 8.36431 17.0549 7.98167 16.3753C7.59904 15.6957 7.66353 15.0215 8.07196 14.3344C7.55819 13.8108 7.14439 13.1932 6.42534 12.8619C5.51389 12.442 4.62931 11.9612 3.74044 11.4953C3.55557 11.398 3.43519 11.428 3.24172 11.506C2.97731 11.6117 2.63337 11.6759 2.37112 11.5989C1.83478 11.4429 1.32317 11.1929 0.812629 10.9599C0.369803 10.758 0.17956 10.3701 0.108622 9.90955C-0.292285 7.3023 0.406347 4.94936 1.80791 2.76631C2.39584 1.85057 3.12134 1.04916 3.97152 0.359944C4.47776 -0.0503779 4.99905 -0.110217 5.57085 0.214622C6.12976 0.53198 6.71446 0.809803 7.25187 1.15815C7.47758 1.30454 7.67642 1.5674 7.76886 1.82065C7.85269 2.05145 7.95158 2.19464 8.15902 2.31966C9.75083 3.28028 11.4802 3.44911 13.2881 3.24609C14.7219 3.08581 16.1331 3.10611 17.4186 3.9118C17.5099 3.9695 17.7195 3.91607 17.8367 3.84875C18.775 3.3102 19.7542 2.90309 20.8419 2.77166C21.6308 2.67656 22.4004 2.75349 23.1452 3.00567C24.9294 3.6094 26.5277 3.15847 28.0367 2.18502C28.1195 2.1316 28.1378 1.98734 28.2012 1.89545C28.3774 1.64327 28.5129 1.32377 28.7536 1.16242C29.2964 0.798049 29.894 0.514884 30.4669 0.196456C31.0108 -0.104874 31.532 -0.0664061 31.9985 0.335368C34.7758 2.72571 36.1849 5.70802 35.9764 9.39237C35.9259 10.29 35.5884 10.9535 34.6479 11.2078C34.3782 11.2805 34.1224 11.4098 33.8687 11.5295C33.4162 11.7442 32.997 11.7517 32.595 11.4087C32.5316 11.3542 32.3704 11.3553 32.2844 11.3948C31.1612 11.9013 30.0413 12.4153 28.9256 12.9389C28.8353 12.9806 28.7375 13.0938 28.7203 13.1879C28.4785 14.4722 28.1173 14.8366 26.8147 15.0824C26.7899 15.0867 26.7695 15.108 26.7469 15.1209L26.748 15.123ZM20.2755 17.6501C20.5968 17.727 20.843 17.742 21.045 17.8435C21.5233 18.0839 21.9704 18.3842 22.4477 18.6268C23.1076 18.9623 23.8557 18.5733 23.9288 17.8649C23.9739 17.4246 23.7804 17.0902 23.3967 16.8669C22.8174 16.5303 22.2349 16.2001 21.6577 15.8624C21.4298 15.7289 21.3051 15.5066 21.4943 15.3036C21.6018 15.1882 21.8565 15.186 22.0468 15.1775C22.137 15.1732 22.2327 15.2737 22.3262 15.326C22.9894 15.7043 23.645 16.0954 24.3179 16.4565C24.7284 16.6777 25.153 16.6478 25.5281 16.3572C25.8925 16.0751 26.0472 15.6744 25.8935 15.2555C25.7914 14.9798 25.5668 14.6999 25.3207 14.5332C24.7682 14.1592 24.1685 13.8525 23.587 13.5202C23.3473 13.3834 23.1431 13.2146 23.3129 12.9175C23.4924 12.6044 23.7503 12.6867 24.0051 12.8374C24.2587 12.987 24.5156 13.1312 24.7714 13.2776C25.2712 13.5629 25.7624 13.8664 26.274 14.1303C26.9952 14.5022 27.839 14.0651 27.9013 13.2883C27.9454 12.7455 27.6358 12.3929 27.1844 12.1353C25.5088 11.1801 23.8267 10.2365 22.1639 9.26201C20.7559 8.43603 19.3404 8.36016 17.8646 9.06433C17.1402 9.40947 16.4104 9.75248 15.6548 10.0207C14.6273 10.3851 13.6718 10.1756 12.827 9.48748C11.8478 8.68927 11.9091 7.53524 12.9753 6.86847C14.1221 6.15147 15.2743 5.44302 16.4244 4.7303C16.5319 4.66298 16.6361 4.58925 16.8092 4.47278C16.4846 4.34883 16.232 4.18534 15.9676 4.16397C15.1034 4.09452 14.2264 3.97805 13.3708 4.05926C11.334 4.25053 9.40581 4.03682 7.63666 2.94155C7.57002 2.89988 7.49263 2.8753 7.42599 2.84432C4.88297 4.88738 3.77806 7.74574 3.72861 10.3615C3.72646 10.477 3.85759 10.6447 3.97045 10.7056C4.74969 11.1224 5.53001 11.5391 6.33075 11.9141C7.09387 12.2721 7.78391 12.7081 8.30412 13.3791C8.35678 13.4475 8.43955 13.4935 8.53198 13.5704C9.00705 12.7391 9.38431 11.8233 10.5118 11.7517C11.6382 11.6801 12.2767 12.2871 12.583 13.2926C14.0673 13.1013 14.5961 13.408 15.1754 14.7768C16.5523 14.53 17.1703 14.8804 17.7496 16.2386C19.2898 16.0954 19.9616 16.4971 20.2765 17.6512L20.2755 17.6501ZM28.5752 12.2123C29.6576 11.7143 30.8076 11.1726 31.9706 10.6618C32.2446 10.5411 32.307 10.3936 32.2898 10.1179C32.1296 7.45937 31.0946 5.2026 29.1717 3.3444C28.6053 2.7973 28.5999 2.78341 27.9217 3.17664C26.6631 3.90645 25.3282 4.26335 23.8718 3.99514C23.3322 3.89577 22.8099 3.70984 22.2714 3.60833C20.8129 3.33585 19.5091 3.78891 18.2892 4.52728C16.6512 5.51889 15.0271 6.53294 13.4009 7.54379C12.8162 7.90709 12.7829 8.38153 13.3085 8.83994C13.9523 9.40199 14.6982 9.53235 15.4882 9.2385C16.1396 8.99594 16.7748 8.70423 17.3982 8.39649C19.1781 7.51921 20.901 7.58226 22.6132 8.59417C24.1921 9.52701 25.8011 10.4107 27.3843 11.3361C27.7809 11.5679 28.1302 11.881 28.5752 12.2112V12.2123ZM0.794357 8.48304C0.807255 8.73522 0.830901 8.98846 0.831976 9.24064C0.834125 9.87536 1.04479 10.3455 1.73912 10.4951C1.94549 10.54 2.13466 10.6565 2.33242 10.7387C2.85908 10.9589 2.88703 10.9471 2.9053 10.3733C2.95797 8.72453 3.34813 7.16232 4.09943 5.69093C4.76904 4.37768 5.68371 3.25464 6.8026 2.29615C7.06593 2.07069 7.04766 1.92964 6.74563 1.7715C6.22327 1.49902 5.70843 1.21158 5.19789 0.919863C4.94531 0.775609 4.72712 0.777746 4.49926 0.970085C2.16583 2.94262 0.927635 5.44196 0.794357 8.48304ZM35.2326 8.46167C35.0736 5.42913 33.8397 2.94049 31.5213 0.976496C31.2945 0.784157 31.0774 0.769198 30.8237 0.91452C30.3949 1.16135 29.9585 1.39644 29.5243 1.63579C29.0929 1.87443 29.0557 2.15332 29.4125 2.47246C30.9463 3.85623 32.0823 5.50714 32.6208 7.49891C32.8831 8.46701 32.9637 9.48534 33.1045 10.4844C33.1647 10.9118 33.1916 10.9471 33.5968 10.7793C33.9181 10.6458 34.232 10.4908 34.5609 10.3786C34.9231 10.2547 35.1058 10.0292 35.1262 9.64776C35.1467 9.25026 35.1961 8.85276 35.2326 8.46167ZM11.5823 19.2155C11.8456 19.0563 12.2079 18.958 12.3551 18.7261C13.0247 17.6683 13.6567 16.5837 14.2554 15.4842C14.5176 15.0012 14.2661 14.4081 13.7889 14.1463C13.3149 13.8867 12.7098 13.97 12.425 14.4295C11.765 15.4938 11.1148 16.5687 10.5387 17.679C10.1904 18.3489 10.7676 19.1247 11.5812 19.2155H11.5823ZM15.7655 15.4019C15.499 15.5793 15.1432 15.6989 14.9841 15.9447C14.4263 16.8049 13.9158 17.6961 13.431 18.599C13.1688 19.0873 13.3966 19.6697 13.8738 19.9432C14.3489 20.2157 14.9734 20.1227 15.2679 19.6536C15.8203 18.7742 16.3631 17.8841 16.8317 16.9598C17.1843 16.2653 16.6082 15.4831 15.7666 15.403L15.7655 15.4019ZM19.5037 18.1342C19.4951 17.5539 19.1899 17.1532 18.7309 17.0111C18.2666 16.8679 17.7829 17.0304 17.5099 17.4685C17.137 18.0679 16.7823 18.6791 16.4384 19.2957C16.1213 19.862 16.2857 20.4935 16.8027 20.7938C17.3433 21.1079 17.9689 20.9359 18.3204 20.3557C18.6654 19.7861 19.0007 19.2091 19.3232 18.6268C19.4231 18.4451 19.4683 18.2335 19.5037 18.1342ZM10.629 12.4463C10.3602 12.6194 10.0045 12.7337 9.83896 12.9752C9.38969 13.6334 8.99523 14.3333 8.62979 15.0418C8.38688 15.5119 8.61259 16.0922 9.06187 16.3614C9.51974 16.635 10.1668 16.5452 10.4645 16.0911C10.9009 15.4233 11.3168 14.7351 11.6694 14.0213C12.0155 13.3193 11.4695 12.5403 10.63 12.4463H10.629ZM20.355 18.3554C20.0605 18.9163 19.7853 19.441 19.4747 20.034C19.8778 20.19 20.2475 20.3888 20.6409 20.4721C21.0934 20.5683 21.4588 20.3215 21.6061 19.9357C21.7609 19.5297 21.6244 19.1247 21.2224 18.865C20.9322 18.6781 20.6269 18.5135 20.355 18.3543V18.3554Z" fill="white"/>
<path id="Vector_2" d="M33.4903 24.742C33.4903 25.5146 33.4838 26.2882 33.4935 27.0608C33.4967 27.3792 33.3699 27.5512 33.0453 27.61C32.2542 27.7553 31.4632 27.906 30.6796 28.0866C30.5195 28.124 30.3292 28.2746 30.2615 28.4221C29.9283 29.1476 29.6392 29.8945 29.3168 30.6254C29.2232 30.8359 29.2533 30.9877 29.3802 31.1693C29.823 31.804 30.24 32.4569 30.6882 33.0884C30.9161 33.4101 30.8849 33.6516 30.6044 33.9262C29.522 34.9819 28.4472 36.0451 27.3853 37.1211C27.0908 37.4193 26.8404 37.4257 26.5082 37.1927C25.8838 36.7546 25.2367 36.3475 24.608 35.9158C24.4274 35.7919 24.2769 35.7523 24.0598 35.8474C23.3236 36.1701 22.5819 36.4779 21.8328 36.7685C21.5974 36.8593 21.5114 36.9972 21.4695 37.2301C21.3319 37.9899 21.161 38.7432 21.0245 39.5029C20.9611 39.8534 20.7902 40.0019 20.428 39.9998C18.8706 39.9902 17.3121 39.9912 15.7536 39.9998C15.414 40.0009 15.2377 39.8694 15.1754 39.5307C15.0313 38.7453 14.8766 37.961 14.6971 37.1831C14.6627 37.0335 14.5208 36.8551 14.3821 36.7931C13.6373 36.4597 12.8817 36.1477 12.1175 35.857C11.9767 35.8036 11.7488 35.8346 11.6188 35.9158C10.9492 36.3336 10.2914 36.7728 9.64111 37.2216C9.33049 37.4363 9.09403 37.4022 8.8307 37.1372C7.75588 36.0547 6.67461 34.9798 5.5826 33.9144C5.29562 33.6355 5.2881 33.394 5.51273 33.0777C5.95341 32.458 6.36184 31.8147 6.79929 31.1928C6.93579 30.9984 6.97234 30.8381 6.8713 30.6115C6.54671 29.8807 6.25758 29.1359 5.92654 28.4082C5.86312 28.2693 5.68685 28.1229 5.53745 28.0887C4.75391 27.9102 3.96284 27.7564 3.17178 27.6153C2.83213 27.5544 2.69026 27.3845 2.69241 27.0469C2.69886 25.4879 2.69778 23.9288 2.69241 22.3688C2.69241 22.0503 2.82676 21.8815 3.1492 21.8227C3.94027 21.6785 4.73134 21.5278 5.51488 21.3472C5.67503 21.3098 5.8513 21.1549 5.93299 21.0074C6.10603 20.6943 6.22749 20.3524 6.36076 20.018C6.48974 19.6942 6.70041 19.6002 7.0293 19.7369C8.10627 20.1825 9.18754 20.6174 10.2624 21.0651C10.6407 21.2222 10.6805 21.3804 10.5128 21.842C9.64004 24.2377 9.80878 26.5575 11.0878 28.7672C12.8097 31.741 16.2921 33.2872 19.6842 32.6193C23.028 31.9611 25.6484 29.2224 26.131 25.8715C26.3288 24.5005 26.1794 23.1627 25.6849 21.8655C25.4861 21.3462 25.5377 21.2297 26.0525 21.017C27.0553 20.6025 28.0571 20.1879 29.0609 19.7765C29.5242 19.5863 29.7306 19.6322 29.8509 20.1088C30.0906 21.0566 30.6388 21.53 31.6341 21.5556C32.0565 21.5663 32.4767 21.7063 32.897 21.7939C33.443 21.9061 33.4892 21.9638 33.4892 22.5045C33.4892 23.2503 33.4892 23.9972 33.4892 24.7431L33.4903 24.742ZM26.5373 21.6828C27.6648 25.7358 26.7866 29.1466 23.4719 31.7581C20.6591 33.9743 16.678 34.2382 13.6416 32.3597C9.5906 29.855 8.45989 26.1824 9.63896 21.6742C8.78126 21.3227 7.90528 20.9636 7.00136 20.5928C6.84766 20.9551 6.69288 21.2788 6.57143 21.6144C6.46825 21.8975 6.28875 22.0332 5.98995 22.0867C5.16234 22.2341 4.3401 22.4072 3.51679 22.5707V26.8641C4.353 27.0298 5.17739 27.2029 6.00607 27.3514C6.28875 27.4027 6.45642 27.5331 6.56283 27.7959C6.94332 28.7341 7.32918 29.6701 7.73653 30.5966C7.86659 30.8915 7.82789 31.1159 7.64947 31.3713C7.17655 32.0455 6.72298 32.7347 6.29413 33.3716C7.33992 34.4081 8.35455 35.4115 9.38101 36.4287C10.0474 35.9853 10.7536 35.5236 11.449 35.0471C11.6714 34.8943 11.8746 34.8718 12.1229 34.9766C13.073 35.3773 14.0253 35.7716 14.983 36.1541C15.2646 36.2663 15.3935 36.4447 15.4462 36.7407C15.5902 37.5507 15.7665 38.3553 15.9331 39.177H20.2646C20.428 38.3564 20.5989 37.5485 20.7451 36.7375C20.7977 36.4447 20.9321 36.2674 21.2148 36.1552C22.1359 35.7908 23.057 35.4221 23.9631 35.0225C24.3016 34.8729 24.5542 34.9018 24.8509 35.1112C25.5151 35.5792 26.2019 36.0173 26.7974 36.4127C27.8518 35.3708 28.8653 34.3685 29.8907 33.3545C29.4533 32.707 28.9965 32.0177 28.5235 31.3381C28.3623 31.1073 28.329 30.9 28.444 30.634C28.8514 29.6926 29.2426 28.7448 29.6295 27.7948C29.7359 27.5331 29.9036 27.4006 30.1874 27.3503C31.015 27.2018 31.8383 27.0298 32.6594 26.8663V22.5643C31.8222 22.3997 31.0085 22.2309 30.1906 22.0835C29.909 22.0332 29.7306 21.9061 29.6306 21.64C29.4995 21.2949 29.3479 20.9572 29.1942 20.5896C28.2774 20.9668 27.4014 21.3269 26.5373 21.6817V21.6828Z" fill="white"/>
<path id="Vector_3" d="M18.1032 30.3622C14.1758 30.375 11.3974 26.4535 12.7463 22.8022C12.9376 22.2851 13.0795 22.2209 13.5857 22.4293C14.9733 22.9988 16.3556 23.5801 17.7517 24.1283C17.9592 24.2095 18.2558 24.2063 18.4643 24.1251C19.8466 23.5801 21.217 23.0021 22.5906 22.4357C23.1172 22.2188 23.2591 22.284 23.4558 22.8257C24.78 26.4695 22.0231 30.3494 18.1021 30.3622H18.1032ZM13.4815 23.2574C12.8441 24.9019 13.3525 27.2367 15.1625 28.582C16.9832 29.9359 19.494 29.8739 21.232 28.426C22.9281 27.0134 23.3236 24.7064 22.7034 23.2692C22.6046 23.3055 22.5046 23.3397 22.4068 23.3803C21.0826 23.9242 19.7617 24.4788 18.4289 25.0024C18.2311 25.0804 17.9517 25.0708 17.7496 24.996C17.0219 24.7278 16.3115 24.4125 15.5935 24.1176C14.8906 23.8291 14.1855 23.5438 13.4815 23.2564V23.2574Z" fill="white"/>
<path id="Vector_4" d="M0.795386 8.48378C0.928664 5.4427 2.16793 2.94336 4.49921 0.970826C4.72708 0.777419 4.94526 0.77635 5.19785 0.920604C5.70946 1.21232 6.2243 1.49976 6.74559 1.77224C7.04869 1.93038 7.06588 2.07143 6.80255 2.29689C5.68259 3.25538 4.76899 4.37842 4.09938 5.69167C3.34808 7.16413 2.959 8.72634 2.90526 10.374C2.88698 10.9479 2.85796 10.9607 2.33238 10.7395C2.13461 10.6572 1.94437 10.5397 1.73908 10.4959C1.04474 10.3463 0.83408 9.8761 0.83193 9.24138C0.83193 8.98814 0.807209 8.73596 0.794312 8.48378H0.795386Z" fill="white" fill-opacity="0.25"/>
<path id="Vector_5" d="M35.2336 8.46279C35.1971 8.85388 35.1477 9.25031 35.1272 9.64888C35.1068 10.0303 34.9252 10.2558 34.5619 10.3798C34.233 10.492 33.9191 10.6469 33.5978 10.7805C33.1926 10.9482 33.1657 10.913 33.1055 10.4856C32.9647 9.48646 32.8841 8.4692 32.6218 7.50003C32.0834 5.50826 30.9473 3.85735 29.4135 2.47358C29.0581 2.15302 29.0954 1.87413 29.5253 1.63691C29.9584 1.39756 30.3948 1.16248 30.8247 0.915641C31.0784 0.770318 31.2944 0.785278 31.5223 0.977617C33.8407 2.94268 35.0746 5.43025 35.2336 8.46279Z" fill="white" fill-opacity="0.25"/>
<path id="Vector_6" d="M11.5833 19.2165C10.7697 19.1257 10.1925 18.3499 10.5408 17.68C11.1179 16.5697 11.7671 15.4948 12.4271 14.4305C12.7119 13.9721 13.3159 13.8877 13.791 14.1473C14.2682 14.4091 14.5197 15.0022 14.2575 15.4852C13.6588 16.5847 13.0268 17.6693 12.3572 18.7271C12.2099 18.959 11.8477 19.0573 11.5844 19.2165H11.5833Z" fill="white" fill-opacity="0.25"/>
<path id="Vector_7" d="M15.7665 15.4034C16.6081 15.4836 17.1842 16.2657 16.8317 16.9603C16.363 17.8846 15.8213 18.7757 15.2678 19.6541C14.9733 20.1232 14.3488 20.2161 13.8738 19.9437C13.3976 19.6701 13.1687 19.0878 13.4309 18.5994C13.9157 17.6965 14.4273 16.8053 14.984 15.9452C15.1431 15.6994 15.5 15.5797 15.7654 15.4023L15.7665 15.4034Z" fill="white" fill-opacity="0.25"/>
<path id="Vector_8" d="M19.5048 18.1366C19.4693 18.236 19.4241 18.4476 19.3242 18.6292C19.0017 19.2116 18.6675 19.7886 18.3214 20.3582C17.9699 20.9384 17.3444 21.1104 16.8037 20.7963C16.2867 20.496 16.1234 19.8645 16.4394 19.2982C16.7833 18.6816 17.138 18.0704 17.511 17.4709C17.784 17.0328 18.2676 16.8704 18.732 17.0136C19.1909 17.1557 19.4962 17.5564 19.5048 18.1366Z" fill="white" fill-opacity="0.25"/>
<path id="Vector_9" d="M10.63 12.4492C11.4705 12.5433 12.0154 13.3222 11.6693 14.0243C11.3168 14.7391 10.9019 15.4262 10.4644 16.094C10.1678 16.5482 9.52075 16.6379 9.0618 16.3644C8.61252 16.0962 8.38681 15.5159 8.62972 15.0447C8.99516 14.3363 9.38962 13.6364 9.83889 12.9781C10.0044 12.7356 10.3602 12.6213 10.6289 12.4492H10.63Z" fill="white" fill-opacity="0.25"/>
<path id="Vector_10" d="M26.5373 21.6839C27.4014 21.328 28.2774 20.969 29.1942 20.5918C29.3479 20.9594 29.4995 21.297 29.6306 21.6422C29.7316 21.9082 29.909 22.0354 30.1906 22.0856C31.0085 22.232 31.8221 22.4019 32.6594 22.5665V26.8684C31.8383 27.0309 31.015 27.204 30.1873 27.3525C29.9036 27.4038 29.7359 27.5363 29.6295 27.797C29.2426 28.747 28.8503 29.6948 28.444 30.6361C28.329 30.9011 28.3623 31.1095 28.5235 31.3403C28.9964 32.0188 29.4532 32.7091 29.8907 33.3567C28.8653 34.3707 27.8518 35.3719 26.7974 36.4148C26.2019 36.0195 25.5151 35.5814 24.8509 35.1134C24.5542 34.9039 24.3016 34.8751 23.9631 35.0247C23.057 35.4254 22.137 35.794 21.2148 36.1573C20.9321 36.2695 20.7977 36.4469 20.7451 36.7397C20.5978 37.5518 20.428 38.3585 20.2646 39.1792H15.9331C15.7665 38.3575 15.5913 37.5528 15.4462 36.7429C15.3935 36.4469 15.2646 36.2685 14.983 36.1563C14.0253 35.7737 13.073 35.3794 12.1229 34.9787C11.8746 34.874 11.6714 34.8964 11.4489 35.0492C10.7535 35.5258 10.0474 35.9874 9.381 36.4309C8.35455 35.4136 7.33992 34.4103 6.29412 33.3738C6.72405 32.7369 7.17654 32.0488 7.64946 31.3734C7.82788 31.1191 7.86658 30.8937 7.73653 30.5987C7.32917 29.6723 6.94331 28.7363 6.56282 27.7981C6.45534 27.5342 6.28874 27.4038 6.00607 27.3536C5.17738 27.205 4.35299 27.0319 3.51678 26.8663V22.5729C4.34117 22.4094 5.16341 22.2363 5.98994 22.0888C6.28874 22.0354 6.46824 21.8997 6.57142 21.6165C6.69288 21.281 6.84765 20.9572 7.00135 20.595C7.90527 20.9658 8.78125 21.3248 9.63895 21.6764C8.45988 26.1846 9.59059 29.8572 13.6416 32.3618C16.6779 34.2393 20.6591 33.9764 23.4719 31.7603C26.7877 29.1487 27.6647 25.7369 26.5373 21.6849V21.6839Z" fill="white" fill-opacity="0.25"/>
</g>
<defs>
<clipPath id="clip0_515_10829">
<rect width="36" height="40" fill="white"/>
</clipPath>
</defs>
</svg>
