<svg width="42" height="46" viewBox="0 0 42 46" fill="none" xmlns="http://www.w3.org/2000/svg">
<g id="Group 5">
<g id="Group">
<path id="Vector" d="M25.94 11.4647C26.2194 11.2032 26.4322 10.9361 26.705 10.7665C27.0021 10.5818 27.3556 10.4881 27.6733 10.3597C27.6537 9.9464 27.4859 9.83299 27.1043 9.86486C26.1256 9.94452 25.236 9.72334 24.6126 8.8864C24.2545 8.40655 24.2938 8.30345 24.8329 8.08321C25.2791 7.90045 25.7263 7.71863 26.1959 7.5265C26.105 6.87701 26.2653 6.33155 26.929 6.09443C27.5299 5.87981 27.9865 6.14785 28.3371 6.66332C28.8264 6.46744 29.3111 6.29874 29.7732 6.08037C30.182 5.8873 30.3488 6.03538 30.4154 6.42808C30.5898 7.46183 30.1323 8.23972 29.4095 8.90796C29.3186 8.99231 29.1573 9.0476 29.1301 9.14507C29.0833 9.31096 29.117 9.50028 29.117 9.76645C29.582 9.58557 29.9382 9.44217 30.2991 9.30815C30.8007 9.12258 31.0922 9.24629 31.3078 9.74115C31.4747 10.1245 31.6284 10.5134 31.8 10.9305L32.6971 10.5659C32.549 10.1966 32.414 9.83955 32.2622 9.48903C32.144 9.21724 32.2144 9.06073 32.4937 8.9492C34.7783 8.03635 37.0619 7.11787 39.3409 6.19096C39.6193 6.07756 39.773 6.12817 39.8846 6.40746C40.5136 7.98386 41.1464 9.55839 41.7885 11.1301C41.8963 11.3944 41.8288 11.534 41.5767 11.6362C39.279 12.5594 36.9822 13.4844 34.6874 14.4151C34.4033 14.5303 34.2552 14.4488 34.1549 14.1704C34.0293 13.8227 33.8746 13.4863 33.718 13.1095C33.4115 13.2351 33.1434 13.3448 32.8274 13.4741C33.1415 14.2632 33.4434 15.0261 33.7499 15.7871C34.1652 16.8209 34.1277 16.9118 33.0965 17.3504C33.0121 17.386 32.9315 17.431 32.8471 17.4732C38.5009 25.777 35.8667 36.4472 28.8517 41.7678C22.0974 46.8906 12.6507 46.5719 6.17198 40.898C-0.215809 35.3047 -1.69604 25.94 2.59842 18.4948C6.80101 11.2088 16.8017 6.94449 25.94 11.4647ZM26.6234 13.013C26.4856 12.3222 26.4275 12.236 25.8706 11.9605C22.2502 10.1713 18.4498 9.6568 14.4965 10.4572C5.28328 12.3232 -0.77453 21.2717 0.857572 30.5661C2.53186 40.0986 11.7414 46.4642 21.2565 44.6656C31.1138 42.8025 37.4022 32.9448 34.9245 23.2305C34.4117 21.2211 33.5709 19.3579 32.37 17.641C31.6144 17.9446 30.8785 18.2398 30.1435 18.5369C29.2014 18.9174 29.0467 18.8528 28.6717 17.9249C28.353 17.1367 28.0315 16.3504 27.7015 15.5388C27.3705 15.6737 27.0912 15.7871 26.7996 15.9062C26.9609 16.3045 27.0987 16.6513 27.2421 16.9962C27.3462 17.2455 27.2852 17.402 27.0237 17.5069C24.7251 18.4273 22.4274 19.3514 20.1344 20.2849C19.8691 20.3926 19.7275 20.3392 19.6253 20.0843C18.9888 18.4938 18.3523 16.9034 17.7054 15.3176C17.6051 15.0711 17.6651 14.938 17.8985 14.8434C20.2094 13.9118 22.5202 12.9783 24.8301 12.0448C25.0813 11.9436 25.236 11.9998 25.3335 12.2707C25.4628 12.6325 25.626 12.9811 25.7834 13.3569C26.0947 13.2304 26.3628 13.1217 26.6253 13.0148L26.6234 13.013ZM28.548 16.4273C29.987 15.8462 31.3941 15.2782 32.8321 14.6981C32.1787 13.0767 31.5478 11.49 30.8907 9.91359C30.8457 9.80581 30.5748 9.68398 30.4688 9.72428C29.2351 10.1966 28.009 10.6924 26.7931 11.2088C26.6909 11.2519 26.5859 11.5265 26.629 11.6371C27.2487 13.2276 27.8946 14.8087 28.548 16.4273ZM29.9739 6.48338C28.2733 7.17036 26.6037 7.84422 24.8994 8.53307C25.4657 9.28659 26.1884 9.52559 26.9759 9.40843C27.6133 9.31377 27.978 9.46092 28.1196 10.0935C28.1243 10.1132 28.1674 10.1235 28.2077 10.147C28.383 10.072 28.5658 9.9942 28.7627 9.91078C28.7392 9.83206 28.7336 9.76739 28.7036 9.71772C28.4289 9.26785 28.5161 8.98106 28.9773 8.66053C29.6842 8.16849 30.1098 7.4712 29.9739 6.48431V6.48338ZM33.2615 15.8874C32.5603 16.1677 31.8544 16.4479 31.1504 16.7328C30.4482 17.0158 29.7489 17.3036 29.0533 17.5875C29.2133 18.128 29.5286 18.3039 29.9992 18.1152C30.9947 17.7141 31.9894 17.312 32.9849 16.909C33.6712 16.6316 33.6805 16.6006 33.2624 15.8874H33.2615ZM22.8877 14.2932C22.747 13.983 22.6308 13.729 22.508 13.4582C21.8218 13.7384 21.1984 13.9924 20.5506 14.2576C20.6753 14.565 20.7775 14.8152 20.8918 15.0973C21.5705 14.8237 22.1986 14.5706 22.8867 14.2932H22.8877ZM37.4266 8.42623C37.2925 8.11226 37.1857 7.86015 37.0685 7.58461C36.387 7.86296 35.7495 8.12351 35.0933 8.39155C35.2283 8.71021 35.3351 8.96325 35.4476 9.22849C36.1179 8.95669 36.7479 8.70083 37.4266 8.42623ZM39.3662 12.0448C40.0505 11.7655 40.6898 11.505 41.3507 11.2351C41.2214 10.9277 41.1154 10.6746 40.9992 10.3972C40.3214 10.6727 39.6812 10.9324 39.0221 11.1995C39.1459 11.5041 39.2443 11.7468 39.3662 12.0448ZM21.4037 16.3607C22.088 16.0833 22.718 15.8274 23.3845 15.5566C23.2589 15.2548 23.1492 14.9924 23.0339 14.715C22.3552 14.9905 21.7243 15.2464 21.0587 15.5163C21.1778 15.8068 21.2809 16.0608 21.4037 16.3607ZM20.02 19.8472C20.6922 19.5754 21.3334 19.3167 21.999 19.0468C21.8771 18.7413 21.7758 18.4873 21.6605 18.2005C20.9809 18.476 20.3406 18.7356 19.6741 19.0065C19.7941 19.2998 19.8991 19.5538 20.02 19.8472ZM26.4612 16.2642C25.7656 16.5454 25.1282 16.804 24.4766 17.0674C24.606 17.3842 24.7091 17.6353 24.8226 17.9118C25.5135 17.6316 26.1509 17.3729 26.8025 17.1086C26.6806 16.8087 26.5831 16.5678 26.4612 16.2651V16.2642ZM20.1287 14.4207C19.4378 14.7009 18.8088 14.9568 18.1479 15.2248C18.2717 15.5238 18.3766 15.7778 18.4957 16.0664C19.1641 15.7956 19.8053 15.5369 20.4775 15.2642C20.3565 14.9718 20.2515 14.7187 20.1287 14.4207ZM21.1506 16.9409C20.4653 17.2183 19.8363 17.4732 19.1669 17.745C19.2953 18.0505 19.406 18.3129 19.5203 18.5857C20.1972 18.3111 20.8281 18.0552 21.4937 17.7844C21.3784 17.5013 21.2752 17.2473 21.1506 16.9409ZM23.9704 15.8096C24.0913 16.102 24.1992 16.3654 24.3173 16.6494C24.9979 16.3729 25.6269 16.118 26.2944 15.8481C26.1669 15.5435 26.0572 15.281 25.9428 15.0064C25.2669 15.282 24.6369 15.5388 23.9714 15.8106L23.9704 15.8096ZM38.6078 11.3616C37.9178 11.6428 37.2785 11.9033 36.6213 12.1704C36.746 12.475 36.8491 12.7271 36.9663 13.0139C37.6525 12.7346 38.2928 12.4741 38.9462 12.2079C38.8243 11.9033 38.7268 11.6596 38.6078 11.3616ZM33.5483 11.4609C34.2336 11.1835 34.8636 10.9277 35.5301 10.6568C35.4111 10.3672 35.3023 10.1048 35.1823 9.81237C34.4914 10.0945 33.8558 10.3541 33.2052 10.6193C33.3337 10.9333 33.4321 11.1742 33.5483 11.4609ZM38.8571 10.7824C39.5518 10.5012 40.1893 10.2426 40.8417 9.9792C40.7152 9.66711 40.613 9.41593 40.4986 9.1357C39.8086 9.41499 39.1712 9.67367 38.5159 9.9389C38.6368 10.2379 38.7343 10.4787 38.8571 10.7824ZM34.0546 12.7196C34.7398 12.4413 35.3689 12.1863 36.0373 11.9155C35.9089 11.6109 35.7982 11.3485 35.6839 11.0757C35.0061 11.3513 34.3752 11.6071 33.7105 11.8771C33.8268 12.161 33.9299 12.415 34.0546 12.7196ZM39.9877 7.87327C39.3005 8.15256 38.6706 8.40842 38.005 8.67928C38.1287 8.98012 38.2375 9.24255 38.3528 9.52277C39.0334 9.24629 39.6633 8.99043 40.3327 8.7177C40.2146 8.4281 40.1105 8.17505 39.9877 7.87421V7.87327ZM25.4413 13.744C24.7551 14.0214 24.1279 14.2754 23.4576 14.5463C23.5879 14.8509 23.6986 15.1114 23.8157 15.386C24.4944 15.1114 25.1235 14.8565 25.7881 14.5875C25.6709 14.3035 25.5669 14.0505 25.4413 13.744ZM39.4833 6.6174C38.8093 6.88919 38.1709 7.14599 37.4997 7.41684C37.6178 7.71488 37.7181 7.96699 37.8353 8.26315C38.514 7.98949 39.1534 7.73175 39.819 7.46277C39.7074 7.18254 39.6118 6.94167 39.4833 6.6174ZM34.5617 13.9839C35.2479 13.7056 35.8854 13.446 36.5454 13.1779C36.4235 12.878 36.3213 12.6259 36.2032 12.3363C35.5198 12.6147 34.8814 12.8733 34.2243 13.1404C34.3424 13.4357 34.4389 13.6775 34.5617 13.9839ZM23.2964 14.1292C23.9648 13.8593 24.6051 13.6015 25.2725 13.3316C25.1535 13.0289 25.0532 12.7749 24.9388 12.4834C24.2601 12.7581 23.6179 13.0167 22.9495 13.2876C23.0686 13.5762 23.1736 13.8312 23.2964 14.1283V14.1292ZM21.908 17.6203C22.5886 17.3457 23.2261 17.088 23.8917 16.819C23.7717 16.52 23.6704 16.2679 23.5532 15.9755C22.8755 16.2492 22.2371 16.5069 21.5705 16.775C21.6896 17.0721 21.7899 17.3232 21.908 17.6194V17.6203ZM20.9846 16.5266C20.8553 16.2229 20.7446 15.9624 20.6275 15.6869C19.9469 15.9624 19.3178 16.2173 18.656 16.4863C18.7798 16.7797 18.8885 17.0393 19.0094 17.3261C19.6928 17.0496 20.32 16.7956 20.9846 16.5266ZM35.9454 10.4928C36.6166 10.221 37.2569 9.96139 37.9309 9.68866C37.8016 9.38219 37.6909 9.12164 37.5756 8.84891C36.8932 9.12633 36.2641 9.38125 35.607 9.64836C35.7223 9.93515 35.8245 10.1901 35.9463 10.4928H35.9454ZM34.6808 8.55369C34.0039 8.82736 33.3618 9.08697 32.6953 9.35689L33.0384 10.1994C33.7087 9.92859 34.3508 9.66992 35.0183 9.40094C34.8983 9.10009 34.797 8.8461 34.6808 8.55369ZM22.4264 18.8809C23.0995 18.6072 23.7389 18.3457 24.4045 18.0749C24.2807 17.7778 24.1738 17.5238 24.0538 17.2361C23.3836 17.5088 22.7424 17.7694 22.0768 18.0402C22.2024 18.3439 22.3083 18.5979 22.4255 18.8809H22.4264ZM36.4526 11.7543C37.135 11.4769 37.7744 11.2173 38.439 10.9473C38.3162 10.6502 38.2103 10.3963 38.0912 10.1076C37.4191 10.3803 36.7788 10.6399 36.1151 10.9089C36.2341 11.207 36.3307 11.4497 36.4526 11.7543ZM25.9419 13.7787C26.18 14.3673 26.404 14.9202 26.6346 15.4891C26.9553 15.3532 27.2346 15.2351 27.5337 15.1095C27.2956 14.5228 27.0762 13.9821 26.8437 13.4085C26.5325 13.5359 26.2531 13.6512 25.9419 13.7787ZM33.5605 12.6924C33.3149 12.0908 33.0899 11.5425 32.8612 10.9811C32.5368 11.1132 32.2678 11.2229 31.9612 11.3475C32.1984 11.9333 32.4215 12.4844 32.6521 13.0542C32.9653 12.9296 33.2362 12.8218 33.5615 12.6924H33.5605ZM33.0946 15.2342C33.044 15.2023 32.9924 15.1705 32.9418 15.1386C31.6313 15.6653 30.3216 16.1939 29.0102 16.7169C28.7795 16.8087 28.6558 16.9146 28.8995 17.163C30.2307 16.6278 31.5694 16.0945 32.9015 15.5444C32.9934 15.5069 33.0318 15.341 33.0956 15.2351L33.0946 15.2342ZM26.6431 7.34843C27.0799 7.17036 27.4643 7.0129 27.8674 6.84889C27.6743 6.47494 27.3827 6.40933 27.064 6.51711C26.7096 6.63708 26.5747 6.91637 26.644 7.34843H26.6431Z" fill="white" stroke="white" stroke-width="0.08"/>
</g>
<g id="Group 2">
<path id="Vector_2" d="M27.2871 28.5705C25.3341 28.5769 23.7332 26.9891 23.7313 25.044C23.7286 23.0942 25.3195 21.512 27.2807 21.5156C29.2208 21.5184 30.7971 23.0805 30.8135 25.0147C30.83 26.9599 29.2382 28.565 27.288 28.5714L27.2871 28.5705Z" fill="white" fill-opacity="0.5"/>
<path id="Vector_3" d="M15.3937 38.0289C15.3882 39.2565 14.3861 40.2529 13.1573 40.2529C11.9129 40.2529 10.9035 39.2273 10.92 37.9814C10.9365 36.7593 11.9541 35.7684 13.182 35.7794C14.4072 35.7904 15.3983 36.7986 15.3928 38.0289H15.3937Z" fill="white" fill-opacity="0.5"/>
<path id="Vector_4" d="M9.59061 20.3496C10.8158 20.3524 11.8234 21.3597 11.8234 22.5818C11.8234 23.8231 10.7966 24.835 9.54947 24.8213C8.32521 24.8076 7.34234 23.7994 7.34965 22.5644C7.35696 21.335 8.3563 20.3469 9.59061 20.3496Z" fill="white" fill-opacity="0.5"/>
<path id="Vector_5" d="M19.1159 32.6728C19.1204 31.5266 20.0366 30.6207 21.1822 30.629C22.3196 30.6372 23.2449 31.5695 23.2348 32.6994C23.2257 33.8237 22.2748 34.7624 21.1557 34.7533C20.0247 34.7441 19.1113 33.8127 19.1159 32.6728Z" fill="white" fill-opacity="0.5"/>
<path id="Vector_6" d="M4.33429 30.9447C4.3288 30.0919 5.00447 29.3999 5.84838 29.3926C6.69228 29.3853 7.38441 30.0681 7.39173 30.9182C7.39904 31.7665 6.7188 32.4639 5.87489 32.4731C5.03556 32.4822 4.33886 31.7912 4.33337 30.9447H4.33429Z" fill="white" fill-opacity="0.5"/>
<path id="Vector_7" d="M16.1919 22.5987C16.1864 21.7624 16.8502 21.0869 17.6786 21.0859C18.5051 21.085 19.179 21.766 19.1735 22.5951C19.168 23.4068 18.5124 24.0722 17.7051 24.0869C16.8795 24.1015 16.1974 23.4306 16.1919 22.5987Z" fill="white" fill-opacity="0.5"/>
<path id="Vector_8" d="M26.626 36.0489C27.3016 36.0534 27.8292 36.59 27.8255 37.2701C27.8219 37.9419 27.2724 38.4885 26.6086 38.4821C25.9384 38.4757 25.4044 37.9291 25.4081 37.2527C25.4118 36.5754 25.9494 36.0443 26.626 36.0489Z" fill="white" fill-opacity="0.5"/>
<path id="Vector_9" d="M12.7413 15.5503C12.7404 14.8802 13.2835 14.3309 13.9519 14.3281C14.6138 14.3254 15.1743 14.8812 15.177 15.5429C15.1789 16.2029 14.6202 16.7669 13.9601 16.7696C13.3018 16.7724 12.7432 16.2139 12.7422 15.5503H12.7413Z" fill="white" fill-opacity="0.5"/>
<path id="Vector_10" d="M14.5087 30.7084C13.8413 30.6974 13.2927 30.1361 13.3055 29.4753C13.3174 28.808 13.8724 28.2751 14.5462 28.2833C15.2164 28.2915 15.7604 28.8473 15.7495 29.5118C15.7385 30.1764 15.1762 30.7193 14.5097 30.7084H14.5087Z" fill="white" fill-opacity="0.5"/>
</g>
<g id="Group 3">
<path id="Vector_11" d="M27.5323 1.15813C27.6944 1.19165 27.7676 1.30462 27.7211 1.42255C27.6664 1.56097 27.5603 1.57276 27.4274 1.53552C26.2732 1.21089 25.206 1.41821 24.2455 2.11401C23.6898 2.51623 23.295 3.06183 23.046 3.70798C23.0218 3.77129 22.9665 3.84826 22.9088 3.86688C22.8517 3.8855 22.7467 3.86005 22.7107 3.81474C22.6704 3.76446 22.6549 3.66081 22.6766 3.59811C22.8361 3.14128 23.082 2.72975 23.3986 2.36602C23.8239 1.8769 24.351 1.52372 24.9495 1.27917C25.4301 1.08178 25.9324 0.98992 26.4533 0.99861C26.5048 0.991161 27.1747 1.08427 27.5323 1.15751V1.15813Z" fill="white"/>
<path id="Vector_12" d="M24.0089 4.33572C23.8003 4.33261 23.7165 4.20847 23.7724 4.04957C23.9506 3.54308 24.2436 3.11728 24.672 2.78831C25.4388 2.19926 26.2887 2.04222 27.2181 2.29795C27.3895 2.34512 27.451 2.43202 27.4137 2.55864C27.3727 2.6983 27.2864 2.73803 27.1051 2.68216C26.0391 2.35381 25.0011 2.7883 24.4323 3.61508C24.3212 3.77646 24.2573 3.97012 24.161 4.14268C24.1157 4.22399 24.0456 4.29041 24.0089 4.33634V4.33572Z" fill="white"/>
<path id="Vector_13" d="M27.1027 3.63851C27.0829 3.75893 27.0189 3.83155 26.8848 3.81355C26.7991 3.80176 26.7141 3.78127 26.629 3.76638C26.064 3.66892 25.5059 3.96872 25.2755 4.4926C25.2538 4.54225 25.234 4.59315 25.2079 4.64095C25.1464 4.75453 25.0551 4.79364 24.9378 4.72971C24.8403 4.67633 24.8124 4.59253 24.8509 4.48391C25.0005 4.06307 25.2737 3.749 25.6679 3.5423C26.0603 3.33623 26.4726 3.29712 26.8991 3.41692C27.0096 3.44795 27.1021 3.49823 27.1027 3.63913V3.63851Z" fill="white"/>
</g>
</g>
</svg>
