<svg width="39" height="38" viewBox="0 0 39 38" fill="none" xmlns="http://www.w3.org/2000/svg">
<g id="Group 6">
<g id="Group">
<path id="Vector" d="M18.0134 0C18.2782 0.168569 18.3751 0.406497 18.3724 0.717296C18.3626 2.03687 18.3688 3.35645 18.368 4.67691C18.368 4.76295 18.3697 4.85075 18.3555 4.93503C18.304 5.23003 18.1209 5.41001 17.8206 5.40211C17.5229 5.39333 17.3336 5.21422 17.3167 4.90957C17.3007 4.62687 17.3069 4.34241 17.3069 4.05882C17.3069 2.94908 17.314 1.83846 17.3025 0.72871C17.2989 0.421422 17.3816 0.178227 17.6393 0.000877963H18.0152L18.0134 0Z" fill="white"/>
<path id="Vector_2" d="M21.8443 0C22.0825 0.170325 22.1838 0.392449 22.1811 0.691835C22.1705 2.036 22.1767 3.38104 22.1758 4.7252C22.1758 4.79895 22.1731 4.87357 22.1625 4.94644C22.1225 5.23442 21.9394 5.39508 21.6604 5.40298C21.3796 5.41089 21.1903 5.25197 21.1352 4.9719C21.1139 4.86391 21.1148 4.75154 21.1148 4.64091C21.1139 3.34592 21.1201 2.05092 21.1094 0.755926C21.1068 0.43547 21.1823 0.175593 21.4685 0.00175593H21.8443V0Z" fill="white"/>
<path id="Vector_3" d="M14.1816 0C14.4535 0.160667 14.5574 0.391572 14.5548 0.708516C14.5432 2.04126 14.5566 3.37313 14.5423 4.70588C14.5406 4.88938 14.489 5.12467 14.3673 5.23968C14.2518 5.34855 13.9772 5.41001 13.8403 5.34767C13.6857 5.27744 13.5266 5.05268 13.5089 4.88147C13.4626 4.42932 13.4911 3.97015 13.4911 3.51361C13.4911 2.58824 13.5026 1.66286 13.4849 0.737489C13.4786 0.428446 13.5648 0.18964 13.8057 0.000877963H14.1816V0Z" fill="white"/>
<path id="Vector_4" d="M25.6761 0C25.9151 0.18964 26.0005 0.427568 25.9969 0.737489C25.9818 2.06936 25.996 3.40211 25.9836 4.73486C25.9818 4.90694 25.9383 5.13345 25.8236 5.23354C25.701 5.34153 25.4584 5.39069 25.2904 5.35645C25.0078 5.29939 24.9314 5.04741 24.9323 4.77875C24.9332 3.4583 24.9323 2.13872 24.9323 0.818262C24.9323 0.781387 24.9359 0.743635 24.9323 0.707638C24.8968 0.390694 25.0292 0.159789 25.3011 0H25.677H25.6761Z" fill="white"/>
</g>
<path id="Vector_5" d="M19.7293 30.8797C16.8759 30.8797 14.0216 30.8806 11.1682 30.8797C9.0532 30.8788 7.72824 29.5663 7.72824 27.4732C7.72824 21.7972 7.72646 16.1211 7.72913 10.4451C7.72913 8.83668 8.69419 7.58471 10.2031 7.24055C10.4928 7.1747 10.7985 7.15538 11.0971 7.15451C16.8546 7.15012 22.6121 7.14924 28.3696 7.15187C30.4054 7.15187 31.7526 8.48813 31.7535 10.5048C31.7553 16.1808 31.7553 21.8569 31.7535 27.5329C31.7535 29.5487 30.4063 30.8779 28.366 30.8797C25.4868 30.8823 22.6085 30.8797 19.7293 30.8797ZM19.7471 29.8349C22.6138 29.8349 25.4815 29.8349 28.3482 29.8349C29.8136 29.8349 30.6951 28.9745 30.6951 27.5364C30.6969 21.8586 30.6969 16.1817 30.6951 10.5039C30.6951 9.05793 29.8269 8.19928 28.3545 8.1984C22.6076 8.19489 16.8617 8.19489 11.1148 8.1984C9.64859 8.19928 8.7875 9.0632 8.78661 10.5153C8.78572 16.1808 8.78572 21.8455 8.78661 27.511C8.78661 28.9798 9.6557 29.8349 11.1451 29.8349C14.0118 29.8349 16.8795 29.8349 19.7462 29.8349H19.7471Z" fill="white"/>
<g id="Group_2">
<path id="Vector_6" d="M3.27789 16.7438C3.95414 16.7438 4.62951 16.7394 5.30576 16.7456C5.73942 16.7491 5.98646 16.9484 5.98202 17.2706C5.97757 17.5928 5.72698 17.793 5.29599 17.7947C3.9186 17.7991 2.54209 17.8018 1.1647 17.7939C0.649291 17.7912 0.33649 17.3935 0.587087 17.0423C0.699055 16.8852 0.97009 16.7675 1.17537 16.7579C1.87473 16.7236 2.57675 16.7447 3.27789 16.7447V16.7438Z" fill="white"/>
<path id="Vector_7" d="M3.21296 21.5573C2.53671 21.5573 1.86134 21.5617 1.18509 21.5555C0.742543 21.552 0.508831 21.3615 0.511497 21.0305C0.514163 20.7048 0.759428 20.5081 1.19397 20.5064C2.57136 20.502 3.94787 20.5046 5.32526 20.5055C5.59096 20.5055 5.85311 20.5617 5.92509 20.8444C5.96508 21.0015 5.94286 21.2412 5.84422 21.3483C5.7287 21.473 5.49943 21.5424 5.31726 21.5485C4.61701 21.5705 3.91587 21.5573 3.21474 21.5573H3.21296Z" fill="white"/>
<path id="Vector_8" d="M3.28229 12.9766C3.97098 12.9766 4.65968 12.9731 5.34837 12.9775C5.74471 12.9801 5.98908 13.1891 5.98197 13.5025C5.97486 13.8046 5.73938 14.0179 5.36792 14.0197C3.95321 14.0258 2.5385 14.0258 1.12378 14.0197C0.75233 14.0179 0.518618 13.8054 0.511509 13.5034C0.5044 13.1838 0.739889 12.9801 1.14155 12.9775C1.85513 12.9722 2.56871 12.9758 3.28229 12.9758V12.9766Z" fill="white"/>
<path id="Vector_9" d="M3.21485 25.3241C2.52615 25.3241 1.83746 25.3276 1.14876 25.3223C0.74443 25.3197 0.509829 25.1221 0.511607 24.8026C0.513384 24.4874 0.755094 24.2828 1.15409 24.2819C2.54393 24.2784 3.93376 24.2784 5.3227 24.2819C5.72792 24.2828 5.96963 24.4768 5.98118 24.7894C5.99362 25.1134 5.74125 25.3206 5.31737 25.3223C4.61623 25.3258 3.9151 25.3232 3.21396 25.3232L3.21485 25.3241Z" fill="white"/>
</g>
<g id="Group_3">
<path id="Vector_10" d="M35.7958 16.7438C36.4721 16.7438 37.1475 16.7394 37.8237 16.7456C38.2574 16.7491 38.5044 16.9484 38.5 17.2706C38.4955 17.5928 38.2449 17.793 37.8139 17.7947C36.4365 17.7991 35.06 17.8018 33.6826 17.7939C33.1672 17.7912 32.8544 17.3935 33.105 17.0423C33.217 16.8852 33.488 16.7675 33.6933 16.7579C34.3927 16.7236 35.0947 16.7447 35.7958 16.7447V16.7438Z" fill="white"/>
<path id="Vector_11" d="M35.731 21.5573C35.0548 21.5573 34.3794 21.5617 33.7032 21.5555C33.2606 21.552 33.0269 21.3615 33.0296 21.0305C33.0322 20.7048 33.2775 20.5081 33.712 20.5064C35.0894 20.502 36.4659 20.5046 37.8433 20.5055C38.109 20.5055 38.3712 20.5617 38.4432 20.8444C38.4831 21.0015 38.4609 21.2412 38.3623 21.3483C38.2468 21.473 38.0175 21.5424 37.8353 21.5485C37.1351 21.5705 36.4339 21.5573 35.7328 21.5573H35.731Z" fill="white"/>
<path id="Vector_12" d="M35.8002 12.9766C36.4889 12.9766 37.1776 12.9731 37.8663 12.9775C38.2627 12.9801 38.507 13.1891 38.4999 13.5025C38.4928 13.8046 38.2573 14.0179 37.8859 14.0197C36.4712 14.0258 35.0564 14.0258 33.6417 14.0197C33.2703 14.0179 33.0366 13.8054 33.0295 13.5034C33.0223 13.1838 33.2578 12.9801 33.6595 12.9775C34.3731 12.9722 35.0867 12.9758 35.8002 12.9758V12.9766Z" fill="white"/>
<path id="Vector_13" d="M35.7328 25.3241C35.0441 25.3241 34.3554 25.3276 33.6667 25.3223C33.2624 25.3197 33.0278 25.1221 33.0296 24.8026C33.0313 24.4874 33.273 24.2828 33.672 24.2819C35.0619 24.2784 36.4517 24.2784 37.8406 24.2819C38.2459 24.2828 38.4876 24.4768 38.4991 24.7894C38.5116 25.1134 38.2592 25.3206 37.8353 25.3223C37.1342 25.3258 36.433 25.3232 35.7319 25.3232L35.7328 25.3241Z" fill="white"/>
</g>
<g id="Group_4">
<path id="Vector_14" d="M18.367 35.2787C18.367 35.9837 18.3883 36.6896 18.3528 37.3929C18.343 37.5807 18.199 37.8125 18.0435 37.9258C17.936 38.0039 17.6605 37.9714 17.537 37.8836C17.4108 37.7932 17.3175 37.5755 17.3157 37.4122C17.2988 36.0022 17.3015 34.5922 17.3086 33.183C17.3104 32.816 17.5361 32.5869 17.8418 32.5939C18.1475 32.6009 18.359 32.8301 18.3643 33.2015C18.3741 33.8942 18.367 34.5869 18.367 35.2796V35.2787Z" fill="white"/>
<path id="Vector_15" d="M22.1766 35.2971C22.1766 35.9775 22.181 36.658 22.1748 37.3375C22.1712 37.773 21.9766 38.0065 21.6416 38.0012C21.311 37.996 21.1173 37.7563 21.1155 37.3243C21.112 35.9635 21.1138 34.6035 21.1146 33.2427C21.1146 32.9793 21.1724 32.7168 21.4594 32.6527C21.6283 32.6149 21.8726 32.6544 21.9979 32.7589C22.1152 32.8564 22.165 33.0838 22.1695 33.2559C22.1881 33.9354 22.1775 34.6158 22.1775 35.2962L22.1766 35.2971Z" fill="white"/>
<path id="Vector_16" d="M13.4919 35.2841C13.4919 34.5913 13.4884 33.8986 13.4937 33.2059C13.4964 32.8354 13.6981 32.6019 14.002 32.594C14.3184 32.5852 14.5459 32.8302 14.5477 33.2156C14.553 34.601 14.553 35.9864 14.5477 37.3719C14.5459 37.7617 14.329 38.0022 14.0109 37.9996C13.6883 37.997 13.4955 37.7669 13.4928 37.3622C13.4884 36.6695 13.4919 35.9768 13.4919 35.2841Z" fill="white"/>
<path id="Vector_17" d="M25.9898 35.2929C25.9898 35.9856 25.9933 36.6784 25.988 37.3711C25.9853 37.7697 25.7827 38.0023 25.4601 37.9988C25.1429 37.9953 24.935 37.7556 24.9332 37.3614C24.9287 35.9883 24.9296 34.6151 24.9332 33.242C24.9341 32.8434 25.134 32.6037 25.4513 32.5941C25.7792 32.5835 25.9871 32.8311 25.9889 33.2517C25.9924 33.9321 25.9898 34.6125 25.9898 35.2929Z" fill="white"/>
</g>
<path id="Vector_18" d="M19.7577 9.7732C22.0602 9.7732 24.3635 9.76794 26.666 9.77584C27.8523 9.78023 28.7223 10.3957 29.004 11.4308C29.0777 11.7012 29.0991 11.9918 29.1 12.2736C29.1053 16.775 29.1062 21.2754 29.1026 25.7767C29.1017 27.3342 28.1518 28.2693 26.5753 28.2701C22.0193 28.2719 17.4641 28.2719 12.9081 28.2701C11.3316 28.2701 10.379 27.3342 10.3781 25.7802C10.3754 21.2789 10.3754 16.7785 10.3781 12.2772C10.3781 10.6872 11.3049 9.77672 12.924 9.77408C15.2016 9.77145 17.4801 9.77408 19.7577 9.77408V9.7732ZM19.7595 10.8232C17.4686 10.8232 15.1776 10.8232 12.8867 10.8232C11.8986 10.8232 11.4445 11.2719 11.4445 12.2543C11.4427 16.7688 11.4427 21.2833 11.4445 25.7978C11.4445 26.7609 11.9199 27.221 12.9054 27.221C17.4623 27.221 22.0193 27.221 26.5762 27.221C27.5608 27.221 28.038 26.76 28.038 25.7978C28.0407 21.2833 28.0398 16.7688 28.038 12.2543C28.038 11.2728 27.5813 10.8241 26.5949 10.8232C24.3164 10.8224 22.0379 10.8232 19.7595 10.8232Z" fill="white"/>
<path id="Vector_19" d="M19.7596 10.8227C22.038 10.8227 24.3165 10.8227 26.595 10.8227C27.5823 10.8227 28.0381 11.2722 28.0381 12.2537C28.0399 16.7682 28.0399 21.2827 28.0381 25.7972C28.0381 26.7594 27.56 27.2204 26.5763 27.2204C22.0194 27.2204 17.4624 27.2204 12.9055 27.2204C11.92 27.2204 11.4455 26.7603 11.4446 25.7972C11.4428 21.2827 11.4428 16.7682 11.4446 12.2537C11.4446 11.2713 11.8987 10.8235 12.8868 10.8227C15.1777 10.8218 17.4687 10.8227 19.7596 10.8227ZM18.591 20.4126C18.591 20.396 18.591 20.4293 18.591 20.4126C18.9776 20.4126 19.4788 20.3187 19.7214 20.5031C19.9808 20.6997 19.9977 21.2081 20.1204 21.5812C20.1284 21.6049 20.1328 21.6295 20.1399 21.6523C20.2492 21.9886 20.4145 22.0738 20.7655 21.9763C21.1272 21.8753 21.2258 21.705 21.1147 21.3459C20.5105 19.3854 19.8955 17.4276 19.3037 15.4636C19.1882 15.0808 18.9358 14.9517 18.5839 14.9482C18.2222 14.9447 17.9832 15.101 17.8694 15.4732C17.2785 17.4118 16.6707 19.3459 16.069 21.2818C15.9446 21.6831 16.0255 21.8595 16.3783 21.9702C16.7542 22.0887 16.9293 21.9851 17.0554 21.5777C17.1683 21.2133 17.1816 20.7094 17.4322 20.525C17.6997 20.3292 18.1947 20.4372 18.5901 20.4126H18.591ZM22.9791 18.5285C22.9791 17.5268 22.98 16.525 22.9791 15.5233C22.9791 15.1335 22.8485 15.0026 22.4753 15.0009C22.1011 14.9991 21.9563 15.1352 21.9554 15.5136C21.9527 17.5048 21.9527 19.4952 21.9554 21.4864C21.9554 21.8622 22.1091 22.0132 22.4664 22.0158C22.8254 22.0184 22.9782 21.8683 22.9791 21.4961C22.9818 20.5066 22.9791 19.5171 22.9791 18.5285Z" fill="white" fill-opacity="0.3"/>
<path id="Vector_20" d="M18.5909 20.4118C18.1955 20.4363 17.7005 20.3284 17.433 20.5241C17.1815 20.7085 17.1691 21.2125 17.0562 21.5768C16.9301 21.9842 16.755 22.0878 16.3791 21.9693C16.0263 21.8578 15.9446 21.6822 16.0699 21.2809C16.6706 19.345 17.2784 17.4118 17.8702 15.4723C17.984 15.1001 18.223 14.9438 18.5847 14.9473C18.9366 14.9508 19.189 15.0799 19.3045 15.4627C19.8972 17.4267 20.5113 19.3845 21.1156 21.345C21.2257 21.7041 21.1271 21.8745 20.7663 21.9754C20.4153 22.0729 20.2509 21.9877 20.1407 21.6514C20.1327 21.6277 20.1292 21.6032 20.1212 21.5803C19.9985 21.2081 19.9816 20.6997 19.7222 20.5022C19.4796 20.3178 18.9784 20.4118 18.5918 20.4118C18.5918 20.3951 18.5918 20.4284 18.5918 20.4118H18.5909ZM19.5489 19.6049C19.2272 18.5171 18.9224 17.482 18.5847 16.3398C18.2452 17.4899 17.9387 18.532 17.6223 19.6049H19.5498H19.5489Z" fill="white"/>
<path id="Vector_21" d="M22.9791 18.5277C22.9791 19.5171 22.9809 20.5066 22.9791 21.4952C22.9791 21.8674 22.8262 22.0184 22.4663 22.0149C22.1091 22.0123 21.9554 21.8613 21.9554 21.4855C21.9527 19.4943 21.9527 17.504 21.9554 15.5127C21.9554 15.1343 22.1011 14.9991 22.4752 15C22.8485 15.0018 22.9782 15.1326 22.9791 15.5224C22.9809 16.5241 22.9791 17.5259 22.9791 18.5277Z" fill="white"/>
<path id="Vector_22" d="M19.5489 19.605H17.6215C17.9378 18.5321 18.2453 17.49 18.5839 16.3398C18.9215 17.4821 19.2272 18.5172 19.548 19.605H19.5489Z" fill="white" fill-opacity="0.3"/>
</g>
</svg>
