<svg width="15" height="13" viewBox="0 0 15 13" fill="none" xmlns="http://www.w3.org/2000/svg">
<g id="twitter">
<path id="twitter_2" d="M13.4473 3.43945C13.4473 3.58594 13.4473 3.70312 13.4473 3.84961C13.4473 7.92188 10.3711 12.5801 4.7168 12.5801C2.95898 12.5801 1.34766 12.082 0 11.2031C0.234375 11.2324 0.46875 11.2617 0.732422 11.2617C2.16797 11.2617 3.48633 10.7637 4.54102 9.94336C3.19336 9.91406 2.05078 9.03516 1.66992 7.80469C1.875 7.83398 2.05078 7.86328 2.25586 7.86328C2.51953 7.86328 2.8125 7.80469 3.04688 7.74609C1.64062 7.45312 0.585938 6.22266 0.585938 4.72852V4.69922C0.996094 4.93359 1.49414 5.05078 1.99219 5.08008C1.14258 4.52344 0.615234 3.58594 0.615234 2.53125C0.615234 1.94531 0.761719 1.41797 1.02539 0.978516C2.54883 2.82422 4.83398 4.05469 7.38281 4.20117C7.32422 3.9668 7.29492 3.73242 7.29492 3.49805C7.29492 1.79883 8.67188 0.421875 10.3711 0.421875C11.25 0.421875 12.041 0.773438 12.627 1.38867C13.3008 1.24219 13.9746 0.978516 14.5605 0.626953C14.3262 1.35938 13.8574 1.94531 13.2129 2.32617C13.8281 2.26758 14.4434 2.0918 14.9707 1.85742C14.5605 2.47266 14.0332 3 13.4473 3.43945Z" fill="white"/>
</g>
</svg>
