<svg width="17" height="16" viewBox="0 0 17 16" fill="none" xmlns="http://www.w3.org/2000/svg">
<g id="Vector">
<path id="Vector_2" d="M14.7296 0H1.30163C0.591625 0 0.015625 0.576 0.015625 1.286V14.714C0.015625 15.424 0.591625 16 1.30163 16H14.7296C15.4396 16 16.0156 15.424 16.0156 14.714V1.286C16.0156 0.576 15.4396 0 14.7296 0ZM14.7296 14.72C5.77363 14.718 1.29562 14.716 1.29562 14.714C1.29762 5.758 1.29963 1.28 1.30163 1.28C10.2576 1.282 14.7356 1.284 14.7356 1.286C14.7336 10.242 14.7316 14.72 14.7296 14.72ZM2.38762 5.998H4.76162V13.634H2.38762V5.998ZM3.57562 4.954C4.33362 4.954 4.95162 4.338 4.95162 3.578C4.95162 3.3973 4.91603 3.21837 4.84688 3.05143C4.77773 2.88448 4.67638 2.73279 4.5486 2.60502C4.42083 2.47725 4.26914 2.37589 4.1022 2.30674C3.93525 2.23759 3.75632 2.202 3.57562 2.202C3.39493 2.202 3.216 2.23759 3.04905 2.30674C2.88211 2.37589 2.73042 2.47725 2.60265 2.60502C2.47487 2.73279 2.37352 2.88448 2.30437 3.05143C2.23522 3.21837 2.19962 3.3973 2.19962 3.578C2.19762 4.338 2.81362 4.954 3.57562 4.954ZM8.62162 9.856C8.62162 8.86 8.81162 7.896 10.0456 7.896C11.2616 7.896 11.2796 9.034 11.2796 9.92V13.634H13.6516V9.446C13.6516 7.39 13.2076 5.808 10.8056 5.808C9.65162 5.808 8.87763 6.442 8.55962 7.042H8.52762V5.998H6.24963V13.634H8.62162V9.856Z" fill="#D61F26"/>
</g>
</svg>
