<svg width="21" height="6" viewBox="0 0 21 6" fill="none" xmlns="http://www.w3.org/2000/svg">
<g id="Line 1">
<path id="Line 1_2" d="M0.333333 3.24026C0.333333 4.71302 1.52724 5.90692 3 5.90692C4.47276 5.90692 5.66667 4.71302 5.66667 3.24026C5.66667 1.7675 4.47276 0.573591 3 0.573591C1.52724 0.573591 0.333333 1.7675 0.333333 3.24026ZM15.3333 3.24026C15.3333 4.71302 16.5272 5.90692 18 5.90692C19.4728 5.90692 20.6667 4.71302 20.6667 3.24026C20.6667 1.7675 19.4728 0.573591 18 0.573591C16.5272 0.573591 15.3333 1.7675 15.3333 3.24026ZM3 3.74026H18V2.74026H3V3.74026Z" fill="#D61F26"/>
</g>
</svg>
