<svg width="77" height="77" viewBox="0 0 77 77" fill="none" xmlns="http://www.w3.org/2000/svg">
<g id="play-circle">
<path id="Vector 2" d="M24.2292 39.5317L29.3301 20.4034L53.5593 39.5317L29.3301 54.8344L24.2292 39.5317Z" fill="white"/>
<path id="Vector" d="M37.5734 2.04935C17.8553 2.04935 1.86722 18.0374 1.86722 37.7556C1.86722 57.4737 17.8553 73.4617 37.5734 73.4617C57.2915 73.4617 73.2796 57.4737 73.2796 37.7556C73.2796 18.0374 57.2915 2.04935 37.5734 2.04935ZM49.0584 38.3055L31.6516 50.97C31.5562 51.0386 31.4437 51.0795 31.3265 51.0884C31.2093 51.0972 31.092 51.0735 30.9874 51.02C30.8828 50.9664 30.7949 50.8851 30.7336 50.7849C30.6722 50.6847 30.6396 50.5695 30.6394 50.452V25.1388C30.639 25.0211 30.6712 24.9055 30.7325 24.805C30.7938 24.7044 30.8817 24.6228 30.9865 24.5691C31.0913 24.5155 31.209 24.4919 31.3263 24.501C31.4437 24.5102 31.5563 24.5516 31.6516 24.6208L49.0584 37.2773C49.1406 37.3355 49.2077 37.4125 49.254 37.502C49.3003 37.5914 49.3245 37.6907 49.3245 37.7914C49.3245 37.8921 49.3003 37.9914 49.254 38.0808C49.2077 38.1703 49.1406 38.2473 49.0584 38.3055Z" fill="#D61F26"/>
</g>
</svg>
