<svg width="42" height="33" viewBox="0 0 42 33" fill="none" xmlns="http://www.w3.org/2000/svg">
<path id="Vector" d="M22.7051 8.39848C22.6561 7.25915 22.8592 6.12303 23.2998 5.07101C23.7405 4.01898 24.4079 3.07692 25.2546 2.31188L25.2613 2.30653C27.014 0.754319 29.2966 -0.066289 31.6376 0.0141918H31.6229C33.038 -0.062234 34.4525 0.173512 35.766 0.704684C37.0796 1.23586 38.2599 2.04942 39.2231 3.08759L39.2285 3.09294C41.1596 5.38181 42.1446 8.31986 41.9828 11.3087L41.9842 11.2806C42.0739 14.3845 41.4963 17.4716 40.2903 20.3336L40.3439 20.1905C39.3809 22.4342 38.0455 24.4992 36.3938 26.2985L36.4085 26.2825C35.0433 27.7618 33.4613 29.0258 31.7166 30.0313L31.6202 30.0821C30.3007 30.8424 28.9235 31.4984 27.5015 32.0441L27.2926 32.115L23.0961 25.04C24.8399 24.3373 26.3706 23.1933 27.5376 21.7205L27.555 21.6978C28.717 20.3153 29.4458 18.6217 29.6506 16.8282L29.6546 16.7855C28.7414 16.7626 27.8434 16.5473 27.0194 16.1536C26.1954 15.76 25.4639 15.1968 24.873 14.5011L24.865 14.4918C23.3624 12.8208 22.5852 10.6226 22.7038 8.37976L22.7025 8.39982L22.7051 8.39848ZM0.0116476 8.39848C-0.0366476 7.25912 0.166862 6.1231 0.607718 5.07116C1.04857 4.01921 1.71596 3.07714 2.56246 2.31188L2.56915 2.30653C4.32149 0.753719 6.60434 -0.0669782 8.9455 0.0141918H8.93077C10.3459 -0.0626055 11.7605 0.17297 13.0741 0.704165C14.3877 1.23536 15.568 2.04912 16.531 3.08759L16.5363 3.09427C18.4683 5.38322 19.4533 8.322 19.2907 11.3114L19.292 11.2833C19.3817 14.3872 18.8042 17.4743 17.5982 20.3363L17.6517 20.1932C16.6893 22.4368 15.3542 24.5019 13.703 26.3012L13.7177 26.2852C12.352 27.7645 10.7696 29.0285 9.0245 30.0339L8.92809 30.0848C7.60881 30.8456 6.23163 31.5017 4.80931 32.0468L4.60042 32.1176L0.405316 25.0427C2.14938 24.3391 3.68006 23.1942 4.8468 21.7205L4.86421 21.6978C6.0262 20.3153 6.75501 18.6217 6.95975 16.8282L6.96377 16.7855C6.05098 16.7627 5.15333 16.5475 4.32972 16.1538C3.5061 15.7601 2.77516 15.1969 2.18486 14.5011L2.17682 14.4918C0.672686 12.8221 -0.106101 10.6241 0.0116476 8.3811L0.0103086 8.40116L0.0116476 8.39848Z" fill="#D61F26"/>
</svg>
